<?xml version="1.0" encoding="utf-8"?>
<svg version="1.1" xmlns:xlink="http://www.w3.org/1999/xlink" width="49px" height="45px" xmlns="http://www.w3.org/2000/svg">
  <defs>
    <pattern id="BGPattern" patternUnits="userSpaceOnUse" alignment="0 0" imageRepeat="None" />
    <mask fill="white" id="Clip81">
      <path d="M 0 17.5  C 0 7.699999999999999  8.579999999999998 0  19.5 0  C 30.42 0  39 7.699999999999999  39 17.5  C 39 27.3  30.42 35  19.5 35  C 8.579999999999998 35  0 27.3  0 17.5  Z " fill-rule="evenodd" />
    </mask>
  </defs>
  <g transform="matrix(1 0 0 1 -379 -382 )">
    <path d="M 0 17.5  C 0 7.699999999999999  8.579999999999998 0  19.5 0  C 30.42 0  39 7.699999999999999  39 17.5  C 39 27.3  30.42 35  19.5 35  C 8.579999999999998 35  0 27.3  0 17.5  Z " fill-rule="nonzero" fill="rgba(245, 154, 35, 1)" stroke="none" transform="matrix(1 0 0 1 383 386 )" class="fill" />
    <path d="M 0 17.5  C 0 7.699999999999999  8.579999999999998 0  19.5 0  C 30.42 0  39 7.699999999999999  39 17.5  C 39 27.3  30.42 35  19.5 35  C 8.579999999999998 35  0 27.3  0 17.5  Z " stroke-width="2" stroke-dasharray="0" stroke="rgba(170, 170, 170, 1)" fill="none" transform="matrix(1 0 0 1 383 386 )" class="stroke" mask="url(#Clip81)" />
  </g>
  <style>svg { filter: drop-shadow(1px 1px 2.5px rgba(0, 0, 0, 0.6980392156862745)); }</style>
</svg>