<?xml version="1.0" encoding="utf-8"?>
<svg version="1.1" xmlns:xlink="http://www.w3.org/1999/xlink" width="12px" height="12px" viewBox="298 156 12 12" xmlns="http://www.w3.org/2000/svg">
  <path d="M 304 156  C 307.36 156  310 158.64  310 162  C 310 165.36  307.36 168  304 168  C 300.64 168  298 165.36  298 162  C 298 158.64  300.64 156  304 156  Z " fill-rule="nonzero" fill="rgba(255, 255, 255, 1)" stroke="none" class="fill" />
  <path d="M 304 156.5  C 307.08 156.5  309.5 158.92  309.5 162  C 309.5 165.08  307.08 167.5  304 167.5  C 300.92 167.5  298.5 165.08  298.5 162  C 298.5 158.92  300.92 156.5  304 156.5  Z " stroke-width="1" stroke-dasharray="0" stroke="rgba(121, 121, 121, 1)" fill="none" class="stroke" stroke-dashoffset="0.5" />
  <path d="M 304 165  C 302.32 165  301 163.68  301 162  C 301 160.32  302.32 159  304 159  C 305.68 159  307 160.32  307 162  C 307 163.68  305.68 165  304 165  " fill-rule="nonzero" fill="rgba(121, 121, 121, 1)" stroke="none" class="stroke btn_check" />
</svg>