<?xml version="1.0" encoding="utf-8"?>
<svg version="1.1" xmlns:xlink="http://www.w3.org/1999/xlink" width="12px" height="12px" viewBox="200 784 12 12" xmlns="http://www.w3.org/2000/svg">
  <path d="M 206 784  C 209.36 784  212 786.64  212 790  C 212 793.36  209.36 796  206 796  C 202.64 796  200 793.36  200 790  C 200 786.64  202.64 784  206 784  Z " fill-rule="nonzero" fill="rgba(255, 255, 255, 1)" stroke="none" class="fill" />
  <path d="M 206 784.5  C 209.08 784.5  211.5 786.92  211.5 790  C 211.5 793.08  209.08 795.5  206 795.5  C 202.92 795.5  200.5 793.08  200.5 790  C 200.5 786.92  202.92 784.5  206 784.5  Z " stroke-width="1" stroke-dasharray="0" stroke="rgba(121, 121, 121, 1)" fill="none" class="stroke" stroke-dashoffset="0.5" />
  <path d="M 206 793  C 204.32 793  203 791.68  203 790  C 203 788.32  204.32 787  206 787  C 207.68 787  209 788.32  209 790  C 209 791.68  207.68 793  206 793  " fill-rule="nonzero" fill="rgba(121, 121, 121, 1)" stroke="none" class="stroke btn_check" />
</svg>