<?xml version="1.0" encoding="utf-8"?>
<svg version="1.1" xmlns:xlink="http://www.w3.org/1999/xlink" width="12px" height="12px" viewBox="270 784 12 12" xmlns="http://www.w3.org/2000/svg">
  <path d="M 276 784  C 279.36 784  282 786.64  282 790  C 282 793.36  279.36 796  276 796  C 272.64 796  270 793.36  270 790  C 270 786.64  272.64 784  276 784  Z " fill-rule="nonzero" fill="rgba(240, 240, 240, 1)" stroke="none" class="fill" />
  <path d="M 276 784.5  C 279.08 784.5  281.5 786.92  281.5 790  C 281.5 793.08  279.08 795.5  276 795.5  C 272.92 795.5  270.5 793.08  270.5 790  C 270.5 786.92  272.92 784.5  276 784.5  Z " stroke-width="1" stroke-dasharray="0" stroke="rgba(121, 121, 121, 1)" fill="none" class="stroke" stroke-dashoffset="0.5" />
  <path d="M 276 793  C 274.32 793  273 791.68  273 790  C 273 788.32  274.32 787  276 787  C 277.68 787  279 788.32  279 790  C 279 791.68  277.68 793  276 793  " fill-rule="nonzero" fill="rgba(121, 121, 121, 1)" stroke="none" class="stroke btn_check" />
</svg>