<?xml version="1.0" encoding="utf-8"?>
<svg version="1.1" xmlns:xlink="http://www.w3.org/1999/xlink" width="12px" height="12px" viewBox="122 663 12 12" xmlns="http://www.w3.org/2000/svg">
  <path d="M 128 663  C 131.36 663  134 665.64  134 669  C 134 672.36  131.36 675  128 675  C 124.64 675  122 672.36  122 669  C 122 665.64  124.64 663  128 663  Z " fill-rule="nonzero" fill="rgba(255, 255, 255, 1)" stroke="none" class="fill" />
  <path d="M 128 663.5  C 131.08 663.5  133.5 665.92  133.5 669  C 133.5 672.08  131.08 674.5  128 674.5  C 124.92 674.5  122.5 672.08  122.5 669  C 122.5 665.92  124.92 663.5  128 663.5  Z " stroke-width="1" stroke-dasharray="0" stroke="rgba(121, 121, 121, 1)" fill="none" class="stroke" stroke-dashoffset="0.5" />
  <path d="M 128 672  C 126.32 672  125 670.68  125 669  C 125 667.32  126.32 666  128 666  C 129.68 666  131 667.32  131 669  C 131 670.68  129.68 672  128 672  " fill-rule="nonzero" fill="rgba(121, 121, 121, 1)" stroke="none" class="stroke btn_check" />
</svg>