<?xml version="1.0" encoding="utf-8"?>
<svg version="1.1" xmlns:xlink="http://www.w3.org/1999/xlink" width="12px" height="12px" viewBox="222 663 12 12" xmlns="http://www.w3.org/2000/svg">
  <path d="M 228 663  C 231.36 663  234 665.64  234 669  C 234 672.36  231.36 675  228 675  C 224.64 675  222 672.36  222 669  C 222 665.64  224.64 663  228 663  Z " fill-rule="nonzero" fill="rgba(240, 240, 240, 1)" stroke="none" class="fill" />
  <path d="M 228 663.5  C 231.08 663.5  233.5 665.92  233.5 669  C 233.5 672.08  231.08 674.5  228 674.5  C 224.92 674.5  222.5 672.08  222.5 669  C 222.5 665.92  224.92 663.5  228 663.5  Z " stroke-width="1" stroke-dasharray="0" stroke="rgba(121, 121, 121, 1)" fill="none" class="stroke" stroke-dashoffset="0.5" />
  <path d="M 228 672  C 226.32 672  225 670.68  225 669  C 225 667.32  226.32 666  228 666  C 229.68 666  231 667.32  231 669  C 231 670.68  229.68 672  228 672  " fill-rule="nonzero" fill="rgba(121, 121, 121, 1)" stroke="none" class="stroke btn_check" />
</svg>