<?xml version="1.0" encoding="utf-8"?>
<svg version="1.1" xmlns:xlink="http://www.w3.org/1999/xlink" width="12px" height="12px" viewBox="149 762 12 12" xmlns="http://www.w3.org/2000/svg">
  <path d="M 155 762  C 158.36 762  161 764.64  161 768  C 161 771.36  158.36 774  155 774  C 151.64 774  149 771.36  149 768  C 149 764.64  151.64 762  155 762  Z " fill-rule="nonzero" fill="rgba(240, 240, 240, 1)" stroke="none" class="fill" />
  <path d="M 155 762.5  C 158.08 762.5  160.5 764.92  160.5 768  C 160.5 771.08  158.08 773.5  155 773.5  C 151.92 773.5  149.5 771.08  149.5 768  C 149.5 764.92  151.92 762.5  155 762.5  Z " stroke-width="1" stroke-dasharray="0" stroke="rgba(121, 121, 121, 1)" fill="none" class="stroke" stroke-dashoffset="0.5" />
  <path d="M 155 771  C 153.32 771  152 769.68  152 768  C 152 766.32  153.32 765  155 765  C 156.68 765  158 766.32  158 768  C 158 769.68  156.68 771  155 771  " fill-rule="nonzero" fill="rgba(121, 121, 121, 1)" stroke="none" class="stroke btn_check" />
</svg>