<?xml version="1.0" encoding="utf-8"?>
<svg version="1.1" xmlns:xlink="http://www.w3.org/1999/xlink" width="12px" height="12px" viewBox="149 732 12 12" xmlns="http://www.w3.org/2000/svg">
  <path d="M 155 732  C 158.36 732  161 734.64  161 738  C 161 741.36  158.36 744  155 744  C 151.64 744  149 741.36  149 738  C 149 734.64  151.64 732  155 732  Z " fill-rule="nonzero" fill="rgba(255, 255, 255, 1)" stroke="none" class="fill" />
  <path d="M 155 732.5  C 158.08 732.5  160.5 734.92  160.5 738  C 160.5 741.08  158.08 743.5  155 743.5  C 151.92 743.5  149.5 741.08  149.5 738  C 149.5 734.92  151.92 732.5  155 732.5  Z " stroke-width="1" stroke-dasharray="0" stroke="rgba(121, 121, 121, 1)" fill="none" class="stroke" stroke-dashoffset="0.5" />
  <path d="M 155 741  C 153.32 741  152 739.68  152 738  C 152 736.32  153.32 735  155 735  C 156.68 735  158 736.32  158 738  C 158 739.68  156.68 741  155 741  " fill-rule="nonzero" fill="rgba(121, 121, 121, 1)" stroke="none" class="stroke btn_check" />
</svg>