<?xml version="1.0" encoding="utf-8"?>
<svg version="1.1" xmlns:xlink="http://www.w3.org/1999/xlink" width="12px" height="12px" viewBox="149 656  12 12" xmlns="http://www.w3.org/2000/svg">
  <path d="M 155 656  C 158.36 656  161 658.64  161 662  C 161 665.36  158.36 668  155 668  C 151.64 668  149 665.36  149 662  C 149 658.64  151.64 656  155 656  Z " fill-rule="nonzero" fill="#ffffff" stroke="none" />
  <path d="M 155 656.5  C 158.08 656.5  160.5 658.92  160.5 662  C 160.5 665.08  158.08 667.5  155 667.5  C 151.92 667.5  149.5 665.08  149.5 662  C 149.5 658.92  151.92 656.5  155 656.5  Z " stroke-width="1" stroke="#797979" fill="none" />
  <path d="M 155 665  C 153.32 665  152 663.68  152 662  C 152 660.32  153.32 659  155 659  C 156.68 659  158 660.32  158 662  C 158 663.68  156.68 665  155 665  " fill-rule="nonzero" fill="#797979" stroke="none" />
</svg>