<?xml version="1.0" encoding="utf-8"?>
<svg version="1.1" xmlns:xlink="http://www.w3.org/1999/xlink" width="20px" height="20px" xmlns="http://www.w3.org/2000/svg">
  <defs>
    <pattern id="BGPattern" patternUnits="userSpaceOnUse" alignment="0 0" imageRepeat="None" />
    <mask fill="white" id="Clip4">
      <path d="M 16.90859375 3.0914062499999995  C 13.100000000000001 -0.7181640625000019  6.900781250000001 -0.7179687500000004  3.09140625 3.09140625  C -0.7171875 6.8999999999999995  -0.7171875 13.0990234375  3.09140625 16.90859375  C 6.8999999999999995 20.7181640625  13.0990234375 20.7171875  16.90859375 16.90859375  C 20.7181640625 13.100000000000001  20.7171875 6.9009765625  16.90859375 3.0914062499999995  Z M 16.1408203125 3.8589843749999986  C 19.5267578125 7.245117187499998  19.526953125000002 12.75390625  16.141015624999998 16.141015624999998  C 12.75390625 19.526953125  7.24609375 19.526953125  3.8589843750000004 16.141015624999998  C 0.4718750000000005 12.755078124999999  0.473046875 7.246093749999999  3.8589843750000004 3.8589843749999986  C 7.244921875000001 0.47187499999999827  12.754882812500002 0.4728515624999985  16.1408203125 3.8589843749999986  Z " fill-rule="evenodd" />
    </mask>
  </defs>
  <g transform="matrix(1 0 0 1 -729 -625 )">
    <path d="M 16.90859375 3.0914062499999995  C 13.100000000000001 -0.7181640625000019  6.900781250000001 -0.7179687500000004  3.09140625 3.09140625  C -0.7171875 6.8999999999999995  -0.7171875 13.0990234375  3.09140625 16.90859375  C 6.8999999999999995 20.7181640625  13.0990234375 20.7171875  16.90859375 16.90859375  C 20.7181640625 13.100000000000001  20.7171875 6.9009765625  16.90859375 3.0914062499999995  Z M 16.1408203125 3.8589843749999986  C 19.5267578125 7.245117187499998  19.526953125000002 12.75390625  16.141015624999998 16.141015624999998  C 12.75390625 19.526953125  7.24609375 19.526953125  3.8589843750000004 16.141015624999998  C 0.4718750000000005 12.755078124999999  0.473046875 7.246093749999999  3.8589843750000004 3.8589843749999986  C 7.244921875000001 0.47187499999999827  12.754882812500002 0.4728515624999985  16.1408203125 3.8589843749999986  Z " fill-rule="nonzero" fill="rgba(255, 255, 255, 1)" stroke="none" transform="matrix(1 0 0 1 729 625 )" class="fill" />
    <path d="M 16.90859375 3.0914062499999995  C 13.100000000000001 -0.7181640625000019  6.900781250000001 -0.7179687500000004  3.09140625 3.09140625  C -0.7171875 6.8999999999999995  -0.7171875 13.0990234375  3.09140625 16.90859375  C 6.8999999999999995 20.7181640625  13.0990234375 20.7171875  16.90859375 16.90859375  C 20.7181640625 13.100000000000001  20.7171875 6.9009765625  16.90859375 3.0914062499999995  Z " stroke-width="0" stroke-dasharray="0" stroke="rgba(255, 255, 255, 0)" fill="none" transform="matrix(1 0 0 1 729 625 )" class="stroke" mask="url(#Clip4)" />
    <path d="M 16.1408203125 3.8589843749999986  C 19.5267578125 7.245117187499998  19.526953125000002 12.75390625  16.141015624999998 16.141015624999998  C 12.75390625 19.526953125  7.24609375 19.526953125  3.8589843750000004 16.141015624999998  C 0.4718750000000005 12.755078124999999  0.473046875 7.246093749999999  3.8589843750000004 3.8589843749999986  C 7.244921875000001 0.47187499999999827  12.754882812500002 0.4728515624999985  16.1408203125 3.8589843749999986  Z " stroke-width="0" stroke-dasharray="0" stroke="rgba(255, 255, 255, 0)" fill="none" transform="matrix(1 0 0 1 729 625 )" class="stroke" mask="url(#Clip4)" />
  </g>
</svg>