<?xml version="1.0" encoding="utf-8"?>
<svg version="1.1" xmlns:xlink="http://www.w3.org/1999/xlink" width="8px" height="8px" xmlns="http://www.w3.org/2000/svg">
  <defs>
    <pattern id="BGPattern" patternUnits="userSpaceOnUse" alignment="0 0" imageRepeat="None" />
    <mask fill="white" id="Clip5">
      <path d="M 7.451565989950359 0.00566057254964214  C 7.308951350484966 0.00566057254964214  7.1720665829878705 0.06179038135095283  7.070507812500001 0.16191406250000018  L 4 3.232421875  L 0.9294921875000002 0.16191406250000107  C 0.8279334170121349 0.06179038135097592  0.6910486495150518 0.005660572549676779  0.548434010049677 0.005660572549676779  C 0.24866851790519018 0.005660572549676779  0.005660572549676779 0.24866851790519018  0.005660572549676779 0.548434010049677  C 0.005660572549676779 0.6910486495150518  0.06179038135097592 0.8279334170121349  0.16191406250000018 0.9294921875000002  L 3.232421875 4  L 0.16191406250000107 7.070507812500001  C 0.06179038135097592 7.172066582987869  0.005660572549676779 7.30895135048495  0.005660572549676779 7.451565989950325  C 0.005660572549676779 7.7513314820948125  0.24866851790519018 7.994339427450324  0.548434010049677 7.994339427450324  C 0.6910486495150518 7.994339427450324  0.8279334170121349 7.938209618649026  0.9294921875000002 7.838085937500001  L 4 4.767578125  L 7.070507812500001 7.8380859375000025  C 7.172066582987869 7.938209618649026  7.30895135048495 7.994339427450324  7.451565989950325 7.994339427450324  C 7.7513314820948125 7.994339427450324  7.994339427450324 7.7513314820948125  7.994339427450324 7.451565989950325  C 7.994339427450324 7.30895135048495  7.938209618649026 7.172066582987869  7.838085937500001 7.070507812500001  L 4.767578125 4  L 7.8380859375000025 0.9294921874999993  C 7.938209618649047 0.8279334170121295  7.994339427450358 0.6910486495150341  7.994339427450358 0.5484340100496432  C 7.994339427450358 0.24866851790515465  7.7513314820948445 0.00566057254964214  7.451565989950359 0.00566057254964214  Z " fill-rule="evenodd" />
    </mask>
  </defs>
  <g transform="matrix(1 0 0 1 -735 -631 )">
    <path d="M 7.451565989950359 0.00566057254964214  C 7.308951350484966 0.00566057254964214  7.1720665829878705 0.06179038135095283  7.070507812500001 0.16191406250000018  L 4 3.232421875  L 0.9294921875000002 0.16191406250000107  C 0.8279334170121349 0.06179038135097592  0.6910486495150518 0.005660572549676779  0.548434010049677 0.005660572549676779  C 0.24866851790519018 0.005660572549676779  0.005660572549676779 0.24866851790519018  0.005660572549676779 0.548434010049677  C 0.005660572549676779 0.6910486495150518  0.06179038135097592 0.8279334170121349  0.16191406250000018 0.9294921875000002  L 3.232421875 4  L 0.16191406250000107 7.070507812500001  C 0.06179038135097592 7.172066582987869  0.005660572549676779 7.30895135048495  0.005660572549676779 7.451565989950325  C 0.005660572549676779 7.7513314820948125  0.24866851790519018 7.994339427450324  0.548434010049677 7.994339427450324  C 0.6910486495150518 7.994339427450324  0.8279334170121349 7.938209618649026  0.9294921875000002 7.838085937500001  L 4 4.767578125  L 7.070507812500001 7.8380859375000025  C 7.172066582987869 7.938209618649026  7.30895135048495 7.994339427450324  7.451565989950325 7.994339427450324  C 7.7513314820948125 7.994339427450324  7.994339427450324 7.7513314820948125  7.994339427450324 7.451565989950325  C 7.994339427450324 7.30895135048495  7.938209618649026 7.172066582987869  7.838085937500001 7.070507812500001  L 4.767578125 4  L 7.8380859375000025 0.9294921874999993  C 7.938209618649047 0.8279334170121295  7.994339427450358 0.6910486495150341  7.994339427450358 0.5484340100496432  C 7.994339427450358 0.24866851790515465  7.7513314820948445 0.00566057254964214  7.451565989950359 0.00566057254964214  Z " fill-rule="nonzero" fill="rgba(255, 255, 255, 1)" stroke="none" transform="matrix(1 0 0 1 735 631 )" class="fill" />
    <path d="M 7.451565989950359 0.00566057254964214  C 7.308951350484966 0.00566057254964214  7.1720665829878705 0.06179038135095283  7.070507812500001 0.16191406250000018  L 4 3.232421875  L 0.9294921875000002 0.16191406250000107  C 0.8279334170121349 0.06179038135097592  0.6910486495150518 0.005660572549676779  0.548434010049677 0.005660572549676779  C 0.24866851790519018 0.005660572549676779  0.005660572549676779 0.24866851790519018  0.005660572549676779 0.548434010049677  C 0.005660572549676779 0.6910486495150518  0.06179038135097592 0.8279334170121349  0.16191406250000018 0.9294921875000002  L 3.232421875 4  L 0.16191406250000107 7.070507812500001  C 0.06179038135097592 7.172066582987869  0.005660572549676779 7.30895135048495  0.005660572549676779 7.451565989950325  C 0.005660572549676779 7.7513314820948125  0.24866851790519018 7.994339427450324  0.548434010049677 7.994339427450324  C 0.6910486495150518 7.994339427450324  0.8279334170121349 7.938209618649026  0.9294921875000002 7.838085937500001  L 4 4.767578125  L 7.070507812500001 7.8380859375000025  C 7.172066582987869 7.938209618649026  7.30895135048495 7.994339427450324  7.451565989950325 7.994339427450324  C 7.7513314820948125 7.994339427450324  7.994339427450324 7.7513314820948125  7.994339427450324 7.451565989950325  C 7.994339427450324 7.30895135048495  7.938209618649026 7.172066582987869  7.838085937500001 7.070507812500001  L 4.767578125 4  L 7.8380859375000025 0.9294921874999993  C 7.938209618649047 0.8279334170121295  7.994339427450358 0.6910486495150341  7.994339427450358 0.5484340100496432  C 7.994339427450358 0.24866851790515465  7.7513314820948445 0.00566057254964214  7.451565989950359 0.00566057254964214  Z " stroke-width="0" stroke-dasharray="0" stroke="rgba(255, 255, 255, 0)" fill="none" transform="matrix(1 0 0 1 735 631 )" class="stroke" mask="url(#Clip5)" />
  </g>
</svg>