<?xml version="1.0" encoding="utf-8"?>
<svg version="1.1" xmlns:xlink="http://www.w3.org/1999/xlink" width="35px" height="30px" xmlns="http://www.w3.org/2000/svg">
  <defs>
    <pattern id="BGPattern" patternUnits="userSpaceOnUse" alignment="0 0" imageRepeat="None" />
    <mask fill="white" id="Clip31">
      <path d="M 34.91472143841912 14.982144838579963  C 34.91472143841912 6.752905293543197  27.086892136517694 0.08301540096507332  17.486112667308134 0.08301540096507332  C 7.885333198098577 0.08301540096507332  0.10379499009076355 6.752905293543197  0.10379499009076355 14.982144838579963  C 0.10379499009076355 23.21138438361673  7.885333198098577 29.92095239545037  17.486112667308134 29.92095239545037  C 27.086892136517694 29.92095239545037  34.91472143841912 23.21138438361673  34.91472143841912 14.982144838579963  Z M 27.67478934110754 9.700988770967378  C 28.082151311178766 10.038252629538142  28.082151311178766 10.593746144014247  27.684047623219215 10.93497787655101  L 15.384495565975412 21.57267853142233  C 15.185443721995634 21.743294397690715  14.92158431037454 21.83058622903263  14.66235399457146 21.83058622903263  C 14.398494582950367 21.83058622903263  14.139264267147286 21.743294397690715  13.940212423167507 21.57267853142233  L 7.686281354118797 16.120906558766087  C 7.288177666159238 15.779674826229321  7.288177666159238 15.22418131175322  7.686281354118797 14.88294961799173  C 8.08438504207835 14.541717885454965  8.73246080896714 14.541717885454965  9.130564451688878 14.88294961799173  L 14.657724853515624 19.62051567670037  L 26.230506243537455 9.700988770967378  C 26.628609931497014 9.359757038430612  27.276685698385794 9.359757038430612  27.67478934110754 9.700988770967378  Z " fill-rule="evenodd" />
    </mask>
  </defs>
  <g transform="matrix(1 0 0 1 -326 -75 )">
    <path d="M 34.91472143841912 14.982144838579963  C 34.91472143841912 6.752905293543197  27.086892136517694 0.08301540096507332  17.486112667308134 0.08301540096507332  C 7.885333198098577 0.08301540096507332  0.10379499009076355 6.752905293543197  0.10379499009076355 14.982144838579963  C 0.10379499009076355 23.21138438361673  7.885333198098577 29.92095239545037  17.486112667308134 29.92095239545037  C 27.086892136517694 29.92095239545037  34.91472143841912 23.21138438361673  34.91472143841912 14.982144838579963  Z M 27.67478934110754 9.700988770967378  C 28.082151311178766 10.038252629538142  28.082151311178766 10.593746144014247  27.684047623219215 10.93497787655101  L 15.384495565975412 21.57267853142233  C 15.185443721995634 21.743294397690715  14.92158431037454 21.83058622903263  14.66235399457146 21.83058622903263  C 14.398494582950367 21.83058622903263  14.139264267147286 21.743294397690715  13.940212423167507 21.57267853142233  L 7.686281354118797 16.120906558766087  C 7.288177666159238 15.779674826229321  7.288177666159238 15.22418131175322  7.686281354118797 14.88294961799173  C 8.08438504207835 14.541717885454965  8.73246080896714 14.541717885454965  9.130564451688878 14.88294961799173  L 14.657724853515624 19.62051567670037  L 26.230506243537455 9.700988770967378  C 26.628609931497014 9.359757038430612  27.276685698385794 9.359757038430612  27.67478934110754 9.700988770967378  Z " fill-rule="nonzero" fill="rgba(242, 242, 242, 1)" stroke="none" transform="matrix(1 0 0 1 326 75 )" class="fill" />
    <path d="M 34.91472143841912 14.982144838579963  C 34.91472143841912 6.752905293543197  27.086892136517694 0.08301540096507332  17.486112667308134 0.08301540096507332  C 7.885333198098577 0.08301540096507332  0.10379499009076355 6.752905293543197  0.10379499009076355 14.982144838579963  C 0.10379499009076355 23.21138438361673  7.885333198098577 29.92095239545037  17.486112667308134 29.92095239545037  C 27.086892136517694 29.92095239545037  34.91472143841912 23.21138438361673  34.91472143841912 14.982144838579963  Z " stroke-width="0" stroke-dasharray="0" stroke="rgba(255, 255, 255, 0)" fill="none" transform="matrix(1 0 0 1 326 75 )" class="stroke" mask="url(#Clip31)" />
    <path d="M 27.67478934110754 9.700988770967378  C 28.082151311178766 10.038252629538142  28.082151311178766 10.593746144014247  27.684047623219215 10.93497787655101  L 15.384495565975412 21.57267853142233  C 15.185443721995634 21.743294397690715  14.92158431037454 21.83058622903263  14.66235399457146 21.83058622903263  C 14.398494582950367 21.83058622903263  14.139264267147286 21.743294397690715  13.940212423167507 21.57267853142233  L 7.686281354118797 16.120906558766087  C 7.288177666159238 15.779674826229321  7.288177666159238 15.22418131175322  7.686281354118797 14.88294961799173  C 8.08438504207835 14.541717885454965  8.73246080896714 14.541717885454965  9.130564451688878 14.88294961799173  L 14.657724853515624 19.62051567670037  L 26.230506243537455 9.700988770967378  C 26.628609931497014 9.359757038430612  27.276685698385794 9.359757038430612  27.67478934110754 9.700988770967378  Z " stroke-width="0" stroke-dasharray="0" stroke="rgba(255, 255, 255, 0)" fill="none" transform="matrix(1 0 0 1 326 75 )" class="stroke" mask="url(#Clip31)" />
  </g>
</svg>