<?xml version="1.0" encoding="utf-8"?>
<svg version="1.1" xmlns:xlink="http://www.w3.org/1999/xlink" width="33px" height="33px" xmlns="http://www.w3.org/2000/svg">
  <defs>
    <pattern id="BGPattern" patternUnits="userSpaceOnUse" alignment="0 0" imageRepeat="None" />
    <mask fill="white" id="Clip41">
      <path d="M 16.5 33  C 7.387301627791885 33  0 25.612698372208087  0 16.5  C 0 7.3873016277919135  7.387301627791885 0  16.5 0  C 25.612698372208115 0  33 7.3873016277919135  33 16.5  C 33 25.612698372208087  25.612698372208115 33  16.5 33  Z M 24.75 14  L 8.25 14  C 8.25 13.750687499999998  8.25 13.750687499999998  8.25 13.750687499999998  C 6.731596633730874 13.750687499999998  5.500687500000026 14.981596633730831  5.500687500000026 16.5  C 5.500687500000026 18.01840336626917  6.731596633730874 19.249312500000002  8.25 19.249312500000002  L 13.599999999998545 19  L 24.75 19  C 24.75 19.249312500000002  24.75 19.249312500000002  24.75 19.249312500000002  C 26.268403366269126 19.249312500000002  27.499312499999974 18.01840336626917  27.499312499999974 16.5  C 27.499312499999974 14.981596633730831  26.268403366269126 13.750687499999998  24.75 13.750687499999998  C 24.75 13.750687499999998  24.75 13.750687499999998  24.75 14  Z " fill-rule="evenodd" />
    </mask>
  </defs>
  <g transform="matrix(1 0 0 1 -839 -73 )">
    <path d="M 16.5 33  C 7.387301627791885 33  0 25.612698372208087  0 16.5  C 0 7.3873016277919135  7.387301627791885 0  16.5 0  C 25.612698372208115 0  33 7.3873016277919135  33 16.5  C 33 25.612698372208087  25.612698372208115 33  16.5 33  Z M 24.75 14  L 8.25 14  C 8.25 13.750687499999998  8.25 13.750687499999998  8.25 13.750687499999998  C 6.731596633730874 13.750687499999998  5.500687500000026 14.981596633730831  5.500687500000026 16.5  C 5.500687500000026 18.01840336626917  6.731596633730874 19.249312500000002  8.25 19.249312500000002  L 13.599999999998545 19  L 24.75 19  C 24.75 19.249312500000002  24.75 19.249312500000002  24.75 19.249312500000002  C 26.268403366269126 19.249312500000002  27.499312499999974 18.01840336626917  27.499312499999974 16.5  C 27.499312499999974 14.981596633730831  26.268403366269126 13.750687499999998  24.75 13.750687499999998  C 24.75 13.750687499999998  24.75 13.750687499999998  24.75 14  Z " fill-rule="nonzero" fill="rgba(242, 242, 242, 1)" stroke="none" transform="matrix(1 0 0 1 839 73 )" class="fill" />
    <path d="M 16.5 33  C 7.387301627791885 33  0 25.612698372208087  0 16.5  C 0 7.3873016277919135  7.387301627791885 0  16.5 0  C 25.612698372208115 0  33 7.3873016277919135  33 16.5  C 33 25.612698372208087  25.612698372208115 33  16.5 33  Z " stroke-width="0" stroke-dasharray="0" stroke="rgba(255, 255, 255, 0)" fill="none" transform="matrix(1 0 0 1 839 73 )" class="stroke" mask="url(#Clip41)" />
    <path d="M 24.75 14  L 8.25 14  C 8.25 13.750687499999998  8.25 13.750687499999998  8.25 13.750687499999998  C 6.731596633730874 13.750687499999998  5.500687500000026 14.981596633730831  5.500687500000026 16.5  C 5.500687500000026 18.01840336626917  6.731596633730874 19.249312500000002  8.25 19.249312500000002  L 13.599999999998545 19  L 24.75 19  C 24.75 19.249312500000002  24.75 19.249312500000002  24.75 19.249312500000002  C 26.268403366269126 19.249312500000002  27.499312499999974 18.01840336626917  27.499312499999974 16.5  C 27.499312499999974 14.981596633730831  26.268403366269126 13.750687499999998  24.75 13.750687499999998  C 24.75 13.750687499999998  24.75 13.750687499999998  24.75 14  Z " stroke-width="0" stroke-dasharray="0" stroke="rgba(255, 255, 255, 0)" fill="none" transform="matrix(1 0 0 1 839 73 )" class="stroke" mask="url(#Clip41)" />
  </g>
</svg>