<?xml version="1.0" encoding="utf-8"?>
<svg version="1.1" xmlns:xlink="http://www.w3.org/1999/xlink" width="12px" height="12px" viewBox="163 568 12 12" xmlns="http://www.w3.org/2000/svg">
  <path d="M 169 568  C 172.36 568  175 570.64  175 574  C 175 577.36  172.36 580  169 580  C 165.64 580  163 577.36  163 574  C 163 570.64  165.64 568  169 568  Z " fill-rule="nonzero" fill="rgba(240, 240, 240, 1)" stroke="none" class="fill" />
  <path d="M 169 568.5  C 172.08 568.5  174.5 570.92  174.5 574  C 174.5 577.08  172.08 579.5  169 579.5  C 165.92 579.5  163.5 577.08  163.5 574  C 163.5 570.92  165.92 568.5  169 568.5  Z " stroke-width="1" stroke-dasharray="0" stroke="rgba(121, 121, 121, 1)" fill="none" class="stroke" stroke-dashoffset="0.5" />
  <path d="M 169 577  C 167.32 577  166 575.68  166 574  C 166 572.32  167.32 571  169 571  C 170.68 571  172 572.32  172 574  C 172 575.68  170.68 577  169 577  " fill-rule="nonzero" fill="rgba(121, 121, 121, 1)" stroke="none" class="stroke btn_check" />
</svg>