<?xml version="1.0" encoding="utf-8"?>
<svg version="1.1" xmlns:xlink="http://www.w3.org/1999/xlink" width="12px" height="12px" viewBox="258 568 12 12" xmlns="http://www.w3.org/2000/svg">
  <path d="M 264 568  C 267.36 568  270 570.64  270 574  C 270 577.36  267.36 580  264 580  C 260.64 580  258 577.36  258 574  C 258 570.64  260.64 568  264 568  Z " fill-rule="nonzero" fill="rgba(255, 255, 255, 1)" stroke="none" class="fill" />
  <path d="M 264 568.5  C 267.08 568.5  269.5 570.92  269.5 574  C 269.5 577.08  267.08 579.5  264 579.5  C 260.92 579.5  258.5 577.08  258.5 574  C 258.5 570.92  260.92 568.5  264 568.5  Z " stroke-width="1" stroke-dasharray="0" stroke="rgba(121, 121, 121, 1)" fill="none" class="stroke" stroke-dashoffset="0.5" />
  <path d="M 264 577  C 262.32 577  261 575.68  261 574  C 261 572.32  262.32 571  264 571  C 265.68 571  267 572.32  267 574  C 267 575.68  265.68 577  264 577  " fill-rule="nonzero" fill="rgba(121, 121, 121, 1)" stroke="none" class="stroke btn_check" />
</svg>