<?xml version="1.0" encoding="utf-8"?>
<svg version="1.1" xmlns:xlink="http://www.w3.org/1999/xlink" width="12px" height="12px" viewBox="270 184 12 12" xmlns="http://www.w3.org/2000/svg">
  <path d="M 276 184  C 279.36 184  282 186.64  282 190  C 282 193.36  279.36 196  276 196  C 272.64 196  270 193.36  270 190  C 270 186.64  272.64 184  276 184  Z " fill-rule="nonzero" fill="rgba(255, 255, 255, 1)" stroke="none" class="fill" />
  <path d="M 276 184.5  C 279.08 184.5  281.5 186.92  281.5 190  C 281.5 193.08  279.08 195.5  276 195.5  C 272.92 195.5  270.5 193.08  270.5 190  C 270.5 186.92  272.92 184.5  276 184.5  Z " stroke-width="1" stroke-dasharray="0" stroke="rgba(217, 0, 27, 1)" fill="none" class="stroke" stroke-dashoffset="0.5" />
  <path d="M 276 193  C 274.32 193  273 191.68  273 190  C 273 188.32  274.32 187  276 187  C 277.68 187  279 188.32  279 190  C 279 191.68  277.68 193  276 193  " fill-rule="nonzero" fill="rgba(217, 0, 27, 1)" stroke="none" class="stroke btn_check" />
</svg>