<svg t="1631255445781" class="icon" viewBox="0 0 1218 1024" version="1.1" xmlns="http://www.w3.org/2000/svg" p-id="11059" width="200" height="200"><path d="M220.196322 324.046859h778.023547c40.544743 0 41.21876 20.751961 73.403094 69.994122L1218.416191 625.021582v329.063105c-0.777712 39.326327-33.623102 70.616292-73.403095 69.903388H73.390133C33.623102 1024.688016 0.777712 993.398052 0 954.071725v-327.676184l146.793227-232.497141C186.054745 338.266035 179.716388 324.046859 220.196322 324.046859z m18.898413 59.572775L76.151012 640.783221h393.69101s-21.892606 174.713105 146.987655 174.713105c168.374748 0 148.737508-174.713105 148.737509-174.713105H1157.495381l-148.1283-257.163587H239.094735zM626.473312 0h4.35519c4.575542 0 8.969617 2.475718 12.210085 6.895717 3.240469 4.407037 5.055131 10.395423 5.055131 16.630085v160.338386c0 6.234662-1.814662 12.223048-5.055131 16.630085-3.240469 4.407037-7.634544 6.895717-12.210085 6.895717h-4.35519C616.933372 207.38999 609.208095 196.851986 609.208095 183.864188V23.525802c0-6.234662 1.814662-12.223048 5.055131-16.630085 3.240469-4.407037 7.634544-6.895717 12.210086-6.895717zM278.887689 122.735988a24.497943 24.497943 0 0 1 32.288029 0l96.915935 88.10186c4.277419 3.823753 6.688327 9.12516 6.688327 14.672842 0 5.560644-2.423871 10.862051-6.688327 14.685804a24.497943 24.497943 0 0 1-32.288029 0l-96.915935-88.10186A19.715011 19.715011 0 0 1 272.199362 137.421792c0-5.560644 2.423871-10.862051 6.688327-14.685804z m660.640813-0.038885c4.277419 3.823753 6.688327 9.12516 6.688327 14.685803 0 5.547682-2.423871 10.862051-6.688327 14.685804l-96.915935 88.140746a24.497943 24.497943 0 0 1-32.288029 0A19.727973 19.727973 0 0 1 803.636211 225.497728c0-5.560644 2.423871-10.862051 6.688327-14.685803L907.331206 122.684141a24.497943 24.497943 0 0 1 32.197296 0z" p-id="11060" fill="#707070"></path></svg>