<?xml version="1.0" encoding="utf-8"?>
<svg version="1.1" xmlns:xlink="http://www.w3.org/1999/xlink" width="20px" height="18px" xmlns="http://www.w3.org/2000/svg">
  <defs>
    <pattern id="BGPattern" patternUnits="userSpaceOnUse" alignment="0 0" imageRepeat="None" />
    <mask fill="white" id="Clip63">
      <path d="M 1.5384615384615385 13.82142857142857  L 1.5384615384615385 16.714285714285715  L 5 16.714285714285715  L 5 13.82142857142857  L 1.5384615384615385 13.82142857142857  Z M 5.769230769230768 13.82142857142857  L 5.769230769230768 16.714285714285715  L 9.615384615384615 16.714285714285715  L 9.615384615384615 13.82142857142857  L 5.769230769230768 13.82142857142857  Z M 1.5384615384615385 9.964285714285715  L 1.5384615384615385 13.17857142857143  L 5 13.17857142857143  L 5 9.964285714285715  L 1.5384615384615385 9.964285714285715  Z M 5.769230769230768 9.964285714285715  L 5.769230769230768 13.17857142857143  L 9.615384615384615 13.17857142857143  L 9.615384615384615 9.964285714285715  L 5.769230769230768 9.964285714285715  Z M 1.5384615384615385 6.428571428571428  L 1.5384615384615385 9.32142857142857  L 5 9.32142857142857  L 5 6.428571428571428  L 1.5384615384615385 6.428571428571428  Z M 10.384615384615385 13.82142857142857  L 10.384615384615385 16.714285714285715  L 14.230769230769232 16.714285714285715  L 14.230769230769232 13.82142857142857  L 10.384615384615385 13.82142857142857  Z M 5.769230769230768 6.428571428571428  L 5.769230769230768 9.32142857142857  L 9.615384615384615 9.32142857142857  L 9.615384615384615 6.428571428571428  L 5.769230769230768 6.428571428571428  Z M 15 13.82142857142857  L 15 16.714285714285715  L 18.461538461538463 16.714285714285715  L 18.461538461538463 13.82142857142857  L 15 13.82142857142857  Z M 10.384615384615385 9.964285714285715  L 10.384615384615385 13.17857142857143  L 14.230769230769232 13.17857142857143  L 14.230769230769232 9.964285714285715  L 10.384615384615385 9.964285714285715  Z M 6.039663461538462 4.726004464285715  C 6.115785256410256 4.662388392857142  6.153846153846154 4.587053571428569  6.153846153846154 4.5  L 6.153846153846154 1.6071428571428574  C 6.153846153846154 1.5200892857142858  6.115785256410256 1.4447544642857135  6.039663461538462 1.3811383928571426  C 5.963541666666668 1.3175223214285696  5.873397435897436 1.2857142857142851  5.769230769230768 1.2857142857142851  L 5 1.2857142857142851  C 4.895833333333334 1.2857142857142851  4.805689102564103 1.3175223214285696  4.7295673076923075 1.3811383928571426  C 4.653445512820512 1.4447544642857135  4.615384615384616 1.5200892857142858  4.615384615384616 1.6071428571428574  L 4.615384615384616 4.5  C 4.615384615384616 4.587053571428569  4.653445512820512 4.662388392857142  4.7295673076923075 4.726004464285715  C 4.805689102564103 4.789620535714286  4.895833333333334 4.821428571428572  5 4.821428571428572  L 5.769230769230768 4.821428571428572  C 5.873397435897436 4.821428571428572  5.963541666666668 4.789620535714286  6.039663461538462 4.726004464285715  Z M 15 9.964285714285715  L 15 13.17857142857143  L 18.461538461538463 13.17857142857143  L 18.461538461538463 9.964285714285715  L 15 9.964285714285715  Z M 10.384615384615385 6.428571428571428  L 10.384615384615385 9.32142857142857  L 14.230769230769232 9.32142857142857  L 14.230769230769232 6.428571428571428  L 10.384615384615385 6.428571428571428  Z M 15 6.428571428571428  L 15 9.32142857142857  L 18.461538461538463 9.32142857142857  L 18.461538461538463 6.428571428571428  L 15 6.428571428571428  Z M 15.270432692307692 4.726004464285715  C 15.346554487179489 4.662388392857142  15.384615384615385 4.587053571428569  15.384615384615385 4.5  L 15.384615384615385 1.6071428571428574  C 15.384615384615385 1.5200892857142858  15.346554487179489 1.4447544642857135  15.270432692307692 1.3811383928571426  C 15.194310897435898 1.3175223214285696  15.104166666666668 1.2857142857142851  15 1.2857142857142851  L 14.230769230769232 1.2857142857142851  C 14.126602564102566 1.2857142857142851  14.036458333333336 1.3175223214285696  13.960336538461537 1.3811383928571426  C 13.884214743589745 1.4447544642857135  13.846153846153847 1.5200892857142858  13.846153846153847 1.6071428571428574  L 13.846153846153847 4.5  C 13.846153846153847 4.587053571428569  13.884214743589745 4.662388392857142  13.960336538461537 4.726004464285715  C 14.036458333333336 4.789620535714286  14.126602564102566 4.821428571428572  14.230769230769232 4.821428571428572  L 15 4.821428571428572  C 15.104166666666668 4.821428571428572  15.194310897435898 4.789620535714286  15.270432692307692 4.726004464285715  Z M 19.54326923076923 2.953125  C 19.847756410256412 3.2075892857142856  20 3.508928571428571  20 3.8571428571428577  L 20 16.714285714285715  C 20 17.0625  19.847756410256412 17.363839285714285  19.54326923076923 17.618303571428573  C 19.23878205128205 17.872767857142858  18.87820512820513 18  18.461538461538463 18  L 1.5384615384615385 18  C 1.121794871794872 18  0.7612179487179488 17.872767857142858  0.4567307692307692 17.618303571428573  C 0.15224358974358973 17.363839285714285  0 17.0625  0 16.714285714285715  L 0 3.8571428571428577  C 0 3.508928571428571  0.15224358974358973 3.2075892857142856  0.4567307692307692 2.953125  C 0.7612179487179488 2.698660714285712  1.121794871794872 2.571428571428572  1.5384615384615385 2.571428571428572  L 3.076923076923077 2.571428571428572  L 3.076923076923077 1.6071428571428574  C 3.076923076923077 1.1651785714285723  3.265224358974359 0.7868303571428561  3.641826923076923 0.47209821428571486  C 4.018429487179488 0.15736607142857162  4.471153846153847 0  5 0  L 5.769230769230768 0  C 6.298076923076923 0  6.750801282051283 0.15736607142857162  7.127403846153846 0.47209821428571486  C 7.504006410256411 0.7868303571428561  7.6923076923076925 1.1651785714285723  7.6923076923076925 1.6071428571428574  L 7.6923076923076925 2.571428571428572  L 12.307692307692308 2.571428571428572  L 12.307692307692308 1.6071428571428574  C 12.307692307692308 1.1651785714285723  12.495993589743591 0.7868303571428561  12.872596153846153 0.47209821428571486  C 13.24919871794872 0.15736607142857162  13.701923076923077 0  14.230769230769232 0  L 15 0  C 15.528846153846153 0  15.981570512820513 0.15736607142857162  16.358173076923077 0.47209821428571486  C 16.734775641025642 0.7868303571428561  16.923076923076923 1.1651785714285723  16.923076923076923 1.6071428571428574  L 16.923076923076923 2.571428571428572  L 18.461538461538463 2.571428571428572  C 18.87820512820513 2.571428571428572  19.23878205128205 2.698660714285712  19.54326923076923 2.953125  Z " fill-rule="evenodd" />
    </mask>
  </defs>
  <g transform="matrix(1 0 0 1 -646 -201 )">
    <path d="M 1.5384615384615385 13.82142857142857  L 1.5384615384615385 16.714285714285715  L 5 16.714285714285715  L 5 13.82142857142857  L 1.5384615384615385 13.82142857142857  Z M 5.769230769230768 13.82142857142857  L 5.769230769230768 16.714285714285715  L 9.615384615384615 16.714285714285715  L 9.615384615384615 13.82142857142857  L 5.769230769230768 13.82142857142857  Z M 1.5384615384615385 9.964285714285715  L 1.5384615384615385 13.17857142857143  L 5 13.17857142857143  L 5 9.964285714285715  L 1.5384615384615385 9.964285714285715  Z M 5.769230769230768 9.964285714285715  L 5.769230769230768 13.17857142857143  L 9.615384615384615 13.17857142857143  L 9.615384615384615 9.964285714285715  L 5.769230769230768 9.964285714285715  Z M 1.5384615384615385 6.428571428571428  L 1.5384615384615385 9.32142857142857  L 5 9.32142857142857  L 5 6.428571428571428  L 1.5384615384615385 6.428571428571428  Z M 10.384615384615385 13.82142857142857  L 10.384615384615385 16.714285714285715  L 14.230769230769232 16.714285714285715  L 14.230769230769232 13.82142857142857  L 10.384615384615385 13.82142857142857  Z M 5.769230769230768 6.428571428571428  L 5.769230769230768 9.32142857142857  L 9.615384615384615 9.32142857142857  L 9.615384615384615 6.428571428571428  L 5.769230769230768 6.428571428571428  Z M 15 13.82142857142857  L 15 16.714285714285715  L 18.461538461538463 16.714285714285715  L 18.461538461538463 13.82142857142857  L 15 13.82142857142857  Z M 10.384615384615385 9.964285714285715  L 10.384615384615385 13.17857142857143  L 14.230769230769232 13.17857142857143  L 14.230769230769232 9.964285714285715  L 10.384615384615385 9.964285714285715  Z M 6.039663461538462 4.726004464285715  C 6.115785256410256 4.662388392857142  6.153846153846154 4.587053571428569  6.153846153846154 4.5  L 6.153846153846154 1.6071428571428574  C 6.153846153846154 1.5200892857142858  6.115785256410256 1.4447544642857135  6.039663461538462 1.3811383928571426  C 5.963541666666668 1.3175223214285696  5.873397435897436 1.2857142857142851  5.769230769230768 1.2857142857142851  L 5 1.2857142857142851  C 4.895833333333334 1.2857142857142851  4.805689102564103 1.3175223214285696  4.7295673076923075 1.3811383928571426  C 4.653445512820512 1.4447544642857135  4.615384615384616 1.5200892857142858  4.615384615384616 1.6071428571428574  L 4.615384615384616 4.5  C 4.615384615384616 4.587053571428569  4.653445512820512 4.662388392857142  4.7295673076923075 4.726004464285715  C 4.805689102564103 4.789620535714286  4.895833333333334 4.821428571428572  5 4.821428571428572  L 5.769230769230768 4.821428571428572  C 5.873397435897436 4.821428571428572  5.963541666666668 4.789620535714286  6.039663461538462 4.726004464285715  Z M 15 9.964285714285715  L 15 13.17857142857143  L 18.461538461538463 13.17857142857143  L 18.461538461538463 9.964285714285715  L 15 9.964285714285715  Z M 10.384615384615385 6.428571428571428  L 10.384615384615385 9.32142857142857  L 14.230769230769232 9.32142857142857  L 14.230769230769232 6.428571428571428  L 10.384615384615385 6.428571428571428  Z M 15 6.428571428571428  L 15 9.32142857142857  L 18.461538461538463 9.32142857142857  L 18.461538461538463 6.428571428571428  L 15 6.428571428571428  Z M 15.270432692307692 4.726004464285715  C 15.346554487179489 4.662388392857142  15.384615384615385 4.587053571428569  15.384615384615385 4.5  L 15.384615384615385 1.6071428571428574  C 15.384615384615385 1.5200892857142858  15.346554487179489 1.4447544642857135  15.270432692307692 1.3811383928571426  C 15.194310897435898 1.3175223214285696  15.104166666666668 1.2857142857142851  15 1.2857142857142851  L 14.230769230769232 1.2857142857142851  C 14.126602564102566 1.2857142857142851  14.036458333333336 1.3175223214285696  13.960336538461537 1.3811383928571426  C 13.884214743589745 1.4447544642857135  13.846153846153847 1.5200892857142858  13.846153846153847 1.6071428571428574  L 13.846153846153847 4.5  C 13.846153846153847 4.587053571428569  13.884214743589745 4.662388392857142  13.960336538461537 4.726004464285715  C 14.036458333333336 4.789620535714286  14.126602564102566 4.821428571428572  14.230769230769232 4.821428571428572  L 15 4.821428571428572  C 15.104166666666668 4.821428571428572  15.194310897435898 4.789620535714286  15.270432692307692 4.726004464285715  Z M 19.54326923076923 2.953125  C 19.847756410256412 3.2075892857142856  20 3.508928571428571  20 3.8571428571428577  L 20 16.714285714285715  C 20 17.0625  19.847756410256412 17.363839285714285  19.54326923076923 17.618303571428573  C 19.23878205128205 17.872767857142858  18.87820512820513 18  18.461538461538463 18  L 1.5384615384615385 18  C 1.121794871794872 18  0.7612179487179488 17.872767857142858  0.4567307692307692 17.618303571428573  C 0.15224358974358973 17.363839285714285  0 17.0625  0 16.714285714285715  L 0 3.8571428571428577  C 0 3.508928571428571  0.15224358974358973 3.2075892857142856  0.4567307692307692 2.953125  C 0.7612179487179488 2.698660714285712  1.121794871794872 2.571428571428572  1.5384615384615385 2.571428571428572  L 3.076923076923077 2.571428571428572  L 3.076923076923077 1.6071428571428574  C 3.076923076923077 1.1651785714285723  3.265224358974359 0.7868303571428561  3.641826923076923 0.47209821428571486  C 4.018429487179488 0.15736607142857162  4.471153846153847 0  5 0  L 5.769230769230768 0  C 6.298076923076923 0  6.750801282051283 0.15736607142857162  7.127403846153846 0.47209821428571486  C 7.504006410256411 0.7868303571428561  7.6923076923076925 1.1651785714285723  7.6923076923076925 1.6071428571428574  L 7.6923076923076925 2.571428571428572  L 12.307692307692308 2.571428571428572  L 12.307692307692308 1.6071428571428574  C 12.307692307692308 1.1651785714285723  12.495993589743591 0.7868303571428561  12.872596153846153 0.47209821428571486  C 13.24919871794872 0.15736607142857162  13.701923076923077 0  14.230769230769232 0  L 15 0  C 15.528846153846153 0  15.981570512820513 0.15736607142857162  16.358173076923077 0.47209821428571486  C 16.734775641025642 0.7868303571428561  16.923076923076923 1.1651785714285723  16.923076923076923 1.6071428571428574  L 16.923076923076923 2.571428571428572  L 18.461538461538463 2.571428571428572  C 18.87820512820513 2.571428571428572  19.23878205128205 2.698660714285712  19.54326923076923 2.953125  Z " fill-rule="nonzero" fill="rgba(0, 0, 0, 1)" stroke="none" transform="matrix(1 0 0 1 646 201 )" class="fill" />
    <path d="M 1.5384615384615385 13.82142857142857  L 1.5384615384615385 16.714285714285715  L 5 16.714285714285715  L 5 13.82142857142857  L 1.5384615384615385 13.82142857142857  Z " stroke-width="0" stroke-dasharray="0" stroke="rgba(170, 170, 170, 1)" fill="none" transform="matrix(1 0 0 1 646 201 )" class="stroke" mask="url(#Clip63)" />
    <path d="M 5.769230769230768 13.82142857142857  L 5.769230769230768 16.714285714285715  L 9.615384615384615 16.714285714285715  L 9.615384615384615 13.82142857142857  L 5.769230769230768 13.82142857142857  Z " stroke-width="0" stroke-dasharray="0" stroke="rgba(170, 170, 170, 1)" fill="none" transform="matrix(1 0 0 1 646 201 )" class="stroke" mask="url(#Clip63)" />
    <path d="M 1.5384615384615385 9.964285714285715  L 1.5384615384615385 13.17857142857143  L 5 13.17857142857143  L 5 9.964285714285715  L 1.5384615384615385 9.964285714285715  Z " stroke-width="0" stroke-dasharray="0" stroke="rgba(170, 170, 170, 1)" fill="none" transform="matrix(1 0 0 1 646 201 )" class="stroke" mask="url(#Clip63)" />
    <path d="M 5.769230769230768 9.964285714285715  L 5.769230769230768 13.17857142857143  L 9.615384615384615 13.17857142857143  L 9.615384615384615 9.964285714285715  L 5.769230769230768 9.964285714285715  Z " stroke-width="0" stroke-dasharray="0" stroke="rgba(170, 170, 170, 1)" fill="none" transform="matrix(1 0 0 1 646 201 )" class="stroke" mask="url(#Clip63)" />
    <path d="M 1.5384615384615385 6.428571428571428  L 1.5384615384615385 9.32142857142857  L 5 9.32142857142857  L 5 6.428571428571428  L 1.5384615384615385 6.428571428571428  Z " stroke-width="0" stroke-dasharray="0" stroke="rgba(170, 170, 170, 1)" fill="none" transform="matrix(1 0 0 1 646 201 )" class="stroke" mask="url(#Clip63)" />
    <path d="M 10.384615384615385 13.82142857142857  L 10.384615384615385 16.714285714285715  L 14.230769230769232 16.714285714285715  L 14.230769230769232 13.82142857142857  L 10.384615384615385 13.82142857142857  Z " stroke-width="0" stroke-dasharray="0" stroke="rgba(170, 170, 170, 1)" fill="none" transform="matrix(1 0 0 1 646 201 )" class="stroke" mask="url(#Clip63)" />
    <path d="M 5.769230769230768 6.428571428571428  L 5.769230769230768 9.32142857142857  L 9.615384615384615 9.32142857142857  L 9.615384615384615 6.428571428571428  L 5.769230769230768 6.428571428571428  Z " stroke-width="0" stroke-dasharray="0" stroke="rgba(170, 170, 170, 1)" fill="none" transform="matrix(1 0 0 1 646 201 )" class="stroke" mask="url(#Clip63)" />
    <path d="M 15 13.82142857142857  L 15 16.714285714285715  L 18.461538461538463 16.714285714285715  L 18.461538461538463 13.82142857142857  L 15 13.82142857142857  Z " stroke-width="0" stroke-dasharray="0" stroke="rgba(170, 170, 170, 1)" fill="none" transform="matrix(1 0 0 1 646 201 )" class="stroke" mask="url(#Clip63)" />
    <path d="M 10.384615384615385 9.964285714285715  L 10.384615384615385 13.17857142857143  L 14.230769230769232 13.17857142857143  L 14.230769230769232 9.964285714285715  L 10.384615384615385 9.964285714285715  Z " stroke-width="0" stroke-dasharray="0" stroke="rgba(170, 170, 170, 1)" fill="none" transform="matrix(1 0 0 1 646 201 )" class="stroke" mask="url(#Clip63)" />
    <path d="M 6.039663461538462 4.726004464285715  C 6.115785256410256 4.662388392857142  6.153846153846154 4.587053571428569  6.153846153846154 4.5  L 6.153846153846154 1.6071428571428574  C 6.153846153846154 1.5200892857142858  6.115785256410256 1.4447544642857135  6.039663461538462 1.3811383928571426  C 5.963541666666668 1.3175223214285696  5.873397435897436 1.2857142857142851  5.769230769230768 1.2857142857142851  L 5 1.2857142857142851  C 4.895833333333334 1.2857142857142851  4.805689102564103 1.3175223214285696  4.7295673076923075 1.3811383928571426  C 4.653445512820512 1.4447544642857135  4.615384615384616 1.5200892857142858  4.615384615384616 1.6071428571428574  L 4.615384615384616 4.5  C 4.615384615384616 4.587053571428569  4.653445512820512 4.662388392857142  4.7295673076923075 4.726004464285715  C 4.805689102564103 4.789620535714286  4.895833333333334 4.821428571428572  5 4.821428571428572  L 5.769230769230768 4.821428571428572  C 5.873397435897436 4.821428571428572  5.963541666666668 4.789620535714286  6.039663461538462 4.726004464285715  Z " stroke-width="0" stroke-dasharray="0" stroke="rgba(170, 170, 170, 1)" fill="none" transform="matrix(1 0 0 1 646 201 )" class="stroke" mask="url(#Clip63)" />
    <path d="M 15 9.964285714285715  L 15 13.17857142857143  L 18.461538461538463 13.17857142857143  L 18.461538461538463 9.964285714285715  L 15 9.964285714285715  Z " stroke-width="0" stroke-dasharray="0" stroke="rgba(170, 170, 170, 1)" fill="none" transform="matrix(1 0 0 1 646 201 )" class="stroke" mask="url(#Clip63)" />
    <path d="M 10.384615384615385 6.428571428571428  L 10.384615384615385 9.32142857142857  L 14.230769230769232 9.32142857142857  L 14.230769230769232 6.428571428571428  L 10.384615384615385 6.428571428571428  Z " stroke-width="0" stroke-dasharray="0" stroke="rgba(170, 170, 170, 1)" fill="none" transform="matrix(1 0 0 1 646 201 )" class="stroke" mask="url(#Clip63)" />
    <path d="M 15 6.428571428571428  L 15 9.32142857142857  L 18.461538461538463 9.32142857142857  L 18.461538461538463 6.428571428571428  L 15 6.428571428571428  Z " stroke-width="0" stroke-dasharray="0" stroke="rgba(170, 170, 170, 1)" fill="none" transform="matrix(1 0 0 1 646 201 )" class="stroke" mask="url(#Clip63)" />
    <path d="M 15.270432692307692 4.726004464285715  C 15.346554487179489 4.662388392857142  15.384615384615385 4.587053571428569  15.384615384615385 4.5  L 15.384615384615385 1.6071428571428574  C 15.384615384615385 1.5200892857142858  15.346554487179489 1.4447544642857135  15.270432692307692 1.3811383928571426  C 15.194310897435898 1.3175223214285696  15.104166666666668 1.2857142857142851  15 1.2857142857142851  L 14.230769230769232 1.2857142857142851  C 14.126602564102566 1.2857142857142851  14.036458333333336 1.3175223214285696  13.960336538461537 1.3811383928571426  C 13.884214743589745 1.4447544642857135  13.846153846153847 1.5200892857142858  13.846153846153847 1.6071428571428574  L 13.846153846153847 4.5  C 13.846153846153847 4.587053571428569  13.884214743589745 4.662388392857142  13.960336538461537 4.726004464285715  C 14.036458333333336 4.789620535714286  14.126602564102566 4.821428571428572  14.230769230769232 4.821428571428572  L 15 4.821428571428572  C 15.104166666666668 4.821428571428572  15.194310897435898 4.789620535714286  15.270432692307692 4.726004464285715  Z " stroke-width="0" stroke-dasharray="0" stroke="rgba(170, 170, 170, 1)" fill="none" transform="matrix(1 0 0 1 646 201 )" class="stroke" mask="url(#Clip63)" />
    <path d="M 19.54326923076923 2.953125  C 19.847756410256412 3.2075892857142856  20 3.508928571428571  20 3.8571428571428577  L 20 16.714285714285715  C 20 17.0625  19.847756410256412 17.363839285714285  19.54326923076923 17.618303571428573  C 19.23878205128205 17.872767857142858  18.87820512820513 18  18.461538461538463 18  L 1.5384615384615385 18  C 1.121794871794872 18  0.7612179487179488 17.872767857142858  0.4567307692307692 17.618303571428573  C 0.15224358974358973 17.363839285714285  0 17.0625  0 16.714285714285715  L 0 3.8571428571428577  C 0 3.508928571428571  0.15224358974358973 3.2075892857142856  0.4567307692307692 2.953125  C 0.7612179487179488 2.698660714285712  1.121794871794872 2.571428571428572  1.5384615384615385 2.571428571428572  L 3.076923076923077 2.571428571428572  L 3.076923076923077 1.6071428571428574  C 3.076923076923077 1.1651785714285723  3.265224358974359 0.7868303571428561  3.641826923076923 0.47209821428571486  C 4.018429487179488 0.15736607142857162  4.471153846153847 0  5 0  L 5.769230769230768 0  C 6.298076923076923 0  6.750801282051283 0.15736607142857162  7.127403846153846 0.47209821428571486  C 7.504006410256411 0.7868303571428561  7.6923076923076925 1.1651785714285723  7.6923076923076925 1.6071428571428574  L 7.6923076923076925 2.571428571428572  L 12.307692307692308 2.571428571428572  L 12.307692307692308 1.6071428571428574  C 12.307692307692308 1.1651785714285723  12.495993589743591 0.7868303571428561  12.872596153846153 0.47209821428571486  C 13.24919871794872 0.15736607142857162  13.701923076923077 0  14.230769230769232 0  L 15 0  C 15.528846153846153 0  15.981570512820513 0.15736607142857162  16.358173076923077 0.47209821428571486  C 16.734775641025642 0.7868303571428561  16.923076923076923 1.1651785714285723  16.923076923076923 1.6071428571428574  L 16.923076923076923 2.571428571428572  L 18.461538461538463 2.571428571428572  C 18.87820512820513 2.571428571428572  19.23878205128205 2.698660714285712  19.54326923076923 2.953125  Z " stroke-width="0" stroke-dasharray="0" stroke="rgba(170, 170, 170, 1)" fill="none" transform="matrix(1 0 0 1 646 201 )" class="stroke" mask="url(#Clip63)" />
  </g>
</svg>