<?xml version="1.0" encoding="utf-8"?>
<svg version="1.1" xmlns:xlink="http://www.w3.org/1999/xlink" width="100px" height="30px" xmlns="http://www.w3.org/2000/svg">
  <defs>
    <mask fill="white" id="clip5">
      <path d="M 0 28  L 0 2  C 0 0.8799999999999955  0.7586206896551685 0  1.7241379310344827 0  L 98.27586206896551 0  C 99.24137931034484 0  100 0.8799999999999955  100 2  L 100 28  C 100 29.120000000000005  99.24137931034484 30  98.27586206896551 30  L 26.436781609196448 30  L 1.7241379310344827 30  C 0.7586206896551685 30  0 29.120000000000005  0 28  Z " fill-rule="evenodd" />
    </mask>
  </defs>
  <g transform="matrix(1 0 0 1 -26 -481 )">
    <path d="M 0 28  L 0 2  C 0 0.8799999999999955  0.7586206896551685 0  1.7241379310344827 0  L 98.27586206896551 0  C 99.24137931034484 0  100 0.8799999999999955  100 2  L 100 28  C 100 29.120000000000005  99.24137931034484 30  98.27586206896551 30  L 26.436781609196448 30  L 1.7241379310344827 30  C 0.7586206896551685 30  0 29.120000000000005  0 28  Z " fill-rule="nonzero" fill="#f2f2f2" stroke="none" transform="matrix(1 0 0 1 26 481 )" />
    <path d="M 0 28  L 0 2  C 0 0.8799999999999955  0.7586206896551685 0  1.7241379310344827 0  L 98.27586206896551 0  C 99.24137931034484 0  100 0.8799999999999955  100 2  L 100 28  C 100 29.120000000000005  99.24137931034484 30  98.27586206896551 30  L 26.436781609196448 30  L 1.7241379310344827 30  C 0.7586206896551685 30  0 29.120000000000005  0 28  Z " stroke-width="2" stroke="#d7d7d7" fill="none" transform="matrix(1 0 0 1 26 481 )" mask="url(#clip5)" />
  </g>
</svg>