<?xml version="1.0" encoding="utf-8"?>
<svg version="1.1" xmlns:xlink="http://www.w3.org/1999/xlink" width="12px" height="12px" viewBox="36 61 12 12" xmlns="http://www.w3.org/2000/svg">
  <path d="M 42 61  C 45.36 61  48 63.64  48 67  C 48 70.36  45.36 73  42 73  C 38.64 73  36 70.36  36 67  C 36 63.64  38.64 61  42 61  Z " fill-rule="nonzero" fill="rgba(255, 255, 255, 1)" stroke="none" class="fill" />
  <path d="M 42 61.5  C 45.08 61.5  47.5 63.92  47.5 67  C 47.5 70.08  45.08 72.5  42 72.5  C 38.92 72.5  36.5 70.08  36.5 67  C 36.5 63.92  38.92 61.5  42 61.5  Z " stroke-width="1" stroke-dasharray="0" stroke="rgba(121, 121, 121, 1)" fill="none" class="stroke" stroke-dashoffset="0.5" />
  <path d="M 42 70  C 40.32 70  39 68.68  39 67  C 39 65.32  40.32 64  42 64  C 43.68 64  45 65.32  45 67  C 45 68.68  43.68 70  42 70  " fill-rule="nonzero" fill="rgba(121, 121, 121, 1)" stroke="none" class="stroke btn_check" />
</svg>