<?xml version="1.0" encoding="utf-8"?>
<svg version="1.1" xmlns:xlink="http://www.w3.org/1999/xlink" width="12px" height="12px" viewBox="36 34 12 12" xmlns="http://www.w3.org/2000/svg">
  <path d="M 42 34  C 45.36 34  48 36.64  48 40  C 48 43.36  45.36 46  42 46  C 38.64 46  36 43.36  36 40  C 36 36.64  38.64 34  42 34  Z " fill-rule="nonzero" fill="rgba(255, 255, 255, 1)" stroke="none" class="fill" />
  <path d="M 42 34.5  C 45.08 34.5  47.5 36.92  47.5 40  C 47.5 43.08  45.08 45.5  42 45.5  C 38.92 45.5  36.5 43.08  36.5 40  C 36.5 36.92  38.92 34.5  42 34.5  Z " stroke-width="1" stroke-dasharray="0" stroke="rgba(121, 121, 121, 1)" fill="none" class="stroke" stroke-dashoffset="0.5" />
  <path d="M 42 43  C 40.32 43  39 41.68  39 40  C 39 38.32  40.32 37  42 37  C 43.68 37  45 38.32  45 40  C 45 41.68  43.68 43  42 43  " fill-rule="nonzero" fill="rgba(121, 121, 121, 1)" stroke="none" class="stroke btn_check" />
</svg>