 <svg class="icon" viewBox="0 0 1024 1024" version="1.1" xmlns="http://www.w3.org/2000/svg" p-id="1410" height="128" width="128"><path d="M247.817352 771.506849H100.52968c-23.378995 0-39.744292-14.027397-39.744292-37.406392V39.744292C60.785388 18.703196 77.150685 0 100.52968 0h575.123288c23.378995 0 39.744292 18.703196 39.744292 39.744292V187.031963h-70.136986V70.136986H130.922374v631.232877h116.894978v70.136986zM921.13242 1024h-561.09589c-23.378995 0-39.744292-18.703196-39.744293-39.744292V280.547945c0-23.378995 18.703196-39.744292 39.744293-39.744292h561.09589c23.378995 0 39.744292 18.703196 39.744292 39.744292v703.707763c2.3379 21.041096-16.365297 39.744292-39.744292 39.744292z m-519.013699-79.488584h479.269407V320.292237H402.118721v624.219179zM797.223744 561.09589h-280.547945c-14.027397 0-23.378995-9.351598-23.378995-23.378995s11.689498-23.378995 23.378995-23.378995h280.547945c14.027397 0 23.378995 9.351598 23.378996 23.378995s-9.351598 23.378995-23.378996 23.378995zM750.465753 724.748858h-231.452054c-14.027397 0-23.378995-9.351598-23.378996-23.378995s11.689498-23.378995 23.378996-23.378995h231.452054c14.027397 0 23.378995 9.351598 23.378996 23.378995s-11.689498 23.378995-23.378996 23.378995z" p-id="1411"></path></svg>