<?xml version="1.0" encoding="utf-8"?>
<svg version="1.1" xmlns:xlink="http://www.w3.org/1999/xlink" width="12px" height="12px" viewBox="154 544 12 12" xmlns="http://www.w3.org/2000/svg">
  <path d="M 160 544  C 163.36 544  166 546.64  166 550  C 166 553.36  163.36 556  160 556  C 156.64 556  154 553.36  154 550  C 154 546.64  156.64 544  160 544  Z " fill-rule="nonzero" fill="rgba(240, 240, 240, 1)" stroke="none" class="fill" />
  <path d="M 160 544.5  C 163.08 544.5  165.5 546.92  165.5 550  C 165.5 553.08  163.08 555.5  160 555.5  C 156.92 555.5  154.5 553.08  154.5 550  C 154.5 546.92  156.92 544.5  160 544.5  Z " stroke-width="1" stroke-dasharray="0" stroke="rgba(121, 121, 121, 1)" fill="none" class="stroke" stroke-dashoffset="0.5" />
  <path d="M 160 553  C 158.32 553  157 551.68  157 550  C 157 548.32  158.32 547  160 547  C 161.68 547  163 548.32  163 550  C 163 551.68  161.68 553  160 553  " fill-rule="nonzero" fill="rgba(121, 121, 121, 1)" stroke="none" class="stroke btn_check" />
</svg>