<?xml version="1.0" encoding="utf-8"?>
<svg version="1.1" xmlns:xlink="http://www.w3.org/1999/xlink" width="12px" height="12px" viewBox="74 544 12 12" xmlns="http://www.w3.org/2000/svg">
  <path d="M 80 544  C 83.36 544  86 546.64  86 550  C 86 553.36  83.36 556  80 556  C 76.64 556  74 553.36  74 550  C 74 546.64  76.64 544  80 544  Z " fill-rule="nonzero" fill="rgba(240, 240, 240, 1)" stroke="none" class="fill" />
  <path d="M 80 544.5  C 83.08 544.5  85.5 546.92  85.5 550  C 85.5 553.08  83.08 555.5  80 555.5  C 76.92 555.5  74.5 553.08  74.5 550  C 74.5 546.92  76.92 544.5  80 544.5  Z " stroke-width="1" stroke-dasharray="0" stroke="rgba(121, 121, 121, 1)" fill="none" class="stroke" stroke-dashoffset="0.5" />
  <path d="M 80 553  C 78.32 553  77 551.68  77 550  C 77 548.32  78.32 547  80 547  C 81.68 547  83 548.32  83 550  C 83 551.68  81.68 553  80 553  " fill-rule="nonzero" fill="rgba(121, 121, 121, 1)" stroke="none" class="stroke btn_check" />
</svg>