<?xml version="1.0" encoding="utf-8"?>
<svg version="1.1" xmlns:xlink="http://www.w3.org/1999/xlink" width="12px" height="12px" viewBox="330 935 12 12" xmlns="http://www.w3.org/2000/svg">
  <path d="M 336 935  C 339.36 935  342 937.64  342 941  C 342 944.36  339.36 947  336 947  C 332.64 947  330 944.36  330 941  C 330 937.64  332.64 935  336 935  Z " fill-rule="nonzero" fill="rgba(255, 255, 255, 1)" stroke="none" class="fill" />
  <path d="M 336 935.5  C 339.08 935.5  341.5 937.92  341.5 941  C 341.5 944.08  339.08 946.5  336 946.5  C 332.92 946.5  330.5 944.08  330.5 941  C 330.5 937.92  332.92 935.5  336 935.5  Z " stroke-width="1" stroke-dasharray="0" stroke="rgba(85, 85, 85, 1)" fill="none" class="stroke" stroke-dashoffset="0.5" />
  <path d="M 336 944  C 334.32 944  333 942.68  333 941  C 333 939.32  334.32 938  336 938  C 337.68 938  339 939.32  339 941  C 339 942.68  337.68 944  336 944  " fill-rule="nonzero" fill="rgba(85, 85, 85, 1)" stroke="none" class="stroke btn_check" />
</svg>