<?xml version="1.0" encoding="utf-8"?>
<svg version="1.1" xmlns:xlink="http://www.w3.org/1999/xlink" width="12px" height="12px" viewBox="400 935 12 12" xmlns="http://www.w3.org/2000/svg">
  <path d="M 406 935  C 409.36 935  412 937.64  412 941  C 412 944.36  409.36 947  406 947  C 402.64 947  400 944.36  400 941  C 400 937.64  402.64 935  406 935  Z " fill-rule="nonzero" fill="rgba(255, 255, 255, 1)" stroke="none" class="fill" />
  <path d="M 406 935.5  C 409.08 935.5  411.5 937.92  411.5 941  C 411.5 944.08  409.08 946.5  406 946.5  C 402.92 946.5  400.5 944.08  400.5 941  C 400.5 937.92  402.92 935.5  406 935.5  Z " stroke-width="1" stroke-dasharray="0" stroke="rgba(217, 0, 27, 1)" fill="none" class="stroke" stroke-dashoffset="0.5" />
  <path d="M 406 944  C 404.32 944  403 942.68  403 941  C 403 939.32  404.32 938  406 938  C 407.68 938  409 939.32  409 941  C 409 942.68  407.68 944  406 944  " fill-rule="nonzero" fill="rgba(217, 0, 27, 1)" stroke="none" class="stroke btn_check" />
</svg>