<?xml version="1.0" encoding="utf-8"?>
<svg version="1.1" xmlns:xlink="http://www.w3.org/1999/xlink" width="12px" height="12px" viewBox="163 252 12 12" xmlns="http://www.w3.org/2000/svg">
  <path d="M 169 252  C 172.36 252  175 254.64  175 258  C 175 261.36  172.36 264  169 264  C 165.64 264  163 261.36  163 258  C 163 254.64  165.64 252  169 252  Z " fill-rule="nonzero" fill="rgba(240, 240, 240, 1)" stroke="none" class="fill" />
  <path d="M 169 252.5  C 172.08 252.5  174.5 254.92  174.5 258  C 174.5 261.08  172.08 263.5  169 263.5  C 165.92 263.5  163.5 261.08  163.5 258  C 163.5 254.92  165.92 252.5  169 252.5  Z " stroke-width="1" stroke-dasharray="0" stroke="rgba(121, 121, 121, 1)" fill="none" class="stroke" stroke-dashoffset="0.5" />
  <path d="M 169 261  C 167.32 261  166 259.68  166 258  C 166 256.32  167.32 255  169 255  C 170.68 255  172 256.32  172 258  C 172 259.68  170.68 261  169 261  " fill-rule="nonzero" fill="rgba(121, 121, 121, 1)" stroke="none" class="stroke btn_check" />
</svg>