<?xml version="1.0" encoding="utf-8"?>
<svg version="1.1" xmlns:xlink="http://www.w3.org/1999/xlink" width="16px" height="15px" xmlns="http://www.w3.org/2000/svg">
  <defs>
    <pattern id="BGPattern" patternUnits="userSpaceOnUse" alignment="0 0" imageRepeat="None" />
    <mask fill="white" id="Clip57">
      <path d="M 16 1.0369897959183672  C 16.000000000000004 0.49936224489795905  15.555769230769233 0.05739795918367347  15.015384615384615 0.05739795918367347  L 12.942307692307692 0.05739795918367347  L 12.942307692307692 1.014030612244898  L 15.01346153846154 1.014030612244898  C 15.025000000000002 1.014030612244898  15.036538461538463 1.0274234693877549  15 1.0369897959183672  L 15 13.871173469387756  C 15.036538461538463 13.88265306122449  15.023076923076925 13.894132653061225  15.01346153846154 13.894132653061225  L 1.0230769230769228 13.894132653061225  C 1.0115384615384615 13.894132653061225  1 13.880739795918368  1 13.871173469387756  L 1 1.0369897959183672  C 1 1.0255102040816324  1.0134615384615382 1.014030612244898  1.0230769230769228 1.014030612244898  L 3.076923076923077 1.014030612244898  L 3.076923076923077 0.05739795918367347  L 1.0230769230769228 0.05739795918367347  C 0.4807692307692308 0.05739795918367347  0.038461538461538464 0.49936224489795905  0 1.0369897959183672  L 0 13.871173469387756  C 0.038461538461538464 14.410714285714286  0.4826923076923076 14.85076530612245  1.0230769230769228 14.85076530612245  L 15.01346153846154 14.85076530612245  C 15.555769230769233 14.85076530612245  15.998076923076924 14.408801020408163  16 13.871173469387756  L 16 1.0369897959183672  Z " fill-rule="evenodd" />
    </mask>
  </defs>
  <g transform="matrix(1 0 0 1 -434 -127 )">
    <path d="M 16 1.0369897959183672  C 16.000000000000004 0.49936224489795905  15.555769230769233 0.05739795918367347  15.015384615384615 0.05739795918367347  L 12.942307692307692 0.05739795918367347  L 12.942307692307692 1.014030612244898  L 15.01346153846154 1.014030612244898  C 15.025000000000002 1.014030612244898  15.036538461538463 1.0274234693877549  15 1.0369897959183672  L 15 13.871173469387756  C 15.036538461538463 13.88265306122449  15.023076923076925 13.894132653061225  15.01346153846154 13.894132653061225  L 1.0230769230769228 13.894132653061225  C 1.0115384615384615 13.894132653061225  1 13.880739795918368  1 13.871173469387756  L 1 1.0369897959183672  C 1 1.0255102040816324  1.0134615384615382 1.014030612244898  1.0230769230769228 1.014030612244898  L 3.076923076923077 1.014030612244898  L 3.076923076923077 0.05739795918367347  L 1.0230769230769228 0.05739795918367347  C 0.4807692307692308 0.05739795918367347  0.038461538461538464 0.49936224489795905  0 1.0369897959183672  L 0 13.871173469387756  C 0.038461538461538464 14.410714285714286  0.4826923076923076 14.85076530612245  1.0230769230769228 14.85076530612245  L 15.01346153846154 14.85076530612245  C 15.555769230769233 14.85076530612245  15.998076923076924 14.408801020408163  16 13.871173469387756  L 16 1.0369897959183672  Z " fill-rule="nonzero" fill="rgba(153, 153, 153, 1)" stroke="none" transform="matrix(1 0 0 1 434 127 )" class="fill" />
    <path d="M 16 1.0369897959183672  C 16.000000000000004 0.49936224489795905  15.555769230769233 0.05739795918367347  15.015384615384615 0.05739795918367347  L 12.942307692307692 0.05739795918367347  L 12.942307692307692 1.014030612244898  L 15.01346153846154 1.014030612244898  C 15.025000000000002 1.014030612244898  15.036538461538463 1.0274234693877549  15 1.0369897959183672  L 15 13.871173469387756  C 15.036538461538463 13.88265306122449  15.023076923076925 13.894132653061225  15.01346153846154 13.894132653061225  L 1.0230769230769228 13.894132653061225  C 1.0115384615384615 13.894132653061225  1 13.880739795918368  1 13.871173469387756  L 1 1.0369897959183672  C 1 1.0255102040816324  1.0134615384615382 1.014030612244898  1.0230769230769228 1.014030612244898  L 3.076923076923077 1.014030612244898  L 3.076923076923077 0.05739795918367347  L 1.0230769230769228 0.05739795918367347  C 0.4807692307692308 0.05739795918367347  0.038461538461538464 0.49936224489795905  0 1.0369897959183672  L 0 13.871173469387756  C 0.038461538461538464 14.410714285714286  0.4826923076923076 14.85076530612245  1.0230769230769228 14.85076530612245  L 15.01346153846154 14.85076530612245  C 15.555769230769233 14.85076530612245  15.998076923076924 14.408801020408163  16 13.871173469387756  L 16 1.0369897959183672  Z " stroke-width="0" stroke-dasharray="0" stroke="rgba(255, 255, 255, 0)" fill="none" transform="matrix(1 0 0 1 434 127 )" class="stroke" mask="url(#Clip57)" />
  </g>
</svg>