<?xml version="1.0" encoding="utf-8"?>
<svg version="1.1" xmlns:xlink="http://www.w3.org/1999/xlink" width="12px" height="12px" viewBox="894 124 12 12" xmlns="http://www.w3.org/2000/svg">
  <path d="M 900 124  C 903.36 124  906 126.64  906 130  C 906 133.36  903.36 136  900 136  C 896.64 136  894 133.36  894 130  C 894 126.64  896.64 124  900 124  Z " fill-rule="nonzero" fill="rgba(240, 240, 240, 1)" stroke="none" class="fill" />
  <path d="M 900 124.5  C 903.08 124.5  905.5 126.92  905.5 130  C 905.5 133.08  903.08 135.5  900 135.5  C 896.92 135.5  894.5 133.08  894.5 130  C 894.5 126.92  896.92 124.5  900 124.5  Z " stroke-width="1" stroke-dasharray="0" stroke="rgba(121, 121, 121, 1)" fill="none" class="stroke" stroke-dashoffset="0.5" />
  <path d="M 900 133  C 898.32 133  897 131.68  897 130  C 897 128.32  898.32 127  900 127  C 901.68 127  903 128.32  903 130  C 903 131.68  901.68 133  900 133  " fill-rule="nonzero" fill="rgba(121, 121, 121, 1)" stroke="none" class="stroke btn_check" />
</svg>