<?xml version="1.0" encoding="utf-8"?>
<svg version="1.1" xmlns:xlink="http://www.w3.org/1999/xlink" width="12px" height="12px" viewBox="988 94 12 12" xmlns="http://www.w3.org/2000/svg">
  <path d="M 994 94  C 997.36 94  1000 96.64  1000 100  C 1000 103.36  997.36 106  994 106  C 990.64 106  988 103.36  988 100  C 988 96.64  990.64 94  994 94  Z " fill-rule="nonzero" fill="rgba(255, 255, 255, 1)" stroke="none" class="fill" />
  <path d="M 994 94.5  C 997.08 94.5  999.5 96.92  999.5 100  C 999.5 103.08  997.08 105.5  994 105.5  C 990.92 105.5  988.5 103.08  988.5 100  C 988.5 96.92  990.92 94.5  994 94.5  Z " stroke-width="1" stroke-dasharray="0" stroke="rgba(121, 121, 121, 1)" fill="none" class="stroke" stroke-dashoffset="0.5" />
  <path d="M 994 103  C 992.32 103  991 101.68  991 100  C 991 98.32  992.32 97  994 97  C 995.68 97  997 98.32  997 100  C 997 101.68  995.68 103  994 103  " fill-rule="nonzero" fill="rgba(121, 121, 121, 1)" stroke="none" class="stroke btn_check" />
</svg>