<?xml version="1.0" encoding="utf-8"?>
<svg version="1.1" xmlns:xlink="http://www.w3.org/1999/xlink" width="15px" height="13px" xmlns="http://www.w3.org/2000/svg">
  <defs>
    <pattern id="BGPattern" patternUnits="userSpaceOnUse" alignment="0 0" imageRepeat="None" />
    <mask fill="white" id="Clip64">
      <path d="M 0 6  L 0 5.145180722891566  L 14.847293814432991 5.145180722891566  L 14.847293814432991 6  L 0 6  Z M 4.196520618556701 2.6430722891566267  C 4.196520618556701 2.9132530120481928  3.980025773195877 3.1325301204819276  3.713273195876289 3.1325301204819276  C 3.4465206185567014 3.1325301204819276  3.230025773195877 2.9132530120481928  3.230025773195877 2.6430722891566267  L 3.230025773195877 0.5325301204819277  C 3.230025773195877 0.2623493975903616  3.4465206185567014 0.04307228915662656  3.713273195876289 0.04307228915662656  C 3.980025773195877 0.04307228915662656  4.196520618556701 0.2623493975903616  4.196520618556701 0.5325301204819277  L 4.196520618556701 2.6430722891566267  Z M 11.60373711340206 2.6430722891566267  C 11.60373711340206 2.9132530120481928  11.387242268041234 3.1325301204819276  11.120489690721648 3.1325301204819276  C 10.853737113402062 3.1325301204819276  10.637242268041236 2.9132530120481928  10.637242268041236 2.6430722891566267  L 10.637242268041236 0.5325301204819277  C 10.637242268041236 0.2623493975903616  10.853737113402062 0.04307228915662656  11.120489690721648 0.04307228915662656  C 11.387242268041234 0.04307228915662656  11.60373711340206 0.2623493975903616  11.60373711340206 0.5325301204819277  L 11.60373711340206 2.6430722891566267  Z M 4.950386597938145 8.923795180722891  C 4.950386597938145 9.193975903614456  4.73389175257732 9.413253012048191  4.467139175257733 9.413253012048191  L 2.9594072164948457 9.413253012048191  C 2.692654639175258 9.413253012048191  2.4761597938144333 9.193975903614456  2.4761597938144333 8.923795180722891  C 2.4761597938144333 8.653614457831324  2.692654639175258 8.434337349397591  2.9594072164948457 8.434337349397591  L 4.467139175257733 8.434337349397591  C 4.73389175257732 8.434337349397591  4.950386597938145 8.653614457831324  4.950386597938145 8.923795180722891  Z M 8.661726804123711 8.923795180722891  C 8.661726804123711 9.193975903614456  8.445231958762886 9.413253012048191  8.1784793814433 9.413253012048191  L 6.670747422680413 9.413253012048191  C 6.403994845360826 9.413253012048191  6.187500000000001 9.193975903614456  6.187500000000001 8.923795180722891  C 6.187500000000001 8.653614457831324  6.403994845360826 8.434337349397591  6.670747422680413 8.434337349397591  L 8.1784793814433 8.434337349397591  C 8.445231958762886 8.434337349397591  8.661726804123711 8.653614457831324  8.661726804123711 8.923795180722891  Z M 12.392396907216495 8.923795180722891  C 12.392396907216495 9.193975903614456  12.17590206185567 9.413253012048191  11.909149484536083 9.413253012048191  L 10.401417525773196 9.413253012048191  C 10.134664948453608 9.413253012048191  9.918170103092784 9.193975903614456  9.918170103092784 8.923795180722891  C 9.918170103092784 8.653614457831324  10.134664948453608 8.434337349397591  10.401417525773196 8.434337349397591  L 11.909149484536083 8.434337349397591  C 12.17590206185567 8.434337349397591  12.392396907216495 8.653614457831324  12.392396907216495 8.923795180722891  Z M 4.950386597938145 12.389156626506022  C 4.950386597938145 12.659337349397589  4.73389175257732 12.878614457831324  4.467139175257733 12.878614457831324  L 2.9594072164948457 12.878614457831324  C 2.692654639175258 12.878614457831324  2.4761597938144333 12.659337349397589  2.4761597938144333 12.389156626506022  C 2.4761597938144333 12.118975903614459  2.692654639175258 11.899698795180722  2.9594072164948457 11.899698795180722  L 4.467139175257733 11.899698795180722  C 4.73389175257732 11.899698795180722  4.950386597938145 12.118975903614459  4.950386597938145 12.389156626506022  Z M 8.661726804123711 12.389156626506022  C 8.661726804123711 12.659337349397589  8.445231958762886 12.878614457831324  8.1784793814433 12.878614457831324  L 6.670747422680413 12.878614457831324  C 6.403994845360826 12.878614457831324  6.187500000000001 12.659337349397589  6.187500000000001 12.389156626506022  C 6.187500000000001 12.118975903614459  6.403994845360826 11.899698795180722  6.670747422680413 11.899698795180722  L 8.1784793814433 11.899698795180722  C 8.445231958762886 11.899698795180722  8.661726804123711 12.118975903614459  8.661726804123711 12.389156626506022  Z M 12.392396907216495 12.389156626506022  C 12.392396907216495 12.659337349397589  12.17590206185567 12.878614457831324  11.909149484536083 12.878614457831324  L 10.401417525773196 12.878614457831324  C 10.134664948453608 12.878614457831324  9.918170103092784 12.659337349397589  9.918170103092784 12.389156626506022  C 9.918170103092784 12.118975903614459  10.134664948453608 11.899698795180722  10.401417525773196 11.899698795180722  L 11.909149484536083 11.899698795180722  C 12.17590206185567 11.899698795180722  12.392396907216495 12.118975903614459  12.392396907216495 12.389156626506022  Z M 4.950386597938145 2.134036144578313  L 4.950386597938145 1.1551204819277108  L 9.918170103092784 1.1551204819277108  L 9.918170103092784 2.134036144578313  L 4.950386597938145 2.134036144578313  Z " fill-rule="evenodd" />
    </mask>
  </defs>
  <g transform="matrix(1 0 0 1 -435 -126 )">
    <path d="M 0 6  L 0 5.145180722891566  L 14.847293814432991 5.145180722891566  L 14.847293814432991 6  L 0 6  Z M 4.196520618556701 2.6430722891566267  C 4.196520618556701 2.9132530120481928  3.980025773195877 3.1325301204819276  3.713273195876289 3.1325301204819276  C 3.4465206185567014 3.1325301204819276  3.230025773195877 2.9132530120481928  3.230025773195877 2.6430722891566267  L 3.230025773195877 0.5325301204819277  C 3.230025773195877 0.2623493975903616  3.4465206185567014 0.04307228915662656  3.713273195876289 0.04307228915662656  C 3.980025773195877 0.04307228915662656  4.196520618556701 0.2623493975903616  4.196520618556701 0.5325301204819277  L 4.196520618556701 2.6430722891566267  Z M 11.60373711340206 2.6430722891566267  C 11.60373711340206 2.9132530120481928  11.387242268041234 3.1325301204819276  11.120489690721648 3.1325301204819276  C 10.853737113402062 3.1325301204819276  10.637242268041236 2.9132530120481928  10.637242268041236 2.6430722891566267  L 10.637242268041236 0.5325301204819277  C 10.637242268041236 0.2623493975903616  10.853737113402062 0.04307228915662656  11.120489690721648 0.04307228915662656  C 11.387242268041234 0.04307228915662656  11.60373711340206 0.2623493975903616  11.60373711340206 0.5325301204819277  L 11.60373711340206 2.6430722891566267  Z M 4.950386597938145 8.923795180722891  C 4.950386597938145 9.193975903614456  4.73389175257732 9.413253012048191  4.467139175257733 9.413253012048191  L 2.9594072164948457 9.413253012048191  C 2.692654639175258 9.413253012048191  2.4761597938144333 9.193975903614456  2.4761597938144333 8.923795180722891  C 2.4761597938144333 8.653614457831324  2.692654639175258 8.434337349397591  2.9594072164948457 8.434337349397591  L 4.467139175257733 8.434337349397591  C 4.73389175257732 8.434337349397591  4.950386597938145 8.653614457831324  4.950386597938145 8.923795180722891  Z M 8.661726804123711 8.923795180722891  C 8.661726804123711 9.193975903614456  8.445231958762886 9.413253012048191  8.1784793814433 9.413253012048191  L 6.670747422680413 9.413253012048191  C 6.403994845360826 9.413253012048191  6.187500000000001 9.193975903614456  6.187500000000001 8.923795180722891  C 6.187500000000001 8.653614457831324  6.403994845360826 8.434337349397591  6.670747422680413 8.434337349397591  L 8.1784793814433 8.434337349397591  C 8.445231958762886 8.434337349397591  8.661726804123711 8.653614457831324  8.661726804123711 8.923795180722891  Z M 12.392396907216495 8.923795180722891  C 12.392396907216495 9.193975903614456  12.17590206185567 9.413253012048191  11.909149484536083 9.413253012048191  L 10.401417525773196 9.413253012048191  C 10.134664948453608 9.413253012048191  9.918170103092784 9.193975903614456  9.918170103092784 8.923795180722891  C 9.918170103092784 8.653614457831324  10.134664948453608 8.434337349397591  10.401417525773196 8.434337349397591  L 11.909149484536083 8.434337349397591  C 12.17590206185567 8.434337349397591  12.392396907216495 8.653614457831324  12.392396907216495 8.923795180722891  Z M 4.950386597938145 12.389156626506022  C 4.950386597938145 12.659337349397589  4.73389175257732 12.878614457831324  4.467139175257733 12.878614457831324  L 2.9594072164948457 12.878614457831324  C 2.692654639175258 12.878614457831324  2.4761597938144333 12.659337349397589  2.4761597938144333 12.389156626506022  C 2.4761597938144333 12.118975903614459  2.692654639175258 11.899698795180722  2.9594072164948457 11.899698795180722  L 4.467139175257733 11.899698795180722  C 4.73389175257732 11.899698795180722  4.950386597938145 12.118975903614459  4.950386597938145 12.389156626506022  Z M 8.661726804123711 12.389156626506022  C 8.661726804123711 12.659337349397589  8.445231958762886 12.878614457831324  8.1784793814433 12.878614457831324  L 6.670747422680413 12.878614457831324  C 6.403994845360826 12.878614457831324  6.187500000000001 12.659337349397589  6.187500000000001 12.389156626506022  C 6.187500000000001 12.118975903614459  6.403994845360826 11.899698795180722  6.670747422680413 11.899698795180722  L 8.1784793814433 11.899698795180722  C 8.445231958762886 11.899698795180722  8.661726804123711 12.118975903614459  8.661726804123711 12.389156626506022  Z M 12.392396907216495 12.389156626506022  C 12.392396907216495 12.659337349397589  12.17590206185567 12.878614457831324  11.909149484536083 12.878614457831324  L 10.401417525773196 12.878614457831324  C 10.134664948453608 12.878614457831324  9.918170103092784 12.659337349397589  9.918170103092784 12.389156626506022  C 9.918170103092784 12.118975903614459  10.134664948453608 11.899698795180722  10.401417525773196 11.899698795180722  L 11.909149484536083 11.899698795180722  C 12.17590206185567 11.899698795180722  12.392396907216495 12.118975903614459  12.392396907216495 12.389156626506022  Z M 4.950386597938145 2.134036144578313  L 4.950386597938145 1.1551204819277108  L 9.918170103092784 1.1551204819277108  L 9.918170103092784 2.134036144578313  L 4.950386597938145 2.134036144578313  Z " fill-rule="nonzero" fill="rgba(153, 153, 153, 1)" stroke="none" transform="matrix(1 0 0 1 435 126 )" class="fill" />
    <path d="M 0 6  L 0 5.145180722891566  L 14.847293814432991 5.145180722891566  L 14.847293814432991 6  L 0 6  Z " stroke-width="0" stroke-dasharray="0" stroke="rgba(255, 255, 255, 0)" fill="none" transform="matrix(1 0 0 1 435 126 )" class="stroke" mask="url(#Clip64)" />
    <path d="M 4.196520618556701 2.6430722891566267  C 4.196520618556701 2.9132530120481928  3.980025773195877 3.1325301204819276  3.713273195876289 3.1325301204819276  C 3.4465206185567014 3.1325301204819276  3.230025773195877 2.9132530120481928  3.230025773195877 2.6430722891566267  L 3.230025773195877 0.5325301204819277  C 3.230025773195877 0.2623493975903616  3.4465206185567014 0.04307228915662656  3.713273195876289 0.04307228915662656  C 3.980025773195877 0.04307228915662656  4.196520618556701 0.2623493975903616  4.196520618556701 0.5325301204819277  L 4.196520618556701 2.6430722891566267  Z " stroke-width="0" stroke-dasharray="0" stroke="rgba(255, 255, 255, 0)" fill="none" transform="matrix(1 0 0 1 435 126 )" class="stroke" mask="url(#Clip64)" />
    <path d="M 11.60373711340206 2.6430722891566267  C 11.60373711340206 2.9132530120481928  11.387242268041234 3.1325301204819276  11.120489690721648 3.1325301204819276  C 10.853737113402062 3.1325301204819276  10.637242268041236 2.9132530120481928  10.637242268041236 2.6430722891566267  L 10.637242268041236 0.5325301204819277  C 10.637242268041236 0.2623493975903616  10.853737113402062 0.04307228915662656  11.120489690721648 0.04307228915662656  C 11.387242268041234 0.04307228915662656  11.60373711340206 0.2623493975903616  11.60373711340206 0.5325301204819277  L 11.60373711340206 2.6430722891566267  Z " stroke-width="0" stroke-dasharray="0" stroke="rgba(255, 255, 255, 0)" fill="none" transform="matrix(1 0 0 1 435 126 )" class="stroke" mask="url(#Clip64)" />
    <path d="M 4.950386597938145 8.923795180722891  C 4.950386597938145 9.193975903614456  4.73389175257732 9.413253012048191  4.467139175257733 9.413253012048191  L 2.9594072164948457 9.413253012048191  C 2.692654639175258 9.413253012048191  2.4761597938144333 9.193975903614456  2.4761597938144333 8.923795180722891  C 2.4761597938144333 8.653614457831324  2.692654639175258 8.434337349397591  2.9594072164948457 8.434337349397591  L 4.467139175257733 8.434337349397591  C 4.73389175257732 8.434337349397591  4.950386597938145 8.653614457831324  4.950386597938145 8.923795180722891  Z " stroke-width="0" stroke-dasharray="0" stroke="rgba(255, 255, 255, 0)" fill="none" transform="matrix(1 0 0 1 435 126 )" class="stroke" mask="url(#Clip64)" />
    <path d="M 8.661726804123711 8.923795180722891  C 8.661726804123711 9.193975903614456  8.445231958762886 9.413253012048191  8.1784793814433 9.413253012048191  L 6.670747422680413 9.413253012048191  C 6.403994845360826 9.413253012048191  6.187500000000001 9.193975903614456  6.187500000000001 8.923795180722891  C 6.187500000000001 8.653614457831324  6.403994845360826 8.434337349397591  6.670747422680413 8.434337349397591  L 8.1784793814433 8.434337349397591  C 8.445231958762886 8.434337349397591  8.661726804123711 8.653614457831324  8.661726804123711 8.923795180722891  Z " stroke-width="0" stroke-dasharray="0" stroke="rgba(255, 255, 255, 0)" fill="none" transform="matrix(1 0 0 1 435 126 )" class="stroke" mask="url(#Clip64)" />
    <path d="M 12.392396907216495 8.923795180722891  C 12.392396907216495 9.193975903614456  12.17590206185567 9.413253012048191  11.909149484536083 9.413253012048191  L 10.401417525773196 9.413253012048191  C 10.134664948453608 9.413253012048191  9.918170103092784 9.193975903614456  9.918170103092784 8.923795180722891  C 9.918170103092784 8.653614457831324  10.134664948453608 8.434337349397591  10.401417525773196 8.434337349397591  L 11.909149484536083 8.434337349397591  C 12.17590206185567 8.434337349397591  12.392396907216495 8.653614457831324  12.392396907216495 8.923795180722891  Z " stroke-width="0" stroke-dasharray="0" stroke="rgba(255, 255, 255, 0)" fill="none" transform="matrix(1 0 0 1 435 126 )" class="stroke" mask="url(#Clip64)" />
    <path d="M 4.950386597938145 12.389156626506022  C 4.950386597938145 12.659337349397589  4.73389175257732 12.878614457831324  4.467139175257733 12.878614457831324  L 2.9594072164948457 12.878614457831324  C 2.692654639175258 12.878614457831324  2.4761597938144333 12.659337349397589  2.4761597938144333 12.389156626506022  C 2.4761597938144333 12.118975903614459  2.692654639175258 11.899698795180722  2.9594072164948457 11.899698795180722  L 4.467139175257733 11.899698795180722  C 4.73389175257732 11.899698795180722  4.950386597938145 12.118975903614459  4.950386597938145 12.389156626506022  Z " stroke-width="0" stroke-dasharray="0" stroke="rgba(255, 255, 255, 0)" fill="none" transform="matrix(1 0 0 1 435 126 )" class="stroke" mask="url(#Clip64)" />
    <path d="M 8.661726804123711 12.389156626506022  C 8.661726804123711 12.659337349397589  8.445231958762886 12.878614457831324  8.1784793814433 12.878614457831324  L 6.670747422680413 12.878614457831324  C 6.403994845360826 12.878614457831324  6.187500000000001 12.659337349397589  6.187500000000001 12.389156626506022  C 6.187500000000001 12.118975903614459  6.403994845360826 11.899698795180722  6.670747422680413 11.899698795180722  L 8.1784793814433 11.899698795180722  C 8.445231958762886 11.899698795180722  8.661726804123711 12.118975903614459  8.661726804123711 12.389156626506022  Z " stroke-width="0" stroke-dasharray="0" stroke="rgba(255, 255, 255, 0)" fill="none" transform="matrix(1 0 0 1 435 126 )" class="stroke" mask="url(#Clip64)" />
    <path d="M 12.392396907216495 12.389156626506022  C 12.392396907216495 12.659337349397589  12.17590206185567 12.878614457831324  11.909149484536083 12.878614457831324  L 10.401417525773196 12.878614457831324  C 10.134664948453608 12.878614457831324  9.918170103092784 12.659337349397589  9.918170103092784 12.389156626506022  C 9.918170103092784 12.118975903614459  10.134664948453608 11.899698795180722  10.401417525773196 11.899698795180722  L 11.909149484536083 11.899698795180722  C 12.17590206185567 11.899698795180722  12.392396907216495 12.118975903614459  12.392396907216495 12.389156626506022  Z " stroke-width="0" stroke-dasharray="0" stroke="rgba(255, 255, 255, 0)" fill="none" transform="matrix(1 0 0 1 435 126 )" class="stroke" mask="url(#Clip64)" />
    <path d="M 4.950386597938145 2.134036144578313  L 4.950386597938145 1.1551204819277108  L 9.918170103092784 1.1551204819277108  L 9.918170103092784 2.134036144578313  L 4.950386597938145 2.134036144578313  Z " stroke-width="0" stroke-dasharray="0" stroke="rgba(255, 255, 255, 0)" fill="none" transform="matrix(1 0 0 1 435 126 )" class="stroke" mask="url(#Clip64)" />
  </g>
</svg>