<?xml version="1.0" encoding="utf-8"?>
<svg version="1.1" xmlns:xlink="http://www.w3.org/1999/xlink" width="12px" height="12px" viewBox="258 252  12 12" xmlns="http://www.w3.org/2000/svg">
  <path d="M 264 252  C 267.36 252  270 254.64  270 258  C 270 261.36  267.36 264  264 264  C 260.64 264  258 261.36  258 258  C 258 254.64  260.64 252  264 252  Z " fill-rule="nonzero" fill="#f0f0f0" stroke="none" />
  <path d="M 264 252.5  C 267.08 252.5  269.5 254.92  269.5 258  C 269.5 261.08  267.08 263.5  264 263.5  C 260.92 263.5  258.5 261.08  258.5 258  C 258.5 254.92  260.92 252.5  264 252.5  Z " stroke-width="1" stroke="#797979" fill="none" />
  <path d="M 264 261  C 262.32 261  261 259.68  261 258  C 261 256.32  262.32 255  264 255  C 265.68 255  267 256.32  267 258  C 267 259.68  265.68 261  264 261  " fill-rule="nonzero" fill="#797979" stroke="none" />
</svg>