<?xml version="1.0" encoding="utf-8"?>
<svg version="1.1" xmlns:xlink="http://www.w3.org/1999/xlink" width="12px" height="12px" viewBox="1062 94  12 12" xmlns="http://www.w3.org/2000/svg">
  <path d="M 1068 94  C 1071.36 94  1074 96.64  1074 100  C 1074 103.36  1071.36 106  1068 106  C 1064.64 106  1062 103.36  1062 100  C 1062 96.64  1064.64 94  1068 94  Z " fill-rule="nonzero" fill="#ffffff" stroke="none" />
  <path d="M 1068 94.5  C 1071.08 94.5  1073.5 96.92  1073.5 100  C 1073.5 103.08  1071.08 105.5  1068 105.5  C 1064.92 105.5  1062.5 103.08  1062.5 100  C 1062.5 96.92  1064.92 94.5  1068 94.5  Z " stroke-width="1" stroke="#797979" fill="none" />
  <path d="M 1068 103  C 1066.32 103  1065 101.68  1065 100  C 1065 98.32  1066.32 97  1068 97  C 1069.68 97  1071 98.32  1071 100  C 1071 101.68  1069.68 103  1068 103  " fill-rule="nonzero" fill="#797979" stroke="none" />
</svg>