<?xml version="1.0" encoding="utf-8"?>
<svg version="1.1" xmlns:xlink="http://www.w3.org/1999/xlink" width="12px" height="12px" viewBox="1062 54  12 12" xmlns="http://www.w3.org/2000/svg">
  <path d="M 1068 54  C 1071.36 54  1074 56.64  1074 60  C 1074 63.36  1071.36 66  1068 66  C 1064.64 66  1062 63.36  1062 60  C 1062 56.64  1064.64 54  1068 54  Z " fill-rule="nonzero" fill="#ffffff" stroke="none" />
  <path d="M 1068 54.5  C 1071.08 54.5  1073.5 56.92  1073.5 60  C 1073.5 63.08  1071.08 65.5  1068 65.5  C 1064.92 65.5  1062.5 63.08  1062.5 60  C 1062.5 56.92  1064.92 54.5  1068 54.5  Z " stroke-width="1" stroke="#797979" fill="none" />
  <path d="M 1068 63  C 1066.32 63  1065 61.68  1065 60  C 1065 58.32  1066.32 57  1068 57  C 1069.68 57  1071 58.32  1071 60  C 1071 61.68  1069.68 63  1068 63  " fill-rule="nonzero" fill="#797979" stroke="none" />
</svg>