<?xml version="1.0" encoding="utf-8"?>
<svg version="1.1" xmlns:xlink="http://www.w3.org/1999/xlink" width="12px" height="12px" viewBox="988 134  12 12" xmlns="http://www.w3.org/2000/svg">
  <path d="M 994 134  C 997.36 134  1000 136.64  1000 140  C 1000 143.36  997.36 146  994 146  C 990.64 146  988 143.36  988 140  C 988 136.64  990.64 134  994 134  Z " fill-rule="nonzero" fill="#ffffff" stroke="none" />
  <path d="M 994 134.5  C 997.08 134.5  999.5 136.92  999.5 140  C 999.5 143.08  997.08 145.5  994 145.5  C 990.92 145.5  988.5 143.08  988.5 140  C 988.5 136.92  990.92 134.5  994 134.5  Z " stroke-width="1" stroke="#797979" fill="none" />
  <path d="M 994 143  C 992.32 143  991 141.68  991 140  C 991 138.32  992.32 137  994 137  C 995.68 137  997 138.32  997 140  C 997 141.68  995.68 143  994 143  " fill-rule="nonzero" fill="#797979" stroke="none" />
</svg>