<?xml version="1.0" encoding="utf-8"?>
<svg version="1.1" xmlns:xlink="http://www.w3.org/1999/xlink" width="12px" height="12px" viewBox="1062 134  12 12" xmlns="http://www.w3.org/2000/svg">
  <path d="M 1068 134  C 1071.36 134  1074 136.64  1074 140  C 1074 143.36  1071.36 146  1068 146  C 1064.64 146  1062 143.36  1062 140  C 1062 136.64  1064.64 134  1068 134  Z " fill-rule="nonzero" fill="#f0f0f0" stroke="none" />
  <path d="M 1068 134.5  C 1071.08 134.5  1073.5 136.92  1073.5 140  C 1073.5 143.08  1071.08 145.5  1068 145.5  C 1064.92 145.5  1062.5 143.08  1062.5 140  C 1062.5 136.92  1064.92 134.5  1068 134.5  Z " stroke-width="1" stroke="#797979" fill="none" />
  <path d="M 1068 143  C 1066.32 143  1065 141.68  1065 140  C 1065 138.32  1066.32 137  1068 137  C 1069.68 137  1071 138.32  1071 140  C 1071 141.68  1069.68 143  1068 143  " fill-rule="nonzero" fill="#797979" stroke="none" />
</svg>