<?xml version="1.0" encoding="utf-8"?>
<svg version="1.1" xmlns:xlink="http://www.w3.org/1999/xlink" width="12px" height="12px" viewBox="894 164  12 12" xmlns="http://www.w3.org/2000/svg">
  <path d="M 900 164  C 903.36 164  906 166.64  906 170  C 906 173.36  903.36 176  900 176  C 896.64 176  894 173.36  894 170  C 894 166.64  896.64 164  900 164  Z " fill-rule="nonzero" fill="#f0f0f0" stroke="none" />
  <path d="M 900 164.5  C 903.08 164.5  905.5 166.92  905.5 170  C 905.5 173.08  903.08 175.5  900 175.5  C 896.92 175.5  894.5 173.08  894.5 170  C 894.5 166.92  896.92 164.5  900 164.5  Z " stroke-width="1" stroke="#797979" fill="none" />
  <path d="M 900 173  C 898.32 173  897 171.68  897 170  C 897 168.32  898.32 167  900 167  C 901.68 167  903 168.32  903 170  C 903 171.68  901.68 173  900 173  " fill-rule="nonzero" fill="#797979" stroke="none" />
</svg>