<?xml version="1.0" encoding="utf-8"?>
<svg version="1.1" xmlns:xlink="http://www.w3.org/1999/xlink" width="12px" height="17px" xmlns="http://www.w3.org/2000/svg">
  <defs>
    <pattern id="BGPattern" patternUnits="userSpaceOnUse" alignment="0 0" imageRepeat="None" />
    <mask fill="white" id="Clip98">
      <path d="M 0.9230769230769231 13.053571428571427  L 0.9230769230769231 15.785714285714286  L 3 15.785714285714286  L 3 13.053571428571427  L 0.9230769230769231 13.053571428571427  Z M 3.4615384615384612 13.053571428571427  L 3.4615384615384612 15.785714285714286  L 5.769230769230769 15.785714285714286  L 5.769230769230769 13.053571428571427  L 3.4615384615384612 13.053571428571427  Z M 0.9230769230769231 9.410714285714286  L 0.9230769230769231 12.446428571428573  L 3 12.446428571428573  L 3 9.410714285714286  L 0.9230769230769231 9.410714285714286  Z M 3.4615384615384612 9.410714285714286  L 3.4615384615384612 12.446428571428573  L 5.769230769230769 12.446428571428573  L 5.769230769230769 9.410714285714286  L 3.4615384615384612 9.410714285714286  Z M 0.9230769230769231 6.07142857142857  L 0.9230769230769231 8.803571428571427  L 3 8.803571428571427  L 3 6.07142857142857  L 0.9230769230769231 6.07142857142857  Z M 6.230769230769232 13.053571428571427  L 6.230769230769232 15.785714285714286  L 8.538461538461538 15.785714285714286  L 8.538461538461538 13.053571428571427  L 6.230769230769232 13.053571428571427  Z M 3.4615384615384612 6.07142857142857  L 3.4615384615384612 8.803571428571427  L 5.769230769230769 8.803571428571427  L 5.769230769230769 6.07142857142857  L 3.4615384615384612 6.07142857142857  Z M 9 13.053571428571427  L 9 15.785714285714286  L 11.076923076923077 15.785714285714286  L 11.076923076923077 13.053571428571427  L 9 13.053571428571427  Z M 6.230769230769232 9.410714285714286  L 6.230769230769232 12.446428571428573  L 8.538461538461538 12.446428571428573  L 8.538461538461538 9.410714285714286  L 6.230769230769232 9.410714285714286  Z M 3.6237980769230766 4.4634486607142865  C 3.669471153846154 4.40336681547619  3.6923076923076925 4.33221726190476  3.6923076923076925 4.25  L 3.6923076923076925 1.5178571428571432  C 3.6923076923076925 1.435639880952381  3.669471153846154 1.3644903273809517  3.6237980769230766 1.3044084821428568  C 3.5781250000000004 1.24432663690476  3.5240384615384617 1.2142857142857137  3.4615384615384612 1.2142857142857137  L 3 1.2142857142857137  C 2.9375 1.2142857142857137  2.8834134615384617 1.24432663690476  2.8377403846153846 1.3044084821428568  C 2.7920673076923075 1.3644903273809517  2.769230769230769 1.435639880952381  2.769230769230769 1.5178571428571432  L 2.769230769230769 4.25  C 2.769230769230769 4.33221726190476  2.7920673076923075 4.40336681547619  2.8377403846153846 4.4634486607142865  C 2.8834134615384617 4.523530505952381  2.9375 4.55357142857143  3 4.55357142857143  L 3.4615384615384612 4.55357142857143  C 3.5240384615384617 4.55357142857143  3.5781250000000004 4.523530505952381  3.6237980769230766 4.4634486607142865  Z M 9 9.410714285714286  L 9 12.446428571428573  L 11.076923076923077 12.446428571428573  L 11.076923076923077 9.410714285714286  L 9 9.410714285714286  Z M 6.230769230769232 6.07142857142857  L 6.230769230769232 8.803571428571427  L 8.538461538461538 8.803571428571427  L 8.538461538461538 6.07142857142857  L 6.230769230769232 6.07142857142857  Z M 9 6.07142857142857  L 9 8.803571428571427  L 11.076923076923077 8.803571428571427  L 11.076923076923077 6.07142857142857  L 9 6.07142857142857  Z M 9.162259615384615 4.4634486607142865  C 9.207932692307693 4.40336681547619  9.230769230769232 4.33221726190476  9.230769230769232 4.25  L 9.230769230769232 1.5178571428571432  C 9.230769230769232 1.435639880952381  9.207932692307693 1.3644903273809517  9.162259615384615 1.3044084821428568  C 9.11658653846154 1.24432663690476  9.0625 1.2142857142857137  9 1.2142857142857137  L 8.538461538461538 1.2142857142857137  C 8.47596153846154 1.2142857142857137  8.421875 1.24432663690476  8.376201923076923 1.3044084821428568  C 8.330528846153847 1.3644903273809517  8.307692307692307 1.435639880952381  8.307692307692307 1.5178571428571432  L 8.307692307692307 4.25  C 8.307692307692307 4.33221726190476  8.330528846153847 4.40336681547619  8.376201923076923 4.4634486607142865  C 8.421875 4.523530505952381  8.47596153846154 4.55357142857143  8.538461538461538 4.55357142857143  L 9 4.55357142857143  C 9.0625 4.55357142857143  9.11658653846154 4.523530505952381  9.162259615384615 4.4634486607142865  Z M 11.725961538461538 2.7890625  C 11.908653846153847 3.029389880952381  12 3.313988095238095  12 3.6428571428571432  L 12 15.785714285714286  C 12 16.114583333333336  11.908653846153847 16.399181547619047  11.725961538461538 16.63950892857143  C 11.543269230769232 16.87983630952381  11.326923076923078 17  11.076923076923077 17  L 0.9230769230769231 17  C 0.6730769230769231 17  0.4567307692307693 16.87983630952381  0.2740384615384615 16.63950892857143  C 0.09134615384615384 16.399181547619047  0 16.114583333333336  0 15.785714285714286  L 0 3.6428571428571432  C 0 3.313988095238095  0.09134615384615384 3.029389880952381  0.2740384615384615 2.7890625  C 0.4567307692307693 2.548735119047617  0.6730769230769231 2.4285714285714293  0.9230769230769231 2.4285714285714293  L 1.8461538461538463 2.4285714285714293  L 1.8461538461538463 1.5178571428571432  C 1.8461538461538463 1.1004464285714293  1.9591346153846154 0.7431175595238085  2.1850961538461537 0.44587053571428625  C 2.4110576923076925 0.14862351190476208  2.682692307692308 0  3 0  L 3.4615384615384612 0  C 3.7788461538461537 0  4.05048076923077 0.14862351190476208  4.2764423076923075 0.44587053571428625  C 4.502403846153847 0.7431175595238085  4.615384615384616 1.1004464285714293  4.615384615384616 1.5178571428571432  L 4.615384615384616 2.4285714285714293  L 7.384615384615385 2.4285714285714293  L 7.384615384615385 1.5178571428571432  C 7.384615384615385 1.1004464285714293  7.497596153846154 0.7431175595238085  7.7235576923076925 0.44587053571428625  C 7.949519230769232 0.14862351190476208  8.221153846153847 0  8.538461538461538 0  L 9 0  C 9.317307692307693 0  9.588942307692308 0.14862351190476208  9.814903846153847 0.44587053571428625  C 10.040865384615387 0.7431175595238085  10.153846153846153 1.1004464285714293  10.153846153846153 1.5178571428571432  L 10.153846153846153 2.4285714285714293  L 11.076923076923077 2.4285714285714293  C 11.326923076923078 2.4285714285714293  11.543269230769232 2.548735119047617  11.725961538461538 2.7890625  Z " fill-rule="evenodd" />
    </mask>
  </defs>
  <g transform="matrix(1 0 0 1 -1273 -86 )">
    <path d="M 0.9230769230769231 13.053571428571427  L 0.9230769230769231 15.785714285714286  L 3 15.785714285714286  L 3 13.053571428571427  L 0.9230769230769231 13.053571428571427  Z M 3.4615384615384612 13.053571428571427  L 3.4615384615384612 15.785714285714286  L 5.769230769230769 15.785714285714286  L 5.769230769230769 13.053571428571427  L 3.4615384615384612 13.053571428571427  Z M 0.9230769230769231 9.410714285714286  L 0.9230769230769231 12.446428571428573  L 3 12.446428571428573  L 3 9.410714285714286  L 0.9230769230769231 9.410714285714286  Z M 3.4615384615384612 9.410714285714286  L 3.4615384615384612 12.446428571428573  L 5.769230769230769 12.446428571428573  L 5.769230769230769 9.410714285714286  L 3.4615384615384612 9.410714285714286  Z M 0.9230769230769231 6.07142857142857  L 0.9230769230769231 8.803571428571427  L 3 8.803571428571427  L 3 6.07142857142857  L 0.9230769230769231 6.07142857142857  Z M 6.230769230769232 13.053571428571427  L 6.230769230769232 15.785714285714286  L 8.538461538461538 15.785714285714286  L 8.538461538461538 13.053571428571427  L 6.230769230769232 13.053571428571427  Z M 3.4615384615384612 6.07142857142857  L 3.4615384615384612 8.803571428571427  L 5.769230769230769 8.803571428571427  L 5.769230769230769 6.07142857142857  L 3.4615384615384612 6.07142857142857  Z M 9 13.053571428571427  L 9 15.785714285714286  L 11.076923076923077 15.785714285714286  L 11.076923076923077 13.053571428571427  L 9 13.053571428571427  Z M 6.230769230769232 9.410714285714286  L 6.230769230769232 12.446428571428573  L 8.538461538461538 12.446428571428573  L 8.538461538461538 9.410714285714286  L 6.230769230769232 9.410714285714286  Z M 3.6237980769230766 4.4634486607142865  C 3.669471153846154 4.40336681547619  3.6923076923076925 4.33221726190476  3.6923076923076925 4.25  L 3.6923076923076925 1.5178571428571432  C 3.6923076923076925 1.435639880952381  3.669471153846154 1.3644903273809517  3.6237980769230766 1.3044084821428568  C 3.5781250000000004 1.24432663690476  3.5240384615384617 1.2142857142857137  3.4615384615384612 1.2142857142857137  L 3 1.2142857142857137  C 2.9375 1.2142857142857137  2.8834134615384617 1.24432663690476  2.8377403846153846 1.3044084821428568  C 2.7920673076923075 1.3644903273809517  2.769230769230769 1.435639880952381  2.769230769230769 1.5178571428571432  L 2.769230769230769 4.25  C 2.769230769230769 4.33221726190476  2.7920673076923075 4.40336681547619  2.8377403846153846 4.4634486607142865  C 2.8834134615384617 4.523530505952381  2.9375 4.55357142857143  3 4.55357142857143  L 3.4615384615384612 4.55357142857143  C 3.5240384615384617 4.55357142857143  3.5781250000000004 4.523530505952381  3.6237980769230766 4.4634486607142865  Z M 9 9.410714285714286  L 9 12.446428571428573  L 11.076923076923077 12.446428571428573  L 11.076923076923077 9.410714285714286  L 9 9.410714285714286  Z M 6.230769230769232 6.07142857142857  L 6.230769230769232 8.803571428571427  L 8.538461538461538 8.803571428571427  L 8.538461538461538 6.07142857142857  L 6.230769230769232 6.07142857142857  Z M 9 6.07142857142857  L 9 8.803571428571427  L 11.076923076923077 8.803571428571427  L 11.076923076923077 6.07142857142857  L 9 6.07142857142857  Z M 9.162259615384615 4.4634486607142865  C 9.207932692307693 4.40336681547619  9.230769230769232 4.33221726190476  9.230769230769232 4.25  L 9.230769230769232 1.5178571428571432  C 9.230769230769232 1.435639880952381  9.207932692307693 1.3644903273809517  9.162259615384615 1.3044084821428568  C 9.11658653846154 1.24432663690476  9.0625 1.2142857142857137  9 1.2142857142857137  L 8.538461538461538 1.2142857142857137  C 8.47596153846154 1.2142857142857137  8.421875 1.24432663690476  8.376201923076923 1.3044084821428568  C 8.330528846153847 1.3644903273809517  8.307692307692307 1.435639880952381  8.307692307692307 1.5178571428571432  L 8.307692307692307 4.25  C 8.307692307692307 4.33221726190476  8.330528846153847 4.40336681547619  8.376201923076923 4.4634486607142865  C 8.421875 4.523530505952381  8.47596153846154 4.55357142857143  8.538461538461538 4.55357142857143  L 9 4.55357142857143  C 9.0625 4.55357142857143  9.11658653846154 4.523530505952381  9.162259615384615 4.4634486607142865  Z M 11.725961538461538 2.7890625  C 11.908653846153847 3.029389880952381  12 3.313988095238095  12 3.6428571428571432  L 12 15.785714285714286  C 12 16.114583333333336  11.908653846153847 16.399181547619047  11.725961538461538 16.63950892857143  C 11.543269230769232 16.87983630952381  11.326923076923078 17  11.076923076923077 17  L 0.9230769230769231 17  C 0.6730769230769231 17  0.4567307692307693 16.87983630952381  0.2740384615384615 16.63950892857143  C 0.09134615384615384 16.399181547619047  0 16.114583333333336  0 15.785714285714286  L 0 3.6428571428571432  C 0 3.313988095238095  0.09134615384615384 3.029389880952381  0.2740384615384615 2.7890625  C 0.4567307692307693 2.548735119047617  0.6730769230769231 2.4285714285714293  0.9230769230769231 2.4285714285714293  L 1.8461538461538463 2.4285714285714293  L 1.8461538461538463 1.5178571428571432  C 1.8461538461538463 1.1004464285714293  1.9591346153846154 0.7431175595238085  2.1850961538461537 0.44587053571428625  C 2.4110576923076925 0.14862351190476208  2.682692307692308 0  3 0  L 3.4615384615384612 0  C 3.7788461538461537 0  4.05048076923077 0.14862351190476208  4.2764423076923075 0.44587053571428625  C 4.502403846153847 0.7431175595238085  4.615384615384616 1.1004464285714293  4.615384615384616 1.5178571428571432  L 4.615384615384616 2.4285714285714293  L 7.384615384615385 2.4285714285714293  L 7.384615384615385 1.5178571428571432  C 7.384615384615385 1.1004464285714293  7.497596153846154 0.7431175595238085  7.7235576923076925 0.44587053571428625  C 7.949519230769232 0.14862351190476208  8.221153846153847 0  8.538461538461538 0  L 9 0  C 9.317307692307693 0  9.588942307692308 0.14862351190476208  9.814903846153847 0.44587053571428625  C 10.040865384615387 0.7431175595238085  10.153846153846153 1.1004464285714293  10.153846153846153 1.5178571428571432  L 10.153846153846153 2.4285714285714293  L 11.076923076923077 2.4285714285714293  C 11.326923076923078 2.4285714285714293  11.543269230769232 2.548735119047617  11.725961538461538 2.7890625  Z " fill-rule="nonzero" fill="rgba(127, 127, 127, 1)" stroke="none" transform="matrix(1 0 0 1 1273 86 )" class="fill" />
    <path d="M 0.9230769230769231 13.053571428571427  L 0.9230769230769231 15.785714285714286  L 3 15.785714285714286  L 3 13.053571428571427  L 0.9230769230769231 13.053571428571427  Z " stroke-width="0" stroke-dasharray="0" stroke="rgba(170, 170, 170, 1)" fill="none" transform="matrix(1 0 0 1 1273 86 )" class="stroke" mask="url(#Clip98)" />
    <path d="M 3.4615384615384612 13.053571428571427  L 3.4615384615384612 15.785714285714286  L 5.769230769230769 15.785714285714286  L 5.769230769230769 13.053571428571427  L 3.4615384615384612 13.053571428571427  Z " stroke-width="0" stroke-dasharray="0" stroke="rgba(170, 170, 170, 1)" fill="none" transform="matrix(1 0 0 1 1273 86 )" class="stroke" mask="url(#Clip98)" />
    <path d="M 0.9230769230769231 9.410714285714286  L 0.9230769230769231 12.446428571428573  L 3 12.446428571428573  L 3 9.410714285714286  L 0.9230769230769231 9.410714285714286  Z " stroke-width="0" stroke-dasharray="0" stroke="rgba(170, 170, 170, 1)" fill="none" transform="matrix(1 0 0 1 1273 86 )" class="stroke" mask="url(#Clip98)" />
    <path d="M 3.4615384615384612 9.410714285714286  L 3.4615384615384612 12.446428571428573  L 5.769230769230769 12.446428571428573  L 5.769230769230769 9.410714285714286  L 3.4615384615384612 9.410714285714286  Z " stroke-width="0" stroke-dasharray="0" stroke="rgba(170, 170, 170, 1)" fill="none" transform="matrix(1 0 0 1 1273 86 )" class="stroke" mask="url(#Clip98)" />
    <path d="M 0.9230769230769231 6.07142857142857  L 0.9230769230769231 8.803571428571427  L 3 8.803571428571427  L 3 6.07142857142857  L 0.9230769230769231 6.07142857142857  Z " stroke-width="0" stroke-dasharray="0" stroke="rgba(170, 170, 170, 1)" fill="none" transform="matrix(1 0 0 1 1273 86 )" class="stroke" mask="url(#Clip98)" />
    <path d="M 6.230769230769232 13.053571428571427  L 6.230769230769232 15.785714285714286  L 8.538461538461538 15.785714285714286  L 8.538461538461538 13.053571428571427  L 6.230769230769232 13.053571428571427  Z " stroke-width="0" stroke-dasharray="0" stroke="rgba(170, 170, 170, 1)" fill="none" transform="matrix(1 0 0 1 1273 86 )" class="stroke" mask="url(#Clip98)" />
    <path d="M 3.4615384615384612 6.07142857142857  L 3.4615384615384612 8.803571428571427  L 5.769230769230769 8.803571428571427  L 5.769230769230769 6.07142857142857  L 3.4615384615384612 6.07142857142857  Z " stroke-width="0" stroke-dasharray="0" stroke="rgba(170, 170, 170, 1)" fill="none" transform="matrix(1 0 0 1 1273 86 )" class="stroke" mask="url(#Clip98)" />
    <path d="M 9 13.053571428571427  L 9 15.785714285714286  L 11.076923076923077 15.785714285714286  L 11.076923076923077 13.053571428571427  L 9 13.053571428571427  Z " stroke-width="0" stroke-dasharray="0" stroke="rgba(170, 170, 170, 1)" fill="none" transform="matrix(1 0 0 1 1273 86 )" class="stroke" mask="url(#Clip98)" />
    <path d="M 6.230769230769232 9.410714285714286  L 6.230769230769232 12.446428571428573  L 8.538461538461538 12.446428571428573  L 8.538461538461538 9.410714285714286  L 6.230769230769232 9.410714285714286  Z " stroke-width="0" stroke-dasharray="0" stroke="rgba(170, 170, 170, 1)" fill="none" transform="matrix(1 0 0 1 1273 86 )" class="stroke" mask="url(#Clip98)" />
    <path d="M 3.6237980769230766 4.4634486607142865  C 3.669471153846154 4.40336681547619  3.6923076923076925 4.33221726190476  3.6923076923076925 4.25  L 3.6923076923076925 1.5178571428571432  C 3.6923076923076925 1.435639880952381  3.669471153846154 1.3644903273809517  3.6237980769230766 1.3044084821428568  C 3.5781250000000004 1.24432663690476  3.5240384615384617 1.2142857142857137  3.4615384615384612 1.2142857142857137  L 3 1.2142857142857137  C 2.9375 1.2142857142857137  2.8834134615384617 1.24432663690476  2.8377403846153846 1.3044084821428568  C 2.7920673076923075 1.3644903273809517  2.769230769230769 1.435639880952381  2.769230769230769 1.5178571428571432  L 2.769230769230769 4.25  C 2.769230769230769 4.33221726190476  2.7920673076923075 4.40336681547619  2.8377403846153846 4.4634486607142865  C 2.8834134615384617 4.523530505952381  2.9375 4.55357142857143  3 4.55357142857143  L 3.4615384615384612 4.55357142857143  C 3.5240384615384617 4.55357142857143  3.5781250000000004 4.523530505952381  3.6237980769230766 4.4634486607142865  Z " stroke-width="0" stroke-dasharray="0" stroke="rgba(170, 170, 170, 1)" fill="none" transform="matrix(1 0 0 1 1273 86 )" class="stroke" mask="url(#Clip98)" />
    <path d="M 9 9.410714285714286  L 9 12.446428571428573  L 11.076923076923077 12.446428571428573  L 11.076923076923077 9.410714285714286  L 9 9.410714285714286  Z " stroke-width="0" stroke-dasharray="0" stroke="rgba(170, 170, 170, 1)" fill="none" transform="matrix(1 0 0 1 1273 86 )" class="stroke" mask="url(#Clip98)" />
    <path d="M 6.230769230769232 6.07142857142857  L 6.230769230769232 8.803571428571427  L 8.538461538461538 8.803571428571427  L 8.538461538461538 6.07142857142857  L 6.230769230769232 6.07142857142857  Z " stroke-width="0" stroke-dasharray="0" stroke="rgba(170, 170, 170, 1)" fill="none" transform="matrix(1 0 0 1 1273 86 )" class="stroke" mask="url(#Clip98)" />
    <path d="M 9 6.07142857142857  L 9 8.803571428571427  L 11.076923076923077 8.803571428571427  L 11.076923076923077 6.07142857142857  L 9 6.07142857142857  Z " stroke-width="0" stroke-dasharray="0" stroke="rgba(170, 170, 170, 1)" fill="none" transform="matrix(1 0 0 1 1273 86 )" class="stroke" mask="url(#Clip98)" />
    <path d="M 9.162259615384615 4.4634486607142865  C 9.207932692307693 4.40336681547619  9.230769230769232 4.33221726190476  9.230769230769232 4.25  L 9.230769230769232 1.5178571428571432  C 9.230769230769232 1.435639880952381  9.207932692307693 1.3644903273809517  9.162259615384615 1.3044084821428568  C 9.11658653846154 1.24432663690476  9.0625 1.2142857142857137  9 1.2142857142857137  L 8.538461538461538 1.2142857142857137  C 8.47596153846154 1.2142857142857137  8.421875 1.24432663690476  8.376201923076923 1.3044084821428568  C 8.330528846153847 1.3644903273809517  8.307692307692307 1.435639880952381  8.307692307692307 1.5178571428571432  L 8.307692307692307 4.25  C 8.307692307692307 4.33221726190476  8.330528846153847 4.40336681547619  8.376201923076923 4.4634486607142865  C 8.421875 4.523530505952381  8.47596153846154 4.55357142857143  8.538461538461538 4.55357142857143  L 9 4.55357142857143  C 9.0625 4.55357142857143  9.11658653846154 4.523530505952381  9.162259615384615 4.4634486607142865  Z " stroke-width="0" stroke-dasharray="0" stroke="rgba(170, 170, 170, 1)" fill="none" transform="matrix(1 0 0 1 1273 86 )" class="stroke" mask="url(#Clip98)" />
    <path d="M 11.725961538461538 2.7890625  C 11.908653846153847 3.029389880952381  12 3.313988095238095  12 3.6428571428571432  L 12 15.785714285714286  C 12 16.114583333333336  11.908653846153847 16.399181547619047  11.725961538461538 16.63950892857143  C 11.543269230769232 16.87983630952381  11.326923076923078 17  11.076923076923077 17  L 0.9230769230769231 17  C 0.6730769230769231 17  0.4567307692307693 16.87983630952381  0.2740384615384615 16.63950892857143  C 0.09134615384615384 16.399181547619047  0 16.114583333333336  0 15.785714285714286  L 0 3.6428571428571432  C 0 3.313988095238095  0.09134615384615384 3.029389880952381  0.2740384615384615 2.7890625  C 0.4567307692307693 2.548735119047617  0.6730769230769231 2.4285714285714293  0.9230769230769231 2.4285714285714293  L 1.8461538461538463 2.4285714285714293  L 1.8461538461538463 1.5178571428571432  C 1.8461538461538463 1.1004464285714293  1.9591346153846154 0.7431175595238085  2.1850961538461537 0.44587053571428625  C 2.4110576923076925 0.14862351190476208  2.682692307692308 0  3 0  L 3.4615384615384612 0  C 3.7788461538461537 0  4.05048076923077 0.14862351190476208  4.2764423076923075 0.44587053571428625  C 4.502403846153847 0.7431175595238085  4.615384615384616 1.1004464285714293  4.615384615384616 1.5178571428571432  L 4.615384615384616 2.4285714285714293  L 7.384615384615385 2.4285714285714293  L 7.384615384615385 1.5178571428571432  C 7.384615384615385 1.1004464285714293  7.497596153846154 0.7431175595238085  7.7235576923076925 0.44587053571428625  C 7.949519230769232 0.14862351190476208  8.221153846153847 0  8.538461538461538 0  L 9 0  C 9.317307692307693 0  9.588942307692308 0.14862351190476208  9.814903846153847 0.44587053571428625  C 10.040865384615387 0.7431175595238085  10.153846153846153 1.1004464285714293  10.153846153846153 1.5178571428571432  L 10.153846153846153 2.4285714285714293  L 11.076923076923077 2.4285714285714293  C 11.326923076923078 2.4285714285714293  11.543269230769232 2.548735119047617  11.725961538461538 2.7890625  Z " stroke-width="0" stroke-dasharray="0" stroke="rgba(170, 170, 170, 1)" fill="none" transform="matrix(1 0 0 1 1273 86 )" class="stroke" mask="url(#Clip98)" />
  </g>
</svg>