<?xml version="1.0" encoding="utf-8"?>
<svg version="1.1" xmlns:xlink="http://www.w3.org/1999/xlink" width="18px" height="18px" xmlns="http://www.w3.org/2000/svg">
  <defs>
    <pattern id="BGPattern" patternUnits="userSpaceOnUse" alignment="0 0" imageRepeat="None" />
    <mask fill="white" id="Clip68">
      <path d="M 0.011244943820224737 9  C 0.011244943820224737 4.035640449438203  4.035640449438203 0.011244943820224737  9 0.011244943820224737  C 13.9643595505618 0.011244943820224737  17.988755056179777 4.035640449438203  17.988755056179777 9  C 17.988755056179777 13.9643595505618  13.9643595505618 17.988755056179777  9 17.988755056179777  C 4.035640449438203 17.988755056179777  0.011244943820224737 13.9643595505618  0.011244943820224737 9  Z M 9.561802247191011 6.752811235955056  L 7.595514606741572 6.752811235955056  L 7.595514606741572 7.876395505617977  L 8.438197752808987 7.876395505617977  L 8.438197752808987 12.932575280898876  L 7.314613483146065 12.932575280898876  L 7.314613483146065 14.0561797752809  L 10.685386516853931 14.0561797752809  L 10.685386516853931 12.932575280898876  L 9.56180224719101 12.932575280898876  L 9.56180224719101 6.752831460674158  Z M 9.842703370786516 4.786523595505619  C 9.842703370786516 4.321112359550561  9.465411235955056 3.943820224719101  9 3.943820224719101  C 8.534588764044946 3.943820224719101  8.157296629213484 4.321112359550561  8.157296629213484 4.786523595505619  C 8.157296629213484 5.251934831460675  8.534588764044944 5.629206741573034  9 5.629206741573034  C 9.465411235955056 5.629206741573034  9.842703370786516 5.251934831460675  9.842703370786516 4.786523595505619  Z " fill-rule="evenodd" />
    </mask>
  </defs>
  <g transform="matrix(1 0 0 1 -276 -120 )">
    <path d="M 0.011244943820224737 9  C 0.011244943820224737 4.035640449438203  4.035640449438203 0.011244943820224737  9 0.011244943820224737  C 13.9643595505618 0.011244943820224737  17.988755056179777 4.035640449438203  17.988755056179777 9  C 17.988755056179777 13.9643595505618  13.9643595505618 17.988755056179777  9 17.988755056179777  C 4.035640449438203 17.988755056179777  0.011244943820224737 13.9643595505618  0.011244943820224737 9  Z M 9.561802247191011 6.752811235955056  L 7.595514606741572 6.752811235955056  L 7.595514606741572 7.876395505617977  L 8.438197752808987 7.876395505617977  L 8.438197752808987 12.932575280898876  L 7.314613483146065 12.932575280898876  L 7.314613483146065 14.0561797752809  L 10.685386516853931 14.0561797752809  L 10.685386516853931 12.932575280898876  L 9.56180224719101 12.932575280898876  L 9.56180224719101 6.752831460674158  Z M 9.842703370786516 4.786523595505619  C 9.842703370786516 4.321112359550561  9.465411235955056 3.943820224719101  9 3.943820224719101  C 8.534588764044946 3.943820224719101  8.157296629213484 4.321112359550561  8.157296629213484 4.786523595505619  C 8.157296629213484 5.251934831460675  8.534588764044944 5.629206741573034  9 5.629206741573034  C 9.465411235955056 5.629206741573034  9.842703370786516 5.251934831460675  9.842703370786516 4.786523595505619  Z " fill-rule="nonzero" fill="rgba(1, 111, 160, 1)" stroke="none" transform="matrix(1 0 0 1 276 120 )" class="fill" />
    <path d="M 0.011244943820224737 9  C 0.011244943820224737 4.035640449438203  4.035640449438203 0.011244943820224737  9 0.011244943820224737  C 13.9643595505618 0.011244943820224737  17.988755056179777 4.035640449438203  17.988755056179777 9  C 17.988755056179777 13.9643595505618  13.9643595505618 17.988755056179777  9 17.988755056179777  C 4.035640449438203 17.988755056179777  0.011244943820224737 13.9643595505618  0.011244943820224737 9  Z " stroke-width="0" stroke-dasharray="0" stroke="rgba(255, 255, 255, 0)" fill="none" transform="matrix(1 0 0 1 276 120 )" class="stroke" mask="url(#Clip68)" />
    <path d="M 9.561802247191011 6.752811235955056  L 7.595514606741572 6.752811235955056  L 7.595514606741572 7.876395505617977  L 8.438197752808987 7.876395505617977  L 8.438197752808987 12.932575280898876  L 7.314613483146065 12.932575280898876  L 7.314613483146065 14.0561797752809  L 10.685386516853931 14.0561797752809  L 10.685386516853931 12.932575280898876  L 9.56180224719101 12.932575280898876  L 9.56180224719101 6.752831460674158  Z " stroke-width="0" stroke-dasharray="0" stroke="rgba(255, 255, 255, 0)" fill="none" transform="matrix(1 0 0 1 276 120 )" class="stroke" mask="url(#Clip68)" />
    <path d="M 9.842703370786516 4.786523595505619  C 9.842703370786516 4.321112359550561  9.465411235955056 3.943820224719101  9 3.943820224719101  C 8.534588764044946 3.943820224719101  8.157296629213484 4.321112359550561  8.157296629213484 4.786523595505619  C 8.157296629213484 5.251934831460675  8.534588764044944 5.629206741573034  9 5.629206741573034  C 9.465411235955056 5.629206741573034  9.842703370786516 5.251934831460675  9.842703370786516 4.786523595505619  Z " stroke-width="0" stroke-dasharray="0" stroke="rgba(255, 255, 255, 0)" fill="none" transform="matrix(1 0 0 1 276 120 )" class="stroke" mask="url(#Clip68)" />
  </g>
</svg>