<?xml version="1.0" encoding="utf-8"?>
<svg version="1.1" xmlns:xlink="http://www.w3.org/1999/xlink" width="107px" height="30px" xmlns="http://www.w3.org/2000/svg">
  <defs>
    <mask fill="white" id="clip9">
      <path d="M 0 28  L 0 2  C 0 0.8799999999999955  0.8117241379310303 0  1.8448275862068966 0  L 105.1551724137931 0  C 106.18827586206898 0  107 0.8799999999999955  107 2  L 107 28  C 107 29.120000000000005  106.18827586206898 30  105.1551724137931 30  L 28.2873563218402 30  L 1.8448275862068966 30  C 0.8117241379310303 30  0 29.120000000000005  0 28  Z " fill-rule="evenodd" />
    </mask>
  </defs>
  <g transform="matrix(1 0 0 1 -431 -141 )">
    <path d="M 0 28  L 0 2  C 0 0.8799999999999955  0.8117241379310303 0  1.8448275862068966 0  L 105.1551724137931 0  C 106.18827586206898 0  107 0.8799999999999955  107 2  L 107 28  C 107 29.120000000000005  106.18827586206898 30  105.1551724137931 30  L 28.2873563218402 30  L 1.8448275862068966 30  C 0.8117241379310303 30  0 29.120000000000005  0 28  Z " fill-rule="nonzero" fill="#f2f2f2" stroke="none" transform="matrix(1 0 0 1 431 141 )" />
    <path d="M 0 28  L 0 2  C 0 0.8799999999999955  0.8117241379310303 0  1.8448275862068966 0  L 105.1551724137931 0  C 106.18827586206898 0  107 0.8799999999999955  107 2  L 107 28  C 107 29.120000000000005  106.18827586206898 30  105.1551724137931 30  L 28.2873563218402 30  L 1.8448275862068966 30  C 0.8117241379310303 30  0 29.120000000000005  0 28  Z " stroke-width="2" stroke="#d7d7d7" fill="none" transform="matrix(1 0 0 1 431 141 )" mask="url(#clip9)" />
  </g>
</svg>