<?xml version="1.0" encoding="utf-8"?>
<svg version="1.1" xmlns:xlink="http://www.w3.org/1999/xlink" width="18px" height="15px" xmlns="http://www.w3.org/2000/svg">
  <defs>
    <pattern id="BGPattern" patternUnits="userSpaceOnUse" alignment="0 0" imageRepeat="None" />
    <mask fill="white" id="Clip22">
      <path d="M 18 1.0369897959183672  C 18.000000000000004 0.49936224489795905  17.500240384615388 0.05739795918367347  16.892307692307693 0.05739795918367347  L 14.560096153846153 0.05739795918367347  L 14.560096153846153 1.014030612244898  L 16.89014423076923 1.014030612244898  C 16.903125000000003 1.014030612244898  16.91610576923077 1.0274234693877549  17 1.0369897959183672  L 17 13.871173469387756  C 16.91610576923077 13.88265306122449  16.90096153846154 13.894132653061225  16.89014423076923 13.894132653061225  L 1.1509615384615381 13.894132653061225  C 1.137980769230769 13.894132653061225  1.125 13.880739795918368  1.125 13.871173469387756  L 1.125 1.0369897959183672  C 1.125 1.0255102040816324  1.1401442307692304 1.014030612244898  1.1509615384615381 1.014030612244898  L 3.4615384615384617 1.014030612244898  L 3.4615384615384617 0.05739795918367347  L 1.1509615384615381 0.05739795918367347  C 0.5408653846153846 0.05739795918367347  0.04326923076923077 0.49936224489795905  0 1.0369897959183672  L 0 13.871173469387756  C 0.04326923076923077 14.410714285714286  0.5430288461538461 14.85076530612245  1.1509615384615381 14.85076530612245  L 16.89014423076923 14.85076530612245  C 17.500240384615388 14.85076530612245  17.99783653846154 14.408801020408163  18 13.871173469387756  L 18 1.0369897959183672  Z " fill-rule="evenodd" />
    </mask>
  </defs>
  <g transform="matrix(1 0 0 1 -1077 -56 )">
    <path d="M 18 1.0369897959183672  C 18.000000000000004 0.49936224489795905  17.500240384615388 0.05739795918367347  16.892307692307693 0.05739795918367347  L 14.560096153846153 0.05739795918367347  L 14.560096153846153 1.014030612244898  L 16.89014423076923 1.014030612244898  C 16.903125000000003 1.014030612244898  16.91610576923077 1.0274234693877549  17 1.0369897959183672  L 17 13.871173469387756  C 16.91610576923077 13.88265306122449  16.90096153846154 13.894132653061225  16.89014423076923 13.894132653061225  L 1.1509615384615381 13.894132653061225  C 1.137980769230769 13.894132653061225  1.125 13.880739795918368  1.125 13.871173469387756  L 1.125 1.0369897959183672  C 1.125 1.0255102040816324  1.1401442307692304 1.014030612244898  1.1509615384615381 1.014030612244898  L 3.4615384615384617 1.014030612244898  L 3.4615384615384617 0.05739795918367347  L 1.1509615384615381 0.05739795918367347  C 0.5408653846153846 0.05739795918367347  0.04326923076923077 0.49936224489795905  0 1.0369897959183672  L 0 13.871173469387756  C 0.04326923076923077 14.410714285714286  0.5430288461538461 14.85076530612245  1.1509615384615381 14.85076530612245  L 16.89014423076923 14.85076530612245  C 17.500240384615388 14.85076530612245  17.99783653846154 14.408801020408163  18 13.871173469387756  L 18 1.0369897959183672  Z " fill-rule="nonzero" fill="rgba(153, 153, 153, 1)" stroke="none" transform="matrix(1 0 0 1 1077 56 )" class="fill" />
    <path d="M 18 1.0369897959183672  C 18.000000000000004 0.49936224489795905  17.500240384615388 0.05739795918367347  16.892307692307693 0.05739795918367347  L 14.560096153846153 0.05739795918367347  L 14.560096153846153 1.014030612244898  L 16.89014423076923 1.014030612244898  C 16.903125000000003 1.014030612244898  16.91610576923077 1.0274234693877549  17 1.0369897959183672  L 17 13.871173469387756  C 16.91610576923077 13.88265306122449  16.90096153846154 13.894132653061225  16.89014423076923 13.894132653061225  L 1.1509615384615381 13.894132653061225  C 1.137980769230769 13.894132653061225  1.125 13.880739795918368  1.125 13.871173469387756  L 1.125 1.0369897959183672  C 1.125 1.0255102040816324  1.1401442307692304 1.014030612244898  1.1509615384615381 1.014030612244898  L 3.4615384615384617 1.014030612244898  L 3.4615384615384617 0.05739795918367347  L 1.1509615384615381 0.05739795918367347  C 0.5408653846153846 0.05739795918367347  0.04326923076923077 0.49936224489795905  0 1.0369897959183672  L 0 13.871173469387756  C 0.04326923076923077 14.410714285714286  0.5430288461538461 14.85076530612245  1.1509615384615381 14.85076530612245  L 16.89014423076923 14.85076530612245  C 17.500240384615388 14.85076530612245  17.99783653846154 14.408801020408163  18 13.871173469387756  L 18 1.0369897959183672  Z " stroke-width="0" stroke-dasharray="0" stroke="rgba(255, 255, 255, 0)" fill="none" transform="matrix(1 0 0 1 1077 56 )" class="stroke" mask="url(#Clip22)" />
  </g>
</svg>