<?xml version="1.0" encoding="utf-8"?>
<svg version="1.1" xmlns:xlink="http://www.w3.org/1999/xlink" width="12px" height="12px" viewBox="274 907 12 12" xmlns="http://www.w3.org/2000/svg">
  <path d="M 280 907  C 283.36 907  286 909.64  286 913  C 286 916.36  283.36 919  280 919  C 276.64 919  274 916.36  274 913  C 274 909.64  276.64 907  280 907  Z " fill-rule="nonzero" fill="rgba(255, 255, 255, 1)" stroke="none" class="fill" />
  <path d="M 280 907.5  C 283.08 907.5  285.5 909.92  285.5 913  C 285.5 916.08  283.08 918.5  280 918.5  C 276.92 918.5  274.5 916.08  274.5 913  C 274.5 909.92  276.92 907.5  280 907.5  Z " stroke-width="1" stroke-dasharray="0" stroke="rgba(121, 121, 121, 1)" fill="none" class="stroke" stroke-dashoffset="0.5" />
  <path d="M 280 916  C 278.32 916  277 914.68  277 913  C 277 911.32  278.32 910  280 910  C 281.68 910  283 911.32  283 913  C 283 914.68  281.68 916  280 916  " fill-rule="nonzero" fill="rgba(121, 121, 121, 1)" stroke="none" class="stroke btn_check" />
</svg>