<?xml version="1.0" encoding="utf-8"?>
<svg version="1.1" xmlns:xlink="http://www.w3.org/1999/xlink" width="12px" height="12px" viewBox="274 933 12 12" xmlns="http://www.w3.org/2000/svg">
  <path d="M 280 933  C 283.36 933  286 935.64  286 939  C 286 942.36  283.36 945  280 945  C 276.64 945  274 942.36  274 939  C 274 935.64  276.64 933  280 933  Z " fill-rule="nonzero" fill="rgba(255, 255, 255, 1)" stroke="none" class="fill" />
  <path d="M 280 933.5  C 283.08 933.5  285.5 935.92  285.5 939  C 285.5 942.08  283.08 944.5  280 944.5  C 276.92 944.5  274.5 942.08  274.5 939  C 274.5 935.92  276.92 933.5  280 933.5  Z " stroke-width="1" stroke-dasharray="0" stroke="rgba(121, 121, 121, 1)" fill="none" class="stroke" stroke-dashoffset="0.5" />
  <path d="M 280 942  C 278.32 942  277 940.68  277 939  C 277 937.32  278.32 936  280 936  C 281.68 936  283 937.32  283 939  C 283 940.68  281.68 942  280 942  " fill-rule="nonzero" fill="rgba(121, 121, 121, 1)" stroke="none" class="stroke btn_check" />
</svg>