<?xml version="1.0" encoding="utf-8"?>
<svg version="1.1" xmlns:xlink="http://www.w3.org/1999/xlink" width="132px" height="36px" xmlns="http://www.w3.org/2000/svg">
  <defs>
    <pattern id="BGPattern" patternUnits="userSpaceOnUse" alignment="0 0" imageRepeat="None" />
    <mask fill="white" id="Clip105">
      <path d="M 131.49180507267005 18  C 131.49180507267005 27.622145099383147  126.12778574225406 35.5462645647704  119.61433367497932 35  L 12.333946857875963 35  C 5.820494790601218 35.5462645647704  0.45647546018523333 27.622145099383147  0.45647546018523333 18  C 0.45647546018523333 8.377854900616867  5.820494790601218 0.4537354352296177  12.333946857875963 1  L 119.61433367497933 1  C 126.12778574225406 0.4537354352296177  131.49180507267005 8.377854900616867  131.49180507267005 18  Z M 12.333946857875963 34  C 6.203639028488073 34.4142474982865  1.222763935958946 27.05613656614119  1.222763935958946 18  C 1.222763935958946 27.05613656614119  6.203639028488073 34.4142474982865  12.333946857875963 34  L 119.61433367497933 34  C 125.74464150436721 34.4142474982865  130.72551659689634 27.05613656614119  130.72551659689634 18  C 130.72551659689634 27.05613656614119  125.74464150436721 34.4142474982865  119.61433367497933 34  L 12.333946857875963 34  Z M 119.61433367497932 3  L 12.333946857875963 3  C 6.663412118591937 2.7177695681973972  1.9890524117326585 9.623073680603156  1.9890524117326585 18  C 1.9890524117326585 26.37692631939686  6.663412118591937 33.28223043180262  12.333946857875963 33  L 119.61433367497933 33  C 125.28486841426336 33.28223043180262  129.9592281211226 26.37692631939686  129.9592281211226 18  C 129.9592281211226 9.623073680603156  125.28486839106513 2.7177695681973972  119.61433367497932 3  Z M 130.72551659689634 17.88679828649761  C 130.7255165968963 8.943863433858809  125.744641481169 1.5857525017135146  119.61433367497933 1.5857525017135146  C 125.74464150436721 1.5857525017135146  130.72551659689634 8.943863433858809  130.72551659689634 17.88679828649761  Z M 1.222763935958946 17.88679828649761  C 1.222763935958946 8.943863433858809  6.203639028488073 1.5857525017135146  12.333946857875963 1.5857525017135146  C 6.203639028488073 1.5857525017135146  1.222763935958946 8.943863433858809  1.222763935958946 17.88679828649761  Z " fill-rule="evenodd" />
    </mask>
  </defs>
  <g transform="matrix(1 0 0 1 -20 -91 )">
    <path d="M 131.49180507267005 18  C 131.49180507267005 27.622145099383147  126.12778574225406 35.5462645647704  119.61433367497932 35  L 12.333946857875963 35  C 5.820494790601218 35.5462645647704  0.45647546018523333 27.622145099383147  0.45647546018523333 18  C 0.45647546018523333 8.377854900616867  5.820494790601218 0.4537354352296177  12.333946857875963 1  L 119.61433367497933 1  C 126.12778574225406 0.4537354352296177  131.49180507267005 8.377854900616867  131.49180507267005 18  Z M 12.333946857875963 34  C 6.203639028488073 34.4142474982865  1.222763935958946 27.05613656614119  1.222763935958946 18  C 1.222763935958946 27.05613656614119  6.203639028488073 34.4142474982865  12.333946857875963 34  L 119.61433367497933 34  C 125.74464150436721 34.4142474982865  130.72551659689634 27.05613656614119  130.72551659689634 18  C 130.72551659689634 27.05613656614119  125.74464150436721 34.4142474982865  119.61433367497933 34  L 12.333946857875963 34  Z M 119.61433367497932 3  L 12.333946857875963 3  C 6.663412118591937 2.7177695681973972  1.9890524117326585 9.623073680603156  1.9890524117326585 18  C 1.9890524117326585 26.37692631939686  6.663412118591937 33.28223043180262  12.333946857875963 33  L 119.61433367497933 33  C 125.28486841426336 33.28223043180262  129.9592281211226 26.37692631939686  129.9592281211226 18  C 129.9592281211226 9.623073680603156  125.28486839106513 2.7177695681973972  119.61433367497932 3  Z M 130.72551659689634 17.88679828649761  C 130.7255165968963 8.943863433858809  125.744641481169 1.5857525017135146  119.61433367497933 1.5857525017135146  C 125.74464150436721 1.5857525017135146  130.72551659689634 8.943863433858809  130.72551659689634 17.88679828649761  Z M 1.222763935958946 17.88679828649761  C 1.222763935958946 8.943863433858809  6.203639028488073 1.5857525017135146  12.333946857875963 1.5857525017135146  C 6.203639028488073 1.5857525017135146  1.222763935958946 8.943863433858809  1.222763935958946 17.88679828649761  Z " fill-rule="nonzero" fill="rgba(215, 215, 215, 1)" stroke="none" transform="matrix(1 0 0 1 20 91 )" class="fill" />
    <path d="M 131.49180507267005 18  C 131.49180507267005 27.622145099383147  126.12778574225406 35.5462645647704  119.61433367497932 35  L 12.333946857875963 35  C 5.820494790601218 35.5462645647704  0.45647546018523333 27.622145099383147  0.45647546018523333 18  C 0.45647546018523333 8.377854900616867  5.820494790601218 0.4537354352296177  12.333946857875963 1  L 119.61433367497933 1  C 126.12778574225406 0.4537354352296177  131.49180507267005 8.377854900616867  131.49180507267005 18  Z " stroke-width="0" stroke-dasharray="0" stroke="rgba(215, 215, 215, 1)" fill="none" transform="matrix(1 0 0 1 20 91 )" class="stroke" mask="url(#Clip105)" />
    <path d="M 12.333946857875963 34  C 6.203639028488073 34.4142474982865  1.222763935958946 27.05613656614119  1.222763935958946 18  C 1.222763935958946 27.05613656614119  6.203639028488073 34.4142474982865  12.333946857875963 34  L 119.61433367497933 34  C 125.74464150436721 34.4142474982865  130.72551659689634 27.05613656614119  130.72551659689634 18  C 130.72551659689634 27.05613656614119  125.74464150436721 34.4142474982865  119.61433367497933 34  L 12.333946857875963 34  Z " stroke-width="0" stroke-dasharray="0" stroke="rgba(215, 215, 215, 1)" fill="none" transform="matrix(1 0 0 1 20 91 )" class="stroke" mask="url(#Clip105)" />
    <path d="M 119.61433367497932 3  L 12.333946857875963 3  C 6.663412118591937 2.7177695681973972  1.9890524117326585 9.623073680603156  1.9890524117326585 18  C 1.9890524117326585 26.37692631939686  6.663412118591937 33.28223043180262  12.333946857875963 33  L 119.61433367497933 33  C 125.28486841426336 33.28223043180262  129.9592281211226 26.37692631939686  129.9592281211226 18  C 129.9592281211226 9.623073680603156  125.28486839106513 2.7177695681973972  119.61433367497932 3  Z " stroke-width="0" stroke-dasharray="0" stroke="rgba(215, 215, 215, 1)" fill="none" transform="matrix(1 0 0 1 20 91 )" class="stroke" mask="url(#Clip105)" />
    <path d="M 130.72551659689634 17.88679828649761  C 130.7255165968963 8.943863433858809  125.744641481169 1.5857525017135146  119.61433367497933 1.5857525017135146  C 125.74464150436721 1.5857525017135146  130.72551659689634 8.943863433858809  130.72551659689634 17.88679828649761  Z " stroke-width="0" stroke-dasharray="0" stroke="rgba(215, 215, 215, 1)" fill="none" transform="matrix(1 0 0 1 20 91 )" class="stroke" mask="url(#Clip105)" />
    <path d="M 1.222763935958946 17.88679828649761  C 1.222763935958946 8.943863433858809  6.203639028488073 1.5857525017135146  12.333946857875963 1.5857525017135146  C 6.203639028488073 1.5857525017135146  1.222763935958946 8.943863433858809  1.222763935958946 17.88679828649761  Z " stroke-width="0" stroke-dasharray="0" stroke="rgba(215, 215, 215, 1)" fill="none" transform="matrix(1 0 0 1 20 91 )" class="stroke" mask="url(#Clip105)" />
  </g>
</svg>