<?xml version="1.0" encoding="utf-8"?>
<svg version="1.1" xmlns:xlink="http://www.w3.org/1999/xlink" width="21px" height="21px" xmlns="http://www.w3.org/2000/svg">
  <defs>
    <pattern id="BGPattern" patternUnits="userSpaceOnUse" alignment="0 0" imageRepeat="None" />
    <mask fill="white" id="Clip66">
      <path d="M 2.1112382812499932 0.6433813476562508  L 20.48853515625 12.129191894531248  C 20.85833203125 12.352778320312499  20.9427421875 12.61153564453125  20.741765625 12.902951660156248  C 20.536769531249995 13.201904296874995  20.1870703125 13.350124511718747  19.680609375 13.350124511718747  L 12.823289062499997 13.350124511718747  L 16.432828124999997 18.688564453124993  C 16.553414062499996 18.874467773437495  16.553414062499996 19.057858886718748  16.432828124999997 19.238737792968745  C 16.312242187499994 19.417104492187498  16.107246093749996 19.550251464843743  15.821859374999995 19.630642089843743  L 12.642410156249994 20.472231445312495  C 12.344964843749997 20.547597656249998  12.051539062499993 20.547597656249998  11.762132812499996 20.472231445312495  C 11.476746093749995 20.396865234374996  11.263710937499994 20.268742675781244  11.135085937499994 20.090375976562495  L 7.706425781249994 15.020742187499996  L 2.1112382812499932 18.525270996093745  C 1.8861445312499934 18.665954589843746  1.6128164062499943 18.738808593749994  1.3033124999999934 18.738808593749994  C 1.1586093749999922 18.738808593749994  1.0179257812499922 18.7187109375  0.8732226562499925 18.681027832031248  C 0.39489843749999376 18.552905273437496  0.15774609374999343 18.33434326171875  0.15774609374999343 18.01780517578125  L 0.15774609374999343 1.1508471679687504  C 0.15774609374999343 0.8368212890625004  0.3948984374999922 0.6157470703125  0.8732226562499925 0.4876245117187502  C 1.0179257812499938 0.4499414062500002  1.1586093749999937 0.4298437500000003  1.3033124999999934 0.4298437500000003  C 1.6288945312499932 0.4298437500000003  1.894183593749993 0.5001855468750002  2.1112382812499932 0.6433813476562508  Z " fill-rule="evenodd" />
    </mask>
  </defs>
  <g transform="matrix(1 0 0 1 -13 0 )">
    <path d="M 2.1112382812499932 0.6433813476562508  L 20.48853515625 12.129191894531248  C 20.85833203125 12.352778320312499  20.9427421875 12.61153564453125  20.741765625 12.902951660156248  C 20.536769531249995 13.201904296874995  20.1870703125 13.350124511718747  19.680609375 13.350124511718747  L 12.823289062499997 13.350124511718747  L 16.432828124999997 18.688564453124993  C 16.553414062499996 18.874467773437495  16.553414062499996 19.057858886718748  16.432828124999997 19.238737792968745  C 16.312242187499994 19.417104492187498  16.107246093749996 19.550251464843743  15.821859374999995 19.630642089843743  L 12.642410156249994 20.472231445312495  C 12.344964843749997 20.547597656249998  12.051539062499993 20.547597656249998  11.762132812499996 20.472231445312495  C 11.476746093749995 20.396865234374996  11.263710937499994 20.268742675781244  11.135085937499994 20.090375976562495  L 7.706425781249994 15.020742187499996  L 2.1112382812499932 18.525270996093745  C 1.8861445312499934 18.665954589843746  1.6128164062499943 18.738808593749994  1.3033124999999934 18.738808593749994  C 1.1586093749999922 18.738808593749994  1.0179257812499922 18.7187109375  0.8732226562499925 18.681027832031248  C 0.39489843749999376 18.552905273437496  0.15774609374999343 18.33434326171875  0.15774609374999343 18.01780517578125  L 0.15774609374999343 1.1508471679687504  C 0.15774609374999343 0.8368212890625004  0.3948984374999922 0.6157470703125  0.8732226562499925 0.4876245117187502  C 1.0179257812499938 0.4499414062500002  1.1586093749999937 0.4298437500000003  1.3033124999999934 0.4298437500000003  C 1.6288945312499932 0.4298437500000003  1.894183593749993 0.5001855468750002  2.1112382812499932 0.6433813476562508  Z " fill-rule="nonzero" fill="rgba(0, 0, 0, 1)" stroke="none" transform="matrix(1 0 0 1 13 0 )" class="fill" />
    <path d="M 2.1112382812499932 0.6433813476562508  L 20.48853515625 12.129191894531248  C 20.85833203125 12.352778320312499  20.9427421875 12.61153564453125  20.741765625 12.902951660156248  C 20.536769531249995 13.201904296874995  20.1870703125 13.350124511718747  19.680609375 13.350124511718747  L 12.823289062499997 13.350124511718747  L 16.432828124999997 18.688564453124993  C 16.553414062499996 18.874467773437495  16.553414062499996 19.057858886718748  16.432828124999997 19.238737792968745  C 16.312242187499994 19.417104492187498  16.107246093749996 19.550251464843743  15.821859374999995 19.630642089843743  L 12.642410156249994 20.472231445312495  C 12.344964843749997 20.547597656249998  12.051539062499993 20.547597656249998  11.762132812499996 20.472231445312495  C 11.476746093749995 20.396865234374996  11.263710937499994 20.268742675781244  11.135085937499994 20.090375976562495  L 7.706425781249994 15.020742187499996  L 2.1112382812499932 18.525270996093745  C 1.8861445312499934 18.665954589843746  1.6128164062499943 18.738808593749994  1.3033124999999934 18.738808593749994  C 1.1586093749999922 18.738808593749994  1.0179257812499922 18.7187109375  0.8732226562499925 18.681027832031248  C 0.39489843749999376 18.552905273437496  0.15774609374999343 18.33434326171875  0.15774609374999343 18.01780517578125  L 0.15774609374999343 1.1508471679687504  C 0.15774609374999343 0.8368212890625004  0.3948984374999922 0.6157470703125  0.8732226562499925 0.4876245117187502  C 1.0179257812499938 0.4499414062500002  1.1586093749999937 0.4298437500000003  1.3033124999999934 0.4298437500000003  C 1.6288945312499932 0.4298437500000003  1.894183593749993 0.5001855468750002  2.1112382812499932 0.6433813476562508  Z " stroke-width="0" stroke-dasharray="0" stroke="rgba(255, 255, 128, 1)" fill="none" transform="matrix(1 0 0 1 13 0 )" class="stroke" mask="url(#Clip66)" />
  </g>
</svg>