<?xml version="1.0" encoding="utf-8"?>
<svg version="1.1" xmlns:xlink="http://www.w3.org/1999/xlink" width="17px" height="18px" xmlns="http://www.w3.org/2000/svg">
  <defs>
    <pattern id="BGPattern" patternUnits="userSpaceOnUse" alignment="0 0" imageRepeat="None" />
    <mask fill="white" id="Clip73">
      <path d="M 1.3076923076923077 13.82142857142857  L 1.3076923076923077 16.714285714285715  L 4.25 16.714285714285715  L 4.25 13.82142857142857  L 1.3076923076923077 13.82142857142857  Z M 4.903846153846153 13.82142857142857  L 4.903846153846153 16.714285714285715  L 8.173076923076923 16.714285714285715  L 8.173076923076923 13.82142857142857  L 4.903846153846153 13.82142857142857  Z M 1.3076923076923077 9.964285714285715  L 1.3076923076923077 13.17857142857143  L 4.25 13.17857142857143  L 4.25 9.964285714285715  L 1.3076923076923077 9.964285714285715  Z M 4.903846153846153 9.964285714285715  L 4.903846153846153 13.17857142857143  L 8.173076923076923 13.17857142857143  L 8.173076923076923 9.964285714285715  L 4.903846153846153 9.964285714285715  Z M 1.3076923076923077 6.428571428571428  L 1.3076923076923077 9.32142857142857  L 4.25 9.32142857142857  L 4.25 6.428571428571428  L 1.3076923076923077 6.428571428571428  Z M 8.826923076923078 13.82142857142857  L 8.826923076923078 16.714285714285715  L 12.096153846153847 16.714285714285715  L 12.096153846153847 13.82142857142857  L 8.826923076923078 13.82142857142857  Z M 4.903846153846153 6.428571428571428  L 4.903846153846153 9.32142857142857  L 8.173076923076923 9.32142857142857  L 8.173076923076923 6.428571428571428  L 4.903846153846153 6.428571428571428  Z M 12.75 13.82142857142857  L 12.75 16.714285714285715  L 15.692307692307693 16.714285714285715  L 15.692307692307693 13.82142857142857  L 12.75 13.82142857142857  Z M 8.826923076923078 9.964285714285715  L 8.826923076923078 13.17857142857143  L 12.096153846153847 13.17857142857143  L 12.096153846153847 9.964285714285715  L 8.826923076923078 9.964285714285715  Z M 5.1337139423076925 4.726004464285715  C 5.198417467948718 4.662388392857142  5.230769230769231 4.587053571428569  5.230769230769231 4.5  L 5.230769230769231 1.6071428571428574  C 5.230769230769231 1.5200892857142858  5.198417467948718 1.4447544642857135  5.1337139423076925 1.3811383928571426  C 5.069010416666667 1.3175223214285696  4.992387820512821 1.2857142857142851  4.903846153846153 1.2857142857142851  L 4.25 1.2857142857142851  C 4.161458333333334 1.2857142857142851  4.084835737179487 1.3175223214285696  4.020132211538462 1.3811383928571426  C 3.9554286858974352 1.4447544642857135  3.9230769230769234 1.5200892857142858  3.9230769230769234 1.6071428571428574  L 3.9230769230769234 4.5  C 3.9230769230769234 4.587053571428569  3.9554286858974352 4.662388392857142  4.020132211538462 4.726004464285715  C 4.084835737179487 4.789620535714286  4.161458333333334 4.821428571428572  4.25 4.821428571428572  L 4.903846153846153 4.821428571428572  C 4.992387820512821 4.821428571428572  5.069010416666667 4.789620535714286  5.1337139423076925 4.726004464285715  Z M 12.75 9.964285714285715  L 12.75 13.17857142857143  L 15.692307692307693 13.17857142857143  L 15.692307692307693 9.964285714285715  L 12.75 9.964285714285715  Z M 8.826923076923078 6.428571428571428  L 8.826923076923078 9.32142857142857  L 12.096153846153847 9.32142857142857  L 12.096153846153847 6.428571428571428  L 8.826923076923078 6.428571428571428  Z M 12.75 6.428571428571428  L 12.75 9.32142857142857  L 15.692307692307693 9.32142857142857  L 15.692307692307693 6.428571428571428  L 12.75 6.428571428571428  Z M 12.979867788461538 4.726004464285715  C 13.044571314102566 4.662388392857142  13.076923076923078 4.587053571428569  13.076923076923078 4.5  L 13.076923076923078 1.6071428571428574  C 13.076923076923078 1.5200892857142858  13.044571314102566 1.4447544642857135  12.979867788461538 1.3811383928571426  C 12.915164262820515 1.3175223214285696  12.838541666666668 1.2857142857142851  12.75 1.2857142857142851  L 12.096153846153847 1.2857142857142851  C 12.00761217948718 1.2857142857142851  11.930989583333334 1.3175223214285696  11.866286057692307 1.3811383928571426  C 11.801582532051283 1.4447544642857135  11.769230769230768 1.5200892857142858  11.769230769230768 1.6071428571428574  L 11.769230769230768 4.5  C 11.769230769230768 4.587053571428569  11.801582532051283 4.662388392857142  11.866286057692307 4.726004464285715  C 11.930989583333334 4.789620535714286  12.00761217948718 4.821428571428572  12.096153846153847 4.821428571428572  L 12.75 4.821428571428572  C 12.838541666666668 4.821428571428572  12.915164262820515 4.789620535714286  12.979867788461538 4.726004464285715  Z M 16.611778846153847 2.953125  C 16.87059294871795 3.2075892857142856  17 3.508928571428571  17 3.8571428571428577  L 17 16.714285714285715  C 17 17.0625  16.87059294871795 17.363839285714285  16.611778846153847 17.618303571428573  C 16.352964743589745 17.872767857142858  16.04647435897436 18  15.692307692307693 18  L 1.3076923076923077 18  C 0.9535256410256412 18  0.6470352564102565 17.872767857142858  0.3882211538461538 17.618303571428573  C 0.12940705128205127 17.363839285714285  0 17.0625  0 16.714285714285715  L 0 3.8571428571428577  C 0 3.508928571428571  0.12940705128205127 3.2075892857142856  0.3882211538461538 2.953125  C 0.6470352564102565 2.698660714285712  0.9535256410256412 2.571428571428572  1.3076923076923077 2.571428571428572  L 2.6153846153846154 2.571428571428572  L 2.6153846153846154 1.6071428571428574  C 2.6153846153846154 1.1651785714285723  2.7754407051282053 0.7868303571428561  3.0955528846153846 0.47209821428571486  C 3.4156650641025648 0.15736607142857162  3.8004807692307696 0  4.25 0  L 4.903846153846153 0  C 5.353365384615384 0  5.73818108974359 0.15736607142857162  6.058293269230769 0.47209821428571486  C 6.378405448717949 0.7868303571428561  6.538461538461539 1.1651785714285723  6.538461538461539 1.6071428571428574  L 6.538461538461539 2.571428571428572  L 10.461538461538462 2.571428571428572  L 10.461538461538462 1.6071428571428574  C 10.461538461538462 1.1651785714285723  10.621594551282051 0.7868303571428561  10.941706730769232 0.47209821428571486  C 11.261818910256412 0.15736607142857162  11.646634615384615 0  12.096153846153847 0  L 12.75 0  C 13.199519230769232 0  13.584334935897436 0.15736607142857162  13.904447115384615 0.47209821428571486  C 14.224559294871797 0.7868303571428561  14.384615384615385 1.1651785714285723  14.384615384615385 1.6071428571428574  L 14.384615384615385 2.571428571428572  L 15.692307692307693 2.571428571428572  C 16.04647435897436 2.571428571428572  16.352964743589745 2.698660714285712  16.611778846153847 2.953125  Z " fill-rule="evenodd" />
    </mask>
  </defs>
  <g transform="matrix(1 0 0 1 -629 -141 )">
    <path d="M 1.3076923076923077 13.82142857142857  L 1.3076923076923077 16.714285714285715  L 4.25 16.714285714285715  L 4.25 13.82142857142857  L 1.3076923076923077 13.82142857142857  Z M 4.903846153846153 13.82142857142857  L 4.903846153846153 16.714285714285715  L 8.173076923076923 16.714285714285715  L 8.173076923076923 13.82142857142857  L 4.903846153846153 13.82142857142857  Z M 1.3076923076923077 9.964285714285715  L 1.3076923076923077 13.17857142857143  L 4.25 13.17857142857143  L 4.25 9.964285714285715  L 1.3076923076923077 9.964285714285715  Z M 4.903846153846153 9.964285714285715  L 4.903846153846153 13.17857142857143  L 8.173076923076923 13.17857142857143  L 8.173076923076923 9.964285714285715  L 4.903846153846153 9.964285714285715  Z M 1.3076923076923077 6.428571428571428  L 1.3076923076923077 9.32142857142857  L 4.25 9.32142857142857  L 4.25 6.428571428571428  L 1.3076923076923077 6.428571428571428  Z M 8.826923076923078 13.82142857142857  L 8.826923076923078 16.714285714285715  L 12.096153846153847 16.714285714285715  L 12.096153846153847 13.82142857142857  L 8.826923076923078 13.82142857142857  Z M 4.903846153846153 6.428571428571428  L 4.903846153846153 9.32142857142857  L 8.173076923076923 9.32142857142857  L 8.173076923076923 6.428571428571428  L 4.903846153846153 6.428571428571428  Z M 12.75 13.82142857142857  L 12.75 16.714285714285715  L 15.692307692307693 16.714285714285715  L 15.692307692307693 13.82142857142857  L 12.75 13.82142857142857  Z M 8.826923076923078 9.964285714285715  L 8.826923076923078 13.17857142857143  L 12.096153846153847 13.17857142857143  L 12.096153846153847 9.964285714285715  L 8.826923076923078 9.964285714285715  Z M 5.1337139423076925 4.726004464285715  C 5.198417467948718 4.662388392857142  5.230769230769231 4.587053571428569  5.230769230769231 4.5  L 5.230769230769231 1.6071428571428574  C 5.230769230769231 1.5200892857142858  5.198417467948718 1.4447544642857135  5.1337139423076925 1.3811383928571426  C 5.069010416666667 1.3175223214285696  4.992387820512821 1.2857142857142851  4.903846153846153 1.2857142857142851  L 4.25 1.2857142857142851  C 4.161458333333334 1.2857142857142851  4.084835737179487 1.3175223214285696  4.020132211538462 1.3811383928571426  C 3.9554286858974352 1.4447544642857135  3.9230769230769234 1.5200892857142858  3.9230769230769234 1.6071428571428574  L 3.9230769230769234 4.5  C 3.9230769230769234 4.587053571428569  3.9554286858974352 4.662388392857142  4.020132211538462 4.726004464285715  C 4.084835737179487 4.789620535714286  4.161458333333334 4.821428571428572  4.25 4.821428571428572  L 4.903846153846153 4.821428571428572  C 4.992387820512821 4.821428571428572  5.069010416666667 4.789620535714286  5.1337139423076925 4.726004464285715  Z M 12.75 9.964285714285715  L 12.75 13.17857142857143  L 15.692307692307693 13.17857142857143  L 15.692307692307693 9.964285714285715  L 12.75 9.964285714285715  Z M 8.826923076923078 6.428571428571428  L 8.826923076923078 9.32142857142857  L 12.096153846153847 9.32142857142857  L 12.096153846153847 6.428571428571428  L 8.826923076923078 6.428571428571428  Z M 12.75 6.428571428571428  L 12.75 9.32142857142857  L 15.692307692307693 9.32142857142857  L 15.692307692307693 6.428571428571428  L 12.75 6.428571428571428  Z M 12.979867788461538 4.726004464285715  C 13.044571314102566 4.662388392857142  13.076923076923078 4.587053571428569  13.076923076923078 4.5  L 13.076923076923078 1.6071428571428574  C 13.076923076923078 1.5200892857142858  13.044571314102566 1.4447544642857135  12.979867788461538 1.3811383928571426  C 12.915164262820515 1.3175223214285696  12.838541666666668 1.2857142857142851  12.75 1.2857142857142851  L 12.096153846153847 1.2857142857142851  C 12.00761217948718 1.2857142857142851  11.930989583333334 1.3175223214285696  11.866286057692307 1.3811383928571426  C 11.801582532051283 1.4447544642857135  11.769230769230768 1.5200892857142858  11.769230769230768 1.6071428571428574  L 11.769230769230768 4.5  C 11.769230769230768 4.587053571428569  11.801582532051283 4.662388392857142  11.866286057692307 4.726004464285715  C 11.930989583333334 4.789620535714286  12.00761217948718 4.821428571428572  12.096153846153847 4.821428571428572  L 12.75 4.821428571428572  C 12.838541666666668 4.821428571428572  12.915164262820515 4.789620535714286  12.979867788461538 4.726004464285715  Z M 16.611778846153847 2.953125  C 16.87059294871795 3.2075892857142856  17 3.508928571428571  17 3.8571428571428577  L 17 16.714285714285715  C 17 17.0625  16.87059294871795 17.363839285714285  16.611778846153847 17.618303571428573  C 16.352964743589745 17.872767857142858  16.04647435897436 18  15.692307692307693 18  L 1.3076923076923077 18  C 0.9535256410256412 18  0.6470352564102565 17.872767857142858  0.3882211538461538 17.618303571428573  C 0.12940705128205127 17.363839285714285  0 17.0625  0 16.714285714285715  L 0 3.8571428571428577  C 0 3.508928571428571  0.12940705128205127 3.2075892857142856  0.3882211538461538 2.953125  C 0.6470352564102565 2.698660714285712  0.9535256410256412 2.571428571428572  1.3076923076923077 2.571428571428572  L 2.6153846153846154 2.571428571428572  L 2.6153846153846154 1.6071428571428574  C 2.6153846153846154 1.1651785714285723  2.7754407051282053 0.7868303571428561  3.0955528846153846 0.47209821428571486  C 3.4156650641025648 0.15736607142857162  3.8004807692307696 0  4.25 0  L 4.903846153846153 0  C 5.353365384615384 0  5.73818108974359 0.15736607142857162  6.058293269230769 0.47209821428571486  C 6.378405448717949 0.7868303571428561  6.538461538461539 1.1651785714285723  6.538461538461539 1.6071428571428574  L 6.538461538461539 2.571428571428572  L 10.461538461538462 2.571428571428572  L 10.461538461538462 1.6071428571428574  C 10.461538461538462 1.1651785714285723  10.621594551282051 0.7868303571428561  10.941706730769232 0.47209821428571486  C 11.261818910256412 0.15736607142857162  11.646634615384615 0  12.096153846153847 0  L 12.75 0  C 13.199519230769232 0  13.584334935897436 0.15736607142857162  13.904447115384615 0.47209821428571486  C 14.224559294871797 0.7868303571428561  14.384615384615385 1.1651785714285723  14.384615384615385 1.6071428571428574  L 14.384615384615385 2.571428571428572  L 15.692307692307693 2.571428571428572  C 16.04647435897436 2.571428571428572  16.352964743589745 2.698660714285712  16.611778846153847 2.953125  Z " fill-rule="nonzero" fill="rgba(0, 0, 0, 1)" stroke="none" transform="matrix(1 0 0 1 629 141 )" class="fill" />
    <path d="M 1.3076923076923077 13.82142857142857  L 1.3076923076923077 16.714285714285715  L 4.25 16.714285714285715  L 4.25 13.82142857142857  L 1.3076923076923077 13.82142857142857  Z " stroke-width="0" stroke-dasharray="0" stroke="rgba(170, 170, 170, 1)" fill="none" transform="matrix(1 0 0 1 629 141 )" class="stroke" mask="url(#Clip73)" />
    <path d="M 4.903846153846153 13.82142857142857  L 4.903846153846153 16.714285714285715  L 8.173076923076923 16.714285714285715  L 8.173076923076923 13.82142857142857  L 4.903846153846153 13.82142857142857  Z " stroke-width="0" stroke-dasharray="0" stroke="rgba(170, 170, 170, 1)" fill="none" transform="matrix(1 0 0 1 629 141 )" class="stroke" mask="url(#Clip73)" />
    <path d="M 1.3076923076923077 9.964285714285715  L 1.3076923076923077 13.17857142857143  L 4.25 13.17857142857143  L 4.25 9.964285714285715  L 1.3076923076923077 9.964285714285715  Z " stroke-width="0" stroke-dasharray="0" stroke="rgba(170, 170, 170, 1)" fill="none" transform="matrix(1 0 0 1 629 141 )" class="stroke" mask="url(#Clip73)" />
    <path d="M 4.903846153846153 9.964285714285715  L 4.903846153846153 13.17857142857143  L 8.173076923076923 13.17857142857143  L 8.173076923076923 9.964285714285715  L 4.903846153846153 9.964285714285715  Z " stroke-width="0" stroke-dasharray="0" stroke="rgba(170, 170, 170, 1)" fill="none" transform="matrix(1 0 0 1 629 141 )" class="stroke" mask="url(#Clip73)" />
    <path d="M 1.3076923076923077 6.428571428571428  L 1.3076923076923077 9.32142857142857  L 4.25 9.32142857142857  L 4.25 6.428571428571428  L 1.3076923076923077 6.428571428571428  Z " stroke-width="0" stroke-dasharray="0" stroke="rgba(170, 170, 170, 1)" fill="none" transform="matrix(1 0 0 1 629 141 )" class="stroke" mask="url(#Clip73)" />
    <path d="M 8.826923076923078 13.82142857142857  L 8.826923076923078 16.714285714285715  L 12.096153846153847 16.714285714285715  L 12.096153846153847 13.82142857142857  L 8.826923076923078 13.82142857142857  Z " stroke-width="0" stroke-dasharray="0" stroke="rgba(170, 170, 170, 1)" fill="none" transform="matrix(1 0 0 1 629 141 )" class="stroke" mask="url(#Clip73)" />
    <path d="M 4.903846153846153 6.428571428571428  L 4.903846153846153 9.32142857142857  L 8.173076923076923 9.32142857142857  L 8.173076923076923 6.428571428571428  L 4.903846153846153 6.428571428571428  Z " stroke-width="0" stroke-dasharray="0" stroke="rgba(170, 170, 170, 1)" fill="none" transform="matrix(1 0 0 1 629 141 )" class="stroke" mask="url(#Clip73)" />
    <path d="M 12.75 13.82142857142857  L 12.75 16.714285714285715  L 15.692307692307693 16.714285714285715  L 15.692307692307693 13.82142857142857  L 12.75 13.82142857142857  Z " stroke-width="0" stroke-dasharray="0" stroke="rgba(170, 170, 170, 1)" fill="none" transform="matrix(1 0 0 1 629 141 )" class="stroke" mask="url(#Clip73)" />
    <path d="M 8.826923076923078 9.964285714285715  L 8.826923076923078 13.17857142857143  L 12.096153846153847 13.17857142857143  L 12.096153846153847 9.964285714285715  L 8.826923076923078 9.964285714285715  Z " stroke-width="0" stroke-dasharray="0" stroke="rgba(170, 170, 170, 1)" fill="none" transform="matrix(1 0 0 1 629 141 )" class="stroke" mask="url(#Clip73)" />
    <path d="M 5.1337139423076925 4.726004464285715  C 5.198417467948718 4.662388392857142  5.230769230769231 4.587053571428569  5.230769230769231 4.5  L 5.230769230769231 1.6071428571428574  C 5.230769230769231 1.5200892857142858  5.198417467948718 1.4447544642857135  5.1337139423076925 1.3811383928571426  C 5.069010416666667 1.3175223214285696  4.992387820512821 1.2857142857142851  4.903846153846153 1.2857142857142851  L 4.25 1.2857142857142851  C 4.161458333333334 1.2857142857142851  4.084835737179487 1.3175223214285696  4.020132211538462 1.3811383928571426  C 3.9554286858974352 1.4447544642857135  3.9230769230769234 1.5200892857142858  3.9230769230769234 1.6071428571428574  L 3.9230769230769234 4.5  C 3.9230769230769234 4.587053571428569  3.9554286858974352 4.662388392857142  4.020132211538462 4.726004464285715  C 4.084835737179487 4.789620535714286  4.161458333333334 4.821428571428572  4.25 4.821428571428572  L 4.903846153846153 4.821428571428572  C 4.992387820512821 4.821428571428572  5.069010416666667 4.789620535714286  5.1337139423076925 4.726004464285715  Z " stroke-width="0" stroke-dasharray="0" stroke="rgba(170, 170, 170, 1)" fill="none" transform="matrix(1 0 0 1 629 141 )" class="stroke" mask="url(#Clip73)" />
    <path d="M 12.75 9.964285714285715  L 12.75 13.17857142857143  L 15.692307692307693 13.17857142857143  L 15.692307692307693 9.964285714285715  L 12.75 9.964285714285715  Z " stroke-width="0" stroke-dasharray="0" stroke="rgba(170, 170, 170, 1)" fill="none" transform="matrix(1 0 0 1 629 141 )" class="stroke" mask="url(#Clip73)" />
    <path d="M 8.826923076923078 6.428571428571428  L 8.826923076923078 9.32142857142857  L 12.096153846153847 9.32142857142857  L 12.096153846153847 6.428571428571428  L 8.826923076923078 6.428571428571428  Z " stroke-width="0" stroke-dasharray="0" stroke="rgba(170, 170, 170, 1)" fill="none" transform="matrix(1 0 0 1 629 141 )" class="stroke" mask="url(#Clip73)" />
    <path d="M 12.75 6.428571428571428  L 12.75 9.32142857142857  L 15.692307692307693 9.32142857142857  L 15.692307692307693 6.428571428571428  L 12.75 6.428571428571428  Z " stroke-width="0" stroke-dasharray="0" stroke="rgba(170, 170, 170, 1)" fill="none" transform="matrix(1 0 0 1 629 141 )" class="stroke" mask="url(#Clip73)" />
    <path d="M 12.979867788461538 4.726004464285715  C 13.044571314102566 4.662388392857142  13.076923076923078 4.587053571428569  13.076923076923078 4.5  L 13.076923076923078 1.6071428571428574  C 13.076923076923078 1.5200892857142858  13.044571314102566 1.4447544642857135  12.979867788461538 1.3811383928571426  C 12.915164262820515 1.3175223214285696  12.838541666666668 1.2857142857142851  12.75 1.2857142857142851  L 12.096153846153847 1.2857142857142851  C 12.00761217948718 1.2857142857142851  11.930989583333334 1.3175223214285696  11.866286057692307 1.3811383928571426  C 11.801582532051283 1.4447544642857135  11.769230769230768 1.5200892857142858  11.769230769230768 1.6071428571428574  L 11.769230769230768 4.5  C 11.769230769230768 4.587053571428569  11.801582532051283 4.662388392857142  11.866286057692307 4.726004464285715  C 11.930989583333334 4.789620535714286  12.00761217948718 4.821428571428572  12.096153846153847 4.821428571428572  L 12.75 4.821428571428572  C 12.838541666666668 4.821428571428572  12.915164262820515 4.789620535714286  12.979867788461538 4.726004464285715  Z " stroke-width="0" stroke-dasharray="0" stroke="rgba(170, 170, 170, 1)" fill="none" transform="matrix(1 0 0 1 629 141 )" class="stroke" mask="url(#Clip73)" />
    <path d="M 16.611778846153847 2.953125  C 16.87059294871795 3.2075892857142856  17 3.508928571428571  17 3.8571428571428577  L 17 16.714285714285715  C 17 17.0625  16.87059294871795 17.363839285714285  16.611778846153847 17.618303571428573  C 16.352964743589745 17.872767857142858  16.04647435897436 18  15.692307692307693 18  L 1.3076923076923077 18  C 0.9535256410256412 18  0.6470352564102565 17.872767857142858  0.3882211538461538 17.618303571428573  C 0.12940705128205127 17.363839285714285  0 17.0625  0 16.714285714285715  L 0 3.8571428571428577  C 0 3.508928571428571  0.12940705128205127 3.2075892857142856  0.3882211538461538 2.953125  C 0.6470352564102565 2.698660714285712  0.9535256410256412 2.571428571428572  1.3076923076923077 2.571428571428572  L 2.6153846153846154 2.571428571428572  L 2.6153846153846154 1.6071428571428574  C 2.6153846153846154 1.1651785714285723  2.7754407051282053 0.7868303571428561  3.0955528846153846 0.47209821428571486  C 3.4156650641025648 0.15736607142857162  3.8004807692307696 0  4.25 0  L 4.903846153846153 0  C 5.353365384615384 0  5.73818108974359 0.15736607142857162  6.058293269230769 0.47209821428571486  C 6.378405448717949 0.7868303571428561  6.538461538461539 1.1651785714285723  6.538461538461539 1.6071428571428574  L 6.538461538461539 2.571428571428572  L 10.461538461538462 2.571428571428572  L 10.461538461538462 1.6071428571428574  C 10.461538461538462 1.1651785714285723  10.621594551282051 0.7868303571428561  10.941706730769232 0.47209821428571486  C 11.261818910256412 0.15736607142857162  11.646634615384615 0  12.096153846153847 0  L 12.75 0  C 13.199519230769232 0  13.584334935897436 0.15736607142857162  13.904447115384615 0.47209821428571486  C 14.224559294871797 0.7868303571428561  14.384615384615385 1.1651785714285723  14.384615384615385 1.6071428571428574  L 14.384615384615385 2.571428571428572  L 15.692307692307693 2.571428571428572  C 16.04647435897436 2.571428571428572  16.352964743589745 2.698660714285712  16.611778846153847 2.953125  Z " stroke-width="0" stroke-dasharray="0" stroke="rgba(170, 170, 170, 1)" fill="none" transform="matrix(1 0 0 1 629 141 )" class="stroke" mask="url(#Clip73)" />
  </g>
</svg>