<?xml version="1.0" encoding="utf-8"?>
<svg version="1.1" xmlns:xlink="http://www.w3.org/1999/xlink" width="18px" height="18px" xmlns="http://www.w3.org/2000/svg">
  <defs>
    <pattern id="BGPattern" patternUnits="userSpaceOnUse" alignment="0 0" imageRepeat="None" />
    <mask fill="white" id="Clip48">
      <path d="M 1.3846153846153846 13.82142857142857  L 1.3846153846153846 16.714285714285715  L 4.5 16.714285714285715  L 4.5 13.82142857142857  L 1.3846153846153846 13.82142857142857  Z M 5.192307692307692 13.82142857142857  L 5.192307692307692 16.714285714285715  L 8.653846153846153 16.714285714285715  L 8.653846153846153 13.82142857142857  L 5.192307692307692 13.82142857142857  Z M 1.3846153846153846 9.964285714285715  L 1.3846153846153846 13.17857142857143  L 4.5 13.17857142857143  L 4.5 9.964285714285715  L 1.3846153846153846 9.964285714285715  Z M 5.192307692307692 9.964285714285715  L 5.192307692307692 13.17857142857143  L 8.653846153846153 13.17857142857143  L 8.653846153846153 9.964285714285715  L 5.192307692307692 9.964285714285715  Z M 1.3846153846153846 6.428571428571428  L 1.3846153846153846 9.32142857142857  L 4.5 9.32142857142857  L 4.5 6.428571428571428  L 1.3846153846153846 6.428571428571428  Z M 9.346153846153847 13.82142857142857  L 9.346153846153847 16.714285714285715  L 12.807692307692308 16.714285714285715  L 12.807692307692308 13.82142857142857  L 9.346153846153847 13.82142857142857  Z M 5.192307692307692 6.428571428571428  L 5.192307692307692 9.32142857142857  L 8.653846153846153 9.32142857142857  L 8.653846153846153 6.428571428571428  L 5.192307692307692 6.428571428571428  Z M 13.5 13.82142857142857  L 13.5 16.714285714285715  L 16.615384615384617 16.714285714285715  L 16.615384615384617 13.82142857142857  L 13.5 13.82142857142857  Z M 9.346153846153847 9.964285714285715  L 9.346153846153847 13.17857142857143  L 12.807692307692308 13.17857142857143  L 12.807692307692308 9.964285714285715  L 9.346153846153847 9.964285714285715  Z M 5.435697115384615 4.726004464285715  C 5.504206730769231 4.662388392857142  5.538461538461538 4.587053571428569  5.538461538461538 4.5  L 5.538461538461538 1.6071428571428574  C 5.538461538461538 1.5200892857142858  5.504206730769231 1.4447544642857135  5.435697115384615 1.3811383928571426  C 5.367187500000001 1.3175223214285696  5.2860576923076925 1.2857142857142851  5.192307692307692 1.2857142857142851  L 4.5 1.2857142857142851  C 4.40625 1.2857142857142851  4.3251201923076925 1.3175223214285696  4.256610576923077 1.3811383928571426  C 4.188100961538461 1.4447544642857135  4.153846153846154 1.5200892857142858  4.153846153846154 1.6071428571428574  L 4.153846153846154 4.5  C 4.153846153846154 4.587053571428569  4.188100961538461 4.662388392857142  4.256610576923077 4.726004464285715  C 4.3251201923076925 4.789620535714286  4.40625 4.821428571428572  4.5 4.821428571428572  L 5.192307692307692 4.821428571428572  C 5.2860576923076925 4.821428571428572  5.367187500000001 4.789620535714286  5.435697115384615 4.726004464285715  Z M 13.5 9.964285714285715  L 13.5 13.17857142857143  L 16.615384615384617 13.17857142857143  L 16.615384615384617 9.964285714285715  L 13.5 9.964285714285715  Z M 9.346153846153847 6.428571428571428  L 9.346153846153847 9.32142857142857  L 12.807692307692308 9.32142857142857  L 12.807692307692308 6.428571428571428  L 9.346153846153847 6.428571428571428  Z M 13.5 6.428571428571428  L 13.5 9.32142857142857  L 16.615384615384617 9.32142857142857  L 16.615384615384617 6.428571428571428  L 13.5 6.428571428571428  Z M 13.743389423076923 4.726004464285715  C 13.81189903846154 4.662388392857142  13.846153846153847 4.587053571428569  13.846153846153847 4.5  L 13.846153846153847 1.6071428571428574  C 13.846153846153847 1.5200892857142858  13.81189903846154 1.4447544642857135  13.743389423076923 1.3811383928571426  C 13.674879807692308 1.3175223214285696  13.59375 1.2857142857142851  13.5 1.2857142857142851  L 12.807692307692308 1.2857142857142851  C 12.71394230769231 1.2857142857142851  12.632812500000002 1.3175223214285696  12.564302884615383 1.3811383928571426  C 12.49579326923077 1.4447544642857135  12.461538461538462 1.5200892857142858  12.461538461538462 1.6071428571428574  L 12.461538461538462 4.5  C 12.461538461538462 4.587053571428569  12.49579326923077 4.662388392857142  12.564302884615383 4.726004464285715  C 12.632812500000002 4.789620535714286  12.71394230769231 4.821428571428572  12.807692307692308 4.821428571428572  L 13.5 4.821428571428572  C 13.59375 4.821428571428572  13.674879807692308 4.789620535714286  13.743389423076923 4.726004464285715  Z M 17.588942307692307 2.953125  C 17.86298076923077 3.2075892857142856  18 3.508928571428571  18 3.8571428571428577  L 18 16.714285714285715  C 18 17.0625  17.86298076923077 17.363839285714285  17.588942307692307 17.618303571428573  C 17.314903846153847 17.872767857142858  16.990384615384617 18  16.615384615384617 18  L 1.3846153846153846 18  C 1.0096153846153848 18  0.685096153846154 17.872767857142858  0.4110576923076923 17.618303571428573  C 0.13701923076923075 17.363839285714285  0 17.0625  0 16.714285714285715  L 0 3.8571428571428577  C 0 3.508928571428571  0.13701923076923075 3.2075892857142856  0.4110576923076923 2.953125  C 0.685096153846154 2.698660714285712  1.0096153846153848 2.571428571428572  1.3846153846153846 2.571428571428572  L 2.769230769230769 2.571428571428572  L 2.769230769230769 1.6071428571428574  C 2.769230769230769 1.1651785714285723  2.9387019230769234 0.7868303571428561  3.277644230769231 0.47209821428571486  C 3.616586538461539 0.15736607142857162  4.024038461538462 0  4.5 0  L 5.192307692307692 0  C 5.668269230769231 0  6.075721153846155 0.15736607142857162  6.414663461538462 0.47209821428571486  C 6.75360576923077 0.7868303571428561  6.923076923076923 1.1651785714285723  6.923076923076923 1.6071428571428574  L 6.923076923076923 2.571428571428572  L 11.076923076923077 2.571428571428572  L 11.076923076923077 1.6071428571428574  C 11.076923076923077 1.1651785714285723  11.246394230769232 0.7868303571428561  11.585336538461538 0.47209821428571486  C 11.924278846153848 0.15736607142857162  12.33173076923077 0  12.807692307692308 0  L 13.5 0  C 13.975961538461538 0  14.383413461538462 0.15736607142857162  14.72235576923077 0.47209821428571486  C 15.061298076923078 0.7868303571428561  15.23076923076923 1.1651785714285723  15.23076923076923 1.6071428571428574  L 15.23076923076923 2.571428571428572  L 16.615384615384617 2.571428571428572  C 16.990384615384617 2.571428571428572  17.314903846153847 2.698660714285712  17.588942307692307 2.953125  Z " fill-rule="evenodd" />
    </mask>
  </defs>
  <g transform="matrix(1 0 0 1 -1237 -163 )">
    <path d="M 1.3846153846153846 13.82142857142857  L 1.3846153846153846 16.714285714285715  L 4.5 16.714285714285715  L 4.5 13.82142857142857  L 1.3846153846153846 13.82142857142857  Z M 5.192307692307692 13.82142857142857  L 5.192307692307692 16.714285714285715  L 8.653846153846153 16.714285714285715  L 8.653846153846153 13.82142857142857  L 5.192307692307692 13.82142857142857  Z M 1.3846153846153846 9.964285714285715  L 1.3846153846153846 13.17857142857143  L 4.5 13.17857142857143  L 4.5 9.964285714285715  L 1.3846153846153846 9.964285714285715  Z M 5.192307692307692 9.964285714285715  L 5.192307692307692 13.17857142857143  L 8.653846153846153 13.17857142857143  L 8.653846153846153 9.964285714285715  L 5.192307692307692 9.964285714285715  Z M 1.3846153846153846 6.428571428571428  L 1.3846153846153846 9.32142857142857  L 4.5 9.32142857142857  L 4.5 6.428571428571428  L 1.3846153846153846 6.428571428571428  Z M 9.346153846153847 13.82142857142857  L 9.346153846153847 16.714285714285715  L 12.807692307692308 16.714285714285715  L 12.807692307692308 13.82142857142857  L 9.346153846153847 13.82142857142857  Z M 5.192307692307692 6.428571428571428  L 5.192307692307692 9.32142857142857  L 8.653846153846153 9.32142857142857  L 8.653846153846153 6.428571428571428  L 5.192307692307692 6.428571428571428  Z M 13.5 13.82142857142857  L 13.5 16.714285714285715  L 16.615384615384617 16.714285714285715  L 16.615384615384617 13.82142857142857  L 13.5 13.82142857142857  Z M 9.346153846153847 9.964285714285715  L 9.346153846153847 13.17857142857143  L 12.807692307692308 13.17857142857143  L 12.807692307692308 9.964285714285715  L 9.346153846153847 9.964285714285715  Z M 5.435697115384615 4.726004464285715  C 5.504206730769231 4.662388392857142  5.538461538461538 4.587053571428569  5.538461538461538 4.5  L 5.538461538461538 1.6071428571428574  C 5.538461538461538 1.5200892857142858  5.504206730769231 1.4447544642857135  5.435697115384615 1.3811383928571426  C 5.367187500000001 1.3175223214285696  5.2860576923076925 1.2857142857142851  5.192307692307692 1.2857142857142851  L 4.5 1.2857142857142851  C 4.40625 1.2857142857142851  4.3251201923076925 1.3175223214285696  4.256610576923077 1.3811383928571426  C 4.188100961538461 1.4447544642857135  4.153846153846154 1.5200892857142858  4.153846153846154 1.6071428571428574  L 4.153846153846154 4.5  C 4.153846153846154 4.587053571428569  4.188100961538461 4.662388392857142  4.256610576923077 4.726004464285715  C 4.3251201923076925 4.789620535714286  4.40625 4.821428571428572  4.5 4.821428571428572  L 5.192307692307692 4.821428571428572  C 5.2860576923076925 4.821428571428572  5.367187500000001 4.789620535714286  5.435697115384615 4.726004464285715  Z M 13.5 9.964285714285715  L 13.5 13.17857142857143  L 16.615384615384617 13.17857142857143  L 16.615384615384617 9.964285714285715  L 13.5 9.964285714285715  Z M 9.346153846153847 6.428571428571428  L 9.346153846153847 9.32142857142857  L 12.807692307692308 9.32142857142857  L 12.807692307692308 6.428571428571428  L 9.346153846153847 6.428571428571428  Z M 13.5 6.428571428571428  L 13.5 9.32142857142857  L 16.615384615384617 9.32142857142857  L 16.615384615384617 6.428571428571428  L 13.5 6.428571428571428  Z M 13.743389423076923 4.726004464285715  C 13.81189903846154 4.662388392857142  13.846153846153847 4.587053571428569  13.846153846153847 4.5  L 13.846153846153847 1.6071428571428574  C 13.846153846153847 1.5200892857142858  13.81189903846154 1.4447544642857135  13.743389423076923 1.3811383928571426  C 13.674879807692308 1.3175223214285696  13.59375 1.2857142857142851  13.5 1.2857142857142851  L 12.807692307692308 1.2857142857142851  C 12.71394230769231 1.2857142857142851  12.632812500000002 1.3175223214285696  12.564302884615383 1.3811383928571426  C 12.49579326923077 1.4447544642857135  12.461538461538462 1.5200892857142858  12.461538461538462 1.6071428571428574  L 12.461538461538462 4.5  C 12.461538461538462 4.587053571428569  12.49579326923077 4.662388392857142  12.564302884615383 4.726004464285715  C 12.632812500000002 4.789620535714286  12.71394230769231 4.821428571428572  12.807692307692308 4.821428571428572  L 13.5 4.821428571428572  C 13.59375 4.821428571428572  13.674879807692308 4.789620535714286  13.743389423076923 4.726004464285715  Z M 17.588942307692307 2.953125  C 17.86298076923077 3.2075892857142856  18 3.508928571428571  18 3.8571428571428577  L 18 16.714285714285715  C 18 17.0625  17.86298076923077 17.363839285714285  17.588942307692307 17.618303571428573  C 17.314903846153847 17.872767857142858  16.990384615384617 18  16.615384615384617 18  L 1.3846153846153846 18  C 1.0096153846153848 18  0.685096153846154 17.872767857142858  0.4110576923076923 17.618303571428573  C 0.13701923076923075 17.363839285714285  0 17.0625  0 16.714285714285715  L 0 3.8571428571428577  C 0 3.508928571428571  0.13701923076923075 3.2075892857142856  0.4110576923076923 2.953125  C 0.685096153846154 2.698660714285712  1.0096153846153848 2.571428571428572  1.3846153846153846 2.571428571428572  L 2.769230769230769 2.571428571428572  L 2.769230769230769 1.6071428571428574  C 2.769230769230769 1.1651785714285723  2.9387019230769234 0.7868303571428561  3.277644230769231 0.47209821428571486  C 3.616586538461539 0.15736607142857162  4.024038461538462 0  4.5 0  L 5.192307692307692 0  C 5.668269230769231 0  6.075721153846155 0.15736607142857162  6.414663461538462 0.47209821428571486  C 6.75360576923077 0.7868303571428561  6.923076923076923 1.1651785714285723  6.923076923076923 1.6071428571428574  L 6.923076923076923 2.571428571428572  L 11.076923076923077 2.571428571428572  L 11.076923076923077 1.6071428571428574  C 11.076923076923077 1.1651785714285723  11.246394230769232 0.7868303571428561  11.585336538461538 0.47209821428571486  C 11.924278846153848 0.15736607142857162  12.33173076923077 0  12.807692307692308 0  L 13.5 0  C 13.975961538461538 0  14.383413461538462 0.15736607142857162  14.72235576923077 0.47209821428571486  C 15.061298076923078 0.7868303571428561  15.23076923076923 1.1651785714285723  15.23076923076923 1.6071428571428574  L 15.23076923076923 2.571428571428572  L 16.615384615384617 2.571428571428572  C 16.990384615384617 2.571428571428572  17.314903846153847 2.698660714285712  17.588942307692307 2.953125  Z " fill-rule="nonzero" fill="rgba(0, 0, 0, 1)" stroke="none" transform="matrix(1 0 0 1 1237 163 )" class="fill" />
    <path d="M 1.3846153846153846 13.82142857142857  L 1.3846153846153846 16.714285714285715  L 4.5 16.714285714285715  L 4.5 13.82142857142857  L 1.3846153846153846 13.82142857142857  Z " stroke-width="0" stroke-dasharray="0" stroke="rgba(170, 170, 170, 1)" fill="none" transform="matrix(1 0 0 1 1237 163 )" class="stroke" mask="url(#Clip48)" />
    <path d="M 5.192307692307692 13.82142857142857  L 5.192307692307692 16.714285714285715  L 8.653846153846153 16.714285714285715  L 8.653846153846153 13.82142857142857  L 5.192307692307692 13.82142857142857  Z " stroke-width="0" stroke-dasharray="0" stroke="rgba(170, 170, 170, 1)" fill="none" transform="matrix(1 0 0 1 1237 163 )" class="stroke" mask="url(#Clip48)" />
    <path d="M 1.3846153846153846 9.964285714285715  L 1.3846153846153846 13.17857142857143  L 4.5 13.17857142857143  L 4.5 9.964285714285715  L 1.3846153846153846 9.964285714285715  Z " stroke-width="0" stroke-dasharray="0" stroke="rgba(170, 170, 170, 1)" fill="none" transform="matrix(1 0 0 1 1237 163 )" class="stroke" mask="url(#Clip48)" />
    <path d="M 5.192307692307692 9.964285714285715  L 5.192307692307692 13.17857142857143  L 8.653846153846153 13.17857142857143  L 8.653846153846153 9.964285714285715  L 5.192307692307692 9.964285714285715  Z " stroke-width="0" stroke-dasharray="0" stroke="rgba(170, 170, 170, 1)" fill="none" transform="matrix(1 0 0 1 1237 163 )" class="stroke" mask="url(#Clip48)" />
    <path d="M 1.3846153846153846 6.428571428571428  L 1.3846153846153846 9.32142857142857  L 4.5 9.32142857142857  L 4.5 6.428571428571428  L 1.3846153846153846 6.428571428571428  Z " stroke-width="0" stroke-dasharray="0" stroke="rgba(170, 170, 170, 1)" fill="none" transform="matrix(1 0 0 1 1237 163 )" class="stroke" mask="url(#Clip48)" />
    <path d="M 9.346153846153847 13.82142857142857  L 9.346153846153847 16.714285714285715  L 12.807692307692308 16.714285714285715  L 12.807692307692308 13.82142857142857  L 9.346153846153847 13.82142857142857  Z " stroke-width="0" stroke-dasharray="0" stroke="rgba(170, 170, 170, 1)" fill="none" transform="matrix(1 0 0 1 1237 163 )" class="stroke" mask="url(#Clip48)" />
    <path d="M 5.192307692307692 6.428571428571428  L 5.192307692307692 9.32142857142857  L 8.653846153846153 9.32142857142857  L 8.653846153846153 6.428571428571428  L 5.192307692307692 6.428571428571428  Z " stroke-width="0" stroke-dasharray="0" stroke="rgba(170, 170, 170, 1)" fill="none" transform="matrix(1 0 0 1 1237 163 )" class="stroke" mask="url(#Clip48)" />
    <path d="M 13.5 13.82142857142857  L 13.5 16.714285714285715  L 16.615384615384617 16.714285714285715  L 16.615384615384617 13.82142857142857  L 13.5 13.82142857142857  Z " stroke-width="0" stroke-dasharray="0" stroke="rgba(170, 170, 170, 1)" fill="none" transform="matrix(1 0 0 1 1237 163 )" class="stroke" mask="url(#Clip48)" />
    <path d="M 9.346153846153847 9.964285714285715  L 9.346153846153847 13.17857142857143  L 12.807692307692308 13.17857142857143  L 12.807692307692308 9.964285714285715  L 9.346153846153847 9.964285714285715  Z " stroke-width="0" stroke-dasharray="0" stroke="rgba(170, 170, 170, 1)" fill="none" transform="matrix(1 0 0 1 1237 163 )" class="stroke" mask="url(#Clip48)" />
    <path d="M 5.435697115384615 4.726004464285715  C 5.504206730769231 4.662388392857142  5.538461538461538 4.587053571428569  5.538461538461538 4.5  L 5.538461538461538 1.6071428571428574  C 5.538461538461538 1.5200892857142858  5.504206730769231 1.4447544642857135  5.435697115384615 1.3811383928571426  C 5.367187500000001 1.3175223214285696  5.2860576923076925 1.2857142857142851  5.192307692307692 1.2857142857142851  L 4.5 1.2857142857142851  C 4.40625 1.2857142857142851  4.3251201923076925 1.3175223214285696  4.256610576923077 1.3811383928571426  C 4.188100961538461 1.4447544642857135  4.153846153846154 1.5200892857142858  4.153846153846154 1.6071428571428574  L 4.153846153846154 4.5  C 4.153846153846154 4.587053571428569  4.188100961538461 4.662388392857142  4.256610576923077 4.726004464285715  C 4.3251201923076925 4.789620535714286  4.40625 4.821428571428572  4.5 4.821428571428572  L 5.192307692307692 4.821428571428572  C 5.2860576923076925 4.821428571428572  5.367187500000001 4.789620535714286  5.435697115384615 4.726004464285715  Z " stroke-width="0" stroke-dasharray="0" stroke="rgba(170, 170, 170, 1)" fill="none" transform="matrix(1 0 0 1 1237 163 )" class="stroke" mask="url(#Clip48)" />
    <path d="M 13.5 9.964285714285715  L 13.5 13.17857142857143  L 16.615384615384617 13.17857142857143  L 16.615384615384617 9.964285714285715  L 13.5 9.964285714285715  Z " stroke-width="0" stroke-dasharray="0" stroke="rgba(170, 170, 170, 1)" fill="none" transform="matrix(1 0 0 1 1237 163 )" class="stroke" mask="url(#Clip48)" />
    <path d="M 9.346153846153847 6.428571428571428  L 9.346153846153847 9.32142857142857  L 12.807692307692308 9.32142857142857  L 12.807692307692308 6.428571428571428  L 9.346153846153847 6.428571428571428  Z " stroke-width="0" stroke-dasharray="0" stroke="rgba(170, 170, 170, 1)" fill="none" transform="matrix(1 0 0 1 1237 163 )" class="stroke" mask="url(#Clip48)" />
    <path d="M 13.5 6.428571428571428  L 13.5 9.32142857142857  L 16.615384615384617 9.32142857142857  L 16.615384615384617 6.428571428571428  L 13.5 6.428571428571428  Z " stroke-width="0" stroke-dasharray="0" stroke="rgba(170, 170, 170, 1)" fill="none" transform="matrix(1 0 0 1 1237 163 )" class="stroke" mask="url(#Clip48)" />
    <path d="M 13.743389423076923 4.726004464285715  C 13.81189903846154 4.662388392857142  13.846153846153847 4.587053571428569  13.846153846153847 4.5  L 13.846153846153847 1.6071428571428574  C 13.846153846153847 1.5200892857142858  13.81189903846154 1.4447544642857135  13.743389423076923 1.3811383928571426  C 13.674879807692308 1.3175223214285696  13.59375 1.2857142857142851  13.5 1.2857142857142851  L 12.807692307692308 1.2857142857142851  C 12.71394230769231 1.2857142857142851  12.632812500000002 1.3175223214285696  12.564302884615383 1.3811383928571426  C 12.49579326923077 1.4447544642857135  12.461538461538462 1.5200892857142858  12.461538461538462 1.6071428571428574  L 12.461538461538462 4.5  C 12.461538461538462 4.587053571428569  12.49579326923077 4.662388392857142  12.564302884615383 4.726004464285715  C 12.632812500000002 4.789620535714286  12.71394230769231 4.821428571428572  12.807692307692308 4.821428571428572  L 13.5 4.821428571428572  C 13.59375 4.821428571428572  13.674879807692308 4.789620535714286  13.743389423076923 4.726004464285715  Z " stroke-width="0" stroke-dasharray="0" stroke="rgba(170, 170, 170, 1)" fill="none" transform="matrix(1 0 0 1 1237 163 )" class="stroke" mask="url(#Clip48)" />
    <path d="M 17.588942307692307 2.953125  C 17.86298076923077 3.2075892857142856  18 3.508928571428571  18 3.8571428571428577  L 18 16.714285714285715  C 18 17.0625  17.86298076923077 17.363839285714285  17.588942307692307 17.618303571428573  C 17.314903846153847 17.872767857142858  16.990384615384617 18  16.615384615384617 18  L 1.3846153846153846 18  C 1.0096153846153848 18  0.685096153846154 17.872767857142858  0.4110576923076923 17.618303571428573  C 0.13701923076923075 17.363839285714285  0 17.0625  0 16.714285714285715  L 0 3.8571428571428577  C 0 3.508928571428571  0.13701923076923075 3.2075892857142856  0.4110576923076923 2.953125  C 0.685096153846154 2.698660714285712  1.0096153846153848 2.571428571428572  1.3846153846153846 2.571428571428572  L 2.769230769230769 2.571428571428572  L 2.769230769230769 1.6071428571428574  C 2.769230769230769 1.1651785714285723  2.9387019230769234 0.7868303571428561  3.277644230769231 0.47209821428571486  C 3.616586538461539 0.15736607142857162  4.024038461538462 0  4.5 0  L 5.192307692307692 0  C 5.668269230769231 0  6.075721153846155 0.15736607142857162  6.414663461538462 0.47209821428571486  C 6.75360576923077 0.7868303571428561  6.923076923076923 1.1651785714285723  6.923076923076923 1.6071428571428574  L 6.923076923076923 2.571428571428572  L 11.076923076923077 2.571428571428572  L 11.076923076923077 1.6071428571428574  C 11.076923076923077 1.1651785714285723  11.246394230769232 0.7868303571428561  11.585336538461538 0.47209821428571486  C 11.924278846153848 0.15736607142857162  12.33173076923077 0  12.807692307692308 0  L 13.5 0  C 13.975961538461538 0  14.383413461538462 0.15736607142857162  14.72235576923077 0.47209821428571486  C 15.061298076923078 0.7868303571428561  15.23076923076923 1.1651785714285723  15.23076923076923 1.6071428571428574  L 15.23076923076923 2.571428571428572  L 16.615384615384617 2.571428571428572  C 16.990384615384617 2.571428571428572  17.314903846153847 2.698660714285712  17.588942307692307 2.953125  Z " stroke-width="0" stroke-dasharray="0" stroke="rgba(170, 170, 170, 1)" fill="none" transform="matrix(1 0 0 1 1237 163 )" class="stroke" mask="url(#Clip48)" />
  </g>
</svg>