<?xml version="1.0" encoding="utf-8"?>
<svg version="1.1" xmlns:xlink="http://www.w3.org/1999/xlink" width="20px" height="20px" xmlns="http://www.w3.org/2000/svg">
  <defs>
    <pattern id="BGPattern" patternUnits="userSpaceOnUse" alignment="0 0" imageRepeat="None" />
    <mask fill="white" id="Clip94">
      <path d="M 10.002381859756097 9.995236280487807  L 10 10.004763719512198  L 10.002381859756097 9.995236280487807  Z M 10.002381859756097 19.90377286585366  C 15.461604420731707 19.90377286585366  19.90377286585366 15.461604420731707  19.90377286585366 10  C 19.90377286585366 4.538395579268293  15.45922256097561 0.09622713414634103  9.999999999999998 0.09622713414634103  C 4.538395579268293 0.09622713414634146  0.09622713414634146 4.538395579268293  0.09622713414634146 10  C 0.09622713414634146 15.461604420731707  4.538395579268293 19.90377286585366  10.002381859756097 19.90377286585366  Z M 18.481802591463413 10  C 18.484184451219512 14.675590701219512  14.677972560975615 18.484184451219512  10 18.484184451219512  C 5.322027439024391 18.484184451219512  1.5158155487804883 14.677972560975615  1.5158155487804883 10  C 1.5158155487804883 5.322027439024391  5.322027439024391 1.5158155487804883  10 1.5158155487804883  C 14.675590701219512 1.5158155487804883  18.481802591463413 5.322027439024391  18.481802591463413 10  Z " fill-rule="evenodd" />
    </mask>
  </defs>
  <g transform="matrix(1 0 0 1 -713 -523 )">
    <path d="M 10.002381859756097 9.995236280487807  L 10 10.004763719512198  L 10.002381859756097 9.995236280487807  Z M 10.002381859756097 19.90377286585366  C 15.461604420731707 19.90377286585366  19.90377286585366 15.461604420731707  19.90377286585366 10  C 19.90377286585366 4.538395579268293  15.45922256097561 0.09622713414634103  9.999999999999998 0.09622713414634103  C 4.538395579268293 0.09622713414634146  0.09622713414634146 4.538395579268293  0.09622713414634146 10  C 0.09622713414634146 15.461604420731707  4.538395579268293 19.90377286585366  10.002381859756097 19.90377286585366  Z M 18.481802591463413 10  C 18.484184451219512 14.675590701219512  14.677972560975615 18.484184451219512  10 18.484184451219512  C 5.322027439024391 18.484184451219512  1.5158155487804883 14.677972560975615  1.5158155487804883 10  C 1.5158155487804883 5.322027439024391  5.322027439024391 1.5158155487804883  10 1.5158155487804883  C 14.675590701219512 1.5158155487804883  18.481802591463413 5.322027439024391  18.481802591463413 10  Z " fill-rule="nonzero" fill="rgba(230, 230, 230, 1)" stroke="none" transform="matrix(1 0 0 1 713 523 )" class="fill" />
    <path d="M 10.002381859756097 9.995236280487807  L 10 10.004763719512198  L 10.002381859756097 9.995236280487807  Z " stroke-width="0" stroke-dasharray="0" stroke="rgba(255, 255, 255, 0)" fill="none" transform="matrix(1 0 0 1 713 523 )" class="stroke" mask="url(#Clip94)" />
    <path d="M 10.002381859756097 19.90377286585366  C 15.461604420731707 19.90377286585366  19.90377286585366 15.461604420731707  19.90377286585366 10  C 19.90377286585366 4.538395579268293  15.45922256097561 0.09622713414634103  9.999999999999998 0.09622713414634103  C 4.538395579268293 0.09622713414634146  0.09622713414634146 4.538395579268293  0.09622713414634146 10  C 0.09622713414634146 15.461604420731707  4.538395579268293 19.90377286585366  10.002381859756097 19.90377286585366  Z " stroke-width="0" stroke-dasharray="0" stroke="rgba(255, 255, 255, 0)" fill="none" transform="matrix(1 0 0 1 713 523 )" class="stroke" mask="url(#Clip94)" />
    <path d="M 18.481802591463413 10  C 18.484184451219512 14.675590701219512  14.677972560975615 18.484184451219512  10 18.484184451219512  C 5.322027439024391 18.484184451219512  1.5158155487804883 14.677972560975615  1.5158155487804883 10  C 1.5158155487804883 5.322027439024391  5.322027439024391 1.5158155487804883  10 1.5158155487804883  C 14.675590701219512 1.5158155487804883  18.481802591463413 5.322027439024391  18.481802591463413 10  Z " stroke-width="0" stroke-dasharray="0" stroke="rgba(255, 255, 255, 0)" fill="none" transform="matrix(1 0 0 1 713 523 )" class="stroke" mask="url(#Clip94)" />
  </g>
</svg>