<?xml version="1.0" encoding="utf-8"?>
<svg version="1.1" xmlns:xlink="http://www.w3.org/1999/xlink" width="9px" height="9px" xmlns="http://www.w3.org/2000/svg">
  <defs>
    <pattern id="BGPattern" patternUnits="userSpaceOnUse" alignment="0 0" imageRepeat="None" />
    <mask fill="white" id="Clip97">
      <path d="M 8.773995535714286 8.768973214285714  C 9.062779017857142 8.480189732142858  9.065290178571427 8.008091517857144  8.773995535714286 7.716796875  L 5.544642857142858 4.477399553571429  L 8.771484375 1.2882254464285716  C 9.065290178571427 0.9994419642857142  9.065290178571427 0.52734375  8.776506696428571 0.23353794642857145  C 8.487723214285714 -0.06026785714285714  8.013113839285715 -0.06277901785714286  7.721819196428573 0.228515625  L 4.492466517857143 3.4202008928571432  L 1.3108258928571428 0.2310267857142857  C 1.01953125 -0.06026785714285714  0.5474330357142857 -0.06277901785714286  0.25613839285714285 0.228515625  C -0.03515625 0.5198102678571429  -0.03515625 0.9919084821428553  0.25362723214285715 1.283203125  L 3.4302455357142856 4.469866071428569  L 0.228515625 7.636439732142858  C -0.06529017857142858 7.9252232142857135  -0.06780133928571429 8.397321428571429  0.22349330357142855 8.691127232142858  C 0.369140625 8.839285714285714  0.5599888392857143 8.912109375  0.7533482142857142 8.912109375  C 0.9416852678571428 8.912109375  1.1325334821428572 8.839285714285714  1.2781808035714284 8.696149553571425  L 4.484933035714286 5.524553571428569  L 7.716796875 8.768973214285714  C 7.862444196428571 8.914620535714286  8.053292410714286 8.987444196428571  8.246651785714286 8.987444196428571  C 8.4375 8.987444196428571  8.628348214285717 8.914620535714286  8.773995535714286 8.768973214285714  Z " fill-rule="evenodd" />
    </mask>
  </defs>
  <g transform="matrix(1 0 0 1 -719 -529 )">
    <path d="M 8.773995535714286 8.768973214285714  C 9.062779017857142 8.480189732142858  9.065290178571427 8.008091517857144  8.773995535714286 7.716796875  L 5.544642857142858 4.477399553571429  L 8.771484375 1.2882254464285716  C 9.065290178571427 0.9994419642857142  9.065290178571427 0.52734375  8.776506696428571 0.23353794642857145  C 8.487723214285714 -0.06026785714285714  8.013113839285715 -0.06277901785714286  7.721819196428573 0.228515625  L 4.492466517857143 3.4202008928571432  L 1.3108258928571428 0.2310267857142857  C 1.01953125 -0.06026785714285714  0.5474330357142857 -0.06277901785714286  0.25613839285714285 0.228515625  C -0.03515625 0.5198102678571429  -0.03515625 0.9919084821428553  0.25362723214285715 1.283203125  L 3.4302455357142856 4.469866071428569  L 0.228515625 7.636439732142858  C -0.06529017857142858 7.9252232142857135  -0.06780133928571429 8.397321428571429  0.22349330357142855 8.691127232142858  C 0.369140625 8.839285714285714  0.5599888392857143 8.912109375  0.7533482142857142 8.912109375  C 0.9416852678571428 8.912109375  1.1325334821428572 8.839285714285714  1.2781808035714284 8.696149553571425  L 4.484933035714286 5.524553571428569  L 7.716796875 8.768973214285714  C 7.862444196428571 8.914620535714286  8.053292410714286 8.987444196428571  8.246651785714286 8.987444196428571  C 8.4375 8.987444196428571  8.628348214285717 8.914620535714286  8.773995535714286 8.768973214285714  Z " fill-rule="nonzero" fill="rgba(230, 230, 230, 1)" stroke="none" transform="matrix(1 0 0 1 719 529 )" class="fill" />
    <path d="M 8.773995535714286 8.768973214285714  C 9.062779017857142 8.480189732142858  9.065290178571427 8.008091517857144  8.773995535714286 7.716796875  L 5.544642857142858 4.477399553571429  L 8.771484375 1.2882254464285716  C 9.065290178571427 0.9994419642857142  9.065290178571427 0.52734375  8.776506696428571 0.23353794642857145  C 8.487723214285714 -0.06026785714285714  8.013113839285715 -0.06277901785714286  7.721819196428573 0.228515625  L 4.492466517857143 3.4202008928571432  L 1.3108258928571428 0.2310267857142857  C 1.01953125 -0.06026785714285714  0.5474330357142857 -0.06277901785714286  0.25613839285714285 0.228515625  C -0.03515625 0.5198102678571429  -0.03515625 0.9919084821428553  0.25362723214285715 1.283203125  L 3.4302455357142856 4.469866071428569  L 0.228515625 7.636439732142858  C -0.06529017857142858 7.9252232142857135  -0.06780133928571429 8.397321428571429  0.22349330357142855 8.691127232142858  C 0.369140625 8.839285714285714  0.5599888392857143 8.912109375  0.7533482142857142 8.912109375  C 0.9416852678571428 8.912109375  1.1325334821428572 8.839285714285714  1.2781808035714284 8.696149553571425  L 4.484933035714286 5.524553571428569  L 7.716796875 8.768973214285714  C 7.862444196428571 8.914620535714286  8.053292410714286 8.987444196428571  8.246651785714286 8.987444196428571  C 8.4375 8.987444196428571  8.628348214285717 8.914620535714286  8.773995535714286 8.768973214285714  Z " stroke-width="0" stroke-dasharray="0" stroke="rgba(255, 255, 255, 0)" fill="none" transform="matrix(1 0 0 1 719 529 )" class="stroke" mask="url(#Clip97)" />
  </g>
</svg>