<?xml version="1.0" encoding="utf-8"?>
<svg version="1.1" xmlns:xlink="http://www.w3.org/1999/xlink" width="10px" height="13px" xmlns="http://www.w3.org/2000/svg">
  <g transform="matrix(1 0 0 1 -158 -21 )">
    <path d="M 9.67013888888889 5.9287109375  C 9.890046296296298 6.089518229166666  10 6.279947916666666  10 6.5  C 10 6.720052083333332  9.890046296296298 6.910481770833332  9.67013888888889 7.0712890625  L 1.8923611111111112 12.7587890625  C 1.6724537037037037 12.919596354166668  1.4120370370370372 13  1.1111111111111112 13  C 0.8101851851851853 13  0.5497685185185185 12.919596354166668  0.3298611111111111 12.7587890625  C 0.1099537037037037 12.597981770833332  0 12.407552083333332  0 12.1875  L 0 0.8125  C 0 0.5924479166666647  0.1099537037037037 0.40201822916666474  0.3298611111111111 0.2412109375  C 0.5497685185185185 0.08040364583333237  0.8101851851851853 0  1.1111111111111112 0  C 1.4120370370370372 0  1.6724537037037037 0.08040364583333237  1.8923611111111112 0.2412109375  L 9.67013888888889 5.9287109375  Z " fill-rule="nonzero" fill="#000000" stroke="none" transform="matrix(1 0 0 1 158 21 )" />
  </g>
</svg>