<?xml version="1.0" encoding="utf-8"?>
<svg version="1.1" xmlns:xlink="http://www.w3.org/1999/xlink" width="16px" height="16px" xmlns="http://www.w3.org/2000/svg">
  <defs>
    <pattern id="BGPattern" patternUnits="userSpaceOnUse" alignment="0 0" imageRepeat="None" />
    <mask fill="white" id="Clip35">
      <path d="M 7.833981841763943 8.467532467532468  L 0.4669260700389105 15.844155844155845  C 0.335495028102032 15.975757575757576  0.22481625594466068 16.02077922077922  0.1348897535667964 15.97922077922078  C 0.044963251188932137 15.937662337662339  0 15.826839826839826  0 15.646753246753248  L 0 0.3532467532467525  C 0 0.17316017316017174  0.044963251188932137 0.06233766233766147  0.1348897535667964 0.020779220779219898  C 0.22481625594466068 -0.020779220779221674  0.335495028102032 0.02424242424242351  0.4669260700389105 0.15584415584415545  L 7.833981841763943 7.532467532467532  C 7.896238651102465 7.594805194805195  7.941201902291397 7.66060606060606  7.968871595330739 7.729870129870131  L 7.968871595330739 0.3532467532467525  C 7.968871595330739 0.17316017316017174  8.013834846519671 0.06233766233766147  8.103761348897535 0.020779220779219898  C 8.193687851275401 -0.020779220779221674  8.304366623432772 0.02424242424242351  8.43579766536965 0.15584415584415545  L 15.802853437094683 7.532467532467532  C 15.934284479031565 7.664069264069264  16.000000000000004 7.819913419913419  16 8  C 16.000000000000004 8.180086580086579  15.934284479031565 8.335930735930734  15.802853437094683 8.467532467532468  L 8.43579766536965 15.844155844155845  C 8.304366623432772 15.975757575757576  8.193687851275401 16.02077922077922  8.103761348897535 15.97922077922078  C 8.013834846519671 15.937662337662339  7.968871595330739 15.826839826839826  7.968871595330739 15.646753246753248  L 7.968871595330739 8.270129870129871  C 7.941201902291397 8.33939393939394  7.896238651102465 8.405194805194805  7.833981841763943 8.467532467532468  Z " fill-rule="evenodd" />
    </mask>
  </defs>
  <g transform="matrix(1 0 0 1 -176 -20 )">
    <path d="M 7.833981841763943 8.467532467532468  L 0.4669260700389105 15.844155844155845  C 0.335495028102032 15.975757575757576  0.22481625594466068 16.02077922077922  0.1348897535667964 15.97922077922078  C 0.044963251188932137 15.937662337662339  0 15.826839826839826  0 15.646753246753248  L 0 0.3532467532467525  C 0 0.17316017316017174  0.044963251188932137 0.06233766233766147  0.1348897535667964 0.020779220779219898  C 0.22481625594466068 -0.020779220779221674  0.335495028102032 0.02424242424242351  0.4669260700389105 0.15584415584415545  L 7.833981841763943 7.532467532467532  C 7.896238651102465 7.594805194805195  7.941201902291397 7.66060606060606  7.968871595330739 7.729870129870131  L 7.968871595330739 0.3532467532467525  C 7.968871595330739 0.17316017316017174  8.013834846519671 0.06233766233766147  8.103761348897535 0.020779220779219898  C 8.193687851275401 -0.020779220779221674  8.304366623432772 0.02424242424242351  8.43579766536965 0.15584415584415545  L 15.802853437094683 7.532467532467532  C 15.934284479031565 7.664069264069264  16.000000000000004 7.819913419913419  16 8  C 16.000000000000004 8.180086580086579  15.934284479031565 8.335930735930734  15.802853437094683 8.467532467532468  L 8.43579766536965 15.844155844155845  C 8.304366623432772 15.975757575757576  8.193687851275401 16.02077922077922  8.103761348897535 15.97922077922078  C 8.013834846519671 15.937662337662339  7.968871595330739 15.826839826839826  7.968871595330739 15.646753246753248  L 7.968871595330739 8.270129870129871  C 7.941201902291397 8.33939393939394  7.896238651102465 8.405194805194805  7.833981841763943 8.467532467532468  Z " fill-rule="nonzero" fill="rgba(0, 0, 0, 1)" stroke="none" transform="matrix(1 0 0 1 176 20 )" class="fill" />
    <path d="M 7.833981841763943 8.467532467532468  L 0.4669260700389105 15.844155844155845  C 0.335495028102032 15.975757575757576  0.22481625594466068 16.02077922077922  0.1348897535667964 15.97922077922078  C 0.044963251188932137 15.937662337662339  0 15.826839826839826  0 15.646753246753248  L 0 0.3532467532467525  C 0 0.17316017316017174  0.044963251188932137 0.06233766233766147  0.1348897535667964 0.020779220779219898  C 0.22481625594466068 -0.020779220779221674  0.335495028102032 0.02424242424242351  0.4669260700389105 0.15584415584415545  L 7.833981841763943 7.532467532467532  C 7.896238651102465 7.594805194805195  7.941201902291397 7.66060606060606  7.968871595330739 7.729870129870131  L 7.968871595330739 0.3532467532467525  C 7.968871595330739 0.17316017316017174  8.013834846519671 0.06233766233766147  8.103761348897535 0.020779220779219898  C 8.193687851275401 -0.020779220779221674  8.304366623432772 0.02424242424242351  8.43579766536965 0.15584415584415545  L 15.802853437094683 7.532467532467532  C 15.934284479031565 7.664069264069264  16.000000000000004 7.819913419913419  16 8  C 16.000000000000004 8.180086580086579  15.934284479031565 8.335930735930734  15.802853437094683 8.467532467532468  L 8.43579766536965 15.844155844155845  C 8.304366623432772 15.975757575757576  8.193687851275401 16.02077922077922  8.103761348897535 15.97922077922078  C 8.013834846519671 15.937662337662339  7.968871595330739 15.826839826839826  7.968871595330739 15.646753246753248  L 7.968871595330739 8.270129870129871  C 7.941201902291397 8.33939393939394  7.896238651102465 8.405194805194805  7.833981841763943 8.467532467532468  Z " stroke-width="0" stroke-dasharray="0" stroke="rgba(255, 255, 255, 0)" fill="none" transform="matrix(1 0 0 1 176 20 )" class="stroke" mask="url(#Clip35)" />
  </g>
</svg>