<?xml version="1.0" encoding="utf-8"?>
<svg version="1.1" xmlns:xlink="http://www.w3.org/1999/xlink" width="16px" height="16px" xmlns="http://www.w3.org/2000/svg">
  <defs>
    <pattern id="BGPattern" patternUnits="userSpaceOnUse" alignment="0 0" imageRepeat="None" />
    <mask fill="white" id="Clip60">
      <path d="M 8.166018158236056 7.532467532467532  L 15.53307392996109 0.15584415584415545  C 15.664504971897971 0.02424242424242351  15.77518374405534 -0.020779220779221674  15.865110246433204 0.020779220779219898  C 15.955036748811068 0.06233766233766147  16 0.17316017316017174  16 0.3532467532467525  L 16 15.646753246753248  C 16 15.826839826839826  15.955036748811068 15.937662337662339  15.865110246433204 15.97922077922078  C 15.77518374405534 16.02077922077922  15.664504971897971 15.975757575757576  15.53307392996109 15.844155844155845  L 8.166018158236056 8.467532467532468  C 8.103761348897537 8.405194805194805  8.058798097708605 8.33939393939394  8.03112840466926 8.270129870129871  L 8.03112840466926 15.646753246753248  C 8.03112840466926 15.826839826839826  7.9861651534803295 15.937662337662339  7.896238651102465 15.97922077922078  C 7.806312148724602 16.02077922077922  7.69563337656723 15.975757575757576  7.56420233463035 15.844155844155845  L 0.19714656290531776 8.467532467532468  C 0.06571552096843936 8.335930735930734  0 8.180086580086579  0 8  C 0 7.819913419913419  0.06571552096843936 7.664069264069264  0.19714656290531776 7.532467532467532  L 7.56420233463035 0.15584415584415545  C 7.69563337656723 0.02424242424242351  7.806312148724602 -0.020779220779221674  7.896238651102465 0.020779220779219898  C 7.9861651534803295 0.06233766233766147  8.03112840466926 0.17316017316017174  8.03112840466926 0.3532467532467525  L 8.03112840466926 7.729870129870131  C 8.058798097708605 7.66060606060606  8.103761348897537 7.594805194805195  8.166018158236056 7.532467532467532  Z " fill-rule="evenodd" />
    </mask>
  </defs>
  <g transform="matrix(1 0 0 1 -13 -20 )">
    <path d="M 8.166018158236056 7.532467532467532  L 15.53307392996109 0.15584415584415545  C 15.664504971897971 0.02424242424242351  15.77518374405534 -0.020779220779221674  15.865110246433204 0.020779220779219898  C 15.955036748811068 0.06233766233766147  16 0.17316017316017174  16 0.3532467532467525  L 16 15.646753246753248  C 16 15.826839826839826  15.955036748811068 15.937662337662339  15.865110246433204 15.97922077922078  C 15.77518374405534 16.02077922077922  15.664504971897971 15.975757575757576  15.53307392996109 15.844155844155845  L 8.166018158236056 8.467532467532468  C 8.103761348897537 8.405194805194805  8.058798097708605 8.33939393939394  8.03112840466926 8.270129870129871  L 8.03112840466926 15.646753246753248  C 8.03112840466926 15.826839826839826  7.9861651534803295 15.937662337662339  7.896238651102465 15.97922077922078  C 7.806312148724602 16.02077922077922  7.69563337656723 15.975757575757576  7.56420233463035 15.844155844155845  L 0.19714656290531776 8.467532467532468  C 0.06571552096843936 8.335930735930734  0 8.180086580086579  0 8  C 0 7.819913419913419  0.06571552096843936 7.664069264069264  0.19714656290531776 7.532467532467532  L 7.56420233463035 0.15584415584415545  C 7.69563337656723 0.02424242424242351  7.806312148724602 -0.020779220779221674  7.896238651102465 0.020779220779219898  C 7.9861651534803295 0.06233766233766147  8.03112840466926 0.17316017316017174  8.03112840466926 0.3532467532467525  L 8.03112840466926 7.729870129870131  C 8.058798097708605 7.66060606060606  8.103761348897537 7.594805194805195  8.166018158236056 7.532467532467532  Z " fill-rule="nonzero" fill="rgba(0, 0, 0, 1)" stroke="none" transform="matrix(1 0 0 1 13 20 )" class="fill" />
    <path d="M 8.166018158236056 7.532467532467532  L 15.53307392996109 0.15584415584415545  C 15.664504971897971 0.02424242424242351  15.77518374405534 -0.020779220779221674  15.865110246433204 0.020779220779219898  C 15.955036748811068 0.06233766233766147  16 0.17316017316017174  16 0.3532467532467525  L 16 15.646753246753248  C 16 15.826839826839826  15.955036748811068 15.937662337662339  15.865110246433204 15.97922077922078  C 15.77518374405534 16.02077922077922  15.664504971897971 15.975757575757576  15.53307392996109 15.844155844155845  L 8.166018158236056 8.467532467532468  C 8.103761348897537 8.405194805194805  8.058798097708605 8.33939393939394  8.03112840466926 8.270129870129871  L 8.03112840466926 15.646753246753248  C 8.03112840466926 15.826839826839826  7.9861651534803295 15.937662337662339  7.896238651102465 15.97922077922078  C 7.806312148724602 16.02077922077922  7.69563337656723 15.975757575757576  7.56420233463035 15.844155844155845  L 0.19714656290531776 8.467532467532468  C 0.06571552096843936 8.335930735930734  0 8.180086580086579  0 8  C 0 7.819913419913419  0.06571552096843936 7.664069264069264  0.19714656290531776 7.532467532467532  L 7.56420233463035 0.15584415584415545  C 7.69563337656723 0.02424242424242351  7.806312148724602 -0.020779220779221674  7.896238651102465 0.020779220779219898  C 7.9861651534803295 0.06233766233766147  8.03112840466926 0.17316017316017174  8.03112840466926 0.3532467532467525  L 8.03112840466926 7.729870129870131  C 8.058798097708605 7.66060606060606  8.103761348897537 7.594805194805195  8.166018158236056 7.532467532467532  Z " stroke-width="0" stroke-dasharray="0" stroke="rgba(255, 255, 255, 0)" fill="none" transform="matrix(1 0 0 1 13 20 )" class="stroke" mask="url(#Clip60)" />
  </g>
</svg>