<?xml version="1.0" encoding="utf-8"?>
<svg version="1.1" xmlns:xlink="http://www.w3.org/1999/xlink" width="14px" height="15px" xmlns="http://www.w3.org/2000/svg">
  <defs>
    <pattern id="BGPattern" patternUnits="userSpaceOnUse" alignment="0 0" imageRepeat="None" />
    <mask fill="white" id="Clip65">
      <path d="M 14 7.557755772354578  C 14 11.683168307162747  10.888888882812502 14.983498346612004  7 14.983498346612008  C 3.111111117187501 14.983498346612008  0 11.683168307162747  0 7.557755772354581  C 0 3.4323432375464122  3.111111117187501 0.13201319809715403  7 0.13201319809715403  C 10.888888882812502 0.13201319809715403  14 3.4323432375464105  14 7.557755772354578  Z M 1.5555555585937495 7.557755772354581  C 1.5555555585937495 10.693069306930692  4.044444441406249 13.333333326887377  7 13.333333326887377  C 9.955555558593751 13.333333326887377  12.444444441406247 10.693069306930692  12.444444441406247 7.557755772354581  C 12.444444441406247 4.422442237778473  9.955555558593751 1.782178217821782  7 1.782178217821782  C 4.044444441406249 1.782178217821782  1.5555555585937495 4.4224422377784665  1.5555555585937495 7.557755772354581  Z " fill-rule="evenodd" />
    </mask>
  </defs>
  <g transform="matrix(1 0 0 1 -24 -212 )">
    <path d="M 14 7.557755772354578  C 14 11.683168307162747  10.888888882812502 14.983498346612004  7 14.983498346612008  C 3.111111117187501 14.983498346612008  0 11.683168307162747  0 7.557755772354581  C 0 3.4323432375464122  3.111111117187501 0.13201319809715403  7 0.13201319809715403  C 10.888888882812502 0.13201319809715403  14 3.4323432375464105  14 7.557755772354578  Z M 1.5555555585937495 7.557755772354581  C 1.5555555585937495 10.693069306930692  4.044444441406249 13.333333326887377  7 13.333333326887377  C 9.955555558593751 13.333333326887377  12.444444441406247 10.693069306930692  12.444444441406247 7.557755772354581  C 12.444444441406247 4.422442237778473  9.955555558593751 1.782178217821782  7 1.782178217821782  C 4.044444441406249 1.782178217821782  1.5555555585937495 4.4224422377784665  1.5555555585937495 7.557755772354581  Z " fill-rule="nonzero" fill="rgba(34, 34, 34, 1)" stroke="none" transform="matrix(1 0 0 1 24 212 )" class="fill" />
    <path d="M 14 7.557755772354578  C 14 11.683168307162747  10.888888882812502 14.983498346612004  7 14.983498346612008  C 3.111111117187501 14.983498346612008  0 11.683168307162747  0 7.557755772354581  C 0 3.4323432375464122  3.111111117187501 0.13201319809715403  7 0.13201319809715403  C 10.888888882812502 0.13201319809715403  14 3.4323432375464105  14 7.557755772354578  Z " stroke-width="0" stroke-dasharray="0" stroke="rgba(255, 255, 255, 0)" fill="none" transform="matrix(1 0 0 1 24 212 )" class="stroke" mask="url(#Clip65)" />
    <path d="M 1.5555555585937495 7.557755772354581  C 1.5555555585937495 10.693069306930692  4.044444441406249 13.333333326887377  7 13.333333326887377  C 9.955555558593751 13.333333326887377  12.444444441406247 10.693069306930692  12.444444441406247 7.557755772354581  C 12.444444441406247 4.422442237778473  9.955555558593751 1.782178217821782  7 1.782178217821782  C 4.044444441406249 1.782178217821782  1.5555555585937495 4.4224422377784665  1.5555555585937495 7.557755772354581  Z " stroke-width="0" stroke-dasharray="0" stroke="rgba(255, 255, 255, 0)" fill="none" transform="matrix(1 0 0 1 24 212 )" class="stroke" mask="url(#Clip65)" />
  </g>
</svg>