<?xml version="1.0" encoding="utf-8"?>
<svg version="1.1" xmlns:xlink="http://www.w3.org/1999/xlink" width="24px" height="22px" xmlns="http://www.w3.org/2000/svg">
  <defs>
    <pattern id="BGPattern" patternUnits="userSpaceOnUse" alignment="0 0" imageRepeat="None" />
    <mask fill="white" id="Clip63">
      <path d="M 0 21.949425277478447  L 0 1.7195402397629305  L 2 1.7195402397629305  L 2 21.949425277478447  L 0 21.949425277478447  Z M 22.37125747567365 6.777011484375  L 22.37125747567365 1.7195402397629305  L 23.968063866017964 1.7195402397629305  L 23.968063866017964 6.777011484375  L 22.37125747567365 6.777011484375  Z M 19.177644723053895 18.577777790948275  L 19.177644723053895 16.89195403286638  L 23.968063866017964 16.89195403286638  L 23.968063866017964 18.577777790948275  L 19.177644723053895 18.577777790948275  Z M 0.01596806699101794 2  L 0.01596806699101794 0  L 23.968063866017964 0  L 23.968063866017964 2  L 0.01596806699101794 2  Z " fill-rule="evenodd" />
    </mask>
  </defs>
  <g transform="matrix(1 0 0 1 -10 -202 )">
    <path d="M 0 21.949425277478447  L 0 1.7195402397629305  L 2 1.7195402397629305  L 2 21.949425277478447  L 0 21.949425277478447  Z M 22.37125747567365 6.777011484375  L 22.37125747567365 1.7195402397629305  L 23.968063866017964 1.7195402397629305  L 23.968063866017964 6.777011484375  L 22.37125747567365 6.777011484375  Z M 19.177644723053895 18.577777790948275  L 19.177644723053895 16.89195403286638  L 23.968063866017964 16.89195403286638  L 23.968063866017964 18.577777790948275  L 19.177644723053895 18.577777790948275  Z M 0.01596806699101794 2  L 0.01596806699101794 0  L 23.968063866017964 0  L 23.968063866017964 2  L 0.01596806699101794 2  Z " fill-rule="nonzero" fill="rgba(34, 34, 34, 1)" stroke="none" transform="matrix(1 0 0 1 10 202 )" class="fill" />
    <path d="M 0 21.949425277478447  L 0 1.7195402397629305  L 2 1.7195402397629305  L 2 21.949425277478447  L 0 21.949425277478447  Z " stroke-width="0" stroke-dasharray="0" stroke="rgba(255, 255, 255, 0)" fill="none" transform="matrix(1 0 0 1 10 202 )" class="stroke" mask="url(#Clip63)" />
    <path d="M 22.37125747567365 6.777011484375  L 22.37125747567365 1.7195402397629305  L 23.968063866017964 1.7195402397629305  L 23.968063866017964 6.777011484375  L 22.37125747567365 6.777011484375  Z " stroke-width="0" stroke-dasharray="0" stroke="rgba(255, 255, 255, 0)" fill="none" transform="matrix(1 0 0 1 10 202 )" class="stroke" mask="url(#Clip63)" />
    <path d="M 19.177644723053895 18.577777790948275  L 19.177644723053895 16.89195403286638  L 23.968063866017964 16.89195403286638  L 23.968063866017964 18.577777790948275  L 19.177644723053895 18.577777790948275  Z " stroke-width="0" stroke-dasharray="0" stroke="rgba(255, 255, 255, 0)" fill="none" transform="matrix(1 0 0 1 10 202 )" class="stroke" mask="url(#Clip63)" />
    <path d="M 0.01596806699101794 2  L 0.01596806699101794 0  L 23.968063866017964 0  L 23.968063866017964 2  L 0.01596806699101794 2  Z " stroke-width="0" stroke-dasharray="0" stroke="rgba(255, 255, 255, 0)" fill="none" transform="matrix(1 0 0 1 10 202 )" class="stroke" mask="url(#Clip63)" />
  </g>
</svg>