<?xml version="1.0" encoding="utf-8"?>
<svg version="1.1" xmlns:xlink="http://www.w3.org/1999/xlink" width="18px" height="16px" xmlns="http://www.w3.org/2000/svg">
  <defs>
    <pattern id="BGPattern" patternUnits="userSpaceOnUse" alignment="0 0" imageRepeat="None" />
    <mask fill="white" id="Clip37">
      <path d="M 1.3846153846153846 12.285714285714285  L 1.3846153846153846 14.857142857142858  L 4.5 14.857142857142858  L 4.5 12.285714285714285  L 1.3846153846153846 12.285714285714285  Z M 5.192307692307692 12.285714285714285  L 5.192307692307692 14.857142857142858  L 8.653846153846153 14.857142857142858  L 8.653846153846153 12.285714285714285  L 5.192307692307692 12.285714285714285  Z M 1.3846153846153846 8.857142857142858  L 1.3846153846153846 11.714285714285715  L 4.5 11.714285714285715  L 4.5 8.857142857142858  L 1.3846153846153846 8.857142857142858  Z M 5.192307692307692 8.857142857142858  L 5.192307692307692 11.714285714285715  L 8.653846153846153 11.714285714285715  L 8.653846153846153 8.857142857142858  L 5.192307692307692 8.857142857142858  Z M 1.3846153846153846 5.7142857142857135  L 1.3846153846153846 8.285714285714285  L 4.5 8.285714285714285  L 4.5 5.7142857142857135  L 1.3846153846153846 5.7142857142857135  Z M 9.346153846153847 12.285714285714285  L 9.346153846153847 14.857142857142858  L 12.807692307692308 14.857142857142858  L 12.807692307692308 12.285714285714285  L 9.346153846153847 12.285714285714285  Z M 5.192307692307692 5.7142857142857135  L 5.192307692307692 8.285714285714285  L 8.653846153846153 8.285714285714285  L 8.653846153846153 5.7142857142857135  L 5.192307692307692 5.7142857142857135  Z M 13.5 12.285714285714285  L 13.5 14.857142857142858  L 16.615384615384617 14.857142857142858  L 16.615384615384617 12.285714285714285  L 13.5 12.285714285714285  Z M 9.346153846153847 8.857142857142858  L 9.346153846153847 11.714285714285715  L 12.807692307692308 11.714285714285715  L 12.807692307692308 8.857142857142858  L 9.346153846153847 8.857142857142858  Z M 5.435697115384615 4.200892857142858  C 5.504206730769231 4.144345238095237  5.538461538461538 4.077380952380951  5.538461538461538 4  L 5.538461538461538 1.4285714285714288  C 5.538461538461538 1.3511904761904763  5.504206730769231 1.2842261904761898  5.435697115384615 1.2276785714285712  C 5.367187500000001 1.1711309523809508  5.2860576923076925 1.1428571428571423  5.192307692307692 1.1428571428571423  L 4.5 1.1428571428571423  C 4.40625 1.1428571428571423  4.3251201923076925 1.1711309523809508  4.256610576923077 1.2276785714285712  C 4.188100961538461 1.2842261904761898  4.153846153846154 1.3511904761904763  4.153846153846154 1.4285714285714288  L 4.153846153846154 4  C 4.153846153846154 4.077380952380951  4.188100961538461 4.144345238095237  4.256610576923077 4.200892857142858  C 4.3251201923076925 4.257440476190476  4.40625 4.2857142857142865  4.5 4.2857142857142865  L 5.192307692307692 4.2857142857142865  C 5.2860576923076925 4.2857142857142865  5.367187500000001 4.257440476190476  5.435697115384615 4.200892857142858  Z M 13.5 8.857142857142858  L 13.5 11.714285714285715  L 16.615384615384617 11.714285714285715  L 16.615384615384617 8.857142857142858  L 13.5 8.857142857142858  Z M 9.346153846153847 5.7142857142857135  L 9.346153846153847 8.285714285714285  L 12.807692307692308 8.285714285714285  L 12.807692307692308 5.7142857142857135  L 9.346153846153847 5.7142857142857135  Z M 13.5 5.7142857142857135  L 13.5 8.285714285714285  L 16.615384615384617 8.285714285714285  L 16.615384615384617 5.7142857142857135  L 13.5 5.7142857142857135  Z M 13.743389423076923 4.200892857142858  C 13.81189903846154 4.144345238095237  13.846153846153847 4.077380952380951  13.846153846153847 4  L 13.846153846153847 1.4285714285714288  C 13.846153846153847 1.3511904761904763  13.81189903846154 1.2842261904761898  13.743389423076923 1.2276785714285712  C 13.674879807692308 1.1711309523809508  13.59375 1.1428571428571423  13.5 1.1428571428571423  L 12.807692307692308 1.1428571428571423  C 12.71394230769231 1.1428571428571423  12.632812500000002 1.1711309523809508  12.564302884615383 1.2276785714285712  C 12.49579326923077 1.2842261904761898  12.461538461538462 1.3511904761904763  12.461538461538462 1.4285714285714288  L 12.461538461538462 4  C 12.461538461538462 4.077380952380951  12.49579326923077 4.144345238095237  12.564302884615383 4.200892857142858  C 12.632812500000002 4.257440476190476  12.71394230769231 4.2857142857142865  12.807692307692308 4.2857142857142865  L 13.5 4.2857142857142865  C 13.59375 4.2857142857142865  13.674879807692308 4.257440476190476  13.743389423076923 4.200892857142858  Z M 17.588942307692307 2.625  C 17.86298076923077 2.8511904761904763  18 3.1190476190476186  18 3.428571428571429  L 18 14.857142857142858  C 18 15.166666666666668  17.86298076923077 15.43452380952381  17.588942307692307 15.660714285714286  C 17.314903846153847 15.886904761904761  16.990384615384617 16  16.615384615384617 16  L 1.3846153846153846 16  C 1.0096153846153848 16  0.685096153846154 15.886904761904761  0.4110576923076923 15.660714285714286  C 0.13701923076923075 15.43452380952381  0 15.166666666666668  0 14.857142857142858  L 0 3.428571428571429  C 0 3.1190476190476186  0.13701923076923075 2.8511904761904763  0.4110576923076923 2.625  C 0.685096153846154 2.398809523809522  1.0096153846153848 2.2857142857142865  1.3846153846153846 2.2857142857142865  L 2.769230769230769 2.2857142857142865  L 2.769230769230769 1.4285714285714288  C 2.769230769230769 1.0357142857142865  2.9387019230769234 0.699404761904761  3.277644230769231 0.41964285714285765  C 3.616586538461539 0.13988095238095255  4.024038461538462 0  4.5 0  L 5.192307692307692 0  C 5.668269230769231 0  6.075721153846155 0.13988095238095255  6.414663461538462 0.41964285714285765  C 6.75360576923077 0.699404761904761  6.923076923076923 1.0357142857142865  6.923076923076923 1.4285714285714288  L 6.923076923076923 2.2857142857142865  L 11.076923076923077 2.2857142857142865  L 11.076923076923077 1.4285714285714288  C 11.076923076923077 1.0357142857142865  11.246394230769232 0.699404761904761  11.585336538461538 0.41964285714285765  C 11.924278846153848 0.13988095238095255  12.33173076923077 0  12.807692307692308 0  L 13.5 0  C 13.975961538461538 0  14.383413461538462 0.13988095238095255  14.72235576923077 0.41964285714285765  C 15.061298076923078 0.699404761904761  15.23076923076923 1.0357142857142865  15.23076923076923 1.4285714285714288  L 15.23076923076923 2.2857142857142865  L 16.615384615384617 2.2857142857142865  C 16.990384615384617 2.2857142857142865  17.314903846153847 2.398809523809522  17.588942307692307 2.625  Z " fill-rule="evenodd" />
    </mask>
  </defs>
  <g transform="matrix(1 0 0 1 -265 -138 )">
    <path d="M 1.3846153846153846 12.285714285714285  L 1.3846153846153846 14.857142857142858  L 4.5 14.857142857142858  L 4.5 12.285714285714285  L 1.3846153846153846 12.285714285714285  Z M 5.192307692307692 12.285714285714285  L 5.192307692307692 14.857142857142858  L 8.653846153846153 14.857142857142858  L 8.653846153846153 12.285714285714285  L 5.192307692307692 12.285714285714285  Z M 1.3846153846153846 8.857142857142858  L 1.3846153846153846 11.714285714285715  L 4.5 11.714285714285715  L 4.5 8.857142857142858  L 1.3846153846153846 8.857142857142858  Z M 5.192307692307692 8.857142857142858  L 5.192307692307692 11.714285714285715  L 8.653846153846153 11.714285714285715  L 8.653846153846153 8.857142857142858  L 5.192307692307692 8.857142857142858  Z M 1.3846153846153846 5.7142857142857135  L 1.3846153846153846 8.285714285714285  L 4.5 8.285714285714285  L 4.5 5.7142857142857135  L 1.3846153846153846 5.7142857142857135  Z M 9.346153846153847 12.285714285714285  L 9.346153846153847 14.857142857142858  L 12.807692307692308 14.857142857142858  L 12.807692307692308 12.285714285714285  L 9.346153846153847 12.285714285714285  Z M 5.192307692307692 5.7142857142857135  L 5.192307692307692 8.285714285714285  L 8.653846153846153 8.285714285714285  L 8.653846153846153 5.7142857142857135  L 5.192307692307692 5.7142857142857135  Z M 13.5 12.285714285714285  L 13.5 14.857142857142858  L 16.615384615384617 14.857142857142858  L 16.615384615384617 12.285714285714285  L 13.5 12.285714285714285  Z M 9.346153846153847 8.857142857142858  L 9.346153846153847 11.714285714285715  L 12.807692307692308 11.714285714285715  L 12.807692307692308 8.857142857142858  L 9.346153846153847 8.857142857142858  Z M 5.435697115384615 4.200892857142858  C 5.504206730769231 4.144345238095237  5.538461538461538 4.077380952380951  5.538461538461538 4  L 5.538461538461538 1.4285714285714288  C 5.538461538461538 1.3511904761904763  5.504206730769231 1.2842261904761898  5.435697115384615 1.2276785714285712  C 5.367187500000001 1.1711309523809508  5.2860576923076925 1.1428571428571423  5.192307692307692 1.1428571428571423  L 4.5 1.1428571428571423  C 4.40625 1.1428571428571423  4.3251201923076925 1.1711309523809508  4.256610576923077 1.2276785714285712  C 4.188100961538461 1.2842261904761898  4.153846153846154 1.3511904761904763  4.153846153846154 1.4285714285714288  L 4.153846153846154 4  C 4.153846153846154 4.077380952380951  4.188100961538461 4.144345238095237  4.256610576923077 4.200892857142858  C 4.3251201923076925 4.257440476190476  4.40625 4.2857142857142865  4.5 4.2857142857142865  L 5.192307692307692 4.2857142857142865  C 5.2860576923076925 4.2857142857142865  5.367187500000001 4.257440476190476  5.435697115384615 4.200892857142858  Z M 13.5 8.857142857142858  L 13.5 11.714285714285715  L 16.615384615384617 11.714285714285715  L 16.615384615384617 8.857142857142858  L 13.5 8.857142857142858  Z M 9.346153846153847 5.7142857142857135  L 9.346153846153847 8.285714285714285  L 12.807692307692308 8.285714285714285  L 12.807692307692308 5.7142857142857135  L 9.346153846153847 5.7142857142857135  Z M 13.5 5.7142857142857135  L 13.5 8.285714285714285  L 16.615384615384617 8.285714285714285  L 16.615384615384617 5.7142857142857135  L 13.5 5.7142857142857135  Z M 13.743389423076923 4.200892857142858  C 13.81189903846154 4.144345238095237  13.846153846153847 4.077380952380951  13.846153846153847 4  L 13.846153846153847 1.4285714285714288  C 13.846153846153847 1.3511904761904763  13.81189903846154 1.2842261904761898  13.743389423076923 1.2276785714285712  C 13.674879807692308 1.1711309523809508  13.59375 1.1428571428571423  13.5 1.1428571428571423  L 12.807692307692308 1.1428571428571423  C 12.71394230769231 1.1428571428571423  12.632812500000002 1.1711309523809508  12.564302884615383 1.2276785714285712  C 12.49579326923077 1.2842261904761898  12.461538461538462 1.3511904761904763  12.461538461538462 1.4285714285714288  L 12.461538461538462 4  C 12.461538461538462 4.077380952380951  12.49579326923077 4.144345238095237  12.564302884615383 4.200892857142858  C 12.632812500000002 4.257440476190476  12.71394230769231 4.2857142857142865  12.807692307692308 4.2857142857142865  L 13.5 4.2857142857142865  C 13.59375 4.2857142857142865  13.674879807692308 4.257440476190476  13.743389423076923 4.200892857142858  Z M 17.588942307692307 2.625  C 17.86298076923077 2.8511904761904763  18 3.1190476190476186  18 3.428571428571429  L 18 14.857142857142858  C 18 15.166666666666668  17.86298076923077 15.43452380952381  17.588942307692307 15.660714285714286  C 17.314903846153847 15.886904761904761  16.990384615384617 16  16.615384615384617 16  L 1.3846153846153846 16  C 1.0096153846153848 16  0.685096153846154 15.886904761904761  0.4110576923076923 15.660714285714286  C 0.13701923076923075 15.43452380952381  0 15.166666666666668  0 14.857142857142858  L 0 3.428571428571429  C 0 3.1190476190476186  0.13701923076923075 2.8511904761904763  0.4110576923076923 2.625  C 0.685096153846154 2.398809523809522  1.0096153846153848 2.2857142857142865  1.3846153846153846 2.2857142857142865  L 2.769230769230769 2.2857142857142865  L 2.769230769230769 1.4285714285714288  C 2.769230769230769 1.0357142857142865  2.9387019230769234 0.699404761904761  3.277644230769231 0.41964285714285765  C 3.616586538461539 0.13988095238095255  4.024038461538462 0  4.5 0  L 5.192307692307692 0  C 5.668269230769231 0  6.075721153846155 0.13988095238095255  6.414663461538462 0.41964285714285765  C 6.75360576923077 0.699404761904761  6.923076923076923 1.0357142857142865  6.923076923076923 1.4285714285714288  L 6.923076923076923 2.2857142857142865  L 11.076923076923077 2.2857142857142865  L 11.076923076923077 1.4285714285714288  C 11.076923076923077 1.0357142857142865  11.246394230769232 0.699404761904761  11.585336538461538 0.41964285714285765  C 11.924278846153848 0.13988095238095255  12.33173076923077 0  12.807692307692308 0  L 13.5 0  C 13.975961538461538 0  14.383413461538462 0.13988095238095255  14.72235576923077 0.41964285714285765  C 15.061298076923078 0.699404761904761  15.23076923076923 1.0357142857142865  15.23076923076923 1.4285714285714288  L 15.23076923076923 2.2857142857142865  L 16.615384615384617 2.2857142857142865  C 16.990384615384617 2.2857142857142865  17.314903846153847 2.398809523809522  17.588942307692307 2.625  Z " fill-rule="nonzero" fill="rgba(127, 127, 127, 1)" stroke="none" transform="matrix(1 0 0 1 265 138 )" class="fill" />
    <path d="M 1.3846153846153846 12.285714285714285  L 1.3846153846153846 14.857142857142858  L 4.5 14.857142857142858  L 4.5 12.285714285714285  L 1.3846153846153846 12.285714285714285  Z " stroke-width="0" stroke-dasharray="0" stroke="rgba(255, 255, 255, 0)" fill="none" transform="matrix(1 0 0 1 265 138 )" class="stroke" mask="url(#Clip37)" />
    <path d="M 5.192307692307692 12.285714285714285  L 5.192307692307692 14.857142857142858  L 8.653846153846153 14.857142857142858  L 8.653846153846153 12.285714285714285  L 5.192307692307692 12.285714285714285  Z " stroke-width="0" stroke-dasharray="0" stroke="rgba(255, 255, 255, 0)" fill="none" transform="matrix(1 0 0 1 265 138 )" class="stroke" mask="url(#Clip37)" />
    <path d="M 1.3846153846153846 8.857142857142858  L 1.3846153846153846 11.714285714285715  L 4.5 11.714285714285715  L 4.5 8.857142857142858  L 1.3846153846153846 8.857142857142858  Z " stroke-width="0" stroke-dasharray="0" stroke="rgba(255, 255, 255, 0)" fill="none" transform="matrix(1 0 0 1 265 138 )" class="stroke" mask="url(#Clip37)" />
    <path d="M 5.192307692307692 8.857142857142858  L 5.192307692307692 11.714285714285715  L 8.653846153846153 11.714285714285715  L 8.653846153846153 8.857142857142858  L 5.192307692307692 8.857142857142858  Z " stroke-width="0" stroke-dasharray="0" stroke="rgba(255, 255, 255, 0)" fill="none" transform="matrix(1 0 0 1 265 138 )" class="stroke" mask="url(#Clip37)" />
    <path d="M 1.3846153846153846 5.7142857142857135  L 1.3846153846153846 8.285714285714285  L 4.5 8.285714285714285  L 4.5 5.7142857142857135  L 1.3846153846153846 5.7142857142857135  Z " stroke-width="0" stroke-dasharray="0" stroke="rgba(255, 255, 255, 0)" fill="none" transform="matrix(1 0 0 1 265 138 )" class="stroke" mask="url(#Clip37)" />
    <path d="M 9.346153846153847 12.285714285714285  L 9.346153846153847 14.857142857142858  L 12.807692307692308 14.857142857142858  L 12.807692307692308 12.285714285714285  L 9.346153846153847 12.285714285714285  Z " stroke-width="0" stroke-dasharray="0" stroke="rgba(255, 255, 255, 0)" fill="none" transform="matrix(1 0 0 1 265 138 )" class="stroke" mask="url(#Clip37)" />
    <path d="M 5.192307692307692 5.7142857142857135  L 5.192307692307692 8.285714285714285  L 8.653846153846153 8.285714285714285  L 8.653846153846153 5.7142857142857135  L 5.192307692307692 5.7142857142857135  Z " stroke-width="0" stroke-dasharray="0" stroke="rgba(255, 255, 255, 0)" fill="none" transform="matrix(1 0 0 1 265 138 )" class="stroke" mask="url(#Clip37)" />
    <path d="M 13.5 12.285714285714285  L 13.5 14.857142857142858  L 16.615384615384617 14.857142857142858  L 16.615384615384617 12.285714285714285  L 13.5 12.285714285714285  Z " stroke-width="0" stroke-dasharray="0" stroke="rgba(255, 255, 255, 0)" fill="none" transform="matrix(1 0 0 1 265 138 )" class="stroke" mask="url(#Clip37)" />
    <path d="M 9.346153846153847 8.857142857142858  L 9.346153846153847 11.714285714285715  L 12.807692307692308 11.714285714285715  L 12.807692307692308 8.857142857142858  L 9.346153846153847 8.857142857142858  Z " stroke-width="0" stroke-dasharray="0" stroke="rgba(255, 255, 255, 0)" fill="none" transform="matrix(1 0 0 1 265 138 )" class="stroke" mask="url(#Clip37)" />
    <path d="M 5.435697115384615 4.200892857142858  C 5.504206730769231 4.144345238095237  5.538461538461538 4.077380952380951  5.538461538461538 4  L 5.538461538461538 1.4285714285714288  C 5.538461538461538 1.3511904761904763  5.504206730769231 1.2842261904761898  5.435697115384615 1.2276785714285712  C 5.367187500000001 1.1711309523809508  5.2860576923076925 1.1428571428571423  5.192307692307692 1.1428571428571423  L 4.5 1.1428571428571423  C 4.40625 1.1428571428571423  4.3251201923076925 1.1711309523809508  4.256610576923077 1.2276785714285712  C 4.188100961538461 1.2842261904761898  4.153846153846154 1.3511904761904763  4.153846153846154 1.4285714285714288  L 4.153846153846154 4  C 4.153846153846154 4.077380952380951  4.188100961538461 4.144345238095237  4.256610576923077 4.200892857142858  C 4.3251201923076925 4.257440476190476  4.40625 4.2857142857142865  4.5 4.2857142857142865  L 5.192307692307692 4.2857142857142865  C 5.2860576923076925 4.2857142857142865  5.367187500000001 4.257440476190476  5.435697115384615 4.200892857142858  Z " stroke-width="0" stroke-dasharray="0" stroke="rgba(255, 255, 255, 0)" fill="none" transform="matrix(1 0 0 1 265 138 )" class="stroke" mask="url(#Clip37)" />
    <path d="M 13.5 8.857142857142858  L 13.5 11.714285714285715  L 16.615384615384617 11.714285714285715  L 16.615384615384617 8.857142857142858  L 13.5 8.857142857142858  Z " stroke-width="0" stroke-dasharray="0" stroke="rgba(255, 255, 255, 0)" fill="none" transform="matrix(1 0 0 1 265 138 )" class="stroke" mask="url(#Clip37)" />
    <path d="M 9.346153846153847 5.7142857142857135  L 9.346153846153847 8.285714285714285  L 12.807692307692308 8.285714285714285  L 12.807692307692308 5.7142857142857135  L 9.346153846153847 5.7142857142857135  Z " stroke-width="0" stroke-dasharray="0" stroke="rgba(255, 255, 255, 0)" fill="none" transform="matrix(1 0 0 1 265 138 )" class="stroke" mask="url(#Clip37)" />
    <path d="M 13.5 5.7142857142857135  L 13.5 8.285714285714285  L 16.615384615384617 8.285714285714285  L 16.615384615384617 5.7142857142857135  L 13.5 5.7142857142857135  Z " stroke-width="0" stroke-dasharray="0" stroke="rgba(255, 255, 255, 0)" fill="none" transform="matrix(1 0 0 1 265 138 )" class="stroke" mask="url(#Clip37)" />
    <path d="M 13.743389423076923 4.200892857142858  C 13.81189903846154 4.144345238095237  13.846153846153847 4.077380952380951  13.846153846153847 4  L 13.846153846153847 1.4285714285714288  C 13.846153846153847 1.3511904761904763  13.81189903846154 1.2842261904761898  13.743389423076923 1.2276785714285712  C 13.674879807692308 1.1711309523809508  13.59375 1.1428571428571423  13.5 1.1428571428571423  L 12.807692307692308 1.1428571428571423  C 12.71394230769231 1.1428571428571423  12.632812500000002 1.1711309523809508  12.564302884615383 1.2276785714285712  C 12.49579326923077 1.2842261904761898  12.461538461538462 1.3511904761904763  12.461538461538462 1.4285714285714288  L 12.461538461538462 4  C 12.461538461538462 4.077380952380951  12.49579326923077 4.144345238095237  12.564302884615383 4.200892857142858  C 12.632812500000002 4.257440476190476  12.71394230769231 4.2857142857142865  12.807692307692308 4.2857142857142865  L 13.5 4.2857142857142865  C 13.59375 4.2857142857142865  13.674879807692308 4.257440476190476  13.743389423076923 4.200892857142858  Z " stroke-width="0" stroke-dasharray="0" stroke="rgba(255, 255, 255, 0)" fill="none" transform="matrix(1 0 0 1 265 138 )" class="stroke" mask="url(#Clip37)" />
    <path d="M 17.588942307692307 2.625  C 17.86298076923077 2.8511904761904763  18 3.1190476190476186  18 3.428571428571429  L 18 14.857142857142858  C 18 15.166666666666668  17.86298076923077 15.43452380952381  17.588942307692307 15.660714285714286  C 17.314903846153847 15.886904761904761  16.990384615384617 16  16.615384615384617 16  L 1.3846153846153846 16  C 1.0096153846153848 16  0.685096153846154 15.886904761904761  0.4110576923076923 15.660714285714286  C 0.13701923076923075 15.43452380952381  0 15.166666666666668  0 14.857142857142858  L 0 3.428571428571429  C 0 3.1190476190476186  0.13701923076923075 2.8511904761904763  0.4110576923076923 2.625  C 0.685096153846154 2.398809523809522  1.0096153846153848 2.2857142857142865  1.3846153846153846 2.2857142857142865  L 2.769230769230769 2.2857142857142865  L 2.769230769230769 1.4285714285714288  C 2.769230769230769 1.0357142857142865  2.9387019230769234 0.699404761904761  3.277644230769231 0.41964285714285765  C 3.616586538461539 0.13988095238095255  4.024038461538462 0  4.5 0  L 5.192307692307692 0  C 5.668269230769231 0  6.075721153846155 0.13988095238095255  6.414663461538462 0.41964285714285765  C 6.75360576923077 0.699404761904761  6.923076923076923 1.0357142857142865  6.923076923076923 1.4285714285714288  L 6.923076923076923 2.2857142857142865  L 11.076923076923077 2.2857142857142865  L 11.076923076923077 1.4285714285714288  C 11.076923076923077 1.0357142857142865  11.246394230769232 0.699404761904761  11.585336538461538 0.41964285714285765  C 11.924278846153848 0.13988095238095255  12.33173076923077 0  12.807692307692308 0  L 13.5 0  C 13.975961538461538 0  14.383413461538462 0.13988095238095255  14.72235576923077 0.41964285714285765  C 15.061298076923078 0.699404761904761  15.23076923076923 1.0357142857142865  15.23076923076923 1.4285714285714288  L 15.23076923076923 2.2857142857142865  L 16.615384615384617 2.2857142857142865  C 16.990384615384617 2.2857142857142865  17.314903846153847 2.398809523809522  17.588942307692307 2.625  Z " stroke-width="0" stroke-dasharray="0" stroke="rgba(255, 255, 255, 0)" fill="none" transform="matrix(1 0 0 1 265 138 )" class="stroke" mask="url(#Clip37)" />
  </g>
</svg>