<?xml version="1.0" encoding="utf-8"?>
<svg version="1.1" xmlns:xlink="http://www.w3.org/1999/xlink" width="10px" height="13px" xmlns="http://www.w3.org/2000/svg">
  <defs>
    <pattern id="BGPattern" patternUnits="userSpaceOnUse" alignment="0 0" imageRepeat="None" />
    <mask fill="white" id="Clip38">
      <path d="M 9.67013888888889 0.2412109375  C 9.890046296296298 0.40201822916666474  10 0.5924479166666647  10 0.8125  L 10 12.1875  C 10 12.407552083333332  9.890046296296298 12.597981770833332  9.67013888888889 12.7587890625  C 9.450231481481483 12.919596354166668  9.189814814814815 13  8.88888888888889 13  C 8.587962962962964 13  8.327546296296298 12.919596354166668  8.10763888888889 12.7587890625  L 0.3298611111111111 7.0712890625  C 0.10995370370370386 6.910481770833332  0 6.720052083333332  0 6.5  C 0 6.279947916666666  0.10995370370370386 6.089518229166666  0.3298611111111111 5.9287109375  L 8.10763888888889 0.2412109375  C 8.327546296296298 0.08040364583333237  8.587962962962964 0  8.88888888888889 0  C 9.189814814814815 0  9.450231481481483 0.08040364583333237  9.67013888888889 0.2412109375  Z " fill-rule="evenodd" />
    </mask>
  </defs>
  <g transform="matrix(1 0 0 1 -36 -21 )">
    <path d="M 9.67013888888889 0.2412109375  C 9.890046296296298 0.40201822916666474  10 0.5924479166666647  10 0.8125  L 10 12.1875  C 10 12.407552083333332  9.890046296296298 12.597981770833332  9.67013888888889 12.7587890625  C 9.450231481481483 12.919596354166668  9.189814814814815 13  8.88888888888889 13  C 8.587962962962964 13  8.327546296296298 12.919596354166668  8.10763888888889 12.7587890625  L 0.3298611111111111 7.0712890625  C 0.10995370370370386 6.910481770833332  0 6.720052083333332  0 6.5  C 0 6.279947916666666  0.10995370370370386 6.089518229166666  0.3298611111111111 5.9287109375  L 8.10763888888889 0.2412109375  C 8.327546296296298 0.08040364583333237  8.587962962962964 0  8.88888888888889 0  C 9.189814814814815 0  9.450231481481483 0.08040364583333237  9.67013888888889 0.2412109375  Z " fill-rule="nonzero" fill="rgba(0, 0, 0, 1)" stroke="none" transform="matrix(1 0 0 1 36 21 )" class="fill" />
    <path d="M 9.67013888888889 0.2412109375  C 9.890046296296298 0.40201822916666474  10 0.5924479166666647  10 0.8125  L 10 12.1875  C 10 12.407552083333332  9.890046296296298 12.597981770833332  9.67013888888889 12.7587890625  C 9.450231481481483 12.919596354166668  9.189814814814815 13  8.88888888888889 13  C 8.587962962962964 13  8.327546296296298 12.919596354166668  8.10763888888889 12.7587890625  L 0.3298611111111111 7.0712890625  C 0.10995370370370386 6.910481770833332  0 6.720052083333332  0 6.5  C 0 6.279947916666666  0.10995370370370386 6.089518229166666  0.3298611111111111 5.9287109375  L 8.10763888888889 0.2412109375  C 8.327546296296298 0.08040364583333237  8.587962962962964 0  8.88888888888889 0  C 9.189814814814815 0  9.450231481481483 0.08040364583333237  9.67013888888889 0.2412109375  Z " stroke-width="0" stroke-dasharray="0" stroke="rgba(255, 255, 255, 0)" fill="none" transform="matrix(1 0 0 1 36 21 )" class="stroke" mask="url(#Clip38)" />
  </g>
</svg>