<?xml version="1.0" encoding="utf-8"?>
<svg version="1.1" xmlns:xlink="http://www.w3.org/1999/xlink" width="24px" height="20px" xmlns="http://www.w3.org/2000/svg">
  <defs>
    <pattern id="BGPattern" patternUnits="userSpaceOnUse" alignment="0 0" imageRepeat="None" />
    <mask fill="white" id="Clip51">
      <path d="M 19.17764472305389 4.9917081389925375  L 17.580838332709583 4.9917081389925375  L 17.580838332709583 0.016583751166044755  L 19.17764472305389 0.016583751166044755  L 19.17764472305389 4.9917081389925375  Z M 6.403193600299401 4.9917081389925375  L 4.8063872380239525 4.9917081389925375  L 4.8063872380239525 0.016583751166044755  L 6.403193600299401 0.016583751166044755  L 6.403193600299401 4.9917081389925375  Z M 0.01596806699101794 10  L 0.01596806699101794 8.308457701725745  L 23.968063866017964 8.308457701725745  L 23.968063866017964 10  L 0.01596806699101794 10  Z M 19.177644723053895 19.917081273320893  L 19.177644723053895 14.941956885494402  L 20.77445108532934 14.941956885494402  L 20.77445108532934 19.917081273320893  L 19.177644723053895 19.917081273320893  Z " fill-rule="evenodd" />
    </mask>
  </defs>
  <g transform="matrix(1 0 0 1 -10 -200 )">
    <path d="M 19.17764472305389 4.9917081389925375  L 17.580838332709583 4.9917081389925375  L 17.580838332709583 0.016583751166044755  L 19.17764472305389 0.016583751166044755  L 19.17764472305389 4.9917081389925375  Z M 6.403193600299401 4.9917081389925375  L 4.8063872380239525 4.9917081389925375  L 4.8063872380239525 0.016583751166044755  L 6.403193600299401 0.016583751166044755  L 6.403193600299401 4.9917081389925375  Z M 0.01596806699101794 10  L 0.01596806699101794 8.308457701725745  L 23.968063866017964 8.308457701725745  L 23.968063866017964 10  L 0.01596806699101794 10  Z M 19.177644723053895 19.917081273320893  L 19.177644723053895 14.941956885494402  L 20.77445108532934 14.941956885494402  L 20.77445108532934 19.917081273320893  L 19.177644723053895 19.917081273320893  Z " fill-rule="nonzero" fill="rgba(34, 34, 34, 1)" stroke="none" transform="matrix(1 0 0 1 10 200 )" class="fill" />
    <path d="M 19.17764472305389 4.9917081389925375  L 17.580838332709583 4.9917081389925375  L 17.580838332709583 0.016583751166044755  L 19.17764472305389 0.016583751166044755  L 19.17764472305389 4.9917081389925375  Z " stroke-width="0" stroke-dasharray="0" stroke="rgba(255, 255, 255, 0)" fill="none" transform="matrix(1 0 0 1 10 200 )" class="stroke" mask="url(#Clip51)" />
    <path d="M 6.403193600299401 4.9917081389925375  L 4.8063872380239525 4.9917081389925375  L 4.8063872380239525 0.016583751166044755  L 6.403193600299401 0.016583751166044755  L 6.403193600299401 4.9917081389925375  Z " stroke-width="0" stroke-dasharray="0" stroke="rgba(255, 255, 255, 0)" fill="none" transform="matrix(1 0 0 1 10 200 )" class="stroke" mask="url(#Clip51)" />
    <path d="M 0.01596806699101794 10  L 0.01596806699101794 8.308457701725745  L 23.968063866017964 8.308457701725745  L 23.968063866017964 10  L 0.01596806699101794 10  Z " stroke-width="0" stroke-dasharray="0" stroke="rgba(255, 255, 255, 0)" fill="none" transform="matrix(1 0 0 1 10 200 )" class="stroke" mask="url(#Clip51)" />
    <path d="M 19.177644723053895 19.917081273320893  L 19.177644723053895 14.941956885494402  L 20.77445108532934 14.941956885494402  L 20.77445108532934 19.917081273320893  L 19.177644723053895 19.917081273320893  Z " stroke-width="0" stroke-dasharray="0" stroke="rgba(255, 255, 255, 0)" fill="none" transform="matrix(1 0 0 1 10 200 )" class="stroke" mask="url(#Clip51)" />
  </g>
</svg>