<?xml version="1.0" encoding="utf-8"?>
<svg version="1.1" xmlns:xlink="http://www.w3.org/1999/xlink" width="14px" height="12px" xmlns="http://www.w3.org/2000/svg">
  <defs>
    <pattern id="BGPattern" patternUnits="userSpaceOnUse" alignment="0 0" imageRepeat="None" />
    <mask fill="white" id="Clip36">
      <path d="M 0.017478155723314584 12  L 0.017478155723314584 10.26160336234177  L 12.252184765625 10.26160336234177  L 12.252184765625 12  L 0.017478155723314584 12  Z M 5.260923858848315 3.510548526503164  L 5.260923858848315 0.13502109375000057  L 8.756554296874999 0.13502109375000057  L 8.756554296874999 3.510548526503164  L 5.260923858848315 3.510548526503164  Z M 10.50436953125 3.510548526503164  L 10.50436953125 0.13502109375000057  L 14 0.13502109375000057  L 14 3.510548526503164  L 10.50436953125 3.510548526503164  Z M 5.260923858848315 8.573839675632914  L 5.260923858848315 5.198312242879748  L 8.756554296874999 5.198312242879748  L 8.756554296874999 8.573839675632914  L 5.260923858848315 8.573839675632914  Z " fill-rule="evenodd" />
    </mask>
  </defs>
  <g transform="matrix(1 0 0 1 -10 -212 )">
    <path d="M 0.017478155723314584 12  L 0.017478155723314584 10.26160336234177  L 12.252184765625 10.26160336234177  L 12.252184765625 12  L 0.017478155723314584 12  Z M 5.260923858848315 3.510548526503164  L 5.260923858848315 0.13502109375000057  L 8.756554296874999 0.13502109375000057  L 8.756554296874999 3.510548526503164  L 5.260923858848315 3.510548526503164  Z M 10.50436953125 3.510548526503164  L 10.50436953125 0.13502109375000057  L 14 0.13502109375000057  L 14 3.510548526503164  L 10.50436953125 3.510548526503164  Z M 5.260923858848315 8.573839675632914  L 5.260923858848315 5.198312242879748  L 8.756554296874999 5.198312242879748  L 8.756554296874999 8.573839675632914  L 5.260923858848315 8.573839675632914  Z " fill-rule="nonzero" fill="rgba(34, 34, 34, 1)" stroke="none" transform="matrix(1 0 0 1 10 212 )" class="fill" />
    <path d="M 0.017478155723314584 12  L 0.017478155723314584 10.26160336234177  L 12.252184765625 10.26160336234177  L 12.252184765625 12  L 0.017478155723314584 12  Z " stroke-width="0" stroke-dasharray="0" stroke="rgba(255, 255, 255, 0)" fill="none" transform="matrix(1 0 0 1 10 212 )" class="stroke" mask="url(#Clip36)" />
    <path d="M 5.260923858848315 3.510548526503164  L 5.260923858848315 0.13502109375000057  L 8.756554296874999 0.13502109375000057  L 8.756554296874999 3.510548526503164  L 5.260923858848315 3.510548526503164  Z " stroke-width="0" stroke-dasharray="0" stroke="rgba(255, 255, 255, 0)" fill="none" transform="matrix(1 0 0 1 10 212 )" class="stroke" mask="url(#Clip36)" />
    <path d="M 10.50436953125 3.510548526503164  L 10.50436953125 0.13502109375000057  L 14 0.13502109375000057  L 14 3.510548526503164  L 10.50436953125 3.510548526503164  Z " stroke-width="0" stroke-dasharray="0" stroke="rgba(255, 255, 255, 0)" fill="none" transform="matrix(1 0 0 1 10 212 )" class="stroke" mask="url(#Clip36)" />
    <path d="M 5.260923858848315 8.573839675632914  L 5.260923858848315 5.198312242879748  L 8.756554296874999 5.198312242879748  L 8.756554296874999 8.573839675632914  L 5.260923858848315 8.573839675632914  Z " stroke-width="0" stroke-dasharray="0" stroke="rgba(255, 255, 255, 0)" fill="none" transform="matrix(1 0 0 1 10 212 )" class="stroke" mask="url(#Clip36)" />
  </g>
</svg>