<?xml version="1.0" encoding="utf-8"?>
<svg version="1.1" xmlns:xlink="http://www.w3.org/1999/xlink" width="22px" height="17px" xmlns="http://www.w3.org/2000/svg">
  <defs>
    <pattern id="BGPattern" patternUnits="userSpaceOnUse" alignment="0 0" imageRepeat="None" />
    <mask fill="white" id="Clip83">
      <path d="M 1.6923076923076925 13.053571428571427  L 1.6923076923076925 15.785714285714286  L 5.5 15.785714285714286  L 5.5 13.053571428571427  L 1.6923076923076925 13.053571428571427  Z M 6.346153846153846 13.053571428571427  L 6.346153846153846 15.785714285714286  L 10.576923076923077 15.785714285714286  L 10.576923076923077 13.053571428571427  L 6.346153846153846 13.053571428571427  Z M 1.6923076923076925 9.410714285714286  L 1.6923076923076925 12.446428571428573  L 5.5 12.446428571428573  L 5.5 9.410714285714286  L 1.6923076923076925 9.410714285714286  Z M 6.346153846153846 9.410714285714286  L 6.346153846153846 12.446428571428573  L 10.576923076923077 12.446428571428573  L 10.576923076923077 9.410714285714286  L 6.346153846153846 9.410714285714286  Z M 1.6923076923076925 6.07142857142857  L 1.6923076923076925 8.803571428571427  L 5.5 8.803571428571427  L 5.5 6.07142857142857  L 1.6923076923076925 6.07142857142857  Z M 11.423076923076923 13.053571428571427  L 11.423076923076923 15.785714285714286  L 15.653846153846155 15.785714285714286  L 15.653846153846155 13.053571428571427  L 11.423076923076923 13.053571428571427  Z M 6.346153846153846 6.07142857142857  L 6.346153846153846 8.803571428571427  L 10.576923076923077 8.803571428571427  L 10.576923076923077 6.07142857142857  L 6.346153846153846 6.07142857142857  Z M 16.5 13.053571428571427  L 16.5 15.785714285714286  L 20.30769230769231 15.785714285714286  L 20.30769230769231 13.053571428571427  L 16.5 13.053571428571427  Z M 11.423076923076923 9.410714285714286  L 11.423076923076923 12.446428571428573  L 15.653846153846155 12.446428571428573  L 15.653846153846155 9.410714285714286  L 11.423076923076923 9.410714285714286  Z M 6.6436298076923075 4.4634486607142865  C 6.727363782051282 4.40336681547619  6.76923076923077 4.33221726190476  6.76923076923077 4.25  L 6.76923076923077 1.5178571428571432  C 6.76923076923077 1.435639880952381  6.727363782051282 1.3644903273809517  6.6436298076923075 1.3044084821428568  C 6.559895833333334 1.24432663690476  6.46073717948718 1.2142857142857137  6.346153846153846 1.2142857142857137  L 5.5 1.2142857142857137  C 5.385416666666667 1.2142857142857137  5.286258012820514 1.24432663690476  5.202524038461538 1.3044084821428568  C 5.118790064102563 1.3644903273809517  5.0769230769230775 1.435639880952381  5.0769230769230775 1.5178571428571432  L 5.0769230769230775 4.25  C 5.0769230769230775 4.33221726190476  5.118790064102563 4.40336681547619  5.202524038461538 4.4634486607142865  C 5.286258012820514 4.523530505952381  5.385416666666667 4.55357142857143  5.5 4.55357142857143  L 6.346153846153846 4.55357142857143  C 6.46073717948718 4.55357142857143  6.559895833333334 4.523530505952381  6.6436298076923075 4.4634486607142865  Z M 16.5 9.410714285714286  L 16.5 12.446428571428573  L 20.30769230769231 12.446428571428573  L 20.30769230769231 9.410714285714286  L 16.5 9.410714285714286  Z M 11.423076923076923 6.07142857142857  L 11.423076923076923 8.803571428571427  L 15.653846153846155 8.803571428571427  L 15.653846153846155 6.07142857142857  L 11.423076923076923 6.07142857142857  Z M 16.5 6.07142857142857  L 16.5 8.803571428571427  L 20.30769230769231 8.803571428571427  L 20.30769230769231 6.07142857142857  L 16.5 6.07142857142857  Z M 16.79747596153846 4.4634486607142865  C 16.881209935897438 4.40336681547619  16.923076923076923 4.33221726190476  16.923076923076923 4.25  L 16.923076923076923 1.5178571428571432  C 16.923076923076923 1.435639880952381  16.881209935897438 1.3644903273809517  16.79747596153846 1.3044084821428568  C 16.71374198717949 1.24432663690476  16.614583333333336 1.2142857142857137  16.5 1.2142857142857137  L 15.653846153846155 1.2142857142857137  C 15.539262820512823 1.2142857142857137  15.440104166666668 1.24432663690476  15.356370192307692 1.3044084821428568  C 15.272636217948719 1.3644903273809517  15.23076923076923 1.435639880952381  15.23076923076923 1.5178571428571432  L 15.23076923076923 4.25  C 15.23076923076923 4.33221726190476  15.272636217948719 4.40336681547619  15.356370192307692 4.4634486607142865  C 15.440104166666668 4.523530505952381  15.539262820512823 4.55357142857143  15.653846153846155 4.55357142857143  L 16.5 4.55357142857143  C 16.614583333333336 4.55357142857143  16.71374198717949 4.523530505952381  16.79747596153846 4.4634486607142865  Z M 21.497596153846153 2.7890625  C 21.832532051282055 3.029389880952381  22 3.313988095238095  22 3.6428571428571432  L 22 15.785714285714286  C 22 16.114583333333336  21.832532051282055 16.399181547619047  21.497596153846153 16.63950892857143  C 21.16266025641026 16.87983630952381  20.766025641025642 17  20.30769230769231 17  L 1.6923076923076925 17  C 1.2339743589743593 17  0.8373397435897436 16.87983630952381  0.5024038461538461 16.63950892857143  C 0.1674679487179487 16.399181547619047  0 16.114583333333336  0 15.785714285714286  L 0 3.6428571428571432  C 0 3.313988095238095  0.1674679487179487 3.029389880952381  0.5024038461538461 2.7890625  C 0.8373397435897436 2.548735119047617  1.2339743589743593 2.4285714285714293  1.6923076923076925 2.4285714285714293  L 3.384615384615385 2.4285714285714293  L 3.384615384615385 1.5178571428571432  C 3.384615384615385 1.1004464285714293  3.5917467948717947 0.7431175595238085  4.006009615384615 0.44587053571428625  C 4.420272435897437 0.14862351190476208  4.918269230769231 0  5.5 0  L 6.346153846153846 0  C 6.927884615384615 0  7.4258814102564115 0.14862351190476208  7.84014423076923 0.44587053571428625  C 8.254407051282051 0.7431175595238085  8.461538461538462 1.1004464285714293  8.461538461538462 1.5178571428571432  L 8.461538461538462 2.4285714285714293  L 13.53846153846154 2.4285714285714293  L 13.53846153846154 1.5178571428571432  C 13.53846153846154 1.1004464285714293  13.745592948717949 0.7431175595238085  14.15985576923077 0.44587053571428625  C 14.574118589743593 0.14862351190476208  15.072115384615385 0  15.653846153846155 0  L 16.5 0  C 17.08173076923077 0  17.579727564102566 0.14862351190476208  17.993990384615383 0.44587053571428625  C 18.408253205128208 0.7431175595238085  18.615384615384617 1.1004464285714293  18.615384615384617 1.5178571428571432  L 18.615384615384617 2.4285714285714293  L 20.30769230769231 2.4285714285714293  C 20.766025641025642 2.4285714285714293  21.16266025641026 2.548735119047617  21.497596153846153 2.7890625  Z " fill-rule="evenodd" />
    </mask>
  </defs>
  <g transform="matrix(1 0 0 1 -789 -148 )">
    <path d="M 1.6923076923076925 13.053571428571427  L 1.6923076923076925 15.785714285714286  L 5.5 15.785714285714286  L 5.5 13.053571428571427  L 1.6923076923076925 13.053571428571427  Z M 6.346153846153846 13.053571428571427  L 6.346153846153846 15.785714285714286  L 10.576923076923077 15.785714285714286  L 10.576923076923077 13.053571428571427  L 6.346153846153846 13.053571428571427  Z M 1.6923076923076925 9.410714285714286  L 1.6923076923076925 12.446428571428573  L 5.5 12.446428571428573  L 5.5 9.410714285714286  L 1.6923076923076925 9.410714285714286  Z M 6.346153846153846 9.410714285714286  L 6.346153846153846 12.446428571428573  L 10.576923076923077 12.446428571428573  L 10.576923076923077 9.410714285714286  L 6.346153846153846 9.410714285714286  Z M 1.6923076923076925 6.07142857142857  L 1.6923076923076925 8.803571428571427  L 5.5 8.803571428571427  L 5.5 6.07142857142857  L 1.6923076923076925 6.07142857142857  Z M 11.423076923076923 13.053571428571427  L 11.423076923076923 15.785714285714286  L 15.653846153846155 15.785714285714286  L 15.653846153846155 13.053571428571427  L 11.423076923076923 13.053571428571427  Z M 6.346153846153846 6.07142857142857  L 6.346153846153846 8.803571428571427  L 10.576923076923077 8.803571428571427  L 10.576923076923077 6.07142857142857  L 6.346153846153846 6.07142857142857  Z M 16.5 13.053571428571427  L 16.5 15.785714285714286  L 20.30769230769231 15.785714285714286  L 20.30769230769231 13.053571428571427  L 16.5 13.053571428571427  Z M 11.423076923076923 9.410714285714286  L 11.423076923076923 12.446428571428573  L 15.653846153846155 12.446428571428573  L 15.653846153846155 9.410714285714286  L 11.423076923076923 9.410714285714286  Z M 6.6436298076923075 4.4634486607142865  C 6.727363782051282 4.40336681547619  6.76923076923077 4.33221726190476  6.76923076923077 4.25  L 6.76923076923077 1.5178571428571432  C 6.76923076923077 1.435639880952381  6.727363782051282 1.3644903273809517  6.6436298076923075 1.3044084821428568  C 6.559895833333334 1.24432663690476  6.46073717948718 1.2142857142857137  6.346153846153846 1.2142857142857137  L 5.5 1.2142857142857137  C 5.385416666666667 1.2142857142857137  5.286258012820514 1.24432663690476  5.202524038461538 1.3044084821428568  C 5.118790064102563 1.3644903273809517  5.0769230769230775 1.435639880952381  5.0769230769230775 1.5178571428571432  L 5.0769230769230775 4.25  C 5.0769230769230775 4.33221726190476  5.118790064102563 4.40336681547619  5.202524038461538 4.4634486607142865  C 5.286258012820514 4.523530505952381  5.385416666666667 4.55357142857143  5.5 4.55357142857143  L 6.346153846153846 4.55357142857143  C 6.46073717948718 4.55357142857143  6.559895833333334 4.523530505952381  6.6436298076923075 4.4634486607142865  Z M 16.5 9.410714285714286  L 16.5 12.446428571428573  L 20.30769230769231 12.446428571428573  L 20.30769230769231 9.410714285714286  L 16.5 9.410714285714286  Z M 11.423076923076923 6.07142857142857  L 11.423076923076923 8.803571428571427  L 15.653846153846155 8.803571428571427  L 15.653846153846155 6.07142857142857  L 11.423076923076923 6.07142857142857  Z M 16.5 6.07142857142857  L 16.5 8.803571428571427  L 20.30769230769231 8.803571428571427  L 20.30769230769231 6.07142857142857  L 16.5 6.07142857142857  Z M 16.79747596153846 4.4634486607142865  C 16.881209935897438 4.40336681547619  16.923076923076923 4.33221726190476  16.923076923076923 4.25  L 16.923076923076923 1.5178571428571432  C 16.923076923076923 1.435639880952381  16.881209935897438 1.3644903273809517  16.79747596153846 1.3044084821428568  C 16.71374198717949 1.24432663690476  16.614583333333336 1.2142857142857137  16.5 1.2142857142857137  L 15.653846153846155 1.2142857142857137  C 15.539262820512823 1.2142857142857137  15.440104166666668 1.24432663690476  15.356370192307692 1.3044084821428568  C 15.272636217948719 1.3644903273809517  15.23076923076923 1.435639880952381  15.23076923076923 1.5178571428571432  L 15.23076923076923 4.25  C 15.23076923076923 4.33221726190476  15.272636217948719 4.40336681547619  15.356370192307692 4.4634486607142865  C 15.440104166666668 4.523530505952381  15.539262820512823 4.55357142857143  15.653846153846155 4.55357142857143  L 16.5 4.55357142857143  C 16.614583333333336 4.55357142857143  16.71374198717949 4.523530505952381  16.79747596153846 4.4634486607142865  Z M 21.497596153846153 2.7890625  C 21.832532051282055 3.029389880952381  22 3.313988095238095  22 3.6428571428571432  L 22 15.785714285714286  C 22 16.114583333333336  21.832532051282055 16.399181547619047  21.497596153846153 16.63950892857143  C 21.16266025641026 16.87983630952381  20.766025641025642 17  20.30769230769231 17  L 1.6923076923076925 17  C 1.2339743589743593 17  0.8373397435897436 16.87983630952381  0.5024038461538461 16.63950892857143  C 0.1674679487179487 16.399181547619047  0 16.114583333333336  0 15.785714285714286  L 0 3.6428571428571432  C 0 3.313988095238095  0.1674679487179487 3.029389880952381  0.5024038461538461 2.7890625  C 0.8373397435897436 2.548735119047617  1.2339743589743593 2.4285714285714293  1.6923076923076925 2.4285714285714293  L 3.384615384615385 2.4285714285714293  L 3.384615384615385 1.5178571428571432  C 3.384615384615385 1.1004464285714293  3.5917467948717947 0.7431175595238085  4.006009615384615 0.44587053571428625  C 4.420272435897437 0.14862351190476208  4.918269230769231 0  5.5 0  L 6.346153846153846 0  C 6.927884615384615 0  7.4258814102564115 0.14862351190476208  7.84014423076923 0.44587053571428625  C 8.254407051282051 0.7431175595238085  8.461538461538462 1.1004464285714293  8.461538461538462 1.5178571428571432  L 8.461538461538462 2.4285714285714293  L 13.53846153846154 2.4285714285714293  L 13.53846153846154 1.5178571428571432  C 13.53846153846154 1.1004464285714293  13.745592948717949 0.7431175595238085  14.15985576923077 0.44587053571428625  C 14.574118589743593 0.14862351190476208  15.072115384615385 0  15.653846153846155 0  L 16.5 0  C 17.08173076923077 0  17.579727564102566 0.14862351190476208  17.993990384615383 0.44587053571428625  C 18.408253205128208 0.7431175595238085  18.615384615384617 1.1004464285714293  18.615384615384617 1.5178571428571432  L 18.615384615384617 2.4285714285714293  L 20.30769230769231 2.4285714285714293  C 20.766025641025642 2.4285714285714293  21.16266025641026 2.548735119047617  21.497596153846153 2.7890625  Z " fill-rule="nonzero" fill="rgba(127, 127, 127, 1)" stroke="none" transform="matrix(1 0 0 1 789 148 )" class="fill" />
    <path d="M 1.6923076923076925 13.053571428571427  L 1.6923076923076925 15.785714285714286  L 5.5 15.785714285714286  L 5.5 13.053571428571427  L 1.6923076923076925 13.053571428571427  Z " stroke-width="0" stroke-dasharray="0" stroke="rgba(170, 170, 170, 1)" fill="none" transform="matrix(1 0 0 1 789 148 )" class="stroke" mask="url(#Clip83)" />
    <path d="M 6.346153846153846 13.053571428571427  L 6.346153846153846 15.785714285714286  L 10.576923076923077 15.785714285714286  L 10.576923076923077 13.053571428571427  L 6.346153846153846 13.053571428571427  Z " stroke-width="0" stroke-dasharray="0" stroke="rgba(170, 170, 170, 1)" fill="none" transform="matrix(1 0 0 1 789 148 )" class="stroke" mask="url(#Clip83)" />
    <path d="M 1.6923076923076925 9.410714285714286  L 1.6923076923076925 12.446428571428573  L 5.5 12.446428571428573  L 5.5 9.410714285714286  L 1.6923076923076925 9.410714285714286  Z " stroke-width="0" stroke-dasharray="0" stroke="rgba(170, 170, 170, 1)" fill="none" transform="matrix(1 0 0 1 789 148 )" class="stroke" mask="url(#Clip83)" />
    <path d="M 6.346153846153846 9.410714285714286  L 6.346153846153846 12.446428571428573  L 10.576923076923077 12.446428571428573  L 10.576923076923077 9.410714285714286  L 6.346153846153846 9.410714285714286  Z " stroke-width="0" stroke-dasharray="0" stroke="rgba(170, 170, 170, 1)" fill="none" transform="matrix(1 0 0 1 789 148 )" class="stroke" mask="url(#Clip83)" />
    <path d="M 1.6923076923076925 6.07142857142857  L 1.6923076923076925 8.803571428571427  L 5.5 8.803571428571427  L 5.5 6.07142857142857  L 1.6923076923076925 6.07142857142857  Z " stroke-width="0" stroke-dasharray="0" stroke="rgba(170, 170, 170, 1)" fill="none" transform="matrix(1 0 0 1 789 148 )" class="stroke" mask="url(#Clip83)" />
    <path d="M 11.423076923076923 13.053571428571427  L 11.423076923076923 15.785714285714286  L 15.653846153846155 15.785714285714286  L 15.653846153846155 13.053571428571427  L 11.423076923076923 13.053571428571427  Z " stroke-width="0" stroke-dasharray="0" stroke="rgba(170, 170, 170, 1)" fill="none" transform="matrix(1 0 0 1 789 148 )" class="stroke" mask="url(#Clip83)" />
    <path d="M 6.346153846153846 6.07142857142857  L 6.346153846153846 8.803571428571427  L 10.576923076923077 8.803571428571427  L 10.576923076923077 6.07142857142857  L 6.346153846153846 6.07142857142857  Z " stroke-width="0" stroke-dasharray="0" stroke="rgba(170, 170, 170, 1)" fill="none" transform="matrix(1 0 0 1 789 148 )" class="stroke" mask="url(#Clip83)" />
    <path d="M 16.5 13.053571428571427  L 16.5 15.785714285714286  L 20.30769230769231 15.785714285714286  L 20.30769230769231 13.053571428571427  L 16.5 13.053571428571427  Z " stroke-width="0" stroke-dasharray="0" stroke="rgba(170, 170, 170, 1)" fill="none" transform="matrix(1 0 0 1 789 148 )" class="stroke" mask="url(#Clip83)" />
    <path d="M 11.423076923076923 9.410714285714286  L 11.423076923076923 12.446428571428573  L 15.653846153846155 12.446428571428573  L 15.653846153846155 9.410714285714286  L 11.423076923076923 9.410714285714286  Z " stroke-width="0" stroke-dasharray="0" stroke="rgba(170, 170, 170, 1)" fill="none" transform="matrix(1 0 0 1 789 148 )" class="stroke" mask="url(#Clip83)" />
    <path d="M 6.6436298076923075 4.4634486607142865  C 6.727363782051282 4.40336681547619  6.76923076923077 4.33221726190476  6.76923076923077 4.25  L 6.76923076923077 1.5178571428571432  C 6.76923076923077 1.435639880952381  6.727363782051282 1.3644903273809517  6.6436298076923075 1.3044084821428568  C 6.559895833333334 1.24432663690476  6.46073717948718 1.2142857142857137  6.346153846153846 1.2142857142857137  L 5.5 1.2142857142857137  C 5.385416666666667 1.2142857142857137  5.286258012820514 1.24432663690476  5.202524038461538 1.3044084821428568  C 5.118790064102563 1.3644903273809517  5.0769230769230775 1.435639880952381  5.0769230769230775 1.5178571428571432  L 5.0769230769230775 4.25  C 5.0769230769230775 4.33221726190476  5.118790064102563 4.40336681547619  5.202524038461538 4.4634486607142865  C 5.286258012820514 4.523530505952381  5.385416666666667 4.55357142857143  5.5 4.55357142857143  L 6.346153846153846 4.55357142857143  C 6.46073717948718 4.55357142857143  6.559895833333334 4.523530505952381  6.6436298076923075 4.4634486607142865  Z " stroke-width="0" stroke-dasharray="0" stroke="rgba(170, 170, 170, 1)" fill="none" transform="matrix(1 0 0 1 789 148 )" class="stroke" mask="url(#Clip83)" />
    <path d="M 16.5 9.410714285714286  L 16.5 12.446428571428573  L 20.30769230769231 12.446428571428573  L 20.30769230769231 9.410714285714286  L 16.5 9.410714285714286  Z " stroke-width="0" stroke-dasharray="0" stroke="rgba(170, 170, 170, 1)" fill="none" transform="matrix(1 0 0 1 789 148 )" class="stroke" mask="url(#Clip83)" />
    <path d="M 11.423076923076923 6.07142857142857  L 11.423076923076923 8.803571428571427  L 15.653846153846155 8.803571428571427  L 15.653846153846155 6.07142857142857  L 11.423076923076923 6.07142857142857  Z " stroke-width="0" stroke-dasharray="0" stroke="rgba(170, 170, 170, 1)" fill="none" transform="matrix(1 0 0 1 789 148 )" class="stroke" mask="url(#Clip83)" />
    <path d="M 16.5 6.07142857142857  L 16.5 8.803571428571427  L 20.30769230769231 8.803571428571427  L 20.30769230769231 6.07142857142857  L 16.5 6.07142857142857  Z " stroke-width="0" stroke-dasharray="0" stroke="rgba(170, 170, 170, 1)" fill="none" transform="matrix(1 0 0 1 789 148 )" class="stroke" mask="url(#Clip83)" />
    <path d="M 16.79747596153846 4.4634486607142865  C 16.881209935897438 4.40336681547619  16.923076923076923 4.33221726190476  16.923076923076923 4.25  L 16.923076923076923 1.5178571428571432  C 16.923076923076923 1.435639880952381  16.881209935897438 1.3644903273809517  16.79747596153846 1.3044084821428568  C 16.71374198717949 1.24432663690476  16.614583333333336 1.2142857142857137  16.5 1.2142857142857137  L 15.653846153846155 1.2142857142857137  C 15.539262820512823 1.2142857142857137  15.440104166666668 1.24432663690476  15.356370192307692 1.3044084821428568  C 15.272636217948719 1.3644903273809517  15.23076923076923 1.435639880952381  15.23076923076923 1.5178571428571432  L 15.23076923076923 4.25  C 15.23076923076923 4.33221726190476  15.272636217948719 4.40336681547619  15.356370192307692 4.4634486607142865  C 15.440104166666668 4.523530505952381  15.539262820512823 4.55357142857143  15.653846153846155 4.55357142857143  L 16.5 4.55357142857143  C 16.614583333333336 4.55357142857143  16.71374198717949 4.523530505952381  16.79747596153846 4.4634486607142865  Z " stroke-width="0" stroke-dasharray="0" stroke="rgba(170, 170, 170, 1)" fill="none" transform="matrix(1 0 0 1 789 148 )" class="stroke" mask="url(#Clip83)" />
    <path d="M 21.497596153846153 2.7890625  C 21.832532051282055 3.029389880952381  22 3.313988095238095  22 3.6428571428571432  L 22 15.785714285714286  C 22 16.114583333333336  21.832532051282055 16.399181547619047  21.497596153846153 16.63950892857143  C 21.16266025641026 16.87983630952381  20.766025641025642 17  20.30769230769231 17  L 1.6923076923076925 17  C 1.2339743589743593 17  0.8373397435897436 16.87983630952381  0.5024038461538461 16.63950892857143  C 0.1674679487179487 16.399181547619047  0 16.114583333333336  0 15.785714285714286  L 0 3.6428571428571432  C 0 3.313988095238095  0.1674679487179487 3.029389880952381  0.5024038461538461 2.7890625  C 0.8373397435897436 2.548735119047617  1.2339743589743593 2.4285714285714293  1.6923076923076925 2.4285714285714293  L 3.384615384615385 2.4285714285714293  L 3.384615384615385 1.5178571428571432  C 3.384615384615385 1.1004464285714293  3.5917467948717947 0.7431175595238085  4.006009615384615 0.44587053571428625  C 4.420272435897437 0.14862351190476208  4.918269230769231 0  5.5 0  L 6.346153846153846 0  C 6.927884615384615 0  7.4258814102564115 0.14862351190476208  7.84014423076923 0.44587053571428625  C 8.254407051282051 0.7431175595238085  8.461538461538462 1.1004464285714293  8.461538461538462 1.5178571428571432  L 8.461538461538462 2.4285714285714293  L 13.53846153846154 2.4285714285714293  L 13.53846153846154 1.5178571428571432  C 13.53846153846154 1.1004464285714293  13.745592948717949 0.7431175595238085  14.15985576923077 0.44587053571428625  C 14.574118589743593 0.14862351190476208  15.072115384615385 0  15.653846153846155 0  L 16.5 0  C 17.08173076923077 0  17.579727564102566 0.14862351190476208  17.993990384615383 0.44587053571428625  C 18.408253205128208 0.7431175595238085  18.615384615384617 1.1004464285714293  18.615384615384617 1.5178571428571432  L 18.615384615384617 2.4285714285714293  L 20.30769230769231 2.4285714285714293  C 20.766025641025642 2.4285714285714293  21.16266025641026 2.548735119047617  21.497596153846153 2.7890625  Z " stroke-width="0" stroke-dasharray="0" stroke="rgba(170, 170, 170, 1)" fill="none" transform="matrix(1 0 0 1 789 148 )" class="stroke" mask="url(#Clip83)" />
  </g>
</svg>