<?xml version="1.0" encoding="utf-8"?>
<svg version="1.1" xmlns:xlink="http://www.w3.org/1999/xlink" width="12px" height="12px" viewBox="129 283 12 12" xmlns="http://www.w3.org/2000/svg">
  <path d="M 135 283  C 138.36 283  141 285.64  141 289  C 141 292.36  138.36 295  135 295  C 131.64 295  129 292.36  129 289  C 129 285.64  131.64 283  135 283  Z " fill-rule="nonzero" fill="rgba(255, 255, 255, 1)" stroke="none" class="fill" />
  <path d="M 135 283.5  C 138.08 283.5  140.5 285.92  140.5 289  C 140.5 292.08  138.08 294.5  135 294.5  C 131.92 294.5  129.5 292.08  129.5 289  C 129.5 285.92  131.92 283.5  135 283.5  Z " stroke-width="1" stroke-dasharray="0" stroke="rgba(121, 121, 121, 1)" fill="none" class="stroke" stroke-dashoffset="0.5" />
  <path d="M 135 292  C 133.32 292  132 290.68  132 289  C 132 287.32  133.32 286  135 286  C 136.68 286  138 287.32  138 289  C 138 290.68  136.68 292  135 292  " fill-rule="nonzero" fill="rgba(121, 121, 121, 1)" stroke="none" class="stroke btn_check" />
</svg>