<?xml version="1.0" encoding="utf-8"?>
<svg version="1.1" xmlns:xlink="http://www.w3.org/1999/xlink" width="12px" height="12px" viewBox="129 309  12 12" xmlns="http://www.w3.org/2000/svg">
  <path d="M 135 309  C 138.36 309  141 311.64  141 315  C 141 318.36  138.36 321  135 321  C 131.64 321  129 318.36  129 315  C 129 311.64  131.64 309  135 309  Z " fill-rule="nonzero" fill="#f0f0f0" stroke="none" />
  <path d="M 135 309.5  C 138.08 309.5  140.5 311.92  140.5 315  C 140.5 318.08  138.08 320.5  135 320.5  C 131.92 320.5  129.5 318.08  129.5 315  C 129.5 311.92  131.92 309.5  135 309.5  Z " stroke-width="1" stroke="#797979" fill="none" />
  <path d="M 135 318  C 133.32 318  132 316.68  132 315  C 132 313.32  133.32 312  135 312  C 136.68 312  138 313.32  138 315  C 138 316.68  136.68 318  135 318  " fill-rule="nonzero" fill="#797979" stroke="none" />
</svg>