<?xml version="1.0" encoding="utf-8"?>
<svg version="1.1" xmlns:xlink="http://www.w3.org/1999/xlink" width="10px" height="10px" xmlns="http://www.w3.org/2000/svg">
  <defs>
    <pattern id="BGPattern" patternUnits="userSpaceOnUse" alignment="0 0" imageRepeat="None" />
    <mask fill="white" id="Clip80">
      <path d="M 0.11904761904761904 5.01984126984127  C 0.11904761904761904 7.726474865242188  2.3132076744403567 9.920634920634923  5.019841269841274 9.920634920634923  C 7.726474865242192 9.920634920634923  9.920634920634924 7.726474865242183  9.920634920634924 5.01984126984127  C 9.920634920634924 2.313207674440359  7.726474865242188 0.11904761904761679  5.019841269841274 0.11904761904761679  C 2.313207674440361 0.11904761904761679  0.11904761904762129 2.3132076744403567  0.11904761904762129 5.01984126984127  Z " fill-rule="evenodd" />
    </mask>
  </defs>
  <g transform="matrix(1 0 0 1 -972 -315 )">
    <path d="M 0.11904761904761904 5.01984126984127  C 0.11904761904761904 7.726474865242188  2.3132076744403567 9.920634920634923  5.019841269841274 9.920634920634923  C 7.726474865242192 9.920634920634923  9.920634920634924 7.726474865242183  9.920634920634924 5.01984126984127  C 9.920634920634924 2.313207674440359  7.726474865242188 0.11904761904761679  5.019841269841274 0.11904761904761679  C 2.313207674440361 0.11904761904761679  0.11904761904762129 2.3132076744403567  0.11904761904762129 5.01984126984127  Z " fill-rule="nonzero" fill="rgba(50, 51, 51, 1)" stroke="none" transform="matrix(1 0 0 1 972 315 )" class="fill" />
    <path d="M 0.11904761904761904 5.01984126984127  C 0.11904761904761904 7.726474865242188  2.3132076744403567 9.920634920634923  5.019841269841274 9.920634920634923  C 7.726474865242192 9.920634920634923  9.920634920634924 7.726474865242183  9.920634920634924 5.01984126984127  C 9.920634920634924 2.313207674440359  7.726474865242188 0.11904761904761679  5.019841269841274 0.11904761904761679  C 2.313207674440361 0.11904761904761679  0.11904761904762129 2.3132076744403567  0.11904761904762129 5.01984126984127  Z " stroke-width="0" stroke-dasharray="0" stroke="rgba(255, 255, 255, 0)" fill="none" transform="matrix(1 0 0 1 972 315 )" class="stroke" mask="url(#Clip80)" />
  </g>
</svg>