<?xml version="1.0" encoding="utf-8"?>
<svg version="1.1" xmlns:xlink="http://www.w3.org/1999/xlink" width="31px" height="16px" xmlns="http://www.w3.org/2000/svg">
  <g transform="matrix(1 0 0 1 -866 -312 )">
    <path d="M 22.74625 16  L 8.25375 16  C 3.716730780140031 16  0.038749999999998626 12.418277998646348  0.038749999999998626 8.000000000000002  C 0.038749999999998626 3.5817220013536537  3.716730780140031 0  8.25375 0  L 22.74625 0  C 27.283269219859967 0  30.96125 3.5817220013536537  30.96125 8.000000000000002  C 30.96125 12.418277998646348  27.283269219859967 16  22.74625 16  Z M 22.74625 2  L 8.25375 2  C 8.25375 1.8301886792452842  8.25375 1.8301886792452862  8.25375 1.8301886792452862  C 4.786782482937194 1.8301886792452862  1.9762499999999992 4.567164925562699  1.9762499999999992 7.943396226415097  C 1.9762499999999992 11.319627527267494  4.786782482937194 14.056603773584905  8.25375 14.056603773584905  C 8.25375 14.056603773584905  8.25375 14.056603773584905  8.25375 14  L 22.74625 14  C 22.74625 14.056603773584905  22.74625 14.056603773584905  22.74625 14.056603773584905  C 26.213217517062805 14.056603773584905  29.02375 11.319627527267494  29.02375 7.943396226415097  C 29.02375 4.567164925562699  26.213217517062805 1.8301886792452862  22.74625 1.8301886792452862  C 22.74625 1.8301886792452862  22.74625 1.8301886792452842  22.74625 2  Z " fill-rule="nonzero" fill="#323333" stroke="none" transform="matrix(1 0 0 1 866 312 )" />
  </g>
</svg>