<?xml version="1.0" encoding="utf-8"?>
<svg version="1.1" xmlns:xlink="http://www.w3.org/1999/xlink" width="22px" height="12px" xmlns="http://www.w3.org/2000/svg">
  <g transform="matrix(1 0 0 1 -537 -908 )">
    <path d="M 21.5 6  C 21.5 2.700000000000001  18.799999999999997 0  15.5 0  L 6.5 0  C 3.1999999999999993 0  0.5 2.6999999999999993  0.5 6  C 0.5 9.299999999999999  3.1999999999999993 12  6.5 12  L 15.5 12  C 18.799999999999997 12  21.5 9.299999999999999  21.5 6  Z M 20 6  C 20 8.475000000000001  17.975 10.5  15.5 10.5  L 6.5 10.5  C 4.025 10.5  2 8.475000000000001  2 6  C 2 3.5249999999999986  4.025 1.5  6.5 1.5  L 15.5 1.5  C 17.975 1.5  20 3.5249999999999986  20 6  Z " fill-rule="nonzero" fill="#333333" stroke="none" transform="matrix(1 0 0 1 537 908 )" />
  </g>
</svg>