<?xml version="1.0" encoding="utf-8"?>
<svg version="1.1" xmlns:xlink="http://www.w3.org/1999/xlink" width="9px" height="8px" xmlns="http://www.w3.org/2000/svg">
  <defs>
    <pattern id="BGPattern" patternUnits="userSpaceOnUse" alignment="0 0" imageRepeat="None" />
    <mask fill="white" id="Clip50">
      <path d="M 0.7499999999999991 3.9999999999999982  C 0.7499999999999991 6.071067811865472  2.4289321881345236 7.7499999999999964  4.499999999999998 7.7499999999999964  C 6.571067811865474 7.7499999999999964  8.249999999999996 6.071067811865472  8.249999999999996 3.9999999999999982  C 8.249999999999996 1.9289321881345245  6.571067811865474 0.24999999999999822  4.499999999999998 0.24999999999999822  C 2.4289321881345236 0.24999999999999822  0.7499999999999991 1.9289321881345245  0.7499999999999991 3.9999999999999982  Z " fill-rule="evenodd" />
    </mask>
  </defs>
  <g transform="matrix(1 0 0 1 -548 -910 )">
    <path d="M 0.7499999999999991 3.9999999999999982  C 0.7499999999999991 6.071067811865472  2.4289321881345236 7.7499999999999964  4.499999999999998 7.7499999999999964  C 6.571067811865474 7.7499999999999964  8.249999999999996 6.071067811865472  8.249999999999996 3.9999999999999982  C 8.249999999999996 1.9289321881345245  6.571067811865474 0.24999999999999822  4.499999999999998 0.24999999999999822  C 2.4289321881345236 0.24999999999999822  0.7499999999999991 1.9289321881345245  0.7499999999999991 3.9999999999999982  Z " fill-rule="nonzero" fill="rgba(51, 51, 51, 1)" stroke="none" transform="matrix(1 0 0 1 548 910 )" class="fill" />
    <path d="M 0.7499999999999991 3.9999999999999982  C 0.7499999999999991 6.071067811865472  2.4289321881345236 7.7499999999999964  4.499999999999998 7.7499999999999964  C 6.571067811865474 7.7499999999999964  8.249999999999996 6.071067811865472  8.249999999999996 3.9999999999999982  C 8.249999999999996 1.9289321881345245  6.571067811865474 0.24999999999999822  4.499999999999998 0.24999999999999822  C 2.4289321881345236 0.24999999999999822  0.7499999999999991 1.9289321881345245  0.7499999999999991 3.9999999999999982  Z " stroke-width="0" stroke-dasharray="0" stroke="rgba(255, 255, 255, 0)" fill="none" transform="matrix(1 0 0 1 548 910 )" class="stroke" mask="url(#Clip50)" />
  </g>
</svg>