<?xml version="1.0" encoding="utf-8"?>
<svg version="1.1" xmlns:xlink="http://www.w3.org/1999/xlink" width="12px" height="12px" viewBox="262 407 12 12" xmlns="http://www.w3.org/2000/svg">
  <path d="M 268 407  C 271.36 407  274 409.64  274 413  C 274 416.36  271.36 419  268 419  C 264.64 419  262 416.36  262 413  C 262 409.64  264.64 407  268 407  Z " fill-rule="nonzero" fill="rgba(255, 255, 255, 1)" stroke="none" class="fill" />
  <path d="M 268 407.5  C 271.08 407.5  273.5 409.92  273.5 413  C 273.5 416.08  271.08 418.5  268 418.5  C 264.92 418.5  262.5 416.08  262.5 413  C 262.5 409.92  264.92 407.5  268 407.5  Z " stroke-width="1" stroke-dasharray="0" stroke="rgba(121, 121, 121, 1)" fill="none" class="stroke" stroke-dashoffset="0.5" />
  <path d="M 268 416  C 266.32 416  265 414.68  265 413  C 265 411.32  266.32 410  268 410  C 269.68 410  271 411.32  271 413  C 271 414.68  269.68 416  268 416  " fill-rule="nonzero" fill="rgba(121, 121, 121, 1)" stroke="none" class="stroke btn_check" />
</svg>