<?xml version="1.0" encoding="utf-8"?>
<svg version="1.1" xmlns:xlink="http://www.w3.org/1999/xlink" width="12px" height="12px" viewBox="162 491 12 12" xmlns="http://www.w3.org/2000/svg">
  <path d="M 168 491  C 171.36 491  174 493.64  174 497  C 174 500.36  171.36 503  168 503  C 164.64 503  162 500.36  162 497  C 162 493.64  164.64 491  168 491  Z " fill-rule="nonzero" fill="rgba(255, 255, 255, 1)" stroke="none" class="fill" />
  <path d="M 168 491.5  C 171.08 491.5  173.5 493.92  173.5 497  C 173.5 500.08  171.08 502.5  168 502.5  C 164.92 502.5  162.5 500.08  162.5 497  C 162.5 493.92  164.92 491.5  168 491.5  Z " stroke-width="1" stroke-dasharray="0" stroke="rgba(121, 121, 121, 1)" fill="none" class="stroke" stroke-dashoffset="0.5" />
  <path d="M 168 500  C 166.32 500  165 498.68  165 497  C 165 495.32  166.32 494  168 494  C 169.68 494  171 495.32  171 497  C 171 498.68  169.68 500  168 500  " fill-rule="nonzero" fill="rgba(121, 121, 121, 1)" stroke="none" class="stroke btn_check" />
</svg>