<?xml version="1.0" encoding="utf-8"?>
<svg version="1.1" xmlns:xlink="http://www.w3.org/1999/xlink" width="84px" height="30px" xmlns="http://www.w3.org/2000/svg">
  <defs>
    <mask fill="white" id="clip10">
      <path d="M 0 28  L 0 2  C 0 0.8799999999999955  0.6372413793103415 0  1.4482758620689655 0  L 82.55172413793103 0  C 83.36275862068966 0  84 0.8799999999999955  84 2  L 84 28  C 84 29.120000000000005  83.36275862068966 30  82.55172413793103 30  L 22.206896551725016 30  L 1.4482758620689655 30  C 0.6372413793103415 30  0 29.120000000000005  0 28  Z " fill-rule="evenodd" />
    </mask>
  </defs>
  <g transform="matrix(1 0 0 1 -547 -142 )">
    <path d="M 0 28  L 0 2  C 0 0.8799999999999955  0.6372413793103415 0  1.4482758620689655 0  L 82.55172413793103 0  C 83.36275862068966 0  84 0.8799999999999955  84 2  L 84 28  C 84 29.120000000000005  83.36275862068966 30  82.55172413793103 30  L 22.206896551725016 30  L 1.4482758620689655 30  C 0.6372413793103415 30  0 29.120000000000005  0 28  Z " fill-rule="nonzero" fill="#f2f2f2" stroke="none" transform="matrix(1 0 0 1 547 142 )" />
    <path d="M 0 28  L 0 2  C 0 0.8799999999999955  0.6372413793103415 0  1.4482758620689655 0  L 82.55172413793103 0  C 83.36275862068966 0  84 0.8799999999999955  84 2  L 84 28  C 84 29.120000000000005  83.36275862068966 30  82.55172413793103 30  L 22.206896551725016 30  L 1.4482758620689655 30  C 0.6372413793103415 30  0 29.120000000000005  0 28  Z " stroke-width="2" stroke="#d7d7d7" fill="none" transform="matrix(1 0 0 1 547 142 )" mask="url(#clip10)" />
  </g>
</svg>