<?xml version="1.0" encoding="utf-8"?>
<svg version="1.1" xmlns:xlink="http://www.w3.org/1999/xlink" width="84px" height="30px" xmlns="http://www.w3.org/2000/svg">
  <defs>
    <pattern id="BGPattern" patternUnits="userSpaceOnUse" alignment="0 0" imageRepeat="None" />
    <mask fill="white" id="Clip8">
      <path d="M 0 28  L 0 2  C 0 0.8799999999999955  0.6372413793103415 0  1.4482758620689655 0  L 82.55172413793103 0  C 83.36275862068966 0  84 0.8799999999999955  84 2  L 84 28  C 84 29.120000000000005  83.36275862068966 30  82.55172413793103 30  L 22.206896551725016 30  L 1.4482758620689655 30  C 0.6372413793103415 30  0 29.120000000000005  0 28  Z " fill-rule="evenodd" />
    </mask>
  </defs>
  <g transform="matrix(1 0 0 1 -547 -142 )">
    <path d="M 0 28  L 0 2  C 0 0.8799999999999955  0.6372413793103415 0  1.4482758620689655 0  L 82.55172413793103 0  C 83.36275862068966 0  84 0.8799999999999955  84 2  L 84 28  C 84 29.120000000000005  83.36275862068966 30  82.55172413793103 30  L 22.206896551725016 30  L 1.4482758620689655 30  C 0.6372413793103415 30  0 29.120000000000005  0 28  Z " fill-rule="nonzero" fill="rgba(242, 242, 242, 1)" stroke="none" transform="matrix(1 0 0 1 547 142 )" class="fill" />
    <path d="M 0 28  L 0 2  C 0 0.8799999999999955  0.6372413793103415 0  1.4482758620689655 0  L 82.55172413793103 0  C 83.36275862068966 0  84 0.8799999999999955  84 2  L 84 28  C 84 29.120000000000005  83.36275862068966 30  82.55172413793103 30  L 22.206896551725016 30  L 1.4482758620689655 30  C 0.6372413793103415 30  0 29.120000000000005  0 28  Z " stroke-width="2" stroke-dasharray="0" stroke="rgba(215, 215, 215, 1)" fill="none" transform="matrix(1 0 0 1 547 142 )" class="stroke" mask="url(#Clip8)" />
  </g>
</svg>