<?xml version="1.0" encoding="utf-8"?>
<svg version="1.1" xmlns:xlink="http://www.w3.org/1999/xlink" width="118px" height="30px" xmlns="http://www.w3.org/2000/svg">
  <defs>
    <pattern id="BGPattern" patternUnits="userSpaceOnUse" alignment="0 0" imageRepeat="None" />
    <mask fill="white" id="Clip24">
      <path d="M 0 28  L 0 2  C 0 0.8799999999999955  0.8951724137930989 0  2.0344827586206895 0  L 115.9655172413793 0  C 117.10482758620691 0  118 0.8799999999999955  118 2  L 118 28  C 118 29.120000000000005  117.10482758620691 30  115.9655172413793 30  L 31.195402298851807 30  L 2.0344827586206895 30  C 0.8951724137930989 30  0 29.120000000000005  0 28  Z " fill-rule="evenodd" />
    </mask>
  </defs>
  <g transform="matrix(1 0 0 1 -641 -142 )">
    <path d="M 0 28  L 0 2  C 0 0.8799999999999955  0.8951724137930989 0  2.0344827586206895 0  L 115.9655172413793 0  C 117.10482758620691 0  118 0.8799999999999955  118 2  L 118 28  C 118 29.120000000000005  117.10482758620691 30  115.9655172413793 30  L 31.195402298851807 30  L 2.0344827586206895 30  C 0.8951724137930989 30  0 29.120000000000005  0 28  Z " fill-rule="nonzero" fill="rgba(145, 0, 18, 1)" stroke="none" transform="matrix(1 0 0 1 641 142 )" class="fill" />
    <path d="M 0 28  L 0 2  C 0 0.8799999999999955  0.8951724137930989 0  2.0344827586206895 0  L 115.9655172413793 0  C 117.10482758620691 0  118 0.8799999999999955  118 2  L 118 28  C 118 29.120000000000005  117.10482758620691 30  115.9655172413793 30  L 31.195402298851807 30  L 2.0344827586206895 30  C 0.8951724137930989 30  0 29.120000000000005  0 28  Z " stroke-width="0" stroke-dasharray="0" stroke="rgba(215, 215, 215, 1)" fill="none" transform="matrix(1 0 0 1 641 142 )" class="stroke" mask="url(#Clip24)" />
  </g>
</svg>