<?xml version="1.0" encoding="utf-8"?>
<svg version="1.1" xmlns:xlink="http://www.w3.org/1999/xlink" width="12px" height="12px" viewBox="274 787 12 12" xmlns="http://www.w3.org/2000/svg">
  <path d="M 280 787  C 283.36 787  286 789.64  286 793  C 286 796.36  283.36 799  280 799  C 276.64 799  274 796.36  274 793  C 274 789.64  276.64 787  280 787  Z " fill-rule="nonzero" fill="rgba(255, 255, 255, 1)" stroke="none" class="fill" />
  <path d="M 280 787.5  C 283.08 787.5  285.5 789.92  285.5 793  C 285.5 796.08  283.08 798.5  280 798.5  C 276.92 798.5  274.5 796.08  274.5 793  C 274.5 789.92  276.92 787.5  280 787.5  Z " stroke-width="1" stroke-dasharray="0" stroke="rgba(121, 121, 121, 1)" fill="none" class="stroke" stroke-dashoffset="0.5" />
  <path d="M 280 796  C 278.32 796  277 794.68  277 793  C 277 791.32  278.32 790  280 790  C 281.68 790  283 791.32  283 793  C 283 794.68  281.68 796  280 796  " fill-rule="nonzero" fill="rgba(121, 121, 121, 1)" stroke="none" class="stroke btn_check" />
</svg>