<?xml version="1.0" encoding="utf-8"?>
<svg version="1.1" xmlns:xlink="http://www.w3.org/1999/xlink" width="12px" height="12px" viewBox="274 813 12 12" xmlns="http://www.w3.org/2000/svg">
  <path d="M 280 813  C 283.36 813  286 815.64  286 819  C 286 822.36  283.36 825  280 825  C 276.64 825  274 822.36  274 819  C 274 815.64  276.64 813  280 813  Z " fill-rule="nonzero" fill="rgba(255, 255, 255, 1)" stroke="none" class="fill" />
  <path d="M 280 813.5  C 283.08 813.5  285.5 815.92  285.5 819  C 285.5 822.08  283.08 824.5  280 824.5  C 276.92 824.5  274.5 822.08  274.5 819  C 274.5 815.92  276.92 813.5  280 813.5  Z " stroke-width="1" stroke-dasharray="0" stroke="rgba(121, 121, 121, 1)" fill="none" class="stroke" stroke-dashoffset="0.5" />
  <path d="M 280 822  C 278.32 822  277 820.68  277 819  C 277 817.32  278.32 816  280 816  C 281.68 816  283 817.32  283 819  C 283 820.68  281.68 822  280 822  " fill-rule="nonzero" fill="rgba(121, 121, 121, 1)" stroke="none" class="stroke btn_check" />
</svg>