<?xml version="1.0" encoding="utf-8"?>
<svg version="1.1" xmlns:xlink="http://www.w3.org/1999/xlink" width="16px" height="15px" xmlns="http://www.w3.org/2000/svg">
  <defs>
    <pattern id="BGPattern" patternUnits="userSpaceOnUse" alignment="0 0" imageRepeat="None" />
    <mask fill="white" id="Clip6">
      <path d="M 15.384711538461538 8.317499999999999  C 15.384711538461538 8.036249999999999  15.27125 7.7700000000000005  15.06548076923077 7.569375  L 8.507788461538462 1.18125  L 8.070288461538462 0.75  C 7.861763950396594 0.547874223306514  7.524966818834177 0.5478742233065146  7.316442307692308 0.75  L 0.319326923076923 7.569375  C 0.11192879547178979 7.7707350225315235  -0.0031989585185731167 8.045273103357337  9.615384615384615E-05 8.330625000000001  C 0.012169522410253967 8.914269665332922  0.5023323427587478 9.380491563648237  1.1010576923076925 9.377812500000001  L 1.8222115384615383 9.377812500000001  L 1.8222115384615383 14.766562500000001  L 13.562596153846155 14.766562500000001  L 13.562596153846155 9.377812500000001  L 14.299134615384617 9.377812500000001  C 14.588557692307692 9.377812500000001  14.861634615384615 9.267187499999999  15.067403846153846 9.0675  C 15.273173076923078 8.866875  15.384711538461538 8.600625  15.384711538461538 8.317499999999999  Z M 8.642403846153845 10.200937500000002  L 8.642403846153847 13.575937500000002  L 6.742403846153847 13.575937500000002  L 6.742403846153847 10.200937500000002  L 8.642403846153845 10.200937500000002  Z M 13.97028846153846 8.187187499999999  L 12.34048076923077 8.187187499999999  L 12.34048076923077 13.575937500000002  L 9.728942307692309 13.575937500000002  L 9.728942307692309 9.803437500000001  C 9.728942307692309 9.437894031205746  9.425012532096675 9.1415625  9.050096153846157 9.1415625  L 6.334711538461538 9.1415625  C 5.959795160211019 9.1415625  5.655865384615385 9.437894031205746  5.6558653846153835 9.803437500000001  L 5.6558653846153835 13.575937500000002  L 3.044326923076923 13.575937500000002  L 3.044326923076923 8.187187499999999  L 1.4154807692307694 8.187187499999999  L 7.694326923076924 2.07  L 8.085673076923078 2.4524999999999997  L 13.97028846153846 8.187187499999999  Z " fill-rule="evenodd" />
    </mask>
  </defs>
  <g transform="matrix(1 0 0 1 -159 -8 )">
    <path d="M 15.384711538461538 8.317499999999999  C 15.384711538461538 8.036249999999999  15.27125 7.7700000000000005  15.06548076923077 7.569375  L 8.507788461538462 1.18125  L 8.070288461538462 0.75  C 7.861763950396594 0.547874223306514  7.524966818834177 0.5478742233065146  7.316442307692308 0.75  L 0.319326923076923 7.569375  C 0.11192879547178979 7.7707350225315235  -0.0031989585185731167 8.045273103357337  9.615384615384615E-05 8.330625000000001  C 0.012169522410253967 8.914269665332922  0.5023323427587478 9.380491563648237  1.1010576923076925 9.377812500000001  L 1.8222115384615383 9.377812500000001  L 1.8222115384615383 14.766562500000001  L 13.562596153846155 14.766562500000001  L 13.562596153846155 9.377812500000001  L 14.299134615384617 9.377812500000001  C 14.588557692307692 9.377812500000001  14.861634615384615 9.267187499999999  15.067403846153846 9.0675  C 15.273173076923078 8.866875  15.384711538461538 8.600625  15.384711538461538 8.317499999999999  Z M 8.642403846153845 10.200937500000002  L 8.642403846153847 13.575937500000002  L 6.742403846153847 13.575937500000002  L 6.742403846153847 10.200937500000002  L 8.642403846153845 10.200937500000002  Z M 13.97028846153846 8.187187499999999  L 12.34048076923077 8.187187499999999  L 12.34048076923077 13.575937500000002  L 9.728942307692309 13.575937500000002  L 9.728942307692309 9.803437500000001  C 9.728942307692309 9.437894031205746  9.425012532096675 9.1415625  9.050096153846157 9.1415625  L 6.334711538461538 9.1415625  C 5.959795160211019 9.1415625  5.655865384615385 9.437894031205746  5.6558653846153835 9.803437500000001  L 5.6558653846153835 13.575937500000002  L 3.044326923076923 13.575937500000002  L 3.044326923076923 8.187187499999999  L 1.4154807692307694 8.187187499999999  L 7.694326923076924 2.07  L 8.085673076923078 2.4524999999999997  L 13.97028846153846 8.187187499999999  Z " fill-rule="nonzero" fill="rgba(127, 127, 127, 1)" stroke="none" transform="matrix(1 0 0 1 159 8 )" class="fill" />
    <path d="M 15.384711538461538 8.317499999999999  C 15.384711538461538 8.036249999999999  15.27125 7.7700000000000005  15.06548076923077 7.569375  L 8.507788461538462 1.18125  L 8.070288461538462 0.75  C 7.861763950396594 0.547874223306514  7.524966818834177 0.5478742233065146  7.316442307692308 0.75  L 0.319326923076923 7.569375  C 0.11192879547178979 7.7707350225315235  -0.0031989585185731167 8.045273103357337  9.615384615384615E-05 8.330625000000001  C 0.012169522410253967 8.914269665332922  0.5023323427587478 9.380491563648237  1.1010576923076925 9.377812500000001  L 1.8222115384615383 9.377812500000001  L 1.8222115384615383 14.766562500000001  L 13.562596153846155 14.766562500000001  L 13.562596153846155 9.377812500000001  L 14.299134615384617 9.377812500000001  C 14.588557692307692 9.377812500000001  14.861634615384615 9.267187499999999  15.067403846153846 9.0675  C 15.273173076923078 8.866875  15.384711538461538 8.600625  15.384711538461538 8.317499999999999  Z " stroke-width="0" stroke-dasharray="0" stroke="rgba(255, 255, 255, 0)" fill="none" transform="matrix(1 0 0 1 159 8 )" class="stroke" mask="url(#Clip6)" />
    <path d="M 8.642403846153845 10.200937500000002  L 8.642403846153847 13.575937500000002  L 6.742403846153847 13.575937500000002  L 6.742403846153847 10.200937500000002  L 8.642403846153845 10.200937500000002  Z " stroke-width="0" stroke-dasharray="0" stroke="rgba(255, 255, 255, 0)" fill="none" transform="matrix(1 0 0 1 159 8 )" class="stroke" mask="url(#Clip6)" />
    <path d="M 13.97028846153846 8.187187499999999  L 12.34048076923077 8.187187499999999  L 12.34048076923077 13.575937500000002  L 9.728942307692309 13.575937500000002  L 9.728942307692309 9.803437500000001  C 9.728942307692309 9.437894031205746  9.425012532096675 9.1415625  9.050096153846157 9.1415625  L 6.334711538461538 9.1415625  C 5.959795160211019 9.1415625  5.655865384615385 9.437894031205746  5.6558653846153835 9.803437500000001  L 5.6558653846153835 13.575937500000002  L 3.044326923076923 13.575937500000002  L 3.044326923076923 8.187187499999999  L 1.4154807692307694 8.187187499999999  L 7.694326923076924 2.07  L 8.085673076923078 2.4524999999999997  L 13.97028846153846 8.187187499999999  Z " stroke-width="0" stroke-dasharray="0" stroke="rgba(255, 255, 255, 0)" fill="none" transform="matrix(1 0 0 1 159 8 )" class="stroke" mask="url(#Clip6)" />
  </g>
</svg>