<?xml version="1.0" encoding="utf-8"?>
<svg version="1.1" xmlns:xlink="http://www.w3.org/1999/xlink" width="12px" height="12px" viewBox="107 267 12 12" xmlns="http://www.w3.org/2000/svg">
  <path d="M 113 267  C 116.36 267  119 269.64  119 273  C 119 276.36  116.36 279  113 279  C 109.64 279  107 276.36  107 273  C 107 269.64  109.64 267  113 267  Z " fill-rule="nonzero" fill="rgba(240, 240, 240, 1)" stroke="none" class="fill" />
  <path d="M 113 267.5  C 116.08 267.5  118.5 269.92  118.5 273  C 118.5 276.08  116.08 278.5  113 278.5  C 109.92 278.5  107.5 276.08  107.5 273  C 107.5 269.92  109.92 267.5  113 267.5  Z " stroke-width="1" stroke-dasharray="0" stroke="rgba(121, 121, 121, 1)" fill="none" class="stroke" stroke-dashoffset="0.5" />
  <path d="M 113 276  C 111.32 276  110 274.68  110 273  C 110 271.32  111.32 270  113 270  C 114.68 270  116 271.32  116 273  C 116 274.68  114.68 276  113 276  " fill-rule="nonzero" fill="rgba(121, 121, 121, 1)" stroke="none" class="stroke btn_check" />
</svg>