<?xml version="1.0" encoding="utf-8"?>
<svg version="1.1" xmlns:xlink="http://www.w3.org/1999/xlink" width="12px" height="12px" viewBox="107 235 12 12" xmlns="http://www.w3.org/2000/svg">
  <path d="M 113 235  C 116.36 235  119 237.64  119 241  C 119 244.36  116.36 247  113 247  C 109.64 247  107 244.36  107 241  C 107 237.64  109.64 235  113 235  Z " fill-rule="nonzero" fill="rgba(255, 255, 255, 1)" stroke="none" class="fill" />
  <path d="M 113 235.5  C 116.08 235.5  118.5 237.92  118.5 241  C 118.5 244.08  116.08 246.5  113 246.5  C 109.92 246.5  107.5 244.08  107.5 241  C 107.5 237.92  109.92 235.5  113 235.5  Z " stroke-width="1" stroke-dasharray="0" stroke="rgba(121, 121, 121, 1)" fill="none" class="stroke" stroke-dashoffset="0.5" />
  <path d="M 113 244  C 111.32 244  110 242.68  110 241  C 110 239.32  111.32 238  113 238  C 114.68 238  116 239.32  116 241  C 116 242.68  114.68 244  113 244  " fill-rule="nonzero" fill="rgba(121, 121, 121, 1)" stroke="none" class="stroke btn_check" />
</svg>