<?xml version="1.0" encoding="utf-8"?>
<svg version="1.1" xmlns:xlink="http://www.w3.org/1999/xlink" width="12px" height="12px" viewBox="157 118 12 12" xmlns="http://www.w3.org/2000/svg">
  <path d="M 163 118  C 166.36 118  169 120.64  169 124  C 169 127.36  166.36 130  163 130  C 159.64 130  157 127.36  157 124  C 157 120.64  159.64 118  163 118  Z " fill-rule="nonzero" fill="rgba(255, 255, 255, 1)" stroke="none" class="fill" />
  <path d="M 163 118.5  C 166.08 118.5  168.5 120.92  168.5 124  C 168.5 127.08  166.08 129.5  163 129.5  C 159.92 129.5  157.5 127.08  157.5 124  C 157.5 120.92  159.92 118.5  163 118.5  Z " stroke-width="1" stroke-dasharray="0" stroke="rgba(121, 121, 121, 1)" fill="none" class="stroke" stroke-dashoffset="0.5" />
  <path d="M 163 127  C 161.32 127  160 125.68  160 124  C 160 122.32  161.32 121  163 121  C 164.68 121  166 122.32  166 124  C 166 125.68  164.68 127  163 127  " fill-rule="nonzero" fill="rgba(121, 121, 121, 1)" stroke="none" class="stroke btn_check" />
</svg>