<?xml version="1.0" encoding="utf-8"?>
<svg version="1.1" xmlns:xlink="http://www.w3.org/1999/xlink" width="12px" height="12px" viewBox="696 76 12 12" xmlns="http://www.w3.org/2000/svg">
  <path d="M 702 76  C 705.36 76  708 78.64  708 82  C 708 85.36  705.36 88  702 88  C 698.64 88  696 85.36  696 82  C 696 78.64  698.64 76  702 76  Z " fill-rule="nonzero" fill="rgba(255, 255, 255, 1)" stroke="none" class="fill" />
  <path d="M 702 76.5  C 705.08 76.5  707.5 78.92  707.5 82  C 707.5 85.08  705.08 87.5  702 87.5  C 698.92 87.5  696.5 85.08  696.5 82  C 696.5 78.92  698.92 76.5  702 76.5  Z " stroke-width="1" stroke-dasharray="0" stroke="rgba(121, 121, 121, 1)" fill="none" class="stroke" stroke-dashoffset="0.5" />
  <path d="M 702 85  C 700.32 85  699 83.68  699 82  C 699 80.32  700.32 79  702 79  C 703.68 79  705 80.32  705 82  C 705 83.68  703.68 85  702 85  " fill-rule="nonzero" fill="rgba(121, 121, 121, 1)" stroke="none" class="stroke btn_check" />
</svg>