<?xml version="1.0" encoding="utf-8"?>
<svg version="1.1" xmlns:xlink="http://www.w3.org/1999/xlink" width="12px" height="13px" xmlns="http://www.w3.org/2000/svg">
  <defs>
    <pattern id="BGPattern" patternUnits="userSpaceOnUse" alignment="0 0" imageRepeat="None" />
    <mask fill="white" id="Clip109">
      <path d="M 0.07435344827586304 11.8485456482438  L 0 11.848461712293389  L 0 1.1711583163255417  C 0.07421875 0.580249225416451  0.6830010775862076 0.10235989173876467  1.441594827586206 0.10235989152892469  C 1.7943157330280173 0.10235989152892469  2.113254310344828 0.2077834452479333  2.3548760775862076 0.3770822572314042  L 11.4 5.6573460098140504  C 11.999137931034483 6.0111150568181815  12.124811422413792 6.677314695247935  11.670581896551727 7.147712745351241  C 11.593238146821124 7.230536544421488  11.501373922413794 7.3020499741735545  11.39997306034483 7.358496900826445  L 2.258324353448278 12.6991315857438  C 1.6591594827586236 13.049060563016528  0.7992726293103452 12.95498934659091  0.34981142241379504 12.484570312499999  C 0.16134159482758856 12.292566825929752  0.07435344827586304 12.070556237086777  0.07435344827586304 11.8485456482438  Z " fill-rule="evenodd" />
    </mask>
  </defs>
  <g transform="matrix(1 0 0 1 -116 -353 )">
    <path d="M 0.07435344827586304 11.8485456482438  L 0 11.848461712293389  L 0 1.1711583163255417  C 0.07421875 0.580249225416451  0.6830010775862076 0.10235989173876467  1.441594827586206 0.10235989152892469  C 1.7943157330280173 0.10235989152892469  2.113254310344828 0.2077834452479333  2.3548760775862076 0.3770822572314042  L 11.4 5.6573460098140504  C 11.999137931034483 6.0111150568181815  12.124811422413792 6.677314695247935  11.670581896551727 7.147712745351241  C 11.593238146821124 7.230536544421488  11.501373922413794 7.3020499741735545  11.39997306034483 7.358496900826445  L 2.258324353448278 12.6991315857438  C 1.6591594827586236 13.049060563016528  0.7992726293103452 12.95498934659091  0.34981142241379504 12.484570312499999  C 0.16134159482758856 12.292566825929752  0.07435344827586304 12.070556237086777  0.07435344827586304 11.8485456482438  Z " fill-rule="nonzero" fill="rgba(0, 0, 0, 1)" stroke="none" transform="matrix(1 0 0 1 116 353 )" class="fill" />
    <path d="M 0.07435344827586304 11.8485456482438  L 0 11.848461712293389  L 0 1.1711583163255417  C 0.07421875 0.580249225416451  0.6830010775862076 0.10235989173876467  1.441594827586206 0.10235989152892469  C 1.7943157330280173 0.10235989152892469  2.113254310344828 0.2077834452479333  2.3548760775862076 0.3770822572314042  L 11.4 5.6573460098140504  C 11.999137931034483 6.0111150568181815  12.124811422413792 6.677314695247935  11.670581896551727 7.147712745351241  C 11.593238146821124 7.230536544421488  11.501373922413794 7.3020499741735545  11.39997306034483 7.358496900826445  L 2.258324353448278 12.6991315857438  C 1.6591594827586236 13.049060563016528  0.7992726293103452 12.95498934659091  0.34981142241379504 12.484570312499999  C 0.16134159482758856 12.292566825929752  0.07435344827586304 12.070556237086777  0.07435344827586304 11.8485456482438  Z " stroke-width="0" stroke-dasharray="0" stroke="rgba(255, 255, 255, 0)" fill="none" transform="matrix(1 0 0 1 116 353 )" class="stroke" mask="url(#Clip109)" />
  </g>
</svg>