<?xml version="1.0" encoding="utf-8"?>
<svg version="1.1" xmlns:xlink="http://www.w3.org/1999/xlink" width="17px" height="17px" xmlns="http://www.w3.org/2000/svg">
  <defs>
    <pattern id="BGPattern" patternUnits="userSpaceOnUse" alignment="0 0" imageRepeat="None" />
    <mask fill="white" id="Clip108">
      <path d="M 14.995758648792611 16.634681229188008  L 12.154933352272725 13.719986541047643  C 11.762115903764203 13.316846008901123  11.80600457919034 12.703016516713626  12.253015051491472 12.348836822809938  C 12.700134550781247 11.994558825883708  13.380927260298295 12.034130609631145  13.77385376598011 12.43727114177766  L 16.614679062499995 15.351916705622434  C 17.007496511008526 15.755057237768954  16.963716862571022 16.36898506019467  16.51659736328125 16.72316469966701  C 16.069477863991477 17.077442696593234  15.38868515447443 17.037772609823254  14.995758648792611 16.634681229188008  Z M 16.295082111150567 7.4804270683913945  C 16.295082111150567 11.542309973744874  12.655755133167613 14.836746244236682  8.164333249289772 14.836746271452355  C 3.672693281250001 14.836746271452359  0.033475360440341134 11.542260822233606  0.033475360440341134 7.4804270683913945  C 0.033475360440341134 3.418544163037908  3.672693281250001 0.12415704405737747  8.164333249289774 0.12415704405737747  C 12.655755163352273 0.12415704405737747  16.295082111150567 3.4185441630379096  16.295082111150567 7.4804270683913945  Z M 2.188655642755682 7.4804270683913945  C 2.188655642755682 10.47087346151383  4.864939231178977 12.893550907722851  8.164333249289772 12.893550907722846  C 11.463618240411929 12.893550907722846  14.139847315340909 10.470824310002559  14.139847315340909 7.48042706839139  C 14.139847315340909 4.490029826780223  11.46361824041193 2.067401559298155  8.164333249289774 2.067401559298155  C 4.864939231178977 2.067401559298155  2.188655642755682 4.490029853995902  2.188655642755682 7.4804270683913945  Z " fill-rule="evenodd" />
    </mask>
  </defs>
  <g transform="matrix(1 0 0 1 -371 -323 )">
    <path d="M 14.995758648792611 16.634681229188008  L 12.154933352272725 13.719986541047643  C 11.762115903764203 13.316846008901123  11.80600457919034 12.703016516713626  12.253015051491472 12.348836822809938  C 12.700134550781247 11.994558825883708  13.380927260298295 12.034130609631145  13.77385376598011 12.43727114177766  L 16.614679062499995 15.351916705622434  C 17.007496511008526 15.755057237768954  16.963716862571022 16.36898506019467  16.51659736328125 16.72316469966701  C 16.069477863991477 17.077442696593234  15.38868515447443 17.037772609823254  14.995758648792611 16.634681229188008  Z M 16.295082111150567 7.4804270683913945  C 16.295082111150567 11.542309973744874  12.655755133167613 14.836746244236682  8.164333249289772 14.836746271452355  C 3.672693281250001 14.836746271452359  0.033475360440341134 11.542260822233606  0.033475360440341134 7.4804270683913945  C 0.033475360440341134 3.418544163037908  3.672693281250001 0.12415704405737747  8.164333249289774 0.12415704405737747  C 12.655755163352273 0.12415704405737747  16.295082111150567 3.4185441630379096  16.295082111150567 7.4804270683913945  Z M 2.188655642755682 7.4804270683913945  C 2.188655642755682 10.47087346151383  4.864939231178977 12.893550907722851  8.164333249289772 12.893550907722846  C 11.463618240411929 12.893550907722846  14.139847315340909 10.470824310002559  14.139847315340909 7.48042706839139  C 14.139847315340909 4.490029826780223  11.46361824041193 2.067401559298155  8.164333249289774 2.067401559298155  C 4.864939231178977 2.067401559298155  2.188655642755682 4.490029853995902  2.188655642755682 7.4804270683913945  Z " fill-rule="nonzero" fill="rgba(127, 127, 127, 1)" stroke="none" transform="matrix(1 0 0 1 371 323 )" class="fill" />
    <path d="M 14.995758648792611 16.634681229188008  L 12.154933352272725 13.719986541047643  C 11.762115903764203 13.316846008901123  11.80600457919034 12.703016516713626  12.253015051491472 12.348836822809938  C 12.700134550781247 11.994558825883708  13.380927260298295 12.034130609631145  13.77385376598011 12.43727114177766  L 16.614679062499995 15.351916705622434  C 17.007496511008526 15.755057237768954  16.963716862571022 16.36898506019467  16.51659736328125 16.72316469966701  C 16.069477863991477 17.077442696593234  15.38868515447443 17.037772609823254  14.995758648792611 16.634681229188008  Z " stroke-width="0" stroke-dasharray="0" stroke="rgba(255, 255, 255, 0)" fill="none" transform="matrix(1 0 0 1 371 323 )" class="stroke" mask="url(#Clip108)" />
    <path d="M 16.295082111150567 7.4804270683913945  C 16.295082111150567 11.542309973744874  12.655755133167613 14.836746244236682  8.164333249289772 14.836746271452355  C 3.672693281250001 14.836746271452359  0.033475360440341134 11.542260822233606  0.033475360440341134 7.4804270683913945  C 0.033475360440341134 3.418544163037908  3.672693281250001 0.12415704405737747  8.164333249289774 0.12415704405737747  C 12.655755163352273 0.12415704405737747  16.295082111150567 3.4185441630379096  16.295082111150567 7.4804270683913945  Z " stroke-width="0" stroke-dasharray="0" stroke="rgba(255, 255, 255, 0)" fill="none" transform="matrix(1 0 0 1 371 323 )" class="stroke" mask="url(#Clip108)" />
    <path d="M 2.188655642755682 7.4804270683913945  C 2.188655642755682 10.47087346151383  4.864939231178977 12.893550907722851  8.164333249289772 12.893550907722846  C 11.463618240411929 12.893550907722846  14.139847315340909 10.470824310002559  14.139847315340909 7.48042706839139  C 14.139847315340909 4.490029826780223  11.46361824041193 2.067401559298155  8.164333249289774 2.067401559298155  C 4.864939231178977 2.067401559298155  2.188655642755682 4.490029853995902  2.188655642755682 7.4804270683913945  Z " stroke-width="0" stroke-dasharray="0" stroke="rgba(255, 255, 255, 0)" fill="none" transform="matrix(1 0 0 1 371 323 )" class="stroke" mask="url(#Clip108)" />
  </g>
</svg>