<?xml version="1.0" encoding="utf-8"?>
<svg version="1.1" xmlns:xlink="http://www.w3.org/1999/xlink" width="14px" height="14px" xmlns="http://www.w3.org/2000/svg">
  <defs>
    <pattern id="BGPattern" patternUnits="userSpaceOnUse" alignment="0 0" imageRepeat="None" />
    <mask fill="white" id="Clip112">
      <path d="M 13.639272033270469 0.3097465940241233  L 13.639272033270473 0.31111111910635947  C 13.995081686197427 0.6838664590235082  13.995081686197427 1.2769522704172809  13.639272033270473 1.6497076103344304  L 8.298084280711208 7.002729050164474  L 13.458237550511855 12.172904488760965  C 13.802793899225763 12.534414181082962  13.802793899225763 13.10905560715717  13.458237550511852 13.470565299479164  C 13.092977661328069 13.815525592722716  12.528095132987664 13.815525592722716  12.16283524380388 13.470565299479166  L 7.002681997575431 8.301754385964912  L 1.6279693460398714 13.691617931058115  C 1.25189354467031 14.048656133608603  0.668412971358784 14.048656133608603  0.29233716998922443 13.691617931058115  C -0.06260501358652948 13.319034334188462  -0.06260501358652948 12.726969561781928  0.29233716998922443 12.35438596491228  L 5.667049797952587 6.96452241981908  L 0.508237550511854 1.7929824561403518  C 0.16454734098253304 1.4316452844911076  0.16454734098253304 0.8580233421536312  0.508237550511854 0.49668617050438696  C 0.873240877707706 0.1510614845446266  1.4386365300239763 0.15106148454462748  1.8036398572198284 0.49668617050438696  L 6.962452104660561 5.662768033854168  L 12.304980832435344 0.3097465940241233  C 12.680868478438102 -0.04644367627466369  13.263384387267715 -0.046443676274664565  13.639272033270469 0.3097465940241233  Z " fill-rule="evenodd" />
    </mask>
  </defs>
  <g transform="matrix(1 0 0 1 -27 -12 )">
    <path d="M 13.639272033270469 0.3097465940241233  L 13.639272033270473 0.31111111910635947  C 13.995081686197427 0.6838664590235082  13.995081686197427 1.2769522704172809  13.639272033270473 1.6497076103344304  L 8.298084280711208 7.002729050164474  L 13.458237550511855 12.172904488760965  C 13.802793899225763 12.534414181082962  13.802793899225763 13.10905560715717  13.458237550511852 13.470565299479164  C 13.092977661328069 13.815525592722716  12.528095132987664 13.815525592722716  12.16283524380388 13.470565299479166  L 7.002681997575431 8.301754385964912  L 1.6279693460398714 13.691617931058115  C 1.25189354467031 14.048656133608603  0.668412971358784 14.048656133608603  0.29233716998922443 13.691617931058115  C -0.06260501358652948 13.319034334188462  -0.06260501358652948 12.726969561781928  0.29233716998922443 12.35438596491228  L 5.667049797952587 6.96452241981908  L 0.508237550511854 1.7929824561403518  C 0.16454734098253304 1.4316452844911076  0.16454734098253304 0.8580233421536312  0.508237550511854 0.49668617050438696  C 0.873240877707706 0.1510614845446266  1.4386365300239763 0.15106148454462748  1.8036398572198284 0.49668617050438696  L 6.962452104660561 5.662768033854168  L 12.304980832435344 0.3097465940241233  C 12.680868478438102 -0.04644367627466369  13.263384387267715 -0.046443676274664565  13.639272033270469 0.3097465940241233  Z " fill-rule="nonzero" fill="rgba(255, 255, 255, 1)" stroke="none" transform="matrix(1 0 0 1 27 12 )" class="fill" />
    <path d="M 13.639272033270469 0.3097465940241233  L 13.639272033270473 0.31111111910635947  C 13.995081686197427 0.6838664590235082  13.995081686197427 1.2769522704172809  13.639272033270473 1.6497076103344304  L 8.298084280711208 7.002729050164474  L 13.458237550511855 12.172904488760965  C 13.802793899225763 12.534414181082962  13.802793899225763 13.10905560715717  13.458237550511852 13.470565299479164  C 13.092977661328069 13.815525592722716  12.528095132987664 13.815525592722716  12.16283524380388 13.470565299479166  L 7.002681997575431 8.301754385964912  L 1.6279693460398714 13.691617931058115  C 1.25189354467031 14.048656133608603  0.668412971358784 14.048656133608603  0.29233716998922443 13.691617931058115  C -0.06260501358652948 13.319034334188462  -0.06260501358652948 12.726969561781928  0.29233716998922443 12.35438596491228  L 5.667049797952587 6.96452241981908  L 0.508237550511854 1.7929824561403518  C 0.16454734098253304 1.4316452844911076  0.16454734098253304 0.8580233421536312  0.508237550511854 0.49668617050438696  C 0.873240877707706 0.1510614845446266  1.4386365300239763 0.15106148454462748  1.8036398572198284 0.49668617050438696  L 6.962452104660561 5.662768033854168  L 12.304980832435344 0.3097465940241233  C 12.680868478438102 -0.04644367627466369  13.263384387267715 -0.046443676274664565  13.639272033270469 0.3097465940241233  Z " stroke-width="0" stroke-dasharray="0" stroke="rgba(255, 255, 255, 0)" fill="none" transform="matrix(1 0 0 1 27 12 )" class="stroke" mask="url(#Clip112)" />
  </g>
</svg>