<?xml version="1.0" encoding="utf-8"?>
<svg version="1.1" xmlns:xlink="http://www.w3.org/1999/xlink" width="7px" height="5px" xmlns="http://www.w3.org/2000/svg">
  <defs>
    <pattern id="BGPattern" patternUnits="userSpaceOnUse" alignment="0 0" imageRepeat="None" />
    <mask fill="white" id="Clip117">
      <path d="M 0.5798765791223406 0.026302562040441124  L 6.393477809175531 0.026302562040441124  C 6.715195935837766 0.026302562040441124  6.97542698636968 0.2812356387867649  6.975419714095745 0.5989056755514708  C 6.975419714095745 0.7466107536764708  6.918026928191488 0.8801700367647063  6.82583631150266 0.981351964613971  L 3.9508228058510646 4.769143497242647  C 3.758202086103724 5.020041073069853  3.3954683344414898 5.072674919577206  3.139346118683511 4.8824606502757355  C 3.0942507480053196 4.850076114430148  3.0553149933510646 4.8116024241727935  3.0245750914228733 4.769136316636029  L 0.11670545212766023 0.940932329963235  C -0.0738208527260632 0.6900060317095589  -0.02260222739361634 0.32993451286764675  0.23352726063829846 0.14170927159926444  C 0.33806619847074526 0.06278722426470573  0.4589459358377666 0.02636000689338225  0.5798256732047877 0.02636000689338225  Z " fill-rule="evenodd" />
    </mask>
  </defs>
  <g transform="matrix(1 0 0 1 -142 -509 )">
    <path d="M 0.5798765791223406 0.026302562040441124  L 6.393477809175531 0.026302562040441124  C 6.715195935837766 0.026302562040441124  6.97542698636968 0.2812356387867649  6.975419714095745 0.5989056755514708  C 6.975419714095745 0.7466107536764708  6.918026928191488 0.8801700367647063  6.82583631150266 0.981351964613971  L 3.9508228058510646 4.769143497242647  C 3.758202086103724 5.020041073069853  3.3954683344414898 5.072674919577206  3.139346118683511 4.8824606502757355  C 3.0942507480053196 4.850076114430148  3.0553149933510646 4.8116024241727935  3.0245750914228733 4.769136316636029  L 0.11670545212766023 0.940932329963235  C -0.0738208527260632 0.6900060317095589  -0.02260222739361634 0.32993451286764675  0.23352726063829846 0.14170927159926444  C 0.33806619847074526 0.06278722426470573  0.4589459358377666 0.02636000689338225  0.5798256732047877 0.02636000689338225  Z " fill-rule="nonzero" fill="rgba(0, 0, 0, 1)" stroke="none" transform="matrix(1 0 0 1 142 509 )" class="fill" />
    <path d="M 0.5798765791223406 0.026302562040441124  L 6.393477809175531 0.026302562040441124  C 6.715195935837766 0.026302562040441124  6.97542698636968 0.2812356387867649  6.975419714095745 0.5989056755514708  C 6.975419714095745 0.7466107536764708  6.918026928191488 0.8801700367647063  6.82583631150266 0.981351964613971  L 3.9508228058510646 4.769143497242647  C 3.758202086103724 5.020041073069853  3.3954683344414898 5.072674919577206  3.139346118683511 4.8824606502757355  C 3.0942507480053196 4.850076114430148  3.0553149933510646 4.8116024241727935  3.0245750914228733 4.769136316636029  L 0.11670545212766023 0.940932329963235  C -0.0738208527260632 0.6900060317095589  -0.02260222739361634 0.32993451286764675  0.23352726063829846 0.14170927159926444  C 0.33806619847074526 0.06278722426470573  0.4589459358377666 0.02636000689338225  0.5798256732047877 0.02636000689338225  Z " stroke-width="0" stroke-dasharray="0" stroke="rgba(255, 255, 255, 0)" fill="none" transform="matrix(1 0 0 1 142 509 )" class="stroke" mask="url(#Clip117)" />
  </g>
</svg>