<?xml version="1.0" encoding="utf-8"?>
<svg version="1.1" xmlns:xlink="http://www.w3.org/1999/xlink" width="68px" height="14px" xmlns="http://www.w3.org/2000/svg">
  <defs>
    <pattern id="BGPattern" patternUnits="userSpaceOnUse" alignment="0 0" imageRepeat="None" />
    <mask fill="white" id="Clip110">
      <path d="M 0 14  L 0 0  L 18.090566037736316 0  L 36.56603773584906 0  L 46.9584905660382 0  L 50.42264150943303 0  L 68 0  L 68 14  L 50.42264150943303 14  L 18.090566037736316 14  L 0 14  Z " fill-rule="evenodd" />
    </mask>
  </defs>
  <g>
    <path d="M 0 14  L 0 0  L 18.090566037736316 0  L 36.56603773584906 0  L 46.9584905660382 0  L 50.42264150943303 0  L 68 0  L 68 14  L 50.42264150943303 14  L 18.090566037736316 14  L 0 14  Z " fill-rule="nonzero" fill="rgba(170, 170, 170, 1)" stroke="none" class="fill" />
    <path d="M 0 14  L 0 0  L 18.090566037736316 0  L 36.56603773584906 0  L 46.9584905660382 0  L 50.42264150943303 0  L 68 0  L 68 14  L 50.42264150943303 14  L 18.090566037736316 14  L 0 14  Z " stroke-width="2" stroke-dasharray="0" stroke="rgba(121, 121, 121, 1)" fill="none" class="stroke" mask="url(#Clip110)" />
  </g>
</svg>