<?xml version="1.0" encoding="utf-8"?>
<svg version="1.1" xmlns:xlink="http://www.w3.org/1999/xlink" width="26px" height="24px" xmlns="http://www.w3.org/2000/svg">
  <defs>
    <pattern id="BGPattern" patternUnits="userSpaceOnUse" alignment="0 0" imageRepeat="None" />
    <mask fill="white" id="Clip113">
      <path d="M 13.014517032427765 0  C 5.863428246702261 0  0.06532663316582915 5.373333328125  0.06532663316582915 12  C 0.06532663316582915 18.626666671875  5.863428246702261 24  13.014517032427765 24  C 20.167057523947864 24  25.9637074316897 18.626666671875  25.9637074316897 12  C 25.9637074316897 5.3733333281250015  20.167057523947864 0  13.014517032427765 0  Z " fill-rule="evenodd" />
    </mask>
  </defs>
  <g transform="matrix(1 0 0 1 -21 -6 )">
    <path d="M 13.014517032427765 0  C 5.863428246702261 0  0.06532663316582915 5.373333328125  0.06532663316582915 12  C 0.06532663316582915 18.626666671875  5.863428246702261 24  13.014517032427765 24  C 20.167057523947864 24  25.9637074316897 18.626666671875  25.9637074316897 12  C 25.9637074316897 5.3733333281250015  20.167057523947864 0  13.014517032427765 0  Z " fill-rule="nonzero" fill="rgba(217, 0, 27, 1)" stroke="none" transform="matrix(1 0 0 1 21 6 )" class="fill" />
    <path d="M 13.014517032427765 0  C 5.863428246702261 0  0.06532663316582915 5.373333328125  0.06532663316582915 12  C 0.06532663316582915 18.626666671875  5.863428246702261 24  13.014517032427765 24  C 20.167057523947864 24  25.9637074316897 18.626666671875  25.9637074316897 12  C 25.9637074316897 5.3733333281250015  20.167057523947864 0  13.014517032427765 0  Z " stroke-width="0" stroke-dasharray="0" stroke="rgba(255, 255, 255, 0)" fill="none" transform="matrix(1 0 0 1 21 6 )" class="stroke" mask="url(#Clip113)" />
  </g>
</svg>