<svg t="1584867442617" class="icon" viewBox="0 0 1024 1024" version="1.1" xmlns="http://www.w3.org/2000/svg" p-id="6907" width="200" height="200"><path d="M830.557091 786.385455H199.121455c-28.439273 0-45.521455 17.082182-45.521455 39.796363 0 22.807273 17.082182 45.521455 45.521455 45.521455h631.435636c22.807273 0 45.521455-17.035636 45.521454-45.521455 0-28.392727-22.760727-39.796364-45.521454-39.796363z m147.921454-211.36291H45.521455c-22.807273 0-45.521455 17.082182-45.521455 39.796364 0 22.807273 17.082182 45.521455 45.521455 45.521455h932.95709c22.807273 0 45.521455-17.035636 45.521455-45.521455 0-28.392727-22.760727-39.796364-45.521455-39.796364z m-147.921454-205.684363H199.121455c-22.807273 0-45.521455 17.082182-45.521455 45.521454 0 28.392727 17.082182 45.521455 45.521455 45.521455h631.435636c22.807273 0 45.521455-17.082182 45.521454-45.521455s-22.760727-45.521455-45.521454-45.521454z m147.921454-211.362909H45.521455c-22.807273 0-45.521455 17.082182-45.521455 45.521454 0 28.392727 17.082182 45.521455 45.521455 45.521455h932.95709c22.807273 0 45.521455-17.082182 45.521455-45.521455s-22.760727-45.521455-45.521455-45.521454z" fill="#333333" p-id="6908"></path></svg>