<svg t="1631254001396" class="icon" viewBox="0 0 1024 1024" version="1.1" xmlns="http://www.w3.org/2000/svg" p-id="3075" width="200" height="200"><path d="M512 128a341.333333 341.333333 0 0 1 341.333333 341.333333v426.666667a42.666667 42.666667 0 0 1-42.666666 42.666667H213.333333a42.666667 42.666667 0 0 1-42.666666-42.666667V469.333333a341.333333 341.333333 0 0 1 341.333333-341.333333z m-128 298.666667a128 128 0 0 0 0 256h256a128 128 0 0 0 0-256H384z" fill="#707070" p-id="3076"></path><path d="M640 597.333333a42.666667 42.666667 0 1 1 0-85.333333 42.666667 42.666667 0 0 1 0 85.333333z m-256 0a42.666667 42.666667 0 1 1 0-85.333333 42.666667 42.666667 0 0 1 0 85.333333z" fill="#707070" opacity=".3" p-id="3077"></path></svg>