<?xml version="1.0" encoding="utf-8"?>
<svg version="1.1" xmlns:xlink="http://www.w3.org/1999/xlink" width="13px" height="13px" viewBox="294 1306 13 13" xmlns="http://www.w3.org/2000/svg">
  <path d="M 300.5 1306  C 304.14 1306  307 1308.86  307 1312.5  C 307 1316.14  304.14 1319  300.5 1319  C 296.86 1319  294 1316.14  294 1312.5  C 294 1308.86  296.86 1306  300.5 1306  Z " fill-rule="nonzero" fill="rgba(240, 240, 240, 1)" stroke="none" class="fill" />
  <path d="M 300.5 1306.5  C 303.86 1306.5  306.5 1309.14  306.5 1312.5  C 306.5 1315.86  303.86 1318.5  300.5 1318.5  C 297.14 1318.5  294.5 1315.86  294.5 1312.5  C 294.5 1309.14  297.14 1306.5  300.5 1306.5  Z " stroke-width="1" stroke-dasharray="0" stroke="rgba(121, 121, 121, 1)" fill="none" class="stroke" stroke-dashoffset="0.5" />
  <path d="M 300.5 1315.75  C 298.68 1315.75  297.25 1314.32  297.25 1312.5  C 297.25 1310.68  298.68 1309.25  300.5 1309.25  C 302.32 1309.25  303.75 1310.68  303.75 1312.5  C 303.75 1314.32  302.32 1315.75  300.5 1315.75  " fill-rule="nonzero" fill="rgba(121, 121, 121, 1)" stroke="none" class="stroke btn_check" />
</svg>