<?xml version="1.0" encoding="utf-8"?>
<svg version="1.1" xmlns:xlink="http://www.w3.org/1999/xlink" width="14px" height="17px" xmlns="http://www.w3.org/2000/svg">
  <defs>
    <pattern id="BGPattern" patternUnits="userSpaceOnUse" alignment="0 0" imageRepeat="None" />
    <mask fill="white" id="Clip20">
      <path d="M 1.076923076923077 13.053571428571427  L 1.076923076923077 15.785714285714286  L 3.5 15.785714285714286  L 3.5 13.053571428571427  L 1.076923076923077 13.053571428571427  Z M 4.038461538461538 13.053571428571427  L 4.038461538461538 15.785714285714286  L 6.730769230769231 15.785714285714286  L 6.730769230769231 13.053571428571427  L 4.038461538461538 13.053571428571427  Z M 1.076923076923077 9.410714285714286  L 1.076923076923077 12.446428571428573  L 3.5 12.446428571428573  L 3.5 9.410714285714286  L 1.076923076923077 9.410714285714286  Z M 4.038461538461538 9.410714285714286  L 4.038461538461538 12.446428571428573  L 6.730769230769231 12.446428571428573  L 6.730769230769231 9.410714285714286  L 4.038461538461538 9.410714285714286  Z M 1.076923076923077 6.07142857142857  L 1.076923076923077 8.803571428571427  L 3.5 8.803571428571427  L 3.5 6.07142857142857  L 1.076923076923077 6.07142857142857  Z M 7.26923076923077 13.053571428571427  L 7.26923076923077 15.785714285714286  L 9.961538461538462 15.785714285714286  L 9.961538461538462 13.053571428571427  L 7.26923076923077 13.053571428571427  Z M 4.038461538461538 6.07142857142857  L 4.038461538461538 8.803571428571427  L 6.730769230769231 8.803571428571427  L 6.730769230769231 6.07142857142857  L 4.038461538461538 6.07142857142857  Z M 10.5 13.053571428571427  L 10.5 15.785714285714286  L 12.923076923076923 15.785714285714286  L 12.923076923076923 13.053571428571427  L 10.5 13.053571428571427  Z M 7.26923076923077 9.410714285714286  L 7.26923076923077 12.446428571428573  L 9.961538461538462 12.446428571428573  L 9.961538461538462 9.410714285714286  L 7.26923076923077 9.410714285714286  Z M 4.227764423076923 4.4634486607142865  C 4.28104967948718 4.40336681547619  4.307692307692308 4.33221726190476  4.307692307692308 4.25  L 4.307692307692308 1.5178571428571432  C 4.307692307692308 1.435639880952381  4.28104967948718 1.3644903273809517  4.227764423076923 1.3044084821428568  C 4.174479166666667 1.24432663690476  4.111378205128205 1.2142857142857137  4.038461538461538 1.2142857142857137  L 3.5 1.2142857142857137  C 3.4270833333333335 1.2142857142857137  3.3639823717948723 1.24432663690476  3.3106971153846154 1.3044084821428568  C 3.2574118589743586 1.3644903273809517  3.230769230769231 1.435639880952381  3.230769230769231 1.5178571428571432  L 3.230769230769231 4.25  C 3.230769230769231 4.33221726190476  3.2574118589743586 4.40336681547619  3.3106971153846154 4.4634486607142865  C 3.3639823717948723 4.523530505952381  3.4270833333333335 4.55357142857143  3.5 4.55357142857143  L 4.038461538461538 4.55357142857143  C 4.111378205128205 4.55357142857143  4.174479166666667 4.523530505952381  4.227764423076923 4.4634486607142865  Z M 10.5 9.410714285714286  L 10.5 12.446428571428573  L 12.923076923076923 12.446428571428573  L 12.923076923076923 9.410714285714286  L 10.5 9.410714285714286  Z M 7.26923076923077 6.07142857142857  L 7.26923076923077 8.803571428571427  L 9.961538461538462 8.803571428571427  L 9.961538461538462 6.07142857142857  L 7.26923076923077 6.07142857142857  Z M 10.5 6.07142857142857  L 10.5 8.803571428571427  L 12.923076923076923 8.803571428571427  L 12.923076923076923 6.07142857142857  L 10.5 6.07142857142857  Z M 10.689302884615383 4.4634486607142865  C 10.742588141025642 4.40336681547619  10.76923076923077 4.33221726190476  10.76923076923077 4.25  L 10.76923076923077 1.5178571428571432  C 10.76923076923077 1.435639880952381  10.742588141025642 1.3644903273809517  10.689302884615383 1.3044084821428568  C 10.63601762820513 1.24432663690476  10.572916666666668 1.2142857142857137  10.5 1.2142857142857137  L 9.961538461538462 1.2142857142857137  C 9.888621794871796 1.2142857142857137  9.825520833333334 1.24432663690476  9.772235576923077 1.3044084821428568  C 9.718950320512821 1.3644903273809517  9.692307692307692 1.435639880952381  9.692307692307692 1.5178571428571432  L 9.692307692307692 4.25  C 9.692307692307692 4.33221726190476  9.718950320512821 4.40336681547619  9.772235576923077 4.4634486607142865  C 9.825520833333334 4.523530505952381  9.888621794871796 4.55357142857143  9.961538461538462 4.55357142857143  L 10.5 4.55357142857143  C 10.572916666666668 4.55357142857143  10.63601762820513 4.523530505952381  10.689302884615383 4.4634486607142865  Z M 13.680288461538462 2.7890625  C 13.893429487179489 3.029389880952381  14 3.313988095238095  14 3.6428571428571432  L 14 15.785714285714286  C 14 16.114583333333336  13.893429487179489 16.399181547619047  13.680288461538462 16.63950892857143  C 13.467147435897438 16.87983630952381  13.214743589743591 17  12.923076923076923 17  L 1.076923076923077 17  C 0.7852564102564104 17  0.5328525641025641 16.87983630952381  0.31971153846153844 16.63950892857143  C 0.10657051282051282 16.399181547619047  0 16.114583333333336  0 15.785714285714286  L 0 3.6428571428571432  C 0 3.313988095238095  0.10657051282051282 3.029389880952381  0.31971153846153844 2.7890625  C 0.5328525641025641 2.548735119047617  0.7852564102564104 2.4285714285714293  1.076923076923077 2.4285714285714293  L 2.153846153846154 2.4285714285714293  L 2.153846153846154 1.5178571428571432  C 2.153846153846154 1.1004464285714293  2.285657051282051 0.7431175595238085  2.549278846153846 0.44587053571428625  C 2.8129006410256414 0.14862351190476208  3.1298076923076925 0  3.5 0  L 4.038461538461538 0  C 4.408653846153846 0  4.725560897435898 0.14862351190476208  4.989182692307692 0.44587053571428625  C 5.252804487179487 0.7431175595238085  5.384615384615385 1.1004464285714293  5.384615384615385 1.5178571428571432  L 5.384615384615385 2.4285714285714293  L 8.615384615384617 2.4285714285714293  L 8.615384615384617 1.5178571428571432  C 8.615384615384617 1.1004464285714293  8.747195512820513 0.7431175595238085  9.010817307692308 0.44587053571428625  C 9.274439102564104 0.14862351190476208  9.591346153846153 0  9.961538461538462 0  L 10.5 0  C 10.870192307692308 0  11.18709935897436 0.14862351190476208  11.450721153846153 0.44587053571428625  C 11.71434294871795 0.7431175595238085  11.846153846153847 1.1004464285714293  11.846153846153847 1.5178571428571432  L 11.846153846153847 2.4285714285714293  L 12.923076923076923 2.4285714285714293  C 13.214743589743591 2.4285714285714293  13.467147435897438 2.548735119047617  13.680288461538462 2.7890625  Z " fill-rule="evenodd" />
    </mask>
  </defs>
  <g transform="matrix(1 0 0 1 -974 -216 )">
    <path d="M 1.076923076923077 13.053571428571427  L 1.076923076923077 15.785714285714286  L 3.5 15.785714285714286  L 3.5 13.053571428571427  L 1.076923076923077 13.053571428571427  Z M 4.038461538461538 13.053571428571427  L 4.038461538461538 15.785714285714286  L 6.730769230769231 15.785714285714286  L 6.730769230769231 13.053571428571427  L 4.038461538461538 13.053571428571427  Z M 1.076923076923077 9.410714285714286  L 1.076923076923077 12.446428571428573  L 3.5 12.446428571428573  L 3.5 9.410714285714286  L 1.076923076923077 9.410714285714286  Z M 4.038461538461538 9.410714285714286  L 4.038461538461538 12.446428571428573  L 6.730769230769231 12.446428571428573  L 6.730769230769231 9.410714285714286  L 4.038461538461538 9.410714285714286  Z M 1.076923076923077 6.07142857142857  L 1.076923076923077 8.803571428571427  L 3.5 8.803571428571427  L 3.5 6.07142857142857  L 1.076923076923077 6.07142857142857  Z M 7.26923076923077 13.053571428571427  L 7.26923076923077 15.785714285714286  L 9.961538461538462 15.785714285714286  L 9.961538461538462 13.053571428571427  L 7.26923076923077 13.053571428571427  Z M 4.038461538461538 6.07142857142857  L 4.038461538461538 8.803571428571427  L 6.730769230769231 8.803571428571427  L 6.730769230769231 6.07142857142857  L 4.038461538461538 6.07142857142857  Z M 10.5 13.053571428571427  L 10.5 15.785714285714286  L 12.923076923076923 15.785714285714286  L 12.923076923076923 13.053571428571427  L 10.5 13.053571428571427  Z M 7.26923076923077 9.410714285714286  L 7.26923076923077 12.446428571428573  L 9.961538461538462 12.446428571428573  L 9.961538461538462 9.410714285714286  L 7.26923076923077 9.410714285714286  Z M 4.227764423076923 4.4634486607142865  C 4.28104967948718 4.40336681547619  4.307692307692308 4.33221726190476  4.307692307692308 4.25  L 4.307692307692308 1.5178571428571432  C 4.307692307692308 1.435639880952381  4.28104967948718 1.3644903273809517  4.227764423076923 1.3044084821428568  C 4.174479166666667 1.24432663690476  4.111378205128205 1.2142857142857137  4.038461538461538 1.2142857142857137  L 3.5 1.2142857142857137  C 3.4270833333333335 1.2142857142857137  3.3639823717948723 1.24432663690476  3.3106971153846154 1.3044084821428568  C 3.2574118589743586 1.3644903273809517  3.230769230769231 1.435639880952381  3.230769230769231 1.5178571428571432  L 3.230769230769231 4.25  C 3.230769230769231 4.33221726190476  3.2574118589743586 4.40336681547619  3.3106971153846154 4.4634486607142865  C 3.3639823717948723 4.523530505952381  3.4270833333333335 4.55357142857143  3.5 4.55357142857143  L 4.038461538461538 4.55357142857143  C 4.111378205128205 4.55357142857143  4.174479166666667 4.523530505952381  4.227764423076923 4.4634486607142865  Z M 10.5 9.410714285714286  L 10.5 12.446428571428573  L 12.923076923076923 12.446428571428573  L 12.923076923076923 9.410714285714286  L 10.5 9.410714285714286  Z M 7.26923076923077 6.07142857142857  L 7.26923076923077 8.803571428571427  L 9.961538461538462 8.803571428571427  L 9.961538461538462 6.07142857142857  L 7.26923076923077 6.07142857142857  Z M 10.5 6.07142857142857  L 10.5 8.803571428571427  L 12.923076923076923 8.803571428571427  L 12.923076923076923 6.07142857142857  L 10.5 6.07142857142857  Z M 10.689302884615383 4.4634486607142865  C 10.742588141025642 4.40336681547619  10.76923076923077 4.33221726190476  10.76923076923077 4.25  L 10.76923076923077 1.5178571428571432  C 10.76923076923077 1.435639880952381  10.742588141025642 1.3644903273809517  10.689302884615383 1.3044084821428568  C 10.63601762820513 1.24432663690476  10.572916666666668 1.2142857142857137  10.5 1.2142857142857137  L 9.961538461538462 1.2142857142857137  C 9.888621794871796 1.2142857142857137  9.825520833333334 1.24432663690476  9.772235576923077 1.3044084821428568  C 9.718950320512821 1.3644903273809517  9.692307692307692 1.435639880952381  9.692307692307692 1.5178571428571432  L 9.692307692307692 4.25  C 9.692307692307692 4.33221726190476  9.718950320512821 4.40336681547619  9.772235576923077 4.4634486607142865  C 9.825520833333334 4.523530505952381  9.888621794871796 4.55357142857143  9.961538461538462 4.55357142857143  L 10.5 4.55357142857143  C 10.572916666666668 4.55357142857143  10.63601762820513 4.523530505952381  10.689302884615383 4.4634486607142865  Z M 13.680288461538462 2.7890625  C 13.893429487179489 3.029389880952381  14 3.313988095238095  14 3.6428571428571432  L 14 15.785714285714286  C 14 16.114583333333336  13.893429487179489 16.399181547619047  13.680288461538462 16.63950892857143  C 13.467147435897438 16.87983630952381  13.214743589743591 17  12.923076923076923 17  L 1.076923076923077 17  C 0.7852564102564104 17  0.5328525641025641 16.87983630952381  0.31971153846153844 16.63950892857143  C 0.10657051282051282 16.399181547619047  0 16.114583333333336  0 15.785714285714286  L 0 3.6428571428571432  C 0 3.313988095238095  0.10657051282051282 3.029389880952381  0.31971153846153844 2.7890625  C 0.5328525641025641 2.548735119047617  0.7852564102564104 2.4285714285714293  1.076923076923077 2.4285714285714293  L 2.153846153846154 2.4285714285714293  L 2.153846153846154 1.5178571428571432  C 2.153846153846154 1.1004464285714293  2.285657051282051 0.7431175595238085  2.549278846153846 0.44587053571428625  C 2.8129006410256414 0.14862351190476208  3.1298076923076925 0  3.5 0  L 4.038461538461538 0  C 4.408653846153846 0  4.725560897435898 0.14862351190476208  4.989182692307692 0.44587053571428625  C 5.252804487179487 0.7431175595238085  5.384615384615385 1.1004464285714293  5.384615384615385 1.5178571428571432  L 5.384615384615385 2.4285714285714293  L 8.615384615384617 2.4285714285714293  L 8.615384615384617 1.5178571428571432  C 8.615384615384617 1.1004464285714293  8.747195512820513 0.7431175595238085  9.010817307692308 0.44587053571428625  C 9.274439102564104 0.14862351190476208  9.591346153846153 0  9.961538461538462 0  L 10.5 0  C 10.870192307692308 0  11.18709935897436 0.14862351190476208  11.450721153846153 0.44587053571428625  C 11.71434294871795 0.7431175595238085  11.846153846153847 1.1004464285714293  11.846153846153847 1.5178571428571432  L 11.846153846153847 2.4285714285714293  L 12.923076923076923 2.4285714285714293  C 13.214743589743591 2.4285714285714293  13.467147435897438 2.548735119047617  13.680288461538462 2.7890625  Z " fill-rule="nonzero" fill="rgba(127, 127, 127, 1)" stroke="none" transform="matrix(1 0 0 1 974 216 )" class="fill" />
    <path d="M 1.076923076923077 13.053571428571427  L 1.076923076923077 15.785714285714286  L 3.5 15.785714285714286  L 3.5 13.053571428571427  L 1.076923076923077 13.053571428571427  Z " stroke-width="0" stroke-dasharray="0" stroke="rgba(170, 170, 170, 1)" fill="none" transform="matrix(1 0 0 1 974 216 )" class="stroke" mask="url(#Clip20)" />
    <path d="M 4.038461538461538 13.053571428571427  L 4.038461538461538 15.785714285714286  L 6.730769230769231 15.785714285714286  L 6.730769230769231 13.053571428571427  L 4.038461538461538 13.053571428571427  Z " stroke-width="0" stroke-dasharray="0" stroke="rgba(170, 170, 170, 1)" fill="none" transform="matrix(1 0 0 1 974 216 )" class="stroke" mask="url(#Clip20)" />
    <path d="M 1.076923076923077 9.410714285714286  L 1.076923076923077 12.446428571428573  L 3.5 12.446428571428573  L 3.5 9.410714285714286  L 1.076923076923077 9.410714285714286  Z " stroke-width="0" stroke-dasharray="0" stroke="rgba(170, 170, 170, 1)" fill="none" transform="matrix(1 0 0 1 974 216 )" class="stroke" mask="url(#Clip20)" />
    <path d="M 4.038461538461538 9.410714285714286  L 4.038461538461538 12.446428571428573  L 6.730769230769231 12.446428571428573  L 6.730769230769231 9.410714285714286  L 4.038461538461538 9.410714285714286  Z " stroke-width="0" stroke-dasharray="0" stroke="rgba(170, 170, 170, 1)" fill="none" transform="matrix(1 0 0 1 974 216 )" class="stroke" mask="url(#Clip20)" />
    <path d="M 1.076923076923077 6.07142857142857  L 1.076923076923077 8.803571428571427  L 3.5 8.803571428571427  L 3.5 6.07142857142857  L 1.076923076923077 6.07142857142857  Z " stroke-width="0" stroke-dasharray="0" stroke="rgba(170, 170, 170, 1)" fill="none" transform="matrix(1 0 0 1 974 216 )" class="stroke" mask="url(#Clip20)" />
    <path d="M 7.26923076923077 13.053571428571427  L 7.26923076923077 15.785714285714286  L 9.961538461538462 15.785714285714286  L 9.961538461538462 13.053571428571427  L 7.26923076923077 13.053571428571427  Z " stroke-width="0" stroke-dasharray="0" stroke="rgba(170, 170, 170, 1)" fill="none" transform="matrix(1 0 0 1 974 216 )" class="stroke" mask="url(#Clip20)" />
    <path d="M 4.038461538461538 6.07142857142857  L 4.038461538461538 8.803571428571427  L 6.730769230769231 8.803571428571427  L 6.730769230769231 6.07142857142857  L 4.038461538461538 6.07142857142857  Z " stroke-width="0" stroke-dasharray="0" stroke="rgba(170, 170, 170, 1)" fill="none" transform="matrix(1 0 0 1 974 216 )" class="stroke" mask="url(#Clip20)" />
    <path d="M 10.5 13.053571428571427  L 10.5 15.785714285714286  L 12.923076923076923 15.785714285714286  L 12.923076923076923 13.053571428571427  L 10.5 13.053571428571427  Z " stroke-width="0" stroke-dasharray="0" stroke="rgba(170, 170, 170, 1)" fill="none" transform="matrix(1 0 0 1 974 216 )" class="stroke" mask="url(#Clip20)" />
    <path d="M 7.26923076923077 9.410714285714286  L 7.26923076923077 12.446428571428573  L 9.961538461538462 12.446428571428573  L 9.961538461538462 9.410714285714286  L 7.26923076923077 9.410714285714286  Z " stroke-width="0" stroke-dasharray="0" stroke="rgba(170, 170, 170, 1)" fill="none" transform="matrix(1 0 0 1 974 216 )" class="stroke" mask="url(#Clip20)" />
    <path d="M 4.227764423076923 4.4634486607142865  C 4.28104967948718 4.40336681547619  4.307692307692308 4.33221726190476  4.307692307692308 4.25  L 4.307692307692308 1.5178571428571432  C 4.307692307692308 1.435639880952381  4.28104967948718 1.3644903273809517  4.227764423076923 1.3044084821428568  C 4.174479166666667 1.24432663690476  4.111378205128205 1.2142857142857137  4.038461538461538 1.2142857142857137  L 3.5 1.2142857142857137  C 3.4270833333333335 1.2142857142857137  3.3639823717948723 1.24432663690476  3.3106971153846154 1.3044084821428568  C 3.2574118589743586 1.3644903273809517  3.230769230769231 1.435639880952381  3.230769230769231 1.5178571428571432  L 3.230769230769231 4.25  C 3.230769230769231 4.33221726190476  3.2574118589743586 4.40336681547619  3.3106971153846154 4.4634486607142865  C 3.3639823717948723 4.523530505952381  3.4270833333333335 4.55357142857143  3.5 4.55357142857143  L 4.038461538461538 4.55357142857143  C 4.111378205128205 4.55357142857143  4.174479166666667 4.523530505952381  4.227764423076923 4.4634486607142865  Z " stroke-width="0" stroke-dasharray="0" stroke="rgba(170, 170, 170, 1)" fill="none" transform="matrix(1 0 0 1 974 216 )" class="stroke" mask="url(#Clip20)" />
    <path d="M 10.5 9.410714285714286  L 10.5 12.446428571428573  L 12.923076923076923 12.446428571428573  L 12.923076923076923 9.410714285714286  L 10.5 9.410714285714286  Z " stroke-width="0" stroke-dasharray="0" stroke="rgba(170, 170, 170, 1)" fill="none" transform="matrix(1 0 0 1 974 216 )" class="stroke" mask="url(#Clip20)" />
    <path d="M 7.26923076923077 6.07142857142857  L 7.26923076923077 8.803571428571427  L 9.961538461538462 8.803571428571427  L 9.961538461538462 6.07142857142857  L 7.26923076923077 6.07142857142857  Z " stroke-width="0" stroke-dasharray="0" stroke="rgba(170, 170, 170, 1)" fill="none" transform="matrix(1 0 0 1 974 216 )" class="stroke" mask="url(#Clip20)" />
    <path d="M 10.5 6.07142857142857  L 10.5 8.803571428571427  L 12.923076923076923 8.803571428571427  L 12.923076923076923 6.07142857142857  L 10.5 6.07142857142857  Z " stroke-width="0" stroke-dasharray="0" stroke="rgba(170, 170, 170, 1)" fill="none" transform="matrix(1 0 0 1 974 216 )" class="stroke" mask="url(#Clip20)" />
    <path d="M 10.689302884615383 4.4634486607142865  C 10.742588141025642 4.40336681547619  10.76923076923077 4.33221726190476  10.76923076923077 4.25  L 10.76923076923077 1.5178571428571432  C 10.76923076923077 1.435639880952381  10.742588141025642 1.3644903273809517  10.689302884615383 1.3044084821428568  C 10.63601762820513 1.24432663690476  10.572916666666668 1.2142857142857137  10.5 1.2142857142857137  L 9.961538461538462 1.2142857142857137  C 9.888621794871796 1.2142857142857137  9.825520833333334 1.24432663690476  9.772235576923077 1.3044084821428568  C 9.718950320512821 1.3644903273809517  9.692307692307692 1.435639880952381  9.692307692307692 1.5178571428571432  L 9.692307692307692 4.25  C 9.692307692307692 4.33221726190476  9.718950320512821 4.40336681547619  9.772235576923077 4.4634486607142865  C 9.825520833333334 4.523530505952381  9.888621794871796 4.55357142857143  9.961538461538462 4.55357142857143  L 10.5 4.55357142857143  C 10.572916666666668 4.55357142857143  10.63601762820513 4.523530505952381  10.689302884615383 4.4634486607142865  Z " stroke-width="0" stroke-dasharray="0" stroke="rgba(170, 170, 170, 1)" fill="none" transform="matrix(1 0 0 1 974 216 )" class="stroke" mask="url(#Clip20)" />
    <path d="M 13.680288461538462 2.7890625  C 13.893429487179489 3.029389880952381  14 3.313988095238095  14 3.6428571428571432  L 14 15.785714285714286  C 14 16.114583333333336  13.893429487179489 16.399181547619047  13.680288461538462 16.63950892857143  C 13.467147435897438 16.87983630952381  13.214743589743591 17  12.923076923076923 17  L 1.076923076923077 17  C 0.7852564102564104 17  0.5328525641025641 16.87983630952381  0.31971153846153844 16.63950892857143  C 0.10657051282051282 16.399181547619047  0 16.114583333333336  0 15.785714285714286  L 0 3.6428571428571432  C 0 3.313988095238095  0.10657051282051282 3.029389880952381  0.31971153846153844 2.7890625  C 0.5328525641025641 2.548735119047617  0.7852564102564104 2.4285714285714293  1.076923076923077 2.4285714285714293  L 2.153846153846154 2.4285714285714293  L 2.153846153846154 1.5178571428571432  C 2.153846153846154 1.1004464285714293  2.285657051282051 0.7431175595238085  2.549278846153846 0.44587053571428625  C 2.8129006410256414 0.14862351190476208  3.1298076923076925 0  3.5 0  L 4.038461538461538 0  C 4.408653846153846 0  4.725560897435898 0.14862351190476208  4.989182692307692 0.44587053571428625  C 5.252804487179487 0.7431175595238085  5.384615384615385 1.1004464285714293  5.384615384615385 1.5178571428571432  L 5.384615384615385 2.4285714285714293  L 8.615384615384617 2.4285714285714293  L 8.615384615384617 1.5178571428571432  C 8.615384615384617 1.1004464285714293  8.747195512820513 0.7431175595238085  9.010817307692308 0.44587053571428625  C 9.274439102564104 0.14862351190476208  9.591346153846153 0  9.961538461538462 0  L 10.5 0  C 10.870192307692308 0  11.18709935897436 0.14862351190476208  11.450721153846153 0.44587053571428625  C 11.71434294871795 0.7431175595238085  11.846153846153847 1.1004464285714293  11.846153846153847 1.5178571428571432  L 11.846153846153847 2.4285714285714293  L 12.923076923076923 2.4285714285714293  C 13.214743589743591 2.4285714285714293  13.467147435897438 2.548735119047617  13.680288461538462 2.7890625  Z " stroke-width="0" stroke-dasharray="0" stroke="rgba(170, 170, 170, 1)" fill="none" transform="matrix(1 0 0 1 974 216 )" class="stroke" mask="url(#Clip20)" />
  </g>
</svg>