<?xml version="1.0" encoding="utf-8"?>
<svg version="1.1" xmlns:xlink="http://www.w3.org/1999/xlink" width="13px" height="17px" xmlns="http://www.w3.org/2000/svg">
  <defs>
    <pattern id="BGPattern" patternUnits="userSpaceOnUse" alignment="0 0" imageRepeat="None" />
    <mask fill="white" id="Clip29">
      <path d="M 1 13.053571428571427  L 1 15.785714285714286  L 3.25 15.785714285714286  L 3.25 13.053571428571427  L 1 13.053571428571427  Z M 3.7499999999999996 13.053571428571427  L 3.7499999999999996 15.785714285714286  L 6.25 15.785714285714286  L 6.25 13.053571428571427  L 3.7499999999999996 13.053571428571427  Z M 1 9.410714285714286  L 1 12.446428571428573  L 3.25 12.446428571428573  L 3.25 9.410714285714286  L 1 9.410714285714286  Z M 3.7499999999999996 9.410714285714286  L 3.7499999999999996 12.446428571428573  L 6.25 12.446428571428573  L 6.25 9.410714285714286  L 3.7499999999999996 9.410714285714286  Z M 1 6.07142857142857  L 1 8.803571428571427  L 3.25 8.803571428571427  L 3.25 6.07142857142857  L 1 6.07142857142857  Z M 6.750000000000001 13.053571428571427  L 6.750000000000001 15.785714285714286  L 9.25 15.785714285714286  L 9.25 13.053571428571427  L 6.750000000000001 13.053571428571427  Z M 3.7499999999999996 6.07142857142857  L 3.7499999999999996 8.803571428571427  L 6.25 8.803571428571427  L 6.25 6.07142857142857  L 3.7499999999999996 6.07142857142857  Z M 9.75 13.053571428571427  L 9.75 15.785714285714286  L 12 15.785714285714286  L 12 13.053571428571427  L 9.75 13.053571428571427  Z M 6.750000000000001 9.410714285714286  L 6.750000000000001 12.446428571428573  L 9.25 12.446428571428573  L 9.25 9.410714285714286  L 6.750000000000001 9.410714285714286  Z M 3.92578125 4.4634486607142865  C 3.975260416666667 4.40336681547619  4 4.33221726190476  4 4.25  L 4 1.5178571428571432  C 4 1.435639880952381  3.975260416666667 1.3644903273809517  3.92578125 1.3044084821428568  C 3.876302083333334 1.24432663690476  3.8177083333333335 1.2142857142857137  3.7499999999999996 1.2142857142857137  L 3.25 1.2142857142857137  C 3.182291666666667 1.2142857142857137  3.123697916666667 1.24432663690476  3.07421875 1.3044084821428568  C 3.024739583333333 1.3644903273809517  3 1.435639880952381  3 1.5178571428571432  L 3 4.25  C 3 4.33221726190476  3.024739583333333 4.40336681547619  3.07421875 4.4634486607142865  C 3.123697916666667 4.523530505952381  3.182291666666667 4.55357142857143  3.25 4.55357142857143  L 3.7499999999999996 4.55357142857143  C 3.8177083333333335 4.55357142857143  3.876302083333334 4.523530505952381  3.92578125 4.4634486607142865  Z M 9.75 9.410714285714286  L 9.75 12.446428571428573  L 12 12.446428571428573  L 12 9.410714285714286  L 9.75 9.410714285714286  Z M 6.750000000000001 6.07142857142857  L 6.750000000000001 8.803571428571427  L 9.25 8.803571428571427  L 9.25 6.07142857142857  L 6.750000000000001 6.07142857142857  Z M 9.75 6.07142857142857  L 9.75 8.803571428571427  L 12 8.803571428571427  L 12 6.07142857142857  L 9.75 6.07142857142857  Z M 9.92578125 4.4634486607142865  C 9.975260416666668 4.40336681547619  10 4.33221726190476  10 4.25  L 10 1.5178571428571432  C 10 1.435639880952381  9.975260416666668 1.3644903273809517  9.92578125 1.3044084821428568  C 9.876302083333334 1.24432663690476  9.817708333333334 1.2142857142857137  9.75 1.2142857142857137  L 9.25 1.2142857142857137  C 9.182291666666668 1.2142857142857137  9.123697916666668 1.24432663690476  9.07421875 1.3044084821428568  C 9.024739583333334 1.3644903273809517  9 1.435639880952381  9 1.5178571428571432  L 9 4.25  C 9 4.33221726190476  9.024739583333334 4.40336681547619  9.07421875 4.4634486607142865  C 9.123697916666668 4.523530505952381  9.182291666666668 4.55357142857143  9.25 4.55357142857143  L 9.75 4.55357142857143  C 9.817708333333334 4.55357142857143  9.876302083333334 4.523530505952381  9.92578125 4.4634486607142865  Z M 12.703125 2.7890625  C 12.901041666666668 3.029389880952381  13 3.313988095238095  13 3.6428571428571432  L 13 15.785714285714286  C 13 16.114583333333336  12.901041666666668 16.399181547619047  12.703125 16.63950892857143  C 12.505208333333334 16.87983630952381  12.270833333333334 17  12 17  L 1 17  C 0.7291666666666667 17  0.49479166666666674 16.87983630952381  0.296875 16.63950892857143  C 0.09895833333333333 16.399181547619047  0 16.114583333333336  0 15.785714285714286  L 0 3.6428571428571432  C 0 3.313988095238095  0.09895833333333333 3.029389880952381  0.296875 2.7890625  C 0.49479166666666674 2.548735119047617  0.7291666666666667 2.4285714285714293  1 2.4285714285714293  L 2 2.4285714285714293  L 2 1.5178571428571432  C 2 1.1004464285714293  2.1223958333333335 0.7431175595238085  2.3671875 0.44587053571428625  C 2.611979166666667 0.14862351190476208  2.90625 0  3.25 0  L 3.7499999999999996 0  C 4.09375 0  4.388020833333334 0.14862351190476208  4.6328125 0.44587053571428625  C 4.877604166666667 0.7431175595238085  5 1.1004464285714293  5 1.5178571428571432  L 5 2.4285714285714293  L 8 2.4285714285714293  L 8 1.5178571428571432  C 8 1.1004464285714293  8.122395833333334 0.7431175595238085  8.3671875 0.44587053571428625  C 8.611979166666668 0.14862351190476208  8.90625 0  9.25 0  L 9.75 0  C 10.09375 0  10.388020833333334 0.14862351190476208  10.6328125 0.44587053571428625  C 10.877604166666668 0.7431175595238085  11 1.1004464285714293  11 1.5178571428571432  L 11 2.4285714285714293  L 12 2.4285714285714293  C 12.270833333333334 2.4285714285714293  12.505208333333334 2.548735119047617  12.703125 2.7890625  Z " fill-rule="evenodd" />
    </mask>
  </defs>
  <g transform="matrix(1 0 0 1 -1095 -216 )">
    <path d="M 1 13.053571428571427  L 1 15.785714285714286  L 3.25 15.785714285714286  L 3.25 13.053571428571427  L 1 13.053571428571427  Z M 3.7499999999999996 13.053571428571427  L 3.7499999999999996 15.785714285714286  L 6.25 15.785714285714286  L 6.25 13.053571428571427  L 3.7499999999999996 13.053571428571427  Z M 1 9.410714285714286  L 1 12.446428571428573  L 3.25 12.446428571428573  L 3.25 9.410714285714286  L 1 9.410714285714286  Z M 3.7499999999999996 9.410714285714286  L 3.7499999999999996 12.446428571428573  L 6.25 12.446428571428573  L 6.25 9.410714285714286  L 3.7499999999999996 9.410714285714286  Z M 1 6.07142857142857  L 1 8.803571428571427  L 3.25 8.803571428571427  L 3.25 6.07142857142857  L 1 6.07142857142857  Z M 6.750000000000001 13.053571428571427  L 6.750000000000001 15.785714285714286  L 9.25 15.785714285714286  L 9.25 13.053571428571427  L 6.750000000000001 13.053571428571427  Z M 3.7499999999999996 6.07142857142857  L 3.7499999999999996 8.803571428571427  L 6.25 8.803571428571427  L 6.25 6.07142857142857  L 3.7499999999999996 6.07142857142857  Z M 9.75 13.053571428571427  L 9.75 15.785714285714286  L 12 15.785714285714286  L 12 13.053571428571427  L 9.75 13.053571428571427  Z M 6.750000000000001 9.410714285714286  L 6.750000000000001 12.446428571428573  L 9.25 12.446428571428573  L 9.25 9.410714285714286  L 6.750000000000001 9.410714285714286  Z M 3.92578125 4.4634486607142865  C 3.975260416666667 4.40336681547619  4 4.33221726190476  4 4.25  L 4 1.5178571428571432  C 4 1.435639880952381  3.975260416666667 1.3644903273809517  3.92578125 1.3044084821428568  C 3.876302083333334 1.24432663690476  3.8177083333333335 1.2142857142857137  3.7499999999999996 1.2142857142857137  L 3.25 1.2142857142857137  C 3.182291666666667 1.2142857142857137  3.123697916666667 1.24432663690476  3.07421875 1.3044084821428568  C 3.024739583333333 1.3644903273809517  3 1.435639880952381  3 1.5178571428571432  L 3 4.25  C 3 4.33221726190476  3.024739583333333 4.40336681547619  3.07421875 4.4634486607142865  C 3.123697916666667 4.523530505952381  3.182291666666667 4.55357142857143  3.25 4.55357142857143  L 3.7499999999999996 4.55357142857143  C 3.8177083333333335 4.55357142857143  3.876302083333334 4.523530505952381  3.92578125 4.4634486607142865  Z M 9.75 9.410714285714286  L 9.75 12.446428571428573  L 12 12.446428571428573  L 12 9.410714285714286  L 9.75 9.410714285714286  Z M 6.750000000000001 6.07142857142857  L 6.750000000000001 8.803571428571427  L 9.25 8.803571428571427  L 9.25 6.07142857142857  L 6.750000000000001 6.07142857142857  Z M 9.75 6.07142857142857  L 9.75 8.803571428571427  L 12 8.803571428571427  L 12 6.07142857142857  L 9.75 6.07142857142857  Z M 9.92578125 4.4634486607142865  C 9.975260416666668 4.40336681547619  10 4.33221726190476  10 4.25  L 10 1.5178571428571432  C 10 1.435639880952381  9.975260416666668 1.3644903273809517  9.92578125 1.3044084821428568  C 9.876302083333334 1.24432663690476  9.817708333333334 1.2142857142857137  9.75 1.2142857142857137  L 9.25 1.2142857142857137  C 9.182291666666668 1.2142857142857137  9.123697916666668 1.24432663690476  9.07421875 1.3044084821428568  C 9.024739583333334 1.3644903273809517  9 1.435639880952381  9 1.5178571428571432  L 9 4.25  C 9 4.33221726190476  9.024739583333334 4.40336681547619  9.07421875 4.4634486607142865  C 9.123697916666668 4.523530505952381  9.182291666666668 4.55357142857143  9.25 4.55357142857143  L 9.75 4.55357142857143  C 9.817708333333334 4.55357142857143  9.876302083333334 4.523530505952381  9.92578125 4.4634486607142865  Z M 12.703125 2.7890625  C 12.901041666666668 3.029389880952381  13 3.313988095238095  13 3.6428571428571432  L 13 15.785714285714286  C 13 16.114583333333336  12.901041666666668 16.399181547619047  12.703125 16.63950892857143  C 12.505208333333334 16.87983630952381  12.270833333333334 17  12 17  L 1 17  C 0.7291666666666667 17  0.49479166666666674 16.87983630952381  0.296875 16.63950892857143  C 0.09895833333333333 16.399181547619047  0 16.114583333333336  0 15.785714285714286  L 0 3.6428571428571432  C 0 3.313988095238095  0.09895833333333333 3.029389880952381  0.296875 2.7890625  C 0.49479166666666674 2.548735119047617  0.7291666666666667 2.4285714285714293  1 2.4285714285714293  L 2 2.4285714285714293  L 2 1.5178571428571432  C 2 1.1004464285714293  2.1223958333333335 0.7431175595238085  2.3671875 0.44587053571428625  C 2.611979166666667 0.14862351190476208  2.90625 0  3.25 0  L 3.7499999999999996 0  C 4.09375 0  4.388020833333334 0.14862351190476208  4.6328125 0.44587053571428625  C 4.877604166666667 0.7431175595238085  5 1.1004464285714293  5 1.5178571428571432  L 5 2.4285714285714293  L 8 2.4285714285714293  L 8 1.5178571428571432  C 8 1.1004464285714293  8.122395833333334 0.7431175595238085  8.3671875 0.44587053571428625  C 8.611979166666668 0.14862351190476208  8.90625 0  9.25 0  L 9.75 0  C 10.09375 0  10.388020833333334 0.14862351190476208  10.6328125 0.44587053571428625  C 10.877604166666668 0.7431175595238085  11 1.1004464285714293  11 1.5178571428571432  L 11 2.4285714285714293  L 12 2.4285714285714293  C 12.270833333333334 2.4285714285714293  12.505208333333334 2.548735119047617  12.703125 2.7890625  Z " fill-rule="nonzero" fill="rgba(127, 127, 127, 1)" stroke="none" transform="matrix(1 0 0 1 1095 216 )" class="fill" />
    <path d="M 1 13.053571428571427  L 1 15.785714285714286  L 3.25 15.785714285714286  L 3.25 13.053571428571427  L 1 13.053571428571427  Z " stroke-width="0" stroke-dasharray="0" stroke="rgba(170, 170, 170, 1)" fill="none" transform="matrix(1 0 0 1 1095 216 )" class="stroke" mask="url(#Clip29)" />
    <path d="M 3.7499999999999996 13.053571428571427  L 3.7499999999999996 15.785714285714286  L 6.25 15.785714285714286  L 6.25 13.053571428571427  L 3.7499999999999996 13.053571428571427  Z " stroke-width="0" stroke-dasharray="0" stroke="rgba(170, 170, 170, 1)" fill="none" transform="matrix(1 0 0 1 1095 216 )" class="stroke" mask="url(#Clip29)" />
    <path d="M 1 9.410714285714286  L 1 12.446428571428573  L 3.25 12.446428571428573  L 3.25 9.410714285714286  L 1 9.410714285714286  Z " stroke-width="0" stroke-dasharray="0" stroke="rgba(170, 170, 170, 1)" fill="none" transform="matrix(1 0 0 1 1095 216 )" class="stroke" mask="url(#Clip29)" />
    <path d="M 3.7499999999999996 9.410714285714286  L 3.7499999999999996 12.446428571428573  L 6.25 12.446428571428573  L 6.25 9.410714285714286  L 3.7499999999999996 9.410714285714286  Z " stroke-width="0" stroke-dasharray="0" stroke="rgba(170, 170, 170, 1)" fill="none" transform="matrix(1 0 0 1 1095 216 )" class="stroke" mask="url(#Clip29)" />
    <path d="M 1 6.07142857142857  L 1 8.803571428571427  L 3.25 8.803571428571427  L 3.25 6.07142857142857  L 1 6.07142857142857  Z " stroke-width="0" stroke-dasharray="0" stroke="rgba(170, 170, 170, 1)" fill="none" transform="matrix(1 0 0 1 1095 216 )" class="stroke" mask="url(#Clip29)" />
    <path d="M 6.750000000000001 13.053571428571427  L 6.750000000000001 15.785714285714286  L 9.25 15.785714285714286  L 9.25 13.053571428571427  L 6.750000000000001 13.053571428571427  Z " stroke-width="0" stroke-dasharray="0" stroke="rgba(170, 170, 170, 1)" fill="none" transform="matrix(1 0 0 1 1095 216 )" class="stroke" mask="url(#Clip29)" />
    <path d="M 3.7499999999999996 6.07142857142857  L 3.7499999999999996 8.803571428571427  L 6.25 8.803571428571427  L 6.25 6.07142857142857  L 3.7499999999999996 6.07142857142857  Z " stroke-width="0" stroke-dasharray="0" stroke="rgba(170, 170, 170, 1)" fill="none" transform="matrix(1 0 0 1 1095 216 )" class="stroke" mask="url(#Clip29)" />
    <path d="M 9.75 13.053571428571427  L 9.75 15.785714285714286  L 12 15.785714285714286  L 12 13.053571428571427  L 9.75 13.053571428571427  Z " stroke-width="0" stroke-dasharray="0" stroke="rgba(170, 170, 170, 1)" fill="none" transform="matrix(1 0 0 1 1095 216 )" class="stroke" mask="url(#Clip29)" />
    <path d="M 6.750000000000001 9.410714285714286  L 6.750000000000001 12.446428571428573  L 9.25 12.446428571428573  L 9.25 9.410714285714286  L 6.750000000000001 9.410714285714286  Z " stroke-width="0" stroke-dasharray="0" stroke="rgba(170, 170, 170, 1)" fill="none" transform="matrix(1 0 0 1 1095 216 )" class="stroke" mask="url(#Clip29)" />
    <path d="M 3.92578125 4.4634486607142865  C 3.975260416666667 4.40336681547619  4 4.33221726190476  4 4.25  L 4 1.5178571428571432  C 4 1.435639880952381  3.975260416666667 1.3644903273809517  3.92578125 1.3044084821428568  C 3.876302083333334 1.24432663690476  3.8177083333333335 1.2142857142857137  3.7499999999999996 1.2142857142857137  L 3.25 1.2142857142857137  C 3.182291666666667 1.2142857142857137  3.123697916666667 1.24432663690476  3.07421875 1.3044084821428568  C 3.024739583333333 1.3644903273809517  3 1.435639880952381  3 1.5178571428571432  L 3 4.25  C 3 4.33221726190476  3.024739583333333 4.40336681547619  3.07421875 4.4634486607142865  C 3.123697916666667 4.523530505952381  3.182291666666667 4.55357142857143  3.25 4.55357142857143  L 3.7499999999999996 4.55357142857143  C 3.8177083333333335 4.55357142857143  3.876302083333334 4.523530505952381  3.92578125 4.4634486607142865  Z " stroke-width="0" stroke-dasharray="0" stroke="rgba(170, 170, 170, 1)" fill="none" transform="matrix(1 0 0 1 1095 216 )" class="stroke" mask="url(#Clip29)" />
    <path d="M 9.75 9.410714285714286  L 9.75 12.446428571428573  L 12 12.446428571428573  L 12 9.410714285714286  L 9.75 9.410714285714286  Z " stroke-width="0" stroke-dasharray="0" stroke="rgba(170, 170, 170, 1)" fill="none" transform="matrix(1 0 0 1 1095 216 )" class="stroke" mask="url(#Clip29)" />
    <path d="M 6.750000000000001 6.07142857142857  L 6.750000000000001 8.803571428571427  L 9.25 8.803571428571427  L 9.25 6.07142857142857  L 6.750000000000001 6.07142857142857  Z " stroke-width="0" stroke-dasharray="0" stroke="rgba(170, 170, 170, 1)" fill="none" transform="matrix(1 0 0 1 1095 216 )" class="stroke" mask="url(#Clip29)" />
    <path d="M 9.75 6.07142857142857  L 9.75 8.803571428571427  L 12 8.803571428571427  L 12 6.07142857142857  L 9.75 6.07142857142857  Z " stroke-width="0" stroke-dasharray="0" stroke="rgba(170, 170, 170, 1)" fill="none" transform="matrix(1 0 0 1 1095 216 )" class="stroke" mask="url(#Clip29)" />
    <path d="M 9.92578125 4.4634486607142865  C 9.975260416666668 4.40336681547619  10 4.33221726190476  10 4.25  L 10 1.5178571428571432  C 10 1.435639880952381  9.975260416666668 1.3644903273809517  9.92578125 1.3044084821428568  C 9.876302083333334 1.24432663690476  9.817708333333334 1.2142857142857137  9.75 1.2142857142857137  L 9.25 1.2142857142857137  C 9.182291666666668 1.2142857142857137  9.123697916666668 1.24432663690476  9.07421875 1.3044084821428568  C 9.024739583333334 1.3644903273809517  9 1.435639880952381  9 1.5178571428571432  L 9 4.25  C 9 4.33221726190476  9.024739583333334 4.40336681547619  9.07421875 4.4634486607142865  C 9.123697916666668 4.523530505952381  9.182291666666668 4.55357142857143  9.25 4.55357142857143  L 9.75 4.55357142857143  C 9.817708333333334 4.55357142857143  9.876302083333334 4.523530505952381  9.92578125 4.4634486607142865  Z " stroke-width="0" stroke-dasharray="0" stroke="rgba(170, 170, 170, 1)" fill="none" transform="matrix(1 0 0 1 1095 216 )" class="stroke" mask="url(#Clip29)" />
    <path d="M 12.703125 2.7890625  C 12.901041666666668 3.029389880952381  13 3.313988095238095  13 3.6428571428571432  L 13 15.785714285714286  C 13 16.114583333333336  12.901041666666668 16.399181547619047  12.703125 16.63950892857143  C 12.505208333333334 16.87983630952381  12.270833333333334 17  12 17  L 1 17  C 0.7291666666666667 17  0.49479166666666674 16.87983630952381  0.296875 16.63950892857143  C 0.09895833333333333 16.399181547619047  0 16.114583333333336  0 15.785714285714286  L 0 3.6428571428571432  C 0 3.313988095238095  0.09895833333333333 3.029389880952381  0.296875 2.7890625  C 0.49479166666666674 2.548735119047617  0.7291666666666667 2.4285714285714293  1 2.4285714285714293  L 2 2.4285714285714293  L 2 1.5178571428571432  C 2 1.1004464285714293  2.1223958333333335 0.7431175595238085  2.3671875 0.44587053571428625  C 2.611979166666667 0.14862351190476208  2.90625 0  3.25 0  L 3.7499999999999996 0  C 4.09375 0  4.388020833333334 0.14862351190476208  4.6328125 0.44587053571428625  C 4.877604166666667 0.7431175595238085  5 1.1004464285714293  5 1.5178571428571432  L 5 2.4285714285714293  L 8 2.4285714285714293  L 8 1.5178571428571432  C 8 1.1004464285714293  8.122395833333334 0.7431175595238085  8.3671875 0.44587053571428625  C 8.611979166666668 0.14862351190476208  8.90625 0  9.25 0  L 9.75 0  C 10.09375 0  10.388020833333334 0.14862351190476208  10.6328125 0.44587053571428625  C 10.877604166666668 0.7431175595238085  11 1.1004464285714293  11 1.5178571428571432  L 11 2.4285714285714293  L 12 2.4285714285714293  C 12.270833333333334 2.4285714285714293  12.505208333333334 2.548735119047617  12.703125 2.7890625  Z " stroke-width="0" stroke-dasharray="0" stroke="rgba(170, 170, 170, 1)" fill="none" transform="matrix(1 0 0 1 1095 216 )" class="stroke" mask="url(#Clip29)" />
  </g>
</svg>