<?xml version="1.0" encoding="utf-8"?>
<svg version="1.1" xmlns:xlink="http://www.w3.org/1999/xlink" width="156px" height="30px" xmlns="http://www.w3.org/2000/svg">
  <defs>
    <pattern id="BGPattern" patternUnits="userSpaceOnUse" alignment="0 0" imageRepeat="None" />
    <mask fill="white" id="Clip86">
      <path d="M 0 28  L 0 2  C 0 0.8799999999999955  1.1834482758620628 0  2.689655172413793 0  L 153.3103448275862 0  C 154.81655172413795 0  156 0.8799999999999955  156 2  L 156 28  C 156 29.120000000000005  154.81655172413795 30  153.3103448275862 30  L 41.24137931034646 30  L 2.689655172413793 30  C 1.1834482758620628 30  0 29.120000000000005  0 28  Z " fill-rule="evenodd" />
    </mask>
  </defs>
  <g transform="matrix(1 0 0 1 -341 -141 )">
    <path d="M 0 28  L 0 2  C 0 0.8799999999999955  1.1834482758620628 0  2.689655172413793 0  L 153.3103448275862 0  C 154.81655172413795 0  156 0.8799999999999955  156 2  L 156 28  C 156 29.120000000000005  154.81655172413795 30  153.3103448275862 30  L 41.24137931034646 30  L 2.689655172413793 30  C 1.1834482758620628 30  0 29.120000000000005  0 28  Z " fill-rule="nonzero" fill="rgba(242, 242, 242, 1)" stroke="none" transform="matrix(1 0 0 1 341 141 )" class="fill" />
    <path d="M 0 28  L 0 2  C 0 0.8799999999999955  1.1834482758620628 0  2.689655172413793 0  L 153.3103448275862 0  C 154.81655172413795 0  156 0.8799999999999955  156 2  L 156 28  C 156 29.120000000000005  154.81655172413795 30  153.3103448275862 30  L 41.24137931034646 30  L 2.689655172413793 30  C 1.1834482758620628 30  0 29.120000000000005  0 28  Z " stroke-width="2" stroke-dasharray="0" stroke="rgba(215, 215, 215, 1)" fill="none" transform="matrix(1 0 0 1 341 141 )" class="stroke" mask="url(#Clip86)" />
  </g>
</svg>