<?xml version="1.0" encoding="utf-8"?>
<svg version="1.1" xmlns:xlink="http://www.w3.org/1999/xlink" width="18px" height="15px" xmlns="http://www.w3.org/2000/svg">
  <defs>
    <pattern id="BGPattern" patternUnits="userSpaceOnUse" alignment="0 0" imageRepeat="None" />
    <mask fill="white" id="Clip19">
      <path d="M 1.3846153846153846 11.517857142857142  L 1.3846153846153846 13.928571428571429  L 4.5 13.928571428571429  L 4.5 11.517857142857142  L 1.3846153846153846 11.517857142857142  Z M 5.192307692307692 11.517857142857142  L 5.192307692307692 13.928571428571429  L 8.653846153846153 13.928571428571429  L 8.653846153846153 11.517857142857142  L 5.192307692307692 11.517857142857142  Z M 1.3846153846153846 8.303571428571429  L 1.3846153846153846 10.982142857142858  L 4.5 10.982142857142858  L 4.5 8.303571428571429  L 1.3846153846153846 8.303571428571429  Z M 5.192307692307692 8.303571428571429  L 5.192307692307692 10.982142857142858  L 8.653846153846153 10.982142857142858  L 8.653846153846153 8.303571428571429  L 5.192307692307692 8.303571428571429  Z M 1.3846153846153846 5.357142857142857  L 1.3846153846153846 7.767857142857142  L 4.5 7.767857142857142  L 4.5 5.357142857142857  L 1.3846153846153846 5.357142857142857  Z M 9.346153846153847 11.517857142857142  L 9.346153846153847 13.928571428571429  L 12.807692307692308 13.928571428571429  L 12.807692307692308 11.517857142857142  L 9.346153846153847 11.517857142857142  Z M 5.192307692307692 5.357142857142857  L 5.192307692307692 7.767857142857142  L 8.653846153846153 7.767857142857142  L 8.653846153846153 5.357142857142857  L 5.192307692307692 5.357142857142857  Z M 13.5 11.517857142857142  L 13.5 13.928571428571429  L 16.615384615384617 13.928571428571429  L 16.615384615384617 11.517857142857142  L 13.5 11.517857142857142  Z M 9.346153846153847 8.303571428571429  L 9.346153846153847 10.982142857142858  L 12.807692307692308 10.982142857142858  L 12.807692307692308 8.303571428571429  L 9.346153846153847 8.303571428571429  Z M 5.435697115384615 3.938337053571429  C 5.504206730769231 3.8853236607142847  5.538461538461538 3.8225446428571415  5.538461538461538 3.75  L 5.538461538461538 1.3392857142857144  C 5.538461538461538 1.2667410714285716  5.504206730769231 1.203962053571428  5.435697115384615 1.1509486607142856  C 5.367187500000001 1.0979352678571415  5.2860576923076925 1.071428571428571  5.192307692307692 1.071428571428571  L 4.5 1.071428571428571  C 4.40625 1.071428571428571  4.3251201923076925 1.0979352678571415  4.256610576923077 1.1509486607142856  C 4.188100961538461 1.203962053571428  4.153846153846154 1.2667410714285716  4.153846153846154 1.3392857142857144  L 4.153846153846154 3.75  C 4.153846153846154 3.8225446428571415  4.188100961538461 3.8853236607142847  4.256610576923077 3.938337053571429  C 4.3251201923076925 3.9913504464285716  4.40625 4.017857142857143  4.5 4.017857142857143  L 5.192307692307692 4.017857142857143  C 5.2860576923076925 4.017857142857143  5.367187500000001 3.9913504464285716  5.435697115384615 3.938337053571429  Z M 13.5 8.303571428571429  L 13.5 10.982142857142858  L 16.615384615384617 10.982142857142858  L 16.615384615384617 8.303571428571429  L 13.5 8.303571428571429  Z M 9.346153846153847 5.357142857142857  L 9.346153846153847 7.767857142857142  L 12.807692307692308 7.767857142857142  L 12.807692307692308 5.357142857142857  L 9.346153846153847 5.357142857142857  Z M 13.5 5.357142857142857  L 13.5 7.767857142857142  L 16.615384615384617 7.767857142857142  L 16.615384615384617 5.357142857142857  L 13.5 5.357142857142857  Z M 13.743389423076923 3.938337053571429  C 13.81189903846154 3.8853236607142847  13.846153846153847 3.8225446428571415  13.846153846153847 3.75  L 13.846153846153847 1.3392857142857144  C 13.846153846153847 1.2667410714285716  13.81189903846154 1.203962053571428  13.743389423076923 1.1509486607142856  C 13.674879807692308 1.0979352678571415  13.59375 1.071428571428571  13.5 1.071428571428571  L 12.807692307692308 1.071428571428571  C 12.71394230769231 1.071428571428571  12.632812500000002 1.0979352678571415  12.564302884615383 1.1509486607142856  C 12.49579326923077 1.203962053571428  12.461538461538462 1.2667410714285716  12.461538461538462 1.3392857142857144  L 12.461538461538462 3.75  C 12.461538461538462 3.8225446428571415  12.49579326923077 3.8853236607142847  12.564302884615383 3.938337053571429  C 12.632812500000002 3.9913504464285716  12.71394230769231 4.017857142857143  12.807692307692308 4.017857142857143  L 13.5 4.017857142857143  C 13.59375 4.017857142857143  13.674879807692308 3.9913504464285716  13.743389423076923 3.938337053571429  Z M 17.588942307692307 2.4609375  C 17.86298076923077 2.6729910714285716  18 2.9241071428571423  18 3.2142857142857144  L 18 13.928571428571429  C 18 14.218750000000002  17.86298076923077 14.469866071428573  17.588942307692307 14.681919642857144  C 17.314903846153847 14.893973214285714  16.990384615384617 15  16.615384615384617 15  L 1.3846153846153846 15  C 1.0096153846153848 15  0.685096153846154 14.893973214285714  0.4110576923076923 14.681919642857144  C 0.13701923076923075 14.469866071428573  0 14.218750000000002  0 13.928571428571429  L 0 3.2142857142857144  C 0 2.9241071428571423  0.13701923076923075 2.6729910714285716  0.4110576923076923 2.4609375  C 0.685096153846154 2.248883928571427  1.0096153846153848 2.1428571428571437  1.3846153846153846 2.1428571428571437  L 2.769230769230769 2.1428571428571437  L 2.769230769230769 1.3392857142857144  C 2.769230769230769 0.9709821428571436  2.9387019230769234 0.6556919642857134  3.277644230769231 0.39341517857142905  C 3.616586538461539 0.13113839285714302  4.024038461538462 0  4.5 0  L 5.192307692307692 0  C 5.668269230769231 0  6.075721153846155 0.13113839285714302  6.414663461538462 0.39341517857142905  C 6.75360576923077 0.6556919642857134  6.923076923076923 0.9709821428571436  6.923076923076923 1.3392857142857144  L 6.923076923076923 2.1428571428571437  L 11.076923076923077 2.1428571428571437  L 11.076923076923077 1.3392857142857144  C 11.076923076923077 0.9709821428571436  11.246394230769232 0.6556919642857134  11.585336538461538 0.39341517857142905  C 11.924278846153848 0.13113839285714302  12.33173076923077 0  12.807692307692308 0  L 13.5 0  C 13.975961538461538 0  14.383413461538462 0.13113839285714302  14.72235576923077 0.39341517857142905  C 15.061298076923078 0.6556919642857134  15.23076923076923 0.9709821428571436  15.23076923076923 1.3392857142857144  L 15.23076923076923 2.1428571428571437  L 16.615384615384617 2.1428571428571437  C 16.990384615384617 2.1428571428571437  17.314903846153847 2.248883928571427  17.588942307692307 2.4609375  Z " fill-rule="evenodd" />
    </mask>
  </defs>
  <g transform="matrix(1 0 0 1 -701 -136 )">
    <path d="M 1.3846153846153846 11.517857142857142  L 1.3846153846153846 13.928571428571429  L 4.5 13.928571428571429  L 4.5 11.517857142857142  L 1.3846153846153846 11.517857142857142  Z M 5.192307692307692 11.517857142857142  L 5.192307692307692 13.928571428571429  L 8.653846153846153 13.928571428571429  L 8.653846153846153 11.517857142857142  L 5.192307692307692 11.517857142857142  Z M 1.3846153846153846 8.303571428571429  L 1.3846153846153846 10.982142857142858  L 4.5 10.982142857142858  L 4.5 8.303571428571429  L 1.3846153846153846 8.303571428571429  Z M 5.192307692307692 8.303571428571429  L 5.192307692307692 10.982142857142858  L 8.653846153846153 10.982142857142858  L 8.653846153846153 8.303571428571429  L 5.192307692307692 8.303571428571429  Z M 1.3846153846153846 5.357142857142857  L 1.3846153846153846 7.767857142857142  L 4.5 7.767857142857142  L 4.5 5.357142857142857  L 1.3846153846153846 5.357142857142857  Z M 9.346153846153847 11.517857142857142  L 9.346153846153847 13.928571428571429  L 12.807692307692308 13.928571428571429  L 12.807692307692308 11.517857142857142  L 9.346153846153847 11.517857142857142  Z M 5.192307692307692 5.357142857142857  L 5.192307692307692 7.767857142857142  L 8.653846153846153 7.767857142857142  L 8.653846153846153 5.357142857142857  L 5.192307692307692 5.357142857142857  Z M 13.5 11.517857142857142  L 13.5 13.928571428571429  L 16.615384615384617 13.928571428571429  L 16.615384615384617 11.517857142857142  L 13.5 11.517857142857142  Z M 9.346153846153847 8.303571428571429  L 9.346153846153847 10.982142857142858  L 12.807692307692308 10.982142857142858  L 12.807692307692308 8.303571428571429  L 9.346153846153847 8.303571428571429  Z M 5.435697115384615 3.938337053571429  C 5.504206730769231 3.8853236607142847  5.538461538461538 3.8225446428571415  5.538461538461538 3.75  L 5.538461538461538 1.3392857142857144  C 5.538461538461538 1.2667410714285716  5.504206730769231 1.203962053571428  5.435697115384615 1.1509486607142856  C 5.367187500000001 1.0979352678571415  5.2860576923076925 1.071428571428571  5.192307692307692 1.071428571428571  L 4.5 1.071428571428571  C 4.40625 1.071428571428571  4.3251201923076925 1.0979352678571415  4.256610576923077 1.1509486607142856  C 4.188100961538461 1.203962053571428  4.153846153846154 1.2667410714285716  4.153846153846154 1.3392857142857144  L 4.153846153846154 3.75  C 4.153846153846154 3.8225446428571415  4.188100961538461 3.8853236607142847  4.256610576923077 3.938337053571429  C 4.3251201923076925 3.9913504464285716  4.40625 4.017857142857143  4.5 4.017857142857143  L 5.192307692307692 4.017857142857143  C 5.2860576923076925 4.017857142857143  5.367187500000001 3.9913504464285716  5.435697115384615 3.938337053571429  Z M 13.5 8.303571428571429  L 13.5 10.982142857142858  L 16.615384615384617 10.982142857142858  L 16.615384615384617 8.303571428571429  L 13.5 8.303571428571429  Z M 9.346153846153847 5.357142857142857  L 9.346153846153847 7.767857142857142  L 12.807692307692308 7.767857142857142  L 12.807692307692308 5.357142857142857  L 9.346153846153847 5.357142857142857  Z M 13.5 5.357142857142857  L 13.5 7.767857142857142  L 16.615384615384617 7.767857142857142  L 16.615384615384617 5.357142857142857  L 13.5 5.357142857142857  Z M 13.743389423076923 3.938337053571429  C 13.81189903846154 3.8853236607142847  13.846153846153847 3.8225446428571415  13.846153846153847 3.75  L 13.846153846153847 1.3392857142857144  C 13.846153846153847 1.2667410714285716  13.81189903846154 1.203962053571428  13.743389423076923 1.1509486607142856  C 13.674879807692308 1.0979352678571415  13.59375 1.071428571428571  13.5 1.071428571428571  L 12.807692307692308 1.071428571428571  C 12.71394230769231 1.071428571428571  12.632812500000002 1.0979352678571415  12.564302884615383 1.1509486607142856  C 12.49579326923077 1.203962053571428  12.461538461538462 1.2667410714285716  12.461538461538462 1.3392857142857144  L 12.461538461538462 3.75  C 12.461538461538462 3.8225446428571415  12.49579326923077 3.8853236607142847  12.564302884615383 3.938337053571429  C 12.632812500000002 3.9913504464285716  12.71394230769231 4.017857142857143  12.807692307692308 4.017857142857143  L 13.5 4.017857142857143  C 13.59375 4.017857142857143  13.674879807692308 3.9913504464285716  13.743389423076923 3.938337053571429  Z M 17.588942307692307 2.4609375  C 17.86298076923077 2.6729910714285716  18 2.9241071428571423  18 3.2142857142857144  L 18 13.928571428571429  C 18 14.218750000000002  17.86298076923077 14.469866071428573  17.588942307692307 14.681919642857144  C 17.314903846153847 14.893973214285714  16.990384615384617 15  16.615384615384617 15  L 1.3846153846153846 15  C 1.0096153846153848 15  0.685096153846154 14.893973214285714  0.4110576923076923 14.681919642857144  C 0.13701923076923075 14.469866071428573  0 14.218750000000002  0 13.928571428571429  L 0 3.2142857142857144  C 0 2.9241071428571423  0.13701923076923075 2.6729910714285716  0.4110576923076923 2.4609375  C 0.685096153846154 2.248883928571427  1.0096153846153848 2.1428571428571437  1.3846153846153846 2.1428571428571437  L 2.769230769230769 2.1428571428571437  L 2.769230769230769 1.3392857142857144  C 2.769230769230769 0.9709821428571436  2.9387019230769234 0.6556919642857134  3.277644230769231 0.39341517857142905  C 3.616586538461539 0.13113839285714302  4.024038461538462 0  4.5 0  L 5.192307692307692 0  C 5.668269230769231 0  6.075721153846155 0.13113839285714302  6.414663461538462 0.39341517857142905  C 6.75360576923077 0.6556919642857134  6.923076923076923 0.9709821428571436  6.923076923076923 1.3392857142857144  L 6.923076923076923 2.1428571428571437  L 11.076923076923077 2.1428571428571437  L 11.076923076923077 1.3392857142857144  C 11.076923076923077 0.9709821428571436  11.246394230769232 0.6556919642857134  11.585336538461538 0.39341517857142905  C 11.924278846153848 0.13113839285714302  12.33173076923077 0  12.807692307692308 0  L 13.5 0  C 13.975961538461538 0  14.383413461538462 0.13113839285714302  14.72235576923077 0.39341517857142905  C 15.061298076923078 0.6556919642857134  15.23076923076923 0.9709821428571436  15.23076923076923 1.3392857142857144  L 15.23076923076923 2.1428571428571437  L 16.615384615384617 2.1428571428571437  C 16.990384615384617 2.1428571428571437  17.314903846153847 2.248883928571427  17.588942307692307 2.4609375  Z " fill-rule="nonzero" fill="rgba(127, 127, 127, 1)" stroke="none" transform="matrix(1 0 0 1 701 136 )" class="fill" />
    <path d="M 1.3846153846153846 11.517857142857142  L 1.3846153846153846 13.928571428571429  L 4.5 13.928571428571429  L 4.5 11.517857142857142  L 1.3846153846153846 11.517857142857142  Z " stroke-width="0" stroke-dasharray="0" stroke="rgba(170, 170, 170, 1)" fill="none" transform="matrix(1 0 0 1 701 136 )" class="stroke" mask="url(#Clip19)" />
    <path d="M 5.192307692307692 11.517857142857142  L 5.192307692307692 13.928571428571429  L 8.653846153846153 13.928571428571429  L 8.653846153846153 11.517857142857142  L 5.192307692307692 11.517857142857142  Z " stroke-width="0" stroke-dasharray="0" stroke="rgba(170, 170, 170, 1)" fill="none" transform="matrix(1 0 0 1 701 136 )" class="stroke" mask="url(#Clip19)" />
    <path d="M 1.3846153846153846 8.303571428571429  L 1.3846153846153846 10.982142857142858  L 4.5 10.982142857142858  L 4.5 8.303571428571429  L 1.3846153846153846 8.303571428571429  Z " stroke-width="0" stroke-dasharray="0" stroke="rgba(170, 170, 170, 1)" fill="none" transform="matrix(1 0 0 1 701 136 )" class="stroke" mask="url(#Clip19)" />
    <path d="M 5.192307692307692 8.303571428571429  L 5.192307692307692 10.982142857142858  L 8.653846153846153 10.982142857142858  L 8.653846153846153 8.303571428571429  L 5.192307692307692 8.303571428571429  Z " stroke-width="0" stroke-dasharray="0" stroke="rgba(170, 170, 170, 1)" fill="none" transform="matrix(1 0 0 1 701 136 )" class="stroke" mask="url(#Clip19)" />
    <path d="M 1.3846153846153846 5.357142857142857  L 1.3846153846153846 7.767857142857142  L 4.5 7.767857142857142  L 4.5 5.357142857142857  L 1.3846153846153846 5.357142857142857  Z " stroke-width="0" stroke-dasharray="0" stroke="rgba(170, 170, 170, 1)" fill="none" transform="matrix(1 0 0 1 701 136 )" class="stroke" mask="url(#Clip19)" />
    <path d="M 9.346153846153847 11.517857142857142  L 9.346153846153847 13.928571428571429  L 12.807692307692308 13.928571428571429  L 12.807692307692308 11.517857142857142  L 9.346153846153847 11.517857142857142  Z " stroke-width="0" stroke-dasharray="0" stroke="rgba(170, 170, 170, 1)" fill="none" transform="matrix(1 0 0 1 701 136 )" class="stroke" mask="url(#Clip19)" />
    <path d="M 5.192307692307692 5.357142857142857  L 5.192307692307692 7.767857142857142  L 8.653846153846153 7.767857142857142  L 8.653846153846153 5.357142857142857  L 5.192307692307692 5.357142857142857  Z " stroke-width="0" stroke-dasharray="0" stroke="rgba(170, 170, 170, 1)" fill="none" transform="matrix(1 0 0 1 701 136 )" class="stroke" mask="url(#Clip19)" />
    <path d="M 13.5 11.517857142857142  L 13.5 13.928571428571429  L 16.615384615384617 13.928571428571429  L 16.615384615384617 11.517857142857142  L 13.5 11.517857142857142  Z " stroke-width="0" stroke-dasharray="0" stroke="rgba(170, 170, 170, 1)" fill="none" transform="matrix(1 0 0 1 701 136 )" class="stroke" mask="url(#Clip19)" />
    <path d="M 9.346153846153847 8.303571428571429  L 9.346153846153847 10.982142857142858  L 12.807692307692308 10.982142857142858  L 12.807692307692308 8.303571428571429  L 9.346153846153847 8.303571428571429  Z " stroke-width="0" stroke-dasharray="0" stroke="rgba(170, 170, 170, 1)" fill="none" transform="matrix(1 0 0 1 701 136 )" class="stroke" mask="url(#Clip19)" />
    <path d="M 5.435697115384615 3.938337053571429  C 5.504206730769231 3.8853236607142847  5.538461538461538 3.8225446428571415  5.538461538461538 3.75  L 5.538461538461538 1.3392857142857144  C 5.538461538461538 1.2667410714285716  5.504206730769231 1.203962053571428  5.435697115384615 1.1509486607142856  C 5.367187500000001 1.0979352678571415  5.2860576923076925 1.071428571428571  5.192307692307692 1.071428571428571  L 4.5 1.071428571428571  C 4.40625 1.071428571428571  4.3251201923076925 1.0979352678571415  4.256610576923077 1.1509486607142856  C 4.188100961538461 1.203962053571428  4.153846153846154 1.2667410714285716  4.153846153846154 1.3392857142857144  L 4.153846153846154 3.75  C 4.153846153846154 3.8225446428571415  4.188100961538461 3.8853236607142847  4.256610576923077 3.938337053571429  C 4.3251201923076925 3.9913504464285716  4.40625 4.017857142857143  4.5 4.017857142857143  L 5.192307692307692 4.017857142857143  C 5.2860576923076925 4.017857142857143  5.367187500000001 3.9913504464285716  5.435697115384615 3.938337053571429  Z " stroke-width="0" stroke-dasharray="0" stroke="rgba(170, 170, 170, 1)" fill="none" transform="matrix(1 0 0 1 701 136 )" class="stroke" mask="url(#Clip19)" />
    <path d="M 13.5 8.303571428571429  L 13.5 10.982142857142858  L 16.615384615384617 10.982142857142858  L 16.615384615384617 8.303571428571429  L 13.5 8.303571428571429  Z " stroke-width="0" stroke-dasharray="0" stroke="rgba(170, 170, 170, 1)" fill="none" transform="matrix(1 0 0 1 701 136 )" class="stroke" mask="url(#Clip19)" />
    <path d="M 9.346153846153847 5.357142857142857  L 9.346153846153847 7.767857142857142  L 12.807692307692308 7.767857142857142  L 12.807692307692308 5.357142857142857  L 9.346153846153847 5.357142857142857  Z " stroke-width="0" stroke-dasharray="0" stroke="rgba(170, 170, 170, 1)" fill="none" transform="matrix(1 0 0 1 701 136 )" class="stroke" mask="url(#Clip19)" />
    <path d="M 13.5 5.357142857142857  L 13.5 7.767857142857142  L 16.615384615384617 7.767857142857142  L 16.615384615384617 5.357142857142857  L 13.5 5.357142857142857  Z " stroke-width="0" stroke-dasharray="0" stroke="rgba(170, 170, 170, 1)" fill="none" transform="matrix(1 0 0 1 701 136 )" class="stroke" mask="url(#Clip19)" />
    <path d="M 13.743389423076923 3.938337053571429  C 13.81189903846154 3.8853236607142847  13.846153846153847 3.8225446428571415  13.846153846153847 3.75  L 13.846153846153847 1.3392857142857144  C 13.846153846153847 1.2667410714285716  13.81189903846154 1.203962053571428  13.743389423076923 1.1509486607142856  C 13.674879807692308 1.0979352678571415  13.59375 1.071428571428571  13.5 1.071428571428571  L 12.807692307692308 1.071428571428571  C 12.71394230769231 1.071428571428571  12.632812500000002 1.0979352678571415  12.564302884615383 1.1509486607142856  C 12.49579326923077 1.203962053571428  12.461538461538462 1.2667410714285716  12.461538461538462 1.3392857142857144  L 12.461538461538462 3.75  C 12.461538461538462 3.8225446428571415  12.49579326923077 3.8853236607142847  12.564302884615383 3.938337053571429  C 12.632812500000002 3.9913504464285716  12.71394230769231 4.017857142857143  12.807692307692308 4.017857142857143  L 13.5 4.017857142857143  C 13.59375 4.017857142857143  13.674879807692308 3.9913504464285716  13.743389423076923 3.938337053571429  Z " stroke-width="0" stroke-dasharray="0" stroke="rgba(170, 170, 170, 1)" fill="none" transform="matrix(1 0 0 1 701 136 )" class="stroke" mask="url(#Clip19)" />
    <path d="M 17.588942307692307 2.4609375  C 17.86298076923077 2.6729910714285716  18 2.9241071428571423  18 3.2142857142857144  L 18 13.928571428571429  C 18 14.218750000000002  17.86298076923077 14.469866071428573  17.588942307692307 14.681919642857144  C 17.314903846153847 14.893973214285714  16.990384615384617 15  16.615384615384617 15  L 1.3846153846153846 15  C 1.0096153846153848 15  0.685096153846154 14.893973214285714  0.4110576923076923 14.681919642857144  C 0.13701923076923075 14.469866071428573  0 14.218750000000002  0 13.928571428571429  L 0 3.2142857142857144  C 0 2.9241071428571423  0.13701923076923075 2.6729910714285716  0.4110576923076923 2.4609375  C 0.685096153846154 2.248883928571427  1.0096153846153848 2.1428571428571437  1.3846153846153846 2.1428571428571437  L 2.769230769230769 2.1428571428571437  L 2.769230769230769 1.3392857142857144  C 2.769230769230769 0.9709821428571436  2.9387019230769234 0.6556919642857134  3.277644230769231 0.39341517857142905  C 3.616586538461539 0.13113839285714302  4.024038461538462 0  4.5 0  L 5.192307692307692 0  C 5.668269230769231 0  6.075721153846155 0.13113839285714302  6.414663461538462 0.39341517857142905  C 6.75360576923077 0.6556919642857134  6.923076923076923 0.9709821428571436  6.923076923076923 1.3392857142857144  L 6.923076923076923 2.1428571428571437  L 11.076923076923077 2.1428571428571437  L 11.076923076923077 1.3392857142857144  C 11.076923076923077 0.9709821428571436  11.246394230769232 0.6556919642857134  11.585336538461538 0.39341517857142905  C 11.924278846153848 0.13113839285714302  12.33173076923077 0  12.807692307692308 0  L 13.5 0  C 13.975961538461538 0  14.383413461538462 0.13113839285714302  14.72235576923077 0.39341517857142905  C 15.061298076923078 0.6556919642857134  15.23076923076923 0.9709821428571436  15.23076923076923 1.3392857142857144  L 15.23076923076923 2.1428571428571437  L 16.615384615384617 2.1428571428571437  C 16.990384615384617 2.1428571428571437  17.314903846153847 2.248883928571427  17.588942307692307 2.4609375  Z " stroke-width="0" stroke-dasharray="0" stroke="rgba(170, 170, 170, 1)" fill="none" transform="matrix(1 0 0 1 701 136 )" class="stroke" mask="url(#Clip19)" />
  </g>
</svg>