<?xml version="1.0" encoding="utf-8"?>
<svg version="1.1" xmlns:xlink="http://www.w3.org/1999/xlink" width="36px" height="36px" xmlns="http://www.w3.org/2000/svg">
  <defs>
    <pattern id="BGPattern" patternUnits="userSpaceOnUse" alignment="0 0" imageRepeat="None" />
    <mask fill="white" id="Clip89">
      <path d="M 0.1428571289062501 18  C 0.1428571289062501 8.137946442522322  8.137946442522322 0.1428571289062501  18 0.1428571289062501  C 27.86205355747768 0.1428571289062501  35.85714287109375 8.137946400669643  35.85714287109375 18  C 35.85714287109375 27.86205359933036  27.86205355747768 35.85714287109375  18 35.85714287109375  C 8.137946442522322 35.85714287109375  0.1428571289062501 27.86205355747768  0.1428571289062501 18  Z M 26.03587516653794 13.535714178924657  C 26.03587516653794 13.180145948181204  25.894480885177344 12.839171928857633  25.64285712890625 12.587946428571428  C 25.39174040726848 12.337141960719315  25.051340403083323 12.196267697583888  24.69642845769308 12.196267697583888  C 24.340860237199138 12.196267697583888  23.99988622683775 12.337661970815741  23.748660728236608 12.589285714285714  L 15.77857144252232 20.571428571428573  L 12.24866070033482 17.056250013950898  C 11.998300754528108 16.810797748115807  11.661671804858864 16.673309295993196  11.311062453489106 16.673309295993196  C 10.571395377822864 16.673309295993196  9.97177673920339 17.27292793461267  9.97177673920339 18.01259501027891  C 9.97177673920339 18.365062564002145  10.110722467272703 18.703321814744648  10.358482156808035 18.954017871093754  L 14.836160700334819 23.413392857142863  C 15.35978788981663 23.934891844464413  16.206868702339047 23.933693145210245  16.729017857142857 23.410714285714295  L 25.644196414620534 14.482142871093757  C 25.89500089527821 14.231026147741169  26.03587516653794 13.890626134577465  26.03587516653794 13.535714178924657  Z " fill-rule="evenodd" />
    </mask>
  </defs>
  <g transform="matrix(1 0 0 1 -1248 -95 )">
    <path d="M 0.1428571289062501 18  C 0.1428571289062501 8.137946442522322  8.137946442522322 0.1428571289062501  18 0.1428571289062501  C 27.86205355747768 0.1428571289062501  35.85714287109375 8.137946400669643  35.85714287109375 18  C 35.85714287109375 27.86205359933036  27.86205355747768 35.85714287109375  18 35.85714287109375  C 8.137946442522322 35.85714287109375  0.1428571289062501 27.86205355747768  0.1428571289062501 18  Z M 26.03587516653794 13.535714178924657  C 26.03587516653794 13.180145948181204  25.894480885177344 12.839171928857633  25.64285712890625 12.587946428571428  C 25.39174040726848 12.337141960719315  25.051340403083323 12.196267697583888  24.69642845769308 12.196267697583888  C 24.340860237199138 12.196267697583888  23.99988622683775 12.337661970815741  23.748660728236608 12.589285714285714  L 15.77857144252232 20.571428571428573  L 12.24866070033482 17.056250013950898  C 11.998300754528108 16.810797748115807  11.661671804858864 16.673309295993196  11.311062453489106 16.673309295993196  C 10.571395377822864 16.673309295993196  9.97177673920339 17.27292793461267  9.97177673920339 18.01259501027891  C 9.97177673920339 18.365062564002145  10.110722467272703 18.703321814744648  10.358482156808035 18.954017871093754  L 14.836160700334819 23.413392857142863  C 15.35978788981663 23.934891844464413  16.206868702339047 23.933693145210245  16.729017857142857 23.410714285714295  L 25.644196414620534 14.482142871093757  C 25.89500089527821 14.231026147741169  26.03587516653794 13.890626134577465  26.03587516653794 13.535714178924657  Z " fill-rule="nonzero" fill="rgba(0, 0, 0, 1)" stroke="none" transform="matrix(1 0 0 1 1248 95 )" class="fill" />
    <path d="M 0.1428571289062501 18  C 0.1428571289062501 8.137946442522322  8.137946442522322 0.1428571289062501  18 0.1428571289062501  C 27.86205355747768 0.1428571289062501  35.85714287109375 8.137946400669643  35.85714287109375 18  C 35.85714287109375 27.86205359933036  27.86205355747768 35.85714287109375  18 35.85714287109375  C 8.137946442522322 35.85714287109375  0.1428571289062501 27.86205355747768  0.1428571289062501 18  Z " stroke-width="0" stroke-dasharray="0" stroke="rgba(255, 255, 255, 0)" fill="none" transform="matrix(1 0 0 1 1248 95 )" class="stroke" mask="url(#Clip89)" />
    <path d="M 26.03587516653794 13.535714178924657  C 26.03587516653794 13.180145948181204  25.894480885177344 12.839171928857633  25.64285712890625 12.587946428571428  C 25.39174040726848 12.337141960719315  25.051340403083323 12.196267697583888  24.69642845769308 12.196267697583888  C 24.340860237199138 12.196267697583888  23.99988622683775 12.337661970815741  23.748660728236608 12.589285714285714  L 15.77857144252232 20.571428571428573  L 12.24866070033482 17.056250013950898  C 11.998300754528108 16.810797748115807  11.661671804858864 16.673309295993196  11.311062453489106 16.673309295993196  C 10.571395377822864 16.673309295993196  9.97177673920339 17.27292793461267  9.97177673920339 18.01259501027891  C 9.97177673920339 18.365062564002145  10.110722467272703 18.703321814744648  10.358482156808035 18.954017871093754  L 14.836160700334819 23.413392857142863  C 15.35978788981663 23.934891844464413  16.206868702339047 23.933693145210245  16.729017857142857 23.410714285714295  L 25.644196414620534 14.482142871093757  C 25.89500089527821 14.231026147741169  26.03587516653794 13.890626134577465  26.03587516653794 13.535714178924657  Z " stroke-width="0" stroke-dasharray="0" stroke="rgba(255, 255, 255, 0)" fill="none" transform="matrix(1 0 0 1 1248 95 )" class="stroke" mask="url(#Clip89)" />
  </g>
</svg>