<?xml version="1.0" encoding="utf-8"?>
<svg version="1.1" xmlns:xlink="http://www.w3.org/1999/xlink" width="36px" height="36px" xmlns="http://www.w3.org/2000/svg">
  <defs>
    <pattern id="BGPattern" patternUnits="userSpaceOnUse" alignment="0 0" imageRepeat="None" />
    <mask fill="white" id="Clip96">
      <path d="M 35.77838031969573 18.05617270281457  C 35.77838031969573 8.16126025455298  27.809735680509863 0.13984313431291334  17.97992134046052 0.13984313431291334  C 8.150107000411182 0.13984313431291334  0.18146236122532752 8.16126025455298  0.18146236122532752 18.056172702814568  C 0.18146236122532752 27.951085151076157  8.150107000411182 35.97250227131623  17.97992134046052 35.97250227131623  C 27.809735680509863 35.97250227131623  35.77838031969573 27.951085151076164  35.77838031969573 18.05617270281457  Z M 15.975417202919397 6.5492193501655676  C 15.928317588404607 5.844621652524834  16.091864602179275 5.280924384312914  16.465348226768093 4.8581752276490064  C 16.791779559004933 4.5058525144867545  17.211794747121708 4.3297387934602645  17.72529923930921 4.3297387934602645  C 18.35529840666118 4.3297387934602645  18.810247851562497 4.518003212955298  19.090242218338812 4.893436061672186  C 19.393147358141448 5.339867166804636  19.533120903577302 5.891985549461921  19.51021013055098 6.549267032284769  L 19.055260685649664 22.438049425703642  C 18.98525025185032 23.025381006829473  18.83325331517269 23.459709049048016  18.600311240748347 23.741557683153975  C 18.32031687397203 24.047040630173843  17.993317537006572 24.199520038286426  17.620354594983546 24.199520038286426  C 17.270349794407885 24.199520038286426  16.97833199013157 24.058571880173847  16.74538991570723 23.77677088162252  C 16.48835364412006 23.448130116928816  16.371906291118414 23.001651376241725  16.39538511513157 22.438001743584444  L 15.975417202919397 6.5492193501655676  Z M 20.35014595497534 28.49758086196192  C 20.32666708470395 29.225860554635766  20.093109683388157 29.83634995343543  19.65018362972862 30.329525553600998  C 19.13667913754112 30.845858924875827  18.49527190583882 31.104597423427148  17.725299239309212 31.104597423427148  C 16.931800380345397 31.08096311051325  16.278322388980264 30.810645726407287  15.765385947779608 30.29431235513245  C 15.32189188939145 29.753725222475158  15.100405247738491 29.155386522144035  15.100405247738491 28.49758086196192  C 15.123363389185858 27.74614330504967  15.356873468338819 27.112067275455292  15.800367526726976 26.595162091266552  C 16.290345826480266 26.10189121999172  16.931800426603623 25.855303466473508  17.725299285567438 25.855303466473508  C 18.471793174342107 25.855303466473508  19.1016976511102 26.101938902110923  19.61524946546053 26.595162091266552  C 20.105180443050994 27.1357015883692  20.35014595497534 27.769825253518206  20.35014595497534 28.49758086196192  Z " fill-rule="evenodd" />
    </mask>
  </defs>
  <g transform="matrix(1 0 0 1 -129 -328 )">
    <path d="M 35.77838031969573 18.05617270281457  C 35.77838031969573 8.16126025455298  27.809735680509863 0.13984313431291334  17.97992134046052 0.13984313431291334  C 8.150107000411182 0.13984313431291334  0.18146236122532752 8.16126025455298  0.18146236122532752 18.056172702814568  C 0.18146236122532752 27.951085151076157  8.150107000411182 35.97250227131623  17.97992134046052 35.97250227131623  C 27.809735680509863 35.97250227131623  35.77838031969573 27.951085151076164  35.77838031969573 18.05617270281457  Z M 15.975417202919397 6.5492193501655676  C 15.928317588404607 5.844621652524834  16.091864602179275 5.280924384312914  16.465348226768093 4.8581752276490064  C 16.791779559004933 4.5058525144867545  17.211794747121708 4.3297387934602645  17.72529923930921 4.3297387934602645  C 18.35529840666118 4.3297387934602645  18.810247851562497 4.518003212955298  19.090242218338812 4.893436061672186  C 19.393147358141448 5.339867166804636  19.533120903577302 5.891985549461921  19.51021013055098 6.549267032284769  L 19.055260685649664 22.438049425703642  C 18.98525025185032 23.025381006829473  18.83325331517269 23.459709049048016  18.600311240748347 23.741557683153975  C 18.32031687397203 24.047040630173843  17.993317537006572 24.199520038286426  17.620354594983546 24.199520038286426  C 17.270349794407885 24.199520038286426  16.97833199013157 24.058571880173847  16.74538991570723 23.77677088162252  C 16.48835364412006 23.448130116928816  16.371906291118414 23.001651376241725  16.39538511513157 22.438001743584444  L 15.975417202919397 6.5492193501655676  Z M 20.35014595497534 28.49758086196192  C 20.32666708470395 29.225860554635766  20.093109683388157 29.83634995343543  19.65018362972862 30.329525553600998  C 19.13667913754112 30.845858924875827  18.49527190583882 31.104597423427148  17.725299239309212 31.104597423427148  C 16.931800380345397 31.08096311051325  16.278322388980264 30.810645726407287  15.765385947779608 30.29431235513245  C 15.32189188939145 29.753725222475158  15.100405247738491 29.155386522144035  15.100405247738491 28.49758086196192  C 15.123363389185858 27.74614330504967  15.356873468338819 27.112067275455292  15.800367526726976 26.595162091266552  C 16.290345826480266 26.10189121999172  16.931800426603623 25.855303466473508  17.725299285567438 25.855303466473508  C 18.471793174342107 25.855303466473508  19.1016976511102 26.101938902110923  19.61524946546053 26.595162091266552  C 20.105180443050994 27.1357015883692  20.35014595497534 27.769825253518206  20.35014595497534 28.49758086196192  Z " fill-rule="nonzero" fill="rgba(39, 38, 54, 1)" stroke="none" transform="matrix(1 0 0 1 129 328 )" class="fill" />
    <path d="M 35.77838031969573 18.05617270281457  C 35.77838031969573 8.16126025455298  27.809735680509863 0.13984313431291334  17.97992134046052 0.13984313431291334  C 8.150107000411182 0.13984313431291334  0.18146236122532752 8.16126025455298  0.18146236122532752 18.056172702814568  C 0.18146236122532752 27.951085151076157  8.150107000411182 35.97250227131623  17.97992134046052 35.97250227131623  C 27.809735680509863 35.97250227131623  35.77838031969573 27.951085151076164  35.77838031969573 18.05617270281457  Z " stroke-width="0" stroke-dasharray="0" stroke="rgba(255, 255, 255, 0)" fill="none" transform="matrix(1 0 0 1 129 328 )" class="stroke" mask="url(#Clip96)" />
    <path d="M 15.975417202919397 6.5492193501655676  C 15.928317588404607 5.844621652524834  16.091864602179275 5.280924384312914  16.465348226768093 4.8581752276490064  C 16.791779559004933 4.5058525144867545  17.211794747121708 4.3297387934602645  17.72529923930921 4.3297387934602645  C 18.35529840666118 4.3297387934602645  18.810247851562497 4.518003212955298  19.090242218338812 4.893436061672186  C 19.393147358141448 5.339867166804636  19.533120903577302 5.891985549461921  19.51021013055098 6.549267032284769  L 19.055260685649664 22.438049425703642  C 18.98525025185032 23.025381006829473  18.83325331517269 23.459709049048016  18.600311240748347 23.741557683153975  C 18.32031687397203 24.047040630173843  17.993317537006572 24.199520038286426  17.620354594983546 24.199520038286426  C 17.270349794407885 24.199520038286426  16.97833199013157 24.058571880173847  16.74538991570723 23.77677088162252  C 16.48835364412006 23.448130116928816  16.371906291118414 23.001651376241725  16.39538511513157 22.438001743584444  L 15.975417202919397 6.5492193501655676  Z " stroke-width="0" stroke-dasharray="0" stroke="rgba(255, 255, 255, 0)" fill="none" transform="matrix(1 0 0 1 129 328 )" class="stroke" mask="url(#Clip96)" />
    <path d="M 20.35014595497534 28.49758086196192  C 20.32666708470395 29.225860554635766  20.093109683388157 29.83634995343543  19.65018362972862 30.329525553600998  C 19.13667913754112 30.845858924875827  18.49527190583882 31.104597423427148  17.725299239309212 31.104597423427148  C 16.931800380345397 31.08096311051325  16.278322388980264 30.810645726407287  15.765385947779608 30.29431235513245  C 15.32189188939145 29.753725222475158  15.100405247738491 29.155386522144035  15.100405247738491 28.49758086196192  C 15.123363389185858 27.74614330504967  15.356873468338819 27.112067275455292  15.800367526726976 26.595162091266552  C 16.290345826480266 26.10189121999172  16.931800426603623 25.855303466473508  17.725299285567438 25.855303466473508  C 18.471793174342107 25.855303466473508  19.1016976511102 26.101938902110923  19.61524946546053 26.595162091266552  C 20.105180443050994 27.1357015883692  20.35014595497534 27.769825253518206  20.35014595497534 28.49758086196192  Z " stroke-width="0" stroke-dasharray="0" stroke="rgba(255, 255, 255, 0)" fill="none" transform="matrix(1 0 0 1 129 328 )" class="stroke" mask="url(#Clip96)" />
  </g>
</svg>