<?xml version="1.0" encoding="utf-8"?>
<svg version="1.1" xmlns:xlink="http://www.w3.org/1999/xlink" width="13px" height="13px" viewBox="256 501 13 13" xmlns="http://www.w3.org/2000/svg">
  <path d="M 262.5 501  C 266.14 501  269 503.86  269 507.5  C 269 511.14  266.14 514  262.5 514  C 258.86 514  256 511.14  256 507.5  C 256 503.86  258.86 501  262.5 501  Z " fill-rule="nonzero" fill="rgba(255, 255, 255, 1)" stroke="none" class="fill" />
  <path d="M 262.5 501.5  C 265.86 501.5  268.5 504.14  268.5 507.5  C 268.5 510.86  265.86 513.5  262.5 513.5  C 259.14 513.5  256.5 510.86  256.5 507.5  C 256.5 504.14  259.14 501.5  262.5 501.5  Z " stroke-width="1" stroke-dasharray="0" stroke="rgba(121, 121, 121, 1)" fill="none" class="stroke" stroke-dashoffset="0.5" />
  <path d="M 262.5 510.75  C 260.68 510.75  259.25 509.32  259.25 507.5  C 259.25 505.68  260.68 504.25  262.5 504.25  C 264.32 504.25  265.75 505.68  265.75 507.5  C 265.75 509.32  264.32 510.75  262.5 510.75  " fill-rule="nonzero" fill="rgba(121, 121, 121, 1)" stroke="none" class="stroke btn_check" />
</svg>