<?xml version="1.0" encoding="utf-8"?>
<svg version="1.1" xmlns:xlink="http://www.w3.org/1999/xlink" width="116px" height="30px" xmlns="http://www.w3.org/2000/svg">
  <defs>
    <pattern id="BGPattern" patternUnits="userSpaceOnUse" alignment="0 0" imageRepeat="None" />
    <mask fill="white" id="Clip16">
      <path d="M 0 28  L 0 2  C 0 0.8799999999999955  0.8799999999999955 0  2 0  L 114 0  C 115.12 0  116 0.8799999999999955  116 2  L 116 28  C 116 29.120000000000005  115.12 30  114 30  L 30.66666666666788 30  L 2 30  C 0.8799999999999955 30  0 29.120000000000005  0 28  Z " fill-rule="evenodd" />
    </mask>
  </defs>
  <g transform="matrix(1 0 0 1 -291 -237 )">
    <path d="M 0 28  L 0 2  C 0 0.8799999999999955  0.8799999999999955 0  2 0  L 114 0  C 115.12 0  116 0.8799999999999955  116 2  L 116 28  C 116 29.120000000000005  115.12 30  114 30  L 30.66666666666788 30  L 2 30  C 0.8799999999999955 30  0 29.120000000000005  0 28  Z " fill-rule="nonzero" fill="rgba(85, 85, 85, 1)" stroke="none" transform="matrix(1 0 0 1 291 237 )" class="fill" />
    <path d="M 0 28  L 0 2  C 0 0.8799999999999955  0.8799999999999955 0  2 0  L 114 0  C 115.12 0  116 0.8799999999999955  116 2  L 116 28  C 116 29.120000000000005  115.12 30  114 30  L 30.66666666666788 30  L 2 30  C 0.8799999999999955 30  0 29.120000000000005  0 28  Z " stroke-width="2" stroke-dasharray="0" stroke="rgba(215, 215, 215, 1)" fill="none" transform="matrix(1 0 0 1 291 237 )" class="stroke" mask="url(#Clip16)" />
  </g>
</svg>