<svg t="1634808902214" class="icon" viewBox="0 0 1024 1024" version="1.1" xmlns="http://www.w3.org/2000/svg" p-id="3332" width="200" height="200"><path d="M872.7 582.6L635.2 177c-53.5-91.3-186.6-88.1-235.6 5.7L187.7 588.3c-46.8 89.7 18.2 197 119.4 197h449.4c104 0 168.8-112.9 116.2-202.7zM496.6 295.2c0-20.5 11.7-31.5 35.1-32.9 22 1.5 33.7 12.5 35.1 32.9V315l-26.4 267.9h-13.2L496.6 315v-19.8z m35.2 406.3c-22-1.5-34.4-13.2-37.3-35.1 1.4-19 13.2-29.3 35.1-30.7 23.4 1.5 36.6 11.7 39.5 30.7-1.5 21.9-13.9 33.6-37.3 35.1z" p-id="3333" fill="#d81e06"></path></svg>