<?xml version="1.0" encoding="utf-8"?>
<svg version="1.1" xmlns:xlink="http://www.w3.org/1999/xlink" width="14px" height="14px" xmlns="http://www.w3.org/2000/svg">
  <defs>
    <pattern id="BGPattern" patternUnits="userSpaceOnUse" alignment="0 0" imageRepeat="None" />
    <mask fill="white" id="Clip62">
      <path d="M 13.062393188476562 12.255928039550781  L 7.966367721601562 7.159902572675782  L 13.062393188476562 2.063877105625  C 13.319627761796875 1.8066425323046875  13.319627761796875 1.3825531004101563  13.062393188476562 1.125318527265625  L 13.034584045410156 1.0975093841992187  C 12.777349472089844 0.8402748108789062  12.353260040195313 0.8402748108789062  12.096025466875 1.0975093841992187  L 7 6.200487136796875  L 1.903974533125 1.0975093841992187  C 1.6467399598046875 0.8402748108789062  1.2226505279101563 0.8402748108789062  0.9654159545898438 1.0975093841992187  L 0.9376068115234375 1.125318527265625  C 0.6734199523046875 1.3825531005859375  0.6734199523046875 1.8066425324804685  0.9376068115234375 2.063877105800781  L 6.0336322783984375 7.159902572675782  L 0.9376068115234375 12.255928039550781  C 0.680372238203125 12.513162612871094  0.680372238203125 12.937252044765625  0.9376068115234375 13.194486618085937  L 0.9654159545898438 13.222295761152344  C 1.2226505279101563 13.479530334472656  1.6467399598046875 13.479530334472656  1.903974533125 13.222295761152344  L 7 8.126270294277344  L 12.096025466875 13.222295761152344  C 12.353260040195313 13.479530334472656  12.777349472089844 13.479530334472656  13.034584045410156 13.222295761152344  L 13.062393188476562 13.194486618085937  C 13.319627761796875 12.937252044765625  13.319627761796875 12.513162612871094  13.062393188476562 12.255928039550781  Z " fill-rule="evenodd" />
    </mask>
  </defs>
  <g transform="matrix(1 0 0 1 -768 -456 )">
    <path d="M 13.062393188476562 12.255928039550781  L 7.966367721601562 7.159902572675782  L 13.062393188476562 2.063877105625  C 13.319627761796875 1.8066425323046875  13.319627761796875 1.3825531004101563  13.062393188476562 1.125318527265625  L 13.034584045410156 1.0975093841992187  C 12.777349472089844 0.8402748108789062  12.353260040195313 0.8402748108789062  12.096025466875 1.0975093841992187  L 7 6.200487136796875  L 1.903974533125 1.0975093841992187  C 1.6467399598046875 0.8402748108789062  1.2226505279101563 0.8402748108789062  0.9654159545898438 1.0975093841992187  L 0.9376068115234375 1.125318527265625  C 0.6734199523046875 1.3825531005859375  0.6734199523046875 1.8066425324804685  0.9376068115234375 2.063877105800781  L 6.0336322783984375 7.159902572675782  L 0.9376068115234375 12.255928039550781  C 0.680372238203125 12.513162612871094  0.680372238203125 12.937252044765625  0.9376068115234375 13.194486618085937  L 0.9654159545898438 13.222295761152344  C 1.2226505279101563 13.479530334472656  1.6467399598046875 13.479530334472656  1.903974533125 13.222295761152344  L 7 8.126270294277344  L 12.096025466875 13.222295761152344  C 12.353260040195313 13.479530334472656  12.777349472089844 13.479530334472656  13.034584045410156 13.222295761152344  L 13.062393188476562 13.194486618085937  C 13.319627761796875 12.937252044765625  13.319627761796875 12.513162612871094  13.062393188476562 12.255928039550781  Z " fill-rule="nonzero" fill="rgba(242, 242, 242, 1)" stroke="none" transform="matrix(1 0 0 1 768 456 )" class="fill" />
    <path d="M 13.062393188476562 12.255928039550781  L 7.966367721601562 7.159902572675782  L 13.062393188476562 2.063877105625  C 13.319627761796875 1.8066425323046875  13.319627761796875 1.3825531004101563  13.062393188476562 1.125318527265625  L 13.034584045410156 1.0975093841992187  C 12.777349472089844 0.8402748108789062  12.353260040195313 0.8402748108789062  12.096025466875 1.0975093841992187  L 7 6.200487136796875  L 1.903974533125 1.0975093841992187  C 1.6467399598046875 0.8402748108789062  1.2226505279101563 0.8402748108789062  0.9654159545898438 1.0975093841992187  L 0.9376068115234375 1.125318527265625  C 0.6734199523046875 1.3825531005859375  0.6734199523046875 1.8066425324804685  0.9376068115234375 2.063877105800781  L 6.0336322783984375 7.159902572675782  L 0.9376068115234375 12.255928039550781  C 0.680372238203125 12.513162612871094  0.680372238203125 12.937252044765625  0.9376068115234375 13.194486618085937  L 0.9654159545898438 13.222295761152344  C 1.2226505279101563 13.479530334472656  1.6467399598046875 13.479530334472656  1.903974533125 13.222295761152344  L 7 8.126270294277344  L 12.096025466875 13.222295761152344  C 12.353260040195313 13.479530334472656  12.777349472089844 13.479530334472656  13.034584045410156 13.222295761152344  L 13.062393188476562 13.194486618085937  C 13.319627761796875 12.937252044765625  13.319627761796875 12.513162612871094  13.062393188476562 12.255928039550781  Z " stroke-width="0" stroke-dasharray="0" stroke="rgba(255, 255, 255, 0)" fill="none" transform="matrix(1 0 0 1 768 456 )" class="stroke" mask="url(#Clip62)" />
  </g>
</svg>