<?xml version="1.0" encoding="utf-8"?>
<svg version="1.1" xmlns:xlink="http://www.w3.org/1999/xlink" width="30px" height="30px" xmlns="http://www.w3.org/2000/svg">
  <defs>
    <pattern id="BGPattern" patternUnits="userSpaceOnUse" alignment="0 0" imageRepeat="None" />
    <mask fill="white" id="Clip66">
      <path d="M 29.830508491128178 12.881355915651483  L 26.65254238943326 12.881355915651483  L 17 12.881355915651483  L 17 0.16949150887182304  L 19.23728811904131 2.288135593220339  L 21.779661000397244 4.830508474576271  L 26.65254238943326 0.16949150887182304  L 29.618644067796613 3.135593236890889  L 24.745762728416317 8.008474576271187  L 25.805084745762713 9.067796593617585  L 27.71186440677966 10.762711880958683  L 29.830508491128178 12.881355915651483  Z M 0.16949150887182304 0.16949150887182304  L 15 0.16949150887182304  L 15 5  L 5 5  L 5 25  L 25 25  L 25 15  L 29.830508491128178 15  L 29.830508491128178 29.830508491128178  L 0.16949150887182304 29.830508491128178  L 0.16949150887182304 0.16949150887182304  Z " fill-rule="evenodd" />
    </mask>
  </defs>
  <g transform="matrix(1 0 0 1 -927 -785 )">
    <path d="M 29.830508491128178 12.881355915651483  L 26.65254238943326 12.881355915651483  L 17 12.881355915651483  L 17 0.16949150887182304  L 19.23728811904131 2.288135593220339  L 21.779661000397244 4.830508474576271  L 26.65254238943326 0.16949150887182304  L 29.618644067796613 3.135593236890889  L 24.745762728416317 8.008474576271187  L 25.805084745762713 9.067796593617585  L 27.71186440677966 10.762711880958683  L 29.830508491128178 12.881355915651483  Z M 0.16949150887182304 0.16949150887182304  L 15 0.16949150887182304  L 15 5  L 5 5  L 5 25  L 25 25  L 25 15  L 29.830508491128178 15  L 29.830508491128178 29.830508491128178  L 0.16949150887182304 29.830508491128178  L 0.16949150887182304 0.16949150887182304  Z " fill-rule="nonzero" fill="rgba(68, 68, 68, 1)" stroke="none" transform="matrix(1 0 0 1 927 785 )" class="fill" />
    <path d="M 29.830508491128178 12.881355915651483  L 26.65254238943326 12.881355915651483  L 17 12.881355915651483  L 17 0.16949150887182304  L 19.23728811904131 2.288135593220339  L 21.779661000397244 4.830508474576271  L 26.65254238943326 0.16949150887182304  L 29.618644067796613 3.135593236890889  L 24.745762728416317 8.008474576271187  L 25.805084745762713 9.067796593617585  L 27.71186440677966 10.762711880958683  L 29.830508491128178 12.881355915651483  Z " stroke-width="0" stroke-dasharray="0" stroke="rgba(255, 255, 255, 0)" fill="none" transform="matrix(1 0 0 1 927 785 )" class="stroke" mask="url(#Clip66)" />
    <path d="M 0.16949150887182304 0.16949150887182304  L 15 0.16949150887182304  L 15 5  L 5 5  L 5 25  L 25 25  L 25 15  L 29.830508491128178 15  L 29.830508491128178 29.830508491128178  L 0.16949150887182304 29.830508491128178  L 0.16949150887182304 0.16949150887182304  Z " stroke-width="0" stroke-dasharray="0" stroke="rgba(255, 255, 255, 0)" fill="none" transform="matrix(1 0 0 1 927 785 )" class="stroke" mask="url(#Clip66)" />
  </g>
</svg>