<?xml version="1.0" encoding="utf-8"?>
<svg version="1.1" xmlns:xlink="http://www.w3.org/1999/xlink" width="7px" height="7px" xmlns="http://www.w3.org/2000/svg">
  <defs>
    <pattern id="BGPattern" patternUnits="userSpaceOnUse" alignment="0 0" imageRepeat="None" />
    <mask fill="white" id="Clip84">
      <path d="M 6.770000000000002 1.1099999999999994  L 4.380000000000001 3.5  L 6.770000000000002 5.889999999999999  C 6.886695255529401 6.006695255529397  6.952253967444165 6.1649679869657295  6.952253967444165 6.329999999999998  C 6.952253967444165 6.6736613767411175  6.6736613767411175 6.952253967444165  6.329999999999998 6.952253967444165  C 6.1649679869657295 6.952253967444165  6.006695255529397 6.886695255529401  5.889999999999999 6.769999999999999  L 3.5 4.380000000000001  L 1.1099999999999994 6.770000000000002  C 0.993304744470602 6.886695255529401  0.8350320130342709 6.952253967444165  0.6700000000000003 6.952253967444165  C 0.32633862325888285 6.952253967444165  0.04774603255583827 6.6736613767411175  0.04774603255583827 6.329999999999998  C 0.04774603255583827 6.1649679869657295  0.11330474447060085 6.006695255529397  0.23000000000000115 5.889999999999999  L 2.62 3.5  L 0.23000000000000115 1.1099999999999994  C 0.11330474447060225 0.993304744470602  0.04774603255583969 0.8350320130342709  0.04774603255583969 0.6700000000000003  C 0.04774603255583969 0.32633862325888285  0.32633862325888285 0.04774603255583969  0.6700000000000003 0.04774603255583969  C 0.8350320130342709 0.04774603255583969  0.993304744470602 0.11330474447060225  1.1099999999999994 0.23000000000000115  L 3.5 2.62  L 5.889999999999999 0.23000000000000115  C 6.006695255529397 0.11330474447060225  6.1649679869657295 0.04774603255583827  6.329999999999998 0.04774603255583827  C 6.6736613767411175 0.04774603255583827  6.952253967444165 0.32633862325888285  6.952253967444165 0.6700000000000003  C 6.952253967444165 0.8350320130342709  6.886695255529401 0.993304744470602  6.770000000000002 1.1099999999999994  Z " fill-rule="evenodd" />
    </mask>
  </defs>
  <g transform="matrix(1 0 0 1 -1337 -596 )">
    <path d="M 6.770000000000002 1.1099999999999994  L 4.380000000000001 3.5  L 6.770000000000002 5.889999999999999  C 6.886695255529401 6.006695255529397  6.952253967444165 6.1649679869657295  6.952253967444165 6.329999999999998  C 6.952253967444165 6.6736613767411175  6.6736613767411175 6.952253967444165  6.329999999999998 6.952253967444165  C 6.1649679869657295 6.952253967444165  6.006695255529397 6.886695255529401  5.889999999999999 6.769999999999999  L 3.5 4.380000000000001  L 1.1099999999999994 6.770000000000002  C 0.993304744470602 6.886695255529401  0.8350320130342709 6.952253967444165  0.6700000000000003 6.952253967444165  C 0.32633862325888285 6.952253967444165  0.04774603255583827 6.6736613767411175  0.04774603255583827 6.329999999999998  C 0.04774603255583827 6.1649679869657295  0.11330474447060085 6.006695255529397  0.23000000000000115 5.889999999999999  L 2.62 3.5  L 0.23000000000000115 1.1099999999999994  C 0.11330474447060225 0.993304744470602  0.04774603255583969 0.8350320130342709  0.04774603255583969 0.6700000000000003  C 0.04774603255583969 0.32633862325888285  0.32633862325888285 0.04774603255583969  0.6700000000000003 0.04774603255583969  C 0.8350320130342709 0.04774603255583969  0.993304744470602 0.11330474447060225  1.1099999999999994 0.23000000000000115  L 3.5 2.62  L 5.889999999999999 0.23000000000000115  C 6.006695255529397 0.11330474447060225  6.1649679869657295 0.04774603255583827  6.329999999999998 0.04774603255583827  C 6.6736613767411175 0.04774603255583827  6.952253967444165 0.32633862325888285  6.952253967444165 0.6700000000000003  C 6.952253967444165 0.8350320130342709  6.886695255529401 0.993304744470602  6.770000000000002 1.1099999999999994  Z " fill-rule="nonzero" fill="rgba(145, 0, 18, 1)" stroke="none" transform="matrix(1 0 0 1 1337 596 )" class="fill" />
    <path d="M 6.770000000000002 1.1099999999999994  L 4.380000000000001 3.5  L 6.770000000000002 5.889999999999999  C 6.886695255529401 6.006695255529397  6.952253967444165 6.1649679869657295  6.952253967444165 6.329999999999998  C 6.952253967444165 6.6736613767411175  6.6736613767411175 6.952253967444165  6.329999999999998 6.952253967444165  C 6.1649679869657295 6.952253967444165  6.006695255529397 6.886695255529401  5.889999999999999 6.769999999999999  L 3.5 4.380000000000001  L 1.1099999999999994 6.770000000000002  C 0.993304744470602 6.886695255529401  0.8350320130342709 6.952253967444165  0.6700000000000003 6.952253967444165  C 0.32633862325888285 6.952253967444165  0.04774603255583827 6.6736613767411175  0.04774603255583827 6.329999999999998  C 0.04774603255583827 6.1649679869657295  0.11330474447060085 6.006695255529397  0.23000000000000115 5.889999999999999  L 2.62 3.5  L 0.23000000000000115 1.1099999999999994  C 0.11330474447060225 0.993304744470602  0.04774603255583969 0.8350320130342709  0.04774603255583969 0.6700000000000003  C 0.04774603255583969 0.32633862325888285  0.32633862325888285 0.04774603255583969  0.6700000000000003 0.04774603255583969  C 0.8350320130342709 0.04774603255583969  0.993304744470602 0.11330474447060225  1.1099999999999994 0.23000000000000115  L 3.5 2.62  L 5.889999999999999 0.23000000000000115  C 6.006695255529397 0.11330474447060225  6.1649679869657295 0.04774603255583827  6.329999999999998 0.04774603255583827  C 6.6736613767411175 0.04774603255583827  6.952253967444165 0.32633862325888285  6.952253967444165 0.6700000000000003  C 6.952253967444165 0.8350320130342709  6.886695255529401 0.993304744470602  6.770000000000002 1.1099999999999994  Z " stroke-width="0" stroke-dasharray="0" stroke="rgba(255, 255, 255, 0)" fill="none" transform="matrix(1 0 0 1 1337 596 )" class="stroke" mask="url(#Clip84)" />
  </g>
</svg>