<?xml version="1.0" encoding="utf-8"?>
<svg version="1.1" xmlns:xlink="http://www.w3.org/1999/xlink" width="17px" height="17px" xmlns="http://www.w3.org/2000/svg">
  <defs>
    <pattern id="BGPattern" patternUnits="userSpaceOnUse" alignment="0 0" imageRepeat="None" />
    <mask fill="white" id="Clip74">
      <path d="M 1.2500000000000002 8.5  C 1.2500000000000002 12.504064436273254  4.495935563726748 15.75  8.5 15.75  C 12.504064436273254 15.75  15.75 12.504064436273254  15.75 8.5  C 15.75 4.495935563726748  12.504064436273254 1.2500000000000007  8.5 1.2500000000000007  C 4.495935563726748 1.2500000000000007  1.2500000000000007 4.495935563726748  1.2500000000000007 8.5  Z M 8.500000000000004 17  C 3.805579626438258 17  0 13.194420373561746  0 8.500000000000004  C 0 3.805579626438258  3.805579626438258 0  8.500000000000004 0  C 13.194420373561746 0  17 3.805579626438258  17 8.500000000000004  C 17 13.194420373561746  13.194420373561746 17  8.500000000000004 17  Z " fill-rule="evenodd" />
    </mask>
  </defs>
  <g transform="matrix(1 0 0 1 -1332 -591 )">
    <path d="M 1.2500000000000002 8.5  C 1.2500000000000002 12.504064436273254  4.495935563726748 15.75  8.5 15.75  C 12.504064436273254 15.75  15.75 12.504064436273254  15.75 8.5  C 15.75 4.495935563726748  12.504064436273254 1.2500000000000007  8.5 1.2500000000000007  C 4.495935563726748 1.2500000000000007  1.2500000000000007 4.495935563726748  1.2500000000000007 8.5  Z M 8.500000000000004 17  C 3.805579626438258 17  0 13.194420373561746  0 8.500000000000004  C 0 3.805579626438258  3.805579626438258 0  8.500000000000004 0  C 13.194420373561746 0  17 3.805579626438258  17 8.500000000000004  C 17 13.194420373561746  13.194420373561746 17  8.500000000000004 17  Z " fill-rule="nonzero" fill="rgba(145, 0, 18, 1)" stroke="none" transform="matrix(1 0 0 1 1332 591 )" class="fill" />
    <path d="M 1.2500000000000002 8.5  C 1.2500000000000002 12.504064436273254  4.495935563726748 15.75  8.5 15.75  C 12.504064436273254 15.75  15.75 12.504064436273254  15.75 8.5  C 15.75 4.495935563726748  12.504064436273254 1.2500000000000007  8.5 1.2500000000000007  C 4.495935563726748 1.2500000000000007  1.2500000000000007 4.495935563726748  1.2500000000000007 8.5  Z " stroke-width="0" stroke-dasharray="0" stroke="rgba(255, 255, 255, 0)" fill="none" transform="matrix(1 0 0 1 1332 591 )" class="stroke" mask="url(#Clip74)" />
    <path d="M 8.500000000000004 17  C 3.805579626438258 17  0 13.194420373561746  0 8.500000000000004  C 0 3.805579626438258  3.805579626438258 0  8.500000000000004 0  C 13.194420373561746 0  17 3.805579626438258  17 8.500000000000004  C 17 13.194420373561746  13.194420373561746 17  8.500000000000004 17  Z " stroke-width="0" stroke-dasharray="0" stroke="rgba(255, 255, 255, 0)" fill="none" transform="matrix(1 0 0 1 1332 591 )" class="stroke" mask="url(#Clip74)" />
  </g>
</svg>