<?xml version="1.0" encoding="utf-8"?>
<svg version="1.1" xmlns:xlink="http://www.w3.org/1999/xlink" width="33px" height="33px" xmlns="http://www.w3.org/2000/svg">
  <defs>
    <pattern id="BGPattern" patternUnits="userSpaceOnUse" alignment="0 0" imageRepeat="None" />
    <mask fill="white" id="Clip71">
      <path d="M 33 4.78125  C 32.90625 2.203125  30.796875 0.09375  28.21875 0  L 4.78125 0  C 2.203125 0.09375  0.09375 2.203125  0 4.78125  L 0 28.21875  C 0.09375 30.796875  2.203125 32.90625  4.78125 33  L 28.21875 33  C 30.796875 32.90625  32.90625 30.796875  33 28.21875  L 33 4.78125  Z M 10 15.328125  L 10 27.046875  C 9.46875 27.69140625  8.941406250000002 28.21875  8.296875 28.21875  L 5.953125 28.21875  C 5.30859375 28.21875  4.78125 27.69140625  5 27.046875  L 5 15.328125  C 4.78125 14.68359375  5.30859375 14.15625  5.953125 14.15625  L 8.296875 14.15625  C 8.941406250000002 14.15625  9.46875 14.68359375  10 15.328125  Z M 18.86572265625 10.640625  L 18.86572265625 27.046875  C 18.86572265625 27.69140625  18.338378906250004 28.21875  17.69384765625 28.21875  L 15.35009765625 28.21875  C 14.70556640625 28.21875  14.17822265625 27.69140625  14.17822265625 27.046875  L 14.17822265625 10.640625  C 14.17822265625 9.99609375  14.70556640625 9.46875  15.35009765625 9.46875  L 17.69384765625 9.46875  C 18.338378906250004 9.46875  18.86572265625 9.99609375  18.86572265625 10.640625  Z M 28 12.984375  L 28 27.046875  C 28.21875 27.69140625  27.69140625 28.21875  27.046875 28.21875  L 24.703125 28.21875  C 24.05859375 28.21875  23.53125 27.69140625  23 27.046875  L 23 12.984375  C 23.53125 12.33984375  24.05859375 11.8125  24.703125 11.8125  L 27.046875 11.8125  C 27.69140625 11.8125  28.21875 12.33984375  28 12.984375  Z " fill-rule="evenodd" />
    </mask>
  </defs>
  <g transform="matrix(1 0 0 1 -1170 -782 )">
    <path d="M 33 4.78125  C 32.90625 2.203125  30.796875 0.09375  28.21875 0  L 4.78125 0  C 2.203125 0.09375  0.09375 2.203125  0 4.78125  L 0 28.21875  C 0.09375 30.796875  2.203125 32.90625  4.78125 33  L 28.21875 33  C 30.796875 32.90625  32.90625 30.796875  33 28.21875  L 33 4.78125  Z M 10 15.328125  L 10 27.046875  C 9.46875 27.69140625  8.941406250000002 28.21875  8.296875 28.21875  L 5.953125 28.21875  C 5.30859375 28.21875  4.78125 27.69140625  5 27.046875  L 5 15.328125  C 4.78125 14.68359375  5.30859375 14.15625  5.953125 14.15625  L 8.296875 14.15625  C 8.941406250000002 14.15625  9.46875 14.68359375  10 15.328125  Z M 18.86572265625 10.640625  L 18.86572265625 27.046875  C 18.86572265625 27.69140625  18.338378906250004 28.21875  17.69384765625 28.21875  L 15.35009765625 28.21875  C 14.70556640625 28.21875  14.17822265625 27.69140625  14.17822265625 27.046875  L 14.17822265625 10.640625  C 14.17822265625 9.99609375  14.70556640625 9.46875  15.35009765625 9.46875  L 17.69384765625 9.46875  C 18.338378906250004 9.46875  18.86572265625 9.99609375  18.86572265625 10.640625  Z M 28 12.984375  L 28 27.046875  C 28.21875 27.69140625  27.69140625 28.21875  27.046875 28.21875  L 24.703125 28.21875  C 24.05859375 28.21875  23.53125 27.69140625  23 27.046875  L 23 12.984375  C 23.53125 12.33984375  24.05859375 11.8125  24.703125 11.8125  L 27.046875 11.8125  C 27.69140625 11.8125  28.21875 12.33984375  28 12.984375  Z " fill-rule="nonzero" fill="rgba(0, 0, 0, 1)" stroke="none" transform="matrix(1 0 0 1 1170 782 )" class="fill" />
    <path d="M 33 4.78125  C 32.90625 2.203125  30.796875 0.09375  28.21875 0  L 4.78125 0  C 2.203125 0.09375  0.09375 2.203125  0 4.78125  L 0 28.21875  C 0.09375 30.796875  2.203125 32.90625  4.78125 33  L 28.21875 33  C 30.796875 32.90625  32.90625 30.796875  33 28.21875  L 33 4.78125  Z " stroke-width="0" stroke-dasharray="0" stroke="rgba(255, 255, 255, 0)" fill="none" transform="matrix(1 0 0 1 1170 782 )" class="stroke" mask="url(#Clip71)" />
    <path d="M 10 15.328125  L 10 27.046875  C 9.46875 27.69140625  8.941406250000002 28.21875  8.296875 28.21875  L 5.953125 28.21875  C 5.30859375 28.21875  4.78125 27.69140625  5 27.046875  L 5 15.328125  C 4.78125 14.68359375  5.30859375 14.15625  5.953125 14.15625  L 8.296875 14.15625  C 8.941406250000002 14.15625  9.46875 14.68359375  10 15.328125  Z " stroke-width="0" stroke-dasharray="0" stroke="rgba(255, 255, 255, 0)" fill="none" transform="matrix(1 0 0 1 1170 782 )" class="stroke" mask="url(#Clip71)" />
    <path d="M 18.86572265625 10.640625  L 18.86572265625 27.046875  C 18.86572265625 27.69140625  18.338378906250004 28.21875  17.69384765625 28.21875  L 15.35009765625 28.21875  C 14.70556640625 28.21875  14.17822265625 27.69140625  14.17822265625 27.046875  L 14.17822265625 10.640625  C 14.17822265625 9.99609375  14.70556640625 9.46875  15.35009765625 9.46875  L 17.69384765625 9.46875  C 18.338378906250004 9.46875  18.86572265625 9.99609375  18.86572265625 10.640625  Z " stroke-width="0" stroke-dasharray="0" stroke="rgba(255, 255, 255, 0)" fill="none" transform="matrix(1 0 0 1 1170 782 )" class="stroke" mask="url(#Clip71)" />
    <path d="M 28 12.984375  L 28 27.046875  C 28.21875 27.69140625  27.69140625 28.21875  27.046875 28.21875  L 24.703125 28.21875  C 24.05859375 28.21875  23.53125 27.69140625  23 27.046875  L 23 12.984375  C 23.53125 12.33984375  24.05859375 11.8125  24.703125 11.8125  L 27.046875 11.8125  C 27.69140625 11.8125  28.21875 12.33984375  28 12.984375  Z " stroke-width="0" stroke-dasharray="0" stroke="rgba(255, 255, 255, 0)" fill="none" transform="matrix(1 0 0 1 1170 782 )" class="stroke" mask="url(#Clip71)" />
  </g>
</svg>