<?xml version="1.0" encoding="utf-8"?>
<svg version="1.1" xmlns:xlink="http://www.w3.org/1999/xlink" width="28px" height="32px" xmlns="http://www.w3.org/2000/svg">
  <defs>
    <pattern id="BGPattern" patternUnits="userSpaceOnUse" alignment="0 0" imageRepeat="None" />
    <mask fill="white" id="Clip73">
      <path d="M 27.915104740767045 8.00952590625  L 19.964418172940338 0.01270121875  L 19.964418172940338 8.00952590625  L 27.915104740767045 8.00952590625  Z M 17.976044899680396 10  L 17.976044899680396 0  L 4.060940158913353 0  C 1.8651916663099932 0.013090793090352564  0.08528262008273678 1.8031707481531933  0 4.011466375  L 0 28.00123484375  C 0.08528262008273847 30.20953047059681  1.8651916663099954 31.999610425659654  4.060940158913352 32  L 23.9383582253196 32  C 26.134380710917483 32.00000003437354  27.914717297414878 30.209805994892044  28 28.001234843749998  L 28 10  L 17.976044899680396 10  Z M 19.964418172940338 24  L 19.964418172940338 26  L 8.036985058593748 26  L 8.036985058593748 24  L 19.964418172940338 24  Z M 19.964418172940338 18  L 19.964418172940338 20  L 8.036985058593748 20  L 8.036985058593748 18  L 19.964418172940338 18  Z M 8.036985058593748 12  L 19.964418172940338 12  L 19.964418172940338 14  L 8.036985058593748 14  L 8.036985058593748 12  Z " fill-rule="evenodd" />
    </mask>
  </defs>
  <g transform="matrix(1 0 0 1 -927 -848 )">
    <path d="M 27.915104740767045 8.00952590625  L 19.964418172940338 0.01270121875  L 19.964418172940338 8.00952590625  L 27.915104740767045 8.00952590625  Z M 17.976044899680396 10  L 17.976044899680396 0  L 4.060940158913353 0  C 1.8651916663099932 0.013090793090352564  0.08528262008273678 1.8031707481531933  0 4.011466375  L 0 28.00123484375  C 0.08528262008273847 30.20953047059681  1.8651916663099954 31.999610425659654  4.060940158913352 32  L 23.9383582253196 32  C 26.134380710917483 32.00000003437354  27.914717297414878 30.209805994892044  28 28.001234843749998  L 28 10  L 17.976044899680396 10  Z M 19.964418172940338 24  L 19.964418172940338 26  L 8.036985058593748 26  L 8.036985058593748 24  L 19.964418172940338 24  Z M 19.964418172940338 18  L 19.964418172940338 20  L 8.036985058593748 20  L 8.036985058593748 18  L 19.964418172940338 18  Z M 8.036985058593748 12  L 19.964418172940338 12  L 19.964418172940338 14  L 8.036985058593748 14  L 8.036985058593748 12  Z " fill-rule="nonzero" fill="rgba(51, 51, 51, 1)" stroke="none" transform="matrix(1 0 0 1 927 848 )" class="fill" />
    <path d="M 27.915104740767045 8.00952590625  L 19.964418172940338 0.01270121875  L 19.964418172940338 8.00952590625  L 27.915104740767045 8.00952590625  Z " stroke-width="0" stroke-dasharray="0" stroke="rgba(255, 255, 255, 0)" fill="none" transform="matrix(1 0 0 1 927 848 )" class="stroke" mask="url(#Clip73)" />
    <path d="M 17.976044899680396 10  L 17.976044899680396 0  L 4.060940158913353 0  C 1.8651916663099932 0.013090793090352564  0.08528262008273678 1.8031707481531933  0 4.011466375  L 0 28.00123484375  C 0.08528262008273847 30.20953047059681  1.8651916663099954 31.999610425659654  4.060940158913352 32  L 23.9383582253196 32  C 26.134380710917483 32.00000003437354  27.914717297414878 30.209805994892044  28 28.001234843749998  L 28 10  L 17.976044899680396 10  Z " stroke-width="0" stroke-dasharray="0" stroke="rgba(255, 255, 255, 0)" fill="none" transform="matrix(1 0 0 1 927 848 )" class="stroke" mask="url(#Clip73)" />
    <path d="M 19.964418172940338 24  L 19.964418172940338 26  L 8.036985058593748 26  L 8.036985058593748 24  L 19.964418172940338 24  Z " stroke-width="0" stroke-dasharray="0" stroke="rgba(255, 255, 255, 0)" fill="none" transform="matrix(1 0 0 1 927 848 )" class="stroke" mask="url(#Clip73)" />
    <path d="M 19.964418172940338 18  L 19.964418172940338 20  L 8.036985058593748 20  L 8.036985058593748 18  L 19.964418172940338 18  Z " stroke-width="0" stroke-dasharray="0" stroke="rgba(255, 255, 255, 0)" fill="none" transform="matrix(1 0 0 1 927 848 )" class="stroke" mask="url(#Clip73)" />
    <path d="M 8.036985058593748 12  L 19.964418172940338 12  L 19.964418172940338 14  L 8.036985058593748 14  L 8.036985058593748 12  Z " stroke-width="0" stroke-dasharray="0" stroke="rgba(255, 255, 255, 0)" fill="none" transform="matrix(1 0 0 1 927 848 )" class="stroke" mask="url(#Clip73)" />
  </g>
</svg>