<?xml version="1.0" encoding="utf-8"?>
<svg version="1.1" xmlns:xlink="http://www.w3.org/1999/xlink" width="24px" height="17px" xmlns="http://www.w3.org/2000/svg">
  <defs>
    <pattern id="BGPattern" patternUnits="userSpaceOnUse" alignment="0 0" imageRepeat="None" />
    <mask fill="white" id="Clip84">
      <path d="M 1.8461538461538463 13.053571428571427  L 1.8461538461538463 15.785714285714286  L 6 15.785714285714286  L 6 13.053571428571427  L 1.8461538461538463 13.053571428571427  Z M 6.9230769230769225 13.053571428571427  L 6.9230769230769225 15.785714285714286  L 11.538461538461538 15.785714285714286  L 11.538461538461538 13.053571428571427  L 6.9230769230769225 13.053571428571427  Z M 1.8461538461538463 9.410714285714286  L 1.8461538461538463 12.446428571428573  L 6 12.446428571428573  L 6 9.410714285714286  L 1.8461538461538463 9.410714285714286  Z M 6.9230769230769225 9.410714285714286  L 6.9230769230769225 12.446428571428573  L 11.538461538461538 12.446428571428573  L 11.538461538461538 9.410714285714286  L 6.9230769230769225 9.410714285714286  Z M 1.8461538461538463 6.07142857142857  L 1.8461538461538463 8.803571428571427  L 6 8.803571428571427  L 6 6.07142857142857  L 1.8461538461538463 6.07142857142857  Z M 12.461538461538463 13.053571428571427  L 12.461538461538463 15.785714285714286  L 17.076923076923077 15.785714285714286  L 17.076923076923077 13.053571428571427  L 12.461538461538463 13.053571428571427  Z M 6.9230769230769225 6.07142857142857  L 6.9230769230769225 8.803571428571427  L 11.538461538461538 8.803571428571427  L 11.538461538461538 6.07142857142857  L 6.9230769230769225 6.07142857142857  Z M 18 13.053571428571427  L 18 15.785714285714286  L 22.153846153846153 15.785714285714286  L 22.153846153846153 13.053571428571427  L 18 13.053571428571427  Z M 12.461538461538463 9.410714285714286  L 12.461538461538463 12.446428571428573  L 17.076923076923077 12.446428571428573  L 17.076923076923077 9.410714285714286  L 12.461538461538463 9.410714285714286  Z M 7.247596153846153 4.4634486607142865  C 7.338942307692308 4.40336681547619  7.384615384615385 4.33221726190476  7.384615384615385 4.25  L 7.384615384615385 1.5178571428571432  C 7.384615384615385 1.435639880952381  7.338942307692308 1.3644903273809517  7.247596153846153 1.3044084821428568  C 7.156250000000001 1.24432663690476  7.048076923076923 1.2142857142857137  6.9230769230769225 1.2142857142857137  L 6 1.2142857142857137  C 5.875 1.2142857142857137  5.766826923076923 1.24432663690476  5.675480769230769 1.3044084821428568  C 5.584134615384615 1.3644903273809517  5.538461538461538 1.435639880952381  5.538461538461538 1.5178571428571432  L 5.538461538461538 4.25  C 5.538461538461538 4.33221726190476  5.584134615384615 4.40336681547619  5.675480769230769 4.4634486607142865  C 5.766826923076923 4.523530505952381  5.875 4.55357142857143  6 4.55357142857143  L 6.9230769230769225 4.55357142857143  C 7.048076923076923 4.55357142857143  7.156250000000001 4.523530505952381  7.247596153846153 4.4634486607142865  Z M 18 9.410714285714286  L 18 12.446428571428573  L 22.153846153846153 12.446428571428573  L 22.153846153846153 9.410714285714286  L 18 9.410714285714286  Z M 12.461538461538463 6.07142857142857  L 12.461538461538463 8.803571428571427  L 17.076923076923077 8.803571428571427  L 17.076923076923077 6.07142857142857  L 12.461538461538463 6.07142857142857  Z M 18 6.07142857142857  L 18 8.803571428571427  L 22.153846153846153 8.803571428571427  L 22.153846153846153 6.07142857142857  L 18 6.07142857142857  Z M 18.32451923076923 4.4634486607142865  C 18.415865384615387 4.40336681547619  18.461538461538463 4.33221726190476  18.461538461538463 4.25  L 18.461538461538463 1.5178571428571432  C 18.461538461538463 1.435639880952381  18.415865384615387 1.3644903273809517  18.32451923076923 1.3044084821428568  C 18.23317307692308 1.24432663690476  18.125 1.2142857142857137  18 1.2142857142857137  L 17.076923076923077 1.2142857142857137  C 16.95192307692308 1.2142857142857137  16.84375 1.24432663690476  16.752403846153847 1.3044084821428568  C 16.661057692307693 1.3644903273809517  16.615384615384613 1.435639880952381  16.615384615384613 1.5178571428571432  L 16.615384615384613 4.25  C 16.615384615384613 4.33221726190476  16.661057692307693 4.40336681547619  16.752403846153847 4.4634486607142865  C 16.84375 4.523530505952381  16.95192307692308 4.55357142857143  17.076923076923077 4.55357142857143  L 18 4.55357142857143  C 18.125 4.55357142857143  18.23317307692308 4.523530505952381  18.32451923076923 4.4634486607142865  Z M 23.451923076923077 2.7890625  C 23.817307692307693 3.029389880952381  24 3.313988095238095  24 3.6428571428571432  L 24 15.785714285714286  C 24 16.114583333333336  23.817307692307693 16.399181547619047  23.451923076923077 16.63950892857143  C 23.086538461538463 16.87983630952381  22.653846153846157 17  22.153846153846153 17  L 1.8461538461538463 17  C 1.3461538461538463 17  0.9134615384615385 16.87983630952381  0.548076923076923 16.63950892857143  C 0.18269230769230768 16.399181547619047  0 16.114583333333336  0 15.785714285714286  L 0 3.6428571428571432  C 0 3.313988095238095  0.18269230769230768 3.029389880952381  0.548076923076923 2.7890625  C 0.9134615384615385 2.548735119047617  1.3461538461538463 2.4285714285714293  1.8461538461538463 2.4285714285714293  L 3.6923076923076925 2.4285714285714293  L 3.6923076923076925 1.5178571428571432  C 3.6923076923076925 1.1004464285714293  3.918269230769231 0.7431175595238085  4.3701923076923075 0.44587053571428625  C 4.822115384615385 0.14862351190476208  5.365384615384616 0  6 0  L 6.9230769230769225 0  C 7.5576923076923075 0  8.10096153846154 0.14862351190476208  8.552884615384615 0.44587053571428625  C 9.004807692307693 0.7431175595238085  9.230769230769232 1.1004464285714293  9.230769230769232 1.5178571428571432  L 9.230769230769232 2.4285714285714293  L 14.76923076923077 2.4285714285714293  L 14.76923076923077 1.5178571428571432  C 14.76923076923077 1.1004464285714293  14.995192307692308 0.7431175595238085  15.447115384615385 0.44587053571428625  C 15.899038461538463 0.14862351190476208  16.442307692307693 0  17.076923076923077 0  L 18 0  C 18.634615384615387 0  19.177884615384617 0.14862351190476208  19.629807692307693 0.44587053571428625  C 20.081730769230774 0.7431175595238085  20.307692307692307 1.1004464285714293  20.307692307692307 1.5178571428571432  L 20.307692307692307 2.4285714285714293  L 22.153846153846153 2.4285714285714293  C 22.653846153846157 2.4285714285714293  23.086538461538463 2.548735119047617  23.451923076923077 2.7890625  Z " fill-rule="evenodd" />
    </mask>
  </defs>
  <g transform="matrix(1 0 0 1 -294 -77 )">
    <path d="M 1.8461538461538463 13.053571428571427  L 1.8461538461538463 15.785714285714286  L 6 15.785714285714286  L 6 13.053571428571427  L 1.8461538461538463 13.053571428571427  Z M 6.9230769230769225 13.053571428571427  L 6.9230769230769225 15.785714285714286  L 11.538461538461538 15.785714285714286  L 11.538461538461538 13.053571428571427  L 6.9230769230769225 13.053571428571427  Z M 1.8461538461538463 9.410714285714286  L 1.8461538461538463 12.446428571428573  L 6 12.446428571428573  L 6 9.410714285714286  L 1.8461538461538463 9.410714285714286  Z M 6.9230769230769225 9.410714285714286  L 6.9230769230769225 12.446428571428573  L 11.538461538461538 12.446428571428573  L 11.538461538461538 9.410714285714286  L 6.9230769230769225 9.410714285714286  Z M 1.8461538461538463 6.07142857142857  L 1.8461538461538463 8.803571428571427  L 6 8.803571428571427  L 6 6.07142857142857  L 1.8461538461538463 6.07142857142857  Z M 12.461538461538463 13.053571428571427  L 12.461538461538463 15.785714285714286  L 17.076923076923077 15.785714285714286  L 17.076923076923077 13.053571428571427  L 12.461538461538463 13.053571428571427  Z M 6.9230769230769225 6.07142857142857  L 6.9230769230769225 8.803571428571427  L 11.538461538461538 8.803571428571427  L 11.538461538461538 6.07142857142857  L 6.9230769230769225 6.07142857142857  Z M 18 13.053571428571427  L 18 15.785714285714286  L 22.153846153846153 15.785714285714286  L 22.153846153846153 13.053571428571427  L 18 13.053571428571427  Z M 12.461538461538463 9.410714285714286  L 12.461538461538463 12.446428571428573  L 17.076923076923077 12.446428571428573  L 17.076923076923077 9.410714285714286  L 12.461538461538463 9.410714285714286  Z M 7.247596153846153 4.4634486607142865  C 7.338942307692308 4.40336681547619  7.384615384615385 4.33221726190476  7.384615384615385 4.25  L 7.384615384615385 1.5178571428571432  C 7.384615384615385 1.435639880952381  7.338942307692308 1.3644903273809517  7.247596153846153 1.3044084821428568  C 7.156250000000001 1.24432663690476  7.048076923076923 1.2142857142857137  6.9230769230769225 1.2142857142857137  L 6 1.2142857142857137  C 5.875 1.2142857142857137  5.766826923076923 1.24432663690476  5.675480769230769 1.3044084821428568  C 5.584134615384615 1.3644903273809517  5.538461538461538 1.435639880952381  5.538461538461538 1.5178571428571432  L 5.538461538461538 4.25  C 5.538461538461538 4.33221726190476  5.584134615384615 4.40336681547619  5.675480769230769 4.4634486607142865  C 5.766826923076923 4.523530505952381  5.875 4.55357142857143  6 4.55357142857143  L 6.9230769230769225 4.55357142857143  C 7.048076923076923 4.55357142857143  7.156250000000001 4.523530505952381  7.247596153846153 4.4634486607142865  Z M 18 9.410714285714286  L 18 12.446428571428573  L 22.153846153846153 12.446428571428573  L 22.153846153846153 9.410714285714286  L 18 9.410714285714286  Z M 12.461538461538463 6.07142857142857  L 12.461538461538463 8.803571428571427  L 17.076923076923077 8.803571428571427  L 17.076923076923077 6.07142857142857  L 12.461538461538463 6.07142857142857  Z M 18 6.07142857142857  L 18 8.803571428571427  L 22.153846153846153 8.803571428571427  L 22.153846153846153 6.07142857142857  L 18 6.07142857142857  Z M 18.32451923076923 4.4634486607142865  C 18.415865384615387 4.40336681547619  18.461538461538463 4.33221726190476  18.461538461538463 4.25  L 18.461538461538463 1.5178571428571432  C 18.461538461538463 1.435639880952381  18.415865384615387 1.3644903273809517  18.32451923076923 1.3044084821428568  C 18.23317307692308 1.24432663690476  18.125 1.2142857142857137  18 1.2142857142857137  L 17.076923076923077 1.2142857142857137  C 16.95192307692308 1.2142857142857137  16.84375 1.24432663690476  16.752403846153847 1.3044084821428568  C 16.661057692307693 1.3644903273809517  16.615384615384613 1.435639880952381  16.615384615384613 1.5178571428571432  L 16.615384615384613 4.25  C 16.615384615384613 4.33221726190476  16.661057692307693 4.40336681547619  16.752403846153847 4.4634486607142865  C 16.84375 4.523530505952381  16.95192307692308 4.55357142857143  17.076923076923077 4.55357142857143  L 18 4.55357142857143  C 18.125 4.55357142857143  18.23317307692308 4.523530505952381  18.32451923076923 4.4634486607142865  Z M 23.451923076923077 2.7890625  C 23.817307692307693 3.029389880952381  24 3.313988095238095  24 3.6428571428571432  L 24 15.785714285714286  C 24 16.114583333333336  23.817307692307693 16.399181547619047  23.451923076923077 16.63950892857143  C 23.086538461538463 16.87983630952381  22.653846153846157 17  22.153846153846153 17  L 1.8461538461538463 17  C 1.3461538461538463 17  0.9134615384615385 16.87983630952381  0.548076923076923 16.63950892857143  C 0.18269230769230768 16.399181547619047  0 16.114583333333336  0 15.785714285714286  L 0 3.6428571428571432  C 0 3.313988095238095  0.18269230769230768 3.029389880952381  0.548076923076923 2.7890625  C 0.9134615384615385 2.548735119047617  1.3461538461538463 2.4285714285714293  1.8461538461538463 2.4285714285714293  L 3.6923076923076925 2.4285714285714293  L 3.6923076923076925 1.5178571428571432  C 3.6923076923076925 1.1004464285714293  3.918269230769231 0.7431175595238085  4.3701923076923075 0.44587053571428625  C 4.822115384615385 0.14862351190476208  5.365384615384616 0  6 0  L 6.9230769230769225 0  C 7.5576923076923075 0  8.10096153846154 0.14862351190476208  8.552884615384615 0.44587053571428625  C 9.004807692307693 0.7431175595238085  9.230769230769232 1.1004464285714293  9.230769230769232 1.5178571428571432  L 9.230769230769232 2.4285714285714293  L 14.76923076923077 2.4285714285714293  L 14.76923076923077 1.5178571428571432  C 14.76923076923077 1.1004464285714293  14.995192307692308 0.7431175595238085  15.447115384615385 0.44587053571428625  C 15.899038461538463 0.14862351190476208  16.442307692307693 0  17.076923076923077 0  L 18 0  C 18.634615384615387 0  19.177884615384617 0.14862351190476208  19.629807692307693 0.44587053571428625  C 20.081730769230774 0.7431175595238085  20.307692307692307 1.1004464285714293  20.307692307692307 1.5178571428571432  L 20.307692307692307 2.4285714285714293  L 22.153846153846153 2.4285714285714293  C 22.653846153846157 2.4285714285714293  23.086538461538463 2.548735119047617  23.451923076923077 2.7890625  Z " fill-rule="nonzero" fill="rgba(127, 127, 127, 1)" stroke="none" transform="matrix(1 0 0 1 294 77 )" class="fill" />
    <path d="M 1.8461538461538463 13.053571428571427  L 1.8461538461538463 15.785714285714286  L 6 15.785714285714286  L 6 13.053571428571427  L 1.8461538461538463 13.053571428571427  Z " stroke-width="0" stroke-dasharray="0" stroke="rgba(170, 170, 170, 1)" fill="none" transform="matrix(1 0 0 1 294 77 )" class="stroke" mask="url(#Clip84)" />
    <path d="M 6.9230769230769225 13.053571428571427  L 6.9230769230769225 15.785714285714286  L 11.538461538461538 15.785714285714286  L 11.538461538461538 13.053571428571427  L 6.9230769230769225 13.053571428571427  Z " stroke-width="0" stroke-dasharray="0" stroke="rgba(170, 170, 170, 1)" fill="none" transform="matrix(1 0 0 1 294 77 )" class="stroke" mask="url(#Clip84)" />
    <path d="M 1.8461538461538463 9.410714285714286  L 1.8461538461538463 12.446428571428573  L 6 12.446428571428573  L 6 9.410714285714286  L 1.8461538461538463 9.410714285714286  Z " stroke-width="0" stroke-dasharray="0" stroke="rgba(170, 170, 170, 1)" fill="none" transform="matrix(1 0 0 1 294 77 )" class="stroke" mask="url(#Clip84)" />
    <path d="M 6.9230769230769225 9.410714285714286  L 6.9230769230769225 12.446428571428573  L 11.538461538461538 12.446428571428573  L 11.538461538461538 9.410714285714286  L 6.9230769230769225 9.410714285714286  Z " stroke-width="0" stroke-dasharray="0" stroke="rgba(170, 170, 170, 1)" fill="none" transform="matrix(1 0 0 1 294 77 )" class="stroke" mask="url(#Clip84)" />
    <path d="M 1.8461538461538463 6.07142857142857  L 1.8461538461538463 8.803571428571427  L 6 8.803571428571427  L 6 6.07142857142857  L 1.8461538461538463 6.07142857142857  Z " stroke-width="0" stroke-dasharray="0" stroke="rgba(170, 170, 170, 1)" fill="none" transform="matrix(1 0 0 1 294 77 )" class="stroke" mask="url(#Clip84)" />
    <path d="M 12.461538461538463 13.053571428571427  L 12.461538461538463 15.785714285714286  L 17.076923076923077 15.785714285714286  L 17.076923076923077 13.053571428571427  L 12.461538461538463 13.053571428571427  Z " stroke-width="0" stroke-dasharray="0" stroke="rgba(170, 170, 170, 1)" fill="none" transform="matrix(1 0 0 1 294 77 )" class="stroke" mask="url(#Clip84)" />
    <path d="M 6.9230769230769225 6.07142857142857  L 6.9230769230769225 8.803571428571427  L 11.538461538461538 8.803571428571427  L 11.538461538461538 6.07142857142857  L 6.9230769230769225 6.07142857142857  Z " stroke-width="0" stroke-dasharray="0" stroke="rgba(170, 170, 170, 1)" fill="none" transform="matrix(1 0 0 1 294 77 )" class="stroke" mask="url(#Clip84)" />
    <path d="M 18 13.053571428571427  L 18 15.785714285714286  L 22.153846153846153 15.785714285714286  L 22.153846153846153 13.053571428571427  L 18 13.053571428571427  Z " stroke-width="0" stroke-dasharray="0" stroke="rgba(170, 170, 170, 1)" fill="none" transform="matrix(1 0 0 1 294 77 )" class="stroke" mask="url(#Clip84)" />
    <path d="M 12.461538461538463 9.410714285714286  L 12.461538461538463 12.446428571428573  L 17.076923076923077 12.446428571428573  L 17.076923076923077 9.410714285714286  L 12.461538461538463 9.410714285714286  Z " stroke-width="0" stroke-dasharray="0" stroke="rgba(170, 170, 170, 1)" fill="none" transform="matrix(1 0 0 1 294 77 )" class="stroke" mask="url(#Clip84)" />
    <path d="M 7.247596153846153 4.4634486607142865  C 7.338942307692308 4.40336681547619  7.384615384615385 4.33221726190476  7.384615384615385 4.25  L 7.384615384615385 1.5178571428571432  C 7.384615384615385 1.435639880952381  7.338942307692308 1.3644903273809517  7.247596153846153 1.3044084821428568  C 7.156250000000001 1.24432663690476  7.048076923076923 1.2142857142857137  6.9230769230769225 1.2142857142857137  L 6 1.2142857142857137  C 5.875 1.2142857142857137  5.766826923076923 1.24432663690476  5.675480769230769 1.3044084821428568  C 5.584134615384615 1.3644903273809517  5.538461538461538 1.435639880952381  5.538461538461538 1.5178571428571432  L 5.538461538461538 4.25  C 5.538461538461538 4.33221726190476  5.584134615384615 4.40336681547619  5.675480769230769 4.4634486607142865  C 5.766826923076923 4.523530505952381  5.875 4.55357142857143  6 4.55357142857143  L 6.9230769230769225 4.55357142857143  C 7.048076923076923 4.55357142857143  7.156250000000001 4.523530505952381  7.247596153846153 4.4634486607142865  Z " stroke-width="0" stroke-dasharray="0" stroke="rgba(170, 170, 170, 1)" fill="none" transform="matrix(1 0 0 1 294 77 )" class="stroke" mask="url(#Clip84)" />
    <path d="M 18 9.410714285714286  L 18 12.446428571428573  L 22.153846153846153 12.446428571428573  L 22.153846153846153 9.410714285714286  L 18 9.410714285714286  Z " stroke-width="0" stroke-dasharray="0" stroke="rgba(170, 170, 170, 1)" fill="none" transform="matrix(1 0 0 1 294 77 )" class="stroke" mask="url(#Clip84)" />
    <path d="M 12.461538461538463 6.07142857142857  L 12.461538461538463 8.803571428571427  L 17.076923076923077 8.803571428571427  L 17.076923076923077 6.07142857142857  L 12.461538461538463 6.07142857142857  Z " stroke-width="0" stroke-dasharray="0" stroke="rgba(170, 170, 170, 1)" fill="none" transform="matrix(1 0 0 1 294 77 )" class="stroke" mask="url(#Clip84)" />
    <path d="M 18 6.07142857142857  L 18 8.803571428571427  L 22.153846153846153 8.803571428571427  L 22.153846153846153 6.07142857142857  L 18 6.07142857142857  Z " stroke-width="0" stroke-dasharray="0" stroke="rgba(170, 170, 170, 1)" fill="none" transform="matrix(1 0 0 1 294 77 )" class="stroke" mask="url(#Clip84)" />
    <path d="M 18.32451923076923 4.4634486607142865  C 18.415865384615387 4.40336681547619  18.461538461538463 4.33221726190476  18.461538461538463 4.25  L 18.461538461538463 1.5178571428571432  C 18.461538461538463 1.435639880952381  18.415865384615387 1.3644903273809517  18.32451923076923 1.3044084821428568  C 18.23317307692308 1.24432663690476  18.125 1.2142857142857137  18 1.2142857142857137  L 17.076923076923077 1.2142857142857137  C 16.95192307692308 1.2142857142857137  16.84375 1.24432663690476  16.752403846153847 1.3044084821428568  C 16.661057692307693 1.3644903273809517  16.615384615384613 1.435639880952381  16.615384615384613 1.5178571428571432  L 16.615384615384613 4.25  C 16.615384615384613 4.33221726190476  16.661057692307693 4.40336681547619  16.752403846153847 4.4634486607142865  C 16.84375 4.523530505952381  16.95192307692308 4.55357142857143  17.076923076923077 4.55357142857143  L 18 4.55357142857143  C 18.125 4.55357142857143  18.23317307692308 4.523530505952381  18.32451923076923 4.4634486607142865  Z " stroke-width="0" stroke-dasharray="0" stroke="rgba(170, 170, 170, 1)" fill="none" transform="matrix(1 0 0 1 294 77 )" class="stroke" mask="url(#Clip84)" />
    <path d="M 23.451923076923077 2.7890625  C 23.817307692307693 3.029389880952381  24 3.313988095238095  24 3.6428571428571432  L 24 15.785714285714286  C 24 16.114583333333336  23.817307692307693 16.399181547619047  23.451923076923077 16.63950892857143  C 23.086538461538463 16.87983630952381  22.653846153846157 17  22.153846153846153 17  L 1.8461538461538463 17  C 1.3461538461538463 17  0.9134615384615385 16.87983630952381  0.548076923076923 16.63950892857143  C 0.18269230769230768 16.399181547619047  0 16.114583333333336  0 15.785714285714286  L 0 3.6428571428571432  C 0 3.313988095238095  0.18269230769230768 3.029389880952381  0.548076923076923 2.7890625  C 0.9134615384615385 2.548735119047617  1.3461538461538463 2.4285714285714293  1.8461538461538463 2.4285714285714293  L 3.6923076923076925 2.4285714285714293  L 3.6923076923076925 1.5178571428571432  C 3.6923076923076925 1.1004464285714293  3.918269230769231 0.7431175595238085  4.3701923076923075 0.44587053571428625  C 4.822115384615385 0.14862351190476208  5.365384615384616 0  6 0  L 6.9230769230769225 0  C 7.5576923076923075 0  8.10096153846154 0.14862351190476208  8.552884615384615 0.44587053571428625  C 9.004807692307693 0.7431175595238085  9.230769230769232 1.1004464285714293  9.230769230769232 1.5178571428571432  L 9.230769230769232 2.4285714285714293  L 14.76923076923077 2.4285714285714293  L 14.76923076923077 1.5178571428571432  C 14.76923076923077 1.1004464285714293  14.995192307692308 0.7431175595238085  15.447115384615385 0.44587053571428625  C 15.899038461538463 0.14862351190476208  16.442307692307693 0  17.076923076923077 0  L 18 0  C 18.634615384615387 0  19.177884615384617 0.14862351190476208  19.629807692307693 0.44587053571428625  C 20.081730769230774 0.7431175595238085  20.307692307692307 1.1004464285714293  20.307692307692307 1.5178571428571432  L 20.307692307692307 2.4285714285714293  L 22.153846153846153 2.4285714285714293  C 22.653846153846157 2.4285714285714293  23.086538461538463 2.548735119047617  23.451923076923077 2.7890625  Z " stroke-width="0" stroke-dasharray="0" stroke="rgba(170, 170, 170, 1)" fill="none" transform="matrix(1 0 0 1 294 77 )" class="stroke" mask="url(#Clip84)" />
  </g>
</svg>