<?xml version="1.0" encoding="utf-8"?>
<svg version="1.1" xmlns:xlink="http://www.w3.org/1999/xlink" width="22px" height="13px" xmlns="http://www.w3.org/2000/svg">
  <defs>
    <pattern id="BGPattern" patternUnits="userSpaceOnUse" alignment="0 0" imageRepeat="None" />
    <mask fill="white" id="Clip73">
      <path d="M 15.340617187500001 12.906928790983605  C 18.991994140625003 12.906928790983605  21.951875 10.039619620901641  21.951875 6.50258068647541  C 21.951875 2.9655417520491816  18.99197265625 0.09817014600409928  15.340617187500001 0.09817014600409928  L 6.655880859374999 0.09817014600409928  C 3.0045039062499996 0.09817014600409928  0.04462304687499996 2.9655417520491816  0.04462304687499996 6.50258068647541  C 0.04462304687499996 10.039619620901641  3.004525390625 12.906928790983605  6.655880859374999 12.906928790983605  L 15.340617187500001 12.906928790983605  Z M 21.348056640625 6.516046042520493  C 21.348056640625 9.726003778176231  18.661865234375 12.328147412909837  15.348136718749998 12.32816822489754  C 12.034601562499999 12.32816822489754  9.34832421875 9.72604540215164  9.34832421875 6.516066854508196  C 9.34832421875 3.3060258709016375  12.034623046874998 0.7039238601434409  15.348115234375 0.7039238601434409  C 18.661822265625002 0.7039238601434409  21.34803515625 3.306067494877048  21.34803515625 6.516066854508196  Z " fill-rule="evenodd" />
    </mask>
  </defs>
  <g transform="matrix(1 0 0 1 -904 -316 )">
    <path d="M 15.340617187500001 12.906928790983605  C 18.991994140625003 12.906928790983605  21.951875 10.039619620901641  21.951875 6.50258068647541  C 21.951875 2.9655417520491816  18.99197265625 0.09817014600409928  15.340617187500001 0.09817014600409928  L 6.655880859374999 0.09817014600409928  C 3.0045039062499996 0.09817014600409928  0.04462304687499996 2.9655417520491816  0.04462304687499996 6.50258068647541  C 0.04462304687499996 10.039619620901641  3.004525390625 12.906928790983605  6.655880859374999 12.906928790983605  L 15.340617187500001 12.906928790983605  Z M 21.348056640625 6.516046042520493  C 21.348056640625 9.726003778176231  18.661865234375 12.328147412909837  15.348136718749998 12.32816822489754  C 12.034601562499999 12.32816822489754  9.34832421875 9.72604540215164  9.34832421875 6.516066854508196  C 9.34832421875 3.3060258709016375  12.034623046874998 0.7039238601434409  15.348115234375 0.7039238601434409  C 18.661822265625002 0.7039238601434409  21.34803515625 3.306067494877048  21.34803515625 6.516066854508196  Z " fill-rule="nonzero" fill="rgba(217, 0, 27, 1)" stroke="none" transform="matrix(1 0 0 1 904 316 )" class="fill" />
    <path d="M 15.340617187500001 12.906928790983605  C 18.991994140625003 12.906928790983605  21.951875 10.039619620901641  21.951875 6.50258068647541  C 21.951875 2.9655417520491816  18.99197265625 0.09817014600409928  15.340617187500001 0.09817014600409928  L 6.655880859374999 0.09817014600409928  C 3.0045039062499996 0.09817014600409928  0.04462304687499996 2.9655417520491816  0.04462304687499996 6.50258068647541  C 0.04462304687499996 10.039619620901641  3.004525390625 12.906928790983605  6.655880859374999 12.906928790983605  L 15.340617187500001 12.906928790983605  Z " stroke-width="0" stroke-dasharray="0" stroke="rgba(255, 255, 255, 0)" fill="none" transform="matrix(1 0 0 1 904 316 )" class="stroke" mask="url(#Clip73)" />
    <path d="M 21.348056640625 6.516046042520493  C 21.348056640625 9.726003778176231  18.661865234375 12.328147412909837  15.348136718749998 12.32816822489754  C 12.034601562499999 12.32816822489754  9.34832421875 9.72604540215164  9.34832421875 6.516066854508196  C 9.34832421875 3.3060258709016375  12.034623046874998 0.7039238601434409  15.348115234375 0.7039238601434409  C 18.661822265625002 0.7039238601434409  21.34803515625 3.306067494877048  21.34803515625 6.516066854508196  Z " stroke-width="0" stroke-dasharray="0" stroke="rgba(255, 255, 255, 0)" fill="none" transform="matrix(1 0 0 1 904 316 )" class="stroke" mask="url(#Clip73)" />
  </g>
</svg>