<?xml version="1.0" encoding="utf-8"?>
<svg version="1.1" xmlns:xlink="http://www.w3.org/1999/xlink" width="13px" height="13px" viewBox="103 964 13 13" xmlns="http://www.w3.org/2000/svg">
  <path d="M 109.5 964  C 113.14 964  116 966.86  116 970.5  C 116 974.14  113.14 977  109.5 977  C 105.86 977  103 974.14  103 970.5  C 103 966.86  105.86 964  109.5 964  Z " fill-rule="nonzero" fill="rgba(255, 255, 255, 1)" stroke="none" class="fill" />
  <path d="M 109.5 964.5  C 112.86 964.5  115.5 967.14  115.5 970.5  C 115.5 973.86  112.86 976.5  109.5 976.5  C 106.14 976.5  103.5 973.86  103.5 970.5  C 103.5 967.14  106.14 964.5  109.5 964.5  Z " stroke-width="1" stroke-dasharray="0" stroke="rgba(121, 121, 121, 1)" fill="none" class="stroke" stroke-dashoffset="0.5" />
  <path d="M 109.5 973.75  C 107.68 973.75  106.25 972.32  106.25 970.5  C 106.25 968.68  107.68 967.25  109.5 967.25  C 111.32 967.25  112.75 968.68  112.75 970.5  C 112.75 972.32  111.32 973.75  109.5 973.75  " fill-rule="nonzero" fill="rgba(121, 121, 121, 1)" stroke="none" class="stroke btn_check" />
</svg>