<?xml version="1.0" encoding="utf-8"?>
<svg version="1.1" xmlns:xlink="http://www.w3.org/1999/xlink" width="13px" height="13px" viewBox="183 964 13 13" xmlns="http://www.w3.org/2000/svg">
  <path d="M 189.5 964  C 193.14 964  196 966.86  196 970.5  C 196 974.14  193.14 977  189.5 977  C 185.86 977  183 974.14  183 970.5  C 183 966.86  185.86 964  189.5 964  Z " fill-rule="nonzero" fill="rgba(255, 255, 255, 1)" stroke="none" class="fill" />
  <path d="M 189.5 964.5  C 192.86 964.5  195.5 967.14  195.5 970.5  C 195.5 973.86  192.86 976.5  189.5 976.5  C 186.14 976.5  183.5 973.86  183.5 970.5  C 183.5 967.14  186.14 964.5  189.5 964.5  Z " stroke-width="1" stroke-dasharray="0" stroke="rgba(121, 121, 121, 1)" fill="none" class="stroke" stroke-dashoffset="0.5" />
  <path d="M 189.5 973.75  C 187.68 973.75  186.25 972.32  186.25 970.5  C 186.25 968.68  187.68 967.25  189.5 967.25  C 191.32 967.25  192.75 968.68  192.75 970.5  C 192.75 972.32  191.32 973.75  189.5 973.75  " fill-rule="nonzero" fill="rgba(121, 121, 121, 1)" stroke="none" class="stroke btn_check" />
</svg>