<?xml version="1.0" encoding="utf-8"?>
<svg version="1.1" xmlns:xlink="http://www.w3.org/1999/xlink" width="13px" height="13px" viewBox="183 966  13 13" xmlns="http://www.w3.org/2000/svg">
  <path d="M 189.5 966  C 193.14 966  196 968.86  196 972.5  C 196 976.14  193.14 979  189.5 979  C 185.86 979  183 976.14  183 972.5  C 183 968.86  185.86 966  189.5 966  Z " fill-rule="nonzero" fill="#f0f0f0" stroke="none" />
  <path d="M 189.5 966.5  C 192.86 966.5  195.5 969.14  195.5 972.5  C 195.5 975.86  192.86 978.5  189.5 978.5  C 186.14 978.5  183.5 975.86  183.5 972.5  C 183.5 969.14  186.14 966.5  189.5 966.5  Z " stroke-width="1" stroke="#797979" fill="none" />
  <path d="M 189.5 975.75  C 187.68 975.75  186.25 974.32  186.25 972.5  C 186.25 970.68  187.68 969.25  189.5 969.25  C 191.32 969.25  192.75 970.68  192.75 972.5  C 192.75 974.32  191.32 975.75  189.5 975.75  " fill-rule="nonzero" fill="#797979" stroke="none" />
</svg>