<?xml version="1.0" encoding="utf-8"?>
<svg version="1.1" xmlns:xlink="http://www.w3.org/1999/xlink" width="49px" height="45px" xmlns="http://www.w3.org/2000/svg">
  <defs>
    <filter x="13px" y="153px" width="49px" height="45px" filterUnits="userSpaceOnUse" id="filter1">
      <feOffset dx="1" dy="1" in="SourceAlpha" result="shadowOffsetInner" />
      <feGaussianBlur stdDeviation="2.5" in="shadowOffsetInner" result="shadowGaussian" />
      <feComposite in2="shadowGaussian" operator="atop" in="SourceAlpha" result="shadowComposite" />
      <feColorMatrix type="matrix" values="0 0 0 0 0  0 0 0 0 0  0 0 0 0 0  0 0 0 0.6980392156862745 0  " in="shadowComposite" />
    </filter>
    <g id="widget2">
      <path d="M 36.5 157  C 47.42 157  56 164.7  56 174.5  C 56 184.3  47.42 192  36.5 192  C 25.58 192  17 184.3  17 174.5  C 17 164.7  25.58 157  36.5 157  Z " fill-rule="nonzero" fill="#f59a23" stroke="none" />
      <path d="M 36.5 157.5  C 47.14 157.5  55.5 164.98  55.5 174.5  C 55.5 184.02  47.14 191.5  36.5 191.5  C 25.86 191.5  17.5 184.02  17.5 174.5  C 17.5 164.98  25.86 157.5  36.5 157.5  Z " stroke-width="1" stroke="#ffffff" fill="none" />
    </g>
  </defs>
  <g transform="matrix(1 0 0 1 -13 -153 )">
    <use xlink:href="#widget2" filter="url(#filter1)" />
    <use xlink:href="#widget2" />
  </g>
</svg>