<?xml version="1.0" encoding="utf-8"?>
<svg version="1.1" xmlns:xlink="http://www.w3.org/1999/xlink" width="20px" height="17px" xmlns="http://www.w3.org/2000/svg">
  <g transform="matrix(1 0 0 1 -816 -161 )">
    <path d="M 1.5384615384615385 13.053571428571427  L 1.5384615384615385 15.785714285714286  L 5 15.785714285714286  L 5 13.053571428571427  L 1.5384615384615385 13.053571428571427  Z M 5.769230769230768 13.053571428571427  L 5.769230769230768 15.785714285714286  L 9.615384615384615 15.785714285714286  L 9.615384615384615 13.053571428571427  L 5.769230769230768 13.053571428571427  Z M 1.5384615384615385 9.410714285714286  L 1.5384615384615385 12.446428571428573  L 5 12.446428571428573  L 5 9.410714285714286  L 1.5384615384615385 9.410714285714286  Z M 5.769230769230768 9.410714285714286  L 5.769230769230768 12.446428571428573  L 9.615384615384615 12.446428571428573  L 9.615384615384615 9.410714285714286  L 5.769230769230768 9.410714285714286  Z M 1.5384615384615385 6.07142857142857  L 1.5384615384615385 8.803571428571427  L 5 8.803571428571427  L 5 6.07142857142857  L 1.5384615384615385 6.07142857142857  Z M 10.384615384615385 13.053571428571427  L 10.384615384615385 15.785714285714286  L 14.230769230769232 15.785714285714286  L 14.230769230769232 13.053571428571427  L 10.384615384615385 13.053571428571427  Z M 5.769230769230768 6.07142857142857  L 5.769230769230768 8.803571428571427  L 9.615384615384615 8.803571428571427  L 9.615384615384615 6.07142857142857  L 5.769230769230768 6.07142857142857  Z M 15 13.053571428571427  L 15 15.785714285714286  L 18.461538461538463 15.785714285714286  L 18.461538461538463 13.053571428571427  L 15 13.053571428571427  Z M 10.384615384615385 9.410714285714286  L 10.384615384615385 12.446428571428573  L 14.230769230769232 12.446428571428573  L 14.230769230769232 9.410714285714286  L 10.384615384615385 9.410714285714286  Z M 6.039663461538462 4.4634486607142865  C 6.115785256410256 4.40336681547619  6.153846153846154 4.33221726190476  6.153846153846154 4.25  L 6.153846153846154 1.5178571428571432  C 6.153846153846154 1.435639880952381  6.115785256410256 1.3644903273809517  6.039663461538462 1.3044084821428568  C 5.963541666666668 1.24432663690476  5.873397435897436 1.2142857142857137  5.769230769230768 1.2142857142857137  L 5 1.2142857142857137  C 4.895833333333334 1.2142857142857137  4.805689102564103 1.24432663690476  4.7295673076923075 1.3044084821428568  C 4.653445512820512 1.3644903273809517  4.615384615384616 1.435639880952381  4.615384615384616 1.5178571428571432  L 4.615384615384616 4.25  C 4.615384615384616 4.33221726190476  4.653445512820512 4.40336681547619  4.7295673076923075 4.4634486607142865  C 4.805689102564103 4.523530505952381  4.895833333333334 4.55357142857143  5 4.55357142857143  L 5.769230769230768 4.55357142857143  C 5.873397435897436 4.55357142857143  5.963541666666668 4.523530505952381  6.039663461538462 4.4634486607142865  Z M 15 9.410714285714286  L 15 12.446428571428573  L 18.461538461538463 12.446428571428573  L 18.461538461538463 9.410714285714286  L 15 9.410714285714286  Z M 10.384615384615385 6.07142857142857  L 10.384615384615385 8.803571428571427  L 14.230769230769232 8.803571428571427  L 14.230769230769232 6.07142857142857  L 10.384615384615385 6.07142857142857  Z M 15 6.07142857142857  L 15 8.803571428571427  L 18.461538461538463 8.803571428571427  L 18.461538461538463 6.07142857142857  L 15 6.07142857142857  Z M 15.270432692307692 4.4634486607142865  C 15.346554487179489 4.40336681547619  15.384615384615385 4.33221726190476  15.384615384615385 4.25  L 15.384615384615385 1.5178571428571432  C 15.384615384615385 1.435639880952381  15.346554487179489 1.3644903273809517  15.270432692307692 1.3044084821428568  C 15.194310897435898 1.24432663690476  15.104166666666668 1.2142857142857137  15 1.2142857142857137  L 14.230769230769232 1.2142857142857137  C 14.126602564102566 1.2142857142857137  14.036458333333336 1.24432663690476  13.960336538461537 1.3044084821428568  C 13.884214743589745 1.3644903273809517  13.846153846153847 1.435639880952381  13.846153846153847 1.5178571428571432  L 13.846153846153847 4.25  C 13.846153846153847 4.33221726190476  13.884214743589745 4.40336681547619  13.960336538461537 4.4634486607142865  C 14.036458333333336 4.523530505952381  14.126602564102566 4.55357142857143  14.230769230769232 4.55357142857143  L 15 4.55357142857143  C 15.104166666666668 4.55357142857143  15.194310897435898 4.523530505952381  15.270432692307692 4.4634486607142865  Z M 19.54326923076923 2.7890625  C 19.847756410256412 3.029389880952381  20 3.313988095238095  20 3.6428571428571432  L 20 15.785714285714286  C 20 16.114583333333336  19.847756410256412 16.399181547619047  19.54326923076923 16.63950892857143  C 19.23878205128205 16.87983630952381  18.87820512820513 17  18.461538461538463 17  L 1.5384615384615385 17  C 1.121794871794872 17  0.7612179487179488 16.87983630952381  0.4567307692307692 16.63950892857143  C 0.15224358974358973 16.399181547619047  0 16.114583333333336  0 15.785714285714286  L 0 3.6428571428571432  C 0 3.313988095238095  0.15224358974358973 3.029389880952381  0.4567307692307692 2.7890625  C 0.7612179487179488 2.548735119047617  1.121794871794872 2.4285714285714293  1.5384615384615385 2.4285714285714293  L 3.076923076923077 2.4285714285714293  L 3.076923076923077 1.5178571428571432  C 3.076923076923077 1.1004464285714293  3.265224358974359 0.7431175595238085  3.641826923076923 0.44587053571428625  C 4.018429487179488 0.14862351190476208  4.471153846153847 0  5 0  L 5.769230769230768 0  C 6.298076923076923 0  6.750801282051283 0.14862351190476208  7.127403846153846 0.44587053571428625  C 7.504006410256411 0.7431175595238085  7.6923076923076925 1.1004464285714293  7.6923076923076925 1.5178571428571432  L 7.6923076923076925 2.4285714285714293  L 12.307692307692308 2.4285714285714293  L 12.307692307692308 1.5178571428571432  C 12.307692307692308 1.1004464285714293  12.495993589743591 0.7431175595238085  12.872596153846153 0.44587053571428625  C 13.24919871794872 0.14862351190476208  13.701923076923077 0  14.230769230769232 0  L 15 0  C 15.528846153846153 0  15.981570512820513 0.14862351190476208  16.358173076923077 0.44587053571428625  C 16.734775641025642 0.7431175595238085  16.923076923076923 1.1004464285714293  16.923076923076923 1.5178571428571432  L 16.923076923076923 2.4285714285714293  L 18.461538461538463 2.4285714285714293  C 18.87820512820513 2.4285714285714293  19.23878205128205 2.548735119047617  19.54326923076923 2.7890625  Z " fill-rule="nonzero" fill="#7f7f7f" stroke="none" transform="matrix(1 0 0 1 816 161 )" />
  </g>
</svg>