<?xml version="1.0" encoding="utf-8"?>
<svg version="1.1" xmlns:xlink="http://www.w3.org/1999/xlink" width="16px" height="17px" xmlns="http://www.w3.org/2000/svg">
  <defs>
    <pattern id="BGPattern" patternUnits="userSpaceOnUse" alignment="0 0" imageRepeat="None" />
    <mask fill="white" id="Clip36">
      <path d="M 1.2307692307692308 13.053571428571427  L 1.2307692307692308 15.785714285714286  L 4 15.785714285714286  L 4 13.053571428571427  L 1.2307692307692308 13.053571428571427  Z M 4.615384615384615 13.053571428571427  L 4.615384615384615 15.785714285714286  L 7.6923076923076925 15.785714285714286  L 7.6923076923076925 13.053571428571427  L 4.615384615384615 13.053571428571427  Z M 1.2307692307692308 9.410714285714286  L 1.2307692307692308 12.446428571428573  L 4 12.446428571428573  L 4 9.410714285714286  L 1.2307692307692308 9.410714285714286  Z M 4.615384615384615 9.410714285714286  L 4.615384615384615 12.446428571428573  L 7.6923076923076925 12.446428571428573  L 7.6923076923076925 9.410714285714286  L 4.615384615384615 9.410714285714286  Z M 1.2307692307692308 6.07142857142857  L 1.2307692307692308 8.803571428571427  L 4 8.803571428571427  L 4 6.07142857142857  L 1.2307692307692308 6.07142857142857  Z M 8.307692307692308 13.053571428571427  L 8.307692307692308 15.785714285714286  L 11.384615384615385 15.785714285714286  L 11.384615384615385 13.053571428571427  L 8.307692307692308 13.053571428571427  Z M 4.615384615384615 6.07142857142857  L 4.615384615384615 8.803571428571427  L 7.6923076923076925 8.803571428571427  L 7.6923076923076925 6.07142857142857  L 4.615384615384615 6.07142857142857  Z M 12 13.053571428571427  L 12 15.785714285714286  L 14.76923076923077 15.785714285714286  L 14.76923076923077 13.053571428571427  L 12 13.053571428571427  Z M 8.307692307692308 9.410714285714286  L 8.307692307692308 12.446428571428573  L 11.384615384615385 12.446428571428573  L 11.384615384615385 9.410714285714286  L 8.307692307692308 9.410714285714286  Z M 4.831730769230769 4.4634486607142865  C 4.892628205128205 4.40336681547619  4.923076923076923 4.33221726190476  4.923076923076923 4.25  L 4.923076923076923 1.5178571428571432  C 4.923076923076923 1.435639880952381  4.892628205128205 1.3644903273809517  4.831730769230769 1.3044084821428568  C 4.770833333333334 1.24432663690476  4.698717948717949 1.2142857142857137  4.615384615384615 1.2142857142857137  L 4 1.2142857142857137  C 3.916666666666667 1.2142857142857137  3.8445512820512824 1.24432663690476  3.7836538461538463 1.3044084821428568  C 3.7227564102564097 1.3644903273809517  3.6923076923076925 1.435639880952381  3.6923076923076925 1.5178571428571432  L 3.6923076923076925 4.25  C 3.6923076923076925 4.33221726190476  3.7227564102564097 4.40336681547619  3.7836538461538463 4.4634486607142865  C 3.8445512820512824 4.523530505952381  3.916666666666667 4.55357142857143  4 4.55357142857143  L 4.615384615384615 4.55357142857143  C 4.698717948717949 4.55357142857143  4.770833333333334 4.523530505952381  4.831730769230769 4.4634486607142865  Z M 12 9.410714285714286  L 12 12.446428571428573  L 14.76923076923077 12.446428571428573  L 14.76923076923077 9.410714285714286  L 12 9.410714285714286  Z M 8.307692307692308 6.07142857142857  L 8.307692307692308 8.803571428571427  L 11.384615384615385 8.803571428571427  L 11.384615384615385 6.07142857142857  L 8.307692307692308 6.07142857142857  Z M 12 6.07142857142857  L 12 8.803571428571427  L 14.76923076923077 8.803571428571427  L 14.76923076923077 6.07142857142857  L 12 6.07142857142857  Z M 12.216346153846153 4.4634486607142865  C 12.277243589743591 4.40336681547619  12.307692307692308 4.33221726190476  12.307692307692308 4.25  L 12.307692307692308 1.5178571428571432  C 12.307692307692308 1.435639880952381  12.277243589743591 1.3644903273809517  12.216346153846153 1.3044084821428568  C 12.155448717948719 1.24432663690476  12.083333333333334 1.2142857142857137  12 1.2142857142857137  L 11.384615384615385 1.2142857142857137  C 11.301282051282053 1.2142857142857137  11.229166666666668 1.24432663690476  11.16826923076923 1.3044084821428568  C 11.107371794871796 1.3644903273809517  11.076923076923077 1.435639880952381  11.076923076923077 1.5178571428571432  L 11.076923076923077 4.25  C 11.076923076923077 4.33221726190476  11.107371794871796 4.40336681547619  11.16826923076923 4.4634486607142865  C 11.229166666666668 4.523530505952381  11.301282051282053 4.55357142857143  11.384615384615385 4.55357142857143  L 12 4.55357142857143  C 12.083333333333334 4.55357142857143  12.155448717948719 4.523530505952381  12.216346153846153 4.4634486607142865  Z M 15.634615384615385 2.7890625  C 15.87820512820513 3.029389880952381  16 3.313988095238095  16 3.6428571428571432  L 16 15.785714285714286  C 16 16.114583333333336  15.87820512820513 16.399181547619047  15.634615384615385 16.63950892857143  C 15.391025641025642 16.87983630952381  15.102564102564104 17  14.76923076923077 17  L 1.2307692307692308 17  C 0.8974358974358976 17  0.608974358974359 16.87983630952381  0.36538461538461536 16.63950892857143  C 0.12179487179487179 16.399181547619047  0 16.114583333333336  0 15.785714285714286  L 0 3.6428571428571432  C 0 3.313988095238095  0.12179487179487179 3.029389880952381  0.36538461538461536 2.7890625  C 0.608974358974359 2.548735119047617  0.8974358974358976 2.4285714285714293  1.2307692307692308 2.4285714285714293  L 2.4615384615384617 2.4285714285714293  L 2.4615384615384617 1.5178571428571432  C 2.4615384615384617 1.1004464285714293  2.6121794871794872 0.7431175595238085  2.9134615384615383 0.44587053571428625  C 3.2147435897435903 0.14862351190476208  3.576923076923077 0  4 0  L 4.615384615384615 0  C 5.038461538461538 0  5.400641025641026 0.14862351190476208  5.701923076923077 0.44587053571428625  C 6.003205128205129 0.7431175595238085  6.153846153846154 1.1004464285714293  6.153846153846154 1.5178571428571432  L 6.153846153846154 2.4285714285714293  L 9.846153846153847 2.4285714285714293  L 9.846153846153847 1.5178571428571432  C 9.846153846153847 1.1004464285714293  9.996794871794872 0.7431175595238085  10.298076923076923 0.44587053571428625  C 10.599358974358976 0.14862351190476208  10.961538461538462 0  11.384615384615385 0  L 12 0  C 12.423076923076923 0  12.78525641025641 0.14862351190476208  13.086538461538462 0.44587053571428625  C 13.387820512820515 0.7431175595238085  13.538461538461538 1.1004464285714293  13.538461538461538 1.5178571428571432  L 13.538461538461538 2.4285714285714293  L 14.76923076923077 2.4285714285714293  C 15.102564102564104 2.4285714285714293  15.391025641025642 2.548735119047617  15.634615384615385 2.7890625  Z " fill-rule="evenodd" />
    </mask>
  </defs>
  <g transform="matrix(1 0 0 1 -590 -162 )">
    <path d="M 1.2307692307692308 13.053571428571427  L 1.2307692307692308 15.785714285714286  L 4 15.785714285714286  L 4 13.053571428571427  L 1.2307692307692308 13.053571428571427  Z M 4.615384615384615 13.053571428571427  L 4.615384615384615 15.785714285714286  L 7.6923076923076925 15.785714285714286  L 7.6923076923076925 13.053571428571427  L 4.615384615384615 13.053571428571427  Z M 1.2307692307692308 9.410714285714286  L 1.2307692307692308 12.446428571428573  L 4 12.446428571428573  L 4 9.410714285714286  L 1.2307692307692308 9.410714285714286  Z M 4.615384615384615 9.410714285714286  L 4.615384615384615 12.446428571428573  L 7.6923076923076925 12.446428571428573  L 7.6923076923076925 9.410714285714286  L 4.615384615384615 9.410714285714286  Z M 1.2307692307692308 6.07142857142857  L 1.2307692307692308 8.803571428571427  L 4 8.803571428571427  L 4 6.07142857142857  L 1.2307692307692308 6.07142857142857  Z M 8.307692307692308 13.053571428571427  L 8.307692307692308 15.785714285714286  L 11.384615384615385 15.785714285714286  L 11.384615384615385 13.053571428571427  L 8.307692307692308 13.053571428571427  Z M 4.615384615384615 6.07142857142857  L 4.615384615384615 8.803571428571427  L 7.6923076923076925 8.803571428571427  L 7.6923076923076925 6.07142857142857  L 4.615384615384615 6.07142857142857  Z M 12 13.053571428571427  L 12 15.785714285714286  L 14.76923076923077 15.785714285714286  L 14.76923076923077 13.053571428571427  L 12 13.053571428571427  Z M 8.307692307692308 9.410714285714286  L 8.307692307692308 12.446428571428573  L 11.384615384615385 12.446428571428573  L 11.384615384615385 9.410714285714286  L 8.307692307692308 9.410714285714286  Z M 4.831730769230769 4.4634486607142865  C 4.892628205128205 4.40336681547619  4.923076923076923 4.33221726190476  4.923076923076923 4.25  L 4.923076923076923 1.5178571428571432  C 4.923076923076923 1.435639880952381  4.892628205128205 1.3644903273809517  4.831730769230769 1.3044084821428568  C 4.770833333333334 1.24432663690476  4.698717948717949 1.2142857142857137  4.615384615384615 1.2142857142857137  L 4 1.2142857142857137  C 3.916666666666667 1.2142857142857137  3.8445512820512824 1.24432663690476  3.7836538461538463 1.3044084821428568  C 3.7227564102564097 1.3644903273809517  3.6923076923076925 1.435639880952381  3.6923076923076925 1.5178571428571432  L 3.6923076923076925 4.25  C 3.6923076923076925 4.33221726190476  3.7227564102564097 4.40336681547619  3.7836538461538463 4.4634486607142865  C 3.8445512820512824 4.523530505952381  3.916666666666667 4.55357142857143  4 4.55357142857143  L 4.615384615384615 4.55357142857143  C 4.698717948717949 4.55357142857143  4.770833333333334 4.523530505952381  4.831730769230769 4.4634486607142865  Z M 12 9.410714285714286  L 12 12.446428571428573  L 14.76923076923077 12.446428571428573  L 14.76923076923077 9.410714285714286  L 12 9.410714285714286  Z M 8.307692307692308 6.07142857142857  L 8.307692307692308 8.803571428571427  L 11.384615384615385 8.803571428571427  L 11.384615384615385 6.07142857142857  L 8.307692307692308 6.07142857142857  Z M 12 6.07142857142857  L 12 8.803571428571427  L 14.76923076923077 8.803571428571427  L 14.76923076923077 6.07142857142857  L 12 6.07142857142857  Z M 12.216346153846153 4.4634486607142865  C 12.277243589743591 4.40336681547619  12.307692307692308 4.33221726190476  12.307692307692308 4.25  L 12.307692307692308 1.5178571428571432  C 12.307692307692308 1.435639880952381  12.277243589743591 1.3644903273809517  12.216346153846153 1.3044084821428568  C 12.155448717948719 1.24432663690476  12.083333333333334 1.2142857142857137  12 1.2142857142857137  L 11.384615384615385 1.2142857142857137  C 11.301282051282053 1.2142857142857137  11.229166666666668 1.24432663690476  11.16826923076923 1.3044084821428568  C 11.107371794871796 1.3644903273809517  11.076923076923077 1.435639880952381  11.076923076923077 1.5178571428571432  L 11.076923076923077 4.25  C 11.076923076923077 4.33221726190476  11.107371794871796 4.40336681547619  11.16826923076923 4.4634486607142865  C 11.229166666666668 4.523530505952381  11.301282051282053 4.55357142857143  11.384615384615385 4.55357142857143  L 12 4.55357142857143  C 12.083333333333334 4.55357142857143  12.155448717948719 4.523530505952381  12.216346153846153 4.4634486607142865  Z M 15.634615384615385 2.7890625  C 15.87820512820513 3.029389880952381  16 3.313988095238095  16 3.6428571428571432  L 16 15.785714285714286  C 16 16.114583333333336  15.87820512820513 16.399181547619047  15.634615384615385 16.63950892857143  C 15.391025641025642 16.87983630952381  15.102564102564104 17  14.76923076923077 17  L 1.2307692307692308 17  C 0.8974358974358976 17  0.608974358974359 16.87983630952381  0.36538461538461536 16.63950892857143  C 0.12179487179487179 16.399181547619047  0 16.114583333333336  0 15.785714285714286  L 0 3.6428571428571432  C 0 3.313988095238095  0.12179487179487179 3.029389880952381  0.36538461538461536 2.7890625  C 0.608974358974359 2.548735119047617  0.8974358974358976 2.4285714285714293  1.2307692307692308 2.4285714285714293  L 2.4615384615384617 2.4285714285714293  L 2.4615384615384617 1.5178571428571432  C 2.4615384615384617 1.1004464285714293  2.6121794871794872 0.7431175595238085  2.9134615384615383 0.44587053571428625  C 3.2147435897435903 0.14862351190476208  3.576923076923077 0  4 0  L 4.615384615384615 0  C 5.038461538461538 0  5.400641025641026 0.14862351190476208  5.701923076923077 0.44587053571428625  C 6.003205128205129 0.7431175595238085  6.153846153846154 1.1004464285714293  6.153846153846154 1.5178571428571432  L 6.153846153846154 2.4285714285714293  L 9.846153846153847 2.4285714285714293  L 9.846153846153847 1.5178571428571432  C 9.846153846153847 1.1004464285714293  9.996794871794872 0.7431175595238085  10.298076923076923 0.44587053571428625  C 10.599358974358976 0.14862351190476208  10.961538461538462 0  11.384615384615385 0  L 12 0  C 12.423076923076923 0  12.78525641025641 0.14862351190476208  13.086538461538462 0.44587053571428625  C 13.387820512820515 0.7431175595238085  13.538461538461538 1.1004464285714293  13.538461538461538 1.5178571428571432  L 13.538461538461538 2.4285714285714293  L 14.76923076923077 2.4285714285714293  C 15.102564102564104 2.4285714285714293  15.391025641025642 2.548735119047617  15.634615384615385 2.7890625  Z " fill-rule="nonzero" fill="rgba(127, 127, 127, 1)" stroke="none" transform="matrix(1 0 0 1 590 162 )" class="fill" />
    <path d="M 1.2307692307692308 13.053571428571427  L 1.2307692307692308 15.785714285714286  L 4 15.785714285714286  L 4 13.053571428571427  L 1.2307692307692308 13.053571428571427  Z " stroke-width="0" stroke-dasharray="0" stroke="rgba(170, 170, 170, 1)" fill="none" transform="matrix(1 0 0 1 590 162 )" class="stroke" mask="url(#Clip36)" />
    <path d="M 4.615384615384615 13.053571428571427  L 4.615384615384615 15.785714285714286  L 7.6923076923076925 15.785714285714286  L 7.6923076923076925 13.053571428571427  L 4.615384615384615 13.053571428571427  Z " stroke-width="0" stroke-dasharray="0" stroke="rgba(170, 170, 170, 1)" fill="none" transform="matrix(1 0 0 1 590 162 )" class="stroke" mask="url(#Clip36)" />
    <path d="M 1.2307692307692308 9.410714285714286  L 1.2307692307692308 12.446428571428573  L 4 12.446428571428573  L 4 9.410714285714286  L 1.2307692307692308 9.410714285714286  Z " stroke-width="0" stroke-dasharray="0" stroke="rgba(170, 170, 170, 1)" fill="none" transform="matrix(1 0 0 1 590 162 )" class="stroke" mask="url(#Clip36)" />
    <path d="M 4.615384615384615 9.410714285714286  L 4.615384615384615 12.446428571428573  L 7.6923076923076925 12.446428571428573  L 7.6923076923076925 9.410714285714286  L 4.615384615384615 9.410714285714286  Z " stroke-width="0" stroke-dasharray="0" stroke="rgba(170, 170, 170, 1)" fill="none" transform="matrix(1 0 0 1 590 162 )" class="stroke" mask="url(#Clip36)" />
    <path d="M 1.2307692307692308 6.07142857142857  L 1.2307692307692308 8.803571428571427  L 4 8.803571428571427  L 4 6.07142857142857  L 1.2307692307692308 6.07142857142857  Z " stroke-width="0" stroke-dasharray="0" stroke="rgba(170, 170, 170, 1)" fill="none" transform="matrix(1 0 0 1 590 162 )" class="stroke" mask="url(#Clip36)" />
    <path d="M 8.307692307692308 13.053571428571427  L 8.307692307692308 15.785714285714286  L 11.384615384615385 15.785714285714286  L 11.384615384615385 13.053571428571427  L 8.307692307692308 13.053571428571427  Z " stroke-width="0" stroke-dasharray="0" stroke="rgba(170, 170, 170, 1)" fill="none" transform="matrix(1 0 0 1 590 162 )" class="stroke" mask="url(#Clip36)" />
    <path d="M 4.615384615384615 6.07142857142857  L 4.615384615384615 8.803571428571427  L 7.6923076923076925 8.803571428571427  L 7.6923076923076925 6.07142857142857  L 4.615384615384615 6.07142857142857  Z " stroke-width="0" stroke-dasharray="0" stroke="rgba(170, 170, 170, 1)" fill="none" transform="matrix(1 0 0 1 590 162 )" class="stroke" mask="url(#Clip36)" />
    <path d="M 12 13.053571428571427  L 12 15.785714285714286  L 14.76923076923077 15.785714285714286  L 14.76923076923077 13.053571428571427  L 12 13.053571428571427  Z " stroke-width="0" stroke-dasharray="0" stroke="rgba(170, 170, 170, 1)" fill="none" transform="matrix(1 0 0 1 590 162 )" class="stroke" mask="url(#Clip36)" />
    <path d="M 8.307692307692308 9.410714285714286  L 8.307692307692308 12.446428571428573  L 11.384615384615385 12.446428571428573  L 11.384615384615385 9.410714285714286  L 8.307692307692308 9.410714285714286  Z " stroke-width="0" stroke-dasharray="0" stroke="rgba(170, 170, 170, 1)" fill="none" transform="matrix(1 0 0 1 590 162 )" class="stroke" mask="url(#Clip36)" />
    <path d="M 4.831730769230769 4.4634486607142865  C 4.892628205128205 4.40336681547619  4.923076923076923 4.33221726190476  4.923076923076923 4.25  L 4.923076923076923 1.5178571428571432  C 4.923076923076923 1.435639880952381  4.892628205128205 1.3644903273809517  4.831730769230769 1.3044084821428568  C 4.770833333333334 1.24432663690476  4.698717948717949 1.2142857142857137  4.615384615384615 1.2142857142857137  L 4 1.2142857142857137  C 3.916666666666667 1.2142857142857137  3.8445512820512824 1.24432663690476  3.7836538461538463 1.3044084821428568  C 3.7227564102564097 1.3644903273809517  3.6923076923076925 1.435639880952381  3.6923076923076925 1.5178571428571432  L 3.6923076923076925 4.25  C 3.6923076923076925 4.33221726190476  3.7227564102564097 4.40336681547619  3.7836538461538463 4.4634486607142865  C 3.8445512820512824 4.523530505952381  3.916666666666667 4.55357142857143  4 4.55357142857143  L 4.615384615384615 4.55357142857143  C 4.698717948717949 4.55357142857143  4.770833333333334 4.523530505952381  4.831730769230769 4.4634486607142865  Z " stroke-width="0" stroke-dasharray="0" stroke="rgba(170, 170, 170, 1)" fill="none" transform="matrix(1 0 0 1 590 162 )" class="stroke" mask="url(#Clip36)" />
    <path d="M 12 9.410714285714286  L 12 12.446428571428573  L 14.76923076923077 12.446428571428573  L 14.76923076923077 9.410714285714286  L 12 9.410714285714286  Z " stroke-width="0" stroke-dasharray="0" stroke="rgba(170, 170, 170, 1)" fill="none" transform="matrix(1 0 0 1 590 162 )" class="stroke" mask="url(#Clip36)" />
    <path d="M 8.307692307692308 6.07142857142857  L 8.307692307692308 8.803571428571427  L 11.384615384615385 8.803571428571427  L 11.384615384615385 6.07142857142857  L 8.307692307692308 6.07142857142857  Z " stroke-width="0" stroke-dasharray="0" stroke="rgba(170, 170, 170, 1)" fill="none" transform="matrix(1 0 0 1 590 162 )" class="stroke" mask="url(#Clip36)" />
    <path d="M 12 6.07142857142857  L 12 8.803571428571427  L 14.76923076923077 8.803571428571427  L 14.76923076923077 6.07142857142857  L 12 6.07142857142857  Z " stroke-width="0" stroke-dasharray="0" stroke="rgba(170, 170, 170, 1)" fill="none" transform="matrix(1 0 0 1 590 162 )" class="stroke" mask="url(#Clip36)" />
    <path d="M 12.216346153846153 4.4634486607142865  C 12.277243589743591 4.40336681547619  12.307692307692308 4.33221726190476  12.307692307692308 4.25  L 12.307692307692308 1.5178571428571432  C 12.307692307692308 1.435639880952381  12.277243589743591 1.3644903273809517  12.216346153846153 1.3044084821428568  C 12.155448717948719 1.24432663690476  12.083333333333334 1.2142857142857137  12 1.2142857142857137  L 11.384615384615385 1.2142857142857137  C 11.301282051282053 1.2142857142857137  11.229166666666668 1.24432663690476  11.16826923076923 1.3044084821428568  C 11.107371794871796 1.3644903273809517  11.076923076923077 1.435639880952381  11.076923076923077 1.5178571428571432  L 11.076923076923077 4.25  C 11.076923076923077 4.33221726190476  11.107371794871796 4.40336681547619  11.16826923076923 4.4634486607142865  C 11.229166666666668 4.523530505952381  11.301282051282053 4.55357142857143  11.384615384615385 4.55357142857143  L 12 4.55357142857143  C 12.083333333333334 4.55357142857143  12.155448717948719 4.523530505952381  12.216346153846153 4.4634486607142865  Z " stroke-width="0" stroke-dasharray="0" stroke="rgba(170, 170, 170, 1)" fill="none" transform="matrix(1 0 0 1 590 162 )" class="stroke" mask="url(#Clip36)" />
    <path d="M 15.634615384615385 2.7890625  C 15.87820512820513 3.029389880952381  16 3.313988095238095  16 3.6428571428571432  L 16 15.785714285714286  C 16 16.114583333333336  15.87820512820513 16.399181547619047  15.634615384615385 16.63950892857143  C 15.391025641025642 16.87983630952381  15.102564102564104 17  14.76923076923077 17  L 1.2307692307692308 17  C 0.8974358974358976 17  0.608974358974359 16.87983630952381  0.36538461538461536 16.63950892857143  C 0.12179487179487179 16.399181547619047  0 16.114583333333336  0 15.785714285714286  L 0 3.6428571428571432  C 0 3.313988095238095  0.12179487179487179 3.029389880952381  0.36538461538461536 2.7890625  C 0.608974358974359 2.548735119047617  0.8974358974358976 2.4285714285714293  1.2307692307692308 2.4285714285714293  L 2.4615384615384617 2.4285714285714293  L 2.4615384615384617 1.5178571428571432  C 2.4615384615384617 1.1004464285714293  2.6121794871794872 0.7431175595238085  2.9134615384615383 0.44587053571428625  C 3.2147435897435903 0.14862351190476208  3.576923076923077 0  4 0  L 4.615384615384615 0  C 5.038461538461538 0  5.400641025641026 0.14862351190476208  5.701923076923077 0.44587053571428625  C 6.003205128205129 0.7431175595238085  6.153846153846154 1.1004464285714293  6.153846153846154 1.5178571428571432  L 6.153846153846154 2.4285714285714293  L 9.846153846153847 2.4285714285714293  L 9.846153846153847 1.5178571428571432  C 9.846153846153847 1.1004464285714293  9.996794871794872 0.7431175595238085  10.298076923076923 0.44587053571428625  C 10.599358974358976 0.14862351190476208  10.961538461538462 0  11.384615384615385 0  L 12 0  C 12.423076923076923 0  12.78525641025641 0.14862351190476208  13.086538461538462 0.44587053571428625  C 13.387820512820515 0.7431175595238085  13.538461538461538 1.1004464285714293  13.538461538461538 1.5178571428571432  L 13.538461538461538 2.4285714285714293  L 14.76923076923077 2.4285714285714293  C 15.102564102564104 2.4285714285714293  15.391025641025642 2.548735119047617  15.634615384615385 2.7890625  Z " stroke-width="0" stroke-dasharray="0" stroke="rgba(170, 170, 170, 1)" fill="none" transform="matrix(1 0 0 1 590 162 )" class="stroke" mask="url(#Clip36)" />
  </g>
</svg>