<?xml version="1.0" encoding="utf-8"?>
<svg version="1.1" xmlns:xlink="http://www.w3.org/1999/xlink" width="13px" height="13px" viewBox="353 1119  13 13" xmlns="http://www.w3.org/2000/svg">
  <path d="M 359.5 1119  C 363.14 1119  366 1121.86  366 1125.5  C 366 1129.14  363.14 1132  359.5 1132  C 355.86 1132  353 1129.14  353 1125.5  C 353 1121.86  355.86 1119  359.5 1119  Z " fill-rule="nonzero" fill="#f0f0f0" stroke="none" />
  <path d="M 359.5 1119.5  C 362.86 1119.5  365.5 1122.14  365.5 1125.5  C 365.5 1128.86  362.86 1131.5  359.5 1131.5  C 356.14 1131.5  353.5 1128.86  353.5 1125.5  C 353.5 1122.14  356.14 1119.5  359.5 1119.5  Z " stroke-width="1" stroke="#797979" fill="none" />
  <path d="M 359.5 1128.75  C 357.68 1128.75  356.25 1127.32  356.25 1125.5  C 356.25 1123.68  357.68 1122.25  359.5 1122.25  C 361.32 1122.25  362.75 1123.68  362.75 1125.5  C 362.75 1127.32  361.32 1128.75  359.5 1128.75  " fill-rule="nonzero" fill="#797979" stroke="none" />
</svg>