<?xml version="1.0" encoding="utf-8"?>
<svg version="1.1" xmlns:xlink="http://www.w3.org/1999/xlink" width="12px" height="12px" viewBox="290 273 12 12" xmlns="http://www.w3.org/2000/svg">
  <path d="M 296 273  C 299.36 273  302 275.64  302 279  C 302 282.36  299.36 285  296 285  C 292.64 285  290 282.36  290 279  C 290 275.64  292.64 273  296 273  Z " fill-rule="nonzero" fill="rgba(240, 240, 240, 1)" stroke="none" class="fill" />
  <path d="M 296 273.5  C 299.08 273.5  301.5 275.92  301.5 279  C 301.5 282.08  299.08 284.5  296 284.5  C 292.92 284.5  290.5 282.08  290.5 279  C 290.5 275.92  292.92 273.5  296 273.5  Z " stroke-width="1" stroke-dasharray="0" stroke="rgba(121, 121, 121, 1)" fill="none" class="stroke" stroke-dashoffset="0.5" />
  <path d="M 296 282  C 294.32 282  293 280.68  293 279  C 293 277.32  294.32 276  296 276  C 297.68 276  299 277.32  299 279  C 299 280.68  297.68 282  296 282  " fill-rule="nonzero" fill="rgba(121, 121, 121, 1)" stroke="none" class="stroke btn_check" />
</svg>