<svg class="icon" viewBox="0 0 1024 1024" version="1.1" xmlns="http://www.w3.org/2000/svg" p-id="4370" height="128" width="128"><path d="M512.014201 0C229.338511 0 0.156206 229.182305 0.156206 511.857995c0 73.217917 15.876189 142.843101 43.567217 205.794037 0.653224 1.221245 2.41409 2.442491 2.41409 3.635335l0 0.781029c14.200527 28.954874 28.401054 56.503897 42.601581 82.263653l0 151.306615 165.862155 0c30.374927 14.200527 62.737928 31.709777 96.677188 42.942394 50.553876 16.69982 104.572681 25.418943 160.721564 25.418943 212.127472 0 394.135626-129.224795 471.769907-313.079018 25.802358-61.190071 40.073887-128.457967 40.073887-198.991984C1023.843794 229.267508 794.68989 0 512.014201 0zM506.049979 812.909167c-25.078131 0-45.512689-20.391957-45.512689-45.555291s20.420358-45.555291 45.512689-45.555291c25.220136 0 45.626293 20.391957 45.626293 45.555291S531.255915 812.909167 506.049979 812.909167zM565.791596 548.481154c-1.60466 0.553821-8.378311 4.132353-9.755762 7.100263-2.172681 4.657773-3.706338 11.488226-4.629372 18.162474-0.766828 5.183192 0.255609 24.52431 0.255609 28.599861 0 25.234336-20.349355 45.583692-45.626293 45.583692-22.578838 0-41.323533-16.43001-44.887866-38.071613-0.411815-2.456691-0.596422-11.431424-0.553821-16.657218 0.113604-15.222965 0.369214-45.441686 0.624823-60.025628 0.085203-4.600971 1.462654-13.859714 2.201082-16.515213 8.463514-29.849508 29.551297-43.993233 47.656969-50.66748 5.92162-2.186881 22.181223-6.518042 27.918236-8.676522 29.735903-10.877604 50.965691-39.534267 50.965691-73.075912 0-43.041797-34.904895-77.946693-77.946693-77.946693-39.946082 0-72.919706 29.977312-77.463875 68.687949-0.298211 2.996311-4.402163 28.55726-5.467203 32.277798-5.353599 18.162474-22.010817 31.439967-41.919956 31.439967-15.123561 0-28.173846-7.682485-35.984135-19.227514-9.599556-14.186326-12.255055-28.727666-12.567466-39.804077-0.284011-9.358147 2.229483-24.027292 2.726501-26.838996 14.782749-80.815199 85.586576-142.090473 170.661933-142.090473 95.725752 0 173.360033 77.648481 173.360033 173.487838C685.402635 461.190514 635.075967 525.916516 565.791596 548.481154z" p-id="4371"></path></svg>