<svg t="1634871036249" class="icon" viewBox="0 0 1024 1024" version="1.1" xmlns="http://www.w3.org/2000/svg" p-id="1905" width="200" height="200"><path d="M720.5888 771.8912H266.5984a71.68 71.68 0 0 1-71.68-71.1168L164.2496 404.48v-1.024a71.68 71.68 0 0 1 71.68-71.68h331.8784a10.24 10.24 0 0 1 0 20.48H235.8784a51.2 51.2 0 0 0-51.2 50.688l30.72 296.3968a7.5776 7.5776 0 0 1 0 1.0752 51.2 51.2 0 0 0 51.2 51.2h453.9904a47.8208 47.8208 0 0 0 47.7696-47.7696v-0.9728l17.0496-179.2a10.24 10.24 0 1 1 20.48 1.9456l-16.9984 178.688a68.352 68.352 0 0 1-68.3008 67.584z" fill="#C9C9C9" p-id="1906"></path><path d="M225.8944 352.8704a10.24 10.24 0 0 1-10.24-8.448l-3.6352-20.48a10.5984 10.5984 0 0 1 0-1.792 62.4128 62.4128 0 0 1 62.3616-62.2592h301.056a10.24 10.24 0 0 1 0 20.48h-301.056a41.9328 41.9328 0 0 0-41.8816 40.96l3.4816 19.456a10.24 10.24 0 0 1-10.24 12.032z" fill="#C9C9C9" p-id="1907"></path><path d="M557.4144 270.1312h-20.48v-18.944a25.6 25.6 0 0 0-25.6-25.6H317.44a25.6 25.6 0 0 0-25.6 25.6v18.944h-20.48v-18.944a46.08 46.08 0 0 1 46.08-46.08h194.048a46.08 46.08 0 0 1 46.08 46.08z" fill="#C9C9C9" p-id="1908"></path><path d="M360.704 465.4592m-21.1456 0a21.1456 21.1456 0 1 0 42.2912 0 21.1456 21.1456 0 1 0-42.2912 0Z" fill="#C9C9C9" p-id="1909"></path><path d="M616.4992 465.4592m-21.1456 0a21.1456 21.1456 0 1 0 42.2912 0 21.1456 21.1456 0 1 0-42.2912 0Z" fill="#C9C9C9" p-id="1910"></path><path d="M591.7184 648.7552a10.24 10.24 0 0 1-9.8304-7.3728 97.28 97.28 0 0 0-186.8288 0 10.24 10.24 0 0 1-19.6608-5.7344 117.76 117.76 0 0 1 226.1504 0 10.24 10.24 0 0 1-6.9632 12.6976 9.0624 9.0624 0 0 1-2.8672 0.4096zM781.5168 361.0624a36.7616 36.7616 0 1 0-50.1248-49.6128z" fill="#C9C9C9" p-id="1911"></path><path d="M874.4448 438.6304l-77.4144-76.8a47.0016 47.0016 0 1 0-66.56-66.0992l-67.8912-66.7648a20.48 20.48 0 0 0-32.768 5.12 169.2672 169.2672 0 0 0 148.48 249.4464h0.9728a168.2944 168.2944 0 0 0 93.4912-28.8768 10.24 10.24 0 0 0 1.4848-15.7696zM851.3536 334.08a10.24 10.24 0 0 1-10.24-10.24 72.4992 72.4992 0 0 0-72.3968-72.3968 10.24 10.24 0 0 1 0-20.48 92.8768 92.8768 0 0 1 92.8768 92.8768 10.24 10.24 0 0 1-10.24 10.24z" fill="#C9C9C9" p-id="1912"></path><path d="M909.6192 336.7936h-1.024a10.24 10.24 0 0 1-9.1648-11.1616c0.3584-3.9424 0.5632-7.936 0.5632-11.8784a121.4464 121.4464 0 0 0-121.344-121.344 110.9504 110.9504 0 0 0-12.3904 0.6656 10.24 10.24 0 0 1-2.0992-20.48 137.3696 137.3696 0 0 1 14.4896-0.768 142.0288 142.0288 0 0 1 141.824 141.824c0 4.608-0.256 9.2672-0.6656 13.824a10.24 10.24 0 0 1-10.1888 9.3184z" fill="#C9C9C9" p-id="1913"></path><path d="M696.0128 421.9392a10.24 10.24 0 0 1-7.2704-17.4592l196.1984-196.1984a10.24 10.24 0 0 1 14.4896 14.4896l-196.1984 196.1984a10.24 10.24 0 0 1-7.2192 2.9696z" fill="#757D8E" p-id="1914"></path><path d="M892.2112 421.9392a10.24 10.24 0 0 1-7.2704-2.9696l-196.1984-196.1984a10.24 10.24 0 0 1 14.4896-14.4896L899.4304 404.48a10.24 10.24 0 0 1 0 14.4896 10.24 10.24 0 0 1-7.2192 2.9696zM219.6992 212.8384h-39.8848a5.12 5.12 0 0 1 0-10.24h39.8848a5.12 5.12 0 0 1 0 10.24z" fill="#757D8E" p-id="1915"></path><path d="M199.68 236.4928a5.12 5.12 0 0 1-5.12-5.12V184.32a5.12 5.12 0 0 1 10.24 0v47.2576a5.12 5.12 0 0 1-5.12 4.9152zM837.7344 734.1056a20.48 20.48 0 1 1 20.224-20.224 20.48 20.48 0 0 1-20.224 20.224z m0-30.2592a10.24 10.24 0 1 0 9.984 10.24 10.24 10.24 0 0 0-9.984-10.24z" fill="#757D8E" p-id="1916"></path><path d="M154.7264 844.4416a344.0128 28.16 0 1 0 688.0256 0 344.0128 28.16 0 1 0-688.0256 0Z" fill="#C9C9C9" p-id="1917"></path></svg>