<?xml version="1.0" encoding="utf-8"?>
<svg version="1.1" xmlns:xlink="http://www.w3.org/1999/xlink" width="96px" height="59px" xmlns="http://www.w3.org/2000/svg">
  <defs>
    <pattern id="BGPattern" patternUnits="userSpaceOnUse" alignment="0 0" imageRepeat="None" />
    <mask fill="white" id="Clip89">
      <path d="M 10.499999999999996 39.01461538461538  L 10.499999999999996 40.21947115384616  L 11.778846153846152 40.21947115384616  C 12.124134615384612 40.225865384615375  12.399999999999995 40.49076923076923  12.399999999999995 40.815961538461536  C 12.399999999999995 41.144807692307694  12.127788461538458 41.411538461538456  11.778846153846152 41.411538461538456  L 10.499999999999996 41.411538461538456  L 10.499999999999996 42.61639423076923  C 10.492692307692305 42.940673076923076  10.211346153846149 43.20100961538462  9.866971153846153 43.20100961538462  C 9.702045789421318 43.20426033543684  9.54216111510937 43.14409923099227  9.420288461538458 43.032932692307696  C 9.30254252072565 42.926253842956896  9.234666425169891 42.77527091820848  9.233028846153843 42.61639423076923  L 9.233028846153843 41.411538461538456  L 7.95418269230769 41.411538461538456  C 7.608894230769227 41.40514423076924  7.333028846153844 41.14024038461538  7.333028846153844 40.815961538461536  C 7.333028846153844 40.48711538461538  7.6052403846153815 40.21947115384616  7.95418269230769 40.21947115384616  L 9.233028846153843 40.21947115384616  L 9.233028846153843 39.01461538461538  C 9.240336538461534 38.69033653846154  9.521682692307689 38.42999999999999  9.866971153846151 38.42999999999999  C 10.21591346153846 38.42999999999999  10.499999999999996 38.686682692307684  10.499999999999996 39.01461538461538  Z M 95.37884615384614 35.44937499999999  L 94.09999999999997 35.449375  L 94.09999999999995 34.244519230769214  C 94.0983624209839 34.08564254332997  94.03048632542814 33.93465961858155  93.91274038461538 33.82798076923076  C 93.79095813360767 33.7173650337179  93.6314585389152 33.657552685708225  93.46697115384613 33.6608173076923  C 93.12168269230766 33.6608173076923  92.8403365384615 33.92024038461538  92.83302884615382 34.24543269230769  L 92.83302884615382 35.44937499999999  L 91.55418269230768 35.449375  C 91.38937115336415 35.44919877856523  91.23078265044002 35.51230719313091  91.11115384615381 35.625673076923064  C 90.99575617187779 35.734752055027016  90.93118054313683 35.88708430744157  90.93302884615382 36.04586538461537  C 90.93302884615382 36.365576923076915  91.2116346153846 36.6414423076923  91.55418269230768 36.6414423076923  L 92.83302884615382 36.6414423076923  L 92.83302884615382 37.84629807692308  C 92.83302884615382 38.17423076923076  93.11620192307691 38.43091346153845  93.46697115384615 38.43091346153845  C 93.81134615384613 38.43091346153845  94.09269230769229 38.17057692307692  94.09999999999998 37.84629807692308  L 94.09999999999998 36.6414423076923  L 95.37884615384614 36.6414423076923  C 95.72778846153845 36.6414423076923  96 36.374711538461526  96 36.04586538461537  C 96 35.72067307692306  95.7241346153846 35.45576923076922  95.37884615384614 35.44937499999999  Z M 48.085288461538454 55.124423076923065  L 48.08437499999999 55  L 16.195432692307694 55  C 15.860192307692305 55.12625  15.537740384615383 55.00110576923076  15.301153846153849 54.7773076923077  C 15.06661974667092 54.559247407440935  14.933274817148886 54.253513623623675  14.933028846153848 53.93326923076923  C 14.933028846153848 53.275576923076926  15.506682692307693 52.741201923076915  16.196346153846154 52.741201923076915  L 21.940192307692314 52.741201923076915  C 21.499293283674504 52.02586428167129  21.266188379895354 51.20193175203127  22 50.36163461538462  L 22 15.766105769230771  C 21.266971153846153 14.500961538461539  21.802259615384614 13.287884615384613  22.753173076923076 12.394519230769234  C 23.705000000000002 11.501153846153848  24.994807692307692 10.999663461538464  26.338509615384616 11.002403846153847  L 30.13302884615384 11.002403846153847  L 30.13302884615384 9.80394230769231  C 30.133942307692305 8.53879807692308  30.669230769230772 7.325721153846153  31.620144230769228 6.431442307692308  C 32.57197115384616 5.538076923076925  33.86086538461538 5.037500000000001  35.20548076923077 5  L 65.59451923076921 5  C 66.93913461538459 5.036586538461538  68.22894230769228 5.537163461538462  69.18076923076922 6.431442307692308  C 70.13168269230768 7.324807692307694  70.66697115384613 8.537884615384616  70 9.80394230769231  L 70 44.398557692307705  C 70.66656836820079 45.238781966353315  70.43253019558921 46.06234331970542  69.9910096153846 46.77721153846154  L 76.99999999999999 46.77721153846154  C 77.69971153846151 46.77721153846154  78.26788461538459 47.30701923076923  78.26788461538459 47.9701923076923  C 78.26788461538459 48.627884615384616  77.70427884615381 49.16225961538461  77.00091346153843 49  L 61.79999999999998 49  L 61.8 50.36072115384616  C 61.79976663214434 51.201255838351855  61.56572201841222 52.025156133989924  61.124038461538454 52.740288461538455  L 61.803653846153836 52.740288461538455  C 62.500624999999985 52.740288461538455  63.06697115384614 53.27009615384614  63.06697115384614 53.93235576923077  C 63.06697115384614 54.59096153846153  62.493317307692294 55.125336538461525  61.803653846153836 55.125336538461525  L 55.14086538461537 55.125336538461525  C 55.719999999999985 56.03879807692307  55.59394230769229 57.23543269230768  54.75173076923074 58.02923076923075  C 54.26588965071917 58.48217924409023  53.6255716587194 58.732752662388094  52.96134615384613 58.72985576923075  C 52.296805542670896 58.732985599605755  51.656119394742504 58.48239596398052  51.17004807692305 58.029230769230765  L 48.085288461538454 55.124423076923065  Z M 48.48081730769229 48.75394230769231  L 52.71562499999999 52.741201923076915  L 56.74399038461537 52.741201923076915  C 58.13701923076921 52.741201923076915  59.26697115384614 51.67975961538461  59 50.34975961538461  L 59 15.71038461538461  C 59.26697115384614 14.422403846153848  58.172644230769215 13.387451923076924  56.821634615384596 14  L 26.24442307692307 14  C 24.894326923076914 13.387451923076924  23.799999999999994 14.426971153846154  24 15.71038461538461  L 24 50.34975961538461  C 23.799999999999994 51.66971153846154  24.93999999999999 52.74120192307693  26.32115384615384 52  L 45.549519230769214 52  L 44.8991346153846 52.126442307692315  C 44.25605769230768 51.52538461538461  44.00485576923075 50.645721153846154  44.240528846153836 49.82177884615385  L 43.04389423076921 48.69456730769231  C 39.31879807692305 51.30615384615385  34.08466346153844 50.768125  31.04374999999998 47.46322115384615  C 28.003749999999982 44.15740384615384  28.18644230769229 39.20370192307692  31.463942307692292 36.105240384615385  C 34.750576923076906 32.99947115384616  40.02855769230767 32.81677884615385  43.549038461538444 35.686875  C 47.06860576923076 38.55697115384616  47.63129807692306 43.50245192307692  44.83519230769229 47.00831730769231  L 46.03182692307691 48.13552884615386  C 46.90020311579382 47.911020135589226  47.82313536747015 48.14407688097708  48.48081730769229 48.75394230769231  Z M 61 46.778125  L 61.79999999999998 46.778125  L 65.61096153846151 46.778125  C 67.0058173076923 46.77173076923077  68.13211538461537 45.705721153846156  68 44.39399038461538  L 68 9.810336538461542  C 68.13302884615382 8.488557692307694  67.0030769230769 7.424375000000001  65.61187499999997 8  L 35.18629807692306 8  C 33.79235576923075 7.431682692307692  32.66605769230768 8.496778846153845  32.66514423076922 9.809423076923078  L 32.66514423076922 11  L 56.72754807692306 11  C 58.07124999999998 10.99966346153846  59.361057692307675 11.500240384615385  60.312884615384604 12.393605769230767  C 61.264711538461526 13.287884615384613  61.79908653846152 14.500961538461539  61 15.766105769230771  L 61 46.778125  Z M 17.14999999999999 1.1753846153846155  L 17.14999999999999 2.9520673076923067  L 19.037211538461534 2.9520673076923067  C 19.569759615384605 2.9520673076923067  19.99999999999999 3.3494230769230775  19.99999999999999 3.847259615384615  C 19.99999999999999 4.340528846153845  19.569759615384605 4.741538461538461  19.037211538461534 4.741538461538461  L 17.14999999999999 4.741538461538461  L 17.14999999999999 6.517307692307693  C 17.14999999999999 7.017884615384617  16.72798076923076 7.423461538461537  16.199999999999996 7.423461538461537  C 15.949454985361854 7.423086479522212  15.708438388566698 7.327398318463974  15.52586538461538 7.15581730769231  C 15.349318486391239 6.990083142846771  15.249425688867415 6.758543545937243  15.249999999999996 6.5163942307692295  L 15.249999999999996 4.742451923076924  L 13.362788461538457 4.742451923076924  C 13.108846153846152 4.744278846153847  12.864951923076923 4.651105769230771  12.684086538461537 4.483028846153847  C 12.505477367377205 4.319942601460141  12.402592713864486 4.090023520459049  12.399999999999999 3.848173076923078  C 12.399999999999999 3.354903846153846  12.830240384615383 2.95298076923077  13.362788461538457 2.95298076923077  L 15.249999999999996 2.95298076923077  L 15.249999999999996 1.1753846153846155  C 15.249999999999996 0.6748076923076916  15.672019230769228 0.26923076923077005  16.199999999999996 0.26923076923077005  C 16.72432692307692 0.26923076923077005  17.14999999999999 0.6748076923076916  17.14999999999999 1.1753846153846155  Z M 2.2669711538461534 53.93326923076923  C 2.2669711538461534 53.275576923076926  2.8406249999999993 52.741201923076915  3.529374999999999 52.741201923076915  L 11.13668269230769 52.741201923076915  C 11.833653846153842 52.741201923076915  12.399999999999995 53.271009615384614  12.399999999999995 53.93326923076923  C 12.399999999999995 54.59187499999999  11.826346153846151 55.12625  11.13668269230769 55.12625  L 3.53028846153846 55.12625  C 3.195048076923076 55.12625  2.8725961538461524 55.00110576923076  2.6350961538461535 54.7773076923077  C 2.40089937267236 54.55908807494413  2.267894489956004 54.253375359446835  2.267884615384615 53.93326923076924  Z M 33.2543269230769 46.22456730769231  C 35.72798076923075 48.55389423076923  39.73899038461536 48.55389423076923  42.212644230769214 46.22456730769231  C 43.81211538461537 44.718269230769224  44.436923076923065 42.52230769230769  43.85139423076921 40.464278846153846  C 43.26677884615383 38.40716346153846  41.55860576923075 36.799471153846156  39.37269230769229 36.24774038461538  C 37.18677884615383 35.69600961538461  34.85471153846153 36.28427884615384  33.2543269230769 37.791490384615386  C 30.780673076923065 40.120817307692306  30.780673076923065 43.89615384615385  33.2543269230769 46.22456730769231  Z M 29.23692307692307 19.002499999999998  C 29.0015737193202 18.784477272936385  28.867545775073296 18.47836406694038  28.86697115384614 18.157548076923078  C 28.86697115384614 17.49985576923077  29.4333173076923 16.965480769230766  30.132115384615375 17  L 44.06697115384614 17  C 44.76668269230768 16.964567307692306  45.33302884615383 17.498942307692303  45.33302884615383 18.157548076923078  C 45.33302884615383 18.81524038461538  44.76668269230768 19.349615384615383  44.06697115384614 20  L 30.13302884615383 20  C 29.801037455637882 19.35216463953158  29.480566815076557 19.228027184472147  29.23692307692307 19.002499999999998  Z M 29.232355769230765 24.962836538461545  C 28.998789849599362 24.744710105152066  28.86643112104847 24.43929233902088  28.86697115384614 24.119711538461537  C 28.86697115384614 23.46201923076923  29.430576923076913 22.927644230769232  30.124807692307677 23  L 50.4091346153846 23  C 51.10336538461537 22.927644230769232  51.66697115384615 23.457451923076917  51.66697115384615 24.119711538461537  C 51.66697115384615 24.778317307692305  51.10336538461539 25.31269230769231  50.4091346153846 26  L 30.124807692307684 26  C 29.789567307692298 25.31269230769231  29.46802884615384 25.18663461538462  29.232355769230765 24.962836538461545  Z M 28.86697115384614 30.082788461538456  C 28.86697115384614 29.425096153846155  29.431490384615373 28.88980769230769  30.131201923076915 28.88980769230769  L 39.002740384615365 28.88980769230769  C 39.70062499999998 28.88980769230769  40.266971153846136 29.419615384615383  40.266971153846136 30.082788461538456  C 40.266971153846136 30.74048076923077  39.70153846153845 31.27485576923077  39.002740384615365 31.27485576923077  L 30.130288461538452 31.27485576923077  C 29.794134615384607 31.275769230769228  29.47168269230768 31.150624999999994  29.235096153846147 30.92682692307693  C 29.00022465972012 30.708926156623534  28.8665396135463 30.403171249037854  28.866057692307688 30.082788461538467  Z M 8.599999999999998 19.34961538461539  C 8.599999999999998 21.325432692307693  6.899134615384614 22.927644230769232  4.799999999999998 22.927644230769232  C 3.442596153846153 22.927644230769232  2.187499999999999 22.245288461538465  1.5087980769230764 21.13908653846154  C 0.8298218118870093 20.043043512101704  0.8298218118870104 18.657100718667536  1.5087980769230764 17.561057692307692  C 2.187499999999999 16.45394230769231  3.4425961538461527 15.7725  4.799999999999998 15.7725  C 6.899134615384614 15.7725  8.599999999999998 17.37379807692308  8.599999999999998 19.34961538461539  Z M 2.899999999999999 19.34961538461539  C 2.899999999999999 20.337980769230768  3.7504326923076916 21.13817307692308  4.799999999999998 21.13908653846154  C 5.478701923076922 21.13908653846154  6.1062499999999975 20.79745192307692  6.44605769230769 20.24389423076923  C 6.785249960491351 19.695953098636572  6.785249960491351 19.0032776705942  6.44605769230769 18.455336538461538  C 6.1062499999999975 17.901778846153846  5.478701923076921 17.560144230769232  4.799999999999998 17.5610576923077  C 3.7504326923076916 17.5610576923077  2.899999999999999 18.362163461538465  2.899999999999999 19.34961538461539  Z M 87.1330288461538 12.194471153846155  C 87.1330288461538 14.170288461538462  85.43216346153844 15.7725  83.33302884615381 15.7725  C 81.23480769230765 15.7725  79.53302884615381 14.170288461538462  79.53302884615381 12.194471153846155  C 79.53302884615381 10.218653846153849  81.23480769230765 8.61735576923077  83.33302884615381 8.61735576923077  C 85.43216346153844 8.61735576923077  87.1330288461538 10.218653846153849  87.1330288461538 12.194471153846155  Z M 81.43302884615383 12.195384615384619  C 81.43302884615383 13.181923076923077  82.28437499999997 13.98302884615385  83.33302884615381 13.98302884615385  C 84.01264423076921 13.98302884615385  84.63927884615381 13.642307692307696  84.97908653846152 13.088750000000005  C 85.31827880664517 12.54080886786734  85.31827880664517 11.84813343982497  84.97908653846152 11.30019230769231  C 84.63927884615381 10.746634615384618  84.01264423076921 10.405000000000001  83.33302884615381 10.405000000000001  C 82.28437499999997 10.40591346153846  81.43302884615383 11.207019230769234  81.43302884615383 12.195384615384619  Z " fill-rule="evenodd" />
    </mask>
  </defs>
  <g transform="matrix(1 0 0 1 -797 -363 )">
    <path d="M 10.499999999999996 39.01461538461538  L 10.499999999999996 40.21947115384616  L 11.778846153846152 40.21947115384616  C 12.124134615384612 40.225865384615375  12.399999999999995 40.49076923076923  12.399999999999995 40.815961538461536  C 12.399999999999995 41.144807692307694  12.127788461538458 41.411538461538456  11.778846153846152 41.411538461538456  L 10.499999999999996 41.411538461538456  L 10.499999999999996 42.61639423076923  C 10.492692307692305 42.940673076923076  10.211346153846149 43.20100961538462  9.866971153846153 43.20100961538462  C 9.702045789421318 43.20426033543684  9.54216111510937 43.14409923099227  9.420288461538458 43.032932692307696  C 9.30254252072565 42.926253842956896  9.234666425169891 42.77527091820848  9.233028846153843 42.61639423076923  L 9.233028846153843 41.411538461538456  L 7.95418269230769 41.411538461538456  C 7.608894230769227 41.40514423076924  7.333028846153844 41.14024038461538  7.333028846153844 40.815961538461536  C 7.333028846153844 40.48711538461538  7.6052403846153815 40.21947115384616  7.95418269230769 40.21947115384616  L 9.233028846153843 40.21947115384616  L 9.233028846153843 39.01461538461538  C 9.240336538461534 38.69033653846154  9.521682692307689 38.42999999999999  9.866971153846151 38.42999999999999  C 10.21591346153846 38.42999999999999  10.499999999999996 38.686682692307684  10.499999999999996 39.01461538461538  Z M 95.37884615384614 35.44937499999999  L 94.09999999999997 35.449375  L 94.09999999999995 34.244519230769214  C 94.0983624209839 34.08564254332997  94.03048632542814 33.93465961858155  93.91274038461538 33.82798076923076  C 93.79095813360767 33.7173650337179  93.6314585389152 33.657552685708225  93.46697115384613 33.6608173076923  C 93.12168269230766 33.6608173076923  92.8403365384615 33.92024038461538  92.83302884615382 34.24543269230769  L 92.83302884615382 35.44937499999999  L 91.55418269230768 35.449375  C 91.38937115336415 35.44919877856523  91.23078265044002 35.51230719313091  91.11115384615381 35.625673076923064  C 90.99575617187779 35.734752055027016  90.93118054313683 35.88708430744157  90.93302884615382 36.04586538461537  C 90.93302884615382 36.365576923076915  91.2116346153846 36.6414423076923  91.55418269230768 36.6414423076923  L 92.83302884615382 36.6414423076923  L 92.83302884615382 37.84629807692308  C 92.83302884615382 38.17423076923076  93.11620192307691 38.43091346153845  93.46697115384615 38.43091346153845  C 93.81134615384613 38.43091346153845  94.09269230769229 38.17057692307692  94.09999999999998 37.84629807692308  L 94.09999999999998 36.6414423076923  L 95.37884615384614 36.6414423076923  C 95.72778846153845 36.6414423076923  96 36.374711538461526  96 36.04586538461537  C 96 35.72067307692306  95.7241346153846 35.45576923076922  95.37884615384614 35.44937499999999  Z M 48.085288461538454 55.124423076923065  L 48.08437499999999 55  L 16.195432692307694 55  C 15.860192307692305 55.12625  15.537740384615383 55.00110576923076  15.301153846153849 54.7773076923077  C 15.06661974667092 54.559247407440935  14.933274817148886 54.253513623623675  14.933028846153848 53.93326923076923  C 14.933028846153848 53.275576923076926  15.506682692307693 52.741201923076915  16.196346153846154 52.741201923076915  L 21.940192307692314 52.741201923076915  C 21.499293283674504 52.02586428167129  21.266188379895354 51.20193175203127  22 50.36163461538462  L 22 15.766105769230771  C 21.266971153846153 14.500961538461539  21.802259615384614 13.287884615384613  22.753173076923076 12.394519230769234  C 23.705000000000002 11.501153846153848  24.994807692307692 10.999663461538464  26.338509615384616 11.002403846153847  L 30.13302884615384 11.002403846153847  L 30.13302884615384 9.80394230769231  C 30.133942307692305 8.53879807692308  30.669230769230772 7.325721153846153  31.620144230769228 6.431442307692308  C 32.57197115384616 5.538076923076925  33.86086538461538 5.037500000000001  35.20548076923077 5  L 65.59451923076921 5  C 66.93913461538459 5.036586538461538  68.22894230769228 5.537163461538462  69.18076923076922 6.431442307692308  C 70.13168269230768 7.324807692307694  70.66697115384613 8.537884615384616  70 9.80394230769231  L 70 44.398557692307705  C 70.66656836820079 45.238781966353315  70.43253019558921 46.06234331970542  69.9910096153846 46.77721153846154  L 76.99999999999999 46.77721153846154  C 77.69971153846151 46.77721153846154  78.26788461538459 47.30701923076923  78.26788461538459 47.9701923076923  C 78.26788461538459 48.627884615384616  77.70427884615381 49.16225961538461  77.00091346153843 49  L 61.79999999999998 49  L 61.8 50.36072115384616  C 61.79976663214434 51.201255838351855  61.56572201841222 52.025156133989924  61.124038461538454 52.740288461538455  L 61.803653846153836 52.740288461538455  C 62.500624999999985 52.740288461538455  63.06697115384614 53.27009615384614  63.06697115384614 53.93235576923077  C 63.06697115384614 54.59096153846153  62.493317307692294 55.125336538461525  61.803653846153836 55.125336538461525  L 55.14086538461537 55.125336538461525  C 55.719999999999985 56.03879807692307  55.59394230769229 57.23543269230768  54.75173076923074 58.02923076923075  C 54.26588965071917 58.48217924409023  53.6255716587194 58.732752662388094  52.96134615384613 58.72985576923075  C 52.296805542670896 58.732985599605755  51.656119394742504 58.48239596398052  51.17004807692305 58.029230769230765  L 48.085288461538454 55.124423076923065  Z M 48.48081730769229 48.75394230769231  L 52.71562499999999 52.741201923076915  L 56.74399038461537 52.741201923076915  C 58.13701923076921 52.741201923076915  59.26697115384614 51.67975961538461  59 50.34975961538461  L 59 15.71038461538461  C 59.26697115384614 14.422403846153848  58.172644230769215 13.387451923076924  56.821634615384596 14  L 26.24442307692307 14  C 24.894326923076914 13.387451923076924  23.799999999999994 14.426971153846154  24 15.71038461538461  L 24 50.34975961538461  C 23.799999999999994 51.66971153846154  24.93999999999999 52.74120192307693  26.32115384615384 52  L 45.549519230769214 52  L 44.8991346153846 52.126442307692315  C 44.25605769230768 51.52538461538461  44.00485576923075 50.645721153846154  44.240528846153836 49.82177884615385  L 43.04389423076921 48.69456730769231  C 39.31879807692305 51.30615384615385  34.08466346153844 50.768125  31.04374999999998 47.46322115384615  C 28.003749999999982 44.15740384615384  28.18644230769229 39.20370192307692  31.463942307692292 36.105240384615385  C 34.750576923076906 32.99947115384616  40.02855769230767 32.81677884615385  43.549038461538444 35.686875  C 47.06860576923076 38.55697115384616  47.63129807692306 43.50245192307692  44.83519230769229 47.00831730769231  L 46.03182692307691 48.13552884615386  C 46.90020311579382 47.911020135589226  47.82313536747015 48.14407688097708  48.48081730769229 48.75394230769231  Z M 61 46.778125  L 61.79999999999998 46.778125  L 65.61096153846151 46.778125  C 67.0058173076923 46.77173076923077  68.13211538461537 45.705721153846156  68 44.39399038461538  L 68 9.810336538461542  C 68.13302884615382 8.488557692307694  67.0030769230769 7.424375000000001  65.61187499999997 8  L 35.18629807692306 8  C 33.79235576923075 7.431682692307692  32.66605769230768 8.496778846153845  32.66514423076922 9.809423076923078  L 32.66514423076922 11  L 56.72754807692306 11  C 58.07124999999998 10.99966346153846  59.361057692307675 11.500240384615385  60.312884615384604 12.393605769230767  C 61.264711538461526 13.287884615384613  61.79908653846152 14.500961538461539  61 15.766105769230771  L 61 46.778125  Z M 17.14999999999999 1.1753846153846155  L 17.14999999999999 2.9520673076923067  L 19.037211538461534 2.9520673076923067  C 19.569759615384605 2.9520673076923067  19.99999999999999 3.3494230769230775  19.99999999999999 3.847259615384615  C 19.99999999999999 4.340528846153845  19.569759615384605 4.741538461538461  19.037211538461534 4.741538461538461  L 17.14999999999999 4.741538461538461  L 17.14999999999999 6.517307692307693  C 17.14999999999999 7.017884615384617  16.72798076923076 7.423461538461537  16.199999999999996 7.423461538461537  C 15.949454985361854 7.423086479522212  15.708438388566698 7.327398318463974  15.52586538461538 7.15581730769231  C 15.349318486391239 6.990083142846771  15.249425688867415 6.758543545937243  15.249999999999996 6.5163942307692295  L 15.249999999999996 4.742451923076924  L 13.362788461538457 4.742451923076924  C 13.108846153846152 4.744278846153847  12.864951923076923 4.651105769230771  12.684086538461537 4.483028846153847  C 12.505477367377205 4.319942601460141  12.402592713864486 4.090023520459049  12.399999999999999 3.848173076923078  C 12.399999999999999 3.354903846153846  12.830240384615383 2.95298076923077  13.362788461538457 2.95298076923077  L 15.249999999999996 2.95298076923077  L 15.249999999999996 1.1753846153846155  C 15.249999999999996 0.6748076923076916  15.672019230769228 0.26923076923077005  16.199999999999996 0.26923076923077005  C 16.72432692307692 0.26923076923077005  17.14999999999999 0.6748076923076916  17.14999999999999 1.1753846153846155  Z M 2.2669711538461534 53.93326923076923  C 2.2669711538461534 53.275576923076926  2.8406249999999993 52.741201923076915  3.529374999999999 52.741201923076915  L 11.13668269230769 52.741201923076915  C 11.833653846153842 52.741201923076915  12.399999999999995 53.271009615384614  12.399999999999995 53.93326923076923  C 12.399999999999995 54.59187499999999  11.826346153846151 55.12625  11.13668269230769 55.12625  L 3.53028846153846 55.12625  C 3.195048076923076 55.12625  2.8725961538461524 55.00110576923076  2.6350961538461535 54.7773076923077  C 2.40089937267236 54.55908807494413  2.267894489956004 54.253375359446835  2.267884615384615 53.93326923076924  Z M 33.2543269230769 46.22456730769231  C 35.72798076923075 48.55389423076923  39.73899038461536 48.55389423076923  42.212644230769214 46.22456730769231  C 43.81211538461537 44.718269230769224  44.436923076923065 42.52230769230769  43.85139423076921 40.464278846153846  C 43.26677884615383 38.40716346153846  41.55860576923075 36.799471153846156  39.37269230769229 36.24774038461538  C 37.18677884615383 35.69600961538461  34.85471153846153 36.28427884615384  33.2543269230769 37.791490384615386  C 30.780673076923065 40.120817307692306  30.780673076923065 43.89615384615385  33.2543269230769 46.22456730769231  Z M 29.23692307692307 19.002499999999998  C 29.0015737193202 18.784477272936385  28.867545775073296 18.47836406694038  28.86697115384614 18.157548076923078  C 28.86697115384614 17.49985576923077  29.4333173076923 16.965480769230766  30.132115384615375 17  L 44.06697115384614 17  C 44.76668269230768 16.964567307692306  45.33302884615383 17.498942307692303  45.33302884615383 18.157548076923078  C 45.33302884615383 18.81524038461538  44.76668269230768 19.349615384615383  44.06697115384614 20  L 30.13302884615383 20  C 29.801037455637882 19.35216463953158  29.480566815076557 19.228027184472147  29.23692307692307 19.002499999999998  Z M 29.232355769230765 24.962836538461545  C 28.998789849599362 24.744710105152066  28.86643112104847 24.43929233902088  28.86697115384614 24.119711538461537  C 28.86697115384614 23.46201923076923  29.430576923076913 22.927644230769232  30.124807692307677 23  L 50.4091346153846 23  C 51.10336538461537 22.927644230769232  51.66697115384615 23.457451923076917  51.66697115384615 24.119711538461537  C 51.66697115384615 24.778317307692305  51.10336538461539 25.31269230769231  50.4091346153846 26  L 30.124807692307684 26  C 29.789567307692298 25.31269230769231  29.46802884615384 25.18663461538462  29.232355769230765 24.962836538461545  Z M 28.86697115384614 30.082788461538456  C 28.86697115384614 29.425096153846155  29.431490384615373 28.88980769230769  30.131201923076915 28.88980769230769  L 39.002740384615365 28.88980769230769  C 39.70062499999998 28.88980769230769  40.266971153846136 29.419615384615383  40.266971153846136 30.082788461538456  C 40.266971153846136 30.74048076923077  39.70153846153845 31.27485576923077  39.002740384615365 31.27485576923077  L 30.130288461538452 31.27485576923077  C 29.794134615384607 31.275769230769228  29.47168269230768 31.150624999999994  29.235096153846147 30.92682692307693  C 29.00022465972012 30.708926156623534  28.8665396135463 30.403171249037854  28.866057692307688 30.082788461538467  Z M 8.599999999999998 19.34961538461539  C 8.599999999999998 21.325432692307693  6.899134615384614 22.927644230769232  4.799999999999998 22.927644230769232  C 3.442596153846153 22.927644230769232  2.187499999999999 22.245288461538465  1.5087980769230764 21.13908653846154  C 0.8298218118870093 20.043043512101704  0.8298218118870104 18.657100718667536  1.5087980769230764 17.561057692307692  C 2.187499999999999 16.45394230769231  3.4425961538461527 15.7725  4.799999999999998 15.7725  C 6.899134615384614 15.7725  8.599999999999998 17.37379807692308  8.599999999999998 19.34961538461539  Z M 2.899999999999999 19.34961538461539  C 2.899999999999999 20.337980769230768  3.7504326923076916 21.13817307692308  4.799999999999998 21.13908653846154  C 5.478701923076922 21.13908653846154  6.1062499999999975 20.79745192307692  6.44605769230769 20.24389423076923  C 6.785249960491351 19.695953098636572  6.785249960491351 19.0032776705942  6.44605769230769 18.455336538461538  C 6.1062499999999975 17.901778846153846  5.478701923076921 17.560144230769232  4.799999999999998 17.5610576923077  C 3.7504326923076916 17.5610576923077  2.899999999999999 18.362163461538465  2.899999999999999 19.34961538461539  Z M 87.1330288461538 12.194471153846155  C 87.1330288461538 14.170288461538462  85.43216346153844 15.7725  83.33302884615381 15.7725  C 81.23480769230765 15.7725  79.53302884615381 14.170288461538462  79.53302884615381 12.194471153846155  C 79.53302884615381 10.218653846153849  81.23480769230765 8.61735576923077  83.33302884615381 8.61735576923077  C 85.43216346153844 8.61735576923077  87.1330288461538 10.218653846153849  87.1330288461538 12.194471153846155  Z M 81.43302884615383 12.195384615384619  C 81.43302884615383 13.181923076923077  82.28437499999997 13.98302884615385  83.33302884615381 13.98302884615385  C 84.01264423076921 13.98302884615385  84.63927884615381 13.642307692307696  84.97908653846152 13.088750000000005  C 85.31827880664517 12.54080886786734  85.31827880664517 11.84813343982497  84.97908653846152 11.30019230769231  C 84.63927884615381 10.746634615384618  84.01264423076921 10.405000000000001  83.33302884615381 10.405000000000001  C 82.28437499999997 10.40591346153846  81.43302884615383 11.207019230769234  81.43302884615383 12.195384615384619  Z " fill-rule="nonzero" fill="rgba(127, 127, 127, 1)" stroke="none" transform="matrix(1 0 0 1 797 363 )" class="fill" />
    <path d="M 10.499999999999996 39.01461538461538  L 10.499999999999996 40.21947115384616  L 11.778846153846152 40.21947115384616  C 12.124134615384612 40.225865384615375  12.399999999999995 40.49076923076923  12.399999999999995 40.815961538461536  C 12.399999999999995 41.144807692307694  12.127788461538458 41.411538461538456  11.778846153846152 41.411538461538456  L 10.499999999999996 41.411538461538456  L 10.499999999999996 42.61639423076923  C 10.492692307692305 42.940673076923076  10.211346153846149 43.20100961538462  9.866971153846153 43.20100961538462  C 9.702045789421318 43.20426033543684  9.54216111510937 43.14409923099227  9.420288461538458 43.032932692307696  C 9.30254252072565 42.926253842956896  9.234666425169891 42.77527091820848  9.233028846153843 42.61639423076923  L 9.233028846153843 41.411538461538456  L 7.95418269230769 41.411538461538456  C 7.608894230769227 41.40514423076924  7.333028846153844 41.14024038461538  7.333028846153844 40.815961538461536  C 7.333028846153844 40.48711538461538  7.6052403846153815 40.21947115384616  7.95418269230769 40.21947115384616  L 9.233028846153843 40.21947115384616  L 9.233028846153843 39.01461538461538  C 9.240336538461534 38.69033653846154  9.521682692307689 38.42999999999999  9.866971153846151 38.42999999999999  C 10.21591346153846 38.42999999999999  10.499999999999996 38.686682692307684  10.499999999999996 39.01461538461538  Z " stroke-width="0" stroke-dasharray="0" stroke="rgba(255, 255, 255, 0)" fill="none" transform="matrix(1 0 0 1 797 363 )" class="stroke" mask="url(#Clip89)" />
    <path d="M 95.37884615384614 35.44937499999999  L 94.09999999999997 35.449375  L 94.09999999999995 34.244519230769214  C 94.0983624209839 34.08564254332997  94.03048632542814 33.93465961858155  93.91274038461538 33.82798076923076  C 93.79095813360767 33.7173650337179  93.6314585389152 33.657552685708225  93.46697115384613 33.6608173076923  C 93.12168269230766 33.6608173076923  92.8403365384615 33.92024038461538  92.83302884615382 34.24543269230769  L 92.83302884615382 35.44937499999999  L 91.55418269230768 35.449375  C 91.38937115336415 35.44919877856523  91.23078265044002 35.51230719313091  91.11115384615381 35.625673076923064  C 90.99575617187779 35.734752055027016  90.93118054313683 35.88708430744157  90.93302884615382 36.04586538461537  C 90.93302884615382 36.365576923076915  91.2116346153846 36.6414423076923  91.55418269230768 36.6414423076923  L 92.83302884615382 36.6414423076923  L 92.83302884615382 37.84629807692308  C 92.83302884615382 38.17423076923076  93.11620192307691 38.43091346153845  93.46697115384615 38.43091346153845  C 93.81134615384613 38.43091346153845  94.09269230769229 38.17057692307692  94.09999999999998 37.84629807692308  L 94.09999999999998 36.6414423076923  L 95.37884615384614 36.6414423076923  C 95.72778846153845 36.6414423076923  96 36.374711538461526  96 36.04586538461537  C 96 35.72067307692306  95.7241346153846 35.45576923076922  95.37884615384614 35.44937499999999  Z " stroke-width="0" stroke-dasharray="0" stroke="rgba(255, 255, 255, 0)" fill="none" transform="matrix(1 0 0 1 797 363 )" class="stroke" mask="url(#Clip89)" />
    <path d="M 48.085288461538454 55.124423076923065  L 48.08437499999999 55  L 16.195432692307694 55  C 15.860192307692305 55.12625  15.537740384615383 55.00110576923076  15.301153846153849 54.7773076923077  C 15.06661974667092 54.559247407440935  14.933274817148886 54.253513623623675  14.933028846153848 53.93326923076923  C 14.933028846153848 53.275576923076926  15.506682692307693 52.741201923076915  16.196346153846154 52.741201923076915  L 21.940192307692314 52.741201923076915  C 21.499293283674504 52.02586428167129  21.266188379895354 51.20193175203127  22 50.36163461538462  L 22 15.766105769230771  C 21.266971153846153 14.500961538461539  21.802259615384614 13.287884615384613  22.753173076923076 12.394519230769234  C 23.705000000000002 11.501153846153848  24.994807692307692 10.999663461538464  26.338509615384616 11.002403846153847  L 30.13302884615384 11.002403846153847  L 30.13302884615384 9.80394230769231  C 30.133942307692305 8.53879807692308  30.669230769230772 7.325721153846153  31.620144230769228 6.431442307692308  C 32.57197115384616 5.538076923076925  33.86086538461538 5.037500000000001  35.20548076923077 5  L 65.59451923076921 5  C 66.93913461538459 5.036586538461538  68.22894230769228 5.537163461538462  69.18076923076922 6.431442307692308  C 70.13168269230768 7.324807692307694  70.66697115384613 8.537884615384616  70 9.80394230769231  L 70 44.398557692307705  C 70.66656836820079 45.238781966353315  70.43253019558921 46.06234331970542  69.9910096153846 46.77721153846154  L 76.99999999999999 46.77721153846154  C 77.69971153846151 46.77721153846154  78.26788461538459 47.30701923076923  78.26788461538459 47.9701923076923  C 78.26788461538459 48.627884615384616  77.70427884615381 49.16225961538461  77.00091346153843 49  L 61.79999999999998 49  L 61.8 50.36072115384616  C 61.79976663214434 51.201255838351855  61.56572201841222 52.025156133989924  61.124038461538454 52.740288461538455  L 61.803653846153836 52.740288461538455  C 62.500624999999985 52.740288461538455  63.06697115384614 53.27009615384614  63.06697115384614 53.93235576923077  C 63.06697115384614 54.59096153846153  62.493317307692294 55.125336538461525  61.803653846153836 55.125336538461525  L 55.14086538461537 55.125336538461525  C 55.719999999999985 56.03879807692307  55.59394230769229 57.23543269230768  54.75173076923074 58.02923076923075  C 54.26588965071917 58.48217924409023  53.6255716587194 58.732752662388094  52.96134615384613 58.72985576923075  C 52.296805542670896 58.732985599605755  51.656119394742504 58.48239596398052  51.17004807692305 58.029230769230765  L 48.085288461538454 55.124423076923065  Z " stroke-width="0" stroke-dasharray="0" stroke="rgba(255, 255, 255, 0)" fill="none" transform="matrix(1 0 0 1 797 363 )" class="stroke" mask="url(#Clip89)" />
    <path d="M 48.48081730769229 48.75394230769231  L 52.71562499999999 52.741201923076915  L 56.74399038461537 52.741201923076915  C 58.13701923076921 52.741201923076915  59.26697115384614 51.67975961538461  59 50.34975961538461  L 59 15.71038461538461  C 59.26697115384614 14.422403846153848  58.172644230769215 13.387451923076924  56.821634615384596 14  L 26.24442307692307 14  C 24.894326923076914 13.387451923076924  23.799999999999994 14.426971153846154  24 15.71038461538461  L 24 50.34975961538461  C 23.799999999999994 51.66971153846154  24.93999999999999 52.74120192307693  26.32115384615384 52  L 45.549519230769214 52  L 44.8991346153846 52.126442307692315  C 44.25605769230768 51.52538461538461  44.00485576923075 50.645721153846154  44.240528846153836 49.82177884615385  L 43.04389423076921 48.69456730769231  C 39.31879807692305 51.30615384615385  34.08466346153844 50.768125  31.04374999999998 47.46322115384615  C 28.003749999999982 44.15740384615384  28.18644230769229 39.20370192307692  31.463942307692292 36.105240384615385  C 34.750576923076906 32.99947115384616  40.02855769230767 32.81677884615385  43.549038461538444 35.686875  C 47.06860576923076 38.55697115384616  47.63129807692306 43.50245192307692  44.83519230769229 47.00831730769231  L 46.03182692307691 48.13552884615386  C 46.90020311579382 47.911020135589226  47.82313536747015 48.14407688097708  48.48081730769229 48.75394230769231  Z " stroke-width="0" stroke-dasharray="0" stroke="rgba(255, 255, 255, 0)" fill="none" transform="matrix(1 0 0 1 797 363 )" class="stroke" mask="url(#Clip89)" />
    <path d="M 61 46.778125  L 61.79999999999998 46.778125  L 65.61096153846151 46.778125  C 67.0058173076923 46.77173076923077  68.13211538461537 45.705721153846156  68 44.39399038461538  L 68 9.810336538461542  C 68.13302884615382 8.488557692307694  67.0030769230769 7.424375000000001  65.61187499999997 8  L 35.18629807692306 8  C 33.79235576923075 7.431682692307692  32.66605769230768 8.496778846153845  32.66514423076922 9.809423076923078  L 32.66514423076922 11  L 56.72754807692306 11  C 58.07124999999998 10.99966346153846  59.361057692307675 11.500240384615385  60.312884615384604 12.393605769230767  C 61.264711538461526 13.287884615384613  61.79908653846152 14.500961538461539  61 15.766105769230771  L 61 46.778125  Z " stroke-width="0" stroke-dasharray="0" stroke="rgba(255, 255, 255, 0)" fill="none" transform="matrix(1 0 0 1 797 363 )" class="stroke" mask="url(#Clip89)" />
    <path d="M 17.14999999999999 1.1753846153846155  L 17.14999999999999 2.9520673076923067  L 19.037211538461534 2.9520673076923067  C 19.569759615384605 2.9520673076923067  19.99999999999999 3.3494230769230775  19.99999999999999 3.847259615384615  C 19.99999999999999 4.340528846153845  19.569759615384605 4.741538461538461  19.037211538461534 4.741538461538461  L 17.14999999999999 4.741538461538461  L 17.14999999999999 6.517307692307693  C 17.14999999999999 7.017884615384617  16.72798076923076 7.423461538461537  16.199999999999996 7.423461538461537  C 15.949454985361854 7.423086479522212  15.708438388566698 7.327398318463974  15.52586538461538 7.15581730769231  C 15.349318486391239 6.990083142846771  15.249425688867415 6.758543545937243  15.249999999999996 6.5163942307692295  L 15.249999999999996 4.742451923076924  L 13.362788461538457 4.742451923076924  C 13.108846153846152 4.744278846153847  12.864951923076923 4.651105769230771  12.684086538461537 4.483028846153847  C 12.505477367377205 4.319942601460141  12.402592713864486 4.090023520459049  12.399999999999999 3.848173076923078  C 12.399999999999999 3.354903846153846  12.830240384615383 2.95298076923077  13.362788461538457 2.95298076923077  L 15.249999999999996 2.95298076923077  L 15.249999999999996 1.1753846153846155  C 15.249999999999996 0.6748076923076916  15.672019230769228 0.26923076923077005  16.199999999999996 0.26923076923077005  C 16.72432692307692 0.26923076923077005  17.14999999999999 0.6748076923076916  17.14999999999999 1.1753846153846155  Z " stroke-width="0" stroke-dasharray="0" stroke="rgba(255, 255, 255, 0)" fill="none" transform="matrix(1 0 0 1 797 363 )" class="stroke" mask="url(#Clip89)" />
    <path d="M 2.2669711538461534 53.93326923076923  C 2.2669711538461534 53.275576923076926  2.8406249999999993 52.741201923076915  3.529374999999999 52.741201923076915  L 11.13668269230769 52.741201923076915  C 11.833653846153842 52.741201923076915  12.399999999999995 53.271009615384614  12.399999999999995 53.93326923076923  C 12.399999999999995 54.59187499999999  11.826346153846151 55.12625  11.13668269230769 55.12625  L 3.53028846153846 55.12625  C 3.195048076923076 55.12625  2.8725961538461524 55.00110576923076  2.6350961538461535 54.7773076923077  C 2.40089937267236 54.55908807494413  2.267894489956004 54.253375359446835  2.267884615384615 53.93326923076924  Z " stroke-width="0" stroke-dasharray="0" stroke="rgba(255, 255, 255, 0)" fill="none" transform="matrix(1 0 0 1 797 363 )" class="stroke" mask="url(#Clip89)" />
    <path d="M 33.2543269230769 46.22456730769231  C 35.72798076923075 48.55389423076923  39.73899038461536 48.55389423076923  42.212644230769214 46.22456730769231  C 43.81211538461537 44.718269230769224  44.436923076923065 42.52230769230769  43.85139423076921 40.464278846153846  C 43.26677884615383 38.40716346153846  41.55860576923075 36.799471153846156  39.37269230769229 36.24774038461538  C 37.18677884615383 35.69600961538461  34.85471153846153 36.28427884615384  33.2543269230769 37.791490384615386  C 30.780673076923065 40.120817307692306  30.780673076923065 43.89615384615385  33.2543269230769 46.22456730769231  Z " stroke-width="0" stroke-dasharray="0" stroke="rgba(255, 255, 255, 0)" fill="none" transform="matrix(1 0 0 1 797 363 )" class="stroke" mask="url(#Clip89)" />
    <path d="M 29.23692307692307 19.002499999999998  C 29.0015737193202 18.784477272936385  28.867545775073296 18.47836406694038  28.86697115384614 18.157548076923078  C 28.86697115384614 17.49985576923077  29.4333173076923 16.965480769230766  30.132115384615375 17  L 44.06697115384614 17  C 44.76668269230768 16.964567307692306  45.33302884615383 17.498942307692303  45.33302884615383 18.157548076923078  C 45.33302884615383 18.81524038461538  44.76668269230768 19.349615384615383  44.06697115384614 20  L 30.13302884615383 20  C 29.801037455637882 19.35216463953158  29.480566815076557 19.228027184472147  29.23692307692307 19.002499999999998  Z " stroke-width="0" stroke-dasharray="0" stroke="rgba(255, 255, 255, 0)" fill="none" transform="matrix(1 0 0 1 797 363 )" class="stroke" mask="url(#Clip89)" />
    <path d="M 29.232355769230765 24.962836538461545  C 28.998789849599362 24.744710105152066  28.86643112104847 24.43929233902088  28.86697115384614 24.119711538461537  C 28.86697115384614 23.46201923076923  29.430576923076913 22.927644230769232  30.124807692307677 23  L 50.4091346153846 23  C 51.10336538461537 22.927644230769232  51.66697115384615 23.457451923076917  51.66697115384615 24.119711538461537  C 51.66697115384615 24.778317307692305  51.10336538461539 25.31269230769231  50.4091346153846 26  L 30.124807692307684 26  C 29.789567307692298 25.31269230769231  29.46802884615384 25.18663461538462  29.232355769230765 24.962836538461545  Z " stroke-width="0" stroke-dasharray="0" stroke="rgba(255, 255, 255, 0)" fill="none" transform="matrix(1 0 0 1 797 363 )" class="stroke" mask="url(#Clip89)" />
    <path d="M 28.86697115384614 30.082788461538456  C 28.86697115384614 29.425096153846155  29.431490384615373 28.88980769230769  30.131201923076915 28.88980769230769  L 39.002740384615365 28.88980769230769  C 39.70062499999998 28.88980769230769  40.266971153846136 29.419615384615383  40.266971153846136 30.082788461538456  C 40.266971153846136 30.74048076923077  39.70153846153845 31.27485576923077  39.002740384615365 31.27485576923077  L 30.130288461538452 31.27485576923077  C 29.794134615384607 31.275769230769228  29.47168269230768 31.150624999999994  29.235096153846147 30.92682692307693  C 29.00022465972012 30.708926156623534  28.8665396135463 30.403171249037854  28.866057692307688 30.082788461538467  Z " stroke-width="0" stroke-dasharray="0" stroke="rgba(255, 255, 255, 0)" fill="none" transform="matrix(1 0 0 1 797 363 )" class="stroke" mask="url(#Clip89)" />
    <path d="M 8.599999999999998 19.34961538461539  C 8.599999999999998 21.325432692307693  6.899134615384614 22.927644230769232  4.799999999999998 22.927644230769232  C 3.442596153846153 22.927644230769232  2.187499999999999 22.245288461538465  1.5087980769230764 21.13908653846154  C 0.8298218118870093 20.043043512101704  0.8298218118870104 18.657100718667536  1.5087980769230764 17.561057692307692  C 2.187499999999999 16.45394230769231  3.4425961538461527 15.7725  4.799999999999998 15.7725  C 6.899134615384614 15.7725  8.599999999999998 17.37379807692308  8.599999999999998 19.34961538461539  Z " stroke-width="0" stroke-dasharray="0" stroke="rgba(255, 255, 255, 0)" fill="none" transform="matrix(1 0 0 1 797 363 )" class="stroke" mask="url(#Clip89)" />
    <path d="M 2.899999999999999 19.34961538461539  C 2.899999999999999 20.337980769230768  3.7504326923076916 21.13817307692308  4.799999999999998 21.13908653846154  C 5.478701923076922 21.13908653846154  6.1062499999999975 20.79745192307692  6.44605769230769 20.24389423076923  C 6.785249960491351 19.695953098636572  6.785249960491351 19.0032776705942  6.44605769230769 18.455336538461538  C 6.1062499999999975 17.901778846153846  5.478701923076921 17.560144230769232  4.799999999999998 17.5610576923077  C 3.7504326923076916 17.5610576923077  2.899999999999999 18.362163461538465  2.899999999999999 19.34961538461539  Z " stroke-width="0" stroke-dasharray="0" stroke="rgba(255, 255, 255, 0)" fill="none" transform="matrix(1 0 0 1 797 363 )" class="stroke" mask="url(#Clip89)" />
    <path d="M 87.1330288461538 12.194471153846155  C 87.1330288461538 14.170288461538462  85.43216346153844 15.7725  83.33302884615381 15.7725  C 81.23480769230765 15.7725  79.53302884615381 14.170288461538462  79.53302884615381 12.194471153846155  C 79.53302884615381 10.218653846153849  81.23480769230765 8.61735576923077  83.33302884615381 8.61735576923077  C 85.43216346153844 8.61735576923077  87.1330288461538 10.218653846153849  87.1330288461538 12.194471153846155  Z " stroke-width="0" stroke-dasharray="0" stroke="rgba(255, 255, 255, 0)" fill="none" transform="matrix(1 0 0 1 797 363 )" class="stroke" mask="url(#Clip89)" />
    <path d="M 81.43302884615383 12.195384615384619  C 81.43302884615383 13.181923076923077  82.28437499999997 13.98302884615385  83.33302884615381 13.98302884615385  C 84.01264423076921 13.98302884615385  84.63927884615381 13.642307692307696  84.97908653846152 13.088750000000005  C 85.31827880664517 12.54080886786734  85.31827880664517 11.84813343982497  84.97908653846152 11.30019230769231  C 84.63927884615381 10.746634615384618  84.01264423076921 10.405000000000001  83.33302884615381 10.405000000000001  C 82.28437499999997 10.40591346153846  81.43302884615383 11.207019230769234  81.43302884615383 12.195384615384619  Z " stroke-width="0" stroke-dasharray="0" stroke="rgba(255, 255, 255, 0)" fill="none" transform="matrix(1 0 0 1 797 363 )" class="stroke" mask="url(#Clip89)" />
  </g>
</svg>