<?xml version="1.0" encoding="utf-8"?>
<svg version="1.1" xmlns:xlink="http://www.w3.org/1999/xlink" width="21px" height="18px" xmlns="http://www.w3.org/2000/svg">
  <defs>
    <pattern id="BGPattern" patternUnits="userSpaceOnUse" alignment="0 0" imageRepeat="None" />
    <mask fill="white" id="Clip106">
      <path d="M 1.6153846153846154 13.82142857142857  L 1.6153846153846154 16.714285714285715  L 5.25 16.714285714285715  L 5.25 13.82142857142857  L 1.6153846153846154 13.82142857142857  Z M 6.0576923076923075 13.82142857142857  L 6.0576923076923075 16.714285714285715  L 10.096153846153847 16.714285714285715  L 10.096153846153847 13.82142857142857  L 6.0576923076923075 13.82142857142857  Z M 1.6153846153846154 9.964285714285715  L 1.6153846153846154 13.17857142857143  L 5.25 13.17857142857143  L 5.25 9.964285714285715  L 1.6153846153846154 9.964285714285715  Z M 6.0576923076923075 9.964285714285715  L 6.0576923076923075 13.17857142857143  L 10.096153846153847 13.17857142857143  L 10.096153846153847 9.964285714285715  L 6.0576923076923075 9.964285714285715  Z M 1.6153846153846154 6.428571428571428  L 1.6153846153846154 9.32142857142857  L 5.25 9.32142857142857  L 5.25 6.428571428571428  L 1.6153846153846154 6.428571428571428  Z M 10.903846153846155 13.82142857142857  L 10.903846153846155 16.714285714285715  L 14.942307692307693 16.714285714285715  L 14.942307692307693 13.82142857142857  L 10.903846153846155 13.82142857142857  Z M 6.0576923076923075 6.428571428571428  L 6.0576923076923075 9.32142857142857  L 10.096153846153847 9.32142857142857  L 10.096153846153847 6.428571428571428  L 6.0576923076923075 6.428571428571428  Z M 15.75 13.82142857142857  L 15.75 16.714285714285715  L 19.384615384615387 16.714285714285715  L 19.384615384615387 13.82142857142857  L 15.75 13.82142857142857  Z M 10.903846153846155 9.964285714285715  L 10.903846153846155 13.17857142857143  L 14.942307692307693 13.17857142857143  L 14.942307692307693 9.964285714285715  L 10.903846153846155 9.964285714285715  Z M 6.341646634615384 4.726004464285715  C 6.421574519230769 4.662388392857142  6.461538461538462 4.587053571428569  6.461538461538462 4.5  L 6.461538461538462 1.6071428571428574  C 6.461538461538462 1.5200892857142858  6.421574519230769 1.4447544642857135  6.341646634615384 1.3811383928571426  C 6.261718750000001 1.3175223214285696  6.167067307692308 1.2857142857142851  6.0576923076923075 1.2857142857142851  L 5.25 1.2857142857142851  C 5.140625 1.2857142857142851  5.045973557692308 1.3175223214285696  4.966045673076923 1.3811383928571426  C 4.886117788461537 1.4447544642857135  4.846153846153847 1.5200892857142858  4.846153846153847 1.6071428571428574  L 4.846153846153847 4.5  C 4.846153846153847 4.587053571428569  4.886117788461537 4.662388392857142  4.966045673076923 4.726004464285715  C 5.045973557692308 4.789620535714286  5.140625 4.821428571428572  5.25 4.821428571428572  L 6.0576923076923075 4.821428571428572  C 6.167067307692308 4.821428571428572  6.261718750000001 4.789620535714286  6.341646634615384 4.726004464285715  Z M 15.75 9.964285714285715  L 15.75 13.17857142857143  L 19.384615384615387 13.17857142857143  L 19.384615384615387 9.964285714285715  L 15.75 9.964285714285715  Z M 10.903846153846155 6.428571428571428  L 10.903846153846155 9.32142857142857  L 14.942307692307693 9.32142857142857  L 14.942307692307693 6.428571428571428  L 10.903846153846155 6.428571428571428  Z M 15.75 6.428571428571428  L 15.75 9.32142857142857  L 19.384615384615387 9.32142857142857  L 19.384615384615387 6.428571428571428  L 15.75 6.428571428571428  Z M 16.033954326923077 4.726004464285715  C 16.113882211538463 4.662388392857142  16.153846153846153 4.587053571428569  16.153846153846153 4.5  L 16.153846153846153 1.6071428571428574  C 16.153846153846153 1.5200892857142858  16.113882211538463 1.4447544642857135  16.033954326923077 1.3811383928571426  C 15.954026442307693 1.3175223214285696  15.859375 1.2857142857142851  15.75 1.2857142857142851  L 14.942307692307693 1.2857142857142851  C 14.832932692307695 1.2857142857142851  14.738281250000002 1.3175223214285696  14.658353365384615 1.3811383928571426  C 14.578425480769232 1.4447544642857135  14.538461538461538 1.5200892857142858  14.538461538461538 1.6071428571428574  L 14.538461538461538 4.5  C 14.538461538461538 4.587053571428569  14.578425480769232 4.662388392857142  14.658353365384615 4.726004464285715  C 14.738281250000002 4.789620535714286  14.832932692307695 4.821428571428572  14.942307692307693 4.821428571428572  L 15.75 4.821428571428572  C 15.859375 4.821428571428572  15.954026442307693 4.789620535714286  16.033954326923077 4.726004464285715  Z M 20.520432692307693 2.953125  C 20.840144230769234 3.2075892857142856  21 3.508928571428571  21 3.8571428571428577  L 21 16.714285714285715  C 21 17.0625  20.840144230769234 17.363839285714285  20.520432692307693 17.618303571428573  C 20.200721153846157 17.872767857142858  19.822115384615387 18  19.384615384615387 18  L 1.6153846153846154 18  C 1.1778846153846156 18  0.7992788461538463 17.872767857142858  0.47956730769230765 17.618303571428573  C 0.15985576923076922 17.363839285714285  0 17.0625  0 16.714285714285715  L 0 3.8571428571428577  C 0 3.508928571428571  0.15985576923076922 3.2075892857142856  0.47956730769230765 2.953125  C 0.7992788461538463 2.698660714285712  1.1778846153846156 2.571428571428572  1.6153846153846154 2.571428571428572  L 3.230769230769231 2.571428571428572  L 3.230769230769231 1.6071428571428574  C 3.230769230769231 1.1651785714285723  3.428485576923077 0.7868303571428561  3.823918269230769 0.47209821428571486  C 4.219350961538463 0.15736607142857162  4.694711538461538 0  5.25 0  L 6.0576923076923075 0  C 6.612980769230769 0  7.088341346153848 0.15736607142857162  7.483774038461538 0.47209821428571486  C 7.879206730769232 0.7868303571428561  8.076923076923077 1.1651785714285723  8.076923076923077 1.6071428571428574  L 8.076923076923077 2.571428571428572  L 12.923076923076923 2.571428571428572  L 12.923076923076923 1.6071428571428574  C 12.923076923076923 1.1651785714285723  13.12079326923077 0.7868303571428561  13.516225961538462 0.47209821428571486  C 13.911658653846157 0.15736607142857162  14.387019230769232 0  14.942307692307693 0  L 15.75 0  C 16.305288461538463 0  16.78064903846154 0.15736607142857162  17.17608173076923 0.47209821428571486  C 17.571514423076927 0.7868303571428561  17.76923076923077 1.1651785714285723  17.76923076923077 1.6071428571428574  L 17.76923076923077 2.571428571428572  L 19.384615384615387 2.571428571428572  C 19.822115384615387 2.571428571428572  20.200721153846157 2.698660714285712  20.520432692307693 2.953125  Z " fill-rule="evenodd" />
    </mask>
  </defs>
  <g transform="matrix(1 0 0 1 -410 -224 )">
    <path d="M 1.6153846153846154 13.82142857142857  L 1.6153846153846154 16.714285714285715  L 5.25 16.714285714285715  L 5.25 13.82142857142857  L 1.6153846153846154 13.82142857142857  Z M 6.0576923076923075 13.82142857142857  L 6.0576923076923075 16.714285714285715  L 10.096153846153847 16.714285714285715  L 10.096153846153847 13.82142857142857  L 6.0576923076923075 13.82142857142857  Z M 1.6153846153846154 9.964285714285715  L 1.6153846153846154 13.17857142857143  L 5.25 13.17857142857143  L 5.25 9.964285714285715  L 1.6153846153846154 9.964285714285715  Z M 6.0576923076923075 9.964285714285715  L 6.0576923076923075 13.17857142857143  L 10.096153846153847 13.17857142857143  L 10.096153846153847 9.964285714285715  L 6.0576923076923075 9.964285714285715  Z M 1.6153846153846154 6.428571428571428  L 1.6153846153846154 9.32142857142857  L 5.25 9.32142857142857  L 5.25 6.428571428571428  L 1.6153846153846154 6.428571428571428  Z M 10.903846153846155 13.82142857142857  L 10.903846153846155 16.714285714285715  L 14.942307692307693 16.714285714285715  L 14.942307692307693 13.82142857142857  L 10.903846153846155 13.82142857142857  Z M 6.0576923076923075 6.428571428571428  L 6.0576923076923075 9.32142857142857  L 10.096153846153847 9.32142857142857  L 10.096153846153847 6.428571428571428  L 6.0576923076923075 6.428571428571428  Z M 15.75 13.82142857142857  L 15.75 16.714285714285715  L 19.384615384615387 16.714285714285715  L 19.384615384615387 13.82142857142857  L 15.75 13.82142857142857  Z M 10.903846153846155 9.964285714285715  L 10.903846153846155 13.17857142857143  L 14.942307692307693 13.17857142857143  L 14.942307692307693 9.964285714285715  L 10.903846153846155 9.964285714285715  Z M 6.341646634615384 4.726004464285715  C 6.421574519230769 4.662388392857142  6.461538461538462 4.587053571428569  6.461538461538462 4.5  L 6.461538461538462 1.6071428571428574  C 6.461538461538462 1.5200892857142858  6.421574519230769 1.4447544642857135  6.341646634615384 1.3811383928571426  C 6.261718750000001 1.3175223214285696  6.167067307692308 1.2857142857142851  6.0576923076923075 1.2857142857142851  L 5.25 1.2857142857142851  C 5.140625 1.2857142857142851  5.045973557692308 1.3175223214285696  4.966045673076923 1.3811383928571426  C 4.886117788461537 1.4447544642857135  4.846153846153847 1.5200892857142858  4.846153846153847 1.6071428571428574  L 4.846153846153847 4.5  C 4.846153846153847 4.587053571428569  4.886117788461537 4.662388392857142  4.966045673076923 4.726004464285715  C 5.045973557692308 4.789620535714286  5.140625 4.821428571428572  5.25 4.821428571428572  L 6.0576923076923075 4.821428571428572  C 6.167067307692308 4.821428571428572  6.261718750000001 4.789620535714286  6.341646634615384 4.726004464285715  Z M 15.75 9.964285714285715  L 15.75 13.17857142857143  L 19.384615384615387 13.17857142857143  L 19.384615384615387 9.964285714285715  L 15.75 9.964285714285715  Z M 10.903846153846155 6.428571428571428  L 10.903846153846155 9.32142857142857  L 14.942307692307693 9.32142857142857  L 14.942307692307693 6.428571428571428  L 10.903846153846155 6.428571428571428  Z M 15.75 6.428571428571428  L 15.75 9.32142857142857  L 19.384615384615387 9.32142857142857  L 19.384615384615387 6.428571428571428  L 15.75 6.428571428571428  Z M 16.033954326923077 4.726004464285715  C 16.113882211538463 4.662388392857142  16.153846153846153 4.587053571428569  16.153846153846153 4.5  L 16.153846153846153 1.6071428571428574  C 16.153846153846153 1.5200892857142858  16.113882211538463 1.4447544642857135  16.033954326923077 1.3811383928571426  C 15.954026442307693 1.3175223214285696  15.859375 1.2857142857142851  15.75 1.2857142857142851  L 14.942307692307693 1.2857142857142851  C 14.832932692307695 1.2857142857142851  14.738281250000002 1.3175223214285696  14.658353365384615 1.3811383928571426  C 14.578425480769232 1.4447544642857135  14.538461538461538 1.5200892857142858  14.538461538461538 1.6071428571428574  L 14.538461538461538 4.5  C 14.538461538461538 4.587053571428569  14.578425480769232 4.662388392857142  14.658353365384615 4.726004464285715  C 14.738281250000002 4.789620535714286  14.832932692307695 4.821428571428572  14.942307692307693 4.821428571428572  L 15.75 4.821428571428572  C 15.859375 4.821428571428572  15.954026442307693 4.789620535714286  16.033954326923077 4.726004464285715  Z M 20.520432692307693 2.953125  C 20.840144230769234 3.2075892857142856  21 3.508928571428571  21 3.8571428571428577  L 21 16.714285714285715  C 21 17.0625  20.840144230769234 17.363839285714285  20.520432692307693 17.618303571428573  C 20.200721153846157 17.872767857142858  19.822115384615387 18  19.384615384615387 18  L 1.6153846153846154 18  C 1.1778846153846156 18  0.7992788461538463 17.872767857142858  0.47956730769230765 17.618303571428573  C 0.15985576923076922 17.363839285714285  0 17.0625  0 16.714285714285715  L 0 3.8571428571428577  C 0 3.508928571428571  0.15985576923076922 3.2075892857142856  0.47956730769230765 2.953125  C 0.7992788461538463 2.698660714285712  1.1778846153846156 2.571428571428572  1.6153846153846154 2.571428571428572  L 3.230769230769231 2.571428571428572  L 3.230769230769231 1.6071428571428574  C 3.230769230769231 1.1651785714285723  3.428485576923077 0.7868303571428561  3.823918269230769 0.47209821428571486  C 4.219350961538463 0.15736607142857162  4.694711538461538 0  5.25 0  L 6.0576923076923075 0  C 6.612980769230769 0  7.088341346153848 0.15736607142857162  7.483774038461538 0.47209821428571486  C 7.879206730769232 0.7868303571428561  8.076923076923077 1.1651785714285723  8.076923076923077 1.6071428571428574  L 8.076923076923077 2.571428571428572  L 12.923076923076923 2.571428571428572  L 12.923076923076923 1.6071428571428574  C 12.923076923076923 1.1651785714285723  13.12079326923077 0.7868303571428561  13.516225961538462 0.47209821428571486  C 13.911658653846157 0.15736607142857162  14.387019230769232 0  14.942307692307693 0  L 15.75 0  C 16.305288461538463 0  16.78064903846154 0.15736607142857162  17.17608173076923 0.47209821428571486  C 17.571514423076927 0.7868303571428561  17.76923076923077 1.1651785714285723  17.76923076923077 1.6071428571428574  L 17.76923076923077 2.571428571428572  L 19.384615384615387 2.571428571428572  C 19.822115384615387 2.571428571428572  20.200721153846157 2.698660714285712  20.520432692307693 2.953125  Z " fill-rule="nonzero" fill="rgba(127, 127, 127, 1)" stroke="none" transform="matrix(1 0 0 1 410 224 )" class="fill" />
    <path d="M 1.6153846153846154 13.82142857142857  L 1.6153846153846154 16.714285714285715  L 5.25 16.714285714285715  L 5.25 13.82142857142857  L 1.6153846153846154 13.82142857142857  Z " stroke-width="0" stroke-dasharray="0" stroke="rgba(215, 215, 215, 1)" fill="none" transform="matrix(1 0 0 1 410 224 )" class="stroke" mask="url(#Clip106)" />
    <path d="M 6.0576923076923075 13.82142857142857  L 6.0576923076923075 16.714285714285715  L 10.096153846153847 16.714285714285715  L 10.096153846153847 13.82142857142857  L 6.0576923076923075 13.82142857142857  Z " stroke-width="0" stroke-dasharray="0" stroke="rgba(215, 215, 215, 1)" fill="none" transform="matrix(1 0 0 1 410 224 )" class="stroke" mask="url(#Clip106)" />
    <path d="M 1.6153846153846154 9.964285714285715  L 1.6153846153846154 13.17857142857143  L 5.25 13.17857142857143  L 5.25 9.964285714285715  L 1.6153846153846154 9.964285714285715  Z " stroke-width="0" stroke-dasharray="0" stroke="rgba(215, 215, 215, 1)" fill="none" transform="matrix(1 0 0 1 410 224 )" class="stroke" mask="url(#Clip106)" />
    <path d="M 6.0576923076923075 9.964285714285715  L 6.0576923076923075 13.17857142857143  L 10.096153846153847 13.17857142857143  L 10.096153846153847 9.964285714285715  L 6.0576923076923075 9.964285714285715  Z " stroke-width="0" stroke-dasharray="0" stroke="rgba(215, 215, 215, 1)" fill="none" transform="matrix(1 0 0 1 410 224 )" class="stroke" mask="url(#Clip106)" />
    <path d="M 1.6153846153846154 6.428571428571428  L 1.6153846153846154 9.32142857142857  L 5.25 9.32142857142857  L 5.25 6.428571428571428  L 1.6153846153846154 6.428571428571428  Z " stroke-width="0" stroke-dasharray="0" stroke="rgba(215, 215, 215, 1)" fill="none" transform="matrix(1 0 0 1 410 224 )" class="stroke" mask="url(#Clip106)" />
    <path d="M 10.903846153846155 13.82142857142857  L 10.903846153846155 16.714285714285715  L 14.942307692307693 16.714285714285715  L 14.942307692307693 13.82142857142857  L 10.903846153846155 13.82142857142857  Z " stroke-width="0" stroke-dasharray="0" stroke="rgba(215, 215, 215, 1)" fill="none" transform="matrix(1 0 0 1 410 224 )" class="stroke" mask="url(#Clip106)" />
    <path d="M 6.0576923076923075 6.428571428571428  L 6.0576923076923075 9.32142857142857  L 10.096153846153847 9.32142857142857  L 10.096153846153847 6.428571428571428  L 6.0576923076923075 6.428571428571428  Z " stroke-width="0" stroke-dasharray="0" stroke="rgba(215, 215, 215, 1)" fill="none" transform="matrix(1 0 0 1 410 224 )" class="stroke" mask="url(#Clip106)" />
    <path d="M 15.75 13.82142857142857  L 15.75 16.714285714285715  L 19.384615384615387 16.714285714285715  L 19.384615384615387 13.82142857142857  L 15.75 13.82142857142857  Z " stroke-width="0" stroke-dasharray="0" stroke="rgba(215, 215, 215, 1)" fill="none" transform="matrix(1 0 0 1 410 224 )" class="stroke" mask="url(#Clip106)" />
    <path d="M 10.903846153846155 9.964285714285715  L 10.903846153846155 13.17857142857143  L 14.942307692307693 13.17857142857143  L 14.942307692307693 9.964285714285715  L 10.903846153846155 9.964285714285715  Z " stroke-width="0" stroke-dasharray="0" stroke="rgba(215, 215, 215, 1)" fill="none" transform="matrix(1 0 0 1 410 224 )" class="stroke" mask="url(#Clip106)" />
    <path d="M 6.341646634615384 4.726004464285715  C 6.421574519230769 4.662388392857142  6.461538461538462 4.587053571428569  6.461538461538462 4.5  L 6.461538461538462 1.6071428571428574  C 6.461538461538462 1.5200892857142858  6.421574519230769 1.4447544642857135  6.341646634615384 1.3811383928571426  C 6.261718750000001 1.3175223214285696  6.167067307692308 1.2857142857142851  6.0576923076923075 1.2857142857142851  L 5.25 1.2857142857142851  C 5.140625 1.2857142857142851  5.045973557692308 1.3175223214285696  4.966045673076923 1.3811383928571426  C 4.886117788461537 1.4447544642857135  4.846153846153847 1.5200892857142858  4.846153846153847 1.6071428571428574  L 4.846153846153847 4.5  C 4.846153846153847 4.587053571428569  4.886117788461537 4.662388392857142  4.966045673076923 4.726004464285715  C 5.045973557692308 4.789620535714286  5.140625 4.821428571428572  5.25 4.821428571428572  L 6.0576923076923075 4.821428571428572  C 6.167067307692308 4.821428571428572  6.261718750000001 4.789620535714286  6.341646634615384 4.726004464285715  Z " stroke-width="0" stroke-dasharray="0" stroke="rgba(215, 215, 215, 1)" fill="none" transform="matrix(1 0 0 1 410 224 )" class="stroke" mask="url(#Clip106)" />
    <path d="M 15.75 9.964285714285715  L 15.75 13.17857142857143  L 19.384615384615387 13.17857142857143  L 19.384615384615387 9.964285714285715  L 15.75 9.964285714285715  Z " stroke-width="0" stroke-dasharray="0" stroke="rgba(215, 215, 215, 1)" fill="none" transform="matrix(1 0 0 1 410 224 )" class="stroke" mask="url(#Clip106)" />
    <path d="M 10.903846153846155 6.428571428571428  L 10.903846153846155 9.32142857142857  L 14.942307692307693 9.32142857142857  L 14.942307692307693 6.428571428571428  L 10.903846153846155 6.428571428571428  Z " stroke-width="0" stroke-dasharray="0" stroke="rgba(215, 215, 215, 1)" fill="none" transform="matrix(1 0 0 1 410 224 )" class="stroke" mask="url(#Clip106)" />
    <path d="M 15.75 6.428571428571428  L 15.75 9.32142857142857  L 19.384615384615387 9.32142857142857  L 19.384615384615387 6.428571428571428  L 15.75 6.428571428571428  Z " stroke-width="0" stroke-dasharray="0" stroke="rgba(215, 215, 215, 1)" fill="none" transform="matrix(1 0 0 1 410 224 )" class="stroke" mask="url(#Clip106)" />
    <path d="M 16.033954326923077 4.726004464285715  C 16.113882211538463 4.662388392857142  16.153846153846153 4.587053571428569  16.153846153846153 4.5  L 16.153846153846153 1.6071428571428574  C 16.153846153846153 1.5200892857142858  16.113882211538463 1.4447544642857135  16.033954326923077 1.3811383928571426  C 15.954026442307693 1.3175223214285696  15.859375 1.2857142857142851  15.75 1.2857142857142851  L 14.942307692307693 1.2857142857142851  C 14.832932692307695 1.2857142857142851  14.738281250000002 1.3175223214285696  14.658353365384615 1.3811383928571426  C 14.578425480769232 1.4447544642857135  14.538461538461538 1.5200892857142858  14.538461538461538 1.6071428571428574  L 14.538461538461538 4.5  C 14.538461538461538 4.587053571428569  14.578425480769232 4.662388392857142  14.658353365384615 4.726004464285715  C 14.738281250000002 4.789620535714286  14.832932692307695 4.821428571428572  14.942307692307693 4.821428571428572  L 15.75 4.821428571428572  C 15.859375 4.821428571428572  15.954026442307693 4.789620535714286  16.033954326923077 4.726004464285715  Z " stroke-width="0" stroke-dasharray="0" stroke="rgba(215, 215, 215, 1)" fill="none" transform="matrix(1 0 0 1 410 224 )" class="stroke" mask="url(#Clip106)" />
    <path d="M 20.520432692307693 2.953125  C 20.840144230769234 3.2075892857142856  21 3.508928571428571  21 3.8571428571428577  L 21 16.714285714285715  C 21 17.0625  20.840144230769234 17.363839285714285  20.520432692307693 17.618303571428573  C 20.200721153846157 17.872767857142858  19.822115384615387 18  19.384615384615387 18  L 1.6153846153846154 18  C 1.1778846153846156 18  0.7992788461538463 17.872767857142858  0.47956730769230765 17.618303571428573  C 0.15985576923076922 17.363839285714285  0 17.0625  0 16.714285714285715  L 0 3.8571428571428577  C 0 3.508928571428571  0.15985576923076922 3.2075892857142856  0.47956730769230765 2.953125  C 0.7992788461538463 2.698660714285712  1.1778846153846156 2.571428571428572  1.6153846153846154 2.571428571428572  L 3.230769230769231 2.571428571428572  L 3.230769230769231 1.6071428571428574  C 3.230769230769231 1.1651785714285723  3.428485576923077 0.7868303571428561  3.823918269230769 0.47209821428571486  C 4.219350961538463 0.15736607142857162  4.694711538461538 0  5.25 0  L 6.0576923076923075 0  C 6.612980769230769 0  7.088341346153848 0.15736607142857162  7.483774038461538 0.47209821428571486  C 7.879206730769232 0.7868303571428561  8.076923076923077 1.1651785714285723  8.076923076923077 1.6071428571428574  L 8.076923076923077 2.571428571428572  L 12.923076923076923 2.571428571428572  L 12.923076923076923 1.6071428571428574  C 12.923076923076923 1.1651785714285723  13.12079326923077 0.7868303571428561  13.516225961538462 0.47209821428571486  C 13.911658653846157 0.15736607142857162  14.387019230769232 0  14.942307692307693 0  L 15.75 0  C 16.305288461538463 0  16.78064903846154 0.15736607142857162  17.17608173076923 0.47209821428571486  C 17.571514423076927 0.7868303571428561  17.76923076923077 1.1651785714285723  17.76923076923077 1.6071428571428574  L 17.76923076923077 2.571428571428572  L 19.384615384615387 2.571428571428572  C 19.822115384615387 2.571428571428572  20.200721153846157 2.698660714285712  20.520432692307693 2.953125  Z " stroke-width="0" stroke-dasharray="0" stroke="rgba(215, 215, 215, 1)" fill="none" transform="matrix(1 0 0 1 410 224 )" class="stroke" mask="url(#Clip106)" />
  </g>
</svg>