<?xml version="1.0" encoding="utf-8"?>
<svg version="1.1" xmlns:xlink="http://www.w3.org/1999/xlink" width="20px" height="20px" xmlns="http://www.w3.org/2000/svg">
  <defs>
    <pattern id="BGPattern" patternUnits="userSpaceOnUse" alignment="0 0" imageRepeat="None" />
    <mask fill="white" id="Clip54">
      <path d="M 1.5384615384615385 15.357142857142856  L 1.5384615384615385 18.571428571428573  L 5 18.571428571428573  L 5 15.357142857142856  L 1.5384615384615385 15.357142857142856  Z M 5.769230769230768 15.357142857142856  L 5.769230769230768 18.571428571428573  L 9.615384615384615 18.571428571428573  L 9.615384615384615 15.357142857142856  L 5.769230769230768 15.357142857142856  Z M 1.5384615384615385 11.071428571428573  L 1.5384615384615385 14.642857142857144  L 5 14.642857142857144  L 5 11.071428571428573  L 1.5384615384615385 11.071428571428573  Z M 5.769230769230768 11.071428571428573  L 5.769230769230768 14.642857142857144  L 9.615384615384615 14.642857142857144  L 9.615384615384615 11.071428571428573  L 5.769230769230768 11.071428571428573  Z M 1.5384615384615385 7.142857142857142  L 1.5384615384615385 10.357142857142856  L 5 10.357142857142856  L 5 7.142857142857142  L 1.5384615384615385 7.142857142857142  Z M 10.384615384615385 15.357142857142856  L 10.384615384615385 18.571428571428573  L 14.230769230769232 18.571428571428573  L 14.230769230769232 15.357142857142856  L 10.384615384615385 15.357142857142856  Z M 5.769230769230768 7.142857142857142  L 5.769230769230768 10.357142857142856  L 9.615384615384615 10.357142857142856  L 9.615384615384615 7.142857142857142  L 5.769230769230768 7.142857142857142  Z M 15 15.357142857142856  L 15 18.571428571428573  L 18.461538461538463 18.571428571428573  L 18.461538461538463 15.357142857142856  L 15 15.357142857142856  Z M 10.384615384615385 11.071428571428573  L 10.384615384615385 14.642857142857144  L 14.230769230769232 14.642857142857144  L 14.230769230769232 11.071428571428573  L 10.384615384615385 11.071428571428573  Z M 6.039663461538462 5.251116071428572  C 6.115785256410256 5.180431547619047  6.153846153846154 5.096726190476188  6.153846153846154 5  L 6.153846153846154 1.785714285714286  C 6.153846153846154 1.6889880952380953  6.115785256410256 1.6052827380952372  6.039663461538462 1.534598214285714  C 5.963541666666668 1.4639136904761885  5.873397435897436 1.428571428571428  5.769230769230768 1.428571428571428  L 5 1.428571428571428  C 4.895833333333334 1.428571428571428  4.805689102564103 1.4639136904761885  4.7295673076923075 1.534598214285714  C 4.653445512820512 1.6052827380952372  4.615384615384616 1.6889880952380953  4.615384615384616 1.785714285714286  L 4.615384615384616 5  C 4.615384615384616 5.096726190476188  4.653445512820512 5.180431547619047  4.7295673076923075 5.251116071428572  C 4.805689102564103 5.321800595238095  4.895833333333334 5.357142857142858  5 5.357142857142858  L 5.769230769230768 5.357142857142858  C 5.873397435897436 5.357142857142858  5.963541666666668 5.321800595238095  6.039663461538462 5.251116071428572  Z M 15 11.071428571428573  L 15 14.642857142857144  L 18.461538461538463 14.642857142857144  L 18.461538461538463 11.071428571428573  L 15 11.071428571428573  Z M 10.384615384615385 7.142857142857142  L 10.384615384615385 10.357142857142856  L 14.230769230769232 10.357142857142856  L 14.230769230769232 7.142857142857142  L 10.384615384615385 7.142857142857142  Z M 15 7.142857142857142  L 15 10.357142857142856  L 18.461538461538463 10.357142857142856  L 18.461538461538463 7.142857142857142  L 15 7.142857142857142  Z M 15.270432692307692 5.251116071428572  C 15.346554487179489 5.180431547619047  15.384615384615385 5.096726190476188  15.384615384615385 5  L 15.384615384615385 1.785714285714286  C 15.384615384615385 1.6889880952380953  15.346554487179489 1.6052827380952372  15.270432692307692 1.534598214285714  C 15.194310897435898 1.4639136904761885  15.104166666666668 1.428571428571428  15 1.428571428571428  L 14.230769230769232 1.428571428571428  C 14.126602564102566 1.428571428571428  14.036458333333336 1.4639136904761885  13.960336538461537 1.534598214285714  C 13.884214743589745 1.6052827380952372  13.846153846153847 1.6889880952380953  13.846153846153847 1.785714285714286  L 13.846153846153847 5  C 13.846153846153847 5.096726190476188  13.884214743589745 5.180431547619047  13.960336538461537 5.251116071428572  C 14.036458333333336 5.321800595238095  14.126602564102566 5.357142857142858  14.230769230769232 5.357142857142858  L 15 5.357142857142858  C 15.104166666666668 5.357142857142858  15.194310897435898 5.321800595238095  15.270432692307692 5.251116071428572  Z M 19.54326923076923 3.28125  C 19.847756410256412 3.5639880952380953  20 3.8988095238095233  20 4.2857142857142865  L 20 18.571428571428573  C 20 18.958333333333336  19.847756410256412 19.293154761904763  19.54326923076923 19.575892857142858  C 19.23878205128205 19.858630952380953  18.87820512820513 20  18.461538461538463 20  L 1.5384615384615385 20  C 1.121794871794872 20  0.7612179487179488 19.858630952380953  0.4567307692307692 19.575892857142858  C 0.15224358974358973 19.293154761904763  0 18.958333333333336  0 18.571428571428573  L 0 4.2857142857142865  C 0 3.8988095238095233  0.15224358974358973 3.5639880952380953  0.4567307692307692 3.28125  C 0.7612179487179488 2.9985119047619024  1.121794871794872 2.857142857142858  1.5384615384615385 2.857142857142858  L 3.076923076923077 2.857142857142858  L 3.076923076923077 1.785714285714286  C 3.076923076923077 1.294642857142858  3.265224358974359 0.8742559523809512  3.641826923076923 0.5245535714285721  C 4.018429487179488 0.1748511904761907  4.471153846153847 0  5 0  L 5.769230769230768 0  C 6.298076923076923 0  6.750801282051283 0.1748511904761907  7.127403846153846 0.5245535714285721  C 7.504006410256411 0.8742559523809512  7.6923076923076925 1.294642857142858  7.6923076923076925 1.785714285714286  L 7.6923076923076925 2.857142857142858  L 12.307692307692308 2.857142857142858  L 12.307692307692308 1.785714285714286  C 12.307692307692308 1.294642857142858  12.495993589743591 0.8742559523809512  12.872596153846153 0.5245535714285721  C 13.24919871794872 0.1748511904761907  13.701923076923077 0  14.230769230769232 0  L 15 0  C 15.528846153846153 0  15.981570512820513 0.1748511904761907  16.358173076923077 0.5245535714285721  C 16.734775641025642 0.8742559523809512  16.923076923076923 1.294642857142858  16.923076923076923 1.785714285714286  L 16.923076923076923 2.857142857142858  L 18.461538461538463 2.857142857142858  C 18.87820512820513 2.857142857142858  19.23878205128205 2.9985119047619024  19.54326923076923 3.28125  Z " fill-rule="evenodd" />
    </mask>
  </defs>
  <g transform="matrix(1 0 0 1 -342 -141 )">
    <path d="M 1.5384615384615385 15.357142857142856  L 1.5384615384615385 18.571428571428573  L 5 18.571428571428573  L 5 15.357142857142856  L 1.5384615384615385 15.357142857142856  Z M 5.769230769230768 15.357142857142856  L 5.769230769230768 18.571428571428573  L 9.615384615384615 18.571428571428573  L 9.615384615384615 15.357142857142856  L 5.769230769230768 15.357142857142856  Z M 1.5384615384615385 11.071428571428573  L 1.5384615384615385 14.642857142857144  L 5 14.642857142857144  L 5 11.071428571428573  L 1.5384615384615385 11.071428571428573  Z M 5.769230769230768 11.071428571428573  L 5.769230769230768 14.642857142857144  L 9.615384615384615 14.642857142857144  L 9.615384615384615 11.071428571428573  L 5.769230769230768 11.071428571428573  Z M 1.5384615384615385 7.142857142857142  L 1.5384615384615385 10.357142857142856  L 5 10.357142857142856  L 5 7.142857142857142  L 1.5384615384615385 7.142857142857142  Z M 10.384615384615385 15.357142857142856  L 10.384615384615385 18.571428571428573  L 14.230769230769232 18.571428571428573  L 14.230769230769232 15.357142857142856  L 10.384615384615385 15.357142857142856  Z M 5.769230769230768 7.142857142857142  L 5.769230769230768 10.357142857142856  L 9.615384615384615 10.357142857142856  L 9.615384615384615 7.142857142857142  L 5.769230769230768 7.142857142857142  Z M 15 15.357142857142856  L 15 18.571428571428573  L 18.461538461538463 18.571428571428573  L 18.461538461538463 15.357142857142856  L 15 15.357142857142856  Z M 10.384615384615385 11.071428571428573  L 10.384615384615385 14.642857142857144  L 14.230769230769232 14.642857142857144  L 14.230769230769232 11.071428571428573  L 10.384615384615385 11.071428571428573  Z M 6.039663461538462 5.251116071428572  C 6.115785256410256 5.180431547619047  6.153846153846154 5.096726190476188  6.153846153846154 5  L 6.153846153846154 1.785714285714286  C 6.153846153846154 1.6889880952380953  6.115785256410256 1.6052827380952372  6.039663461538462 1.534598214285714  C 5.963541666666668 1.4639136904761885  5.873397435897436 1.428571428571428  5.769230769230768 1.428571428571428  L 5 1.428571428571428  C 4.895833333333334 1.428571428571428  4.805689102564103 1.4639136904761885  4.7295673076923075 1.534598214285714  C 4.653445512820512 1.6052827380952372  4.615384615384616 1.6889880952380953  4.615384615384616 1.785714285714286  L 4.615384615384616 5  C 4.615384615384616 5.096726190476188  4.653445512820512 5.180431547619047  4.7295673076923075 5.251116071428572  C 4.805689102564103 5.321800595238095  4.895833333333334 5.357142857142858  5 5.357142857142858  L 5.769230769230768 5.357142857142858  C 5.873397435897436 5.357142857142858  5.963541666666668 5.321800595238095  6.039663461538462 5.251116071428572  Z M 15 11.071428571428573  L 15 14.642857142857144  L 18.461538461538463 14.642857142857144  L 18.461538461538463 11.071428571428573  L 15 11.071428571428573  Z M 10.384615384615385 7.142857142857142  L 10.384615384615385 10.357142857142856  L 14.230769230769232 10.357142857142856  L 14.230769230769232 7.142857142857142  L 10.384615384615385 7.142857142857142  Z M 15 7.142857142857142  L 15 10.357142857142856  L 18.461538461538463 10.357142857142856  L 18.461538461538463 7.142857142857142  L 15 7.142857142857142  Z M 15.270432692307692 5.251116071428572  C 15.346554487179489 5.180431547619047  15.384615384615385 5.096726190476188  15.384615384615385 5  L 15.384615384615385 1.785714285714286  C 15.384615384615385 1.6889880952380953  15.346554487179489 1.6052827380952372  15.270432692307692 1.534598214285714  C 15.194310897435898 1.4639136904761885  15.104166666666668 1.428571428571428  15 1.428571428571428  L 14.230769230769232 1.428571428571428  C 14.126602564102566 1.428571428571428  14.036458333333336 1.4639136904761885  13.960336538461537 1.534598214285714  C 13.884214743589745 1.6052827380952372  13.846153846153847 1.6889880952380953  13.846153846153847 1.785714285714286  L 13.846153846153847 5  C 13.846153846153847 5.096726190476188  13.884214743589745 5.180431547619047  13.960336538461537 5.251116071428572  C 14.036458333333336 5.321800595238095  14.126602564102566 5.357142857142858  14.230769230769232 5.357142857142858  L 15 5.357142857142858  C 15.104166666666668 5.357142857142858  15.194310897435898 5.321800595238095  15.270432692307692 5.251116071428572  Z M 19.54326923076923 3.28125  C 19.847756410256412 3.5639880952380953  20 3.8988095238095233  20 4.2857142857142865  L 20 18.571428571428573  C 20 18.958333333333336  19.847756410256412 19.293154761904763  19.54326923076923 19.575892857142858  C 19.23878205128205 19.858630952380953  18.87820512820513 20  18.461538461538463 20  L 1.5384615384615385 20  C 1.121794871794872 20  0.7612179487179488 19.858630952380953  0.4567307692307692 19.575892857142858  C 0.15224358974358973 19.293154761904763  0 18.958333333333336  0 18.571428571428573  L 0 4.2857142857142865  C 0 3.8988095238095233  0.15224358974358973 3.5639880952380953  0.4567307692307692 3.28125  C 0.7612179487179488 2.9985119047619024  1.121794871794872 2.857142857142858  1.5384615384615385 2.857142857142858  L 3.076923076923077 2.857142857142858  L 3.076923076923077 1.785714285714286  C 3.076923076923077 1.294642857142858  3.265224358974359 0.8742559523809512  3.641826923076923 0.5245535714285721  C 4.018429487179488 0.1748511904761907  4.471153846153847 0  5 0  L 5.769230769230768 0  C 6.298076923076923 0  6.750801282051283 0.1748511904761907  7.127403846153846 0.5245535714285721  C 7.504006410256411 0.8742559523809512  7.6923076923076925 1.294642857142858  7.6923076923076925 1.785714285714286  L 7.6923076923076925 2.857142857142858  L 12.307692307692308 2.857142857142858  L 12.307692307692308 1.785714285714286  C 12.307692307692308 1.294642857142858  12.495993589743591 0.8742559523809512  12.872596153846153 0.5245535714285721  C 13.24919871794872 0.1748511904761907  13.701923076923077 0  14.230769230769232 0  L 15 0  C 15.528846153846153 0  15.981570512820513 0.1748511904761907  16.358173076923077 0.5245535714285721  C 16.734775641025642 0.8742559523809512  16.923076923076923 1.294642857142858  16.923076923076923 1.785714285714286  L 16.923076923076923 2.857142857142858  L 18.461538461538463 2.857142857142858  C 18.87820512820513 2.857142857142858  19.23878205128205 2.9985119047619024  19.54326923076923 3.28125  Z " fill-rule="nonzero" fill="rgba(127, 127, 127, 1)" stroke="none" transform="matrix(1 0 0 1 342 141 )" class="fill" />
    <path d="M 1.5384615384615385 15.357142857142856  L 1.5384615384615385 18.571428571428573  L 5 18.571428571428573  L 5 15.357142857142856  L 1.5384615384615385 15.357142857142856  Z " stroke-width="0" stroke-dasharray="0" stroke="rgba(170, 170, 170, 1)" fill="none" transform="matrix(1 0 0 1 342 141 )" class="stroke" mask="url(#Clip54)" />
    <path d="M 5.769230769230768 15.357142857142856  L 5.769230769230768 18.571428571428573  L 9.615384615384615 18.571428571428573  L 9.615384615384615 15.357142857142856  L 5.769230769230768 15.357142857142856  Z " stroke-width="0" stroke-dasharray="0" stroke="rgba(170, 170, 170, 1)" fill="none" transform="matrix(1 0 0 1 342 141 )" class="stroke" mask="url(#Clip54)" />
    <path d="M 1.5384615384615385 11.071428571428573  L 1.5384615384615385 14.642857142857144  L 5 14.642857142857144  L 5 11.071428571428573  L 1.5384615384615385 11.071428571428573  Z " stroke-width="0" stroke-dasharray="0" stroke="rgba(170, 170, 170, 1)" fill="none" transform="matrix(1 0 0 1 342 141 )" class="stroke" mask="url(#Clip54)" />
    <path d="M 5.769230769230768 11.071428571428573  L 5.769230769230768 14.642857142857144  L 9.615384615384615 14.642857142857144  L 9.615384615384615 11.071428571428573  L 5.769230769230768 11.071428571428573  Z " stroke-width="0" stroke-dasharray="0" stroke="rgba(170, 170, 170, 1)" fill="none" transform="matrix(1 0 0 1 342 141 )" class="stroke" mask="url(#Clip54)" />
    <path d="M 1.5384615384615385 7.142857142857142  L 1.5384615384615385 10.357142857142856  L 5 10.357142857142856  L 5 7.142857142857142  L 1.5384615384615385 7.142857142857142  Z " stroke-width="0" stroke-dasharray="0" stroke="rgba(170, 170, 170, 1)" fill="none" transform="matrix(1 0 0 1 342 141 )" class="stroke" mask="url(#Clip54)" />
    <path d="M 10.384615384615385 15.357142857142856  L 10.384615384615385 18.571428571428573  L 14.230769230769232 18.571428571428573  L 14.230769230769232 15.357142857142856  L 10.384615384615385 15.357142857142856  Z " stroke-width="0" stroke-dasharray="0" stroke="rgba(170, 170, 170, 1)" fill="none" transform="matrix(1 0 0 1 342 141 )" class="stroke" mask="url(#Clip54)" />
    <path d="M 5.769230769230768 7.142857142857142  L 5.769230769230768 10.357142857142856  L 9.615384615384615 10.357142857142856  L 9.615384615384615 7.142857142857142  L 5.769230769230768 7.142857142857142  Z " stroke-width="0" stroke-dasharray="0" stroke="rgba(170, 170, 170, 1)" fill="none" transform="matrix(1 0 0 1 342 141 )" class="stroke" mask="url(#Clip54)" />
    <path d="M 15 15.357142857142856  L 15 18.571428571428573  L 18.461538461538463 18.571428571428573  L 18.461538461538463 15.357142857142856  L 15 15.357142857142856  Z " stroke-width="0" stroke-dasharray="0" stroke="rgba(170, 170, 170, 1)" fill="none" transform="matrix(1 0 0 1 342 141 )" class="stroke" mask="url(#Clip54)" />
    <path d="M 10.384615384615385 11.071428571428573  L 10.384615384615385 14.642857142857144  L 14.230769230769232 14.642857142857144  L 14.230769230769232 11.071428571428573  L 10.384615384615385 11.071428571428573  Z " stroke-width="0" stroke-dasharray="0" stroke="rgba(170, 170, 170, 1)" fill="none" transform="matrix(1 0 0 1 342 141 )" class="stroke" mask="url(#Clip54)" />
    <path d="M 6.039663461538462 5.251116071428572  C 6.115785256410256 5.180431547619047  6.153846153846154 5.096726190476188  6.153846153846154 5  L 6.153846153846154 1.785714285714286  C 6.153846153846154 1.6889880952380953  6.115785256410256 1.6052827380952372  6.039663461538462 1.534598214285714  C 5.963541666666668 1.4639136904761885  5.873397435897436 1.428571428571428  5.769230769230768 1.428571428571428  L 5 1.428571428571428  C 4.895833333333334 1.428571428571428  4.805689102564103 1.4639136904761885  4.7295673076923075 1.534598214285714  C 4.653445512820512 1.6052827380952372  4.615384615384616 1.6889880952380953  4.615384615384616 1.785714285714286  L 4.615384615384616 5  C 4.615384615384616 5.096726190476188  4.653445512820512 5.180431547619047  4.7295673076923075 5.251116071428572  C 4.805689102564103 5.321800595238095  4.895833333333334 5.357142857142858  5 5.357142857142858  L 5.769230769230768 5.357142857142858  C 5.873397435897436 5.357142857142858  5.963541666666668 5.321800595238095  6.039663461538462 5.251116071428572  Z " stroke-width="0" stroke-dasharray="0" stroke="rgba(170, 170, 170, 1)" fill="none" transform="matrix(1 0 0 1 342 141 )" class="stroke" mask="url(#Clip54)" />
    <path d="M 15 11.071428571428573  L 15 14.642857142857144  L 18.461538461538463 14.642857142857144  L 18.461538461538463 11.071428571428573  L 15 11.071428571428573  Z " stroke-width="0" stroke-dasharray="0" stroke="rgba(170, 170, 170, 1)" fill="none" transform="matrix(1 0 0 1 342 141 )" class="stroke" mask="url(#Clip54)" />
    <path d="M 10.384615384615385 7.142857142857142  L 10.384615384615385 10.357142857142856  L 14.230769230769232 10.357142857142856  L 14.230769230769232 7.142857142857142  L 10.384615384615385 7.142857142857142  Z " stroke-width="0" stroke-dasharray="0" stroke="rgba(170, 170, 170, 1)" fill="none" transform="matrix(1 0 0 1 342 141 )" class="stroke" mask="url(#Clip54)" />
    <path d="M 15 7.142857142857142  L 15 10.357142857142856  L 18.461538461538463 10.357142857142856  L 18.461538461538463 7.142857142857142  L 15 7.142857142857142  Z " stroke-width="0" stroke-dasharray="0" stroke="rgba(170, 170, 170, 1)" fill="none" transform="matrix(1 0 0 1 342 141 )" class="stroke" mask="url(#Clip54)" />
    <path d="M 15.270432692307692 5.251116071428572  C 15.346554487179489 5.180431547619047  15.384615384615385 5.096726190476188  15.384615384615385 5  L 15.384615384615385 1.785714285714286  C 15.384615384615385 1.6889880952380953  15.346554487179489 1.6052827380952372  15.270432692307692 1.534598214285714  C 15.194310897435898 1.4639136904761885  15.104166666666668 1.428571428571428  15 1.428571428571428  L 14.230769230769232 1.428571428571428  C 14.126602564102566 1.428571428571428  14.036458333333336 1.4639136904761885  13.960336538461537 1.534598214285714  C 13.884214743589745 1.6052827380952372  13.846153846153847 1.6889880952380953  13.846153846153847 1.785714285714286  L 13.846153846153847 5  C 13.846153846153847 5.096726190476188  13.884214743589745 5.180431547619047  13.960336538461537 5.251116071428572  C 14.036458333333336 5.321800595238095  14.126602564102566 5.357142857142858  14.230769230769232 5.357142857142858  L 15 5.357142857142858  C 15.104166666666668 5.357142857142858  15.194310897435898 5.321800595238095  15.270432692307692 5.251116071428572  Z " stroke-width="0" stroke-dasharray="0" stroke="rgba(170, 170, 170, 1)" fill="none" transform="matrix(1 0 0 1 342 141 )" class="stroke" mask="url(#Clip54)" />
    <path d="M 19.54326923076923 3.28125  C 19.847756410256412 3.5639880952380953  20 3.8988095238095233  20 4.2857142857142865  L 20 18.571428571428573  C 20 18.958333333333336  19.847756410256412 19.293154761904763  19.54326923076923 19.575892857142858  C 19.23878205128205 19.858630952380953  18.87820512820513 20  18.461538461538463 20  L 1.5384615384615385 20  C 1.121794871794872 20  0.7612179487179488 19.858630952380953  0.4567307692307692 19.575892857142858  C 0.15224358974358973 19.293154761904763  0 18.958333333333336  0 18.571428571428573  L 0 4.2857142857142865  C 0 3.8988095238095233  0.15224358974358973 3.5639880952380953  0.4567307692307692 3.28125  C 0.7612179487179488 2.9985119047619024  1.121794871794872 2.857142857142858  1.5384615384615385 2.857142857142858  L 3.076923076923077 2.857142857142858  L 3.076923076923077 1.785714285714286  C 3.076923076923077 1.294642857142858  3.265224358974359 0.8742559523809512  3.641826923076923 0.5245535714285721  C 4.018429487179488 0.1748511904761907  4.471153846153847 0  5 0  L 5.769230769230768 0  C 6.298076923076923 0  6.750801282051283 0.1748511904761907  7.127403846153846 0.5245535714285721  C 7.504006410256411 0.8742559523809512  7.6923076923076925 1.294642857142858  7.6923076923076925 1.785714285714286  L 7.6923076923076925 2.857142857142858  L 12.307692307692308 2.857142857142858  L 12.307692307692308 1.785714285714286  C 12.307692307692308 1.294642857142858  12.495993589743591 0.8742559523809512  12.872596153846153 0.5245535714285721  C 13.24919871794872 0.1748511904761907  13.701923076923077 0  14.230769230769232 0  L 15 0  C 15.528846153846153 0  15.981570512820513 0.1748511904761907  16.358173076923077 0.5245535714285721  C 16.734775641025642 0.8742559523809512  16.923076923076923 1.294642857142858  16.923076923076923 1.785714285714286  L 16.923076923076923 2.857142857142858  L 18.461538461538463 2.857142857142858  C 18.87820512820513 2.857142857142858  19.23878205128205 2.9985119047619024  19.54326923076923 3.28125  Z " stroke-width="0" stroke-dasharray="0" stroke="rgba(170, 170, 170, 1)" fill="none" transform="matrix(1 0 0 1 342 141 )" class="stroke" mask="url(#Clip54)" />
  </g>
</svg>