<?xml version="1.0" encoding="utf-8"?>
<svg version="1.1" xmlns:xlink="http://www.w3.org/1999/xlink" width="12px" height="12px" viewBox="181 387 12 12" xmlns="http://www.w3.org/2000/svg">
  <path d="M 187 387  C 190.36 387  193 389.64  193 393  C 193 396.36  190.36 399  187 399  C 183.64 399  181 396.36  181 393  C 181 389.64  183.64 387  187 387  Z " fill-rule="nonzero" fill="rgba(255, 255, 255, 1)" stroke="none" class="fill" />
  <path d="M 187 387.5  C 190.08 387.5  192.5 389.92  192.5 393  C 192.5 396.08  190.08 398.5  187 398.5  C 183.92 398.5  181.5 396.08  181.5 393  C 181.5 389.92  183.92 387.5  187 387.5  Z " stroke-width="1" stroke-dasharray="0" stroke="rgba(170, 170, 170, 1)" fill="none" class="stroke" stroke-dashoffset="0.5" />
  <path d="M 187 396  C 185.32 396  184 394.68  184 393  C 184 391.32  185.32 390  187 390  C 188.68 390  190 391.32  190 393  C 190 394.68  188.68 396  187 396  " fill-rule="nonzero" fill="rgba(170, 170, 170, 1)" stroke="none" class="stroke btn_check" />
</svg>