<?xml version="1.0" encoding="utf-8"?>
<svg version="1.1" xmlns:xlink="http://www.w3.org/1999/xlink" width="12px" height="12px" viewBox="341 293 12 12" xmlns="http://www.w3.org/2000/svg">
  <path d="M 347 293  C 350.36 293  353 295.64  353 299  C 353 302.36  350.36 305  347 305  C 343.64 305  341 302.36  341 299  C 341 295.64  343.64 293  347 293  Z " fill-rule="nonzero" fill="rgba(240, 240, 240, 1)" stroke="none" class="fill" />
  <path d="M 347 293.5  C 350.08 293.5  352.5 295.92  352.5 299  C 352.5 302.08  350.08 304.5  347 304.5  C 343.92 304.5  341.5 302.08  341.5 299  C 341.5 295.92  343.92 293.5  347 293.5  Z " stroke-width="1" stroke-dasharray="0" stroke="rgba(121, 121, 121, 1)" fill="none" class="stroke" stroke-dashoffset="0.5" />
  <path d="M 347 302  C 345.32 302  344 300.68  344 299  C 344 297.32  345.32 296  347 296  C 348.68 296  350 297.32  350 299  C 350 300.68  348.68 302  347 302  " fill-rule="nonzero" fill="rgba(121, 121, 121, 1)" stroke="none" class="stroke btn_check" />
</svg>