<?xml version="1.0" encoding="utf-8"?>
<svg version="1.1" xmlns:xlink="http://www.w3.org/1999/xlink" width="12px" height="12px" viewBox="270 387 12 12" xmlns="http://www.w3.org/2000/svg">
  <path d="M 276 387  C 279.36 387  282 389.64  282 393  C 282 396.36  279.36 399  276 399  C 272.64 399  270 396.36  270 393  C 270 389.64  272.64 387  276 387  Z " fill-rule="nonzero" fill="rgba(240, 240, 240, 1)" stroke="none" class="fill" />
  <path d="M 276 387.5  C 279.08 387.5  281.5 389.92  281.5 393  C 281.5 396.08  279.08 398.5  276 398.5  C 272.92 398.5  270.5 396.08  270.5 393  C 270.5 389.92  272.92 387.5  276 387.5  Z " stroke-width="1" stroke-dasharray="0" stroke="rgba(170, 170, 170, 1)" fill="none" class="stroke" stroke-dashoffset="0.5" />
  <path d="M 276 396  C 274.32 396  273 394.68  273 393  C 273 391.32  274.32 390  276 390  C 277.68 390  279 391.32  279 393  C 279 394.68  277.68 396  276 396  " fill-rule="nonzero" fill="rgba(170, 170, 170, 1)" stroke="none" class="stroke btn_check" />
</svg>