<?xml version="1.0" encoding="utf-8"?>
<svg version="1.1" xmlns:xlink="http://www.w3.org/1999/xlink" width="12px" height="12px" viewBox="181 293 12 12" xmlns="http://www.w3.org/2000/svg">
  <path d="M 187 293  C 190.36 293  193 295.64  193 299  C 193 302.36  190.36 305  187 305  C 183.64 305  181 302.36  181 299  C 181 295.64  183.64 293  187 293  Z " fill-rule="nonzero" fill="rgba(255, 255, 255, 1)" stroke="none" class="fill" />
  <path d="M 187 293.5  C 190.08 293.5  192.5 295.92  192.5 299  C 192.5 302.08  190.08 304.5  187 304.5  C 183.92 304.5  181.5 302.08  181.5 299  C 181.5 295.92  183.92 293.5  187 293.5  Z " stroke-width="1" stroke-dasharray="0" stroke="rgba(121, 121, 121, 1)" fill="none" class="stroke" stroke-dashoffset="0.5" />
  <path d="M 187 302  C 185.32 302  184 300.68  184 299  C 184 297.32  185.32 296  187 296  C 188.68 296  190 297.32  190 299  C 190 300.68  188.68 302  187 302  " fill-rule="nonzero" fill="rgba(121, 121, 121, 1)" stroke="none" class="stroke btn_check" />
</svg>