<?xml version="1.0" encoding="utf-8"?>
<svg version="1.1" xmlns:xlink="http://www.w3.org/1999/xlink" width="18px" height="17px" xmlns="http://www.w3.org/2000/svg">
  <defs>
    <pattern id="BGPattern" patternUnits="userSpaceOnUse" alignment="0 0" imageRepeat="None" />
    <mask fill="white" id="Clip77">
      <path d="M 1.3846153846153846 13.053571428571427  L 1.3846153846153846 15.785714285714286  L 4.5 15.785714285714286  L 4.5 13.053571428571427  L 1.3846153846153846 13.053571428571427  Z M 5.192307692307692 13.053571428571427  L 5.192307692307692 15.785714285714286  L 8.653846153846153 15.785714285714286  L 8.653846153846153 13.053571428571427  L 5.192307692307692 13.053571428571427  Z M 1.3846153846153846 9.410714285714286  L 1.3846153846153846 12.446428571428573  L 4.5 12.446428571428573  L 4.5 9.410714285714286  L 1.3846153846153846 9.410714285714286  Z M 5.192307692307692 9.410714285714286  L 5.192307692307692 12.446428571428573  L 8.653846153846153 12.446428571428573  L 8.653846153846153 9.410714285714286  L 5.192307692307692 9.410714285714286  Z M 1.3846153846153846 6.07142857142857  L 1.3846153846153846 8.803571428571427  L 4.5 8.803571428571427  L 4.5 6.07142857142857  L 1.3846153846153846 6.07142857142857  Z M 9.346153846153847 13.053571428571427  L 9.346153846153847 15.785714285714286  L 12.807692307692308 15.785714285714286  L 12.807692307692308 13.053571428571427  L 9.346153846153847 13.053571428571427  Z M 5.192307692307692 6.07142857142857  L 5.192307692307692 8.803571428571427  L 8.653846153846153 8.803571428571427  L 8.653846153846153 6.07142857142857  L 5.192307692307692 6.07142857142857  Z M 13.5 13.053571428571427  L 13.5 15.785714285714286  L 16.615384615384617 15.785714285714286  L 16.615384615384617 13.053571428571427  L 13.5 13.053571428571427  Z M 9.346153846153847 9.410714285714286  L 9.346153846153847 12.446428571428573  L 12.807692307692308 12.446428571428573  L 12.807692307692308 9.410714285714286  L 9.346153846153847 9.410714285714286  Z M 5.435697115384615 4.4634486607142865  C 5.504206730769231 4.40336681547619  5.538461538461538 4.33221726190476  5.538461538461538 4.25  L 5.538461538461538 1.5178571428571432  C 5.538461538461538 1.435639880952381  5.504206730769231 1.3644903273809517  5.435697115384615 1.3044084821428568  C 5.367187500000001 1.24432663690476  5.2860576923076925 1.2142857142857137  5.192307692307692 1.2142857142857137  L 4.5 1.2142857142857137  C 4.40625 1.2142857142857137  4.3251201923076925 1.24432663690476  4.256610576923077 1.3044084821428568  C 4.188100961538461 1.3644903273809517  4.153846153846154 1.435639880952381  4.153846153846154 1.5178571428571432  L 4.153846153846154 4.25  C 4.153846153846154 4.33221726190476  4.188100961538461 4.40336681547619  4.256610576923077 4.4634486607142865  C 4.3251201923076925 4.523530505952381  4.40625 4.55357142857143  4.5 4.55357142857143  L 5.192307692307692 4.55357142857143  C 5.2860576923076925 4.55357142857143  5.367187500000001 4.523530505952381  5.435697115384615 4.4634486607142865  Z M 13.5 9.410714285714286  L 13.5 12.446428571428573  L 16.615384615384617 12.446428571428573  L 16.615384615384617 9.410714285714286  L 13.5 9.410714285714286  Z M 9.346153846153847 6.07142857142857  L 9.346153846153847 8.803571428571427  L 12.807692307692308 8.803571428571427  L 12.807692307692308 6.07142857142857  L 9.346153846153847 6.07142857142857  Z M 13.5 6.07142857142857  L 13.5 8.803571428571427  L 16.615384615384617 8.803571428571427  L 16.615384615384617 6.07142857142857  L 13.5 6.07142857142857  Z M 13.743389423076923 4.4634486607142865  C 13.81189903846154 4.40336681547619  13.846153846153847 4.33221726190476  13.846153846153847 4.25  L 13.846153846153847 1.5178571428571432  C 13.846153846153847 1.435639880952381  13.81189903846154 1.3644903273809517  13.743389423076923 1.3044084821428568  C 13.674879807692308 1.24432663690476  13.59375 1.2142857142857137  13.5 1.2142857142857137  L 12.807692307692308 1.2142857142857137  C 12.71394230769231 1.2142857142857137  12.632812500000002 1.24432663690476  12.564302884615383 1.3044084821428568  C 12.49579326923077 1.3644903273809517  12.461538461538462 1.435639880952381  12.461538461538462 1.5178571428571432  L 12.461538461538462 4.25  C 12.461538461538462 4.33221726190476  12.49579326923077 4.40336681547619  12.564302884615383 4.4634486607142865  C 12.632812500000002 4.523530505952381  12.71394230769231 4.55357142857143  12.807692307692308 4.55357142857143  L 13.5 4.55357142857143  C 13.59375 4.55357142857143  13.674879807692308 4.523530505952381  13.743389423076923 4.4634486607142865  Z M 17.588942307692307 2.7890625  C 17.86298076923077 3.029389880952381  18 3.313988095238095  18 3.6428571428571432  L 18 15.785714285714286  C 18 16.114583333333336  17.86298076923077 16.399181547619047  17.588942307692307 16.63950892857143  C 17.314903846153847 16.87983630952381  16.990384615384617 17  16.615384615384617 17  L 1.3846153846153846 17  C 1.0096153846153848 17  0.685096153846154 16.87983630952381  0.4110576923076923 16.63950892857143  C 0.13701923076923075 16.399181547619047  0 16.114583333333336  0 15.785714285714286  L 0 3.6428571428571432  C 0 3.313988095238095  0.13701923076923075 3.029389880952381  0.4110576923076923 2.7890625  C 0.685096153846154 2.548735119047617  1.0096153846153848 2.4285714285714293  1.3846153846153846 2.4285714285714293  L 2.769230769230769 2.4285714285714293  L 2.769230769230769 1.5178571428571432  C 2.769230769230769 1.1004464285714293  2.9387019230769234 0.7431175595238085  3.277644230769231 0.44587053571428625  C 3.616586538461539 0.14862351190476208  4.024038461538462 0  4.5 0  L 5.192307692307692 0  C 5.668269230769231 0  6.075721153846155 0.14862351190476208  6.414663461538462 0.44587053571428625  C 6.75360576923077 0.7431175595238085  6.923076923076923 1.1004464285714293  6.923076923076923 1.5178571428571432  L 6.923076923076923 2.4285714285714293  L 11.076923076923077 2.4285714285714293  L 11.076923076923077 1.5178571428571432  C 11.076923076923077 1.1004464285714293  11.246394230769232 0.7431175595238085  11.585336538461538 0.44587053571428625  C 11.924278846153848 0.14862351190476208  12.33173076923077 0  12.807692307692308 0  L 13.5 0  C 13.975961538461538 0  14.383413461538462 0.14862351190476208  14.72235576923077 0.44587053571428625  C 15.061298076923078 0.7431175595238085  15.23076923076923 1.1004464285714293  15.23076923076923 1.5178571428571432  L 15.23076923076923 2.4285714285714293  L 16.615384615384617 2.4285714285714293  C 16.990384615384617 2.4285714285714293  17.314903846153847 2.548735119047617  17.588942307692307 2.7890625  Z " fill-rule="evenodd" />
    </mask>
  </defs>
  <g transform="matrix(1 0 0 1 -760 -209 )">
    <path d="M 1.3846153846153846 13.053571428571427  L 1.3846153846153846 15.785714285714286  L 4.5 15.785714285714286  L 4.5 13.053571428571427  L 1.3846153846153846 13.053571428571427  Z M 5.192307692307692 13.053571428571427  L 5.192307692307692 15.785714285714286  L 8.653846153846153 15.785714285714286  L 8.653846153846153 13.053571428571427  L 5.192307692307692 13.053571428571427  Z M 1.3846153846153846 9.410714285714286  L 1.3846153846153846 12.446428571428573  L 4.5 12.446428571428573  L 4.5 9.410714285714286  L 1.3846153846153846 9.410714285714286  Z M 5.192307692307692 9.410714285714286  L 5.192307692307692 12.446428571428573  L 8.653846153846153 12.446428571428573  L 8.653846153846153 9.410714285714286  L 5.192307692307692 9.410714285714286  Z M 1.3846153846153846 6.07142857142857  L 1.3846153846153846 8.803571428571427  L 4.5 8.803571428571427  L 4.5 6.07142857142857  L 1.3846153846153846 6.07142857142857  Z M 9.346153846153847 13.053571428571427  L 9.346153846153847 15.785714285714286  L 12.807692307692308 15.785714285714286  L 12.807692307692308 13.053571428571427  L 9.346153846153847 13.053571428571427  Z M 5.192307692307692 6.07142857142857  L 5.192307692307692 8.803571428571427  L 8.653846153846153 8.803571428571427  L 8.653846153846153 6.07142857142857  L 5.192307692307692 6.07142857142857  Z M 13.5 13.053571428571427  L 13.5 15.785714285714286  L 16.615384615384617 15.785714285714286  L 16.615384615384617 13.053571428571427  L 13.5 13.053571428571427  Z M 9.346153846153847 9.410714285714286  L 9.346153846153847 12.446428571428573  L 12.807692307692308 12.446428571428573  L 12.807692307692308 9.410714285714286  L 9.346153846153847 9.410714285714286  Z M 5.435697115384615 4.4634486607142865  C 5.504206730769231 4.40336681547619  5.538461538461538 4.33221726190476  5.538461538461538 4.25  L 5.538461538461538 1.5178571428571432  C 5.538461538461538 1.435639880952381  5.504206730769231 1.3644903273809517  5.435697115384615 1.3044084821428568  C 5.367187500000001 1.24432663690476  5.2860576923076925 1.2142857142857137  5.192307692307692 1.2142857142857137  L 4.5 1.2142857142857137  C 4.40625 1.2142857142857137  4.3251201923076925 1.24432663690476  4.256610576923077 1.3044084821428568  C 4.188100961538461 1.3644903273809517  4.153846153846154 1.435639880952381  4.153846153846154 1.5178571428571432  L 4.153846153846154 4.25  C 4.153846153846154 4.33221726190476  4.188100961538461 4.40336681547619  4.256610576923077 4.4634486607142865  C 4.3251201923076925 4.523530505952381  4.40625 4.55357142857143  4.5 4.55357142857143  L 5.192307692307692 4.55357142857143  C 5.2860576923076925 4.55357142857143  5.367187500000001 4.523530505952381  5.435697115384615 4.4634486607142865  Z M 13.5 9.410714285714286  L 13.5 12.446428571428573  L 16.615384615384617 12.446428571428573  L 16.615384615384617 9.410714285714286  L 13.5 9.410714285714286  Z M 9.346153846153847 6.07142857142857  L 9.346153846153847 8.803571428571427  L 12.807692307692308 8.803571428571427  L 12.807692307692308 6.07142857142857  L 9.346153846153847 6.07142857142857  Z M 13.5 6.07142857142857  L 13.5 8.803571428571427  L 16.615384615384617 8.803571428571427  L 16.615384615384617 6.07142857142857  L 13.5 6.07142857142857  Z M 13.743389423076923 4.4634486607142865  C 13.81189903846154 4.40336681547619  13.846153846153847 4.33221726190476  13.846153846153847 4.25  L 13.846153846153847 1.5178571428571432  C 13.846153846153847 1.435639880952381  13.81189903846154 1.3644903273809517  13.743389423076923 1.3044084821428568  C 13.674879807692308 1.24432663690476  13.59375 1.2142857142857137  13.5 1.2142857142857137  L 12.807692307692308 1.2142857142857137  C 12.71394230769231 1.2142857142857137  12.632812500000002 1.24432663690476  12.564302884615383 1.3044084821428568  C 12.49579326923077 1.3644903273809517  12.461538461538462 1.435639880952381  12.461538461538462 1.5178571428571432  L 12.461538461538462 4.25  C 12.461538461538462 4.33221726190476  12.49579326923077 4.40336681547619  12.564302884615383 4.4634486607142865  C 12.632812500000002 4.523530505952381  12.71394230769231 4.55357142857143  12.807692307692308 4.55357142857143  L 13.5 4.55357142857143  C 13.59375 4.55357142857143  13.674879807692308 4.523530505952381  13.743389423076923 4.4634486607142865  Z M 17.588942307692307 2.7890625  C 17.86298076923077 3.029389880952381  18 3.313988095238095  18 3.6428571428571432  L 18 15.785714285714286  C 18 16.114583333333336  17.86298076923077 16.399181547619047  17.588942307692307 16.63950892857143  C 17.314903846153847 16.87983630952381  16.990384615384617 17  16.615384615384617 17  L 1.3846153846153846 17  C 1.0096153846153848 17  0.685096153846154 16.87983630952381  0.4110576923076923 16.63950892857143  C 0.13701923076923075 16.399181547619047  0 16.114583333333336  0 15.785714285714286  L 0 3.6428571428571432  C 0 3.313988095238095  0.13701923076923075 3.029389880952381  0.4110576923076923 2.7890625  C 0.685096153846154 2.548735119047617  1.0096153846153848 2.4285714285714293  1.3846153846153846 2.4285714285714293  L 2.769230769230769 2.4285714285714293  L 2.769230769230769 1.5178571428571432  C 2.769230769230769 1.1004464285714293  2.9387019230769234 0.7431175595238085  3.277644230769231 0.44587053571428625  C 3.616586538461539 0.14862351190476208  4.024038461538462 0  4.5 0  L 5.192307692307692 0  C 5.668269230769231 0  6.075721153846155 0.14862351190476208  6.414663461538462 0.44587053571428625  C 6.75360576923077 0.7431175595238085  6.923076923076923 1.1004464285714293  6.923076923076923 1.5178571428571432  L 6.923076923076923 2.4285714285714293  L 11.076923076923077 2.4285714285714293  L 11.076923076923077 1.5178571428571432  C 11.076923076923077 1.1004464285714293  11.246394230769232 0.7431175595238085  11.585336538461538 0.44587053571428625  C 11.924278846153848 0.14862351190476208  12.33173076923077 0  12.807692307692308 0  L 13.5 0  C 13.975961538461538 0  14.383413461538462 0.14862351190476208  14.72235576923077 0.44587053571428625  C 15.061298076923078 0.7431175595238085  15.23076923076923 1.1004464285714293  15.23076923076923 1.5178571428571432  L 15.23076923076923 2.4285714285714293  L 16.615384615384617 2.4285714285714293  C 16.990384615384617 2.4285714285714293  17.314903846153847 2.548735119047617  17.588942307692307 2.7890625  Z " fill-rule="nonzero" fill="rgba(127, 127, 127, 1)" stroke="none" transform="matrix(1 0 0 1 760 209 )" class="fill" />
    <path d="M 1.3846153846153846 13.053571428571427  L 1.3846153846153846 15.785714285714286  L 4.5 15.785714285714286  L 4.5 13.053571428571427  L 1.3846153846153846 13.053571428571427  Z " stroke-width="0" stroke-dasharray="0" stroke="rgba(170, 170, 170, 1)" fill="none" transform="matrix(1 0 0 1 760 209 )" class="stroke" mask="url(#Clip77)" />
    <path d="M 5.192307692307692 13.053571428571427  L 5.192307692307692 15.785714285714286  L 8.653846153846153 15.785714285714286  L 8.653846153846153 13.053571428571427  L 5.192307692307692 13.053571428571427  Z " stroke-width="0" stroke-dasharray="0" stroke="rgba(170, 170, 170, 1)" fill="none" transform="matrix(1 0 0 1 760 209 )" class="stroke" mask="url(#Clip77)" />
    <path d="M 1.3846153846153846 9.410714285714286  L 1.3846153846153846 12.446428571428573  L 4.5 12.446428571428573  L 4.5 9.410714285714286  L 1.3846153846153846 9.410714285714286  Z " stroke-width="0" stroke-dasharray="0" stroke="rgba(170, 170, 170, 1)" fill="none" transform="matrix(1 0 0 1 760 209 )" class="stroke" mask="url(#Clip77)" />
    <path d="M 5.192307692307692 9.410714285714286  L 5.192307692307692 12.446428571428573  L 8.653846153846153 12.446428571428573  L 8.653846153846153 9.410714285714286  L 5.192307692307692 9.410714285714286  Z " stroke-width="0" stroke-dasharray="0" stroke="rgba(170, 170, 170, 1)" fill="none" transform="matrix(1 0 0 1 760 209 )" class="stroke" mask="url(#Clip77)" />
    <path d="M 1.3846153846153846 6.07142857142857  L 1.3846153846153846 8.803571428571427  L 4.5 8.803571428571427  L 4.5 6.07142857142857  L 1.3846153846153846 6.07142857142857  Z " stroke-width="0" stroke-dasharray="0" stroke="rgba(170, 170, 170, 1)" fill="none" transform="matrix(1 0 0 1 760 209 )" class="stroke" mask="url(#Clip77)" />
    <path d="M 9.346153846153847 13.053571428571427  L 9.346153846153847 15.785714285714286  L 12.807692307692308 15.785714285714286  L 12.807692307692308 13.053571428571427  L 9.346153846153847 13.053571428571427  Z " stroke-width="0" stroke-dasharray="0" stroke="rgba(170, 170, 170, 1)" fill="none" transform="matrix(1 0 0 1 760 209 )" class="stroke" mask="url(#Clip77)" />
    <path d="M 5.192307692307692 6.07142857142857  L 5.192307692307692 8.803571428571427  L 8.653846153846153 8.803571428571427  L 8.653846153846153 6.07142857142857  L 5.192307692307692 6.07142857142857  Z " stroke-width="0" stroke-dasharray="0" stroke="rgba(170, 170, 170, 1)" fill="none" transform="matrix(1 0 0 1 760 209 )" class="stroke" mask="url(#Clip77)" />
    <path d="M 13.5 13.053571428571427  L 13.5 15.785714285714286  L 16.615384615384617 15.785714285714286  L 16.615384615384617 13.053571428571427  L 13.5 13.053571428571427  Z " stroke-width="0" stroke-dasharray="0" stroke="rgba(170, 170, 170, 1)" fill="none" transform="matrix(1 0 0 1 760 209 )" class="stroke" mask="url(#Clip77)" />
    <path d="M 9.346153846153847 9.410714285714286  L 9.346153846153847 12.446428571428573  L 12.807692307692308 12.446428571428573  L 12.807692307692308 9.410714285714286  L 9.346153846153847 9.410714285714286  Z " stroke-width="0" stroke-dasharray="0" stroke="rgba(170, 170, 170, 1)" fill="none" transform="matrix(1 0 0 1 760 209 )" class="stroke" mask="url(#Clip77)" />
    <path d="M 5.435697115384615 4.4634486607142865  C 5.504206730769231 4.40336681547619  5.538461538461538 4.33221726190476  5.538461538461538 4.25  L 5.538461538461538 1.5178571428571432  C 5.538461538461538 1.435639880952381  5.504206730769231 1.3644903273809517  5.435697115384615 1.3044084821428568  C 5.367187500000001 1.24432663690476  5.2860576923076925 1.2142857142857137  5.192307692307692 1.2142857142857137  L 4.5 1.2142857142857137  C 4.40625 1.2142857142857137  4.3251201923076925 1.24432663690476  4.256610576923077 1.3044084821428568  C 4.188100961538461 1.3644903273809517  4.153846153846154 1.435639880952381  4.153846153846154 1.5178571428571432  L 4.153846153846154 4.25  C 4.153846153846154 4.33221726190476  4.188100961538461 4.40336681547619  4.256610576923077 4.4634486607142865  C 4.3251201923076925 4.523530505952381  4.40625 4.55357142857143  4.5 4.55357142857143  L 5.192307692307692 4.55357142857143  C 5.2860576923076925 4.55357142857143  5.367187500000001 4.523530505952381  5.435697115384615 4.4634486607142865  Z " stroke-width="0" stroke-dasharray="0" stroke="rgba(170, 170, 170, 1)" fill="none" transform="matrix(1 0 0 1 760 209 )" class="stroke" mask="url(#Clip77)" />
    <path d="M 13.5 9.410714285714286  L 13.5 12.446428571428573  L 16.615384615384617 12.446428571428573  L 16.615384615384617 9.410714285714286  L 13.5 9.410714285714286  Z " stroke-width="0" stroke-dasharray="0" stroke="rgba(170, 170, 170, 1)" fill="none" transform="matrix(1 0 0 1 760 209 )" class="stroke" mask="url(#Clip77)" />
    <path d="M 9.346153846153847 6.07142857142857  L 9.346153846153847 8.803571428571427  L 12.807692307692308 8.803571428571427  L 12.807692307692308 6.07142857142857  L 9.346153846153847 6.07142857142857  Z " stroke-width="0" stroke-dasharray="0" stroke="rgba(170, 170, 170, 1)" fill="none" transform="matrix(1 0 0 1 760 209 )" class="stroke" mask="url(#Clip77)" />
    <path d="M 13.5 6.07142857142857  L 13.5 8.803571428571427  L 16.615384615384617 8.803571428571427  L 16.615384615384617 6.07142857142857  L 13.5 6.07142857142857  Z " stroke-width="0" stroke-dasharray="0" stroke="rgba(170, 170, 170, 1)" fill="none" transform="matrix(1 0 0 1 760 209 )" class="stroke" mask="url(#Clip77)" />
    <path d="M 13.743389423076923 4.4634486607142865  C 13.81189903846154 4.40336681547619  13.846153846153847 4.33221726190476  13.846153846153847 4.25  L 13.846153846153847 1.5178571428571432  C 13.846153846153847 1.435639880952381  13.81189903846154 1.3644903273809517  13.743389423076923 1.3044084821428568  C 13.674879807692308 1.24432663690476  13.59375 1.2142857142857137  13.5 1.2142857142857137  L 12.807692307692308 1.2142857142857137  C 12.71394230769231 1.2142857142857137  12.632812500000002 1.24432663690476  12.564302884615383 1.3044084821428568  C 12.49579326923077 1.3644903273809517  12.461538461538462 1.435639880952381  12.461538461538462 1.5178571428571432  L 12.461538461538462 4.25  C 12.461538461538462 4.33221726190476  12.49579326923077 4.40336681547619  12.564302884615383 4.4634486607142865  C 12.632812500000002 4.523530505952381  12.71394230769231 4.55357142857143  12.807692307692308 4.55357142857143  L 13.5 4.55357142857143  C 13.59375 4.55357142857143  13.674879807692308 4.523530505952381  13.743389423076923 4.4634486607142865  Z " stroke-width="0" stroke-dasharray="0" stroke="rgba(170, 170, 170, 1)" fill="none" transform="matrix(1 0 0 1 760 209 )" class="stroke" mask="url(#Clip77)" />
    <path d="M 17.588942307692307 2.7890625  C 17.86298076923077 3.029389880952381  18 3.313988095238095  18 3.6428571428571432  L 18 15.785714285714286  C 18 16.114583333333336  17.86298076923077 16.399181547619047  17.588942307692307 16.63950892857143  C 17.314903846153847 16.87983630952381  16.990384615384617 17  16.615384615384617 17  L 1.3846153846153846 17  C 1.0096153846153848 17  0.685096153846154 16.87983630952381  0.4110576923076923 16.63950892857143  C 0.13701923076923075 16.399181547619047  0 16.114583333333336  0 15.785714285714286  L 0 3.6428571428571432  C 0 3.313988095238095  0.13701923076923075 3.029389880952381  0.4110576923076923 2.7890625  C 0.685096153846154 2.548735119047617  1.0096153846153848 2.4285714285714293  1.3846153846153846 2.4285714285714293  L 2.769230769230769 2.4285714285714293  L 2.769230769230769 1.5178571428571432  C 2.769230769230769 1.1004464285714293  2.9387019230769234 0.7431175595238085  3.277644230769231 0.44587053571428625  C 3.616586538461539 0.14862351190476208  4.024038461538462 0  4.5 0  L 5.192307692307692 0  C 5.668269230769231 0  6.075721153846155 0.14862351190476208  6.414663461538462 0.44587053571428625  C 6.75360576923077 0.7431175595238085  6.923076923076923 1.1004464285714293  6.923076923076923 1.5178571428571432  L 6.923076923076923 2.4285714285714293  L 11.076923076923077 2.4285714285714293  L 11.076923076923077 1.5178571428571432  C 11.076923076923077 1.1004464285714293  11.246394230769232 0.7431175595238085  11.585336538461538 0.44587053571428625  C 11.924278846153848 0.14862351190476208  12.33173076923077 0  12.807692307692308 0  L 13.5 0  C 13.975961538461538 0  14.383413461538462 0.14862351190476208  14.72235576923077 0.44587053571428625  C 15.061298076923078 0.7431175595238085  15.23076923076923 1.1004464285714293  15.23076923076923 1.5178571428571432  L 15.23076923076923 2.4285714285714293  L 16.615384615384617 2.4285714285714293  C 16.990384615384617 2.4285714285714293  17.314903846153847 2.548735119047617  17.588942307692307 2.7890625  Z " stroke-width="0" stroke-dasharray="0" stroke="rgba(170, 170, 170, 1)" fill="none" transform="matrix(1 0 0 1 760 209 )" class="stroke" mask="url(#Clip77)" />
  </g>
</svg>