<?xml version="1.0" encoding="utf-8"?>
<svg version="1.1" xmlns:xlink="http://www.w3.org/1999/xlink" width="12px" height="12px" viewBox="149 812 12 12" xmlns="http://www.w3.org/2000/svg">
  <path d="M 155 812  C 158.36 812  161 814.64  161 818  C 161 821.36  158.36 824  155 824  C 151.64 824  149 821.36  149 818  C 149 814.64  151.64 812  155 812  Z " fill-rule="nonzero" fill="rgba(240, 240, 240, 1)" stroke="none" class="fill" />
  <path d="M 155 812.5  C 158.08 812.5  160.5 814.92  160.5 818  C 160.5 821.08  158.08 823.5  155 823.5  C 151.92 823.5  149.5 821.08  149.5 818  C 149.5 814.92  151.92 812.5  155 812.5  Z " stroke-width="1" stroke-dasharray="0" stroke="rgba(121, 121, 121, 1)" fill="none" class="stroke" stroke-dashoffset="0.5" />
  <path d="M 155 821  C 153.32 821  152 819.68  152 818  C 152 816.32  153.32 815  155 815  C 156.68 815  158 816.32  158 818  C 158 819.68  156.68 821  155 821  " fill-rule="nonzero" fill="rgba(121, 121, 121, 1)" stroke="none" class="stroke btn_check" />
</svg>