<?xml version="1.0" encoding="utf-8"?>
<svg version="1.1" xmlns:xlink="http://www.w3.org/1999/xlink" width="12px" height="12px" viewBox="239 1156 12 12" xmlns="http://www.w3.org/2000/svg">
  <path d="M 245 1156  C 248.36 1156  251 1158.64  251 1162  C 251 1165.36  248.36 1168  245 1168  C 241.64 1168  239 1165.36  239 1162  C 239 1158.64  241.64 1156  245 1156  Z " fill-rule="nonzero" fill="rgba(255, 255, 255, 1)" stroke="none" class="fill" />
  <path d="M 245 1156.5  C 248.08 1156.5  250.5 1158.92  250.5 1162  C 250.5 1165.08  248.08 1167.5  245 1167.5  C 241.92 1167.5  239.5 1165.08  239.5 1162  C 239.5 1158.92  241.92 1156.5  245 1156.5  Z " stroke-width="1" stroke-dasharray="0" stroke="rgba(121, 121, 121, 1)" fill="none" class="stroke" stroke-dashoffset="0.5" />
  <path d="M 245 1165  C 243.32 1165  242 1163.68  242 1162  C 242 1160.32  243.32 1159  245 1159  C 246.68 1159  248 1160.32  248 1162  C 248 1163.68  246.68 1165  245 1165  " fill-rule="nonzero" fill="rgba(121, 121, 121, 1)" stroke="none" class="stroke btn_check" />
</svg>