<?xml version="1.0" encoding="utf-8"?>
<svg version="1.1" xmlns:xlink="http://www.w3.org/1999/xlink" width="12px" height="12px" viewBox="149 842 12 12" xmlns="http://www.w3.org/2000/svg">
  <path d="M 155 842  C 158.36 842  161 844.64  161 848  C 161 851.36  158.36 854  155 854  C 151.64 854  149 851.36  149 848  C 149 844.64  151.64 842  155 842  Z " fill-rule="nonzero" fill="rgba(255, 255, 255, 1)" stroke="none" class="fill" />
  <path d="M 155 842.5  C 158.08 842.5  160.5 844.92  160.5 848  C 160.5 851.08  158.08 853.5  155 853.5  C 151.92 853.5  149.5 851.08  149.5 848  C 149.5 844.92  151.92 842.5  155 842.5  Z " stroke-width="1" stroke-dasharray="0" stroke="rgba(121, 121, 121, 1)" fill="none" class="stroke" stroke-dashoffset="0.5" />
  <path d="M 155 851  C 153.32 851  152 849.68  152 848  C 152 846.32  153.32 845  155 845  C 156.68 845  158 846.32  158 848  C 158 849.68  156.68 851  155 851  " fill-rule="nonzero" fill="rgba(121, 121, 121, 1)" stroke="none" class="stroke btn_check" />
</svg>