<?xml version="1.0" encoding="utf-8"?>
<svg version="1.1" xmlns:xlink="http://www.w3.org/1999/xlink" width="12px" height="12px" viewBox="149 736 12 12" xmlns="http://www.w3.org/2000/svg">
  <path d="M 155 736  C 158.36 736  161 738.64  161 742  C 161 745.36  158.36 748  155 748  C 151.64 748  149 745.36  149 742  C 149 738.64  151.64 736  155 736  Z " fill-rule="nonzero" fill="rgba(255, 255, 255, 1)" stroke="none" class="fill" />
  <path d="M 155 736.5  C 158.08 736.5  160.5 738.92  160.5 742  C 160.5 745.08  158.08 747.5  155 747.5  C 151.92 747.5  149.5 745.08  149.5 742  C 149.5 738.92  151.92 736.5  155 736.5  Z " stroke-width="1" stroke-dasharray="0" stroke="rgba(121, 121, 121, 1)" fill="none" class="stroke" stroke-dashoffset="0.5" />
  <path d="M 155 745  C 153.32 745  152 743.68  152 742  C 152 740.32  153.32 739  155 739  C 156.68 739  158 740.32  158 742  C 158 743.68  156.68 745  155 745  " fill-rule="nonzero" fill="rgba(121, 121, 121, 1)" stroke="none" class="stroke btn_check" />
</svg>