<?xml version="1.0" encoding="utf-8"?>
<svg version="1.1" xmlns:xlink="http://www.w3.org/1999/xlink" width="12px" height="12px" viewBox="149 1156 12 12" xmlns="http://www.w3.org/2000/svg">
  <path d="M 155 1156  C 158.36 1156  161 1158.64  161 1162  C 161 1165.36  158.36 1168  155 1168  C 151.64 1168  149 1165.36  149 1162  C 149 1158.64  151.64 1156  155 1156  Z " fill-rule="nonzero" fill="rgba(255, 255, 255, 1)" stroke="none" class="fill" />
  <path d="M 155 1156.5  C 158.08 1156.5  160.5 1158.92  160.5 1162  C 160.5 1165.08  158.08 1167.5  155 1167.5  C 151.92 1167.5  149.5 1165.08  149.5 1162  C 149.5 1158.92  151.92 1156.5  155 1156.5  Z " stroke-width="1" stroke-dasharray="0" stroke="rgba(121, 121, 121, 1)" fill="none" class="stroke" stroke-dashoffset="0.5" />
  <path d="M 155 1165  C 153.32 1165  152 1163.68  152 1162  C 152 1160.32  153.32 1159  155 1159  C 156.68 1159  158 1160.32  158 1162  C 158 1163.68  156.68 1165  155 1165  " fill-rule="nonzero" fill="rgba(121, 121, 121, 1)" stroke="none" class="stroke btn_check" />
</svg>