<svg class="icon" viewBox="0 0 1024 1024" version="1.1" xmlns="http://www.w3.org/2000/svg" p-id="1371" height="128" width="128"><path d="M505.6 928h-400c-35.2 0-64-9.6-86.4-32-9.6-9.6-12.8-22.4-12.8-35.2v-608c0-35.2 38.4-64 83.2-67.2h83.2c12.8 0 19.2-3.2 19.2-12.8v-25.6c6.4-25.6 25.6-38.4 57.6-38.4 25.6 0 44.8 16 48 41.6v3.2c3.2 35.2 3.2 35.2 44.8 35.2h348.8c16 0 22.4-3.2 22.4-16v-22.4c3.2-25.6 25.6-38.4 54.4-38.4 28.8 0 48 16 51.2 38.4 0 12.8-6.4 28.8 3.2 35.2 12.8 6.4 32 3.2 48 3.2h48c48 3.2 86.4 32 86.4 70.4v601.6c0 41.6-41.6 70.4-99.2 73.6-128-6.4-265.6-6.4-400-6.4z m3.2-547.2h-400c-16 0-22.4 3.2-22.4 16v441.6c0 19.2 9.6 22.4 28.8 22.4h787.2c28.8 0 28.8 0 28.8-22.4v-438.4c0-16-3.2-19.2-22.4-19.2h-400z" fill="#7F7F7F" p-id="1372"></path><path d="M259.2 764.8h-51.2c-22.4 0-32-9.6-35.2-25.6v-54.4c0-16 12.8-25.6 32-25.6h108.8c22.4 0 32 9.6 32 28.8v51.2c0 16-9.6 25.6-32 25.6H259.2zM508.8 764.8h-51.2c-22.4 0-35.2-9.6-35.2-25.6v-51.2c0-19.2 9.6-25.6 32-28.8h105.6c19.2 0 32 9.6 32 25.6v54.4c0 16-12.8 25.6-32 25.6h-51.2zM758.4 659.2h54.4c19.2 0 32 9.6 28.8 25.6v57.6c0 16-12.8 25.6-32 25.6h-108.8c-19.2 0-32-9.6-32-25.6v-54.4c0-16 12.8-25.6 32-25.6 19.2-6.4 38.4-3.2 57.6-3.2zM508.8 582.4h-54.4c-22.4 0-32-6.4-32-25.6v-57.6c0-16 9.6-22.4 28.8-22.4h112c19.2 0 28.8 9.6 32 25.6v54.4c0 16-9.6 25.6-32 25.6h-54.4zM259.2 476.8h54.4c19.2 0 32 9.6 32 22.4v57.6c0 16-9.6 22.4-28.8 22.4h-112c-19.2 0-28.8-6.4-28.8-22.4v-60.8c0-16 12.8-22.4 32-22.4 16 3.2 32 3.2 51.2 3.2zM755.2 582.4h-54.4c-19.2 0-32-9.6-32-25.6v-57.6c0-16 9.6-22.4 28.8-22.4h112c19.2 0 28.8 9.6 28.8 22.4v57.6c0 12.8-9.6 22.4-28.8 22.4-16 3.2-35.2 3.2-54.4 3.2z" fill="#7F7F7F" p-id="1373"></path></svg>