<?xml version="1.0" encoding="utf-8"?>
<svg version="1.1" xmlns:xlink="http://www.w3.org/1999/xlink" width="12px" height="12px" viewBox="156 591  12 12" xmlns="http://www.w3.org/2000/svg">
  <path d="M 162 591  C 165.36 591  168 593.64  168 597  C 168 600.36  165.36 603  162 603  C 158.64 603  156 600.36  156 597  C 156 593.64  158.64 591  162 591  Z " fill-rule="nonzero" fill="#ffffff" stroke="none" />
  <path d="M 162 591.5  C 165.08 591.5  167.5 593.92  167.5 597  C 167.5 600.08  165.08 602.5  162 602.5  C 158.92 602.5  156.5 600.08  156.5 597  C 156.5 593.92  158.92 591.5  162 591.5  Z " stroke-width="1" stroke="#797979" fill="none" />
  <path d="M 162 600  C 160.32 600  159 598.68  159 597  C 159 595.32  160.32 594  162 594  C 163.68 594  165 595.32  165 597  C 165 598.68  163.68 600  162 600  " fill-rule="nonzero" fill="#797979" stroke="none" />
</svg>