<?xml version="1.0" encoding="utf-8"?>
<svg version="1.1" xmlns:xlink="http://www.w3.org/1999/xlink" width="12px" height="12px" viewBox="274 591  12 12" xmlns="http://www.w3.org/2000/svg">
  <path d="M 280 591  C 283.36 591  286 593.64  286 597  C 286 600.36  283.36 603  280 603  C 276.64 603  274 600.36  274 597  C 274 593.64  276.64 591  280 591  Z " fill-rule="nonzero" fill="#f0f0f0" stroke="none" />
  <path d="M 280 591.5  C 283.08 591.5  285.5 593.92  285.5 597  C 285.5 600.08  283.08 602.5  280 602.5  C 276.92 602.5  274.5 600.08  274.5 597  C 274.5 593.92  276.92 591.5  280 591.5  Z " stroke-width="1" stroke="#797979" fill="none" />
  <path d="M 280 600  C 278.32 600  277 598.68  277 597  C 277 595.32  278.32 594  280 594  C 281.68 594  283 595.32  283 597  C 283 598.68  281.68 600  280 600  " fill-rule="nonzero" fill="#797979" stroke="none" />
</svg>