<?xml version="1.0" encoding="utf-8"?>
<svg version="1.1" xmlns:xlink="http://www.w3.org/1999/xlink" width="13px" height="13px" viewBox="167 645 13 13" xmlns="http://www.w3.org/2000/svg">
  <path d="M 173.5 645  C 177.14 645  180 647.86  180 651.5  C 180 655.14  177.14 658  173.5 658  C 169.86 658  167 655.14  167 651.5  C 167 647.86  169.86 645  173.5 645  Z " fill-rule="nonzero" fill="rgba(255, 255, 255, 1)" stroke="none" class="fill" />
  <path d="M 173.5 645.5  C 176.86 645.5  179.5 648.14  179.5 651.5  C 179.5 654.86  176.86 657.5  173.5 657.5  C 170.14 657.5  167.5 654.86  167.5 651.5  C 167.5 648.14  170.14 645.5  173.5 645.5  Z " stroke-width="1" stroke-dasharray="0" stroke="rgba(121, 121, 121, 1)" fill="none" class="stroke" stroke-dashoffset="0.5" />
  <path d="M 173.5 654.75  C 171.68 654.75  170.25 653.32  170.25 651.5  C 170.25 649.68  171.68 648.25  173.5 648.25  C 175.32 648.25  176.75 649.68  176.75 651.5  C 176.75 653.32  175.32 654.75  173.5 654.75  " fill-rule="nonzero" fill="rgba(121, 121, 121, 1)" stroke="none" class="stroke btn_check" />
</svg>