<?xml version="1.0" encoding="utf-8"?>
<svg version="1.1" xmlns:xlink="http://www.w3.org/1999/xlink" width="13px" height="13px" viewBox="247 645 13 13" xmlns="http://www.w3.org/2000/svg">
  <path d="M 253.5 645  C 257.14 645  260 647.86  260 651.5  C 260 655.14  257.14 658  253.5 658  C 249.86 658  247 655.14  247 651.5  C 247 647.86  249.86 645  253.5 645  Z " fill-rule="nonzero" fill="rgba(240, 240, 240, 1)" stroke="none" class="fill" />
  <path d="M 253.5 645.5  C 256.86 645.5  259.5 648.14  259.5 651.5  C 259.5 654.86  256.86 657.5  253.5 657.5  C 250.14 657.5  247.5 654.86  247.5 651.5  C 247.5 648.14  250.14 645.5  253.5 645.5  Z " stroke-width="1" stroke-dasharray="0" stroke="rgba(121, 121, 121, 1)" fill="none" class="stroke" stroke-dashoffset="0.5" />
  <path d="M 253.5 654.75  C 251.68 654.75  250.25 653.32  250.25 651.5  C 250.25 649.68  251.68 648.25  253.5 648.25  C 255.32 648.25  256.75 649.68  256.75 651.5  C 256.75 653.32  255.32 654.75  253.5 654.75  " fill-rule="nonzero" fill="rgba(121, 121, 121, 1)" stroke="none" class="stroke btn_check" />
</svg>