<?xml version="1.0" encoding="utf-8"?>
<svg version="1.1" xmlns:xlink="http://www.w3.org/1999/xlink" width="19px" height="17px" xmlns="http://www.w3.org/2000/svg">
  <defs>
    <pattern id="BGPattern" patternUnits="userSpaceOnUse" alignment="0 0" imageRepeat="None" />
    <mask fill="white" id="Clip87">
      <path d="M 1.4615384615384617 13.053571428571427  L 1.4615384615384617 15.785714285714286  L 4.75 15.785714285714286  L 4.75 13.053571428571427  L 1.4615384615384617 13.053571428571427  Z M 5.48076923076923 13.053571428571427  L 5.48076923076923 15.785714285714286  L 9.134615384615385 15.785714285714286  L 9.134615384615385 13.053571428571427  L 5.48076923076923 13.053571428571427  Z M 1.4615384615384617 9.410714285714286  L 1.4615384615384617 12.446428571428573  L 4.75 12.446428571428573  L 4.75 9.410714285714286  L 1.4615384615384617 9.410714285714286  Z M 5.48076923076923 9.410714285714286  L 5.48076923076923 12.446428571428573  L 9.134615384615385 12.446428571428573  L 9.134615384615385 9.410714285714286  L 5.48076923076923 9.410714285714286  Z M 1.4615384615384617 6.07142857142857  L 1.4615384615384617 8.803571428571427  L 4.75 8.803571428571427  L 4.75 6.07142857142857  L 1.4615384615384617 6.07142857142857  Z M 9.865384615384617 13.053571428571427  L 9.865384615384617 15.785714285714286  L 13.51923076923077 15.785714285714286  L 13.51923076923077 13.053571428571427  L 9.865384615384617 13.053571428571427  Z M 5.48076923076923 6.07142857142857  L 5.48076923076923 8.803571428571427  L 9.134615384615385 8.803571428571427  L 9.134615384615385 6.07142857142857  L 5.48076923076923 6.07142857142857  Z M 14.25 13.053571428571427  L 14.25 15.785714285714286  L 17.53846153846154 15.785714285714286  L 17.53846153846154 13.053571428571427  L 14.25 13.053571428571427  Z M 9.865384615384617 9.410714285714286  L 9.865384615384617 12.446428571428573  L 13.51923076923077 12.446428571428573  L 13.51923076923077 9.410714285714286  L 9.865384615384617 9.410714285714286  Z M 5.737680288461538 4.4634486607142865  C 5.809995993589744 4.40336681547619  5.846153846153847 4.33221726190476  5.846153846153847 4.25  L 5.846153846153847 1.5178571428571432  C 5.846153846153847 1.435639880952381  5.809995993589744 1.3644903273809517  5.737680288461538 1.3044084821428568  C 5.665364583333334 1.24432663690476  5.579727564102564 1.2142857142857137  5.48076923076923 1.2142857142857137  L 4.75 1.2142857142857137  C 4.651041666666667 1.2142857142857137  4.565404647435898 1.24432663690476  4.4930889423076925 1.3044084821428568  C 4.420773237179486 1.3644903273809517  4.384615384615385 1.435639880952381  4.384615384615385 1.5178571428571432  L 4.384615384615385 4.25  C 4.384615384615385 4.33221726190476  4.420773237179486 4.40336681547619  4.4930889423076925 4.4634486607142865  C 4.565404647435898 4.523530505952381  4.651041666666667 4.55357142857143  4.75 4.55357142857143  L 5.48076923076923 4.55357142857143  C 5.579727564102564 4.55357142857143  5.665364583333334 4.523530505952381  5.737680288461538 4.4634486607142865  Z M 14.25 9.410714285714286  L 14.25 12.446428571428573  L 17.53846153846154 12.446428571428573  L 17.53846153846154 9.410714285714286  L 14.25 9.410714285714286  Z M 9.865384615384617 6.07142857142857  L 9.865384615384617 8.803571428571427  L 13.51923076923077 8.803571428571427  L 13.51923076923077 6.07142857142857  L 9.865384615384617 6.07142857142857  Z M 14.25 6.07142857142857  L 14.25 8.803571428571427  L 17.53846153846154 8.803571428571427  L 17.53846153846154 6.07142857142857  L 14.25 6.07142857142857  Z M 14.506911057692307 4.4634486607142865  C 14.579226762820515 4.40336681547619  14.615384615384617 4.33221726190476  14.615384615384617 4.25  L 14.615384615384617 1.5178571428571432  C 14.615384615384617 1.435639880952381  14.579226762820515 1.3644903273809517  14.506911057692307 1.3044084821428568  C 14.434595352564104 1.24432663690476  14.348958333333334 1.2142857142857137  14.25 1.2142857142857137  L 13.51923076923077 1.2142857142857137  C 13.420272435897438 1.2142857142857137  13.334635416666668 1.24432663690476  13.26231971153846 1.3044084821428568  C 13.190004006410257 1.3644903273809517  13.153846153846153 1.435639880952381  13.153846153846153 1.5178571428571432  L 13.153846153846153 4.25  C 13.153846153846153 4.33221726190476  13.190004006410257 4.40336681547619  13.26231971153846 4.4634486607142865  C 13.334635416666668 4.523530505952381  13.420272435897438 4.55357142857143  13.51923076923077 4.55357142857143  L 14.25 4.55357142857143  C 14.348958333333334 4.55357142857143  14.434595352564104 4.523530505952381  14.506911057692307 4.4634486607142865  Z M 18.56610576923077 2.7890625  C 18.85536858974359 3.029389880952381  19 3.313988095238095  19 3.6428571428571432  L 19 15.785714285714286  C 19 16.114583333333336  18.85536858974359 16.399181547619047  18.56610576923077 16.63950892857143  C 18.27684294871795 16.87983630952381  17.934294871794872 17  17.53846153846154 17  L 1.4615384615384617 17  C 1.0657051282051284 17  0.7231570512820513 16.87983630952381  0.4338942307692307 16.63950892857143  C 0.14463141025641024 16.399181547619047  0 16.114583333333336  0 15.785714285714286  L 0 3.6428571428571432  C 0 3.313988095238095  0.14463141025641024 3.029389880952381  0.4338942307692307 2.7890625  C 0.7231570512820513 2.548735119047617  1.0657051282051284 2.4285714285714293  1.4615384615384617 2.4285714285714293  L 2.9230769230769234 2.4285714285714293  L 2.9230769230769234 1.5178571428571432  C 2.9230769230769234 1.1004464285714293  3.101963141025641 0.7431175595238085  3.4597355769230766 0.44587053571428625  C 3.8175080128205137 0.14862351190476208  4.247596153846154 0  4.75 0  L 5.48076923076923 0  C 5.983173076923077 0  6.413261217948719 0.14862351190476208  6.771033653846153 0.44587053571428625  C 7.12880608974359 0.7431175595238085  7.307692307692308 1.1004464285714293  7.307692307692308 1.5178571428571432  L 7.307692307692308 2.4285714285714293  L 11.692307692307693 2.4285714285714293  L 11.692307692307693 1.5178571428571432  C 11.692307692307693 1.1004464285714293  11.87119391025641 0.7431175595238085  12.228966346153847 0.44587053571428625  C 12.586738782051285 0.14862351190476208  13.016826923076923 0  13.51923076923077 0  L 14.25 0  C 14.752403846153847 0  15.182491987179487 0.14862351190476208  15.540264423076923 0.44587053571428625  C 15.898036858974361 0.7431175595238085  16.076923076923077 1.1004464285714293  16.076923076923077 1.5178571428571432  L 16.076923076923077 2.4285714285714293  L 17.53846153846154 2.4285714285714293  C 17.934294871794872 2.4285714285714293  18.27684294871795 2.548735119047617  18.56610576923077 2.7890625  Z " fill-rule="evenodd" />
    </mask>
  </defs>
  <g transform="matrix(1 0 0 1 -459 -536 )">
    <path d="M 1.4615384615384617 13.053571428571427  L 1.4615384615384617 15.785714285714286  L 4.75 15.785714285714286  L 4.75 13.053571428571427  L 1.4615384615384617 13.053571428571427  Z M 5.48076923076923 13.053571428571427  L 5.48076923076923 15.785714285714286  L 9.134615384615385 15.785714285714286  L 9.134615384615385 13.053571428571427  L 5.48076923076923 13.053571428571427  Z M 1.4615384615384617 9.410714285714286  L 1.4615384615384617 12.446428571428573  L 4.75 12.446428571428573  L 4.75 9.410714285714286  L 1.4615384615384617 9.410714285714286  Z M 5.48076923076923 9.410714285714286  L 5.48076923076923 12.446428571428573  L 9.134615384615385 12.446428571428573  L 9.134615384615385 9.410714285714286  L 5.48076923076923 9.410714285714286  Z M 1.4615384615384617 6.07142857142857  L 1.4615384615384617 8.803571428571427  L 4.75 8.803571428571427  L 4.75 6.07142857142857  L 1.4615384615384617 6.07142857142857  Z M 9.865384615384617 13.053571428571427  L 9.865384615384617 15.785714285714286  L 13.51923076923077 15.785714285714286  L 13.51923076923077 13.053571428571427  L 9.865384615384617 13.053571428571427  Z M 5.48076923076923 6.07142857142857  L 5.48076923076923 8.803571428571427  L 9.134615384615385 8.803571428571427  L 9.134615384615385 6.07142857142857  L 5.48076923076923 6.07142857142857  Z M 14.25 13.053571428571427  L 14.25 15.785714285714286  L 17.53846153846154 15.785714285714286  L 17.53846153846154 13.053571428571427  L 14.25 13.053571428571427  Z M 9.865384615384617 9.410714285714286  L 9.865384615384617 12.446428571428573  L 13.51923076923077 12.446428571428573  L 13.51923076923077 9.410714285714286  L 9.865384615384617 9.410714285714286  Z M 5.737680288461538 4.4634486607142865  C 5.809995993589744 4.40336681547619  5.846153846153847 4.33221726190476  5.846153846153847 4.25  L 5.846153846153847 1.5178571428571432  C 5.846153846153847 1.435639880952381  5.809995993589744 1.3644903273809517  5.737680288461538 1.3044084821428568  C 5.665364583333334 1.24432663690476  5.579727564102564 1.2142857142857137  5.48076923076923 1.2142857142857137  L 4.75 1.2142857142857137  C 4.651041666666667 1.2142857142857137  4.565404647435898 1.24432663690476  4.4930889423076925 1.3044084821428568  C 4.420773237179486 1.3644903273809517  4.384615384615385 1.435639880952381  4.384615384615385 1.5178571428571432  L 4.384615384615385 4.25  C 4.384615384615385 4.33221726190476  4.420773237179486 4.40336681547619  4.4930889423076925 4.4634486607142865  C 4.565404647435898 4.523530505952381  4.651041666666667 4.55357142857143  4.75 4.55357142857143  L 5.48076923076923 4.55357142857143  C 5.579727564102564 4.55357142857143  5.665364583333334 4.523530505952381  5.737680288461538 4.4634486607142865  Z M 14.25 9.410714285714286  L 14.25 12.446428571428573  L 17.53846153846154 12.446428571428573  L 17.53846153846154 9.410714285714286  L 14.25 9.410714285714286  Z M 9.865384615384617 6.07142857142857  L 9.865384615384617 8.803571428571427  L 13.51923076923077 8.803571428571427  L 13.51923076923077 6.07142857142857  L 9.865384615384617 6.07142857142857  Z M 14.25 6.07142857142857  L 14.25 8.803571428571427  L 17.53846153846154 8.803571428571427  L 17.53846153846154 6.07142857142857  L 14.25 6.07142857142857  Z M 14.506911057692307 4.4634486607142865  C 14.579226762820515 4.40336681547619  14.615384615384617 4.33221726190476  14.615384615384617 4.25  L 14.615384615384617 1.5178571428571432  C 14.615384615384617 1.435639880952381  14.579226762820515 1.3644903273809517  14.506911057692307 1.3044084821428568  C 14.434595352564104 1.24432663690476  14.348958333333334 1.2142857142857137  14.25 1.2142857142857137  L 13.51923076923077 1.2142857142857137  C 13.420272435897438 1.2142857142857137  13.334635416666668 1.24432663690476  13.26231971153846 1.3044084821428568  C 13.190004006410257 1.3644903273809517  13.153846153846153 1.435639880952381  13.153846153846153 1.5178571428571432  L 13.153846153846153 4.25  C 13.153846153846153 4.33221726190476  13.190004006410257 4.40336681547619  13.26231971153846 4.4634486607142865  C 13.334635416666668 4.523530505952381  13.420272435897438 4.55357142857143  13.51923076923077 4.55357142857143  L 14.25 4.55357142857143  C 14.348958333333334 4.55357142857143  14.434595352564104 4.523530505952381  14.506911057692307 4.4634486607142865  Z M 18.56610576923077 2.7890625  C 18.85536858974359 3.029389880952381  19 3.313988095238095  19 3.6428571428571432  L 19 15.785714285714286  C 19 16.114583333333336  18.85536858974359 16.399181547619047  18.56610576923077 16.63950892857143  C 18.27684294871795 16.87983630952381  17.934294871794872 17  17.53846153846154 17  L 1.4615384615384617 17  C 1.0657051282051284 17  0.7231570512820513 16.87983630952381  0.4338942307692307 16.63950892857143  C 0.14463141025641024 16.399181547619047  0 16.114583333333336  0 15.785714285714286  L 0 3.6428571428571432  C 0 3.313988095238095  0.14463141025641024 3.029389880952381  0.4338942307692307 2.7890625  C 0.7231570512820513 2.548735119047617  1.0657051282051284 2.4285714285714293  1.4615384615384617 2.4285714285714293  L 2.9230769230769234 2.4285714285714293  L 2.9230769230769234 1.5178571428571432  C 2.9230769230769234 1.1004464285714293  3.101963141025641 0.7431175595238085  3.4597355769230766 0.44587053571428625  C 3.8175080128205137 0.14862351190476208  4.247596153846154 0  4.75 0  L 5.48076923076923 0  C 5.983173076923077 0  6.413261217948719 0.14862351190476208  6.771033653846153 0.44587053571428625  C 7.12880608974359 0.7431175595238085  7.307692307692308 1.1004464285714293  7.307692307692308 1.5178571428571432  L 7.307692307692308 2.4285714285714293  L 11.692307692307693 2.4285714285714293  L 11.692307692307693 1.5178571428571432  C 11.692307692307693 1.1004464285714293  11.87119391025641 0.7431175595238085  12.228966346153847 0.44587053571428625  C 12.586738782051285 0.14862351190476208  13.016826923076923 0  13.51923076923077 0  L 14.25 0  C 14.752403846153847 0  15.182491987179487 0.14862351190476208  15.540264423076923 0.44587053571428625  C 15.898036858974361 0.7431175595238085  16.076923076923077 1.1004464285714293  16.076923076923077 1.5178571428571432  L 16.076923076923077 2.4285714285714293  L 17.53846153846154 2.4285714285714293  C 17.934294871794872 2.4285714285714293  18.27684294871795 2.548735119047617  18.56610576923077 2.7890625  Z " fill-rule="nonzero" fill="rgba(127, 127, 127, 1)" stroke="none" transform="matrix(1 0 0 1 459 536 )" class="fill" />
    <path d="M 1.4615384615384617 13.053571428571427  L 1.4615384615384617 15.785714285714286  L 4.75 15.785714285714286  L 4.75 13.053571428571427  L 1.4615384615384617 13.053571428571427  Z " stroke-width="0" stroke-dasharray="0" stroke="rgba(215, 215, 215, 1)" fill="none" transform="matrix(1 0 0 1 459 536 )" class="stroke" mask="url(#Clip87)" />
    <path d="M 5.48076923076923 13.053571428571427  L 5.48076923076923 15.785714285714286  L 9.134615384615385 15.785714285714286  L 9.134615384615385 13.053571428571427  L 5.48076923076923 13.053571428571427  Z " stroke-width="0" stroke-dasharray="0" stroke="rgba(215, 215, 215, 1)" fill="none" transform="matrix(1 0 0 1 459 536 )" class="stroke" mask="url(#Clip87)" />
    <path d="M 1.4615384615384617 9.410714285714286  L 1.4615384615384617 12.446428571428573  L 4.75 12.446428571428573  L 4.75 9.410714285714286  L 1.4615384615384617 9.410714285714286  Z " stroke-width="0" stroke-dasharray="0" stroke="rgba(215, 215, 215, 1)" fill="none" transform="matrix(1 0 0 1 459 536 )" class="stroke" mask="url(#Clip87)" />
    <path d="M 5.48076923076923 9.410714285714286  L 5.48076923076923 12.446428571428573  L 9.134615384615385 12.446428571428573  L 9.134615384615385 9.410714285714286  L 5.48076923076923 9.410714285714286  Z " stroke-width="0" stroke-dasharray="0" stroke="rgba(215, 215, 215, 1)" fill="none" transform="matrix(1 0 0 1 459 536 )" class="stroke" mask="url(#Clip87)" />
    <path d="M 1.4615384615384617 6.07142857142857  L 1.4615384615384617 8.803571428571427  L 4.75 8.803571428571427  L 4.75 6.07142857142857  L 1.4615384615384617 6.07142857142857  Z " stroke-width="0" stroke-dasharray="0" stroke="rgba(215, 215, 215, 1)" fill="none" transform="matrix(1 0 0 1 459 536 )" class="stroke" mask="url(#Clip87)" />
    <path d="M 9.865384615384617 13.053571428571427  L 9.865384615384617 15.785714285714286  L 13.51923076923077 15.785714285714286  L 13.51923076923077 13.053571428571427  L 9.865384615384617 13.053571428571427  Z " stroke-width="0" stroke-dasharray="0" stroke="rgba(215, 215, 215, 1)" fill="none" transform="matrix(1 0 0 1 459 536 )" class="stroke" mask="url(#Clip87)" />
    <path d="M 5.48076923076923 6.07142857142857  L 5.48076923076923 8.803571428571427  L 9.134615384615385 8.803571428571427  L 9.134615384615385 6.07142857142857  L 5.48076923076923 6.07142857142857  Z " stroke-width="0" stroke-dasharray="0" stroke="rgba(215, 215, 215, 1)" fill="none" transform="matrix(1 0 0 1 459 536 )" class="stroke" mask="url(#Clip87)" />
    <path d="M 14.25 13.053571428571427  L 14.25 15.785714285714286  L 17.53846153846154 15.785714285714286  L 17.53846153846154 13.053571428571427  L 14.25 13.053571428571427  Z " stroke-width="0" stroke-dasharray="0" stroke="rgba(215, 215, 215, 1)" fill="none" transform="matrix(1 0 0 1 459 536 )" class="stroke" mask="url(#Clip87)" />
    <path d="M 9.865384615384617 9.410714285714286  L 9.865384615384617 12.446428571428573  L 13.51923076923077 12.446428571428573  L 13.51923076923077 9.410714285714286  L 9.865384615384617 9.410714285714286  Z " stroke-width="0" stroke-dasharray="0" stroke="rgba(215, 215, 215, 1)" fill="none" transform="matrix(1 0 0 1 459 536 )" class="stroke" mask="url(#Clip87)" />
    <path d="M 5.737680288461538 4.4634486607142865  C 5.809995993589744 4.40336681547619  5.846153846153847 4.33221726190476  5.846153846153847 4.25  L 5.846153846153847 1.5178571428571432  C 5.846153846153847 1.435639880952381  5.809995993589744 1.3644903273809517  5.737680288461538 1.3044084821428568  C 5.665364583333334 1.24432663690476  5.579727564102564 1.2142857142857137  5.48076923076923 1.2142857142857137  L 4.75 1.2142857142857137  C 4.651041666666667 1.2142857142857137  4.565404647435898 1.24432663690476  4.4930889423076925 1.3044084821428568  C 4.420773237179486 1.3644903273809517  4.384615384615385 1.435639880952381  4.384615384615385 1.5178571428571432  L 4.384615384615385 4.25  C 4.384615384615385 4.33221726190476  4.420773237179486 4.40336681547619  4.4930889423076925 4.4634486607142865  C 4.565404647435898 4.523530505952381  4.651041666666667 4.55357142857143  4.75 4.55357142857143  L 5.48076923076923 4.55357142857143  C 5.579727564102564 4.55357142857143  5.665364583333334 4.523530505952381  5.737680288461538 4.4634486607142865  Z " stroke-width="0" stroke-dasharray="0" stroke="rgba(215, 215, 215, 1)" fill="none" transform="matrix(1 0 0 1 459 536 )" class="stroke" mask="url(#Clip87)" />
    <path d="M 14.25 9.410714285714286  L 14.25 12.446428571428573  L 17.53846153846154 12.446428571428573  L 17.53846153846154 9.410714285714286  L 14.25 9.410714285714286  Z " stroke-width="0" stroke-dasharray="0" stroke="rgba(215, 215, 215, 1)" fill="none" transform="matrix(1 0 0 1 459 536 )" class="stroke" mask="url(#Clip87)" />
    <path d="M 9.865384615384617 6.07142857142857  L 9.865384615384617 8.803571428571427  L 13.51923076923077 8.803571428571427  L 13.51923076923077 6.07142857142857  L 9.865384615384617 6.07142857142857  Z " stroke-width="0" stroke-dasharray="0" stroke="rgba(215, 215, 215, 1)" fill="none" transform="matrix(1 0 0 1 459 536 )" class="stroke" mask="url(#Clip87)" />
    <path d="M 14.25 6.07142857142857  L 14.25 8.803571428571427  L 17.53846153846154 8.803571428571427  L 17.53846153846154 6.07142857142857  L 14.25 6.07142857142857  Z " stroke-width="0" stroke-dasharray="0" stroke="rgba(215, 215, 215, 1)" fill="none" transform="matrix(1 0 0 1 459 536 )" class="stroke" mask="url(#Clip87)" />
    <path d="M 14.506911057692307 4.4634486607142865  C 14.579226762820515 4.40336681547619  14.615384615384617 4.33221726190476  14.615384615384617 4.25  L 14.615384615384617 1.5178571428571432  C 14.615384615384617 1.435639880952381  14.579226762820515 1.3644903273809517  14.506911057692307 1.3044084821428568  C 14.434595352564104 1.24432663690476  14.348958333333334 1.2142857142857137  14.25 1.2142857142857137  L 13.51923076923077 1.2142857142857137  C 13.420272435897438 1.2142857142857137  13.334635416666668 1.24432663690476  13.26231971153846 1.3044084821428568  C 13.190004006410257 1.3644903273809517  13.153846153846153 1.435639880952381  13.153846153846153 1.5178571428571432  L 13.153846153846153 4.25  C 13.153846153846153 4.33221726190476  13.190004006410257 4.40336681547619  13.26231971153846 4.4634486607142865  C 13.334635416666668 4.523530505952381  13.420272435897438 4.55357142857143  13.51923076923077 4.55357142857143  L 14.25 4.55357142857143  C 14.348958333333334 4.55357142857143  14.434595352564104 4.523530505952381  14.506911057692307 4.4634486607142865  Z " stroke-width="0" stroke-dasharray="0" stroke="rgba(215, 215, 215, 1)" fill="none" transform="matrix(1 0 0 1 459 536 )" class="stroke" mask="url(#Clip87)" />
    <path d="M 18.56610576923077 2.7890625  C 18.85536858974359 3.029389880952381  19 3.313988095238095  19 3.6428571428571432  L 19 15.785714285714286  C 19 16.114583333333336  18.85536858974359 16.399181547619047  18.56610576923077 16.63950892857143  C 18.27684294871795 16.87983630952381  17.934294871794872 17  17.53846153846154 17  L 1.4615384615384617 17  C 1.0657051282051284 17  0.7231570512820513 16.87983630952381  0.4338942307692307 16.63950892857143  C 0.14463141025641024 16.399181547619047  0 16.114583333333336  0 15.785714285714286  L 0 3.6428571428571432  C 0 3.313988095238095  0.14463141025641024 3.029389880952381  0.4338942307692307 2.7890625  C 0.7231570512820513 2.548735119047617  1.0657051282051284 2.4285714285714293  1.4615384615384617 2.4285714285714293  L 2.9230769230769234 2.4285714285714293  L 2.9230769230769234 1.5178571428571432  C 2.9230769230769234 1.1004464285714293  3.101963141025641 0.7431175595238085  3.4597355769230766 0.44587053571428625  C 3.8175080128205137 0.14862351190476208  4.247596153846154 0  4.75 0  L 5.48076923076923 0  C 5.983173076923077 0  6.413261217948719 0.14862351190476208  6.771033653846153 0.44587053571428625  C 7.12880608974359 0.7431175595238085  7.307692307692308 1.1004464285714293  7.307692307692308 1.5178571428571432  L 7.307692307692308 2.4285714285714293  L 11.692307692307693 2.4285714285714293  L 11.692307692307693 1.5178571428571432  C 11.692307692307693 1.1004464285714293  11.87119391025641 0.7431175595238085  12.228966346153847 0.44587053571428625  C 12.586738782051285 0.14862351190476208  13.016826923076923 0  13.51923076923077 0  L 14.25 0  C 14.752403846153847 0  15.182491987179487 0.14862351190476208  15.540264423076923 0.44587053571428625  C 15.898036858974361 0.7431175595238085  16.076923076923077 1.1004464285714293  16.076923076923077 1.5178571428571432  L 16.076923076923077 2.4285714285714293  L 17.53846153846154 2.4285714285714293  C 17.934294871794872 2.4285714285714293  18.27684294871795 2.548735119047617  18.56610576923077 2.7890625  Z " stroke-width="0" stroke-dasharray="0" stroke="rgba(215, 215, 215, 1)" fill="none" transform="matrix(1 0 0 1 459 536 )" class="stroke" mask="url(#Clip87)" />
  </g>
</svg>