<?xml version="1.0" encoding="utf-8"?>
<svg version="1.1" xmlns:xlink="http://www.w3.org/1999/xlink" width="252px" height="14px" xmlns="http://www.w3.org/2000/svg">
  <defs>
    <pattern id="BGPattern" patternUnits="userSpaceOnUse" alignment="0 0" imageRepeat="None" />
    <mask fill="white" id="Clip94">
      <path d="M 0 14  L 0 0  L 252 0  L 252 14  L 232.9384615384628 14  L 133.43076923076694 14  L 72.69230769230766 14  L 64.93846153846272 14  L 27.46153846153845 14  L 126 0  L 56.611785297554036 7.7098016336051245  L 50.87782963827543 8.346907817969402  L 0 14  Z " fill-rule="evenodd" />
    </mask>
  </defs>
  <g transform="matrix(1 0 0 1 -522 -459 )">
    <path d="M 0 14  L 0 0  L 252 0  L 252 14  L 232.9384615384628 14  L 133.43076923076694 14  L 72.69230769230766 14  L 64.93846153846272 14  L 27.46153846153845 14  L 126 0  L 56.611785297554036 7.7098016336051245  L 50.87782963827543 8.346907817969402  L 0 14  Z " fill-rule="nonzero" fill="rgba(255, 255, 255, 1)" stroke="none" transform="matrix(1 0 0 1 522 459 )" class="fill" />
    <path d="M 0 14  L 0 0  L 252 0  L 252 14  L 232.9384615384628 14  L 133.43076923076694 14  L 72.69230769230766 14  L 64.93846153846272 14  L 27.46153846153845 14  L 126 0  L 56.611785297554036 7.7098016336051245  L 50.87782963827543 8.346907817969402  L 0 14  Z " stroke-width="0" stroke-dasharray="0" stroke="rgba(215, 215, 215, 1)" fill="none" transform="matrix(1 0 0 1 522 459 )" class="stroke" mask="url(#Clip94)" />
  </g>
</svg>