<?xml version="1.0" encoding="utf-8"?>
<svg version="1.1" xmlns:xlink="http://www.w3.org/1999/xlink" width="13px" height="13px" viewBox="386 579 13 13" xmlns="http://www.w3.org/2000/svg">
  <path d="M 392.5 579  C 396.14 579  399 581.86  399 585.5  C 399 589.14  396.14 592  392.5 592  C 388.86 592  386 589.14  386 585.5  C 386 581.86  388.86 579  392.5 579  Z " fill-rule="nonzero" fill="rgba(255, 255, 255, 1)" stroke="none" class="fill" />
  <path d="M 392.5 579.5  C 395.86 579.5  398.5 582.14  398.5 585.5  C 398.5 588.86  395.86 591.5  392.5 591.5  C 389.14 591.5  386.5 588.86  386.5 585.5  C 386.5 582.14  389.14 579.5  392.5 579.5  Z " stroke-width="1" stroke-dasharray="0" stroke="rgba(121, 121, 121, 1)" fill="none" class="stroke" stroke-dashoffset="0.5" />
  <path d="M 392.5 588.75  C 390.68 588.75  389.25 587.32  389.25 585.5  C 389.25 583.68  390.68 582.25  392.5 582.25  C 394.32 582.25  395.75 583.68  395.75 585.5  C 395.75 587.32  394.32 588.75  392.5 588.75  " fill-rule="nonzero" fill="rgba(121, 121, 121, 1)" stroke="none" class="stroke btn_check" />
</svg>