<?xml version="1.0" encoding="utf-8"?>
<svg version="1.1" xmlns:xlink="http://www.w3.org/1999/xlink" width="13px" height="13px" viewBox="328 579 13 13" xmlns="http://www.w3.org/2000/svg">
  <path d="M 334.5 579  C 338.14 579  341 581.86  341 585.5  C 341 589.14  338.14 592  334.5 592  C 330.86 592  328 589.14  328 585.5  C 328 581.86  330.86 579  334.5 579  Z " fill-rule="nonzero" fill="rgba(255, 255, 255, 1)" stroke="none" class="fill" />
  <path d="M 334.5 579.5  C 337.86 579.5  340.5 582.14  340.5 585.5  C 340.5 588.86  337.86 591.5  334.5 591.5  C 331.14 591.5  328.5 588.86  328.5 585.5  C 328.5 582.14  331.14 579.5  334.5 579.5  Z " stroke-width="1" stroke-dasharray="0" stroke="rgba(121, 121, 121, 1)" fill="none" class="stroke" stroke-dashoffset="0.5" />
  <path d="M 334.5 588.75  C 332.68 588.75  331.25 587.32  331.25 585.5  C 331.25 583.68  332.68 582.25  334.5 582.25  C 336.32 582.25  337.75 583.68  337.75 585.5  C 337.75 587.32  336.32 588.75  334.5 588.75  " fill-rule="nonzero" fill="rgba(121, 121, 121, 1)" stroke="none" class="stroke btn_check" />
</svg>