<?xml version="1.0" encoding="utf-8"?>
<svg version="1.1" xmlns:xlink="http://www.w3.org/1999/xlink" width="35px" height="19px" xmlns="http://www.w3.org/2000/svg">
  <defs>
    <pattern id="BGPattern" patternUnits="userSpaceOnUse" alignment="0 0" imageRepeat="None" />
    <mask fill="white" id="Clip10">
      <path d="M 34.87726384943183 9.450030940594061  C 34.873379794034086 4.254718440594062  30.305730646306817 0.044090346534654795  24.669966264204543 0  L 10.279541015625002 0  C 4.643776633522728 0.04409034653465346  0.07224343039772763 4.258392636138614  0.07224343039772763 9.450030940594061  C 0.07224343039772763 14.64166924504951  4.6437766335227275 18.855971534653463  10.279541015625002 18.855971534653463  L 24.669966264204543 18.855971534653463  C 30.305730646306817 18.855971534653463  34.87726384943183 14.641669245049505  34.87726384943183 9.450030940594061  Z M 32.38758433948864 9.450030940594061  C 32.38758433948864 13.344678217821784  29.051180752840914 16.504486386138613  24.930197975852273 16.504486386138613  C 20.813099254261367 16.504486386138613  17.472811612215914 13.344678217821784  17.472811612215914 9.450030940594061  C 17.472811612215914 5.555383663366339  20.813099254261367 2.3955754950495063  24.930197975852273 2.3955754950495063  C 29.047296697443183 2.3955754950495063  32.38758433948864 5.555383663366339  32.38758433948864 9.450030940594061  Z " fill-rule="evenodd" />
    </mask>
  </defs>
  <g transform="matrix(1 0 0 1 -904 -270 )">
    <path d="M 34.87726384943183 9.450030940594061  C 34.873379794034086 4.254718440594062  30.305730646306817 0.044090346534654795  24.669966264204543 0  L 10.279541015625002 0  C 4.643776633522728 0.04409034653465346  0.07224343039772763 4.258392636138614  0.07224343039772763 9.450030940594061  C 0.07224343039772763 14.64166924504951  4.6437766335227275 18.855971534653463  10.279541015625002 18.855971534653463  L 24.669966264204543 18.855971534653463  C 30.305730646306817 18.855971534653463  34.87726384943183 14.641669245049505  34.87726384943183 9.450030940594061  Z M 32.38758433948864 9.450030940594061  C 32.38758433948864 13.344678217821784  29.051180752840914 16.504486386138613  24.930197975852273 16.504486386138613  C 20.813099254261367 16.504486386138613  17.472811612215914 13.344678217821784  17.472811612215914 9.450030940594061  C 17.472811612215914 5.555383663366339  20.813099254261367 2.3955754950495063  24.930197975852273 2.3955754950495063  C 29.047296697443183 2.3955754950495063  32.38758433948864 5.555383663366339  32.38758433948864 9.450030940594061  Z " fill-rule="nonzero" fill="rgba(170, 170, 170, 1)" stroke="none" transform="matrix(1 0 0 1 904 270 )" class="fill" />
    <path d="M 34.87726384943183 9.450030940594061  C 34.873379794034086 4.254718440594062  30.305730646306817 0.044090346534654795  24.669966264204543 0  L 10.279541015625002 0  C 4.643776633522728 0.04409034653465346  0.07224343039772763 4.258392636138614  0.07224343039772763 9.450030940594061  C 0.07224343039772763 14.64166924504951  4.6437766335227275 18.855971534653463  10.279541015625002 18.855971534653463  L 24.669966264204543 18.855971534653463  C 30.305730646306817 18.855971534653463  34.87726384943183 14.641669245049505  34.87726384943183 9.450030940594061  Z " stroke-width="0" stroke-dasharray="0" stroke="rgba(255, 255, 255, 0)" fill="none" transform="matrix(1 0 0 1 904 270 )" class="stroke" mask="url(#Clip10)" />
    <path d="M 32.38758433948864 9.450030940594061  C 32.38758433948864 13.344678217821784  29.051180752840914 16.504486386138613  24.930197975852273 16.504486386138613  C 20.813099254261367 16.504486386138613  17.472811612215914 13.344678217821784  17.472811612215914 9.450030940594061  C 17.472811612215914 5.555383663366339  20.813099254261367 2.3955754950495063  24.930197975852273 2.3955754950495063  C 29.047296697443183 2.3955754950495063  32.38758433948864 5.555383663366339  32.38758433948864 9.450030940594061  Z " stroke-width="0" stroke-dasharray="0" stroke="rgba(255, 255, 255, 0)" fill="none" transform="matrix(1 0 0 1 904 270 )" class="stroke" mask="url(#Clip10)" />
  </g>
</svg>