<?xml version="1.0" encoding="utf-8"?>
<svg version="1.1" xmlns:xlink="http://www.w3.org/1999/xlink" width="12px" height="12px" viewBox="300 193  12 12" xmlns="http://www.w3.org/2000/svg">
  <path d="M 306 193  C 309.36 193  312 195.64  312 199  C 312 202.36  309.36 205  306 205  C 302.64 205  300 202.36  300 199  C 300 195.64  302.64 193  306 193  Z " fill-rule="nonzero" fill="#ffffff" stroke="none" />
  <path d="M 306 193.5  C 309.08 193.5  311.5 195.92  311.5 199  C 311.5 202.08  309.08 204.5  306 204.5  C 302.92 204.5  300.5 202.08  300.5 199  C 300.5 195.92  302.92 193.5  306 193.5  Z " stroke-width="1" stroke="#797979" fill="none" />
  <path d="M 306 202  C 304.32 202  303 200.68  303 199  C 303 197.32  304.32 196  306 196  C 307.68 196  309 197.32  309 199  C 309 200.68  307.68 202  306 202  " fill-rule="nonzero" fill="#797979" stroke="none" />
</svg>