<?xml version="1.0" encoding="utf-8"?>
<svg version="1.1" xmlns:xlink="http://www.w3.org/1999/xlink" width="12px" height="12px" viewBox="290 697 12 12" xmlns="http://www.w3.org/2000/svg">
  <path d="M 296 697  C 299.36 697  302 699.64  302 703  C 302 706.36  299.36 709  296 709  C 292.64 709  290 706.36  290 703  C 290 699.64  292.64 697  296 697  Z " fill-rule="nonzero" fill="rgba(255, 255, 255, 1)" stroke="none" class="fill" />
  <path d="M 296 697.5  C 299.08 697.5  301.5 699.92  301.5 703  C 301.5 706.08  299.08 708.5  296 708.5  C 292.92 708.5  290.5 706.08  290.5 703  C 290.5 699.92  292.92 697.5  296 697.5  Z " stroke-width="1" stroke-dasharray="0" stroke="rgba(121, 121, 121, 1)" fill="none" class="stroke" stroke-dashoffset="0.5" />
  <path d="M 296 706  C 294.32 706  293 704.68  293 703  C 293 701.32  294.32 700  296 700  C 297.68 700  299 701.32  299 703  C 299 704.68  297.68 706  296 706  " fill-rule="nonzero" fill="rgba(121, 121, 121, 1)" stroke="none" class="stroke btn_check" />
</svg>