<?xml version="1.0" encoding="utf-8"?>
<svg version="1.1" xmlns:xlink="http://www.w3.org/1999/xlink" width="12px" height="12px" viewBox="180 697 12 12" xmlns="http://www.w3.org/2000/svg">
  <path d="M 186 697  C 189.36 697  192 699.64  192 703  C 192 706.36  189.36 709  186 709  C 182.64 709  180 706.36  180 703  C 180 699.64  182.64 697  186 697  Z " fill-rule="nonzero" fill="rgba(255, 255, 255, 1)" stroke="none" class="fill" />
  <path d="M 186 697.5  C 189.08 697.5  191.5 699.92  191.5 703  C 191.5 706.08  189.08 708.5  186 708.5  C 182.92 708.5  180.5 706.08  180.5 703  C 180.5 699.92  182.92 697.5  186 697.5  Z " stroke-width="1" stroke-dasharray="0" stroke="rgba(121, 121, 121, 1)" fill="none" class="stroke" stroke-dashoffset="0.5" />
  <path d="M 186 706  C 184.32 706  183 704.68  183 703  C 183 701.32  184.32 700  186 700  C 187.68 700  189 701.32  189 703  C 189 704.68  187.68 706  186 706  " fill-rule="nonzero" fill="rgba(121, 121, 121, 1)" stroke="none" class="stroke btn_check" />
</svg>