<?xml version="1.0" encoding="utf-8"?>
<svg version="1.1" xmlns:xlink="http://www.w3.org/1999/xlink" width="12px" height="12px" viewBox="180 900 12 12" xmlns="http://www.w3.org/2000/svg">
  <path d="M 186 900  C 189.36 900  192 902.64  192 906  C 192 909.36  189.36 912  186 912  C 182.64 912  180 909.36  180 906  C 180 902.64  182.64 900  186 900  Z " fill-rule="nonzero" fill="rgba(255, 255, 255, 1)" stroke="none" class="fill" />
  <path d="M 186 900.5  C 189.08 900.5  191.5 902.92  191.5 906  C 191.5 909.08  189.08 911.5  186 911.5  C 182.92 911.5  180.5 909.08  180.5 906  C 180.5 902.92  182.92 900.5  186 900.5  Z " stroke-width="1" stroke-dasharray="0" stroke="rgba(121, 121, 121, 1)" fill="none" class="stroke" stroke-dashoffset="0.5" />
  <path d="M 186 909  C 184.32 909  183 907.68  183 906  C 183 904.32  184.32 903  186 903  C 187.68 903  189 904.32  189 906  C 189 907.68  187.68 909  186 909  " fill-rule="nonzero" fill="rgba(121, 121, 121, 1)" stroke="none" class="stroke btn_check" />
</svg>