<?xml version="1.0" encoding="utf-8"?>
<svg version="1.1" xmlns:xlink="http://www.w3.org/1999/xlink" width="12px" height="12px" viewBox="180 927 12 12" xmlns="http://www.w3.org/2000/svg">
  <path d="M 186 927  C 189.36 927  192 929.64  192 933  C 192 936.36  189.36 939  186 939  C 182.64 939  180 936.36  180 933  C 180 929.64  182.64 927  186 927  Z " fill-rule="nonzero" fill="rgba(240, 240, 240, 1)" stroke="none" class="fill" />
  <path d="M 186 927.5  C 189.08 927.5  191.5 929.92  191.5 933  C 191.5 936.08  189.08 938.5  186 938.5  C 182.92 938.5  180.5 936.08  180.5 933  C 180.5 929.92  182.92 927.5  186 927.5  Z " stroke-width="1" stroke-dasharray="0" stroke="rgba(121, 121, 121, 1)" fill="none" class="stroke" stroke-dashoffset="0.5" />
  <path d="M 186 936  C 184.32 936  183 934.68  183 933  C 183 931.32  184.32 930  186 930  C 187.68 930  189 931.32  189 933  C 189 934.68  187.68 936  186 936  " fill-rule="nonzero" fill="rgba(121, 121, 121, 1)" stroke="none" class="stroke btn_check" />
</svg>