<?xml version="1.0" encoding="utf-8"?>
<svg version="1.1" xmlns:xlink="http://www.w3.org/1999/xlink" width="12px" height="12px" viewBox="180 982 12 12" xmlns="http://www.w3.org/2000/svg">
  <path d="M 186 982  C 189.36 982  192 984.64  192 988  C 192 991.36  189.36 994  186 994  C 182.64 994  180 991.36  180 988  C 180 984.64  182.64 982  186 982  Z " fill-rule="nonzero" fill="rgba(255, 255, 255, 1)" stroke="none" class="fill" />
  <path d="M 186 982.5  C 189.08 982.5  191.5 984.92  191.5 988  C 191.5 991.08  189.08 993.5  186 993.5  C 182.92 993.5  180.5 991.08  180.5 988  C 180.5 984.92  182.92 982.5  186 982.5  Z " stroke-width="1" stroke-dasharray="0" stroke="rgba(121, 121, 121, 1)" fill="none" class="stroke" stroke-dashoffset="0.5" />
  <path d="M 186 991  C 184.32 991  183 989.68  183 988  C 183 986.32  184.32 985  186 985  C 187.68 985  189 986.32  189 988  C 189 989.68  187.68 991  186 991  " fill-rule="nonzero" fill="rgba(121, 121, 121, 1)" stroke="none" class="stroke btn_check" />
</svg>