<?xml version="1.0" encoding="utf-8"?>
<svg version="1.1" xmlns:xlink="http://www.w3.org/1999/xlink" width="12px" height="12px" viewBox="180 1009 12 12" xmlns="http://www.w3.org/2000/svg">
  <path d="M 186 1009  C 189.36 1009  192 1011.64  192 1015  C 192 1018.36  189.36 1021  186 1021  C 182.64 1021  180 1018.36  180 1015  C 180 1011.64  182.64 1009  186 1009  Z " fill-rule="nonzero" fill="rgba(240, 240, 240, 1)" stroke="none" class="fill" />
  <path d="M 186 1009.5  C 189.08 1009.5  191.5 1011.92  191.5 1015  C 191.5 1018.08  189.08 1020.5  186 1020.5  C 182.92 1020.5  180.5 1018.08  180.5 1015  C 180.5 1011.92  182.92 1009.5  186 1009.5  Z " stroke-width="1" stroke-dasharray="0" stroke="rgba(121, 121, 121, 1)" fill="none" class="stroke" stroke-dashoffset="0.5" />
  <path d="M 186 1018  C 184.32 1018  183 1016.68  183 1015  C 183 1013.32  184.32 1012  186 1012  C 187.68 1012  189 1013.32  189 1015  C 189 1016.68  187.68 1018  186 1018  " fill-rule="nonzero" fill="rgba(121, 121, 121, 1)" stroke="none" class="stroke btn_check" />
</svg>