<?xml version="1.0" encoding="utf-8"?>
<svg version="1.1" xmlns:xlink="http://www.w3.org/1999/xlink" width="12px" height="12px" viewBox="180 954 12 12" xmlns="http://www.w3.org/2000/svg">
  <path d="M 186 954  C 189.36 954  192 956.64  192 960  C 192 963.36  189.36 966  186 966  C 182.64 966  180 963.36  180 960  C 180 956.64  182.64 954  186 954  Z " fill-rule="nonzero" fill="rgba(255, 255, 255, 1)" stroke="none" class="fill" />
  <path d="M 186 954.5  C 189.08 954.5  191.5 956.92  191.5 960  C 191.5 963.08  189.08 965.5  186 965.5  C 182.92 965.5  180.5 963.08  180.5 960  C 180.5 956.92  182.92 954.5  186 954.5  Z " stroke-width="1" stroke-dasharray="0" stroke="rgba(121, 121, 121, 1)" fill="none" class="stroke" stroke-dashoffset="0.5" />
  <path d="M 186 963  C 184.32 963  183 961.68  183 960  C 183 958.32  184.32 957  186 957  C 187.68 957  189 958.32  189 960  C 189 961.68  187.68 963  186 963  " fill-rule="nonzero" fill="rgba(121, 121, 121, 1)" stroke="none" class="stroke btn_check" />
</svg>