<?xml version="1.0" encoding="utf-8"?>
<svg version="1.1" xmlns:xlink="http://www.w3.org/1999/xlink" width="12px" height="12px" viewBox="180 576  12 12" xmlns="http://www.w3.org/2000/svg">
  <path d="M 186 576  C 189.36 576  192 578.64  192 582  C 192 585.36  189.36 588  186 588  C 182.64 588  180 585.36  180 582  C 180 578.64  182.64 576  186 576  Z " fill-rule="nonzero" fill="#ffffff" stroke="none" />
  <path d="M 186 576.5  C 189.08 576.5  191.5 578.92  191.5 582  C 191.5 585.08  189.08 587.5  186 587.5  C 182.92 587.5  180.5 585.08  180.5 582  C 180.5 578.92  182.92 576.5  186 576.5  Z " stroke-width="1" stroke="#797979" fill="none" />
  <path d="M 186 585  C 184.32 585  183 583.68  183 582  C 183 580.32  184.32 579  186 579  C 187.68 579  189 580.32  189 582  C 189 583.68  187.68 585  186 585  " fill-rule="nonzero" fill="#797979" stroke="none" />
</svg>