<?xml version="1.0" encoding="utf-8"?>
<svg version="1.1" xmlns:xlink="http://www.w3.org/1999/xlink" width="12px" height="12px" viewBox="180 959  12 12" xmlns="http://www.w3.org/2000/svg">
  <path d="M 186 959  C 189.36 959  192 961.64  192 965  C 192 968.36  189.36 971  186 971  C 182.64 971  180 968.36  180 965  C 180 961.64  182.64 959  186 959  Z " fill-rule="nonzero" fill="#f0f0f0" stroke="none" />
  <path d="M 186 959.5  C 189.08 959.5  191.5 961.92  191.5 965  C 191.5 968.08  189.08 970.5  186 970.5  C 182.92 970.5  180.5 968.08  180.5 965  C 180.5 961.92  182.92 959.5  186 959.5  Z " stroke-width="1" stroke="#797979" fill="none" />
  <path d="M 186 968  C 184.32 968  183 966.68  183 965  C 183 963.32  184.32 962  186 962  C 187.68 962  189 963.32  189 965  C 189 966.68  187.68 968  186 968  " fill-rule="nonzero" fill="#797979" stroke="none" />
</svg>