<?xml version="1.0" encoding="utf-8"?>
<svg version="1.1" xmlns:xlink="http://www.w3.org/1999/xlink" width="12px" height="12px" viewBox="180 932  12 12" xmlns="http://www.w3.org/2000/svg">
  <path d="M 186 932  C 189.36 932  192 934.64  192 938  C 192 941.36  189.36 944  186 944  C 182.64 944  180 941.36  180 938  C 180 934.64  182.64 932  186 932  Z " fill-rule="nonzero" fill="#f0f0f0" stroke="none" />
  <path d="M 186 932.5  C 189.08 932.5  191.5 934.92  191.5 938  C 191.5 941.08  189.08 943.5  186 943.5  C 182.92 943.5  180.5 941.08  180.5 938  C 180.5 934.92  182.92 932.5  186 932.5  Z " stroke-width="1" stroke="#797979" fill="none" />
  <path d="M 186 941  C 184.32 941  183 939.68  183 938  C 183 936.32  184.32 935  186 935  C 187.68 935  189 936.32  189 938  C 189 939.68  187.68 941  186 941  " fill-rule="nonzero" fill="#797979" stroke="none" />
</svg>