<?xml version="1.0" encoding="utf-8"?>
<svg version="1.1" xmlns:xlink="http://www.w3.org/1999/xlink" width="12px" height="12px" viewBox="180 877  12 12" xmlns="http://www.w3.org/2000/svg">
  <path d="M 186 877  C 189.36 877  192 879.64  192 883  C 192 886.36  189.36 889  186 889  C 182.64 889  180 886.36  180 883  C 180 879.64  182.64 877  186 877  Z " fill-rule="nonzero" fill="#ffffff" stroke="none" />
  <path d="M 186 877.5  C 189.08 877.5  191.5 879.92  191.5 883  C 191.5 886.08  189.08 888.5  186 888.5  C 182.92 888.5  180.5 886.08  180.5 883  C 180.5 879.92  182.92 877.5  186 877.5  Z " stroke-width="1" stroke="#797979" fill="none" />
  <path d="M 186 886  C 184.32 886  183 884.68  183 883  C 183 881.32  184.32 880  186 880  C 187.68 880  189 881.32  189 883  C 189 884.68  187.68 886  186 886  " fill-rule="nonzero" fill="#797979" stroke="none" />
</svg>