<?xml version="1.0" encoding="utf-8"?>
<svg version="1.1" xmlns:xlink="http://www.w3.org/1999/xlink" width="12px" height="12px" viewBox="180 850  12 12" xmlns="http://www.w3.org/2000/svg">
  <path d="M 186 850  C 189.36 850  192 852.64  192 856  C 192 859.36  189.36 862  186 862  C 182.64 862  180 859.36  180 856  C 180 852.64  182.64 850  186 850  Z " fill-rule="nonzero" fill="#f0f0f0" stroke="none" />
  <path d="M 186 850.5  C 189.08 850.5  191.5 852.92  191.5 856  C 191.5 859.08  189.08 861.5  186 861.5  C 182.92 861.5  180.5 859.08  180.5 856  C 180.5 852.92  182.92 850.5  186 850.5  Z " stroke-width="1" stroke="#797979" fill="none" />
  <path d="M 186 859  C 184.32 859  183 857.68  183 856  C 183 854.32  184.32 853  186 853  C 187.68 853  189 854.32  189 856  C 189 857.68  187.68 859  186 859  " fill-rule="nonzero" fill="#797979" stroke="none" />
</svg>