<?xml version="1.0" encoding="utf-8"?>
<svg version="1.1" xmlns:xlink="http://www.w3.org/1999/xlink" width="18px" height="18px" xmlns="http://www.w3.org/2000/svg">
  <g transform="matrix(1 0 0 1 -645 -927 )">
    <path d="M 17.71875 9  C 17.71875 4.18651171875  13.81489453125 0.28125  9 0.28125  C 4.185105468750001 0.28125  0.28125 4.18651171875  0.28125 9  C 0.28125 13.81630078125  4.185105468750001 17.71875  9 17.71875  C 13.81489453125 17.71875  17.71875 13.81630078125  17.71875 9  Z M 7.5234375 5.625  C 7.5234375 4.809515625  8.184515625 4.1484375  9 4.1484375  C 9.815484375 4.1484375  10.4765625 4.809515625  10.4765625 5.625  C 10.4765625 6.440484375  9.815484375 7.1015625  9 7.1015625  C 8.184515625 7.1015625  7.5234375 6.440484375  7.5234375 5.625  Z M 10.96875 12.234375  L 10.96875 13.078125  C 10.96875 13.31110546875  10.77985546875 13.5  10.546875 13.5  L 7.453125 13.5  C 7.22014453125 13.5  7.03125 13.31110546875  7.03125 13.078125  L 7.03125 12.234375  C 7.03125 12.00139453125  7.22014453125 11.8125  7.453125 11.8125  L 7.875 11.8125  L 7.875 9.5625  L 7.453125 9.5625  C 7.22014453125 9.5625  7.03125 9.37360546875  7.03125 9.140625  L 7.03125 8.296875  C 7.03125 8.06389453125  7.22014453125 7.875  7.453125 7.875  L 9.703125 7.875  C 9.93610546875 7.875  10.125 8.06389453125  10.125 8.296875  L 10.125 11.8125  L 10.546875 11.8125  C 10.77985546875 11.8125  10.96875 12.00139453125  10.96875 12.234375  Z " fill-rule="nonzero" fill="#027db4" stroke="none" transform="matrix(1 0 0 1 645 927 )" />
  </g>
</svg>