<?xml version="1.0" encoding="utf-8"?>
<svg version="1.1" xmlns:xlink="http://www.w3.org/1999/xlink" width="16px" height="18px" xmlns="http://www.w3.org/2000/svg">
  <defs>
    <pattern id="BGPattern" patternUnits="userSpaceOnUse" alignment="0 0" imageRepeat="None" />
    <mask fill="white" id="Clip98">
      <path d="M 13 13.375  C 13 14.40875  12.15875 15.25  11.125 15.25  L 2.375 15.25  C 1.34125 15.25  0.5 14.40875  0.5 13.375  L 0.5 2.125  C 0.5 1.09125  1.34125 0.25  2.375 0.25  L 11.125 0.25  C 12.15875 0.25  13 1.09125  13 2.125  L 13 13.375  Z M 11.125 1.5  L 2.375 1.5  C 2.0306249999999997 1.5  1.75 1.7806249999999997  2 2.125  L 2 13.375  C 1.75 13.719999999999999  2.0306249999999997 14  2.375 14  L 11.125 14  C 11.469999999999999 14  11.75 13.719999999999999  11.75 13.375  L 11.75 2.125  C 11.75 1.7806249999999997  11.469999999999999 1.5  11.125 1.5  Z M 15.5 15.875  C 15.5 16.90875  14.658750000000001 17.75  13.625 17.75  L 4.25 17.75  C 3.9050000000000002 17.75  3.625 17.470625000000002  3.625 17.125  C 3.625 16.779374999999998  3.9050000000000002 16.5  4.25 16.5  L 13.625 16.5  C 13.969999999999999 16.5  14.25 16.22  14 15.875  L 14 4  C 14.25 3.6550000000000002  14.529374999999998 3.375  14.875 3.375  C 15.220625000000002 3.375  15.5 3.6550000000000002  15.5 4  L 15.5 15.875  Z M 9.25 4.625  C 9.25 4.97  8.970625 5.25  8.625 5.25  L 3.625 5.25  C 3.2800000000000002 5.25  3 4.97  3 4.625  C 3 4.28  3.2800000000000002 4  3.625 4  L 8.625 4  C 8.970625 4  9.25 4.28  9.25 4.625  Z M 10.5 7.75  C 10.5 8.094999999999999  10.220625 8.375  9.875 8.375  L 3.6256249999999994 8.375  C 3.2806249999999997 8.375  3.0006249999999994 8.094999999999999  3.0006249999999994 7.75  C 3.0006249999999994 7.405000000000001  3.2806249999999997 7.125  3.6256249999999994 7.125  L 9.875 7.125  C 10.220625 7.125  10.5 7.405000000000001  10.5 7.75  Z M 10.5 10.875  C 10.5 11.220625  10.220625 11.5  9.875 11.5  L 3.625 11.5  C 3.2800000000000002 11.5  3 11.220625  3 10.875  C 3 10.529375  3.2800000000000002 10.25  3.625 10.25  L 9.875 10.25  C 10.220625 10.25  10.5 10.529375  10.5 10.875  Z " fill-rule="evenodd" />
    </mask>
  </defs>
  <g transform="matrix(1 0 0 1 -311 -1238 )">
    <path d="M 13 13.375  C 13 14.40875  12.15875 15.25  11.125 15.25  L 2.375 15.25  C 1.34125 15.25  0.5 14.40875  0.5 13.375  L 0.5 2.125  C 0.5 1.09125  1.34125 0.25  2.375 0.25  L 11.125 0.25  C 12.15875 0.25  13 1.09125  13 2.125  L 13 13.375  Z M 11.125 1.5  L 2.375 1.5  C 2.0306249999999997 1.5  1.75 1.7806249999999997  2 2.125  L 2 13.375  C 1.75 13.719999999999999  2.0306249999999997 14  2.375 14  L 11.125 14  C 11.469999999999999 14  11.75 13.719999999999999  11.75 13.375  L 11.75 2.125  C 11.75 1.7806249999999997  11.469999999999999 1.5  11.125 1.5  Z M 15.5 15.875  C 15.5 16.90875  14.658750000000001 17.75  13.625 17.75  L 4.25 17.75  C 3.9050000000000002 17.75  3.625 17.470625000000002  3.625 17.125  C 3.625 16.779374999999998  3.9050000000000002 16.5  4.25 16.5  L 13.625 16.5  C 13.969999999999999 16.5  14.25 16.22  14 15.875  L 14 4  C 14.25 3.6550000000000002  14.529374999999998 3.375  14.875 3.375  C 15.220625000000002 3.375  15.5 3.6550000000000002  15.5 4  L 15.5 15.875  Z M 9.25 4.625  C 9.25 4.97  8.970625 5.25  8.625 5.25  L 3.625 5.25  C 3.2800000000000002 5.25  3 4.97  3 4.625  C 3 4.28  3.2800000000000002 4  3.625 4  L 8.625 4  C 8.970625 4  9.25 4.28  9.25 4.625  Z M 10.5 7.75  C 10.5 8.094999999999999  10.220625 8.375  9.875 8.375  L 3.6256249999999994 8.375  C 3.2806249999999997 8.375  3.0006249999999994 8.094999999999999  3.0006249999999994 7.75  C 3.0006249999999994 7.405000000000001  3.2806249999999997 7.125  3.6256249999999994 7.125  L 9.875 7.125  C 10.220625 7.125  10.5 7.405000000000001  10.5 7.75  Z M 10.5 10.875  C 10.5 11.220625  10.220625 11.5  9.875 11.5  L 3.625 11.5  C 3.2800000000000002 11.5  3 11.220625  3 10.875  C 3 10.529375  3.2800000000000002 10.25  3.625 10.25  L 9.875 10.25  C 10.220625 10.25  10.5 10.529375  10.5 10.875  Z " fill-rule="nonzero" fill="rgba(2, 125, 180, 1)" stroke="none" transform="matrix(1 0 0 1 311 1238 )" class="fill" />
    <path d="M 13 13.375  C 13 14.40875  12.15875 15.25  11.125 15.25  L 2.375 15.25  C 1.34125 15.25  0.5 14.40875  0.5 13.375  L 0.5 2.125  C 0.5 1.09125  1.34125 0.25  2.375 0.25  L 11.125 0.25  C 12.15875 0.25  13 1.09125  13 2.125  L 13 13.375  Z " stroke-width="0" stroke-dasharray="0" stroke="rgba(255, 255, 255, 0)" fill="none" transform="matrix(1 0 0 1 311 1238 )" class="stroke" mask="url(#Clip98)" />
    <path d="M 11.125 1.5  L 2.375 1.5  C 2.0306249999999997 1.5  1.75 1.7806249999999997  2 2.125  L 2 13.375  C 1.75 13.719999999999999  2.0306249999999997 14  2.375 14  L 11.125 14  C 11.469999999999999 14  11.75 13.719999999999999  11.75 13.375  L 11.75 2.125  C 11.75 1.7806249999999997  11.469999999999999 1.5  11.125 1.5  Z " stroke-width="0" stroke-dasharray="0" stroke="rgba(255, 255, 255, 0)" fill="none" transform="matrix(1 0 0 1 311 1238 )" class="stroke" mask="url(#Clip98)" />
    <path d="M 15.5 15.875  C 15.5 16.90875  14.658750000000001 17.75  13.625 17.75  L 4.25 17.75  C 3.9050000000000002 17.75  3.625 17.470625000000002  3.625 17.125  C 3.625 16.779374999999998  3.9050000000000002 16.5  4.25 16.5  L 13.625 16.5  C 13.969999999999999 16.5  14.25 16.22  14 15.875  L 14 4  C 14.25 3.6550000000000002  14.529374999999998 3.375  14.875 3.375  C 15.220625000000002 3.375  15.5 3.6550000000000002  15.5 4  L 15.5 15.875  Z " stroke-width="0" stroke-dasharray="0" stroke="rgba(255, 255, 255, 0)" fill="none" transform="matrix(1 0 0 1 311 1238 )" class="stroke" mask="url(#Clip98)" />
    <path d="M 9.25 4.625  C 9.25 4.97  8.970625 5.25  8.625 5.25  L 3.625 5.25  C 3.2800000000000002 5.25  3 4.97  3 4.625  C 3 4.28  3.2800000000000002 4  3.625 4  L 8.625 4  C 8.970625 4  9.25 4.28  9.25 4.625  Z " stroke-width="0" stroke-dasharray="0" stroke="rgba(255, 255, 255, 0)" fill="none" transform="matrix(1 0 0 1 311 1238 )" class="stroke" mask="url(#Clip98)" />
    <path d="M 10.5 7.75  C 10.5 8.094999999999999  10.220625 8.375  9.875 8.375  L 3.6256249999999994 8.375  C 3.2806249999999997 8.375  3.0006249999999994 8.094999999999999  3.0006249999999994 7.75  C 3.0006249999999994 7.405000000000001  3.2806249999999997 7.125  3.6256249999999994 7.125  L 9.875 7.125  C 10.220625 7.125  10.5 7.405000000000001  10.5 7.75  Z " stroke-width="0" stroke-dasharray="0" stroke="rgba(255, 255, 255, 0)" fill="none" transform="matrix(1 0 0 1 311 1238 )" class="stroke" mask="url(#Clip98)" />
    <path d="M 10.5 10.875  C 10.5 11.220625  10.220625 11.5  9.875 11.5  L 3.625 11.5  C 3.2800000000000002 11.5  3 11.220625  3 10.875  C 3 10.529375  3.2800000000000002 10.25  3.625 10.25  L 9.875 10.25  C 10.220625 10.25  10.5 10.529375  10.5 10.875  Z " stroke-width="0" stroke-dasharray="0" stroke="rgba(255, 255, 255, 0)" fill="none" transform="matrix(1 0 0 1 311 1238 )" class="stroke" mask="url(#Clip98)" />
  </g>
</svg>