<svg class="icon" viewBox="0 0 1024 1024" version="1.1" xmlns="http://www.w3.org/2000/svg" p-id="1910" height="128" width="128"><path d="M158.28 158.28c-195 195-195 512.39 0 707.44s512.39 195 707.44 0 195-512.39 0-707.44-512.4-195.04-707.44 0z m668.14 668.14C653 999.78 371 999.78 197.58 826.42s-173.36-455.42 0-628.84 455.47-173.37 628.83 0 173.37 455.42 0.01 628.84z" p-id="1911"></path><path d="M669.21 315.49L512 472.7 354.79 315.49a27.79 27.79 0 0 0-39.3 39.3L472.7 512 315.49 669.21a27.79 27.79 0 0 0 39.3 39.3L512 551.3l157.21 157.21a27.79 27.79 0 0 0 39.3-39.3L551.3 512l157.21-157.21a27.79 27.79 0 0 0-39.3-39.3z" p-id="1912"></path></svg>