<?xml version="1.0" encoding="utf-8"?>
<svg version="1.1" xmlns:xlink="http://www.w3.org/1999/xlink" width="21px" height="17px" xmlns="http://www.w3.org/2000/svg">
  <g transform="matrix(1 0 0 1 -210 -170 )">
    <path d="M 1.6153846153846154 13.053571428571427  L 1.6153846153846154 15.785714285714286  L 5.25 15.785714285714286  L 5.25 13.053571428571427  L 1.6153846153846154 13.053571428571427  Z M 6.0576923076923075 13.053571428571427  L 6.0576923076923075 15.785714285714286  L 10.096153846153847 15.785714285714286  L 10.096153846153847 13.053571428571427  L 6.0576923076923075 13.053571428571427  Z M 1.6153846153846154 9.410714285714286  L 1.6153846153846154 12.446428571428573  L 5.25 12.446428571428573  L 5.25 9.410714285714286  L 1.6153846153846154 9.410714285714286  Z M 6.0576923076923075 9.410714285714286  L 6.0576923076923075 12.446428571428573  L 10.096153846153847 12.446428571428573  L 10.096153846153847 9.410714285714286  L 6.0576923076923075 9.410714285714286  Z M 1.6153846153846154 6.07142857142857  L 1.6153846153846154 8.803571428571427  L 5.25 8.803571428571427  L 5.25 6.07142857142857  L 1.6153846153846154 6.07142857142857  Z M 10.903846153846155 13.053571428571427  L 10.903846153846155 15.785714285714286  L 14.942307692307693 15.785714285714286  L 14.942307692307693 13.053571428571427  L 10.903846153846155 13.053571428571427  Z M 6.0576923076923075 6.07142857142857  L 6.0576923076923075 8.803571428571427  L 10.096153846153847 8.803571428571427  L 10.096153846153847 6.07142857142857  L 6.0576923076923075 6.07142857142857  Z M 15.75 13.053571428571427  L 15.75 15.785714285714286  L 19.384615384615387 15.785714285714286  L 19.384615384615387 13.053571428571427  L 15.75 13.053571428571427  Z M 10.903846153846155 9.410714285714286  L 10.903846153846155 12.446428571428573  L 14.942307692307693 12.446428571428573  L 14.942307692307693 9.410714285714286  L 10.903846153846155 9.410714285714286  Z M 6.341646634615384 4.4634486607142865  C 6.421574519230769 4.40336681547619  6.461538461538462 4.33221726190476  6.461538461538462 4.25  L 6.461538461538462 1.5178571428571432  C 6.461538461538462 1.435639880952381  6.421574519230769 1.3644903273809517  6.341646634615384 1.3044084821428568  C 6.261718750000001 1.24432663690476  6.167067307692308 1.2142857142857137  6.0576923076923075 1.2142857142857137  L 5.25 1.2142857142857137  C 5.140625 1.2142857142857137  5.045973557692308 1.24432663690476  4.966045673076923 1.3044084821428568  C 4.886117788461537 1.3644903273809517  4.846153846153847 1.435639880952381  4.846153846153847 1.5178571428571432  L 4.846153846153847 4.25  C 4.846153846153847 4.33221726190476  4.886117788461537 4.40336681547619  4.966045673076923 4.4634486607142865  C 5.045973557692308 4.523530505952381  5.140625 4.55357142857143  5.25 4.55357142857143  L 6.0576923076923075 4.55357142857143  C 6.167067307692308 4.55357142857143  6.261718750000001 4.523530505952381  6.341646634615384 4.4634486607142865  Z M 15.75 9.410714285714286  L 15.75 12.446428571428573  L 19.384615384615387 12.446428571428573  L 19.384615384615387 9.410714285714286  L 15.75 9.410714285714286  Z M 10.903846153846155 6.07142857142857  L 10.903846153846155 8.803571428571427  L 14.942307692307693 8.803571428571427  L 14.942307692307693 6.07142857142857  L 10.903846153846155 6.07142857142857  Z M 15.75 6.07142857142857  L 15.75 8.803571428571427  L 19.384615384615387 8.803571428571427  L 19.384615384615387 6.07142857142857  L 15.75 6.07142857142857  Z M 16.033954326923077 4.4634486607142865  C 16.113882211538463 4.40336681547619  16.153846153846153 4.33221726190476  16.153846153846153 4.25  L 16.153846153846153 1.5178571428571432  C 16.153846153846153 1.435639880952381  16.113882211538463 1.3644903273809517  16.033954326923077 1.3044084821428568  C 15.954026442307693 1.24432663690476  15.859375 1.2142857142857137  15.75 1.2142857142857137  L 14.942307692307693 1.2142857142857137  C 14.832932692307695 1.2142857142857137  14.738281250000002 1.24432663690476  14.658353365384615 1.3044084821428568  C 14.578425480769232 1.3644903273809517  14.538461538461538 1.435639880952381  14.538461538461538 1.5178571428571432  L 14.538461538461538 4.25  C 14.538461538461538 4.33221726190476  14.578425480769232 4.40336681547619  14.658353365384615 4.4634486607142865  C 14.738281250000002 4.523530505952381  14.832932692307695 4.55357142857143  14.942307692307693 4.55357142857143  L 15.75 4.55357142857143  C 15.859375 4.55357142857143  15.954026442307693 4.523530505952381  16.033954326923077 4.4634486607142865  Z M 20.520432692307693 2.7890625  C 20.840144230769234 3.029389880952381  21 3.313988095238095  21 3.6428571428571432  L 21 15.785714285714286  C 21 16.114583333333336  20.840144230769234 16.399181547619047  20.520432692307693 16.63950892857143  C 20.200721153846157 16.87983630952381  19.822115384615387 17  19.384615384615387 17  L 1.6153846153846154 17  C 1.1778846153846156 17  0.7992788461538463 16.87983630952381  0.47956730769230765 16.63950892857143  C 0.15985576923076922 16.399181547619047  0 16.114583333333336  0 15.785714285714286  L 0 3.6428571428571432  C 0 3.313988095238095  0.15985576923076922 3.029389880952381  0.47956730769230765 2.7890625  C 0.7992788461538463 2.548735119047617  1.1778846153846156 2.4285714285714293  1.6153846153846154 2.4285714285714293  L 3.230769230769231 2.4285714285714293  L 3.230769230769231 1.5178571428571432  C 3.230769230769231 1.1004464285714293  3.428485576923077 0.7431175595238085  3.823918269230769 0.44587053571428625  C 4.219350961538463 0.14862351190476208  4.694711538461538 0  5.25 0  L 6.0576923076923075 0  C 6.612980769230769 0  7.088341346153848 0.14862351190476208  7.483774038461538 0.44587053571428625  C 7.879206730769232 0.7431175595238085  8.076923076923077 1.1004464285714293  8.076923076923077 1.5178571428571432  L 8.076923076923077 2.4285714285714293  L 12.923076923076923 2.4285714285714293  L 12.923076923076923 1.5178571428571432  C 12.923076923076923 1.1004464285714293  13.12079326923077 0.7431175595238085  13.516225961538462 0.44587053571428625  C 13.911658653846157 0.14862351190476208  14.387019230769232 0  14.942307692307693 0  L 15.75 0  C 16.305288461538463 0  16.78064903846154 0.14862351190476208  17.17608173076923 0.44587053571428625  C 17.571514423076927 0.7431175595238085  17.76923076923077 1.1004464285714293  17.76923076923077 1.5178571428571432  L 17.76923076923077 2.4285714285714293  L 19.384615384615387 2.4285714285714293  C 19.822115384615387 2.4285714285714293  20.200721153846157 2.548735119047617  20.520432692307693 2.7890625  Z " fill-rule="nonzero" fill="#7f7f7f" stroke="none" transform="matrix(1 0 0 1 210 170 )" />
  </g>
</svg>