<?xml version="1.0" encoding="utf-8"?>
<svg version="1.1" xmlns:xlink="http://www.w3.org/1999/xlink" width="70px" height="25px" xmlns="http://www.w3.org/2000/svg">
  <defs>
    <pattern id="BGPattern" patternUnits="userSpaceOnUse" alignment="0 0" imageRepeat="None" />
    <mask fill="white" id="Clip105">
      <path d="M 0 20  L 0 5  C 0 2.200000000000003  2.200000000000003 0  5 0  L 56.50000000000091 0  L 65 0  C 67.8 0  70 2.200000000000003  70 5  L 70 20  C 70 22.80000000000001  67.8 25  65 25  L 5 25  C 2.200000000000003 25  0 22.80000000000001  0 20  Z " fill-rule="evenodd" />
    </mask>
  </defs>
  <g transform="matrix(1 0 0 1 -60 -116 )">
    <path d="M 0 20  L 0 5  C 0 2.200000000000003  2.200000000000003 0  5 0  L 56.50000000000091 0  L 65 0  C 67.8 0  70 2.200000000000003  70 5  L 70 20  C 70 22.80000000000001  67.8 25  65 25  L 5 25  C 2.200000000000003 25  0 22.80000000000001  0 20  Z " fill-rule="nonzero" fill="rgba(51, 51, 51, 1)" stroke="none" transform="matrix(1 0 0 1 60 116 )" class="fill" />
    <path d="M 0 20  L 0 5  C 0 2.200000000000003  2.200000000000003 0  5 0  L 56.50000000000091 0  L 65 0  C 67.8 0  70 2.200000000000003  70 5  L 70 20  C 70 22.80000000000001  67.8 25  65 25  L 5 25  C 2.200000000000003 25  0 22.80000000000001  0 20  Z " stroke-width="0" stroke-dasharray="0" stroke="rgba(170, 170, 170, 1)" fill="none" transform="matrix(1 0 0 1 60 116 )" class="stroke" mask="url(#Clip105)" />
  </g>
</svg>