<?xml version="1.0" encoding="utf-8"?>
<svg version="1.1" xmlns:xlink="http://www.w3.org/1999/xlink" width="12px" height="12px" viewBox="11 12 12 12" xmlns="http://www.w3.org/2000/svg">
  <path d="M 17 12  C 20.36 12  23 14.64  23 18  C 23 21.36  20.36 24  17 24  C 13.64 24  11 21.36  11 18  C 11 14.64  13.64 12  17 12  Z " fill-rule="nonzero" fill="rgba(240, 240, 240, 1)" stroke="none" class="fill" />
  <path d="M 17 12.5  C 20.08 12.5  22.5 14.92  22.5 18  C 22.5 21.08  20.08 23.5  17 23.5  C 13.92 23.5  11.5 21.08  11.5 18  C 11.5 14.92  13.92 12.5  17 12.5  Z " stroke-width="1" stroke-dasharray="0" stroke="rgba(121, 121, 121, 1)" fill="none" class="stroke" stroke-dashoffset="0.5" />
  <path d="M 17 21  C 15.32 21  14 19.68  14 18  C 14 16.32  15.32 15  17 15  C 18.68 15  20 16.32  20 18  C 20 19.68  18.68 21  17 21  " fill-rule="nonzero" fill="rgba(121, 121, 121, 1)" stroke="none" class="stroke btn_check" />
</svg>