<?xml version="1.0" encoding="utf-8"?>
<svg version="1.1" xmlns:xlink="http://www.w3.org/1999/xlink" width="12px" height="12px" viewBox="10 120 12 12" xmlns="http://www.w3.org/2000/svg">
  <path d="M 16 120  C 19.36 120  22 122.64  22 126  C 22 129.36  19.36 132  16 132  C 12.64 132  10 129.36  10 126  C 10 122.64  12.64 120  16 120  Z " fill-rule="nonzero" fill="rgba(240, 240, 240, 1)" stroke="none" class="fill" />
  <path d="M 16 120.5  C 19.08 120.5  21.5 122.92  21.5 126  C 21.5 129.08  19.08 131.5  16 131.5  C 12.92 131.5  10.5 129.08  10.5 126  C 10.5 122.92  12.92 120.5  16 120.5  Z " stroke-width="1" stroke-dasharray="0" stroke="rgba(121, 121, 121, 1)" fill="none" class="stroke" stroke-dashoffset="0.5" />
  <path d="M 16 129  C 14.32 129  13 127.68  13 126  C 13 124.32  14.32 123  16 123  C 17.68 123  19 124.32  19 126  C 19 127.68  17.68 129  16 129  " fill-rule="nonzero" fill="rgba(121, 121, 121, 1)" stroke="none" class="stroke btn_check" />
</svg>