<?xml version="1.0" encoding="utf-8"?>
<svg version="1.1" xmlns:xlink="http://www.w3.org/1999/xlink" width="12px" height="12px" viewBox="10 48 12 12" xmlns="http://www.w3.org/2000/svg">
  <path d="M 16 48  C 19.36 48  22 50.64  22 54  C 22 57.36  19.36 60  16 60  C 12.64 60  10 57.36  10 54  C 10 50.64  12.64 48  16 48  Z " fill-rule="nonzero" fill="rgba(255, 255, 255, 1)" stroke="none" class="fill" />
  <path d="M 16 48.5  C 19.08 48.5  21.5 50.92  21.5 54  C 21.5 57.08  19.08 59.5  16 59.5  C 12.92 59.5  10.5 57.08  10.5 54  C 10.5 50.92  12.92 48.5  16 48.5  Z " stroke-width="1" stroke-dasharray="0" stroke="rgba(121, 121, 121, 1)" fill="none" class="stroke" stroke-dashoffset="0.5" />
  <path d="M 16 57  C 14.32 57  13 55.68  13 54  C 13 52.32  14.32 51  16 51  C 17.68 51  19 52.32  19 54  C 19 55.68  17.68 57  16 57  " fill-rule="nonzero" fill="rgba(121, 121, 121, 1)" stroke="none" class="stroke btn_check" />
</svg>