<?xml version="1.0" encoding="utf-8"?>
<svg version="1.1" xmlns:xlink="http://www.w3.org/1999/xlink" width="12px" height="12px" viewBox="11 84 12 12" xmlns="http://www.w3.org/2000/svg">
  <path d="M 17 84  C 20.36 84  23 86.64  23 90  C 23 93.36  20.36 96  17 96  C 13.64 96  11 93.36  11 90  C 11 86.64  13.64 84  17 84  Z " fill-rule="nonzero" fill="rgba(255, 255, 255, 1)" stroke="none" class="fill" />
  <path d="M 17 84.5  C 20.08 84.5  22.5 86.92  22.5 90  C 22.5 93.08  20.08 95.5  17 95.5  C 13.92 95.5  11.5 93.08  11.5 90  C 11.5 86.92  13.92 84.5  17 84.5  Z " stroke-width="1" stroke-dasharray="0" stroke="rgba(121, 121, 121, 1)" fill="none" class="stroke" stroke-dashoffset="0.5" />
  <path d="M 17 93  C 15.32 93  14 91.68  14 90  C 14 88.32  15.32 87  17 87  C 18.68 87  20 88.32  20 90  C 20 91.68  18.68 93  17 93  " fill-rule="nonzero" fill="rgba(121, 121, 121, 1)" stroke="none" class="stroke btn_check" />
</svg>