<?xml version="1.0" encoding="utf-8"?>
<svg version="1.1" xmlns:xlink="http://www.w3.org/1999/xlink" width="12px" height="12px" viewBox="10 12 12 12" xmlns="http://www.w3.org/2000/svg">
  <path d="M 16 12  C 19.36 12  22 14.64  22 18  C 22 21.36  19.36 24  16 24  C 12.64 24  10 21.36  10 18  C 10 14.64  12.64 12  16 12  Z " fill-rule="nonzero" fill="rgba(240, 240, 240, 1)" stroke="none" class="fill" />
  <path d="M 16 12.5  C 19.08 12.5  21.5 14.92  21.5 18  C 21.5 21.08  19.08 23.5  16 23.5  C 12.92 23.5  10.5 21.08  10.5 18  C 10.5 14.92  12.92 12.5  16 12.5  Z " stroke-width="1" stroke-dasharray="0" stroke="rgba(121, 121, 121, 1)" fill="none" class="stroke" stroke-dashoffset="0.5" />
  <path d="M 16 21  C 14.32 21  13 19.68  13 18  C 13 16.32  14.32 15  16 15  C 17.68 15  19 16.32  19 18  C 19 19.68  17.68 21  16 21  " fill-rule="nonzero" fill="rgba(121, 121, 121, 1)" stroke="none" class="stroke btn_check" />
</svg>