<?xml version="1.0" encoding="utf-8"?>
<svg version="1.1" xmlns:xlink="http://www.w3.org/1999/xlink" width="12px" height="12px" viewBox="10 84 12 12" xmlns="http://www.w3.org/2000/svg">
  <path d="M 16 84  C 19.36 84  22 86.64  22 90  C 22 93.36  19.36 96  16 96  C 12.64 96  10 93.36  10 90  C 10 86.64  12.64 84  16 84  Z " fill-rule="nonzero" fill="rgba(240, 240, 240, 1)" stroke="none" class="fill" />
  <path d="M 16 84.5  C 19.08 84.5  21.5 86.92  21.5 90  C 21.5 93.08  19.08 95.5  16 95.5  C 12.92 95.5  10.5 93.08  10.5 90  C 10.5 86.92  12.92 84.5  16 84.5  Z " stroke-width="1" stroke-dasharray="0" stroke="rgba(121, 121, 121, 1)" fill="none" class="stroke" stroke-dashoffset="0.5" />
  <path d="M 16 93  C 14.32 93  13 91.68  13 90  C 13 88.32  14.32 87  16 87  C 17.68 87  19 88.32  19 90  C 19 91.68  17.68 93  16 93  " fill-rule="nonzero" fill="rgba(121, 121, 121, 1)" stroke="none" class="stroke btn_check" />
</svg>