<?xml version="1.0" encoding="utf-8"?>
<svg version="1.1" xmlns:xlink="http://www.w3.org/1999/xlink" width="12px" height="12px" viewBox="11 153 12 12" xmlns="http://www.w3.org/2000/svg">
  <path d="M 17 153  C 20.36 153  23 155.64  23 159  C 23 162.36  20.36 165  17 165  C 13.64 165  11 162.36  11 159  C 11 155.64  13.64 153  17 153  Z " fill-rule="nonzero" fill="rgba(255, 255, 255, 1)" stroke="none" class="fill" />
  <path d="M 17 153.5  C 20.08 153.5  22.5 155.92  22.5 159  C 22.5 162.08  20.08 164.5  17 164.5  C 13.92 164.5  11.5 162.08  11.5 159  C 11.5 155.92  13.92 153.5  17 153.5  Z " stroke-width="1" stroke-dasharray="0" stroke="rgba(121, 121, 121, 1)" fill="none" class="stroke" stroke-dashoffset="0.5" />
  <path d="M 17 162  C 15.32 162  14 160.68  14 159  C 14 157.32  15.32 156  17 156  C 18.68 156  20 157.32  20 159  C 20 160.68  18.68 162  17 162  " fill-rule="nonzero" fill="rgba(121, 121, 121, 1)" stroke="none" class="stroke btn_check" />
</svg>