<?xml version="1.0" encoding="utf-8"?>
<svg version="1.1" xmlns:xlink="http://www.w3.org/1999/xlink" width="12px" height="12px" viewBox="10 153 12 12" xmlns="http://www.w3.org/2000/svg">
  <path d="M 16 153  C 19.36 153  22 155.64  22 159  C 22 162.36  19.36 165  16 165  C 12.64 165  10 162.36  10 159  C 10 155.64  12.64 153  16 153  Z " fill-rule="nonzero" fill="rgba(255, 255, 255, 1)" stroke="none" class="fill" />
  <path d="M 16 153.5  C 19.08 153.5  21.5 155.92  21.5 159  C 21.5 162.08  19.08 164.5  16 164.5  C 12.92 164.5  10.5 162.08  10.5 159  C 10.5 155.92  12.92 153.5  16 153.5  Z " stroke-width="1" stroke-dasharray="0" stroke="rgba(121, 121, 121, 1)" fill="none" class="stroke" stroke-dashoffset="0.5" />
  <path d="M 16 162  C 14.32 162  13 160.68  13 159  C 13 157.32  14.32 156  16 156  C 17.68 156  19 157.32  19 159  C 19 160.68  17.68 162  16 162  " fill-rule="nonzero" fill="rgba(121, 121, 121, 1)" stroke="none" class="stroke btn_check" />
</svg>