<?xml version="1.0" encoding="utf-8"?>
<svg version="1.1" xmlns:xlink="http://www.w3.org/1999/xlink" width="9px" height="6px" xmlns="http://www.w3.org/2000/svg">
  <defs>
    <pattern id="BGPattern" patternUnits="userSpaceOnUse" alignment="0 0" imageRepeat="None" />
    <mask fill="white" id="Clip117">
      <path d="M 7.734375 5.9062500000000036  L 7.74609375 5.8984375  C 7.434605877363245 5.899638092812218  7.135217379849253 5.818114464381178  6.9140625 5.671875  L 0.46875 1.375  C 0.28690711789229795 1.233440338436111  0.18696511004669425 1.0532055518294925  0.18696511004669425 0.8668309066977962  C 0.18696511004669425 0.43535844589248995  0.7116314188387296 0.08558090669779617  1.3588401100466942 0.08558090669779617  C 1.6384020777442334 0.08558090669779617  1.9087542576541612 0.15220891192820218  2.12109375 0.2734375  L 8.56640625 4.5703125  C 8.788269222517961 4.71700618422334  8.913064890713038 4.916696131865976  8.913064890713038 5.125013210489772  C 8.913064890713038 5.5564856712950785  8.388398581920997 5.906263210489772  7.741189890713038 5.906263210489772  C 7.738918246070794 5.906263210489772  7.736646606230032 5.9062588069745665  7.734375 5.9062500000000036  Z " fill-rule="evenodd" />
    </mask>
  </defs>
  <g transform="matrix(1 0 0 1 -945 -322 )">
    <path d="M 7.734375 5.9062500000000036  L 7.74609375 5.8984375  C 7.434605877363245 5.899638092812218  7.135217379849253 5.818114464381178  6.9140625 5.671875  L 0.46875 1.375  C 0.28690711789229795 1.233440338436111  0.18696511004669425 1.0532055518294925  0.18696511004669425 0.8668309066977962  C 0.18696511004669425 0.43535844589248995  0.7116314188387296 0.08558090669779617  1.3588401100466942 0.08558090669779617  C 1.6384020777442334 0.08558090669779617  1.9087542576541612 0.15220891192820218  2.12109375 0.2734375  L 8.56640625 4.5703125  C 8.788269222517961 4.71700618422334  8.913064890713038 4.916696131865976  8.913064890713038 5.125013210489772  C 8.913064890713038 5.5564856712950785  8.388398581920997 5.906263210489772  7.741189890713038 5.906263210489772  C 7.738918246070794 5.906263210489772  7.736646606230032 5.9062588069745665  7.734375 5.9062500000000036  Z " fill-rule="nonzero" fill="rgba(85, 85, 85, 1)" stroke="none" transform="matrix(1 0 0 1 945 322 )" class="fill" />
    <path d="M 7.734375 5.9062500000000036  L 7.74609375 5.8984375  C 7.434605877363245 5.899638092812218  7.135217379849253 5.818114464381178  6.9140625 5.671875  L 0.46875 1.375  C 0.28690711789229795 1.233440338436111  0.18696511004669425 1.0532055518294925  0.18696511004669425 0.8668309066977962  C 0.18696511004669425 0.43535844589248995  0.7116314188387296 0.08558090669779617  1.3588401100466942 0.08558090669779617  C 1.6384020777442334 0.08558090669779617  1.9087542576541612 0.15220891192820218  2.12109375 0.2734375  L 8.56640625 4.5703125  C 8.788269222517961 4.71700618422334  8.913064890713038 4.916696131865976  8.913064890713038 5.125013210489772  C 8.913064890713038 5.5564856712950785  8.388398581920997 5.906263210489772  7.741189890713038 5.906263210489772  C 7.738918246070794 5.906263210489772  7.736646606230032 5.9062588069745665  7.734375 5.9062500000000036  Z " stroke-width="0" stroke-dasharray="0" stroke="rgba(170, 170, 170, 1)" fill="none" transform="matrix(1 0 0 1 945 322 )" class="stroke" mask="url(#Clip117)" />
  </g>
</svg>