<?xml version="1.0" encoding="utf-8"?>
<svg version="1.1" xmlns:xlink="http://www.w3.org/1999/xlink" width="21px" height="21px" xmlns="http://www.w3.org/2000/svg">
  <defs>
    <pattern id="BGPattern" patternUnits="userSpaceOnUse" alignment="0 0" imageRepeat="None" />
    <mask fill="white" id="Clip100">
      <path d="M 10.4606267578125 20.60980546875  C 7.7438044921874996 20.60980546875  5.189708203125001 19.556851171875003  3.2685544921874996 17.645272265625003  C 1.347400781249999 15.733693359375  0.2880937499999991 13.188851953125  0.2880937499999991 10.482221484375  C 0.2880937499999991 7.775591015624998  1.3467380859374993 5.2322121093749985  3.2678917968749994 3.319924804687499  C 5.189045507812499 1.407637499999999  7.742684765624998 0.3553916015624994  10.459964062500001 0.3553916015624994  C 13.177243359375002 0.3553916015624994  15.7308826171875 1.4083458984374997  17.6518078125 3.319924804687499  C 19.572733007812502 5.231503710937498  20.6323142578125 7.776322265625  20.6323142578125 10.4813302734375  C 20.6323142578125 13.18633828125  19.573852734375 15.732093750000002  17.651853515625 17.644358203124998  C 15.729854296875 19.556622656250003  13.177517578125002 20.60980546875  10.460649609375 20.60980546875  Z M 16.6268009765625 4.350210351562499  C 14.981122851562501 2.7131701171874982  12.790183593750001 1.8079054687499996  10.4606267578125 1.8079054687500011  C 8.1304072265625 1.8079054687500011  5.9403820312499995 2.710405078125001  4.293789843749999 4.349501953125  C 2.647197656249999 5.988598828125  1.7412703125000002 8.1656443359375  1.7412703125000002 10.4822443359375  C 1.7412703125000002 12.798844335937499  2.6474033203125007 14.977032421875  4.293104296875001 16.614118359375  C 5.938805273437502 18.251204296875002  8.129058984374998 19.155714843749998  10.459964062500001 19.155714843749998  C 12.790869140625 19.155714843749998  14.980208789062502 18.253443749999995  16.6268009765625 16.614118359375  C 18.2733931640625 14.974792968750004  19.179320507812502 12.797953125  19.1786349609375 10.481353125  C 19.1779494140625 8.1647759765625  18.272479101562503 5.9872505859375  16.6268009765625 4.350210351562499  Z M 15.547041796875 9.755678906250001  L 11.1872150390625 9.755678906250001  L 11.1872150390625 5.395874999999999  C 11.1698478515625 4.9945787109375  10.830433593750001 4.683363281249999  10.42916015625 4.7007533203125  C 10.052223632812499 4.7170693359375  9.75037734375 5.018938476562499  9.734038476562498 5.395874999999999  L 9.734038476562498 9.7556560546875  L 5.374463085937498 9.7556560546875  C 4.973189648437499 9.773046093750002  4.661974218749998 10.112460351562499  4.679341406249999 10.513733789062501  C 4.695680273437499 10.890647460937501  4.997526562499998 11.19249375  5.3744859374999985 11.2088326171875  L 9.734015625 11.2088326171875  L 9.734015625 15.568636523437501  C 9.751405664062501 15.9699099609375  10.090819921875001 16.281125390625  10.492093359375001 16.263758203124997  C 10.86900703125 16.2474193359375  11.1708533203125 15.945550195312501  11.1871921875 15.568613671875001  L 11.1871921875 11.20885546875  L 15.546996093750002 11.20885546875  C 15.948269531249998 11.226268359374998  16.2876837890625 10.915052929687501  16.305050976562498 10.513756640625  C 16.322463867187498 10.112460351562499  16.011225585937503 9.773046093749999  15.609929296874997 9.755678906250001  C 15.588969084605194 9.754767407956663  15.56797915758231 9.754767407956663  15.547018945312498 9.755678906250001  Z " fill-rule="evenodd" />
    </mask>
  </defs>
  <g transform="matrix(1 0 0 1 -175 -164 )">
    <path d="M 10.4606267578125 20.60980546875  C 7.7438044921874996 20.60980546875  5.189708203125001 19.556851171875003  3.2685544921874996 17.645272265625003  C 1.347400781249999 15.733693359375  0.2880937499999991 13.188851953125  0.2880937499999991 10.482221484375  C 0.2880937499999991 7.775591015624998  1.3467380859374993 5.2322121093749985  3.2678917968749994 3.319924804687499  C 5.189045507812499 1.407637499999999  7.742684765624998 0.3553916015624994  10.459964062500001 0.3553916015624994  C 13.177243359375002 0.3553916015624994  15.7308826171875 1.4083458984374997  17.6518078125 3.319924804687499  C 19.572733007812502 5.231503710937498  20.6323142578125 7.776322265625  20.6323142578125 10.4813302734375  C 20.6323142578125 13.18633828125  19.573852734375 15.732093750000002  17.651853515625 17.644358203124998  C 15.729854296875 19.556622656250003  13.177517578125002 20.60980546875  10.460649609375 20.60980546875  Z M 16.6268009765625 4.350210351562499  C 14.981122851562501 2.7131701171874982  12.790183593750001 1.8079054687499996  10.4606267578125 1.8079054687500011  C 8.1304072265625 1.8079054687500011  5.9403820312499995 2.710405078125001  4.293789843749999 4.349501953125  C 2.647197656249999 5.988598828125  1.7412703125000002 8.1656443359375  1.7412703125000002 10.4822443359375  C 1.7412703125000002 12.798844335937499  2.6474033203125007 14.977032421875  4.293104296875001 16.614118359375  C 5.938805273437502 18.251204296875002  8.129058984374998 19.155714843749998  10.459964062500001 19.155714843749998  C 12.790869140625 19.155714843749998  14.980208789062502 18.253443749999995  16.6268009765625 16.614118359375  C 18.2733931640625 14.974792968750004  19.179320507812502 12.797953125  19.1786349609375 10.481353125  C 19.1779494140625 8.1647759765625  18.272479101562503 5.9872505859375  16.6268009765625 4.350210351562499  Z M 15.547041796875 9.755678906250001  L 11.1872150390625 9.755678906250001  L 11.1872150390625 5.395874999999999  C 11.1698478515625 4.9945787109375  10.830433593750001 4.683363281249999  10.42916015625 4.7007533203125  C 10.052223632812499 4.7170693359375  9.75037734375 5.018938476562499  9.734038476562498 5.395874999999999  L 9.734038476562498 9.7556560546875  L 5.374463085937498 9.7556560546875  C 4.973189648437499 9.773046093750002  4.661974218749998 10.112460351562499  4.679341406249999 10.513733789062501  C 4.695680273437499 10.890647460937501  4.997526562499998 11.19249375  5.3744859374999985 11.2088326171875  L 9.734015625 11.2088326171875  L 9.734015625 15.568636523437501  C 9.751405664062501 15.9699099609375  10.090819921875001 16.281125390625  10.492093359375001 16.263758203124997  C 10.86900703125 16.2474193359375  11.1708533203125 15.945550195312501  11.1871921875 15.568613671875001  L 11.1871921875 11.20885546875  L 15.546996093750002 11.20885546875  C 15.948269531249998 11.226268359374998  16.2876837890625 10.915052929687501  16.305050976562498 10.513756640625  C 16.322463867187498 10.112460351562499  16.011225585937503 9.773046093749999  15.609929296874997 9.755678906250001  C 15.588969084605194 9.754767407956663  15.56797915758231 9.754767407956663  15.547018945312498 9.755678906250001  Z " fill-rule="nonzero" fill="rgba(51, 102, 204, 1)" stroke="none" transform="matrix(1 0 0 1 175 164 )" class="fill" />
    <path d="M 10.4606267578125 20.60980546875  C 7.7438044921874996 20.60980546875  5.189708203125001 19.556851171875003  3.2685544921874996 17.645272265625003  C 1.347400781249999 15.733693359375  0.2880937499999991 13.188851953125  0.2880937499999991 10.482221484375  C 0.2880937499999991 7.775591015624998  1.3467380859374993 5.2322121093749985  3.2678917968749994 3.319924804687499  C 5.189045507812499 1.407637499999999  7.742684765624998 0.3553916015624994  10.459964062500001 0.3553916015624994  C 13.177243359375002 0.3553916015624994  15.7308826171875 1.4083458984374997  17.6518078125 3.319924804687499  C 19.572733007812502 5.231503710937498  20.6323142578125 7.776322265625  20.6323142578125 10.4813302734375  C 20.6323142578125 13.18633828125  19.573852734375 15.732093750000002  17.651853515625 17.644358203124998  C 15.729854296875 19.556622656250003  13.177517578125002 20.60980546875  10.460649609375 20.60980546875  Z " stroke-width="0" stroke-dasharray="0" stroke="rgba(170, 170, 170, 1)" fill="none" transform="matrix(1 0 0 1 175 164 )" class="stroke" mask="url(#Clip100)" />
    <path d="M 16.6268009765625 4.350210351562499  C 14.981122851562501 2.7131701171874982  12.790183593750001 1.8079054687499996  10.4606267578125 1.8079054687500011  C 8.1304072265625 1.8079054687500011  5.9403820312499995 2.710405078125001  4.293789843749999 4.349501953125  C 2.647197656249999 5.988598828125  1.7412703125000002 8.1656443359375  1.7412703125000002 10.4822443359375  C 1.7412703125000002 12.798844335937499  2.6474033203125007 14.977032421875  4.293104296875001 16.614118359375  C 5.938805273437502 18.251204296875002  8.129058984374998 19.155714843749998  10.459964062500001 19.155714843749998  C 12.790869140625 19.155714843749998  14.980208789062502 18.253443749999995  16.6268009765625 16.614118359375  C 18.2733931640625 14.974792968750004  19.179320507812502 12.797953125  19.1786349609375 10.481353125  C 19.1779494140625 8.1647759765625  18.272479101562503 5.9872505859375  16.6268009765625 4.350210351562499  Z " stroke-width="0" stroke-dasharray="0" stroke="rgba(170, 170, 170, 1)" fill="none" transform="matrix(1 0 0 1 175 164 )" class="stroke" mask="url(#Clip100)" />
    <path d="M 15.547041796875 9.755678906250001  L 11.1872150390625 9.755678906250001  L 11.1872150390625 5.395874999999999  C 11.1698478515625 4.9945787109375  10.830433593750001 4.683363281249999  10.42916015625 4.7007533203125  C 10.052223632812499 4.7170693359375  9.75037734375 5.018938476562499  9.734038476562498 5.395874999999999  L 9.734038476562498 9.7556560546875  L 5.374463085937498 9.7556560546875  C 4.973189648437499 9.773046093750002  4.661974218749998 10.112460351562499  4.679341406249999 10.513733789062501  C 4.695680273437499 10.890647460937501  4.997526562499998 11.19249375  5.3744859374999985 11.2088326171875  L 9.734015625 11.2088326171875  L 9.734015625 15.568636523437501  C 9.751405664062501 15.9699099609375  10.090819921875001 16.281125390625  10.492093359375001 16.263758203124997  C 10.86900703125 16.2474193359375  11.1708533203125 15.945550195312501  11.1871921875 15.568613671875001  L 11.1871921875 11.20885546875  L 15.546996093750002 11.20885546875  C 15.948269531249998 11.226268359374998  16.2876837890625 10.915052929687501  16.305050976562498 10.513756640625  C 16.322463867187498 10.112460351562499  16.011225585937503 9.773046093749999  15.609929296874997 9.755678906250001  C 15.588969084605194 9.754767407956663  15.56797915758231 9.754767407956663  15.547018945312498 9.755678906250001  Z " stroke-width="0" stroke-dasharray="0" stroke="rgba(170, 170, 170, 1)" fill="none" transform="matrix(1 0 0 1 175 164 )" class="stroke" mask="url(#Clip100)" />
  </g>
</svg>