<?xml version="1.0" encoding="utf-8"?>
<svg version="1.1" xmlns:xlink="http://www.w3.org/1999/xlink" width="16px" height="15px" xmlns="http://www.w3.org/2000/svg">
  <defs>
    <pattern id="BGPattern" patternUnits="userSpaceOnUse" alignment="0 0" imageRepeat="None" />
    <mask fill="white" id="Clip104">
      <path d="M 13.659090909090907 12.776988636363633  C 12.162717109284216 14.180482984451798  10.13182671978765 14.967623387092242  8.015151515151516 14.964488636363633  C 3.6118911293265814 14.961222953949628  0.04418956158074459 11.613855698183048  0.04418956158074459 7.485797794740861  C 0.04418956158074459 3.3554296017591465  3.615736216339642 0.007104612922679882  8.021462288853472 0.007104612922679882  C 12.4271883613673 0.007104612922679882  15.998735016126195 3.3554296017591465  15.998735016126195 7.485797794740861  C 15.998735016126195 9.47071968798126  15.157049662046454 11.374221944432609  13.659090909090907 12.776988636363633  Z M 14.456589366438424 7.478635322057755  C 14.456589366438424 4.139181525036989  11.577201585134596 1.4279387395613397  8.015151515151516 1.4133522727272736  C 8.00573186517651 1.4133136995996507  7.9963121365752 1.4132944129668452  7.986892396741458 1.4132944129668452  C 4.4137774243513235 1.4132944129668452  1.517195427044488 4.128840035442003  1.517195427044488 7.4786353220577535  C 1.517195427044488 10.828430608673502  4.4137774243513235 13.543976231148662  7.986892396741458 13.543976231148662  C 9.702246785031427 13.543976231148662  11.347388232823516 12.905334235503531  12.560606060606059 11.768465909090912  C 13.774553703147369 10.630913696187017  14.456589366438424 9.087747445285387  14.456589366438424 7.478635322057755  Z " fill-rule="evenodd" />
    </mask>
  </defs>
  <g transform="matrix(1 0 0 1 -934 -310 )">
    <path d="M 13.659090909090907 12.776988636363633  C 12.162717109284216 14.180482984451798  10.13182671978765 14.967623387092242  8.015151515151516 14.964488636363633  C 3.6118911293265814 14.961222953949628  0.04418956158074459 11.613855698183048  0.04418956158074459 7.485797794740861  C 0.04418956158074459 3.3554296017591465  3.615736216339642 0.007104612922679882  8.021462288853472 0.007104612922679882  C 12.4271883613673 0.007104612922679882  15.998735016126195 3.3554296017591465  15.998735016126195 7.485797794740861  C 15.998735016126195 9.47071968798126  15.157049662046454 11.374221944432609  13.659090909090907 12.776988636363633  Z M 14.456589366438424 7.478635322057755  C 14.456589366438424 4.139181525036989  11.577201585134596 1.4279387395613397  8.015151515151516 1.4133522727272736  C 8.00573186517651 1.4133136995996507  7.9963121365752 1.4132944129668452  7.986892396741458 1.4132944129668452  C 4.4137774243513235 1.4132944129668452  1.517195427044488 4.128840035442003  1.517195427044488 7.4786353220577535  C 1.517195427044488 10.828430608673502  4.4137774243513235 13.543976231148662  7.986892396741458 13.543976231148662  C 9.702246785031427 13.543976231148662  11.347388232823516 12.905334235503531  12.560606060606059 11.768465909090912  C 13.774553703147369 10.630913696187017  14.456589366438424 9.087747445285387  14.456589366438424 7.478635322057755  Z " fill-rule="nonzero" fill="rgba(85, 85, 85, 1)" stroke="none" transform="matrix(1 0 0 1 934 310 )" class="fill" />
    <path d="M 13.659090909090907 12.776988636363633  C 12.162717109284216 14.180482984451798  10.13182671978765 14.967623387092242  8.015151515151516 14.964488636363633  C 3.6118911293265814 14.961222953949628  0.04418956158074459 11.613855698183048  0.04418956158074459 7.485797794740861  C 0.04418956158074459 3.3554296017591465  3.615736216339642 0.007104612922679882  8.021462288853472 0.007104612922679882  C 12.4271883613673 0.007104612922679882  15.998735016126195 3.3554296017591465  15.998735016126195 7.485797794740861  C 15.998735016126195 9.47071968798126  15.157049662046454 11.374221944432609  13.659090909090907 12.776988636363633  Z " stroke-width="0" stroke-dasharray="0" stroke="rgba(170, 170, 170, 1)" fill="none" transform="matrix(1 0 0 1 934 310 )" class="stroke" mask="url(#Clip104)" />
    <path d="M 14.456589366438424 7.478635322057755  C 14.456589366438424 4.139181525036989  11.577201585134596 1.4279387395613397  8.015151515151516 1.4133522727272736  C 8.00573186517651 1.4133136995996507  7.9963121365752 1.4132944129668452  7.986892396741458 1.4132944129668452  C 4.4137774243513235 1.4132944129668452  1.517195427044488 4.128840035442003  1.517195427044488 7.4786353220577535  C 1.517195427044488 10.828430608673502  4.4137774243513235 13.543976231148662  7.986892396741458 13.543976231148662  C 9.702246785031427 13.543976231148662  11.347388232823516 12.905334235503531  12.560606060606059 11.768465909090912  C 13.774553703147369 10.630913696187017  14.456589366438424 9.087747445285387  14.456589366438424 7.478635322057755  Z " stroke-width="0" stroke-dasharray="0" stroke="rgba(170, 170, 170, 1)" fill="none" transform="matrix(1 0 0 1 934 310 )" class="stroke" mask="url(#Clip104)" />
  </g>
</svg>