<?xml version="1.0" encoding="utf-8"?>
<svg version="1.1" xmlns:xlink="http://www.w3.org/1999/xlink" width="31px" height="33px" xmlns="http://www.w3.org/2000/svg">
  <defs>
    <pattern id="BGPattern" patternUnits="userSpaceOnUse" alignment="0 0" imageRepeat="None" />
    <mask fill="white" id="Clip39">
      <path d="M 23.330729166666664 1.252232142857144  L 29.627604166666664 6.997767857142856  C 30.004340277777782 7.341517857142855  30.327256944444446 7.808035714285716  30.596354166666664 8.397321428571429  C 30.86545138888889 8.986607142857144  31 9.526785714285714  31 10.017857142857144  L 31 31.232142857142858  C 31 31.72321428571429  30.811631944444443 32.140625  30.434895833333336 32.484375  C 30.058159722222225 32.828125  29.600694444444446 33  29.0625 33  L 1.9375 33  C 1.3993055555555558 33  0.9418402777777779 32.828125  0.5651041666666667 32.484375  C 0.18836805555555552 32.140625  0 31.72321428571429  0 31.232142857142858  L 0 1.767857142857144  C 0 1.2767857142857135  0.18836805555555552 0.8593749999999988  0.5651041666666667 0.515625  C 0.9418402777777779 0.17187500000000122  1.3993055555555558 0  1.9375 0  L 20.020833333333336 0  C 20.559027777777782 0  21.151041666666664 0.12276785714285854  21.796875 0.36830357142857195  C 22.442708333333336 0.6138392857142854  22.953993055555557 0.9084821428571415  23.330729166666664 1.252232142857144  Z M 21.494140625 2.9095982142857157  C 21.332682291666664 2.7622767857142843  21.056857638888893 2.627232142857139  20.666666666666664 2.5044642857142843  L 20.666666666666664 9.428571428571429  L 28.255208333333336 9.428571428571429  C 28.120659722222225 9.072544642857139  27.97265625 8.820870535714285  27.811197916666664 8.673549107142856  L 21.494140625 2.9095982142857157  Z M 3 30  L 28 30  L 28 11.785714285714285  L 20.020833333333336 11.785714285714285  C 19.48263888888889 11.785714285714285  19.02517361111111 11.613839285714283  18.6484375 11.270089285714285  C 18.27170138888889 10.926339285714285  18.083333333333336 10.508928571428568  18.083333333333336 10.017857142857144  L 18.083333333333336 3  L 3 3  L 3 30  Z M 19.375 16.5  L 25.833333333333336 22.392857142857142  L 25.833333333333336 28  L 5.166666666666666 28  L 5.166666666666666 24.75  L 9.041666666666668 21.21428571428571  L 11.625 23.571428571428573  L 19.375 16.5  Z M 11.786458333333332 17.825892857142858  C 11.032986111111112 18.513392857142854  10.118055555555555 18.857142857142858  9.041666666666668 18.857142857142858  C 7.965277777777779 18.857142857142858  7.050347222222223 18.513392857142854  6.296875 17.825892857142858  C 5.543402777777778 17.138392857142858  5.166666666666666 16.303571428571427  5.166666666666666 15.321428571428571  C 5.166666666666666 14.339285714285715  5.543402777777778 13.504464285714285  6.296875 12.816964285714285  C 7.050347222222223 12.129464285714283  7.965277777777779 11.785714285714285  9.041666666666668 11.785714285714285  C 10.118055555555555 11.785714285714285  11.032986111111112 12.129464285714283  11.786458333333332 12.816964285714285  C 12.539930555555555 13.504464285714285  12.916666666666668 14.339285714285715  12.916666666666668 15.321428571428571  C 12.916666666666668 16.303571428571427  12.539930555555555 17.138392857142858  11.786458333333332 17.825892857142858  Z " fill-rule="evenodd" />
    </mask>
  </defs>
  <g transform="matrix(1 0 0 1 -190 -454 )">
    <path d="M 23.330729166666664 1.252232142857144  L 29.627604166666664 6.997767857142856  C 30.004340277777782 7.341517857142855  30.327256944444446 7.808035714285716  30.596354166666664 8.397321428571429  C 30.86545138888889 8.986607142857144  31 9.526785714285714  31 10.017857142857144  L 31 31.232142857142858  C 31 31.72321428571429  30.811631944444443 32.140625  30.434895833333336 32.484375  C 30.058159722222225 32.828125  29.600694444444446 33  29.0625 33  L 1.9375 33  C 1.3993055555555558 33  0.9418402777777779 32.828125  0.5651041666666667 32.484375  C 0.18836805555555552 32.140625  0 31.72321428571429  0 31.232142857142858  L 0 1.767857142857144  C 0 1.2767857142857135  0.18836805555555552 0.8593749999999988  0.5651041666666667 0.515625  C 0.9418402777777779 0.17187500000000122  1.3993055555555558 0  1.9375 0  L 20.020833333333336 0  C 20.559027777777782 0  21.151041666666664 0.12276785714285854  21.796875 0.36830357142857195  C 22.442708333333336 0.6138392857142854  22.953993055555557 0.9084821428571415  23.330729166666664 1.252232142857144  Z M 21.494140625 2.9095982142857157  C 21.332682291666664 2.7622767857142843  21.056857638888893 2.627232142857139  20.666666666666664 2.5044642857142843  L 20.666666666666664 9.428571428571429  L 28.255208333333336 9.428571428571429  C 28.120659722222225 9.072544642857139  27.97265625 8.820870535714285  27.811197916666664 8.673549107142856  L 21.494140625 2.9095982142857157  Z M 3 30  L 28 30  L 28 11.785714285714285  L 20.020833333333336 11.785714285714285  C 19.48263888888889 11.785714285714285  19.02517361111111 11.613839285714283  18.6484375 11.270089285714285  C 18.27170138888889 10.926339285714285  18.083333333333336 10.508928571428568  18.083333333333336 10.017857142857144  L 18.083333333333336 3  L 3 3  L 3 30  Z M 19.375 16.5  L 25.833333333333336 22.392857142857142  L 25.833333333333336 28  L 5.166666666666666 28  L 5.166666666666666 24.75  L 9.041666666666668 21.21428571428571  L 11.625 23.571428571428573  L 19.375 16.5  Z M 11.786458333333332 17.825892857142858  C 11.032986111111112 18.513392857142854  10.118055555555555 18.857142857142858  9.041666666666668 18.857142857142858  C 7.965277777777779 18.857142857142858  7.050347222222223 18.513392857142854  6.296875 17.825892857142858  C 5.543402777777778 17.138392857142858  5.166666666666666 16.303571428571427  5.166666666666666 15.321428571428571  C 5.166666666666666 14.339285714285715  5.543402777777778 13.504464285714285  6.296875 12.816964285714285  C 7.050347222222223 12.129464285714283  7.965277777777779 11.785714285714285  9.041666666666668 11.785714285714285  C 10.118055555555555 11.785714285714285  11.032986111111112 12.129464285714283  11.786458333333332 12.816964285714285  C 12.539930555555555 13.504464285714285  12.916666666666668 14.339285714285715  12.916666666666668 15.321428571428571  C 12.916666666666668 16.303571428571427  12.539930555555555 17.138392857142858  11.786458333333332 17.825892857142858  Z " fill-rule="nonzero" fill="rgba(0, 0, 0, 1)" stroke="none" transform="matrix(1 0 0 1 190 454 )" class="fill" />
    <path d="M 23.330729166666664 1.252232142857144  L 29.627604166666664 6.997767857142856  C 30.004340277777782 7.341517857142855  30.327256944444446 7.808035714285716  30.596354166666664 8.397321428571429  C 30.86545138888889 8.986607142857144  31 9.526785714285714  31 10.017857142857144  L 31 31.232142857142858  C 31 31.72321428571429  30.811631944444443 32.140625  30.434895833333336 32.484375  C 30.058159722222225 32.828125  29.600694444444446 33  29.0625 33  L 1.9375 33  C 1.3993055555555558 33  0.9418402777777779 32.828125  0.5651041666666667 32.484375  C 0.18836805555555552 32.140625  0 31.72321428571429  0 31.232142857142858  L 0 1.767857142857144  C 0 1.2767857142857135  0.18836805555555552 0.8593749999999988  0.5651041666666667 0.515625  C 0.9418402777777779 0.17187500000000122  1.3993055555555558 0  1.9375 0  L 20.020833333333336 0  C 20.559027777777782 0  21.151041666666664 0.12276785714285854  21.796875 0.36830357142857195  C 22.442708333333336 0.6138392857142854  22.953993055555557 0.9084821428571415  23.330729166666664 1.252232142857144  Z " stroke-width="0" stroke-dasharray="0" stroke="rgba(215, 215, 215, 1)" fill="none" transform="matrix(1 0 0 1 190 454 )" class="stroke" mask="url(#Clip39)" />
    <path d="M 21.494140625 2.9095982142857157  C 21.332682291666664 2.7622767857142843  21.056857638888893 2.627232142857139  20.666666666666664 2.5044642857142843  L 20.666666666666664 9.428571428571429  L 28.255208333333336 9.428571428571429  C 28.120659722222225 9.072544642857139  27.97265625 8.820870535714285  27.811197916666664 8.673549107142856  L 21.494140625 2.9095982142857157  Z " stroke-width="0" stroke-dasharray="0" stroke="rgba(215, 215, 215, 1)" fill="none" transform="matrix(1 0 0 1 190 454 )" class="stroke" mask="url(#Clip39)" />
    <path d="M 3 30  L 28 30  L 28 11.785714285714285  L 20.020833333333336 11.785714285714285  C 19.48263888888889 11.785714285714285  19.02517361111111 11.613839285714283  18.6484375 11.270089285714285  C 18.27170138888889 10.926339285714285  18.083333333333336 10.508928571428568  18.083333333333336 10.017857142857144  L 18.083333333333336 3  L 3 3  L 3 30  Z " stroke-width="0" stroke-dasharray="0" stroke="rgba(215, 215, 215, 1)" fill="none" transform="matrix(1 0 0 1 190 454 )" class="stroke" mask="url(#Clip39)" />
    <path d="M 19.375 16.5  L 25.833333333333336 22.392857142857142  L 25.833333333333336 28  L 5.166666666666666 28  L 5.166666666666666 24.75  L 9.041666666666668 21.21428571428571  L 11.625 23.571428571428573  L 19.375 16.5  Z " stroke-width="0" stroke-dasharray="0" stroke="rgba(215, 215, 215, 1)" fill="none" transform="matrix(1 0 0 1 190 454 )" class="stroke" mask="url(#Clip39)" />
    <path d="M 11.786458333333332 17.825892857142858  C 11.032986111111112 18.513392857142854  10.118055555555555 18.857142857142858  9.041666666666668 18.857142857142858  C 7.965277777777779 18.857142857142858  7.050347222222223 18.513392857142854  6.296875 17.825892857142858  C 5.543402777777778 17.138392857142858  5.166666666666666 16.303571428571427  5.166666666666666 15.321428571428571  C 5.166666666666666 14.339285714285715  5.543402777777778 13.504464285714285  6.296875 12.816964285714285  C 7.050347222222223 12.129464285714283  7.965277777777779 11.785714285714285  9.041666666666668 11.785714285714285  C 10.118055555555555 11.785714285714285  11.032986111111112 12.129464285714283  11.786458333333332 12.816964285714285  C 12.539930555555555 13.504464285714285  12.916666666666668 14.339285714285715  12.916666666666668 15.321428571428571  C 12.916666666666668 16.303571428571427  12.539930555555555 17.138392857142858  11.786458333333332 17.825892857142858  Z " stroke-width="0" stroke-dasharray="0" stroke="rgba(215, 215, 215, 1)" fill="none" transform="matrix(1 0 0 1 190 454 )" class="stroke" mask="url(#Clip39)" />
  </g>
</svg>