<?xml version="1.0" encoding="utf-8"?>
<svg version="1.1" xmlns:xlink="http://www.w3.org/1999/xlink" width="12px" height="12px" viewBox="298 180 12 12" xmlns="http://www.w3.org/2000/svg">
  <path d="M 304 180  C 307.36 180  310 182.64  310 186  C 310 189.36  307.36 192  304 192  C 300.64 192  298 189.36  298 186  C 298 182.64  300.64 180  304 180  Z " fill-rule="nonzero" fill="rgba(255, 255, 255, 1)" stroke="none" class="fill" />
  <path d="M 304 180.5  C 307.08 180.5  309.5 182.92  309.5 186  C 309.5 189.08  307.08 191.5  304 191.5  C 300.92 191.5  298.5 189.08  298.5 186  C 298.5 182.92  300.92 180.5  304 180.5  Z " stroke-width="1" stroke-dasharray="0" stroke="rgba(121, 121, 121, 1)" fill="none" class="stroke" stroke-dashoffset="0.5" />
  <path d="M 304 189  C 302.32 189  301 187.68  301 186  C 301 184.32  302.32 183  304 183  C 305.68 183  307 184.32  307 186  C 307 187.68  305.68 189  304 189  " fill-rule="nonzero" fill="rgba(121, 121, 121, 1)" stroke="none" class="stroke btn_check" />
</svg>