<?xml version="1.0" encoding="utf-8"?>
<svg version="1.1" xmlns:xlink="http://www.w3.org/1999/xlink" width="12px" height="12px" viewBox="298 154 12 12" xmlns="http://www.w3.org/2000/svg">
  <path d="M 304 154  C 307.36 154  310 156.64  310 160  C 310 163.36  307.36 166  304 166  C 300.64 166  298 163.36  298 160  C 298 156.64  300.64 154  304 154  Z " fill-rule="nonzero" fill="rgba(240, 240, 240, 1)" stroke="none" class="fill" />
  <path d="M 304 154.5  C 307.08 154.5  309.5 156.92  309.5 160  C 309.5 163.08  307.08 165.5  304 165.5  C 300.92 165.5  298.5 163.08  298.5 160  C 298.5 156.92  300.92 154.5  304 154.5  Z " stroke-width="1" stroke-dasharray="0" stroke="rgba(121, 121, 121, 1)" fill="none" class="stroke" stroke-dashoffset="0.5" />
  <path d="M 304 163  C 302.32 163  301 161.68  301 160  C 301 158.32  302.32 157  304 157  C 305.68 157  307 158.32  307 160  C 307 161.68  305.68 163  304 163  " fill-rule="nonzero" fill="rgba(121, 121, 121, 1)" stroke="none" class="stroke btn_check" />
</svg>