<svg t="1631254427210" class="icon" viewBox="0 0 1024 1024" version="1.1" xmlns="http://www.w3.org/2000/svg" p-id="8439" width="200" height="200"><path d="M365.714024 950.856464H109.714207C49.249489 950.856464 0 901.606975 0 841.142256v-731.428049C0 49.249489 49.249489 0 109.714207 0h585.14244C755.321365 0 804.570854 49.249489 804.570854 109.714207v219.428415c0 20.236176-16.335226 36.571402-36.571403 36.571402s-36.571402-16.335226-36.571402-36.571402v-219.428415c0-20.114271-16.457131-36.571402-36.571402-36.571402h-585.14244C89.599936 73.142805 73.142805 89.599936 73.142805 109.714207v731.428049c0 20.114271 16.457131 36.571402 36.571402 36.571403H365.714024c20.236176 0 36.571402 16.335226 36.571403 36.571402S385.950201 950.856464 365.714024 950.856464z" p-id="8440" fill="#707070"></path><path d="M719.237581 1023.999269c-81.456704 0-157.988459-31.695215-215.454322-89.307365A302.372355 302.372355 0 0 1 414.475894 719.237581c0-81.456704 31.695215-157.988459 89.307365-215.454322A302.372355 302.372355 0 0 1 719.237581 414.475894c81.456704 0 157.988459 31.695215 215.454323 89.307365A303.225688 303.225688 0 0 1 1023.999269 719.237581c0 81.456704-31.695215 157.988459-89.307365 215.454323A303.030641 303.030641 0 0 1 719.237581 1023.999269z m0-537.819045c-128.511908 0-233.057357 104.545449-233.057357 233.057357 0 128.511908 104.545449 233.057357 233.057357 233.057358 128.511908 0 233.057357-104.545449 233.057358-233.057358 0-128.511908-104.545449-233.057357-233.057358-233.057357zM621.713842 316.952155h-438.85683c-20.236176 0-36.571402-16.335226-36.571402-36.571403S162.620836 243.80935 182.857012 243.80935h438.85683c20.236176 0 36.571402 16.335226 36.571402 36.571402s-16.335226 36.571402-36.571402 36.571403zM376.173446 511.999634H184.563678C163.401026 511.999634 146.28561 495.664408 146.28561 475.428232S163.401026 438.856829 184.588059 438.856829h191.585387c21.187032 0 38.302449 16.335226 38.302448 36.571403s-17.115416 36.571402-38.302448 36.571402zM282.818846 731.428049H180.418919c-18.870844 0-34.133309-16.335226-34.133309-36.571402S161.548075 658.285244 180.418919 658.285244h102.399927c18.870844 0 34.133309 16.335226 34.133309 36.571403s-15.262465 36.571402-34.133309 36.571402z" p-id="8441" fill="#707070"></path><path d="M731.476811 828.951789c-7.192376 0-14.287228-1.950475-20.3337-5.875805l-109.714207-69.631951c-16.774083-10.67885-21.357699-32.32912-10.142469-48.323013 11.190849-15.993893 33.938261-20.3337 50.712345-9.679231l77.823944 49.395774 89.941269-142.750374c10.386278-16.530274 32.914262-21.869699 50.151583-11.946658 17.383607 9.874279 22.966841 31.207597 12.580563 47.737871l-109.714208 174.079875a36.985878 36.985878 0 0 1-31.30512 16.993512z" p-id="8442" fill="#707070"></path></svg>