<?xml version="1.0" encoding="utf-8"?>
<svg version="1.1" xmlns:xlink="http://www.w3.org/1999/xlink" width="13px" height="13px" viewBox="98 1436 13 13" xmlns="http://www.w3.org/2000/svg">
  <path d="M 104.5 1436  C 108.14 1436  111 1438.86  111 1442.5  C 111 1446.14  108.14 1449  104.5 1449  C 100.86 1449  98 1446.14  98 1442.5  C 98 1438.86  100.86 1436  104.5 1436  Z " fill-rule="nonzero" fill="rgba(240, 240, 240, 1)" stroke="none" class="fill" />
  <path d="M 104.5 1436.5  C 107.86 1436.5  110.5 1439.14  110.5 1442.5  C 110.5 1445.86  107.86 1448.5  104.5 1448.5  C 101.14 1448.5  98.5 1445.86  98.5 1442.5  C 98.5 1439.14  101.14 1436.5  104.5 1436.5  Z " stroke-width="1" stroke-dasharray="0" stroke="rgba(121, 121, 121, 1)" fill="none" class="stroke" stroke-dashoffset="0.5" />
  <path d="M 104.5 1445.75  C 102.68 1445.75  101.25 1444.32  101.25 1442.5  C 101.25 1440.68  102.68 1439.25  104.5 1439.25  C 106.32 1439.25  107.75 1440.68  107.75 1442.5  C 107.75 1444.32  106.32 1445.75  104.5 1445.75  " fill-rule="nonzero" fill="rgba(121, 121, 121, 1)" stroke="none" class="stroke btn_check" />
</svg>