<?xml version="1.0" encoding="utf-8"?>
<svg version="1.1" xmlns:xlink="http://www.w3.org/1999/xlink" width="13px" height="13px" viewBox="188 1436 13 13" xmlns="http://www.w3.org/2000/svg">
  <path d="M 194.5 1436  C 198.14 1436  201 1438.86  201 1442.5  C 201 1446.14  198.14 1449  194.5 1449  C 190.86 1449  188 1446.14  188 1442.5  C 188 1438.86  190.86 1436  194.5 1436  Z " fill-rule="nonzero" fill="rgba(255, 255, 255, 1)" stroke="none" class="fill" />
  <path d="M 194.5 1436.5  C 197.86 1436.5  200.5 1439.14  200.5 1442.5  C 200.5 1445.86  197.86 1448.5  194.5 1448.5  C 191.14 1448.5  188.5 1445.86  188.5 1442.5  C 188.5 1439.14  191.14 1436.5  194.5 1436.5  Z " stroke-width="1" stroke-dasharray="0" stroke="rgba(121, 121, 121, 1)" fill="none" class="stroke" stroke-dashoffset="0.5" />
  <path d="M 194.5 1445.75  C 192.68 1445.75  191.25 1444.32  191.25 1442.5  C 191.25 1440.68  192.68 1439.25  194.5 1439.25  C 196.32 1439.25  197.75 1440.68  197.75 1442.5  C 197.75 1444.32  196.32 1445.75  194.5 1445.75  " fill-rule="nonzero" fill="rgba(121, 121, 121, 1)" stroke="none" class="stroke btn_check" />
</svg>