<?xml version="1.0" encoding="utf-8"?>
<svg version="1.1" xmlns:xlink="http://www.w3.org/1999/xlink" width="13px" height="13px" viewBox="98 1438  13 13" xmlns="http://www.w3.org/2000/svg">
  <path d="M 104.5 1438  C 108.14 1438  111 1440.86  111 1444.5  C 111 1448.14  108.14 1451  104.5 1451  C 100.86 1451  98 1448.14  98 1444.5  C 98 1440.86  100.86 1438  104.5 1438  Z " fill-rule="nonzero" fill="#f0f0f0" stroke="none" />
  <path d="M 104.5 1438.5  C 107.86 1438.5  110.5 1441.14  110.5 1444.5  C 110.5 1447.86  107.86 1450.5  104.5 1450.5  C 101.14 1450.5  98.5 1447.86  98.5 1444.5  C 98.5 1441.14  101.14 1438.5  104.5 1438.5  Z " stroke-width="1" stroke="#797979" fill="none" />
  <path d="M 104.5 1447.75  C 102.68 1447.75  101.25 1446.32  101.25 1444.5  C 101.25 1442.68  102.68 1441.25  104.5 1441.25  C 106.32 1441.25  107.75 1442.68  107.75 1444.5  C 107.75 1446.32  106.32 1447.75  104.5 1447.75  " fill-rule="nonzero" fill="#797979" stroke="none" />
</svg>