<?xml version="1.0" encoding="utf-8"?>
<svg version="1.1" xmlns:xlink="http://www.w3.org/1999/xlink" width="13px" height="13px" viewBox="188 1438  13 13" xmlns="http://www.w3.org/2000/svg">
  <path d="M 194.5 1438  C 198.14 1438  201 1440.86  201 1444.5  C 201 1448.14  198.14 1451  194.5 1451  C 190.86 1451  188 1448.14  188 1444.5  C 188 1440.86  190.86 1438  194.5 1438  Z " fill-rule="nonzero" fill="#ffffff" stroke="none" />
  <path d="M 194.5 1438.5  C 197.86 1438.5  200.5 1441.14  200.5 1444.5  C 200.5 1447.86  197.86 1450.5  194.5 1450.5  C 191.14 1450.5  188.5 1447.86  188.5 1444.5  C 188.5 1441.14  191.14 1438.5  194.5 1438.5  Z " stroke-width="1" stroke="#797979" fill="none" />
  <path d="M 194.5 1447.75  C 192.68 1447.75  191.25 1446.32  191.25 1444.5  C 191.25 1442.68  192.68 1441.25  194.5 1441.25  C 196.32 1441.25  197.75 1442.68  197.75 1444.5  C 197.75 1446.32  196.32 1447.75  194.5 1447.75  " fill-rule="nonzero" fill="#797979" stroke="none" />
</svg>