<?xml version="1.0" encoding="utf-8"?>
<svg version="1.1" xmlns:xlink="http://www.w3.org/1999/xlink" width="13px" height="13px" viewBox="328 569  13 13" xmlns="http://www.w3.org/2000/svg">
  <path d="M 334.5 569  C 338.14 569  341 571.86  341 575.5  C 341 579.14  338.14 582  334.5 582  C 330.86 582  328 579.14  328 575.5  C 328 571.86  330.86 569  334.5 569  Z " fill-rule="nonzero" fill="#ffffff" stroke="none" />
  <path d="M 334.5 569.5  C 337.86 569.5  340.5 572.14  340.5 575.5  C 340.5 578.86  337.86 581.5  334.5 581.5  C 331.14 581.5  328.5 578.86  328.5 575.5  C 328.5 572.14  331.14 569.5  334.5 569.5  Z " stroke-width="1" stroke="#797979" fill="none" />
  <path d="M 334.5 578.75  C 332.68 578.75  331.25 577.32  331.25 575.5  C 331.25 573.68  332.68 572.25  334.5 572.25  C 336.32 572.25  337.75 573.68  337.75 575.5  C 337.75 577.32  336.32 578.75  334.5 578.75  " fill-rule="nonzero" fill="#797979" stroke="none" />
</svg>