<?xml version="1.0" encoding="utf-8"?>
<svg version="1.1" xmlns:xlink="http://www.w3.org/1999/xlink" width="13px" height="13px" viewBox="386 567 13 13" xmlns="http://www.w3.org/2000/svg">
  <path d="M 392.5 567  C 396.14 567  399 569.86  399 573.5  C 399 577.14  396.14 580  392.5 580  C 388.86 580  386 577.14  386 573.5  C 386 569.86  388.86 567  392.5 567  Z " fill-rule="nonzero" fill="rgba(240, 240, 240, 1)" stroke="none" class="fill" />
  <path d="M 392.5 567.5  C 395.86 567.5  398.5 570.14  398.5 573.5  C 398.5 576.86  395.86 579.5  392.5 579.5  C 389.14 579.5  386.5 576.86  386.5 573.5  C 386.5 570.14  389.14 567.5  392.5 567.5  Z " stroke-width="1" stroke-dasharray="0" stroke="rgba(121, 121, 121, 1)" fill="none" class="stroke" stroke-dashoffset="0.5" />
  <path d="M 392.5 576.75  C 390.68 576.75  389.25 575.32  389.25 573.5  C 389.25 571.68  390.68 570.25  392.5 570.25  C 394.32 570.25  395.75 571.68  395.75 573.5  C 395.75 575.32  394.32 576.75  392.5 576.75  " fill-rule="nonzero" fill="rgba(121, 121, 121, 1)" stroke="none" class="stroke btn_check" />
</svg>