<?xml version="1.0" encoding="utf-8"?>
<svg version="1.1" xmlns:xlink="http://www.w3.org/1999/xlink" width="13px" height="13px" viewBox="328 567 13 13" xmlns="http://www.w3.org/2000/svg">
  <path d="M 334.5 567  C 338.14 567  341 569.86  341 573.5  C 341 577.14  338.14 580  334.5 580  C 330.86 580  328 577.14  328 573.5  C 328 569.86  330.86 567  334.5 567  Z " fill-rule="nonzero" fill="rgba(240, 240, 240, 1)" stroke="none" class="fill" />
  <path d="M 334.5 567.5  C 337.86 567.5  340.5 570.14  340.5 573.5  C 340.5 576.86  337.86 579.5  334.5 579.5  C 331.14 579.5  328.5 576.86  328.5 573.5  C 328.5 570.14  331.14 567.5  334.5 567.5  Z " stroke-width="1" stroke-dasharray="0" stroke="rgba(121, 121, 121, 1)" fill="none" class="stroke" stroke-dashoffset="0.5" />
  <path d="M 334.5 576.75  C 332.68 576.75  331.25 575.32  331.25 573.5  C 331.25 571.68  332.68 570.25  334.5 570.25  C 336.32 570.25  337.75 571.68  337.75 573.5  C 337.75 575.32  336.32 576.75  334.5 576.75  " fill-rule="nonzero" fill="rgba(121, 121, 121, 1)" stroke="none" class="stroke btn_check" />
</svg>