<svg t="1631253842891" class="icon" viewBox="0 0 1024 1024" version="1.1" xmlns="http://www.w3.org/2000/svg" p-id="2160" width="200" height="200"><path d="M221.445 183.34c-12.004-12.005-31.476-12.005-43.469 0-12.01 12.006-12.01 31.469 0 43.479l43.469 43.469c12.01 12.007 31.464 12.007 43.475 0 12.004-12 12.004-31.459 0-43.469L221.445 183.34 221.445 183.34zM805.55 183.34l-43.471 43.479c-12.006 12.009-12.006 31.469 0 43.469 11.992 12.007 31.46 12.007 43.471 0l43.466-43.469c12.013-12.009 12.013-31.472 0-43.479C837.014 171.34 817.556 171.34 805.55 183.34L805.55 183.34zM144.593 426.641 83.109 426.641c-16.978 0-30.744 13.764-30.744 30.741 0 16.981 13.766 30.743 30.744 30.743l61.484 0c16.978 0 30.739-13.762 30.739-30.743C175.332 440.405 161.571 426.641 144.593 426.641L144.593 426.641zM943.887 426.641l-61.484 0c-16.976 0-30.743 13.764-30.743 30.741 0 16.981 13.768 30.743 30.743 30.743l61.484 0c16.975 0 30.747-13.762 30.747-30.743C974.635 440.405 960.862 426.641 943.887 426.641L943.887 426.641zM482.757 73.107l0 61.482c0 16.979 13.76 30.739 30.737 30.739 16.977 0 30.748-13.76 30.748-30.739L544.242 73.107c0-16.978-13.771-30.743-30.748-30.743C496.517 42.364 482.757 56.13 482.757 73.107L482.757 73.107zM298.302 503.495c0-118.846 96.341-215.194 215.192-215.194 118.855 0 215.2 96.348 215.2 215.194 0 118.85-96.346 215.2-215.2 215.2C394.643 718.697 298.302 622.345 298.302 503.495L298.302 503.495zM236.82 503.495c0 152.818 123.867 276.693 276.674 276.693 152.815 0 276.683-123.875 276.683-276.693 0-152.811-123.867-276.677-276.683-276.677C360.686 226.819 236.82 350.686 236.82 503.495L236.82 503.495zM452.013 933.896c0 16.966 13.766 30.743 30.744 30.743l61.485 0c16.979 0 30.744-13.776 30.744-30.743 0-16.987-13.766-30.744-30.744-30.744l-61.485 0C465.78 903.151 452.013 916.908 452.013 933.896L452.013 933.896zM390.531 841.671c0 16.964 13.762 30.741 30.739 30.741l184.454 0c16.978 0 30.743-13.776 30.743-30.741 0-16.992-13.766-30.748-30.743-30.748L421.271 810.923C404.293 810.922 390.531 824.679 390.531 841.671L390.531 841.671z" p-id="2161" fill="#8a8a8a"></path></svg>