<?xml version="1.0" encoding="utf-8"?>
<svg version="1.1" xmlns:xlink="http://www.w3.org/1999/xlink" width="19px" height="19px" xmlns="http://www.w3.org/2000/svg">
  <defs>
    <pattern id="BGPattern" patternUnits="userSpaceOnUse" alignment="0 0" imageRepeat="None" />
    <mask fill="white" id="Clip20">
      <path d="M 9.503344313742895 17.05243172718395  C 11.566619280450992 17.05243172718395  13.342519753196022 16.30820108198686  14.831067343971945 14.81967508212003  C 16.319636504572088 13.331149082253198  17.063823989035868 11.555227018599076  17.063823989035868 9.49195205189098  C 17.063823989035868 7.428677085182881  16.319614934747868 5.652776612437854  14.831067343971945 4.164229021661931  C 13.342541344105115 2.675767752352627  11.566619280450993 1.93147237659801  9.503344313742895 1.93147237659801  C 7.4400693470347985 1.93147237659801  5.664168874289771 2.6757893221768456  4.175621283513848 4.164229021661931  C 2.6872031538529817 5.652755021528762  1.9428646384499273 7.428677085182883  1.9428646384499273 9.49195205189098  C 1.9428646384499273 11.555227018599076  2.6872031538529817 13.331127491344107  4.175621283513848 14.81967508212003  C 5.664147304465554 16.30820108198686  7.440069368119674 17.05243172718395  9.503344313742895 17.05243172718395  Z M 9.503344313742895 0.07319364568536939  C 12.097438928222653 0.07319364568536939  14.315717877752126 0.994457663796165  16.15833223544034 2.8370720003995027  C 18.00086027166193 4.679578466796875  18.92221059015447 6.897857416326349  18.92221059015447 9.491952030806106  C 18.92221059015447 12.086025075461645  18.00083868075284 14.304282455166906  16.15833223544034 16.14691838267933  C 14.315696307927908 17.989424849076702  12.097438928222653 18.910796737393465  9.503344313742895 18.910796737393465  C 6.909271269087356 18.910796737393465  4.691013889382101 17.98942482799183  2.84848585316051 16.14691838267933  C 1.0058499467329547 14.304304046075995  0.08458592862215916 12.086025075461649  0.08458592862215916 9.491973621715198  C 0.08458592862215916 6.89787900723544  1.0058499467329547 4.679600057705967  2.848464283336293 2.837093591308594  C 4.690992319557884 0.994457663796165  6.90927129017223 0.07319364568536939  9.503344313742895 0.07319364568536939  Z M 9.503344313742895 8.164795051713423  L 11.935142151988636 5.732975643643465  L 13.261457676003197 7.059269597833805  L 10.82961669810902 9.491067414994673  L 13.261457676003197 11.922800522682884  L 11.935142151988636 13.249094476873225  L 9.503344313742895 10.817275068803266  L 7.071524905672942 13.249094476873223  L 5.745360412597655 11.92280052268288  L 8.177050359552558 9.491067414994673  L 5.745338842773438 7.059269597833805  L 7.071503335848723 5.732975643643465  L 9.503344313742895 8.164795051713423  Z " fill-rule="evenodd" />
    </mask>
  </defs>
  <g transform="matrix(1 0 0 1 -17 -11 )">
    <path d="M 9.503344313742895 17.05243172718395  C 11.566619280450992 17.05243172718395  13.342519753196022 16.30820108198686  14.831067343971945 14.81967508212003  C 16.319636504572088 13.331149082253198  17.063823989035868 11.555227018599076  17.063823989035868 9.49195205189098  C 17.063823989035868 7.428677085182881  16.319614934747868 5.652776612437854  14.831067343971945 4.164229021661931  C 13.342541344105115 2.675767752352627  11.566619280450993 1.93147237659801  9.503344313742895 1.93147237659801  C 7.4400693470347985 1.93147237659801  5.664168874289771 2.6757893221768456  4.175621283513848 4.164229021661931  C 2.6872031538529817 5.652755021528762  1.9428646384499273 7.428677085182883  1.9428646384499273 9.49195205189098  C 1.9428646384499273 11.555227018599076  2.6872031538529817 13.331127491344107  4.175621283513848 14.81967508212003  C 5.664147304465554 16.30820108198686  7.440069368119674 17.05243172718395  9.503344313742895 17.05243172718395  Z M 9.503344313742895 0.07319364568536939  C 12.097438928222653 0.07319364568536939  14.315717877752126 0.994457663796165  16.15833223544034 2.8370720003995027  C 18.00086027166193 4.679578466796875  18.92221059015447 6.897857416326349  18.92221059015447 9.491952030806106  C 18.92221059015447 12.086025075461645  18.00083868075284 14.304282455166906  16.15833223544034 16.14691838267933  C 14.315696307927908 17.989424849076702  12.097438928222653 18.910796737393465  9.503344313742895 18.910796737393465  C 6.909271269087356 18.910796737393465  4.691013889382101 17.98942482799183  2.84848585316051 16.14691838267933  C 1.0058499467329547 14.304304046075995  0.08458592862215916 12.086025075461649  0.08458592862215916 9.491973621715198  C 0.08458592862215916 6.89787900723544  1.0058499467329547 4.679600057705967  2.848464283336293 2.837093591308594  C 4.690992319557884 0.994457663796165  6.90927129017223 0.07319364568536939  9.503344313742895 0.07319364568536939  Z M 9.503344313742895 8.164795051713423  L 11.935142151988636 5.732975643643465  L 13.261457676003197 7.059269597833805  L 10.82961669810902 9.491067414994673  L 13.261457676003197 11.922800522682884  L 11.935142151988636 13.249094476873225  L 9.503344313742895 10.817275068803266  L 7.071524905672942 13.249094476873223  L 5.745360412597655 11.92280052268288  L 8.177050359552558 9.491067414994673  L 5.745338842773438 7.059269597833805  L 7.071503335848723 5.732975643643465  L 9.503344313742895 8.164795051713423  Z " fill-rule="nonzero" fill="rgba(219, 219, 219, 1)" stroke="none" transform="matrix(1 0 0 1 17 11 )" class="fill" />
    <path d="M 9.503344313742895 17.05243172718395  C 11.566619280450992 17.05243172718395  13.342519753196022 16.30820108198686  14.831067343971945 14.81967508212003  C 16.319636504572088 13.331149082253198  17.063823989035868 11.555227018599076  17.063823989035868 9.49195205189098  C 17.063823989035868 7.428677085182881  16.319614934747868 5.652776612437854  14.831067343971945 4.164229021661931  C 13.342541344105115 2.675767752352627  11.566619280450993 1.93147237659801  9.503344313742895 1.93147237659801  C 7.4400693470347985 1.93147237659801  5.664168874289771 2.6757893221768456  4.175621283513848 4.164229021661931  C 2.6872031538529817 5.652755021528762  1.9428646384499273 7.428677085182883  1.9428646384499273 9.49195205189098  C 1.9428646384499273 11.555227018599076  2.6872031538529817 13.331127491344107  4.175621283513848 14.81967508212003  C 5.664147304465554 16.30820108198686  7.440069368119674 17.05243172718395  9.503344313742895 17.05243172718395  Z " stroke-width="0" stroke-dasharray="0" stroke="rgba(255, 255, 255, 0)" fill="none" transform="matrix(1 0 0 1 17 11 )" class="stroke" mask="url(#Clip20)" />
    <path d="M 9.503344313742895 0.07319364568536939  C 12.097438928222653 0.07319364568536939  14.315717877752126 0.994457663796165  16.15833223544034 2.8370720003995027  C 18.00086027166193 4.679578466796875  18.92221059015447 6.897857416326349  18.92221059015447 9.491952030806106  C 18.92221059015447 12.086025075461645  18.00083868075284 14.304282455166906  16.15833223544034 16.14691838267933  C 14.315696307927908 17.989424849076702  12.097438928222653 18.910796737393465  9.503344313742895 18.910796737393465  C 6.909271269087356 18.910796737393465  4.691013889382101 17.98942482799183  2.84848585316051 16.14691838267933  C 1.0058499467329547 14.304304046075995  0.08458592862215916 12.086025075461649  0.08458592862215916 9.491973621715198  C 0.08458592862215916 6.89787900723544  1.0058499467329547 4.679600057705967  2.848464283336293 2.837093591308594  C 4.690992319557884 0.994457663796165  6.90927129017223 0.07319364568536939  9.503344313742895 0.07319364568536939  Z " stroke-width="0" stroke-dasharray="0" stroke="rgba(255, 255, 255, 0)" fill="none" transform="matrix(1 0 0 1 17 11 )" class="stroke" mask="url(#Clip20)" />
    <path d="M 9.503344313742895 8.164795051713423  L 11.935142151988636 5.732975643643465  L 13.261457676003197 7.059269597833805  L 10.82961669810902 9.491067414994673  L 13.261457676003197 11.922800522682884  L 11.935142151988636 13.249094476873225  L 9.503344313742895 10.817275068803266  L 7.071524905672942 13.249094476873223  L 5.745360412597655 11.92280052268288  L 8.177050359552558 9.491067414994673  L 5.745338842773438 7.059269597833805  L 7.071503335848723 5.732975643643465  L 9.503344313742895 8.164795051713423  Z " stroke-width="0" stroke-dasharray="0" stroke="rgba(255, 255, 255, 0)" fill="none" transform="matrix(1 0 0 1 17 11 )" class="stroke" mask="url(#Clip20)" />
  </g>
</svg>