<?xml version="1.0" encoding="utf-8"?>
<svg version="1.1" xmlns:xlink="http://www.w3.org/1999/xlink" width="17px" height="13px" xmlns="http://www.w3.org/2000/svg">
  <defs>
    <pattern id="BGPattern" patternUnits="userSpaceOnUse" alignment="0 0" imageRepeat="None" />
    <mask fill="white" id="Clip8">
      <path d="M 0 6  L 0 5.145180722891566  L 16.82693298969072 5.145180722891566  L 16.82693298969072 6  L 0 6  Z M 4.756056701030928 2.6430722891566267  C 4.756056701030928 2.9132530120481928  4.51069587628866 3.1325301204819276  4.208376288659794 3.1325301204819276  C 3.906056701030928 3.1325301204819276  3.6606958762886603 2.9132530120481928  3.6606958762886603 2.6430722891566267  L 3.6606958762886603 0.5325301204819277  C 3.6606958762886603 0.2623493975903616  3.906056701030928 0.04307228915662656  4.208376288659794 0.04307228915662656  C 4.51069587628866 0.04307228915662656  4.756056701030928 0.2623493975903616  4.756056701030928 0.5325301204819277  L 4.756056701030928 2.6430722891566267  Z M 13.15090206185567 2.6430722891566267  C 13.15090206185567 2.9132530120481928  12.9055412371134 3.1325301204819276  12.603221649484535 3.1325301204819276  C 12.30090206185567 3.1325301204819276  12.0555412371134 2.9132530120481928  12.0555412371134 2.6430722891566267  L 12.0555412371134 0.5325301204819277  C 12.0555412371134 0.2623493975903616  12.30090206185567 0.04307228915662656  12.603221649484535 0.04307228915662656  C 12.9055412371134 0.04307228915662656  13.15090206185567 0.2623493975903616  13.15090206185567 0.5325301204819277  L 13.15090206185567 2.6430722891566267  Z M 5.610438144329898 8.923795180722891  C 5.610438144329898 9.193975903614456  5.36507731958763 9.413253012048191  5.062757731958763 9.413253012048191  L 3.353994845360825 9.413253012048191  C 3.0516752577319592 9.413253012048191  2.806314432989691 9.193975903614456  2.806314432989691 8.923795180722891  C 2.806314432989691 8.653614457831324  3.0516752577319592 8.434337349397591  3.353994845360825 8.434337349397591  L 5.062757731958763 8.434337349397591  C 5.36507731958763 8.434337349397591  5.610438144329898 8.653614457831324  5.610438144329898 8.923795180722891  Z M 9.816623711340208 8.923795180722891  C 9.816623711340208 9.193975903614456  9.571262886597939 9.413253012048191  9.268943298969074 9.413253012048191  L 7.5601804123711345 9.413253012048191  C 7.257860824742268 9.413253012048191  7.0125 9.193975903614456  7.0125 8.923795180722891  C 7.0125 8.653614457831324  7.257860824742268 8.434337349397591  7.5601804123711345 8.434337349397591  L 9.268943298969074 8.434337349397591  C 9.571262886597939 8.434337349397591  9.816623711340208 8.653614457831324  9.816623711340208 8.923795180722891  Z M 14.044716494845362 8.923795180722891  C 14.044716494845362 9.193975903614456  13.799355670103093 9.413253012048191  13.497036082474228 9.413253012048191  L 11.788273195876288 9.413253012048191  C 11.485953608247424 9.413253012048191  11.240592783505154 9.193975903614456  11.240592783505154 8.923795180722891  C 11.240592783505154 8.653614457831324  11.485953608247424 8.434337349397591  11.788273195876288 8.434337349397591  L 13.497036082474228 8.434337349397591  C 13.799355670103093 8.434337349397591  14.044716494845362 8.653614457831324  14.044716494845362 8.923795180722891  Z M 5.610438144329898 12.389156626506022  C 5.610438144329898 12.659337349397589  5.36507731958763 12.878614457831324  5.062757731958763 12.878614457831324  L 3.353994845360825 12.878614457831324  C 3.0516752577319592 12.878614457831324  2.806314432989691 12.659337349397589  2.806314432989691 12.389156626506022  C 2.806314432989691 12.118975903614459  3.0516752577319592 11.899698795180722  3.353994845360825 11.899698795180722  L 5.062757731958763 11.899698795180722  C 5.36507731958763 11.899698795180722  5.610438144329898 12.118975903614459  5.610438144329898 12.389156626506022  Z M 9.816623711340208 12.389156626506022  C 9.816623711340208 12.659337349397589  9.571262886597939 12.878614457831324  9.268943298969074 12.878614457831324  L 7.5601804123711345 12.878614457831324  C 7.257860824742268 12.878614457831324  7.0125 12.659337349397589  7.0125 12.389156626506022  C 7.0125 12.118975903614459  7.257860824742268 11.899698795180722  7.5601804123711345 11.899698795180722  L 9.268943298969074 11.899698795180722  C 9.571262886597939 11.899698795180722  9.816623711340208 12.118975903614459  9.816623711340208 12.389156626506022  Z M 14.044716494845362 12.389156626506022  C 14.044716494845362 12.659337349397589  13.799355670103093 12.878614457831324  13.497036082474228 12.878614457831324  L 11.788273195876288 12.878614457831324  C 11.485953608247424 12.878614457831324  11.240592783505154 12.659337349397589  11.240592783505154 12.389156626506022  C 11.240592783505154 12.118975903614459  11.485953608247424 11.899698795180722  11.788273195876288 11.899698795180722  L 13.497036082474228 11.899698795180722  C 13.799355670103093 11.899698795180722  14.044716494845362 12.118975903614459  14.044716494845362 12.389156626506022  Z M 5.610438144329898 2.134036144578313  L 5.610438144329898 1.1551204819277108  L 11.240592783505154 1.1551204819277108  L 11.240592783505154 2.134036144578313  L 5.610438144329898 2.134036144578313  Z " fill-rule="evenodd" />
    </mask>
  </defs>
  <g transform="matrix(1 0 0 1 -865 -437 )">
    <path d="M 0 6  L 0 5.145180722891566  L 16.82693298969072 5.145180722891566  L 16.82693298969072 6  L 0 6  Z M 4.756056701030928 2.6430722891566267  C 4.756056701030928 2.9132530120481928  4.51069587628866 3.1325301204819276  4.208376288659794 3.1325301204819276  C 3.906056701030928 3.1325301204819276  3.6606958762886603 2.9132530120481928  3.6606958762886603 2.6430722891566267  L 3.6606958762886603 0.5325301204819277  C 3.6606958762886603 0.2623493975903616  3.906056701030928 0.04307228915662656  4.208376288659794 0.04307228915662656  C 4.51069587628866 0.04307228915662656  4.756056701030928 0.2623493975903616  4.756056701030928 0.5325301204819277  L 4.756056701030928 2.6430722891566267  Z M 13.15090206185567 2.6430722891566267  C 13.15090206185567 2.9132530120481928  12.9055412371134 3.1325301204819276  12.603221649484535 3.1325301204819276  C 12.30090206185567 3.1325301204819276  12.0555412371134 2.9132530120481928  12.0555412371134 2.6430722891566267  L 12.0555412371134 0.5325301204819277  C 12.0555412371134 0.2623493975903616  12.30090206185567 0.04307228915662656  12.603221649484535 0.04307228915662656  C 12.9055412371134 0.04307228915662656  13.15090206185567 0.2623493975903616  13.15090206185567 0.5325301204819277  L 13.15090206185567 2.6430722891566267  Z M 5.610438144329898 8.923795180722891  C 5.610438144329898 9.193975903614456  5.36507731958763 9.413253012048191  5.062757731958763 9.413253012048191  L 3.353994845360825 9.413253012048191  C 3.0516752577319592 9.413253012048191  2.806314432989691 9.193975903614456  2.806314432989691 8.923795180722891  C 2.806314432989691 8.653614457831324  3.0516752577319592 8.434337349397591  3.353994845360825 8.434337349397591  L 5.062757731958763 8.434337349397591  C 5.36507731958763 8.434337349397591  5.610438144329898 8.653614457831324  5.610438144329898 8.923795180722891  Z M 9.816623711340208 8.923795180722891  C 9.816623711340208 9.193975903614456  9.571262886597939 9.413253012048191  9.268943298969074 9.413253012048191  L 7.5601804123711345 9.413253012048191  C 7.257860824742268 9.413253012048191  7.0125 9.193975903614456  7.0125 8.923795180722891  C 7.0125 8.653614457831324  7.257860824742268 8.434337349397591  7.5601804123711345 8.434337349397591  L 9.268943298969074 8.434337349397591  C 9.571262886597939 8.434337349397591  9.816623711340208 8.653614457831324  9.816623711340208 8.923795180722891  Z M 14.044716494845362 8.923795180722891  C 14.044716494845362 9.193975903614456  13.799355670103093 9.413253012048191  13.497036082474228 9.413253012048191  L 11.788273195876288 9.413253012048191  C 11.485953608247424 9.413253012048191  11.240592783505154 9.193975903614456  11.240592783505154 8.923795180722891  C 11.240592783505154 8.653614457831324  11.485953608247424 8.434337349397591  11.788273195876288 8.434337349397591  L 13.497036082474228 8.434337349397591  C 13.799355670103093 8.434337349397591  14.044716494845362 8.653614457831324  14.044716494845362 8.923795180722891  Z M 5.610438144329898 12.389156626506022  C 5.610438144329898 12.659337349397589  5.36507731958763 12.878614457831324  5.062757731958763 12.878614457831324  L 3.353994845360825 12.878614457831324  C 3.0516752577319592 12.878614457831324  2.806314432989691 12.659337349397589  2.806314432989691 12.389156626506022  C 2.806314432989691 12.118975903614459  3.0516752577319592 11.899698795180722  3.353994845360825 11.899698795180722  L 5.062757731958763 11.899698795180722  C 5.36507731958763 11.899698795180722  5.610438144329898 12.118975903614459  5.610438144329898 12.389156626506022  Z M 9.816623711340208 12.389156626506022  C 9.816623711340208 12.659337349397589  9.571262886597939 12.878614457831324  9.268943298969074 12.878614457831324  L 7.5601804123711345 12.878614457831324  C 7.257860824742268 12.878614457831324  7.0125 12.659337349397589  7.0125 12.389156626506022  C 7.0125 12.118975903614459  7.257860824742268 11.899698795180722  7.5601804123711345 11.899698795180722  L 9.268943298969074 11.899698795180722  C 9.571262886597939 11.899698795180722  9.816623711340208 12.118975903614459  9.816623711340208 12.389156626506022  Z M 14.044716494845362 12.389156626506022  C 14.044716494845362 12.659337349397589  13.799355670103093 12.878614457831324  13.497036082474228 12.878614457831324  L 11.788273195876288 12.878614457831324  C 11.485953608247424 12.878614457831324  11.240592783505154 12.659337349397589  11.240592783505154 12.389156626506022  C 11.240592783505154 12.118975903614459  11.485953608247424 11.899698795180722  11.788273195876288 11.899698795180722  L 13.497036082474228 11.899698795180722  C 13.799355670103093 11.899698795180722  14.044716494845362 12.118975903614459  14.044716494845362 12.389156626506022  Z M 5.610438144329898 2.134036144578313  L 5.610438144329898 1.1551204819277108  L 11.240592783505154 1.1551204819277108  L 11.240592783505154 2.134036144578313  L 5.610438144329898 2.134036144578313  Z " fill-rule="nonzero" fill="rgba(153, 153, 153, 1)" stroke="none" transform="matrix(1 0 0 1 865 437 )" class="fill" />
    <path d="M 0 6  L 0 5.145180722891566  L 16.82693298969072 5.145180722891566  L 16.82693298969072 6  L 0 6  Z " stroke-width="0" stroke-dasharray="0" stroke="rgba(255, 255, 255, 0)" fill="none" transform="matrix(1 0 0 1 865 437 )" class="stroke" mask="url(#Clip8)" />
    <path d="M 4.756056701030928 2.6430722891566267  C 4.756056701030928 2.9132530120481928  4.51069587628866 3.1325301204819276  4.208376288659794 3.1325301204819276  C 3.906056701030928 3.1325301204819276  3.6606958762886603 2.9132530120481928  3.6606958762886603 2.6430722891566267  L 3.6606958762886603 0.5325301204819277  C 3.6606958762886603 0.2623493975903616  3.906056701030928 0.04307228915662656  4.208376288659794 0.04307228915662656  C 4.51069587628866 0.04307228915662656  4.756056701030928 0.2623493975903616  4.756056701030928 0.5325301204819277  L 4.756056701030928 2.6430722891566267  Z " stroke-width="0" stroke-dasharray="0" stroke="rgba(255, 255, 255, 0)" fill="none" transform="matrix(1 0 0 1 865 437 )" class="stroke" mask="url(#Clip8)" />
    <path d="M 13.15090206185567 2.6430722891566267  C 13.15090206185567 2.9132530120481928  12.9055412371134 3.1325301204819276  12.603221649484535 3.1325301204819276  C 12.30090206185567 3.1325301204819276  12.0555412371134 2.9132530120481928  12.0555412371134 2.6430722891566267  L 12.0555412371134 0.5325301204819277  C 12.0555412371134 0.2623493975903616  12.30090206185567 0.04307228915662656  12.603221649484535 0.04307228915662656  C 12.9055412371134 0.04307228915662656  13.15090206185567 0.2623493975903616  13.15090206185567 0.5325301204819277  L 13.15090206185567 2.6430722891566267  Z " stroke-width="0" stroke-dasharray="0" stroke="rgba(255, 255, 255, 0)" fill="none" transform="matrix(1 0 0 1 865 437 )" class="stroke" mask="url(#Clip8)" />
    <path d="M 5.610438144329898 8.923795180722891  C 5.610438144329898 9.193975903614456  5.36507731958763 9.413253012048191  5.062757731958763 9.413253012048191  L 3.353994845360825 9.413253012048191  C 3.0516752577319592 9.413253012048191  2.806314432989691 9.193975903614456  2.806314432989691 8.923795180722891  C 2.806314432989691 8.653614457831324  3.0516752577319592 8.434337349397591  3.353994845360825 8.434337349397591  L 5.062757731958763 8.434337349397591  C 5.36507731958763 8.434337349397591  5.610438144329898 8.653614457831324  5.610438144329898 8.923795180722891  Z " stroke-width="0" stroke-dasharray="0" stroke="rgba(255, 255, 255, 0)" fill="none" transform="matrix(1 0 0 1 865 437 )" class="stroke" mask="url(#Clip8)" />
    <path d="M 9.816623711340208 8.923795180722891  C 9.816623711340208 9.193975903614456  9.571262886597939 9.413253012048191  9.268943298969074 9.413253012048191  L 7.5601804123711345 9.413253012048191  C 7.257860824742268 9.413253012048191  7.0125 9.193975903614456  7.0125 8.923795180722891  C 7.0125 8.653614457831324  7.257860824742268 8.434337349397591  7.5601804123711345 8.434337349397591  L 9.268943298969074 8.434337349397591  C 9.571262886597939 8.434337349397591  9.816623711340208 8.653614457831324  9.816623711340208 8.923795180722891  Z " stroke-width="0" stroke-dasharray="0" stroke="rgba(255, 255, 255, 0)" fill="none" transform="matrix(1 0 0 1 865 437 )" class="stroke" mask="url(#Clip8)" />
    <path d="M 14.044716494845362 8.923795180722891  C 14.044716494845362 9.193975903614456  13.799355670103093 9.413253012048191  13.497036082474228 9.413253012048191  L 11.788273195876288 9.413253012048191  C 11.485953608247424 9.413253012048191  11.240592783505154 9.193975903614456  11.240592783505154 8.923795180722891  C 11.240592783505154 8.653614457831324  11.485953608247424 8.434337349397591  11.788273195876288 8.434337349397591  L 13.497036082474228 8.434337349397591  C 13.799355670103093 8.434337349397591  14.044716494845362 8.653614457831324  14.044716494845362 8.923795180722891  Z " stroke-width="0" stroke-dasharray="0" stroke="rgba(255, 255, 255, 0)" fill="none" transform="matrix(1 0 0 1 865 437 )" class="stroke" mask="url(#Clip8)" />
    <path d="M 5.610438144329898 12.389156626506022  C 5.610438144329898 12.659337349397589  5.36507731958763 12.878614457831324  5.062757731958763 12.878614457831324  L 3.353994845360825 12.878614457831324  C 3.0516752577319592 12.878614457831324  2.806314432989691 12.659337349397589  2.806314432989691 12.389156626506022  C 2.806314432989691 12.118975903614459  3.0516752577319592 11.899698795180722  3.353994845360825 11.899698795180722  L 5.062757731958763 11.899698795180722  C 5.36507731958763 11.899698795180722  5.610438144329898 12.118975903614459  5.610438144329898 12.389156626506022  Z " stroke-width="0" stroke-dasharray="0" stroke="rgba(255, 255, 255, 0)" fill="none" transform="matrix(1 0 0 1 865 437 )" class="stroke" mask="url(#Clip8)" />
    <path d="M 9.816623711340208 12.389156626506022  C 9.816623711340208 12.659337349397589  9.571262886597939 12.878614457831324  9.268943298969074 12.878614457831324  L 7.5601804123711345 12.878614457831324  C 7.257860824742268 12.878614457831324  7.0125 12.659337349397589  7.0125 12.389156626506022  C 7.0125 12.118975903614459  7.257860824742268 11.899698795180722  7.5601804123711345 11.899698795180722  L 9.268943298969074 11.899698795180722  C 9.571262886597939 11.899698795180722  9.816623711340208 12.118975903614459  9.816623711340208 12.389156626506022  Z " stroke-width="0" stroke-dasharray="0" stroke="rgba(255, 255, 255, 0)" fill="none" transform="matrix(1 0 0 1 865 437 )" class="stroke" mask="url(#Clip8)" />
    <path d="M 14.044716494845362 12.389156626506022  C 14.044716494845362 12.659337349397589  13.799355670103093 12.878614457831324  13.497036082474228 12.878614457831324  L 11.788273195876288 12.878614457831324  C 11.485953608247424 12.878614457831324  11.240592783505154 12.659337349397589  11.240592783505154 12.389156626506022  C 11.240592783505154 12.118975903614459  11.485953608247424 11.899698795180722  11.788273195876288 11.899698795180722  L 13.497036082474228 11.899698795180722  C 13.799355670103093 11.899698795180722  14.044716494845362 12.118975903614459  14.044716494845362 12.389156626506022  Z " stroke-width="0" stroke-dasharray="0" stroke="rgba(255, 255, 255, 0)" fill="none" transform="matrix(1 0 0 1 865 437 )" class="stroke" mask="url(#Clip8)" />
    <path d="M 5.610438144329898 2.134036144578313  L 5.610438144329898 1.1551204819277108  L 11.240592783505154 1.1551204819277108  L 11.240592783505154 2.134036144578313  L 5.610438144329898 2.134036144578313  Z " stroke-width="0" stroke-dasharray="0" stroke="rgba(255, 255, 255, 0)" fill="none" transform="matrix(1 0 0 1 865 437 )" class="stroke" mask="url(#Clip8)" />
  </g>
</svg>