<?xml version="1.0" encoding="utf-8"?>
<svg version="1.1" xmlns:xlink="http://www.w3.org/1999/xlink" width="18px" height="18px" xmlns="http://www.w3.org/2000/svg">
  <defs>
    <pattern id="BGPattern" patternUnits="userSpaceOnUse" alignment="0 0" imageRepeat="None" />
    <mask fill="white" id="Clip99">
      <path d="M 13.68749999267578 0.7968750073242187  L 13.68749999267578 1.5000000073242183  L 15.32906250732422 1.5000000073242183  C 16.753124992675783 1.5000000073242183  17.90624999267578 2.6540624926757816  18 4.080234375  L 18 15.325781242675781  C 17.90624999267578 16.751015617675783  16.75265625 17.90624999267578  15.32906250732422 18  L 2.670937492675781 18  C 1.246875007324219 17.90624999267578  0.09375000732421869 16.752187507324216  0 15.326015624999998  L 0 4.080468757324219  C 0.09375000732421869 2.655234382324219  1.2473437500000002 1.5000000073242183  2.670937492675781 1.5000000073242183  L 4.312500007324219 1.5000000073242183  L 4.312500007324219 0.7968750073242187  C 4.312500007324219 0.4085497925994419  4.627299792599443 0.09375000732421869  5.015625007324219 0.09375000732421869  C 5.403950222048996 0.09375000732421869  5.718750007324219 0.4085497925994419  5.718750007324219 0.7968750073242187  L 5.718750007324219 1.5000000073242183  L 12.28124999267578 1.5000000073242183  L 12.28124999267578 0.7968750073242187  C 12.28124999267578 0.4085497925994419  12.596049777951006 0.09375000732421869  12.98437499267578 0.09375000732421869  C 13.37270020740056 0.09375000732421869  13.68749999267578 0.4085497925994419  13.68749999267578 0.7968750073242187  Z M 15.32906250732422 2.9062500073242186  L 13.68749999267578 2.9062500073242186  L 13.68749999267578 3.6093750073242172  C 13.68749999267578 3.997700222048995  13.37270020740056 4.312500007324218  12.98437499267578 4.312500007324218  C 12.596049777951006 4.312500007324218  12.28124999267578 3.997700222048995  12.28124999267578 3.6093750073242172  L 12.28124999267578 2.9062500073242172  L 5.718750007324219 2.9062500073242172  L 5.718750007324219 3.6093750073242172  C 5.718750007324219 3.997700222048995  5.403950222048996 4.312500007324218  5.015625007324219 4.312500007324218  C 4.627299792599443 4.312500007324218  4.312500007324219 3.997700222048995  4.312500007324219 3.6093750073242172  L 4.312500007324219 2.9062500073242172  L 2.670937492675781 2.9062500073242172  C 2.0240190452601823 2.907025377628751  1.4999988581871464 3.431674010507832  1.4999988581871464 4.078592922587019  C 1.4999988581871464 4.079140073592919  1.4999992412329302 4.07968722453042  1.5000000073242183 4.080234375  L 1.5000000073242183 15.325781242675784  C 1.4999973650585081 15.32679687552452  1.4999960439239752 15.32781251138078  1.4999960439239752 15.328828147666567  C 1.4999960439239752 15.975558527260242  2.0242071255987613 16.499872753521323  2.670937492675781 16.49999999267578  L 15.329062507324215 16.49999999267578  C 15.975980954739814 16.49922462237125  16.500001141812852 15.974575989492166  16.500001141812852 15.327657077412981  C 16.500001141812852 15.327109926407827  16.500000758767072 15.326562775468838  16.49999999267578 15.326015624999998  L 16.49999999267578 4.080468757324221  C 16.50000263494149 4.079453124475881  16.50000395607603 4.078437488618825  16.50000395607603 4.077421852333438  C 16.50000395607603 3.4306914727397584  15.975792874401241 2.9063772464786775  15.32906250732422 2.9062500073242186  Z M 4.546874992675781 7.828125007324218  L 13.45312500732422 7.828125007324218  C 13.841450222048998 7.828125007324218  14.15625000732422 8.142924792599441  14.15625000732422 8.531250007324218  C 14.15625000732422 8.919575222048994  13.841450222048998 9.234375007324218  13.45312500732422 9.234375007324218  L 4.546874992675781 9.234375007324218  C 4.158549777951005 9.234375007324218  3.843749992675781 8.919575222048994  3.843749992675781 8.531250007324218  C 3.843749992675781 8.142924792599441  4.158549777951005 7.828125007324218  4.546874992675781 7.828125007324218  Z M 4.546874992675781 11.343750007324218  L 10.640625007324218 11.343750007324218  C 11.028950222048994 11.343750007324218  11.343750007324218 11.658549792599441  11.343750007324218 12.046875007324218  C 11.343750007324218 12.435200222048994  11.028950222048994 12.75000000732422  10.640625007324218 12.75000000732422  L 4.546874992675781 12.75000000732422  C 4.158549777951005 12.75000000732422  3.843749992675781 12.435200222048994  3.843749992675781 12.046875007324218  C 3.843749992675781 11.658549792599441  4.158549777951005 11.343750007324218  4.546874992675781 11.343750007324218  Z " fill-rule="evenodd" />
    </mask>
  </defs>
  <g transform="matrix(1 0 0 1 -256 -133 )">
    <path d="M 13.68749999267578 0.7968750073242187  L 13.68749999267578 1.5000000073242183  L 15.32906250732422 1.5000000073242183  C 16.753124992675783 1.5000000073242183  17.90624999267578 2.6540624926757816  18 4.080234375  L 18 15.325781242675781  C 17.90624999267578 16.751015617675783  16.75265625 17.90624999267578  15.32906250732422 18  L 2.670937492675781 18  C 1.246875007324219 17.90624999267578  0.09375000732421869 16.752187507324216  0 15.326015624999998  L 0 4.080468757324219  C 0.09375000732421869 2.655234382324219  1.2473437500000002 1.5000000073242183  2.670937492675781 1.5000000073242183  L 4.312500007324219 1.5000000073242183  L 4.312500007324219 0.7968750073242187  C 4.312500007324219 0.4085497925994419  4.627299792599443 0.09375000732421869  5.015625007324219 0.09375000732421869  C 5.403950222048996 0.09375000732421869  5.718750007324219 0.4085497925994419  5.718750007324219 0.7968750073242187  L 5.718750007324219 1.5000000073242183  L 12.28124999267578 1.5000000073242183  L 12.28124999267578 0.7968750073242187  C 12.28124999267578 0.4085497925994419  12.596049777951006 0.09375000732421869  12.98437499267578 0.09375000732421869  C 13.37270020740056 0.09375000732421869  13.68749999267578 0.4085497925994419  13.68749999267578 0.7968750073242187  Z M 15.32906250732422 2.9062500073242186  L 13.68749999267578 2.9062500073242186  L 13.68749999267578 3.6093750073242172  C 13.68749999267578 3.997700222048995  13.37270020740056 4.312500007324218  12.98437499267578 4.312500007324218  C 12.596049777951006 4.312500007324218  12.28124999267578 3.997700222048995  12.28124999267578 3.6093750073242172  L 12.28124999267578 2.9062500073242172  L 5.718750007324219 2.9062500073242172  L 5.718750007324219 3.6093750073242172  C 5.718750007324219 3.997700222048995  5.403950222048996 4.312500007324218  5.015625007324219 4.312500007324218  C 4.627299792599443 4.312500007324218  4.312500007324219 3.997700222048995  4.312500007324219 3.6093750073242172  L 4.312500007324219 2.9062500073242172  L 2.670937492675781 2.9062500073242172  C 2.0240190452601823 2.907025377628751  1.4999988581871464 3.431674010507832  1.4999988581871464 4.078592922587019  C 1.4999988581871464 4.079140073592919  1.4999992412329302 4.07968722453042  1.5000000073242183 4.080234375  L 1.5000000073242183 15.325781242675784  C 1.4999973650585081 15.32679687552452  1.4999960439239752 15.32781251138078  1.4999960439239752 15.328828147666567  C 1.4999960439239752 15.975558527260242  2.0242071255987613 16.499872753521323  2.670937492675781 16.49999999267578  L 15.329062507324215 16.49999999267578  C 15.975980954739814 16.49922462237125  16.500001141812852 15.974575989492166  16.500001141812852 15.327657077412981  C 16.500001141812852 15.327109926407827  16.500000758767072 15.326562775468838  16.49999999267578 15.326015624999998  L 16.49999999267578 4.080468757324221  C 16.50000263494149 4.079453124475881  16.50000395607603 4.078437488618825  16.50000395607603 4.077421852333438  C 16.50000395607603 3.4306914727397584  15.975792874401241 2.9063772464786775  15.32906250732422 2.9062500073242186  Z M 4.546874992675781 7.828125007324218  L 13.45312500732422 7.828125007324218  C 13.841450222048998 7.828125007324218  14.15625000732422 8.142924792599441  14.15625000732422 8.531250007324218  C 14.15625000732422 8.919575222048994  13.841450222048998 9.234375007324218  13.45312500732422 9.234375007324218  L 4.546874992675781 9.234375007324218  C 4.158549777951005 9.234375007324218  3.843749992675781 8.919575222048994  3.843749992675781 8.531250007324218  C 3.843749992675781 8.142924792599441  4.158549777951005 7.828125007324218  4.546874992675781 7.828125007324218  Z M 4.546874992675781 11.343750007324218  L 10.640625007324218 11.343750007324218  C 11.028950222048994 11.343750007324218  11.343750007324218 11.658549792599441  11.343750007324218 12.046875007324218  C 11.343750007324218 12.435200222048994  11.028950222048994 12.75000000732422  10.640625007324218 12.75000000732422  L 4.546874992675781 12.75000000732422  C 4.158549777951005 12.75000000732422  3.843749992675781 12.435200222048994  3.843749992675781 12.046875007324218  C 3.843749992675781 11.658549792599441  4.158549777951005 11.343750007324218  4.546874992675781 11.343750007324218  Z " fill-rule="nonzero" fill="rgba(0, 0, 0, 1)" stroke="none" transform="matrix(1 0 0 1 256 133 )" class="fill" />
    <path d="M 13.68749999267578 0.7968750073242187  L 13.68749999267578 1.5000000073242183  L 15.32906250732422 1.5000000073242183  C 16.753124992675783 1.5000000073242183  17.90624999267578 2.6540624926757816  18 4.080234375  L 18 15.325781242675781  C 17.90624999267578 16.751015617675783  16.75265625 17.90624999267578  15.32906250732422 18  L 2.670937492675781 18  C 1.246875007324219 17.90624999267578  0.09375000732421869 16.752187507324216  0 15.326015624999998  L 0 4.080468757324219  C 0.09375000732421869 2.655234382324219  1.2473437500000002 1.5000000073242183  2.670937492675781 1.5000000073242183  L 4.312500007324219 1.5000000073242183  L 4.312500007324219 0.7968750073242187  C 4.312500007324219 0.4085497925994419  4.627299792599443 0.09375000732421869  5.015625007324219 0.09375000732421869  C 5.403950222048996 0.09375000732421869  5.718750007324219 0.4085497925994419  5.718750007324219 0.7968750073242187  L 5.718750007324219 1.5000000073242183  L 12.28124999267578 1.5000000073242183  L 12.28124999267578 0.7968750073242187  C 12.28124999267578 0.4085497925994419  12.596049777951006 0.09375000732421869  12.98437499267578 0.09375000732421869  C 13.37270020740056 0.09375000732421869  13.68749999267578 0.4085497925994419  13.68749999267578 0.7968750073242187  Z " stroke-width="0" stroke-dasharray="0" stroke="rgba(255, 255, 255, 0)" fill="none" transform="matrix(1 0 0 1 256 133 )" class="stroke" mask="url(#Clip99)" />
    <path d="M 15.32906250732422 2.9062500073242186  L 13.68749999267578 2.9062500073242186  L 13.68749999267578 3.6093750073242172  C 13.68749999267578 3.997700222048995  13.37270020740056 4.312500007324218  12.98437499267578 4.312500007324218  C 12.596049777951006 4.312500007324218  12.28124999267578 3.997700222048995  12.28124999267578 3.6093750073242172  L 12.28124999267578 2.9062500073242172  L 5.718750007324219 2.9062500073242172  L 5.718750007324219 3.6093750073242172  C 5.718750007324219 3.997700222048995  5.403950222048996 4.312500007324218  5.015625007324219 4.312500007324218  C 4.627299792599443 4.312500007324218  4.312500007324219 3.997700222048995  4.312500007324219 3.6093750073242172  L 4.312500007324219 2.9062500073242172  L 2.670937492675781 2.9062500073242172  C 2.0240190452601823 2.907025377628751  1.4999988581871464 3.431674010507832  1.4999988581871464 4.078592922587019  C 1.4999988581871464 4.079140073592919  1.4999992412329302 4.07968722453042  1.5000000073242183 4.080234375  L 1.5000000073242183 15.325781242675784  C 1.4999973650585081 15.32679687552452  1.4999960439239752 15.32781251138078  1.4999960439239752 15.328828147666567  C 1.4999960439239752 15.975558527260242  2.0242071255987613 16.499872753521323  2.670937492675781 16.49999999267578  L 15.329062507324215 16.49999999267578  C 15.975980954739814 16.49922462237125  16.500001141812852 15.974575989492166  16.500001141812852 15.327657077412981  C 16.500001141812852 15.327109926407827  16.500000758767072 15.326562775468838  16.49999999267578 15.326015624999998  L 16.49999999267578 4.080468757324221  C 16.50000263494149 4.079453124475881  16.50000395607603 4.078437488618825  16.50000395607603 4.077421852333438  C 16.50000395607603 3.4306914727397584  15.975792874401241 2.9063772464786775  15.32906250732422 2.9062500073242186  Z " stroke-width="0" stroke-dasharray="0" stroke="rgba(255, 255, 255, 0)" fill="none" transform="matrix(1 0 0 1 256 133 )" class="stroke" mask="url(#Clip99)" />
    <path d="M 4.546874992675781 7.828125007324218  L 13.45312500732422 7.828125007324218  C 13.841450222048998 7.828125007324218  14.15625000732422 8.142924792599441  14.15625000732422 8.531250007324218  C 14.15625000732422 8.919575222048994  13.841450222048998 9.234375007324218  13.45312500732422 9.234375007324218  L 4.546874992675781 9.234375007324218  C 4.158549777951005 9.234375007324218  3.843749992675781 8.919575222048994  3.843749992675781 8.531250007324218  C 3.843749992675781 8.142924792599441  4.158549777951005 7.828125007324218  4.546874992675781 7.828125007324218  Z " stroke-width="0" stroke-dasharray="0" stroke="rgba(255, 255, 255, 0)" fill="none" transform="matrix(1 0 0 1 256 133 )" class="stroke" mask="url(#Clip99)" />
    <path d="M 4.546874992675781 11.343750007324218  L 10.640625007324218 11.343750007324218  C 11.028950222048994 11.343750007324218  11.343750007324218 11.658549792599441  11.343750007324218 12.046875007324218  C 11.343750007324218 12.435200222048994  11.028950222048994 12.75000000732422  10.640625007324218 12.75000000732422  L 4.546874992675781 12.75000000732422  C 4.158549777951005 12.75000000732422  3.843749992675781 12.435200222048994  3.843749992675781 12.046875007324218  C 3.843749992675781 11.658549792599441  4.158549777951005 11.343750007324218  4.546874992675781 11.343750007324218  Z " stroke-width="0" stroke-dasharray="0" stroke="rgba(255, 255, 255, 0)" fill="none" transform="matrix(1 0 0 1 256 133 )" class="stroke" mask="url(#Clip99)" />
  </g>
</svg>