<?xml version="1.0" encoding="utf-8"?>
<svg version="1.1" xmlns:xlink="http://www.w3.org/1999/xlink" width="12px" height="12px" viewBox="259 878 12 12" xmlns="http://www.w3.org/2000/svg">
  <path d="M 265 878  C 268.36 878  271 880.64  271 884  C 271 887.36  268.36 890  265 890  C 261.64 890  259 887.36  259 884  C 259 880.64  261.64 878  265 878  Z " fill-rule="nonzero" fill="rgba(255, 255, 255, 1)" stroke="none" class="fill" />
  <path d="M 265 878.5  C 268.08 878.5  270.5 880.92  270.5 884  C 270.5 887.08  268.08 889.5  265 889.5  C 261.92 889.5  259.5 887.08  259.5 884  C 259.5 880.92  261.92 878.5  265 878.5  Z " stroke-width="1" stroke-dasharray="0" stroke="rgba(121, 121, 121, 1)" fill="none" class="stroke" stroke-dashoffset="0.5" />
  <path d="M 265 887  C 263.32 887  262 885.68  262 884  C 262 882.32  263.32 881  265 881  C 266.68 881  268 882.32  268 884  C 268 885.68  266.68 887  265 887  " fill-rule="nonzero" fill="rgba(121, 121, 121, 1)" stroke="none" class="stroke btn_check" />
</svg>