<?xml version="1.0" encoding="utf-8"?>
<svg version="1.1" xmlns:xlink="http://www.w3.org/1999/xlink" width="12px" height="12px" viewBox="149 878 12 12" xmlns="http://www.w3.org/2000/svg">
  <path d="M 155 878  C 158.36 878  161 880.64  161 884  C 161 887.36  158.36 890  155 890  C 151.64 890  149 887.36  149 884  C 149 880.64  151.64 878  155 878  Z " fill-rule="nonzero" fill="rgba(255, 255, 255, 1)" stroke="none" class="fill" />
  <path d="M 155 878.5  C 158.08 878.5  160.5 880.92  160.5 884  C 160.5 887.08  158.08 889.5  155 889.5  C 151.92 889.5  149.5 887.08  149.5 884  C 149.5 880.92  151.92 878.5  155 878.5  Z " stroke-width="1" stroke-dasharray="0" stroke="rgba(121, 121, 121, 1)" fill="none" class="stroke" stroke-dashoffset="0.5" />
  <path d="M 155 887  C 153.32 887  152 885.68  152 884  C 152 882.32  153.32 881  155 881  C 156.68 881  158 882.32  158 884  C 158 885.68  156.68 887  155 887  " fill-rule="nonzero" fill="rgba(121, 121, 121, 1)" stroke="none" class="stroke btn_check" />
</svg>