<?xml version="1.0" encoding="utf-8"?>
<svg version="1.1" xmlns:xlink="http://www.w3.org/1999/xlink" width="12px" height="12px" viewBox="149 803 12 12" xmlns="http://www.w3.org/2000/svg">
  <path d="M 155 803  C 158.36 803  161 805.64  161 809  C 161 812.36  158.36 815  155 815  C 151.64 815  149 812.36  149 809  C 149 805.64  151.64 803  155 803  Z " fill-rule="nonzero" fill="rgba(255, 255, 255, 1)" stroke="none" class="fill" />
  <path d="M 155 803.5  C 158.08 803.5  160.5 805.92  160.5 809  C 160.5 812.08  158.08 814.5  155 814.5  C 151.92 814.5  149.5 812.08  149.5 809  C 149.5 805.92  151.92 803.5  155 803.5  Z " stroke-width="1" stroke-dasharray="0" stroke="rgba(121, 121, 121, 1)" fill="none" class="stroke" stroke-dashoffset="0.5" />
  <path d="M 155 812  C 153.32 812  152 810.68  152 809  C 152 807.32  153.32 806  155 806  C 156.68 806  158 807.32  158 809  C 158 810.68  156.68 812  155 812  " fill-rule="nonzero" fill="rgba(121, 121, 121, 1)" stroke="none" class="stroke btn_check" />
</svg>