<?xml version="1.0" encoding="utf-8"?>
<svg version="1.1" xmlns:xlink="http://www.w3.org/1999/xlink" width="12px" height="12px" viewBox="149 777 12 12" xmlns="http://www.w3.org/2000/svg">
  <path d="M 155 777  C 158.36 777  161 779.64  161 783  C 161 786.36  158.36 789  155 789  C 151.64 789  149 786.36  149 783  C 149 779.64  151.64 777  155 777  Z " fill-rule="nonzero" fill="rgba(255, 255, 255, 1)" stroke="none" class="fill" />
  <path d="M 155 777.5  C 158.08 777.5  160.5 779.92  160.5 783  C 160.5 786.08  158.08 788.5  155 788.5  C 151.92 788.5  149.5 786.08  149.5 783  C 149.5 779.92  151.92 777.5  155 777.5  Z " stroke-width="1" stroke-dasharray="0" stroke="rgba(121, 121, 121, 1)" fill="none" class="stroke" stroke-dashoffset="0.5" />
  <path d="M 155 786  C 153.32 786  152 784.68  152 783  C 152 781.32  153.32 780  155 780  C 156.68 780  158 781.32  158 783  C 158 784.68  156.68 786  155 786  " fill-rule="nonzero" fill="rgba(121, 121, 121, 1)" stroke="none" class="stroke btn_check" />
</svg>