<?xml version="1.0" encoding="utf-8"?>
<svg version="1.1" xmlns:xlink="http://www.w3.org/1999/xlink" width="13px" height="13px" viewBox="353 1102 13 13" xmlns="http://www.w3.org/2000/svg">
  <path d="M 359.5 1102  C 363.14 1102  366 1104.86  366 1108.5  C 366 1112.14  363.14 1115  359.5 1115  C 355.86 1115  353 1112.14  353 1108.5  C 353 1104.86  355.86 1102  359.5 1102  Z " fill-rule="nonzero" fill="rgba(255, 255, 255, 1)" stroke="none" class="fill" />
  <path d="M 359.5 1102.5  C 362.86 1102.5  365.5 1105.14  365.5 1108.5  C 365.5 1111.86  362.86 1114.5  359.5 1114.5  C 356.14 1114.5  353.5 1111.86  353.5 1108.5  C 353.5 1105.14  356.14 1102.5  359.5 1102.5  Z " stroke-width="1" stroke-dasharray="0" stroke="rgba(121, 121, 121, 1)" fill="none" class="stroke" stroke-dashoffset="0.5" />
  <path d="M 359.5 1111.75  C 357.68 1111.75  356.25 1110.32  356.25 1108.5  C 356.25 1106.68  357.68 1105.25  359.5 1105.25  C 361.32 1105.25  362.75 1106.68  362.75 1108.5  C 362.75 1110.32  361.32 1111.75  359.5 1111.75  " fill-rule="nonzero" fill="rgba(121, 121, 121, 1)" stroke="none" class="stroke btn_check" />
</svg>