<?xml version="1.0" encoding="utf-8"?>
<svg version="1.1" xmlns:xlink="http://www.w3.org/1999/xlink" width="13px" height="13px" viewBox="294 1102 13 13" xmlns="http://www.w3.org/2000/svg">
  <path d="M 300.5 1102  C 304.14 1102  307 1104.86  307 1108.5  C 307 1112.14  304.14 1115  300.5 1115  C 296.86 1115  294 1112.14  294 1108.5  C 294 1104.86  296.86 1102  300.5 1102  Z " fill-rule="nonzero" fill="rgba(255, 255, 255, 1)" stroke="none" class="fill" />
  <path d="M 300.5 1102.5  C 303.86 1102.5  306.5 1105.14  306.5 1108.5  C 306.5 1111.86  303.86 1114.5  300.5 1114.5  C 297.14 1114.5  294.5 1111.86  294.5 1108.5  C 294.5 1105.14  297.14 1102.5  300.5 1102.5  Z " stroke-width="1" stroke-dasharray="0" stroke="rgba(121, 121, 121, 1)" fill="none" class="stroke" stroke-dashoffset="0.5" />
  <path d="M 300.5 1111.75  C 298.68 1111.75  297.25 1110.32  297.25 1108.5  C 297.25 1106.68  298.68 1105.25  300.5 1105.25  C 302.32 1105.25  303.75 1106.68  303.75 1108.5  C 303.75 1110.32  302.32 1111.75  300.5 1111.75  " fill-rule="nonzero" fill="rgba(121, 121, 121, 1)" stroke="none" class="stroke btn_check" />
</svg>