<?xml version="1.0" encoding="utf-8"?>
<svg version="1.1" xmlns:xlink="http://www.w3.org/1999/xlink" width="30px" height="30px" xmlns="http://www.w3.org/2000/svg">
  <g transform="matrix(1 0 0 1 -40 -19 )">
    <path d="M 29.968062455642297 1.1399147727272718  C 30.017743080198724 1.431107954545452  29.971611071682045 1.711647727272726  29.829666430092264 1.9815340909090906  L 16.202980837473387 29.254261363636363  C 15.96167494677076 29.751420454545453  15.557132718239886 30  14.989354151880766 30  C 14.918381831085878 30  14.811923349893544 29.985795454545453  14.669978708303763 29.957386363636363  C 14.357700496806247 29.886363636363637  14.105748757984387 29.726562500000004  13.914123491838183 29.477982954545453  C 13.72249822569198 29.229403409090907  13.626685592618879 28.948863636363637  14 28.636363636363637  L 14 16  L 1.362668559261888 16  C 1.050390347764372 16.363636363636363  0.7700496806245566 16.26775568181818  0.5216465578424415 16.07599431818182  C 0.27324343506032645 15.884232954545457  0.113555713271824 15.63210227272727  0.042583392476934 15.319602272727275  C -0.028388928317956 15.007102272727273  0 14.708806818181817  0.127750177430802 14.42471590909091  C 0.25550035486160405 14.140624999999998  0.46132008516678497 13.927556818181818  0.745209368346345 13.785511363636363  L 27.998580553584105 0.14914772727272818  C 28.183108587650818 0.04971590909090717  28.388928317956 0  28.616039744499645 0  C 28.99929027679205 0  29.318665720369054 0.134943181818179  29.57416607523066 0.40482954545454697  C 29.787083037615332 0.603693181818179  29.918381831085878 0.8487215909090884  29.968062455642297 1.1399147727272718  Z " fill-rule="nonzero" fill="#f59a23" stroke="none" transform="matrix(1 0 0 1 40 19 )" />
  </g>
</svg>