<?xml version="1.0" encoding="utf-8"?>
<svg version="1.1" xmlns:xlink="http://www.w3.org/1999/xlink" width="17px" height="17px" xmlns="http://www.w3.org/2000/svg">
  <defs>
    <pattern id="BGPattern" patternUnits="userSpaceOnUse" alignment="0 0" imageRepeat="None" />
    <mask fill="white" id="Clip46">
      <path d="M 1.3076923076923077 13.053571428571427  L 1.3076923076923077 15.785714285714286  L 4.25 15.785714285714286  L 4.25 13.053571428571427  L 1.3076923076923077 13.053571428571427  Z M 4.903846153846153 13.053571428571427  L 4.903846153846153 15.785714285714286  L 8.173076923076923 15.785714285714286  L 8.173076923076923 13.053571428571427  L 4.903846153846153 13.053571428571427  Z M 1.3076923076923077 9.410714285714286  L 1.3076923076923077 12.446428571428573  L 4.25 12.446428571428573  L 4.25 9.410714285714286  L 1.3076923076923077 9.410714285714286  Z M 4.903846153846153 9.410714285714286  L 4.903846153846153 12.446428571428573  L 8.173076923076923 12.446428571428573  L 8.173076923076923 9.410714285714286  L 4.903846153846153 9.410714285714286  Z M 1.3076923076923077 6.07142857142857  L 1.3076923076923077 8.803571428571427  L 4.25 8.803571428571427  L 4.25 6.07142857142857  L 1.3076923076923077 6.07142857142857  Z M 8.826923076923078 13.053571428571427  L 8.826923076923078 15.785714285714286  L 12.096153846153847 15.785714285714286  L 12.096153846153847 13.053571428571427  L 8.826923076923078 13.053571428571427  Z M 4.903846153846153 6.07142857142857  L 4.903846153846153 8.803571428571427  L 8.173076923076923 8.803571428571427  L 8.173076923076923 6.07142857142857  L 4.903846153846153 6.07142857142857  Z M 12.75 13.053571428571427  L 12.75 15.785714285714286  L 15.692307692307693 15.785714285714286  L 15.692307692307693 13.053571428571427  L 12.75 13.053571428571427  Z M 8.826923076923078 9.410714285714286  L 8.826923076923078 12.446428571428573  L 12.096153846153847 12.446428571428573  L 12.096153846153847 9.410714285714286  L 8.826923076923078 9.410714285714286  Z M 5.1337139423076925 4.4634486607142865  C 5.198417467948718 4.40336681547619  5.230769230769231 4.33221726190476  5.230769230769231 4.25  L 5.230769230769231 1.5178571428571432  C 5.230769230769231 1.435639880952381  5.198417467948718 1.3644903273809517  5.1337139423076925 1.3044084821428568  C 5.069010416666667 1.24432663690476  4.992387820512821 1.2142857142857137  4.903846153846153 1.2142857142857137  L 4.25 1.2142857142857137  C 4.161458333333334 1.2142857142857137  4.084835737179487 1.24432663690476  4.020132211538462 1.3044084821428568  C 3.9554286858974352 1.3644903273809517  3.9230769230769234 1.435639880952381  3.9230769230769234 1.5178571428571432  L 3.9230769230769234 4.25  C 3.9230769230769234 4.33221726190476  3.9554286858974352 4.40336681547619  4.020132211538462 4.4634486607142865  C 4.084835737179487 4.523530505952381  4.161458333333334 4.55357142857143  4.25 4.55357142857143  L 4.903846153846153 4.55357142857143  C 4.992387820512821 4.55357142857143  5.069010416666667 4.523530505952381  5.1337139423076925 4.4634486607142865  Z M 12.75 9.410714285714286  L 12.75 12.446428571428573  L 15.692307692307693 12.446428571428573  L 15.692307692307693 9.410714285714286  L 12.75 9.410714285714286  Z M 8.826923076923078 6.07142857142857  L 8.826923076923078 8.803571428571427  L 12.096153846153847 8.803571428571427  L 12.096153846153847 6.07142857142857  L 8.826923076923078 6.07142857142857  Z M 12.75 6.07142857142857  L 12.75 8.803571428571427  L 15.692307692307693 8.803571428571427  L 15.692307692307693 6.07142857142857  L 12.75 6.07142857142857  Z M 12.979867788461538 4.4634486607142865  C 13.044571314102566 4.40336681547619  13.076923076923078 4.33221726190476  13.076923076923078 4.25  L 13.076923076923078 1.5178571428571432  C 13.076923076923078 1.435639880952381  13.044571314102566 1.3644903273809517  12.979867788461538 1.3044084821428568  C 12.915164262820515 1.24432663690476  12.838541666666668 1.2142857142857137  12.75 1.2142857142857137  L 12.096153846153847 1.2142857142857137  C 12.00761217948718 1.2142857142857137  11.930989583333334 1.24432663690476  11.866286057692307 1.3044084821428568  C 11.801582532051283 1.3644903273809517  11.769230769230768 1.435639880952381  11.769230769230768 1.5178571428571432  L 11.769230769230768 4.25  C 11.769230769230768 4.33221726190476  11.801582532051283 4.40336681547619  11.866286057692307 4.4634486607142865  C 11.930989583333334 4.523530505952381  12.00761217948718 4.55357142857143  12.096153846153847 4.55357142857143  L 12.75 4.55357142857143  C 12.838541666666668 4.55357142857143  12.915164262820515 4.523530505952381  12.979867788461538 4.4634486607142865  Z M 16.611778846153847 2.7890625  C 16.87059294871795 3.029389880952381  17 3.313988095238095  17 3.6428571428571432  L 17 15.785714285714286  C 17 16.114583333333336  16.87059294871795 16.399181547619047  16.611778846153847 16.63950892857143  C 16.352964743589745 16.87983630952381  16.04647435897436 17  15.692307692307693 17  L 1.3076923076923077 17  C 0.9535256410256412 17  0.6470352564102565 16.87983630952381  0.3882211538461538 16.63950892857143  C 0.12940705128205127 16.399181547619047  0 16.114583333333336  0 15.785714285714286  L 0 3.6428571428571432  C 0 3.313988095238095  0.12940705128205127 3.029389880952381  0.3882211538461538 2.7890625  C 0.6470352564102565 2.548735119047617  0.9535256410256412 2.4285714285714293  1.3076923076923077 2.4285714285714293  L 2.6153846153846154 2.4285714285714293  L 2.6153846153846154 1.5178571428571432  C 2.6153846153846154 1.1004464285714293  2.7754407051282053 0.7431175595238085  3.0955528846153846 0.44587053571428625  C 3.4156650641025648 0.14862351190476208  3.8004807692307696 0  4.25 0  L 4.903846153846153 0  C 5.353365384615384 0  5.73818108974359 0.14862351190476208  6.058293269230769 0.44587053571428625  C 6.378405448717949 0.7431175595238085  6.538461538461539 1.1004464285714293  6.538461538461539 1.5178571428571432  L 6.538461538461539 2.4285714285714293  L 10.461538461538462 2.4285714285714293  L 10.461538461538462 1.5178571428571432  C 10.461538461538462 1.1004464285714293  10.621594551282051 0.7431175595238085  10.941706730769232 0.44587053571428625  C 11.261818910256412 0.14862351190476208  11.646634615384615 0  12.096153846153847 0  L 12.75 0  C 13.199519230769232 0  13.584334935897436 0.14862351190476208  13.904447115384615 0.44587053571428625  C 14.224559294871797 0.7431175595238085  14.384615384615385 1.1004464285714293  14.384615384615385 1.5178571428571432  L 14.384615384615385 2.4285714285714293  L 15.692307692307693 2.4285714285714293  C 16.04647435897436 2.4285714285714293  16.352964743589745 2.548735119047617  16.611778846153847 2.7890625  Z " fill-rule="evenodd" />
    </mask>
  </defs>
  <g transform="matrix(1 0 0 1 -360 -138 )">
    <path d="M 1.3076923076923077 13.053571428571427  L 1.3076923076923077 15.785714285714286  L 4.25 15.785714285714286  L 4.25 13.053571428571427  L 1.3076923076923077 13.053571428571427  Z M 4.903846153846153 13.053571428571427  L 4.903846153846153 15.785714285714286  L 8.173076923076923 15.785714285714286  L 8.173076923076923 13.053571428571427  L 4.903846153846153 13.053571428571427  Z M 1.3076923076923077 9.410714285714286  L 1.3076923076923077 12.446428571428573  L 4.25 12.446428571428573  L 4.25 9.410714285714286  L 1.3076923076923077 9.410714285714286  Z M 4.903846153846153 9.410714285714286  L 4.903846153846153 12.446428571428573  L 8.173076923076923 12.446428571428573  L 8.173076923076923 9.410714285714286  L 4.903846153846153 9.410714285714286  Z M 1.3076923076923077 6.07142857142857  L 1.3076923076923077 8.803571428571427  L 4.25 8.803571428571427  L 4.25 6.07142857142857  L 1.3076923076923077 6.07142857142857  Z M 8.826923076923078 13.053571428571427  L 8.826923076923078 15.785714285714286  L 12.096153846153847 15.785714285714286  L 12.096153846153847 13.053571428571427  L 8.826923076923078 13.053571428571427  Z M 4.903846153846153 6.07142857142857  L 4.903846153846153 8.803571428571427  L 8.173076923076923 8.803571428571427  L 8.173076923076923 6.07142857142857  L 4.903846153846153 6.07142857142857  Z M 12.75 13.053571428571427  L 12.75 15.785714285714286  L 15.692307692307693 15.785714285714286  L 15.692307692307693 13.053571428571427  L 12.75 13.053571428571427  Z M 8.826923076923078 9.410714285714286  L 8.826923076923078 12.446428571428573  L 12.096153846153847 12.446428571428573  L 12.096153846153847 9.410714285714286  L 8.826923076923078 9.410714285714286  Z M 5.1337139423076925 4.4634486607142865  C 5.198417467948718 4.40336681547619  5.230769230769231 4.33221726190476  5.230769230769231 4.25  L 5.230769230769231 1.5178571428571432  C 5.230769230769231 1.435639880952381  5.198417467948718 1.3644903273809517  5.1337139423076925 1.3044084821428568  C 5.069010416666667 1.24432663690476  4.992387820512821 1.2142857142857137  4.903846153846153 1.2142857142857137  L 4.25 1.2142857142857137  C 4.161458333333334 1.2142857142857137  4.084835737179487 1.24432663690476  4.020132211538462 1.3044084821428568  C 3.9554286858974352 1.3644903273809517  3.9230769230769234 1.435639880952381  3.9230769230769234 1.5178571428571432  L 3.9230769230769234 4.25  C 3.9230769230769234 4.33221726190476  3.9554286858974352 4.40336681547619  4.020132211538462 4.4634486607142865  C 4.084835737179487 4.523530505952381  4.161458333333334 4.55357142857143  4.25 4.55357142857143  L 4.903846153846153 4.55357142857143  C 4.992387820512821 4.55357142857143  5.069010416666667 4.523530505952381  5.1337139423076925 4.4634486607142865  Z M 12.75 9.410714285714286  L 12.75 12.446428571428573  L 15.692307692307693 12.446428571428573  L 15.692307692307693 9.410714285714286  L 12.75 9.410714285714286  Z M 8.826923076923078 6.07142857142857  L 8.826923076923078 8.803571428571427  L 12.096153846153847 8.803571428571427  L 12.096153846153847 6.07142857142857  L 8.826923076923078 6.07142857142857  Z M 12.75 6.07142857142857  L 12.75 8.803571428571427  L 15.692307692307693 8.803571428571427  L 15.692307692307693 6.07142857142857  L 12.75 6.07142857142857  Z M 12.979867788461538 4.4634486607142865  C 13.044571314102566 4.40336681547619  13.076923076923078 4.33221726190476  13.076923076923078 4.25  L 13.076923076923078 1.5178571428571432  C 13.076923076923078 1.435639880952381  13.044571314102566 1.3644903273809517  12.979867788461538 1.3044084821428568  C 12.915164262820515 1.24432663690476  12.838541666666668 1.2142857142857137  12.75 1.2142857142857137  L 12.096153846153847 1.2142857142857137  C 12.00761217948718 1.2142857142857137  11.930989583333334 1.24432663690476  11.866286057692307 1.3044084821428568  C 11.801582532051283 1.3644903273809517  11.769230769230768 1.435639880952381  11.769230769230768 1.5178571428571432  L 11.769230769230768 4.25  C 11.769230769230768 4.33221726190476  11.801582532051283 4.40336681547619  11.866286057692307 4.4634486607142865  C 11.930989583333334 4.523530505952381  12.00761217948718 4.55357142857143  12.096153846153847 4.55357142857143  L 12.75 4.55357142857143  C 12.838541666666668 4.55357142857143  12.915164262820515 4.523530505952381  12.979867788461538 4.4634486607142865  Z M 16.611778846153847 2.7890625  C 16.87059294871795 3.029389880952381  17 3.313988095238095  17 3.6428571428571432  L 17 15.785714285714286  C 17 16.114583333333336  16.87059294871795 16.399181547619047  16.611778846153847 16.63950892857143  C 16.352964743589745 16.87983630952381  16.04647435897436 17  15.692307692307693 17  L 1.3076923076923077 17  C 0.9535256410256412 17  0.6470352564102565 16.87983630952381  0.3882211538461538 16.63950892857143  C 0.12940705128205127 16.399181547619047  0 16.114583333333336  0 15.785714285714286  L 0 3.6428571428571432  C 0 3.313988095238095  0.12940705128205127 3.029389880952381  0.3882211538461538 2.7890625  C 0.6470352564102565 2.548735119047617  0.9535256410256412 2.4285714285714293  1.3076923076923077 2.4285714285714293  L 2.6153846153846154 2.4285714285714293  L 2.6153846153846154 1.5178571428571432  C 2.6153846153846154 1.1004464285714293  2.7754407051282053 0.7431175595238085  3.0955528846153846 0.44587053571428625  C 3.4156650641025648 0.14862351190476208  3.8004807692307696 0  4.25 0  L 4.903846153846153 0  C 5.353365384615384 0  5.73818108974359 0.14862351190476208  6.058293269230769 0.44587053571428625  C 6.378405448717949 0.7431175595238085  6.538461538461539 1.1004464285714293  6.538461538461539 1.5178571428571432  L 6.538461538461539 2.4285714285714293  L 10.461538461538462 2.4285714285714293  L 10.461538461538462 1.5178571428571432  C 10.461538461538462 1.1004464285714293  10.621594551282051 0.7431175595238085  10.941706730769232 0.44587053571428625  C 11.261818910256412 0.14862351190476208  11.646634615384615 0  12.096153846153847 0  L 12.75 0  C 13.199519230769232 0  13.584334935897436 0.14862351190476208  13.904447115384615 0.44587053571428625  C 14.224559294871797 0.7431175595238085  14.384615384615385 1.1004464285714293  14.384615384615385 1.5178571428571432  L 14.384615384615385 2.4285714285714293  L 15.692307692307693 2.4285714285714293  C 16.04647435897436 2.4285714285714293  16.352964743589745 2.548735119047617  16.611778846153847 2.7890625  Z " fill-rule="nonzero" fill="rgba(127, 127, 127, 1)" stroke="none" transform="matrix(1 0 0 1 360 138 )" class="fill" />
    <path d="M 1.3076923076923077 13.053571428571427  L 1.3076923076923077 15.785714285714286  L 4.25 15.785714285714286  L 4.25 13.053571428571427  L 1.3076923076923077 13.053571428571427  Z " stroke-width="0" stroke-dasharray="0" stroke="rgba(170, 170, 170, 1)" fill="none" transform="matrix(1 0 0 1 360 138 )" class="stroke" mask="url(#Clip46)" />
    <path d="M 4.903846153846153 13.053571428571427  L 4.903846153846153 15.785714285714286  L 8.173076923076923 15.785714285714286  L 8.173076923076923 13.053571428571427  L 4.903846153846153 13.053571428571427  Z " stroke-width="0" stroke-dasharray="0" stroke="rgba(170, 170, 170, 1)" fill="none" transform="matrix(1 0 0 1 360 138 )" class="stroke" mask="url(#Clip46)" />
    <path d="M 1.3076923076923077 9.410714285714286  L 1.3076923076923077 12.446428571428573  L 4.25 12.446428571428573  L 4.25 9.410714285714286  L 1.3076923076923077 9.410714285714286  Z " stroke-width="0" stroke-dasharray="0" stroke="rgba(170, 170, 170, 1)" fill="none" transform="matrix(1 0 0 1 360 138 )" class="stroke" mask="url(#Clip46)" />
    <path d="M 4.903846153846153 9.410714285714286  L 4.903846153846153 12.446428571428573  L 8.173076923076923 12.446428571428573  L 8.173076923076923 9.410714285714286  L 4.903846153846153 9.410714285714286  Z " stroke-width="0" stroke-dasharray="0" stroke="rgba(170, 170, 170, 1)" fill="none" transform="matrix(1 0 0 1 360 138 )" class="stroke" mask="url(#Clip46)" />
    <path d="M 1.3076923076923077 6.07142857142857  L 1.3076923076923077 8.803571428571427  L 4.25 8.803571428571427  L 4.25 6.07142857142857  L 1.3076923076923077 6.07142857142857  Z " stroke-width="0" stroke-dasharray="0" stroke="rgba(170, 170, 170, 1)" fill="none" transform="matrix(1 0 0 1 360 138 )" class="stroke" mask="url(#Clip46)" />
    <path d="M 8.826923076923078 13.053571428571427  L 8.826923076923078 15.785714285714286  L 12.096153846153847 15.785714285714286  L 12.096153846153847 13.053571428571427  L 8.826923076923078 13.053571428571427  Z " stroke-width="0" stroke-dasharray="0" stroke="rgba(170, 170, 170, 1)" fill="none" transform="matrix(1 0 0 1 360 138 )" class="stroke" mask="url(#Clip46)" />
    <path d="M 4.903846153846153 6.07142857142857  L 4.903846153846153 8.803571428571427  L 8.173076923076923 8.803571428571427  L 8.173076923076923 6.07142857142857  L 4.903846153846153 6.07142857142857  Z " stroke-width="0" stroke-dasharray="0" stroke="rgba(170, 170, 170, 1)" fill="none" transform="matrix(1 0 0 1 360 138 )" class="stroke" mask="url(#Clip46)" />
    <path d="M 12.75 13.053571428571427  L 12.75 15.785714285714286  L 15.692307692307693 15.785714285714286  L 15.692307692307693 13.053571428571427  L 12.75 13.053571428571427  Z " stroke-width="0" stroke-dasharray="0" stroke="rgba(170, 170, 170, 1)" fill="none" transform="matrix(1 0 0 1 360 138 )" class="stroke" mask="url(#Clip46)" />
    <path d="M 8.826923076923078 9.410714285714286  L 8.826923076923078 12.446428571428573  L 12.096153846153847 12.446428571428573  L 12.096153846153847 9.410714285714286  L 8.826923076923078 9.410714285714286  Z " stroke-width="0" stroke-dasharray="0" stroke="rgba(170, 170, 170, 1)" fill="none" transform="matrix(1 0 0 1 360 138 )" class="stroke" mask="url(#Clip46)" />
    <path d="M 5.1337139423076925 4.4634486607142865  C 5.198417467948718 4.40336681547619  5.230769230769231 4.33221726190476  5.230769230769231 4.25  L 5.230769230769231 1.5178571428571432  C 5.230769230769231 1.435639880952381  5.198417467948718 1.3644903273809517  5.1337139423076925 1.3044084821428568  C 5.069010416666667 1.24432663690476  4.992387820512821 1.2142857142857137  4.903846153846153 1.2142857142857137  L 4.25 1.2142857142857137  C 4.161458333333334 1.2142857142857137  4.084835737179487 1.24432663690476  4.020132211538462 1.3044084821428568  C 3.9554286858974352 1.3644903273809517  3.9230769230769234 1.435639880952381  3.9230769230769234 1.5178571428571432  L 3.9230769230769234 4.25  C 3.9230769230769234 4.33221726190476  3.9554286858974352 4.40336681547619  4.020132211538462 4.4634486607142865  C 4.084835737179487 4.523530505952381  4.161458333333334 4.55357142857143  4.25 4.55357142857143  L 4.903846153846153 4.55357142857143  C 4.992387820512821 4.55357142857143  5.069010416666667 4.523530505952381  5.1337139423076925 4.4634486607142865  Z " stroke-width="0" stroke-dasharray="0" stroke="rgba(170, 170, 170, 1)" fill="none" transform="matrix(1 0 0 1 360 138 )" class="stroke" mask="url(#Clip46)" />
    <path d="M 12.75 9.410714285714286  L 12.75 12.446428571428573  L 15.692307692307693 12.446428571428573  L 15.692307692307693 9.410714285714286  L 12.75 9.410714285714286  Z " stroke-width="0" stroke-dasharray="0" stroke="rgba(170, 170, 170, 1)" fill="none" transform="matrix(1 0 0 1 360 138 )" class="stroke" mask="url(#Clip46)" />
    <path d="M 8.826923076923078 6.07142857142857  L 8.826923076923078 8.803571428571427  L 12.096153846153847 8.803571428571427  L 12.096153846153847 6.07142857142857  L 8.826923076923078 6.07142857142857  Z " stroke-width="0" stroke-dasharray="0" stroke="rgba(170, 170, 170, 1)" fill="none" transform="matrix(1 0 0 1 360 138 )" class="stroke" mask="url(#Clip46)" />
    <path d="M 12.75 6.07142857142857  L 12.75 8.803571428571427  L 15.692307692307693 8.803571428571427  L 15.692307692307693 6.07142857142857  L 12.75 6.07142857142857  Z " stroke-width="0" stroke-dasharray="0" stroke="rgba(170, 170, 170, 1)" fill="none" transform="matrix(1 0 0 1 360 138 )" class="stroke" mask="url(#Clip46)" />
    <path d="M 12.979867788461538 4.4634486607142865  C 13.044571314102566 4.40336681547619  13.076923076923078 4.33221726190476  13.076923076923078 4.25  L 13.076923076923078 1.5178571428571432  C 13.076923076923078 1.435639880952381  13.044571314102566 1.3644903273809517  12.979867788461538 1.3044084821428568  C 12.915164262820515 1.24432663690476  12.838541666666668 1.2142857142857137  12.75 1.2142857142857137  L 12.096153846153847 1.2142857142857137  C 12.00761217948718 1.2142857142857137  11.930989583333334 1.24432663690476  11.866286057692307 1.3044084821428568  C 11.801582532051283 1.3644903273809517  11.769230769230768 1.435639880952381  11.769230769230768 1.5178571428571432  L 11.769230769230768 4.25  C 11.769230769230768 4.33221726190476  11.801582532051283 4.40336681547619  11.866286057692307 4.4634486607142865  C 11.930989583333334 4.523530505952381  12.00761217948718 4.55357142857143  12.096153846153847 4.55357142857143  L 12.75 4.55357142857143  C 12.838541666666668 4.55357142857143  12.915164262820515 4.523530505952381  12.979867788461538 4.4634486607142865  Z " stroke-width="0" stroke-dasharray="0" stroke="rgba(170, 170, 170, 1)" fill="none" transform="matrix(1 0 0 1 360 138 )" class="stroke" mask="url(#Clip46)" />
    <path d="M 16.611778846153847 2.7890625  C 16.87059294871795 3.029389880952381  17 3.313988095238095  17 3.6428571428571432  L 17 15.785714285714286  C 17 16.114583333333336  16.87059294871795 16.399181547619047  16.611778846153847 16.63950892857143  C 16.352964743589745 16.87983630952381  16.04647435897436 17  15.692307692307693 17  L 1.3076923076923077 17  C 0.9535256410256412 17  0.6470352564102565 16.87983630952381  0.3882211538461538 16.63950892857143  C 0.12940705128205127 16.399181547619047  0 16.114583333333336  0 15.785714285714286  L 0 3.6428571428571432  C 0 3.313988095238095  0.12940705128205127 3.029389880952381  0.3882211538461538 2.7890625  C 0.6470352564102565 2.548735119047617  0.9535256410256412 2.4285714285714293  1.3076923076923077 2.4285714285714293  L 2.6153846153846154 2.4285714285714293  L 2.6153846153846154 1.5178571428571432  C 2.6153846153846154 1.1004464285714293  2.7754407051282053 0.7431175595238085  3.0955528846153846 0.44587053571428625  C 3.4156650641025648 0.14862351190476208  3.8004807692307696 0  4.25 0  L 4.903846153846153 0  C 5.353365384615384 0  5.73818108974359 0.14862351190476208  6.058293269230769 0.44587053571428625  C 6.378405448717949 0.7431175595238085  6.538461538461539 1.1004464285714293  6.538461538461539 1.5178571428571432  L 6.538461538461539 2.4285714285714293  L 10.461538461538462 2.4285714285714293  L 10.461538461538462 1.5178571428571432  C 10.461538461538462 1.1004464285714293  10.621594551282051 0.7431175595238085  10.941706730769232 0.44587053571428625  C 11.261818910256412 0.14862351190476208  11.646634615384615 0  12.096153846153847 0  L 12.75 0  C 13.199519230769232 0  13.584334935897436 0.14862351190476208  13.904447115384615 0.44587053571428625  C 14.224559294871797 0.7431175595238085  14.384615384615385 1.1004464285714293  14.384615384615385 1.5178571428571432  L 14.384615384615385 2.4285714285714293  L 15.692307692307693 2.4285714285714293  C 16.04647435897436 2.4285714285714293  16.352964743589745 2.548735119047617  16.611778846153847 2.7890625  Z " stroke-width="0" stroke-dasharray="0" stroke="rgba(170, 170, 170, 1)" fill="none" transform="matrix(1 0 0 1 360 138 )" class="stroke" mask="url(#Clip46)" />
  </g>
</svg>