<?xml version="1.0" encoding="utf-8"?>
<svg version="1.1" xmlns:xlink="http://www.w3.org/1999/xlink" width="21px" height="13px" xmlns="http://www.w3.org/2000/svg">
  <defs>
    <pattern id="BGPattern" patternUnits="userSpaceOnUse" alignment="0 0" imageRepeat="None" />
    <mask fill="white" id="Clip58">
      <path d="M 0 6  L 0 5.145180722891566  L 20.786211340206187 5.145180722891566  L 20.786211340206187 6  L 0 6  Z M 5.875128865979382 2.6430722891566267  C 5.875128865979382 2.9132530120481928  5.572036082474228 3.1325301204819276  5.1985824742268045 3.1325301204819276  C 4.825128865979382 3.1325301204819276  4.522036082474227 2.9132530120481928  4.522036082474227 2.6430722891566267  L 4.522036082474227 0.5325301204819277  C 4.522036082474227 0.2623493975903616  4.825128865979382 0.04307228915662656  5.1985824742268045 0.04307228915662656  C 5.572036082474228 0.04307228915662656  5.875128865979382 0.2623493975903616  5.875128865979382 0.5325301204819277  L 5.875128865979382 2.6430722891566267  Z M 16.245231958762886 2.6430722891566267  C 16.245231958762886 2.9132530120481928  15.94213917525773 3.1325301204819276  15.568685567010307 3.1325301204819276  C 15.195231958762886 3.1325301204819276  14.89213917525773 2.9132530120481928  14.89213917525773 2.6430722891566267  L 14.89213917525773 0.5325301204819277  C 14.89213917525773 0.2623493975903616  15.195231958762886 0.04307228915662656  15.568685567010307 0.04307228915662656  C 15.94213917525773 0.04307228915662656  16.245231958762886 0.2623493975903616  16.245231958762886 0.5325301204819277  L 16.245231958762886 2.6430722891566267  Z M 6.930541237113403 8.923795180722891  C 6.930541237113403 9.193975903614456  6.627448453608248 9.413253012048191  6.253994845360825 9.413253012048191  L 4.143170103092784 9.413253012048191  C 3.7697164948453614 9.413253012048191  3.4666237113402065 9.193975903614456  3.4666237113402065 8.923795180722891  C 3.4666237113402065 8.653614457831324  3.7697164948453614 8.434337349397591  4.143170103092784 8.434337349397591  L 6.253994845360825 8.434337349397591  C 6.627448453608248 8.434337349397591  6.930541237113403 8.653614457831324  6.930541237113403 8.923795180722891  Z M 12.126417525773197 8.923795180722891  C 12.126417525773197 9.193975903614456  11.823324742268042 9.413253012048191  11.44987113402062 9.413253012048191  L 9.339046391752579 9.413253012048191  C 8.965592783505155 9.413253012048191  8.662500000000001 9.193975903614456  8.662500000000001 8.923795180722891  C 8.662500000000001 8.653614457831324  8.965592783505155 8.434337349397591  9.339046391752579 8.434337349397591  L 11.44987113402062 8.434337349397591  C 11.823324742268042 8.434337349397591  12.126417525773197 8.653614457831324  12.126417525773197 8.923795180722891  Z M 17.349355670103094 8.923795180722891  C 17.349355670103094 9.193975903614456  17.046262886597937 9.413253012048191  16.672809278350517 9.413253012048191  L 14.561984536082473 9.413253012048191  C 14.188530927835053 9.413253012048191  13.885438144329896 9.193975903614456  13.885438144329896 8.923795180722891  C 13.885438144329896 8.653614457831324  14.188530927835053 8.434337349397591  14.561984536082473 8.434337349397591  L 16.672809278350517 8.434337349397591  C 17.046262886597937 8.434337349397591  17.349355670103094 8.653614457831324  17.349355670103094 8.923795180722891  Z M 6.930541237113403 12.389156626506022  C 6.930541237113403 12.659337349397589  6.627448453608248 12.878614457831324  6.253994845360825 12.878614457831324  L 4.143170103092784 12.878614457831324  C 3.7697164948453614 12.878614457831324  3.4666237113402065 12.659337349397589  3.4666237113402065 12.389156626506022  C 3.4666237113402065 12.118975903614459  3.7697164948453614 11.899698795180722  4.143170103092784 11.899698795180722  L 6.253994845360825 11.899698795180722  C 6.627448453608248 11.899698795180722  6.930541237113403 12.118975903614459  6.930541237113403 12.389156626506022  Z M 12.126417525773197 12.389156626506022  C 12.126417525773197 12.659337349397589  11.823324742268042 12.878614457831324  11.44987113402062 12.878614457831324  L 9.339046391752579 12.878614457831324  C 8.965592783505155 12.878614457831324  8.662500000000001 12.659337349397589  8.662500000000001 12.389156626506022  C 8.662500000000001 12.118975903614459  8.965592783505155 11.899698795180722  9.339046391752579 11.899698795180722  L 11.44987113402062 11.899698795180722  C 11.823324742268042 11.899698795180722  12.126417525773197 12.118975903614459  12.126417525773197 12.389156626506022  Z M 17.349355670103094 12.389156626506022  C 17.349355670103094 12.659337349397589  17.046262886597937 12.878614457831324  16.672809278350517 12.878614457831324  L 14.561984536082473 12.878614457831324  C 14.188530927835053 12.878614457831324  13.885438144329896 12.659337349397589  13.885438144329896 12.389156626506022  C 13.885438144329896 12.118975903614459  14.188530927835053 11.899698795180722  14.561984536082473 11.899698795180722  L 16.672809278350517 11.899698795180722  C 17.046262886597937 11.899698795180722  17.349355670103094 12.118975903614459  17.349355670103094 12.389156626506022  Z M 6.930541237113403 2.134036144578313  L 6.930541237113403 1.1551204819277108  L 13.885438144329896 1.1551204819277108  L 13.885438144329896 2.134036144578313  L 6.930541237113403 2.134036144578313  Z " fill-rule="evenodd" />
    </mask>
  </defs>
  <g transform="matrix(1 0 0 1 -724 -572 )">
    <path d="M 0 6  L 0 5.145180722891566  L 20.786211340206187 5.145180722891566  L 20.786211340206187 6  L 0 6  Z M 5.875128865979382 2.6430722891566267  C 5.875128865979382 2.9132530120481928  5.572036082474228 3.1325301204819276  5.1985824742268045 3.1325301204819276  C 4.825128865979382 3.1325301204819276  4.522036082474227 2.9132530120481928  4.522036082474227 2.6430722891566267  L 4.522036082474227 0.5325301204819277  C 4.522036082474227 0.2623493975903616  4.825128865979382 0.04307228915662656  5.1985824742268045 0.04307228915662656  C 5.572036082474228 0.04307228915662656  5.875128865979382 0.2623493975903616  5.875128865979382 0.5325301204819277  L 5.875128865979382 2.6430722891566267  Z M 16.245231958762886 2.6430722891566267  C 16.245231958762886 2.9132530120481928  15.94213917525773 3.1325301204819276  15.568685567010307 3.1325301204819276  C 15.195231958762886 3.1325301204819276  14.89213917525773 2.9132530120481928  14.89213917525773 2.6430722891566267  L 14.89213917525773 0.5325301204819277  C 14.89213917525773 0.2623493975903616  15.195231958762886 0.04307228915662656  15.568685567010307 0.04307228915662656  C 15.94213917525773 0.04307228915662656  16.245231958762886 0.2623493975903616  16.245231958762886 0.5325301204819277  L 16.245231958762886 2.6430722891566267  Z M 6.930541237113403 8.923795180722891  C 6.930541237113403 9.193975903614456  6.627448453608248 9.413253012048191  6.253994845360825 9.413253012048191  L 4.143170103092784 9.413253012048191  C 3.7697164948453614 9.413253012048191  3.4666237113402065 9.193975903614456  3.4666237113402065 8.923795180722891  C 3.4666237113402065 8.653614457831324  3.7697164948453614 8.434337349397591  4.143170103092784 8.434337349397591  L 6.253994845360825 8.434337349397591  C 6.627448453608248 8.434337349397591  6.930541237113403 8.653614457831324  6.930541237113403 8.923795180722891  Z M 12.126417525773197 8.923795180722891  C 12.126417525773197 9.193975903614456  11.823324742268042 9.413253012048191  11.44987113402062 9.413253012048191  L 9.339046391752579 9.413253012048191  C 8.965592783505155 9.413253012048191  8.662500000000001 9.193975903614456  8.662500000000001 8.923795180722891  C 8.662500000000001 8.653614457831324  8.965592783505155 8.434337349397591  9.339046391752579 8.434337349397591  L 11.44987113402062 8.434337349397591  C 11.823324742268042 8.434337349397591  12.126417525773197 8.653614457831324  12.126417525773197 8.923795180722891  Z M 17.349355670103094 8.923795180722891  C 17.349355670103094 9.193975903614456  17.046262886597937 9.413253012048191  16.672809278350517 9.413253012048191  L 14.561984536082473 9.413253012048191  C 14.188530927835053 9.413253012048191  13.885438144329896 9.193975903614456  13.885438144329896 8.923795180722891  C 13.885438144329896 8.653614457831324  14.188530927835053 8.434337349397591  14.561984536082473 8.434337349397591  L 16.672809278350517 8.434337349397591  C 17.046262886597937 8.434337349397591  17.349355670103094 8.653614457831324  17.349355670103094 8.923795180722891  Z M 6.930541237113403 12.389156626506022  C 6.930541237113403 12.659337349397589  6.627448453608248 12.878614457831324  6.253994845360825 12.878614457831324  L 4.143170103092784 12.878614457831324  C 3.7697164948453614 12.878614457831324  3.4666237113402065 12.659337349397589  3.4666237113402065 12.389156626506022  C 3.4666237113402065 12.118975903614459  3.7697164948453614 11.899698795180722  4.143170103092784 11.899698795180722  L 6.253994845360825 11.899698795180722  C 6.627448453608248 11.899698795180722  6.930541237113403 12.118975903614459  6.930541237113403 12.389156626506022  Z M 12.126417525773197 12.389156626506022  C 12.126417525773197 12.659337349397589  11.823324742268042 12.878614457831324  11.44987113402062 12.878614457831324  L 9.339046391752579 12.878614457831324  C 8.965592783505155 12.878614457831324  8.662500000000001 12.659337349397589  8.662500000000001 12.389156626506022  C 8.662500000000001 12.118975903614459  8.965592783505155 11.899698795180722  9.339046391752579 11.899698795180722  L 11.44987113402062 11.899698795180722  C 11.823324742268042 11.899698795180722  12.126417525773197 12.118975903614459  12.126417525773197 12.389156626506022  Z M 17.349355670103094 12.389156626506022  C 17.349355670103094 12.659337349397589  17.046262886597937 12.878614457831324  16.672809278350517 12.878614457831324  L 14.561984536082473 12.878614457831324  C 14.188530927835053 12.878614457831324  13.885438144329896 12.659337349397589  13.885438144329896 12.389156626506022  C 13.885438144329896 12.118975903614459  14.188530927835053 11.899698795180722  14.561984536082473 11.899698795180722  L 16.672809278350517 11.899698795180722  C 17.046262886597937 11.899698795180722  17.349355670103094 12.118975903614459  17.349355670103094 12.389156626506022  Z M 6.930541237113403 2.134036144578313  L 6.930541237113403 1.1551204819277108  L 13.885438144329896 1.1551204819277108  L 13.885438144329896 2.134036144578313  L 6.930541237113403 2.134036144578313  Z " fill-rule="nonzero" fill="rgba(153, 153, 153, 1)" stroke="none" transform="matrix(1 0 0 1 724 572 )" class="fill" />
    <path d="M 0 6  L 0 5.145180722891566  L 20.786211340206187 5.145180722891566  L 20.786211340206187 6  L 0 6  Z " stroke-width="0" stroke-dasharray="0" stroke="rgba(255, 255, 255, 0)" fill="none" transform="matrix(1 0 0 1 724 572 )" class="stroke" mask="url(#Clip58)" />
    <path d="M 5.875128865979382 2.6430722891566267  C 5.875128865979382 2.9132530120481928  5.572036082474228 3.1325301204819276  5.1985824742268045 3.1325301204819276  C 4.825128865979382 3.1325301204819276  4.522036082474227 2.9132530120481928  4.522036082474227 2.6430722891566267  L 4.522036082474227 0.5325301204819277  C 4.522036082474227 0.2623493975903616  4.825128865979382 0.04307228915662656  5.1985824742268045 0.04307228915662656  C 5.572036082474228 0.04307228915662656  5.875128865979382 0.2623493975903616  5.875128865979382 0.5325301204819277  L 5.875128865979382 2.6430722891566267  Z " stroke-width="0" stroke-dasharray="0" stroke="rgba(255, 255, 255, 0)" fill="none" transform="matrix(1 0 0 1 724 572 )" class="stroke" mask="url(#Clip58)" />
    <path d="M 16.245231958762886 2.6430722891566267  C 16.245231958762886 2.9132530120481928  15.94213917525773 3.1325301204819276  15.568685567010307 3.1325301204819276  C 15.195231958762886 3.1325301204819276  14.89213917525773 2.9132530120481928  14.89213917525773 2.6430722891566267  L 14.89213917525773 0.5325301204819277  C 14.89213917525773 0.2623493975903616  15.195231958762886 0.04307228915662656  15.568685567010307 0.04307228915662656  C 15.94213917525773 0.04307228915662656  16.245231958762886 0.2623493975903616  16.245231958762886 0.5325301204819277  L 16.245231958762886 2.6430722891566267  Z " stroke-width="0" stroke-dasharray="0" stroke="rgba(255, 255, 255, 0)" fill="none" transform="matrix(1 0 0 1 724 572 )" class="stroke" mask="url(#Clip58)" />
    <path d="M 6.930541237113403 8.923795180722891  C 6.930541237113403 9.193975903614456  6.627448453608248 9.413253012048191  6.253994845360825 9.413253012048191  L 4.143170103092784 9.413253012048191  C 3.7697164948453614 9.413253012048191  3.4666237113402065 9.193975903614456  3.4666237113402065 8.923795180722891  C 3.4666237113402065 8.653614457831324  3.7697164948453614 8.434337349397591  4.143170103092784 8.434337349397591  L 6.253994845360825 8.434337349397591  C 6.627448453608248 8.434337349397591  6.930541237113403 8.653614457831324  6.930541237113403 8.923795180722891  Z " stroke-width="0" stroke-dasharray="0" stroke="rgba(255, 255, 255, 0)" fill="none" transform="matrix(1 0 0 1 724 572 )" class="stroke" mask="url(#Clip58)" />
    <path d="M 12.126417525773197 8.923795180722891  C 12.126417525773197 9.193975903614456  11.823324742268042 9.413253012048191  11.44987113402062 9.413253012048191  L 9.339046391752579 9.413253012048191  C 8.965592783505155 9.413253012048191  8.662500000000001 9.193975903614456  8.662500000000001 8.923795180722891  C 8.662500000000001 8.653614457831324  8.965592783505155 8.434337349397591  9.339046391752579 8.434337349397591  L 11.44987113402062 8.434337349397591  C 11.823324742268042 8.434337349397591  12.126417525773197 8.653614457831324  12.126417525773197 8.923795180722891  Z " stroke-width="0" stroke-dasharray="0" stroke="rgba(255, 255, 255, 0)" fill="none" transform="matrix(1 0 0 1 724 572 )" class="stroke" mask="url(#Clip58)" />
    <path d="M 17.349355670103094 8.923795180722891  C 17.349355670103094 9.193975903614456  17.046262886597937 9.413253012048191  16.672809278350517 9.413253012048191  L 14.561984536082473 9.413253012048191  C 14.188530927835053 9.413253012048191  13.885438144329896 9.193975903614456  13.885438144329896 8.923795180722891  C 13.885438144329896 8.653614457831324  14.188530927835053 8.434337349397591  14.561984536082473 8.434337349397591  L 16.672809278350517 8.434337349397591  C 17.046262886597937 8.434337349397591  17.349355670103094 8.653614457831324  17.349355670103094 8.923795180722891  Z " stroke-width="0" stroke-dasharray="0" stroke="rgba(255, 255, 255, 0)" fill="none" transform="matrix(1 0 0 1 724 572 )" class="stroke" mask="url(#Clip58)" />
    <path d="M 6.930541237113403 12.389156626506022  C 6.930541237113403 12.659337349397589  6.627448453608248 12.878614457831324  6.253994845360825 12.878614457831324  L 4.143170103092784 12.878614457831324  C 3.7697164948453614 12.878614457831324  3.4666237113402065 12.659337349397589  3.4666237113402065 12.389156626506022  C 3.4666237113402065 12.118975903614459  3.7697164948453614 11.899698795180722  4.143170103092784 11.899698795180722  L 6.253994845360825 11.899698795180722  C 6.627448453608248 11.899698795180722  6.930541237113403 12.118975903614459  6.930541237113403 12.389156626506022  Z " stroke-width="0" stroke-dasharray="0" stroke="rgba(255, 255, 255, 0)" fill="none" transform="matrix(1 0 0 1 724 572 )" class="stroke" mask="url(#Clip58)" />
    <path d="M 12.126417525773197 12.389156626506022  C 12.126417525773197 12.659337349397589  11.823324742268042 12.878614457831324  11.44987113402062 12.878614457831324  L 9.339046391752579 12.878614457831324  C 8.965592783505155 12.878614457831324  8.662500000000001 12.659337349397589  8.662500000000001 12.389156626506022  C 8.662500000000001 12.118975903614459  8.965592783505155 11.899698795180722  9.339046391752579 11.899698795180722  L 11.44987113402062 11.899698795180722  C 11.823324742268042 11.899698795180722  12.126417525773197 12.118975903614459  12.126417525773197 12.389156626506022  Z " stroke-width="0" stroke-dasharray="0" stroke="rgba(255, 255, 255, 0)" fill="none" transform="matrix(1 0 0 1 724 572 )" class="stroke" mask="url(#Clip58)" />
    <path d="M 17.349355670103094 12.389156626506022  C 17.349355670103094 12.659337349397589  17.046262886597937 12.878614457831324  16.672809278350517 12.878614457831324  L 14.561984536082473 12.878614457831324  C 14.188530927835053 12.878614457831324  13.885438144329896 12.659337349397589  13.885438144329896 12.389156626506022  C 13.885438144329896 12.118975903614459  14.188530927835053 11.899698795180722  14.561984536082473 11.899698795180722  L 16.672809278350517 11.899698795180722  C 17.046262886597937 11.899698795180722  17.349355670103094 12.118975903614459  17.349355670103094 12.389156626506022  Z " stroke-width="0" stroke-dasharray="0" stroke="rgba(255, 255, 255, 0)" fill="none" transform="matrix(1 0 0 1 724 572 )" class="stroke" mask="url(#Clip58)" />
    <path d="M 6.930541237113403 2.134036144578313  L 6.930541237113403 1.1551204819277108  L 13.885438144329896 1.1551204819277108  L 13.885438144329896 2.134036144578313  L 6.930541237113403 2.134036144578313  Z " stroke-width="0" stroke-dasharray="0" stroke="rgba(255, 255, 255, 0)" fill="none" transform="matrix(1 0 0 1 724 572 )" class="stroke" mask="url(#Clip58)" />
  </g>
</svg>