<?xml version="1.0" encoding="utf-8"?>
<svg version="1.1" xmlns:xlink="http://www.w3.org/1999/xlink" width="22px" height="15px" xmlns="http://www.w3.org/2000/svg">
  <defs>
    <pattern id="BGPattern" patternUnits="userSpaceOnUse" alignment="0 0" imageRepeat="None" />
    <mask fill="white" id="Clip67">
      <path d="M 22 1.0369897959183672  C 22.000000000000004 0.49936224489795905  21.389182692307696 0.05739795918367347  20.646153846153847 0.05739795918367347  L 17.795673076923077 0.05739795918367347  L 17.795673076923077 1.014030612244898  L 20.643509615384616 1.014030612244898  C 20.659375000000004 1.014030612244898  20.675240384615385 1.0274234693877549  20.675240384615385 1.0369897959183672  L 20.675240384615385 13.871173469387756  C 20.675240384615385 13.88265306122449  20.656730769230773 13.894132653061225  20.643509615384616 13.894132653061225  L 1.406730769230769 13.894132653061225  C 1.3908653846153847 13.894132653061225  1.375 13.880739795918368  1.375 13.871173469387756  L 1.375 1.0369897959183672  C 1.375 1.0255102040816324  1.393509615384615 1.014030612244898  1.406730769230769 1.014030612244898  L 4.230769230769231 1.014030612244898  L 4.230769230769231 0.05739795918367347  L 1.406730769230769 0.05739795918367347  C 0.6610576923076923 0.05739795918367347  0.05288461538461539 0.49936224489795905  0 1.0369897959183672  L 0 13.871173469387756  C 0.05288461538461539 14.410714285714286  0.6637019230769229 14.85076530612245  1.406730769230769 14.85076530612245  L 20.643509615384616 14.85076530612245  C 21.389182692307696 14.85076530612245  21.997355769230772 14.408801020408163  22 13.871173469387756  L 22 1.0369897959183672  Z " fill-rule="evenodd" />
    </mask>
  </defs>
  <g transform="matrix(1 0 0 1 -723 -573 )">
    <path d="M 22 1.0369897959183672  C 22.000000000000004 0.49936224489795905  21.389182692307696 0.05739795918367347  20.646153846153847 0.05739795918367347  L 17.795673076923077 0.05739795918367347  L 17.795673076923077 1.014030612244898  L 20.643509615384616 1.014030612244898  C 20.659375000000004 1.014030612244898  20.675240384615385 1.0274234693877549  20.675240384615385 1.0369897959183672  L 20.675240384615385 13.871173469387756  C 20.675240384615385 13.88265306122449  20.656730769230773 13.894132653061225  20.643509615384616 13.894132653061225  L 1.406730769230769 13.894132653061225  C 1.3908653846153847 13.894132653061225  1.375 13.880739795918368  1.375 13.871173469387756  L 1.375 1.0369897959183672  C 1.375 1.0255102040816324  1.393509615384615 1.014030612244898  1.406730769230769 1.014030612244898  L 4.230769230769231 1.014030612244898  L 4.230769230769231 0.05739795918367347  L 1.406730769230769 0.05739795918367347  C 0.6610576923076923 0.05739795918367347  0.05288461538461539 0.49936224489795905  0 1.0369897959183672  L 0 13.871173469387756  C 0.05288461538461539 14.410714285714286  0.6637019230769229 14.85076530612245  1.406730769230769 14.85076530612245  L 20.643509615384616 14.85076530612245  C 21.389182692307696 14.85076530612245  21.997355769230772 14.408801020408163  22 13.871173469387756  L 22 1.0369897959183672  Z " fill-rule="nonzero" fill="rgba(153, 153, 153, 1)" stroke="none" transform="matrix(1 0 0 1 723 573 )" class="fill" />
    <path d="M 22 1.0369897959183672  C 22.000000000000004 0.49936224489795905  21.389182692307696 0.05739795918367347  20.646153846153847 0.05739795918367347  L 17.795673076923077 0.05739795918367347  L 17.795673076923077 1.014030612244898  L 20.643509615384616 1.014030612244898  C 20.659375000000004 1.014030612244898  20.675240384615385 1.0274234693877549  20.675240384615385 1.0369897959183672  L 20.675240384615385 13.871173469387756  C 20.675240384615385 13.88265306122449  20.656730769230773 13.894132653061225  20.643509615384616 13.894132653061225  L 1.406730769230769 13.894132653061225  C 1.3908653846153847 13.894132653061225  1.375 13.880739795918368  1.375 13.871173469387756  L 1.375 1.0369897959183672  C 1.375 1.0255102040816324  1.393509615384615 1.014030612244898  1.406730769230769 1.014030612244898  L 4.230769230769231 1.014030612244898  L 4.230769230769231 0.05739795918367347  L 1.406730769230769 0.05739795918367347  C 0.6610576923076923 0.05739795918367347  0.05288461538461539 0.49936224489795905  0 1.0369897959183672  L 0 13.871173469387756  C 0.05288461538461539 14.410714285714286  0.6637019230769229 14.85076530612245  1.406730769230769 14.85076530612245  L 20.643509615384616 14.85076530612245  C 21.389182692307696 14.85076530612245  21.997355769230772 14.408801020408163  22 13.871173469387756  L 22 1.0369897959183672  Z " stroke-width="0" stroke-dasharray="0" stroke="rgba(255, 255, 255, 0)" fill="none" transform="matrix(1 0 0 1 723 573 )" class="stroke" mask="url(#Clip67)" />
  </g>
</svg>