<?xml version="1.0" encoding="utf-8"?>
<svg version="1.1" xmlns:xlink="http://www.w3.org/1999/xlink" width="23px" height="23px" xmlns="http://www.w3.org/2000/svg">
  <defs>
    <pattern id="BGPattern" patternUnits="userSpaceOnUse" alignment="0 0" imageRepeat="None" />
    <mask fill="white" id="Clip36">
      <path d="M 22.375 11.5  C 22.375 5.518749999999999  17.481250000000003 0.625  11.5 0.625  C 5.518750000000001 0.625  0.625 5.518750000000001  0.625 11.5  C 0.625 17.481250000000003  5.518750000000001 22.375  11.5 22.375  C 17.481250000000003 22.375  22.375 17.481250000000003  22.375 11.5  Z M 12.768749999999999 11.5  L 16.03125 14.762500000000003  C 16.393749999999997 15.125  16.393749999999997 15.668750000000003  16.03125 16.03125  C 15.668750000000003 16.393749999999997  15.125 16.393749999999997  14.762500000000003 16.03125  L 11.5 12.768749999999999  L 8.2375 16.03125  C 7.875000000000001 16.393749999999997  7.331250000000001 16.393749999999997  6.96875 16.03125  C 6.60625 15.668750000000003  6.60625 15.125  6.96875 14.762500000000003  L 10.23125 11.5  L 6.96875 8.2375  C 6.60625 7.875000000000001  6.60625 7.331250000000001  6.96875 6.96875  C 7.331250000000001 6.60625  7.875000000000001 6.60625  8.2375 6.96875  L 11.5 10.23125  L 14.762500000000003 6.96875  C 15.125 6.60625  15.668750000000003 6.60625  16.03125 6.96875  C 16.393749999999997 7.331250000000001  16.393749999999997 7.875000000000001  16.03125 8.2375  L 12.768749999999999 11.5  Z " fill-rule="evenodd" />
    </mask>
  </defs>
  <g transform="matrix(1 0 0 1 -1193 -733 )">
    <path d="M 22.375 11.5  C 22.375 5.518749999999999  17.481250000000003 0.625  11.5 0.625  C 5.518750000000001 0.625  0.625 5.518750000000001  0.625 11.5  C 0.625 17.481250000000003  5.518750000000001 22.375  11.5 22.375  C 17.481250000000003 22.375  22.375 17.481250000000003  22.375 11.5  Z M 12.768749999999999 11.5  L 16.03125 14.762500000000003  C 16.393749999999997 15.125  16.393749999999997 15.668750000000003  16.03125 16.03125  C 15.668750000000003 16.393749999999997  15.125 16.393749999999997  14.762500000000003 16.03125  L 11.5 12.768749999999999  L 8.2375 16.03125  C 7.875000000000001 16.393749999999997  7.331250000000001 16.393749999999997  6.96875 16.03125  C 6.60625 15.668750000000003  6.60625 15.125  6.96875 14.762500000000003  L 10.23125 11.5  L 6.96875 8.2375  C 6.60625 7.875000000000001  6.60625 7.331250000000001  6.96875 6.96875  C 7.331250000000001 6.60625  7.875000000000001 6.60625  8.2375 6.96875  L 11.5 10.23125  L 14.762500000000003 6.96875  C 15.125 6.60625  15.668750000000003 6.60625  16.03125 6.96875  C 16.393749999999997 7.331250000000001  16.393749999999997 7.875000000000001  16.03125 8.2375  L 12.768749999999999 11.5  Z " fill-rule="nonzero" fill="rgba(230, 230, 230, 1)" stroke="none" transform="matrix(1 0 0 1 1193 733 )" class="fill" />
    <path d="M 22.375 11.5  C 22.375 5.518749999999999  17.481250000000003 0.625  11.5 0.625  C 5.518750000000001 0.625  0.625 5.518750000000001  0.625 11.5  C 0.625 17.481250000000003  5.518750000000001 22.375  11.5 22.375  C 17.481250000000003 22.375  22.375 17.481250000000003  22.375 11.5  Z " stroke-width="0" stroke-dasharray="0" stroke="rgba(255, 255, 255, 0)" fill="none" transform="matrix(1 0 0 1 1193 733 )" class="stroke" mask="url(#Clip36)" />
    <path d="M 12.768749999999999 11.5  L 16.03125 14.762500000000003  C 16.393749999999997 15.125  16.393749999999997 15.668750000000003  16.03125 16.03125  C 15.668750000000003 16.393749999999997  15.125 16.393749999999997  14.762500000000003 16.03125  L 11.5 12.768749999999999  L 8.2375 16.03125  C 7.875000000000001 16.393749999999997  7.331250000000001 16.393749999999997  6.96875 16.03125  C 6.60625 15.668750000000003  6.60625 15.125  6.96875 14.762500000000003  L 10.23125 11.5  L 6.96875 8.2375  C 6.60625 7.875000000000001  6.60625 7.331250000000001  6.96875 6.96875  C 7.331250000000001 6.60625  7.875000000000001 6.60625  8.2375 6.96875  L 11.5 10.23125  L 14.762500000000003 6.96875  C 15.125 6.60625  15.668750000000003 6.60625  16.03125 6.96875  C 16.393749999999997 7.331250000000001  16.393749999999997 7.875000000000001  16.03125 8.2375  L 12.768749999999999 11.5  Z " stroke-width="0" stroke-dasharray="0" stroke="rgba(255, 255, 255, 0)" fill="none" transform="matrix(1 0 0 1 1193 733 )" class="stroke" mask="url(#Clip36)" />
  </g>
</svg>