<?xml version="1.0" encoding="utf-8"?>
<svg version="1.1" xmlns:xlink="http://www.w3.org/1999/xlink" width="10px" height="17px" xmlns="http://www.w3.org/2000/svg">
  <defs>
    <pattern id="BGPattern" patternUnits="userSpaceOnUse" alignment="0 0" imageRepeat="None" />
    <mask fill="white" id="Clip11">
      <path d="M 8.96875616681134 9.391933339033203  C 8.724311722366899 9.391933339033203  8.479867277922452 9.298433339033204  8.284805555555556 9.119933338867186  L 0.3502376482928228 1.5872333388671873  C -0.03062655508536041 1.2217333388671874  -0.03062655526620538 0.6408999999999997  0.34036111111111034 0.2753999998339841  C 0.5184329939610138 0.0998551118653711  0.7679752583680735 0.00015357794001003515  1.0292734345742873 0.00015357794001003515  C 1.285552628639266 0.00015357794001003515  1.5307539666905492 0.09607367581210564  1.7082623518880193 0.2657666611328123  L 9.643447536892362 7.799033338867186  C 10.024929018373843 8.1549  10.024929018373843 8.74536667790039  9.653324074074076 9.11086666113281  C 9.477398148148149 9.307499999999997  9.22307716652199 9.391933322431639  8.969373462818288 9.391933338867185  Z M 1.8064104998553243 16.71893333886719  C 1.6206080186631948 16.90593333886719  1.365669759114583 17  1.122459870515046 17  C 0.8780154260706015 17  0.6335709816261577 16.9065  0.4378919813368056 16.728  C 0.05702777777777744 16.363066661132812  0.05702777777777744 15.781666661132812  0.4286327220775462 15.416733339033202  L 8.284805555555556 7.808666661132812  C 8.462877437984611 7.633121778224996  8.712419698666086 7.533420247586372  8.973717870551036 7.533420247586372  C 9.229997068770352 7.533420247586372  9.475198410426067 7.629340348558657  9.65270679615162 7.799033338701171  C 10.033570999710648 8.154899999667968  10.033570999710648 8.74536667756836  9.662583333333336 9.11086666113281  L 1.8064104998553243 16.71893333886719  Z " fill-rule="evenodd" />
    </mask>
  </defs>
  <g transform="matrix(1 0 0 1 -12 -12 )">
    <path d="M 8.96875616681134 9.391933339033203  C 8.724311722366899 9.391933339033203  8.479867277922452 9.298433339033204  8.284805555555556 9.119933338867186  L 0.3502376482928228 1.5872333388671873  C -0.03062655508536041 1.2217333388671874  -0.03062655526620538 0.6408999999999997  0.34036111111111034 0.2753999998339841  C 0.5184329939610138 0.0998551118653711  0.7679752583680735 0.00015357794001003515  1.0292734345742873 0.00015357794001003515  C 1.285552628639266 0.00015357794001003515  1.5307539666905492 0.09607367581210564  1.7082623518880193 0.2657666611328123  L 9.643447536892362 7.799033338867186  C 10.024929018373843 8.1549  10.024929018373843 8.74536667790039  9.653324074074076 9.11086666113281  C 9.477398148148149 9.307499999999997  9.22307716652199 9.391933322431639  8.969373462818288 9.391933338867185  Z M 1.8064104998553243 16.71893333886719  C 1.6206080186631948 16.90593333886719  1.365669759114583 17  1.122459870515046 17  C 0.8780154260706015 17  0.6335709816261577 16.9065  0.4378919813368056 16.728  C 0.05702777777777744 16.363066661132812  0.05702777777777744 15.781666661132812  0.4286327220775462 15.416733339033202  L 8.284805555555556 7.808666661132812  C 8.462877437984611 7.633121778224996  8.712419698666086 7.533420247586372  8.973717870551036 7.533420247586372  C 9.229997068770352 7.533420247586372  9.475198410426067 7.629340348558657  9.65270679615162 7.799033338701171  C 10.033570999710648 8.154899999667968  10.033570999710648 8.74536667756836  9.662583333333336 9.11086666113281  L 1.8064104998553243 16.71893333886719  Z " fill-rule="nonzero" fill="rgba(219, 219, 219, 1)" stroke="none" transform="matrix(1 0 0 1 12 12 )" class="fill" />
    <path d="M 8.96875616681134 9.391933339033203  C 8.724311722366899 9.391933339033203  8.479867277922452 9.298433339033204  8.284805555555556 9.119933338867186  L 0.3502376482928228 1.5872333388671873  C -0.03062655508536041 1.2217333388671874  -0.03062655526620538 0.6408999999999997  0.34036111111111034 0.2753999998339841  C 0.5184329939610138 0.0998551118653711  0.7679752583680735 0.00015357794001003515  1.0292734345742873 0.00015357794001003515  C 1.285552628639266 0.00015357794001003515  1.5307539666905492 0.09607367581210564  1.7082623518880193 0.2657666611328123  L 9.643447536892362 7.799033338867186  C 10.024929018373843 8.1549  10.024929018373843 8.74536667790039  9.653324074074076 9.11086666113281  C 9.477398148148149 9.307499999999997  9.22307716652199 9.391933322431639  8.969373462818288 9.391933338867185  Z " stroke-width="0" stroke-dasharray="0" stroke="rgba(255, 255, 255, 0)" fill="none" transform="matrix(1 0 0 1 12 12 )" class="stroke" mask="url(#Clip11)" />
    <path d="M 1.8064104998553243 16.71893333886719  C 1.6206080186631948 16.90593333886719  1.365669759114583 17  1.122459870515046 17  C 0.8780154260706015 17  0.6335709816261577 16.9065  0.4378919813368056 16.728  C 0.05702777777777744 16.363066661132812  0.05702777777777744 15.781666661132812  0.4286327220775462 15.416733339033202  L 8.284805555555556 7.808666661132812  C 8.462877437984611 7.633121778224996  8.712419698666086 7.533420247586372  8.973717870551036 7.533420247586372  C 9.229997068770352 7.533420247586372  9.475198410426067 7.629340348558657  9.65270679615162 7.799033338701171  C 10.033570999710648 8.154899999667968  10.033570999710648 8.74536667756836  9.662583333333336 9.11086666113281  L 1.8064104998553243 16.71893333886719  Z " stroke-width="0" stroke-dasharray="0" stroke="rgba(255, 255, 255, 0)" fill="none" transform="matrix(1 0 0 1 12 12 )" class="stroke" mask="url(#Clip11)" />
  </g>
</svg>